<svg width="48" height="48" viewBox="0 0 48 48" fill="none" xmlns="http://www.w3.org/2000/svg">
<g clip-path="url(#clip0_3306_6439)">
<path d="M6.85442 0.5C9.11964 1.01512 10.5343 3.29702 9.65042 5.54082C9.51267 5.89051 9.27845 6.12747 9.1477 6.45831C10.1181 6.33337 11.1001 6.79958 11.5488 7.67934C11.6092 7.79779 11.8069 8.25243 11.8069 8.33811V11.5009C12.6126 10.9267 14.0334 9.35437 14.9421 9.08609C15.7095 8.85956 16.1982 9.71831 15.5188 10.3066C14.3161 11.3479 12.7995 12.1381 11.8545 13.5194C11.6104 15.0256 12.31 16.6614 10.9825 17.7815C10.6159 18.0908 10.2423 18.1517 9.89571 18.437L9.87531 25.7505C9.6531 26.5952 9.12737 26.991 8.42271 27.4218C9.32934 31.9743 12.4107 36.0539 16.5329 38.1758C16.9141 38.1669 18.7607 35.6856 19.3963 35.6282C19.9185 35.5811 20.2677 36.227 20.0086 36.7039C19.7009 37.2705 18.4525 38.0836 18.042 38.6807C17.9889 38.758 17.9144 38.7718 17.9519 38.91C21.3453 40.272 25.2231 40.5582 28.7334 39.4639L26.8316 33.7482C26.7957 33.6405 26.7408 33.6002 26.6264 33.5973C26.397 33.5914 25.7441 33.8204 25.4144 33.8575C18.1633 34.6725 12.4867 27.8623 14.7157 20.8714C15.9129 17.1165 19.5102 14.3047 23.4544 14.0677V7.8339C22.6049 7.85408 21.7038 7.96602 20.8677 8.13602C20.2151 8.26871 18.2401 9.01009 17.8182 8.93333C17.2497 8.82991 17.1587 8.01 17.7357 7.66396C18.2425 7.36002 19.6948 6.99173 20.3191 6.85422C25.5018 5.71258 31.0599 6.93828 35.1612 10.3015C35.404 10.3446 36.1727 9.10264 36.6131 9.20696L46.9806 9.20708C47.3175 9.20479 47.4786 9.43303 47.6665 9.66738V10.1257C47.4786 10.3601 47.3175 10.5883 46.9806 10.586L36.984 10.5862L36.3008 11.1926C36.2819 11.3006 37.5627 12.592 37.7589 12.8327C39.5561 15.0378 40.8279 17.6885 41.3819 20.4876L41.5588 20.5725C44.2625 20.1066 46.4455 22.7825 45.5365 25.3688C45.4036 25.747 45.1347 26.0661 45.0073 26.4432C46.296 26.3016 47.3185 27.1772 47.6665 28.3688V31.3024C47.4106 31.6558 47.1377 31.8907 46.6808 31.6917C45.6889 31.2599 46.991 28.328 45.6539 27.8596L38.5188 27.8881L38.0144 28.3923L37.9502 36.2017C38.0712 36.9674 39.138 36.8216 39.1409 37.5808L37.945 41.2948H39.2748C39.3298 41.2948 39.6356 41.5387 39.6897 41.6135C40.1433 42.2418 39.6877 44.6421 39.8903 45.5383C39.9374 45.7468 40.2019 45.9899 40.3981 46.0392C40.7594 46.1298 43.2501 46.1233 43.6718 46.0566C44.0587 45.9955 44.3232 45.6591 44.3669 45.2847C44.461 44.4801 44.1682 42.0981 44.5073 41.5747C44.5568 41.4982 44.8124 41.2948 44.8693 41.2948H46.1991C46.0931 40.3626 44.9467 38.2096 45.1004 37.4015C45.1802 36.9823 45.7251 36.9403 45.972 36.7134C46.7414 36.0063 45.7831 33.936 46.7454 33.6339C47.1893 33.4944 47.4213 33.7218 47.6665 34.0526V36.4361C47.4101 36.9885 47.1897 37.6761 46.5685 37.9099L47.6665 41.2032V41.6615C47.3118 42.5758 46.6845 42.7769 45.7405 42.6699V45.741C45.7405 45.7833 45.5309 46.2157 45.4824 46.308C45.1614 46.9193 44.5417 47.3447 43.8503 47.4268C43.0917 47.5169 41.0353 47.5308 40.2917 47.4289C39.4955 47.3198 38.6146 46.5404 38.5034 45.7329C38.4331 45.2221 38.5982 42.961 38.4552 42.7558C37.7295 42.6328 36.7852 42.7172 36.5907 41.7784C36.3978 40.847 37.4016 39.0241 37.5738 38.0361C37.1437 37.5052 36.7828 37.0888 36.5234 36.4379C31.4306 41.6059 23.4174 42.8907 16.8174 39.9383L12.2692 44.4613L11.905 44.6473L1.18329 44.6259C0.500413 44.4136 0.590618 43.5349 1.2164 43.314L11.4671 43.2929L15.4722 39.3173C15.5086 39.1547 14.2127 38.4224 13.9791 38.2526C10.4582 35.6943 7.76795 31.7918 7.03718 27.4527C5.33199 27.4386 3.18085 27.8543 2.67653 25.7153L2.64147 18.3407C1.87307 18.0707 1.24386 17.7189 0.913643 16.9349C0.64009 16.2855 0.634519 14.7445 0.703489 14.0161C0.759931 13.42 1.06256 13.2431 1.65522 13.3553C2.54597 13.5238 1.71432 15.9026 2.31862 16.6306C2.83626 17.2543 3.74191 16.6667 3.99205 17.5248L4.00925 25.2998C4.0118 25.6216 4.31981 25.9888 4.62683 26.0576C5.05841 26.1544 7.3265 26.1392 7.81122 26.0711C8.26207 26.0077 8.46996 25.7429 8.51143 25.3035C8.73323 22.9537 8.1916 19.9923 8.52958 17.7132C8.71316 16.4752 10.128 17.4353 10.426 16.2168L10.4334 8.70263C10.3688 8.1591 10.0226 7.84603 9.47289 7.82924L2.72233 7.87471C1.48649 8.34897 2.49748 10.613 1.90589 11.2502C1.60856 11.5705 0.843038 11.4607 0.734366 10.974C0.640962 10.5558 0.663374 9.08332 0.710755 8.6142C0.844997 7.28506 2.03418 6.28666 3.36889 6.45831C3.438 6.39776 3.01927 5.85725 2.9585 5.72354C1.91481 3.42714 3.30195 1.05126 5.66216 0.5H6.85442ZM5.91502 1.89946C3.15075 2.2793 3.51456 6.55116 6.3362 6.45211C9.41987 6.34386 9.12473 1.45841 5.91502 1.89946ZM24.9218 7.8339V14.0677C32.822 14.675 36.917 23.7563 32.02 30.1012C30.9635 31.47 29.5974 32.4269 28.0525 33.179L30.059 39.0033C32.5509 38.0861 34.8284 36.4637 36.5198 34.4156L36.5913 28.345C36.8446 27.1119 37.9757 26.3166 39.2289 26.4428C38.2959 25.1869 38.1453 23.4154 39.0621 22.1057C39.3092 21.7528 40.0401 21.264 40.0625 20.8989C40.0897 20.4552 39.5898 19.0035 39.414 18.5123C38.8016 16.8018 37.8086 15.0585 36.6584 13.6578C36.4493 13.4032 35.5848 12.3823 35.3763 12.2746C35.2436 12.2062 35.2415 12.254 35.145 12.3204C34.4081 12.8268 33.5939 14.129 32.8557 14.6179C32.2374 15.0274 31.4764 14.5114 31.7778 13.8161C32.0274 13.2408 33.6548 12.092 34.096 11.4578C34.1514 11.3783 34.2524 11.3318 34.1422 11.2237C31.5118 9.19497 28.2651 7.9568 24.9218 7.8339ZM23.0686 15.4697C17.0448 16.0825 13.741 23.1293 16.7772 28.3052C19.8143 33.4826 27.2184 34.0339 30.9195 29.2761C35.6718 23.1669 30.776 14.6857 23.0686 15.4697ZM41.8694 21.885C38.9326 22.1649 39.3467 26.6116 42.2063 26.4453C45.2573 26.268 44.9477 21.5916 41.8694 21.885Z" fill="#4AB04A"/>
<path d="M47.6681 3.70717V4.16554C47.404 4.64585 46.7829 4.87839 46.4347 4.34473C45.8625 3.46794 47.1559 2.83303 47.6681 3.70717Z" fill="#4AB04A"/>
<path d="M47.6681 6.735V7.19337C47.1559 8.06751 45.8625 7.4326 46.4347 6.55582C46.7829 6.02215 47.404 6.25469 47.6681 6.735Z" fill="#4AB04A"/>
<path d="M40.214 3.26436C40.6795 3.1601 43.7066 3.16842 44.2248 3.25022C44.9783 3.36915 45.1576 4.33953 44.411 4.61763L40.1053 4.6178C39.3643 4.372 39.5278 3.41805 40.214 3.26436Z" fill="#4AB04A"/>
<path d="M40.0242 6.29774L44.405 6.28125C45.1574 6.56582 44.9659 7.53098 44.2188 7.64866C43.6027 7.74571 40.9017 7.74574 40.2856 7.64866C39.5839 7.53809 39.3249 6.65164 40.0242 6.29774Z" fill="#4AB04A"/>
<path d="M3.98386 37.3755C5.258 37.4763 6.95455 37.1694 8.17716 37.3616C8.9053 37.4761 8.97627 38.602 8.17752 38.7255C7.51873 38.8273 4.71986 38.8274 4.06136 38.7255C3.30733 38.6087 3.31009 37.603 3.98386 37.3755Z" fill="#4AB04A"/>
<path d="M4.169 40.3029C4.8029 40.1891 7.33068 40.1968 7.9909 40.2896C8.82806 40.4073 9.0937 41.292 8.27206 41.6541H3.96619C3.18466 41.3347 3.38593 40.4436 4.169 40.3029Z" fill="#4AB04A"/>
<path d="M1.23859 37.3699C2.17347 37.1788 2.39633 38.5424 1.56201 38.7129C0.627134 38.9039 0.404266 37.5403 1.23859 37.3699Z" fill="#4AB04A"/>
<path d="M1.40133 40.3281C2.29726 40.3282 2.31206 41.5909 1.49471 41.6704C0.506821 41.7664 0.433714 40.328 1.40133 40.3281Z" fill="#4AB04A"/>
</g>
<defs>
<clipPath id="clip0_3306_6439">
<rect width="47" height="47" fill="white" transform="translate(0.666504 0.5)"/>
</clipPath>
</defs>
</svg>
