<svg width="54" height="48" viewBox="0 0 54 48" fill="none" xmlns="http://www.w3.org/2000/svg">
<g clip-path="url(#clip0_3306_6419)">
<path d="M8.87901 40.9482C9.21797 41.5191 9.53414 42.0528 9.85174 42.5852C10.3801 43.4701 10.9185 44.3506 11.4383 45.2412C11.8869 46.0105 11.7545 46.6642 11.0609 47.2179C10.9356 47.3178 10.8045 47.4092 10.6749 47.5034C9.60535 48.2912 8.87759 48.1427 8.18401 46.9938C7.38503 45.6694 6.58464 44.3449 5.79563 43.0148C5.65036 42.7693 5.52646 42.6808 5.21029 42.7664C3.19648 43.3131 1.23821 42.3069 0.558867 40.4058C-0.111929 38.5319 0.753982 36.5395 2.63392 35.6561C3.38874 35.3007 4.1279 34.8854 4.91833 34.6328C7.58442 33.7764 9.36467 31.8197 11.0808 29.7788C11.2289 29.6018 11.2816 29.2679 11.2475 29.0252C11.0879 27.9163 11.6818 26.8616 12.7058 26.5205C13.7626 26.1694 14.8777 26.6461 15.3776 27.6965C15.7978 28.5785 16.1937 29.472 16.5796 30.3697C16.7064 30.6637 16.846 30.7936 17.2034 30.7736C18.3257 30.7122 19.1859 31.2503 19.5961 32.2022C20.0091 33.1627 19.7926 34.1047 19.0079 34.9396C18.9025 35.0524 18.847 35.3221 18.9053 35.462C19.2813 36.364 19.7 37.2474 20.0945 38.1408C20.6016 39.2897 20.274 40.4415 19.2842 41.0338C18.2872 41.6304 17.1664 41.3692 16.3546 40.3787C16.2492 40.2503 16.0456 40.1546 15.8775 40.1361C13.5034 39.8635 11.2133 40.3216 8.88186 40.9467L8.87901 40.9482ZM6.48637 35.8173C7.02471 37.0162 7.53885 38.1822 8.08431 39.3326C8.12989 39.4296 8.40191 39.4838 8.55145 39.4567C9.92722 39.2027 11.2916 38.8801 12.6745 38.6732C13.5774 38.5376 14.5046 38.559 15.483 38.5076C14.3565 36.0114 13.2385 33.5352 12.0906 30.9934C10.477 32.98 8.58278 34.4943 6.48637 35.8173ZM6.88372 40.4001C6.24141 38.9815 5.63043 37.6313 5.00378 36.2469C4.30592 36.5681 3.64652 36.8307 3.02557 37.1646C1.98164 37.727 1.58001 38.9743 2.05142 40.0533C2.51571 41.1166 3.73625 41.6832 4.84142 41.2907C5.52219 41.0495 6.16877 40.7155 6.88372 40.3987V40.4001ZM13.4265 27.952C12.8426 27.9705 12.6104 28.4387 12.8668 29.011C13.7227 30.922 14.5872 32.8273 15.4474 34.7355C16.1267 36.2398 16.8032 37.7441 17.4854 39.2455C17.7247 39.7721 18.038 39.9377 18.4225 39.7636C18.8227 39.5823 18.9139 39.2427 18.6889 38.7303C18.5251 38.3564 18.3528 37.9867 18.1847 37.6142C16.8289 34.6056 15.473 31.5985 14.1172 28.5899C13.9677 28.2588 13.8195 27.9277 13.425 27.952H13.4265ZM6.97059 42.0314C7.86214 43.5086 8.7252 44.9401 9.6082 46.4044C9.81044 46.2431 9.95713 46.1247 10.1209 45.9934C9.26497 44.5633 8.43039 43.1675 7.58584 41.7574C7.38076 41.8487 7.20701 41.9258 6.97059 42.0314ZM18.0864 33.6951C18.4154 32.9358 18.2103 32.4976 17.4769 32.3235C17.6763 32.7731 17.8586 33.1827 18.0864 33.6951Z" fill="#4AB04A"/>
<path d="M53.3335 32.0852C53.3392 35.4149 52.8393 38.669 51.8238 41.8402C51.7369 42.11 51.5703 42.4297 51.3453 42.5553C51.1516 42.6637 50.7243 42.6238 50.5762 42.4753C50.3925 42.2912 50.2743 41.9016 50.3313 41.6433C50.6546 40.1533 51.1388 38.6918 51.3837 37.1918C52.5188 30.2427 51.4307 23.6347 48.1152 17.4221C47.3818 16.0477 46.4689 14.7674 45.6243 13.453C45.2341 12.845 45.4164 12.217 46.043 12.1328C46.456 12.0771 46.691 12.3269 46.9132 12.6295C48.8017 15.1942 50.2871 17.9744 51.3781 20.9644C52.6869 24.5524 53.3306 28.256 53.3349 32.0852H53.3335Z" fill="#4AB04A"/>
<path d="M40.9058 26.7684C40.6623 26.9854 40.4401 27.3365 40.1681 27.3793C39.9231 27.4178 39.5158 27.1866 39.3734 26.9568C39.1384 26.5743 39.0758 26.0905 38.9105 25.6595C36.404 19.0829 31.7839 14.8826 24.9107 13.2242C24.8067 13.1985 24.7042 13.17 24.6017 13.14C24.1203 12.9973 23.8853 12.6647 23.9665 12.2437C24.0491 11.817 24.4564 11.5586 24.9506 11.6642C25.5402 11.7898 26.1327 11.9183 26.7052 12.1038C33.8105 14.3959 38.4277 19.1571 40.7036 26.2375C40.7463 26.3717 40.7705 26.513 40.8047 26.6514C40.8375 26.6899 40.8717 26.7299 40.9044 26.7684H40.9058Z" fill="#4AB04A"/>
<path d="M25.8583 27.9522C25.5023 27.9122 25.0009 27.8922 24.5167 27.7938C22.661 27.4184 22.0813 26.5136 22.473 24.6539C22.9031 22.613 24.8842 21.0873 26.9478 21.21C29.2094 21.3428 31.0096 23.0169 31.1777 25.1877C31.2418 26.0069 30.7518 26.5535 30.0953 26.9546C29.1824 27.5112 28.1598 27.7324 27.1159 27.8651C26.7456 27.9122 26.371 27.9194 25.8583 27.9536V27.9522ZM25.9651 26.4579C27.2327 26.3951 28.4503 26.1268 29.1767 25.7414C29.5954 25.5188 29.7036 25.2433 29.5569 24.7866C29.1183 23.4151 27.8351 22.5745 26.3867 22.7471C25.0494 22.9056 23.9898 24.0859 23.9 25.4674C23.8716 25.9098 24.0396 26.1496 24.4469 26.2253C24.9497 26.318 25.4581 26.3823 25.9651 26.4593V26.4579Z" fill="#4AB04A"/>
<path d="M43.3346 33.9022C42.1539 33.8509 41.006 33.6468 39.9351 33.1244C38.5336 32.4436 38.1747 31.5359 38.7117 30.0716C39.4708 28.005 41.6825 26.7933 43.8074 27.2785C46.005 27.7809 47.4705 29.819 47.2355 32.0683C47.1557 32.8233 46.6786 33.3314 45.9978 33.524C45.1391 33.7681 44.2404 33.8737 43.3574 34.0393C43.3488 33.9936 43.3417 33.9465 43.3332 33.9008L43.3346 33.9022ZM43.6835 32.4479C44.2048 32.3666 44.7289 32.2966 45.2487 32.201C45.6461 32.1282 45.7814 31.8756 45.7586 31.4703C45.6831 30.1273 44.6406 28.9355 43.3389 28.7386C41.9275 28.5259 40.5902 29.3123 40.1273 30.6268C39.8909 31.2976 39.9365 31.4346 40.5774 31.75C41.5515 32.231 42.6011 32.368 43.6835 32.4479Z" fill="#4AB04A"/>
<path d="M41.8727 12.4909C41.0723 12.3539 40.2505 12.2853 39.4729 12.0656C37.8793 11.6146 37.4022 10.7454 37.7568 9.13263C38.2353 6.96042 40.3175 5.52179 42.6403 5.76013C44.6798 5.96993 46.4216 7.8724 46.4743 9.96898C46.4956 10.8182 46.01 11.3619 45.3022 11.7259C44.2312 12.2768 43.069 12.3924 41.8741 12.4909H41.8727ZM41.9225 10.9966C42.7315 10.8296 43.5561 10.7068 44.3494 10.4785C44.9632 10.3029 45.0216 10.096 44.8763 9.47231C44.563 8.12217 43.2727 7.16308 41.8798 7.24443C40.5069 7.32435 39.3889 8.40047 39.1909 9.7706C39.1297 10.2002 39.2807 10.4442 39.6495 10.5313C40.3858 10.7068 41.1335 10.8382 41.9225 10.9966Z" fill="#4AB04A"/>
<path d="M27.0681 0C28.3314 0.349667 29.6046 0.663654 30.855 1.05471C33.6507 1.92959 36.2542 3.21408 38.6967 4.82826C39.2193 5.17364 39.3532 5.57612 39.0926 5.98145C38.8391 6.37678 38.3791 6.43244 37.8777 6.10419C36.0021 4.87107 34.0395 3.79068 31.9189 3.05423C30.2811 2.4862 28.5934 2.06232 26.9257 1.58563C26.4472 1.44862 26.1467 1.13035 26.2193 0.735014C26.3019 0.291151 26.5796 0.0570885 27.0667 0L27.0681 0Z" fill="#4AB04A"/>
<path d="M25.9466 20.7155C24.5951 20.7155 23.4714 19.598 23.4586 18.245C23.4472 16.8835 24.6122 15.7303 25.9794 15.7503C27.3338 15.7702 28.4418 16.8992 28.4333 18.2522C28.4262 19.6037 27.3011 20.717 25.9452 20.7155H25.9466ZM25.0081 18.2136C24.9996 18.7431 25.3983 19.1756 25.9153 19.1984C26.438 19.2212 26.908 18.7617 26.9051 18.2308C26.9009 17.7027 26.4893 17.2931 25.9595 17.2888C25.4183 17.2859 25.0181 17.6741 25.0081 18.2136Z" fill="#4AB04A"/>
<path d="M44.3763 2.54938C44.372 3.9352 43.2854 5.01275 41.8982 5.00704C40.511 5.00133 39.44 3.92093 39.4429 2.52797C39.4457 1.14215 40.5267 0.0688867 41.9196 0.0703139C43.3039 0.0717411 44.3806 1.15928 44.3763 2.54795V2.54938ZM41.9067 3.50561C42.4109 3.50704 42.8595 3.06318 42.8695 2.55509C42.8795 2.04272 42.4536 1.59886 41.9381 1.58316C41.404 1.56746 40.9369 2.02274 40.944 2.55081C40.9511 3.05604 41.4026 3.50419 41.9067 3.50704V3.50561Z" fill="#4AB04A"/>
<path d="M43.7221 26.4949C42.3335 26.4949 41.2554 25.4174 41.2554 24.0287C41.2554 22.6372 42.3321 21.5611 43.7207 21.5625C45.1107 21.5625 46.1874 22.64 46.1874 24.0287C46.1874 25.4188 45.1107 26.4949 43.7207 26.4964L43.7221 26.4949ZM43.7093 24.9878C44.2205 24.9949 44.6692 24.5639 44.6834 24.053C44.6991 23.5235 44.2348 23.0525 43.7064 23.0625C43.198 23.0711 42.7579 23.5192 42.7579 24.0287C42.7579 24.5382 43.1965 24.9807 43.7093 24.9878Z" fill="#4AB04A"/>
<path d="M31.6645 31.3825C31.4751 32.3673 31.3384 33.2236 31.139 34.0643C31.018 34.5766 30.6035 34.8078 30.1933 34.6894C29.749 34.5624 29.5525 34.157 29.7048 33.6218C30.1691 31.9991 30.1179 30.4006 29.5311 28.8164C29.3232 28.2555 29.4926 27.8202 29.9356 27.6732C30.397 27.5205 30.8072 27.7289 30.9653 28.3226C31.2416 29.3602 31.4481 30.4177 31.6645 31.3825Z" fill="#4AB04A"/>
<path d="M41.4535 34.8326C41.1444 36.0486 40.8539 37.2688 40.5149 38.4763C40.3867 38.933 39.9353 39.1285 39.5408 38.9487C39.1391 38.766 38.9839 38.4534 39.095 37.9924C39.367 36.8749 39.6134 35.7517 39.8655 34.6299C39.9766 34.1347 40.2714 33.8849 40.7043 33.9363C41.1444 33.9891 41.3794 34.2988 41.452 34.8312L41.4535 34.8326Z" fill="#4AB04A"/>
<path d="M21.3513 34.1687C21.9694 34.2372 22.5904 34.2843 23.2042 34.3785C23.6998 34.4555 23.9462 34.7938 23.8693 35.2334C23.7881 35.6958 23.4748 35.907 23.029 35.8742C22.3198 35.8228 21.612 35.7543 20.9084 35.6544C20.4883 35.5944 20.2504 35.3033 20.2476 34.8751C20.2447 34.4784 20.5979 34.1729 21.0295 34.1644C21.1363 34.1615 21.2417 34.1787 21.3485 34.1858C21.3485 34.1801 21.3485 34.1744 21.3499 34.1701L21.3513 34.1687Z" fill="#4AB04A"/>
<path d="M20.4745 27.3632C20.4931 27.8955 19.0902 29.9407 18.7271 29.9793C18.4622 30.0064 18.0833 29.9336 17.9309 29.7538C17.78 29.5754 17.7244 29.1372 17.8426 28.9403C18.2414 28.2723 18.7028 27.6329 19.2113 27.0449C19.358 26.8751 19.7753 26.8194 20.0174 26.8879C20.2353 26.9507 20.382 27.2576 20.476 27.3618L20.4745 27.3632Z" fill="#4AB04A"/>
<path d="M23.5556 30.9005C23.453 31.0118 23.2978 31.2858 23.0628 31.4129C22.5045 31.7183 21.9135 31.9681 21.3253 32.2135C20.8681 32.4048 20.4622 32.2535 20.2813 31.8681C20.0876 31.4571 20.2457 31.0518 20.7243 30.8249C21.3167 30.5437 21.912 30.2654 22.5216 30.027C23.0557 29.8187 23.5655 30.1826 23.5541 30.9005H23.5556Z" fill="#4AB04A"/>
</g>
<defs>
<clipPath id="clip0_3306_6419">
<rect width="53" height="48" fill="white" transform="translate(0.333496)"/>
</clipPath>
</defs>
</svg>
