<svg width="28" height="24" viewBox="0 0 28 24" fill="none" xmlns="http://www.w3.org/2000/svg">
<path d="M3.08366 16.47C2.42524 15.9563 1.97771 15.3332 1.77709 14.5498C1.35823 12.915 2.20919 11.2366 3.79721 10.5562C3.88613 10.5183 4.0037 10.4117 4.00591 10.3344C4.05 8.47429 4.93329 7.11496 6.59627 6.18632C5.59393 5.39291 5.10231 4.37341 5.20445 3.11997C5.27867 2.20993 5.69974 1.453 6.40079 0.844882C7.81098 -0.378513 9.9957 -0.25832 11.3037 1.10816C12.5743 2.43601 12.6625 4.73757 10.8716 6.16486C11.3265 6.50612 11.7865 6.85025 12.2635 7.20797C13.5326 6.70072 14.6003 6.75796 15.7239 7.2094C16.2001 6.85168 16.6608 6.50612 17.115 6.16558C15.2991 4.72469 15.4219 2.37234 16.735 1.0545C18.0813 -0.296953 20.2667 -0.34918 21.6858 0.927872C23.0665 2.17058 23.359 4.64313 21.4014 6.20206C22.2075 6.61916 22.8542 7.19724 23.3186 7.9606C23.7478 8.66674 23.9631 9.43083 23.9689 10.2507C23.9697 10.3938 23.9954 10.4861 24.1571 10.5569C26.6409 11.6451 27.0774 14.6528 25.0088 16.3856C24.9816 16.4085 24.9559 16.4328 24.9301 16.455C25.2446 16.6739 25.5731 16.8671 25.8583 17.1082C26.8672 17.9638 27.4257 19.047 27.4786 20.3534C27.5065 21.0481 27.5102 21.7463 27.472 22.4403C27.4235 23.3181 26.6592 23.9907 25.7539 23.9928C23.783 23.9971 21.8121 23.9928 19.8413 23.9949C19.4092 23.9949 19.0395 23.8397 18.6846 23.5685C18.229 23.9763 17.6632 24.0021 17.0753 23.9985C14.9582 23.9871 12.8403 23.9871 10.7232 23.9985C10.2 24.0014 9.72307 23.9155 9.29906 23.565C8.86549 23.9427 8.34595 24.0021 7.79114 23.9978C5.96723 23.9849 4.14259 23.9942 2.31868 23.9921C1.29503 23.9914 0.528578 23.3246 0.511677 22.333C0.49551 21.4179 0.471995 20.4843 0.628519 19.5886C0.867346 18.2235 1.71757 17.2205 2.96315 16.5458C2.99475 16.5287 3.02414 16.5072 3.0844 16.4678L3.08366 16.47ZM13.9948 22.8495C15.1029 22.8495 16.2118 22.8503 17.32 22.8495C17.9064 22.8488 18.0945 22.6664 18.0953 22.0976C18.0967 21.0538 18.0982 20.0107 18.0938 18.9669C18.0923 18.7265 18.0894 18.4825 18.0475 18.2471C17.7006 16.299 16.156 14.9712 14.13 14.8689C11.9901 14.7608 10.0251 16.4378 9.92295 18.5154C9.86416 19.7081 9.89649 20.905 9.89282 22.0998C9.89062 22.6678 10.0809 22.8488 10.6696 22.8495C11.7777 22.851 12.8866 22.8495 13.9948 22.8495ZM5.18976 22.8488C6.13331 22.8488 7.0776 22.8531 8.02115 22.8474C8.49439 22.8445 8.7075 22.6292 8.71338 22.1727C8.71558 21.9853 8.71999 21.7978 8.71338 21.6104C8.6906 21.0323 8.7391 20.4392 8.62152 19.879C8.23352 18.0318 6.52278 16.9164 4.59452 17.194C3.15495 17.4015 1.87557 18.6521 1.73006 20.0565C1.66099 20.7283 1.6823 21.4094 1.67348 22.0869C1.66613 22.6535 1.86601 22.8474 2.44067 22.8481C3.35703 22.8503 4.27339 22.8481 5.18976 22.8481V22.8488ZM22.7836 22.8495C23.6081 22.8495 24.4334 22.8495 25.2579 22.8495C26.2316 22.8495 26.33 22.7658 26.3117 21.8064C26.2992 21.1225 26.3286 20.4221 26.1911 19.7581C25.8641 18.1813 24.2886 17.0609 22.6411 17.1439C20.9347 17.2298 19.5091 18.4789 19.3283 20.1015C19.2549 20.7633 19.2828 21.4365 19.2754 22.1048C19.2688 22.6506 19.4731 22.846 20.0345 22.8474C20.9509 22.8495 21.8673 22.8474 22.7836 22.8474V22.8495ZM8.86329 17.6125C9.04921 16.8857 9.39091 16.2117 9.88768 15.6165C10.3822 15.0234 10.9885 14.5598 11.7226 14.2056C10.6291 13.438 10.0001 12.4392 9.89649 11.1665C9.79214 9.88155 10.2698 8.79695 11.2067 7.90552C10.3661 6.91106 8.63622 6.5884 7.30319 7.15002C6.05688 7.67515 5.14273 8.98654 5.22429 10.2679C6.78292 10.3731 7.93737 11.0828 8.48264 12.5229C9.07272 14.0804 8.58184 15.3997 7.35904 16.4421C7.8558 16.8284 8.35257 17.2148 8.86402 17.6125H8.86329ZM19.127 17.609C19.6385 17.2126 20.1367 16.827 20.6334 16.4421C19.44 15.4433 18.944 14.1613 19.4591 12.6453C19.9772 11.1228 21.1647 10.3738 22.7858 10.2622C22.8049 8.77334 21.7247 7.41043 20.2175 6.9869C18.811 6.59126 17.3148 7.21011 16.7997 7.91482C18.592 9.55388 18.6413 12.578 16.2941 14.2121C17.7565 14.9504 18.7103 16.0858 19.1277 17.609H19.127ZM13.9984 8.00997C12.3869 8.00496 11.0781 9.27057 11.0723 10.8402C11.0664 12.4206 12.3744 13.7098 13.9896 13.7134C15.5909 13.717 16.9107 12.4378 16.9166 10.876C16.9224 9.28631 15.6276 8.01498 13.9992 8.00997H13.9984ZM8.70971 1.15538C7.41342 1.15896 6.37214 2.17631 6.37581 3.43547C6.37948 4.6975 7.42445 5.71199 8.71779 5.70841C10.0148 5.70484 11.0554 4.6882 11.0517 3.42832C11.048 2.16558 10.0038 1.1518 8.71044 1.1561L8.70971 1.15538ZM19.3129 5.70698C20.6239 5.67264 21.6439 4.64528 21.6108 3.39398C21.577 2.11907 20.5181 1.12176 19.2358 1.1561C17.9262 1.19115 16.9048 2.21923 16.9379 3.4691C16.9717 4.74329 18.0306 5.74061 19.3136 5.70698H19.3129ZM2.85513 13.7249C2.86394 14.9876 3.91038 15.9978 5.20372 15.9921C6.49559 15.9864 7.54202 14.9576 7.531 13.7034C7.51998 12.4378 6.47208 11.4276 5.18167 11.4376C3.88245 11.4484 2.84704 12.4664 2.85513 13.7249ZM22.7954 15.9907C24.0902 15.9907 25.1329 14.9733 25.1322 13.7134C25.1322 12.4528 24.088 11.4369 22.7932 11.4383C21.4976 11.4391 20.4571 12.4535 20.4563 13.7156C20.4563 14.9755 21.5006 15.9921 22.7946 15.9914L22.7954 15.9907Z" fill="white"/>
</svg>
