<svg width="24" height="24" viewBox="0 0 24 24" fill="none" xmlns="http://www.w3.org/2000/svg">
<g clip-path="url(#clip0_3306_4067)">
<path d="M23.999 23.9981H0.00647805C0.00647805 23.8998 0.00647805 23.8172 0.00647805 23.7345C0.00647805 22.8127 -0.000408426 21.8909 0.00835618 20.9691C0.0221291 19.4693 0.695752 18.3615 2.0117 17.6432C2.06491 17.6144 2.11687 17.5837 2.17008 17.5531C1.02505 16.0445 1.57597 14.3994 2.5238 13.6129C3.5599 12.7531 5.10122 12.7637 6.11666 13.6429C7.08077 14.4771 7.54154 16.1071 6.45347 17.5224C6.85978 17.8142 7.26733 18.106 7.66675 18.3928C8.18198 18.1342 8.71537 17.8668 9.24312 17.6019C7.13774 15.7502 7.46892 12.7468 9.18428 11.2219C10.8633 9.73028 13.4364 9.80981 15.0271 11.4273C16.6023 13.0292 16.7381 15.8316 14.7536 17.5969C15.2826 17.8624 15.816 18.1298 16.3393 18.3922C16.7312 18.1104 17.14 17.8167 17.5476 17.5236C16.4026 16.032 16.9923 14.37 17.9326 13.6041C19.0132 12.7236 20.5344 12.7606 21.5762 13.7005C22.5021 14.5365 22.9147 16.1315 21.831 17.5493C21.9042 17.5906 21.9756 17.6313 22.047 17.6714C23.1187 18.2657 23.768 19.1581 23.9551 20.3767C23.9608 20.413 23.9833 20.4468 23.9983 20.4813V23.9969L23.999 23.9981ZM6.64817 22.5804H17.3523C17.3429 22.499 17.3385 22.4301 17.3266 22.3618C17.0699 20.9685 16.2943 19.9553 15.0472 19.3102C13.6649 18.5957 12.1943 18.4555 10.678 18.7266C9.54675 18.9289 8.53319 19.3816 7.72998 20.2302C7.10957 20.8858 6.76462 21.6717 6.6488 22.5798L6.64817 22.5804ZM12.0184 11.5695C10.4595 11.5657 9.19116 12.8188 9.18928 14.365C9.18678 15.913 10.4526 17.1867 11.9977 17.1917C13.5278 17.1961 14.8099 15.9249 14.8155 14.3975C14.8218 12.8414 13.5672 11.5733 12.0184 11.5695ZM22.5885 22.5835C22.5885 21.9736 22.6123 21.3881 22.5829 20.805C22.5434 20.021 22.1935 19.3823 21.5004 19.0003C20.3053 18.3421 19.0889 18.3515 17.8888 19.0078C17.7172 19.1017 17.5733 19.247 17.4055 19.3766C18.2275 20.3166 18.6551 21.3855 18.7872 22.5841H22.5891L22.5885 22.5835ZM5.21829 22.5835C5.34851 21.3793 5.78423 20.3059 6.61624 19.3535C6.33828 19.1737 6.10226 18.974 5.82993 18.8537C4.81574 18.4047 3.78465 18.4028 2.77109 18.8531C2.09308 19.1543 1.59099 19.6641 1.4877 20.4118C1.38878 21.1232 1.41257 21.8515 1.38252 22.5835H5.21829ZM2.94638 15.7383C2.94325 16.4935 3.53674 17.1028 4.28235 17.1097C5.03799 17.1166 5.66215 16.5066 5.66967 15.7545C5.67718 15.0162 5.06178 14.3906 4.32242 14.3856C3.55427 14.38 2.94951 14.9736 2.94638 15.7383ZM21.0584 15.7539C21.0616 14.9968 20.4693 14.3906 19.7212 14.3856C18.9618 14.38 18.3414 14.9855 18.3345 15.7389C18.3283 16.4766 18.9443 17.1028 19.6824 17.1097C20.4462 17.1166 21.0553 16.5167 21.0578 15.7539H21.0584Z" fill="white"/>
<path d="M12.4711 0C12.6608 0.400157 12.8474 0.801566 13.0402 1.20047C13.2437 1.62129 13.459 2.0371 13.6575 2.46043C13.7213 2.59695 13.8071 2.65581 13.9548 2.67585C14.8351 2.79609 15.714 2.92321 16.5917 3.05722C16.6543 3.06661 16.7076 3.15178 16.7608 3.20564C16.7745 3.21941 16.7677 3.25135 16.7764 3.27327C16.973 3.76986 16.7996 4.11992 16.4008 4.45432C15.9 4.87452 15.4567 5.36423 14.9809 5.81573C14.872 5.91906 14.8344 6.01988 14.8601 6.16517C15.011 7.01683 15.1518 7.87037 15.3083 8.72078C15.3359 8.87045 15.2846 8.93119 15.1769 9.02325C14.7731 9.36955 14.4062 9.35327 13.9567 9.06583C13.3939 8.70638 12.7754 8.43397 12.1856 8.1146C12.0529 8.04258 11.9496 8.04634 11.8188 8.1171C11.0838 8.511 10.3426 8.89237 9.60885 9.28877C9.47237 9.36266 9.37408 9.36141 9.25138 9.27374C9.06857 9.14348 8.78936 9.06708 8.71048 8.89425C8.6316 8.72141 8.74241 8.4584 8.7806 8.23671C8.89641 7.56102 9.01411 6.88532 9.13681 6.21088C9.16686 6.04618 9.14182 5.92344 9.00847 5.79757C8.41874 5.23898 7.84591 4.66286 7.25806 4.10301C7.13973 3.99029 7.10718 3.88133 7.14224 3.73229C7.19232 3.52063 7.17292 3.24634 7.30188 3.11295C7.41832 2.99209 7.69253 3.0184 7.8985 2.98771C8.61532 2.88063 9.33339 2.78231 10.049 2.66708C10.1466 2.65143 10.2737 2.57879 10.3163 2.49613C10.7201 1.70521 11.1089 0.906145 11.5008 0.109589C11.517 0.075773 11.5227 0.0369472 11.5339 0C11.8463 0 12.1587 0 12.4711 0ZM14.5308 4.18192C14.0788 4.11742 13.6024 4.04039 13.1235 3.98466C12.9137 3.96023 12.771 3.90074 12.6827 3.68532C12.5469 3.35468 12.3716 3.03969 12.2126 2.71843C12.1493 2.59068 12.0849 2.46419 12.001 2.29824C11.8075 2.69025 11.6397 3.03155 11.4713 3.37284C11.1827 3.95836 11.1821 3.95335 10.5298 4.03225C10.1635 4.07671 9.79917 4.13996 9.46987 4.18943C9.76724 4.50943 10.0408 4.85386 10.367 5.13879C10.6368 5.37487 10.7057 5.60282 10.618 5.94599C10.511 6.36493 10.4672 6.80016 10.3889 7.27295C10.8791 7.01683 11.3323 6.79327 11.7712 6.54403C11.9421 6.44759 12.0673 6.44759 12.237 6.54341C12.6758 6.79076 13.1272 7.01495 13.5999 7.26168C13.593 7.16524 13.5942 7.10387 13.5836 7.04376C13.5104 6.60603 13.4521 6.16454 13.352 5.73245C13.3031 5.52078 13.3776 5.40806 13.5122 5.27092C13.8603 4.9171 14.1915 4.54638 14.5302 4.18192H14.5308Z" fill="white"/>
<path d="M23.9996 8.30011C23.4894 8.6439 22.9766 8.98332 22.4733 9.3365C22.4132 9.37846 22.375 9.49118 22.3738 9.57197C22.3644 10.1418 22.3625 10.7117 22.3688 11.2816C22.3706 11.4268 22.3124 11.4819 22.1872 11.5558C21.7352 11.8245 21.3696 11.7675 20.9971 11.3911C20.7304 11.1219 20.4024 10.9121 20.0906 10.6917C20.018 10.6403 19.8884 10.6184 19.8032 10.6434C19.2892 10.7962 18.7778 10.9609 18.2707 11.1356C18.1185 11.1882 18.0115 11.1701 17.8988 11.0567C17.741 10.8971 17.4819 10.7762 17.4305 10.5921C17.3823 10.4205 17.547 10.1882 17.619 9.98277C17.7529 9.60077 17.8819 9.2169 18.0265 8.83928C18.0772 8.70653 18.0635 8.61196 17.9796 8.49987C17.6622 8.07467 17.3585 7.64007 17.0405 7.21549C16.956 7.10277 16.9359 7.00758 16.9942 6.8767C17.0856 6.67193 17.1031 6.37823 17.2559 6.2724C17.4092 6.16594 17.6897 6.23733 17.9145 6.24171C18.3201 6.24923 18.7258 6.25862 19.1309 6.28054C19.2792 6.28868 19.3719 6.24985 19.4595 6.12461C19.7726 5.67748 20.105 5.24351 20.4161 4.79576C20.5132 4.65611 20.6171 4.65424 20.7698 4.65674C21.2882 4.66488 21.5311 4.92163 21.6137 5.42386C21.6738 5.78958 21.8266 6.13901 21.9193 6.50097C21.9625 6.66942 22.0363 6.75709 22.2091 6.81095C22.8095 6.99881 23.403 7.2086 23.999 7.40962V8.30011H23.9996ZM19.3725 9.28766C19.6248 9.205 19.8389 9.14112 20.048 9.06535C20.1763 9.01838 20.2771 9.02527 20.3867 9.12046C20.5539 9.26637 20.7373 9.39349 20.9583 9.56195C20.9583 9.33275 20.9746 9.1549 20.9545 8.98206C20.927 8.74535 21.0009 8.58754 21.2156 8.47357C21.3821 8.38527 21.5292 8.25878 21.7077 8.13291C21.4497 8.04774 21.2237 7.98574 21.0096 7.89494C20.9257 7.85925 20.84 7.77095 20.8062 7.68578C20.7216 7.47287 20.6659 7.24868 20.5839 6.98128C20.4368 7.18105 20.3091 7.33572 20.2033 7.50418C20.1056 7.65885 19.9923 7.72711 19.8013 7.70582C19.5985 7.68328 19.3907 7.70081 19.1471 7.70081C19.2673 7.86989 19.3544 8.01705 19.4664 8.1423C19.6348 8.33017 19.6862 8.51302 19.5597 8.75036C19.4777 8.90316 19.4426 9.08101 19.3731 9.28766H19.3725Z" fill="white"/>
<path d="M3.41932 4.63281C3.46252 4.6754 3.53326 4.728 3.58335 4.79563C3.91265 5.2415 4.24132 5.68737 4.5606 6.13951C4.6376 6.24847 4.71899 6.28479 4.84983 6.27978C5.41891 6.25786 5.98923 6.25223 6.55831 6.22718C6.71356 6.22029 6.77492 6.26976 6.85067 6.41003C7.09733 6.86467 7.04161 7.2379 6.68226 7.61614C6.42684 7.88542 6.22901 8.21168 6.02179 8.52291C5.9717 8.59806 5.95167 8.72894 5.97984 8.81348C6.16202 9.35954 6.35797 9.90185 6.55831 10.4423C6.60588 10.5707 6.57145 10.6377 6.48443 10.741C6.13635 11.1543 5.75572 11.2226 5.26615 10.9852C4.93372 10.8237 4.56123 10.741 4.20125 10.6427C4.11486 10.6189 3.98589 10.6414 3.91452 10.694C3.47379 11.0165 3.04182 11.3516 2.61235 11.6885C2.50968 11.7693 2.42454 11.7981 2.29745 11.7361C2.08898 11.6334 1.79411 11.6071 1.6783 11.4461C1.56936 11.2946 1.64199 11.0103 1.64011 10.7848C1.63698 10.3865 1.63134 9.98827 1.64011 9.58999C1.64324 9.44722 1.59315 9.36268 1.47734 9.28565C1.03598 8.99133 0.60338 8.68385 0.161393 8.3914C0.0430708 8.31313 -0.00638662 8.22796 0.00613425 8.08706C0.0261676 7.85598 -0.0489576 7.56667 0.0643563 7.40761C0.170158 7.25857 0.468154 7.24604 0.682261 7.17528C1.06665 7.04878 1.45042 6.91853 1.83731 6.80017C1.97128 6.75947 2.03639 6.68682 2.07396 6.55156C2.22233 6.01927 2.38072 5.48949 2.54349 4.96158C2.5654 4.89144 2.62487 4.79751 2.68497 4.78123C2.90972 4.72048 3.14199 4.68729 3.4187 4.63469L3.41932 4.63281ZM4.86486 7.69504C4.66265 7.69504 4.50363 7.67062 4.35588 7.70005C4.04787 7.76142 3.85755 7.6368 3.71231 7.37943C3.63969 7.25043 3.53514 7.13896 3.41995 6.98616C3.33982 7.25105 3.28848 7.47023 3.20396 7.67626C3.1664 7.76769 3.07563 7.8635 2.98548 7.90295C2.77575 7.99438 2.55163 8.05199 2.30058 8.13403C2.52533 8.29058 2.7288 8.41896 2.91536 8.56862C2.98172 8.62185 3.03681 8.72518 3.04307 8.80909C3.05997 9.04393 3.04933 9.28127 3.04933 9.56119C3.24153 9.4159 3.40367 9.31821 3.53389 9.18859C3.70229 9.01951 3.87007 9.01136 4.07667 9.09966C4.2432 9.17105 4.42287 9.21301 4.6351 9.28001C4.54683 9.02389 4.45981 8.81536 4.40722 8.59868C4.38406 8.50225 4.39971 8.37199 4.44916 8.2862C4.56123 8.09269 4.70459 7.91735 4.86486 7.69442V7.69504Z" fill="white"/>
</g>
<defs>
<clipPath id="clip0_3306_4067">
<rect width="24" height="24" fill="white"/>
</clipPath>
</defs>
</svg>
