<svg width="54" height="48" viewBox="0 0 54 48" fill="none" xmlns="http://www.w3.org/2000/svg">
<g clip-path="url(#clip0_3306_7001)">
<path d="M0 0H10.1939V3.16501H3.19078V10.3008H0V0Z" fill="#4AB04A"/>
<path d="M53.9994 10.3008H50.8452V3.20331H43.8125V0H53.9994V10.3008Z" fill="#4AB04A"/>
<path d="M0 37.6953H3.15422V44.7928H10.1869V47.9961H0V37.6953Z" fill="#4AB04A"/>
<path d="M53.9986 47.9961H43.8047V44.8311H50.8078V37.6953H53.9986V47.9961Z" fill="#4AB04A"/>
<path d="M2.72016 24.0043C5.53828 20.8137 8.53219 17.8899 11.9845 15.4683C14.7844 13.5049 17.7797 11.9529 21.0844 11.0435C26.6081 9.52413 31.9308 10.1739 37.0791 12.5785C41.4244 14.6072 45.0933 17.5806 48.4542 20.967C49.4203 21.9402 50.3428 22.9587 51.3441 24.0213C50.0714 25.3378 48.8662 26.6458 47.5936 27.8843C44.3536 31.0365 40.8056 33.7632 36.6586 35.6216C32.9011 37.3055 28.9805 38.0943 24.8658 37.6772C21.0309 37.2885 17.5041 35.9578 14.2064 33.9845C9.80766 31.3515 6.13453 27.8715 2.71875 24.0071L2.72016 24.0043ZM26.9864 34.5222C32.7675 34.5264 37.4489 29.8293 37.4517 24.0199C37.4545 18.2275 32.7872 13.4893 27.0722 13.4807C21.2545 13.4722 16.5562 18.1651 16.5534 23.9873C16.5506 29.8051 21.218 34.5179 26.9864 34.5222ZM38.8917 17.2246C41.205 21.7898 41.2022 26.2174 38.8931 30.7812C41.9559 28.8178 44.5406 26.5266 46.9622 24.0029C44.5139 21.4607 41.9419 19.178 38.8903 17.2246H38.8917ZM7.06406 24.0242C9.49125 26.5394 12.0605 28.832 15.0206 30.6592C13.9448 28.5511 13.3739 26.3408 13.3753 23.9802C13.3753 21.6281 13.9645 19.4291 15.098 17.2941C13.2895 18.2063 8.88656 21.9047 7.06547 24.0242H7.06406Z" fill="#4AB04A"/>
<path d="M26.9986 29.1793C24.203 29.1765 21.863 26.8159 21.8672 24.0013C21.87 21.181 24.2114 18.8289 27.0084 18.836C29.8181 18.843 32.1469 21.1909 32.1413 24.0098C32.1356 26.83 29.797 29.1807 27 29.1779L26.9986 29.1793ZM26.9789 25.9476C28.0716 25.9576 28.9195 25.1234 28.9294 24.0296C28.9392 22.9259 28.1138 22.0747 27.0253 22.0662C25.9256 22.0577 25.0833 22.8848 25.0748 23.9828C25.0664 25.0879 25.8905 25.9377 26.9789 25.9491V25.9476Z" fill="#4AB04A"/>
</g>
<defs>
<clipPath id="clip0_3306_7001">
<rect width="54" height="48" fill="white"/>
</clipPath>
</defs>
</svg>
