<svg width="58" height="48" viewBox="0 0 58 48" fill="none" xmlns="http://www.w3.org/2000/svg">
<g clip-path="url(#clip0_3306_7012)">
<path d="M0 32.8055C0.260462 31.9689 0.419004 31.0827 0.796957 30.3042C2.34274 27.1206 4.9332 25.4503 8.46501 25.3696C10.7214 25.3172 12.9877 25.3243 15.237 25.4885C16.109 25.5522 16.4969 25.3979 16.9951 24.6759C18.6768 22.2341 21.0861 21.0238 24.0559 21.0153C27.5212 21.0054 30.9879 20.9658 34.4503 21.0734C37.3423 21.1625 39.5591 22.5937 41.1048 25.0157C41.4205 25.5111 41.6781 25.664 42.2599 25.5125C42.8332 25.3639 43.4532 25.3639 44.0549 25.3582C45.7875 25.3398 47.5201 25.3469 49.2528 25.3526C53.7401 25.3696 57.2775 28.4994 57.8367 32.9569C57.8933 33.4028 57.8664 33.8601 57.8664 34.3116C57.8692 37.1371 57.8749 39.9611 57.8664 42.7865C57.8579 45.2652 56.3758 47.1946 53.9765 47.8202C53.4739 47.9505 52.9332 47.9788 52.4109 47.9802C36.7605 47.9887 21.1101 47.9731 5.45837 48C2.6216 48.0043 0.513846 46.1881 0.0877643 43.7958C0.079271 43.7463 0.0325577 43.7024 0.00283111 43.6557C0.00283111 40.0389 0.00283111 36.4222 0.00283111 32.8055H0ZM39.0056 44.5517V43.9501C39.0056 39.225 39.0084 34.4999 39.0056 29.7748C39.0027 26.5813 36.8539 24.4325 33.659 24.4268C30.5151 24.4211 27.3711 24.4226 24.2272 24.4268C20.9997 24.4311 18.8665 26.5756 18.8637 29.8144C18.8608 34.5211 18.8637 39.2264 18.8637 43.9331V44.5503H39.007L39.0056 44.5517ZM15.4479 44.5715C15.4479 44.27 15.4479 44.0464 15.4479 43.8241C15.4479 39.0636 15.438 34.3017 15.4649 29.5412C15.4678 29.016 15.3219 28.8292 14.8251 28.8249C12.7003 28.8079 10.5756 28.774 8.44944 28.7683C8.06016 28.7683 7.65956 28.8292 7.28444 28.9353C4.84544 29.6176 3.4129 31.4777 3.39308 34.0271C3.37043 36.9063 3.38317 39.7856 3.39025 42.6648C3.39308 43.9062 4.06972 44.5715 5.31682 44.573C7.80112 44.5758 10.2854 44.573 12.7683 44.573C13.6318 44.573 14.4967 44.573 15.4465 44.573L15.4479 44.5715ZM42.4454 44.5418C42.645 44.5531 42.8092 44.5715 42.9734 44.5715C46.1725 44.573 49.3717 44.5744 52.5708 44.5715C53.8066 44.5715 54.4705 43.8977 54.4776 42.6436C54.4832 41.5706 54.4903 40.4976 54.4776 39.426C54.4521 37.3013 54.4804 35.1737 54.3601 33.0546C54.2426 30.9879 52.1292 28.941 50.0695 28.8532C47.966 28.7641 45.8583 28.774 43.7533 28.7641C43.3117 28.7626 42.8714 28.8646 42.4468 28.9169V44.5432L42.4454 44.5418Z" fill="#4AB04A"/>
<path d="M28.9174 0.000120199C34.4281 -0.0267753 38.965 4.46336 38.9933 9.97269C39.0216 15.5627 34.547 20.1066 28.9839 20.1378C23.4562 20.1689 18.8967 15.6491 18.8797 10.1227C18.8627 4.52423 23.3231 0.0270157 28.9174 0.000120199ZM28.9513 3.40877C25.2667 3.40453 22.26 6.40125 22.2657 10.0732C22.2728 13.7098 25.2695 16.7079 28.9202 16.7305C32.5653 16.7518 35.6172 13.6998 35.6059 10.0477C35.5931 6.39276 32.6063 3.41302 28.9513 3.40877Z" fill="#4AB04A"/>
<path d="M11.3064 24.4314C7.17152 24.4286 3.75437 21.0115 3.7572 16.8823C3.76004 12.7588 7.19983 9.32464 11.3163 9.33597C15.4525 9.34587 18.8654 12.7659 18.8612 16.8936C18.8569 21.0284 15.4412 24.4357 11.3064 24.4314ZM7.19983 16.8695C7.18567 19.1429 9.03722 21.01 11.3078 21.0129C13.5684 21.0157 15.4483 19.1288 15.4327 16.8752C15.4157 14.6117 13.6024 12.7942 11.3417 12.7758C9.04854 12.7574 7.21399 14.5707 7.19983 16.8695Z" fill="#4AB04A"/>
<path d="M46.5572 24.4328C42.4209 24.4328 39.008 21.0242 39.0066 16.8893C39.0052 12.7616 42.4252 9.34019 46.5557 9.33594C50.6778 9.33311 54.112 12.7644 54.1105 16.8865C54.1091 21.0185 50.6934 24.43 46.5572 24.4314V24.4328ZM50.6693 16.9148C50.6877 14.6287 48.8588 12.7828 46.5699 12.7786C44.2852 12.7729 42.4351 14.6131 42.4351 16.8907C42.4351 19.1542 44.3234 21.0369 46.5727 21.0157C48.8334 20.9944 50.6509 19.1755 50.6693 16.9162V16.9148Z" fill="#4AB04A"/>
</g>
<defs>
<clipPath id="clip0_3306_7012">
<rect width="57.8707" height="48" fill="white"/>
</clipPath>
</defs>
</svg>
