<svg width="48" height="48" viewBox="0 0 48 48" fill="none" xmlns="http://www.w3.org/2000/svg">
<g clip-path="url(#clip0_3306_6992)">
<path d="M25.6875 0C26.5481 0.126563 27.4153 0.219375 28.2666 0.388125C29.2125 0.576562 30.15 0.811875 31.0791 1.07063C31.8084 1.27406 32.1525 1.91812 31.9594 2.59125C31.7719 3.24281 31.1203 3.58687 30.39 3.36844C28.1156 2.68781 25.7972 2.34656 23.4216 2.42531C17.9241 2.60812 13.1456 4.56562 9.14344 8.3325C5.73187 11.5434 3.55031 15.4838 2.76281 20.0963C1.53281 27.3009 3.42938 33.6469 8.445 38.9803C11.6194 42.3553 15.5625 44.4244 20.1141 45.2559C30.4613 47.1459 40.5844 41.3644 44.2453 31.4953C45.9169 26.9897 46.0181 22.4184 44.6916 17.8059C44.6156 17.5425 44.5472 17.2509 44.5837 16.9866C44.6606 16.4222 45.1219 16.0434 45.6769 16.0059C46.2525 15.9675 46.7625 16.2741 46.9078 16.8741C47.2378 18.2344 47.5228 19.6059 47.8013 20.9784C47.9025 21.4781 47.9362 21.9928 48 22.5V25.5C47.97 25.65 47.9231 25.7991 47.9119 25.9509C47.7281 28.4259 47.1862 30.8259 46.2 33.0975C42.7331 41.0803 36.6984 45.9103 28.1709 47.625C27.3506 47.79 26.5153 47.8763 25.6866 48H22.3116C22.1934 47.97 22.0772 47.9203 21.9572 47.9119C19.8628 47.7506 17.8181 47.3288 15.8644 46.5713C7.35187 43.2694 2.20594 37.11 0.374063 28.1756C0.20625 27.3553 0.122812 26.5172 0 25.6875C0 24.5625 0 23.4375 0 22.3125C0.031875 22.1616 0.073125 22.0125 0.09375 21.8606C0.204375 21.0741 0.269063 20.2791 0.424688 19.5019C1.47844 14.2106 3.96844 9.71906 8.00062 6.11625C11.3681 3.10687 15.2906 1.20281 19.7325 0.383438C20.5866 0.225938 21.4519 0.126563 22.3125 0C23.4375 0 24.5625 0 25.6875 0Z" fill="#4AB04A"/>
<path d="M40.8374 24.0573C40.6884 28.9098 38.9268 32.9542 35.4431 36.2045C32.8602 38.6139 29.7937 40.0454 26.2799 40.5076C18.5306 41.5276 11.2106 37.1429 8.39618 29.7882C4.80743 20.4076 10.5524 9.74168 20.3474 7.59012C21.9131 7.24606 23.4899 7.09981 25.0893 7.22262C25.7577 7.27418 26.2762 7.73824 26.3418 8.34199C26.4074 8.94293 26.0952 9.43887 25.5281 9.59449C25.3518 9.64231 25.1568 9.65074 24.9731 9.63574C18.1677 9.09012 11.6034 13.8001 10.0481 20.9176C8.51431 27.9376 12.6271 35.2079 19.4493 37.4879C27.6862 40.2404 36.299 35.3223 38.1252 26.8042C38.3934 25.5517 38.4937 24.2786 38.3652 22.9876C38.2668 21.9986 39.1171 21.3348 39.9834 21.6714C40.4484 21.8523 40.7052 22.2198 40.7587 22.7017C40.8121 23.1817 40.8159 23.6673 40.8365 24.0564L40.8374 24.0573Z" fill="#4AB04A"/>
<path d="M40.8375 7.16869C41.9859 7.16869 43.0472 7.16307 44.1075 7.17338C44.354 7.17526 44.6156 7.18838 44.8444 7.26994C45.6665 7.56432 45.8709 8.60682 45.2128 9.27151C42.8606 11.6453 40.5 14.0115 38.1131 16.3506C37.8656 16.5934 37.4231 16.734 37.064 16.7481C35.8631 16.7968 34.6594 16.7828 33.4575 16.7574C33.0787 16.7499 32.8256 16.8746 32.564 17.1371C30.0881 19.6309 27.6065 22.1181 25.1044 24.5856C24.8465 24.8396 24.464 25.0318 24.1078 25.1059C23.6184 25.2081 23.2331 24.9165 23.0044 24.4834C22.7831 24.0643 22.8169 23.6349 23.0934 23.2459C23.2097 23.0818 23.3597 22.9403 23.5031 22.7968C25.9537 20.3443 28.3997 17.8881 30.8634 15.4478C31.1456 15.1684 31.2497 14.8928 31.2422 14.5065C31.2206 13.3356 31.2422 12.1637 31.2309 10.9928C31.2272 10.5109 31.3865 10.1209 31.7297 9.77963C34.0312 7.48744 36.329 5.19057 38.6203 2.88901C39.0459 2.46151 39.5194 2.26182 40.0969 2.50088C40.664 2.73526 40.8347 3.22276 40.8347 3.79463C40.8347 4.73119 40.8347 5.66869 40.8347 6.60526C40.8347 6.77213 40.8347 6.93994 40.8347 7.16776L40.8375 7.16869ZM38.4319 6.62401C38.355 6.63526 38.3165 6.62869 38.2997 6.64463C36.795 8.14276 35.2912 9.64088 33.7931 11.1446C33.7237 11.214 33.6609 11.3293 33.66 11.424C33.6506 12.3868 33.6544 13.3496 33.6544 14.3509C34.6547 14.3509 35.6044 14.3612 36.5522 14.3396C36.6956 14.3368 36.8606 14.2112 36.9731 14.0996C38.3812 12.7037 39.7819 11.3003 41.1825 9.89682C41.2612 9.81713 41.3222 9.71963 41.4347 9.57526C40.8581 9.57526 40.3612 9.57807 39.8644 9.57526C38.8622 9.56869 38.4375 9.14776 38.4328 8.15776C38.43 7.64963 38.4328 7.14057 38.4328 6.62401H38.4319Z" fill="#4AB04A"/>
<path d="M24.1068 33.5879C19.1849 33.4894 15.0909 29.82 14.5499 24.9329C13.9781 19.7719 17.7187 15.075 22.9134 14.4357C23.3146 14.386 23.7224 14.3522 24.1256 14.3607C24.7359 14.3738 25.2112 14.8435 25.2806 15.4482C25.3443 16.0004 24.9609 16.575 24.3749 16.6988C23.9052 16.7972 23.4149 16.7879 22.9387 16.8619C19.4877 17.3972 16.9659 20.3391 16.9162 23.8735C16.8684 27.33 19.3527 30.3282 22.7915 30.9638C27.1162 31.7625 31.1024 28.531 31.2299 24.1229C31.2609 23.0719 32.0709 22.4447 32.924 22.8272C33.4321 23.055 33.6477 23.475 33.6524 24.0291C33.6871 28.0847 30.8202 31.9332 26.8509 33.075C25.9602 33.331 25.0227 33.4219 24.1059 33.5879H24.1068Z" fill="#4AB04A"/>
</g>
<defs>
<clipPath id="clip0_3306_6992">
<rect width="48" height="48" fill="white"/>
</clipPath>
</defs>
</svg>
