<svg width="41" height="42" viewBox="0 0 41 42" fill="none" xmlns="http://www.w3.org/2000/svg">
<g clip-path="url(#clip0_3306_4244)">
<path d="M0.471213 31.4489C-0.325098 31.2762 0.103205 29.7336 0.218637 29.1728C1.24416 24.191 5.32886 19.9255 10.2481 18.7234C8.63728 17.6233 7.33165 16.2635 6.76574 14.342C5.70372 10.7359 7.42559 6.8792 10.863 5.39515C16.6617 2.89173 22.6494 8.26056 20.8641 14.3419C20.2952 16.2798 19.0018 17.6114 17.3817 18.7234C22.4013 19.9569 26.3153 24.1854 27.4475 29.2207L28.6714 29.1758L30.0077 25.0402C30.4039 24.2747 31.4716 24.2392 31.9172 24.9853L33.3235 29.2193L37.812 29.2627C38.5947 29.4992 38.8727 30.472 38.2821 31.0734L34.7687 33.6925L36.0986 37.8967C36.1757 38.639 35.5471 39.2206 34.8167 39.0997C33.4567 38.3768 32.2728 37.3125 31.0068 36.4274L27.4437 38.9822C26.6305 39.4098 25.7111 38.7251 25.8646 37.8188L27.1898 33.6906C26.7979 33.4448 24.3265 31.4489 24.1374 31.4489H22.5009C22.592 31.6088 22.6505 31.7182 22.6708 31.9104C22.7178 32.3553 22.742 33.9581 22.6669 34.3542C22.5789 34.8183 21.6944 35.0398 21.2967 35.1695L21.1753 35.3004C21.2021 35.7143 20.5759 36.5041 20.5768 36.8C20.5786 37.3771 21.3997 37.8122 20.9069 38.5701C20.7616 38.7935 19.6395 39.9008 19.3977 40.0884C18.6063 40.7026 18.3299 40.0393 17.5139 39.8766L15.9765 40.4873C15.7347 40.8883 15.6587 41.724 15.178 41.9186C14.9194 42.0232 12.7979 42.0333 12.5097 41.9448C11.9182 41.7632 11.9151 40.6978 11.6533 40.4873C11.5758 40.425 11.0931 40.3269 10.9211 40.2534C10.5955 40.1144 10.266 39.8137 9.91166 39.9121C9.21285 40.1062 8.98579 40.6766 8.23209 40.0885C7.98269 39.8939 6.61748 38.5051 6.57188 38.2979C6.44963 37.7425 7.05168 37.2269 7.05302 36.8C7.05394 36.5041 6.42772 35.7143 6.45451 35.3004L6.33311 35.1695C5.93547 35.0398 5.05096 34.8183 4.96297 34.3542C4.88786 33.9581 4.91207 32.3553 4.95907 31.9104C4.97938 31.7182 5.03786 31.6088 5.12892 31.4489L0.471213 31.4489ZM13.8149 6.13113C9.74256 6.13122 6.89906 10.0519 8.06485 13.9645C9.46782 18.673 15.787 19.7619 18.6749 15.7673C21.5711 11.7614 18.7404 6.13102 13.8149 6.13113ZM26.0257 29.2579C24.0622 20.8738 14.3773 16.901 7.06621 21.5544C4.09379 23.4463 1.96903 26.5873 1.43632 30.1006H6.72345C6.72695 29.8365 7.05298 29.5319 7.05292 29.3C7.05284 28.935 6.42084 28.3603 6.59178 27.8214C6.65104 27.6346 8.38278 25.8994 8.56527 25.8403C9.07958 25.674 9.61396 26.1757 10.1085 26.2898C10.4316 26.0045 11.5276 25.8112 11.7126 25.5457C12.0407 25.0749 11.8637 24.2911 12.6382 24.1999C13.0221 24.1547 14.9035 24.1452 15.204 24.2395C15.6942 24.3934 15.6852 25.2769 15.9919 25.6394L17.5213 26.2898C18.0781 26.1577 18.604 25.6002 19.1755 25.8982C19.3426 25.9853 20.9919 27.6757 21.0381 27.8214C21.2041 28.3449 20.6049 28.8917 20.592 29.3147C20.5854 29.5315 20.8791 29.8488 20.9197 30.0868L23.285 30.0873C23.4078 30.0465 23.7568 29.2579 24.0535 29.2579H26.0257ZM14.5201 25.5585H13.1098C13.0353 25.8404 12.8778 26.4955 12.6785 26.6842C12.4809 26.8713 11.6145 27.0861 11.2828 27.2209C10.8858 27.3822 10.3941 27.7958 9.9762 27.7247C9.72393 27.6818 9.29719 27.3612 9.09496 27.3311C8.82333 27.2906 8.2913 28.0203 8.07946 28.2167C8.18244 28.674 8.55552 29.0578 8.48292 29.547C8.4477 29.7843 8.06386 30.3092 7.94174 30.6076C7.80545 30.9406 7.64946 31.776 7.41618 31.9564L6.29852 32.4274L6.34245 33.7275C6.6701 33.9395 7.28118 33.9986 7.51885 34.3159C7.69431 34.5502 7.94857 35.5357 8.10948 35.9138C8.29995 36.3615 8.57318 36.4092 8.44897 37.0153C8.37457 37.3783 7.95783 37.7481 8.14424 38.0671C8.18608 38.1387 8.90401 38.8407 8.95945 38.8514C10.1507 38.14 10.3839 38.5538 11.4246 38.9895C11.745 39.1237 12.2102 39.1959 12.4897 39.3526C12.9934 39.6348 12.9674 40.5682 13.3102 40.6354C13.4632 40.6654 14.3421 40.6563 14.4458 40.5935C14.6998 40.2648 14.6897 39.6723 15.0335 39.414C15.2815 39.2277 15.8817 39.1251 16.2053 38.9895C17.1859 38.5787 17.5023 38.1101 18.6138 38.8516L19.5525 37.9622C19.6114 37.7326 19.0869 37.1412 19.146 36.6396C19.1778 36.37 19.4189 36.1525 19.5204 35.9138C19.7322 35.4158 19.9425 34.3847 20.343 34.1275C20.5702 33.9816 21.0977 33.8876 21.2425 33.7667C21.4235 33.6153 21.291 32.6719 21.316 32.3854C20.9872 32.275 20.2635 32.113 20.0765 31.8187C19.9353 31.5962 19.8163 30.9272 19.6881 30.6076C19.5065 30.1549 19.0634 29.6401 19.1612 29.1513C19.206 28.9278 19.6169 28.3478 19.5263 28.1648L18.665 27.3308C18.442 27.2731 17.8163 27.7784 17.432 27.7408C17.1791 27.7161 16.6348 27.3378 16.3471 27.2209C15.9419 27.0563 15.0463 26.8738 14.8453 26.5379C14.7009 26.2969 14.5922 25.8405 14.5201 25.5585ZM36.5999 30.6062H33.1171C32.4933 30.6062 32.1766 30.0604 31.9807 29.5563C31.6381 28.6748 31.4549 27.5379 31.0643 26.6845C31.0261 26.601 31.013 26.4868 30.8941 26.4771C30.8749 26.6999 30.813 26.9184 30.7473 27.1311C30.5164 27.879 30.1113 29.4021 29.7645 30.0206C29.6095 30.2971 29.1348 30.6062 28.8371 30.6062H25.3543C26.1462 31.3632 27.284 31.9087 28.0791 32.6313C28.4199 32.941 28.648 33.2243 28.5935 33.7254C28.4796 34.7727 27.6138 36.1557 27.4951 37.2643C28.301 36.894 30.1638 35.0099 30.938 34.9846C31.1758 34.9768 31.3235 35.0559 31.5246 35.1547C31.8643 35.3217 34.3736 37.3925 34.5018 37.2626C34.2091 36.2184 33.703 35.1029 33.4539 34.0607C33.2898 33.3744 33.2991 33.1766 33.8297 32.67C34.6135 31.9216 35.8064 31.3785 36.5999 30.6062Z" fill="#4AB04A"/>
<path d="M38.6121 7.3432L38.6047 14.7936C38.4588 15.8777 37.2887 15.9047 37.1825 14.6354C36.975 12.1568 37.3424 9.39053 37.1866 6.88094C37.1668 6.54403 37.4489 5.99489 37.8148 5.99489H39.1996L35.5478 1.61175L31.7304 5.99489H33.1152C33.3505 5.99489 33.7862 6.42554 33.7465 6.70925L33.7478 18.5121C33.7942 19.4385 32.6416 19.6386 32.4068 18.7567L32.4061 7.63385L32.2759 7.3432H30.5975C30.171 7.3432 29.7196 6.25541 30.0624 5.87899L34.7063 0.34551C35.343 -0.225233 35.8481 -0.0332434 36.3891 0.516432C37.9421 2.09418 39.3085 4.18936 40.8311 5.8308C41.268 6.20646 40.7569 7.3432 40.3325 7.3432L38.6121 7.3432Z" fill="#4AB04A"/>
<path d="M29.2171 14.6681V24.3169C29.2171 24.3371 29.0465 24.6526 29.0262 24.6729C28.6624 25.0349 27.9449 24.8656 27.8793 24.3119L27.8699 13.9473C28.0263 13.1779 28.8912 13.3623 29.4684 13.2781L26.4887 9.78093L23.5109 13.2782C24.1647 13.3888 24.944 13.1469 25.0248 14.0322C25.2078 16.036 24.8819 18.3199 25.0191 20.3544C24.8747 20.8549 24.2142 20.9976 23.8724 20.6251C23.8425 20.5924 23.6782 20.2921 23.6782 20.272V14.6681H22.2095C21.7788 14.6681 21.3342 13.5069 21.8114 13.1729C23.1556 11.802 24.3371 9.86854 25.6887 8.55492C26.376 7.88691 26.8457 8.17966 27.4138 8.76817C28.7091 10.1099 29.8427 11.8348 31.1335 13.2073C31.5817 13.5487 31.0896 14.6681 30.6857 14.6681H29.2171Z" fill="#4AB04A"/>
<path d="M37.6693 16.1238C38.8373 15.7733 38.7113 17.9523 38.5798 18.6388C38.3922 19.6187 37.3295 19.5115 37.1981 18.5843C37.1228 18.0533 37.0468 16.3106 37.6693 16.1238Z" fill="#4AB04A"/>
<path d="M37.8347 19.8318C38.7967 19.737 38.6725 21.5167 38.611 22.1303C38.4899 23.3384 37.2917 23.3149 37.1823 22.1348C37.1242 21.5072 37.0045 19.9136 37.8347 19.8318Z" fill="#4AB04A"/>
<path d="M32.9681 19.8318C33.2318 19.7968 33.5871 20.0188 33.6824 20.2586C33.7892 20.5273 33.7919 22.1259 33.7268 22.4504C33.5658 23.2528 32.497 23.2126 32.4016 22.3874C32.3581 22.0113 32.3469 20.6321 32.4214 20.2969C32.4713 20.0726 32.753 19.8603 32.9681 19.8318Z" fill="#4AB04A"/>
<path d="M13.3326 28.5188C19.3137 27.8556 20.0974 36.9941 14.4739 37.5862C8.16258 38.2507 7.48055 29.1677 13.3326 28.5188ZM16.0911 30.8005C13.2514 27.9492 8.75715 31.9794 11.3781 35.1537C14.1419 38.501 19.1905 33.9128 16.0911 30.8005Z" fill="#4AB04A"/>
</g>
<defs>
<clipPath id="clip0_3306_4244">
<rect width="41" height="42" fill="white"/>
</clipPath>
</defs>
</svg>
