<svg width="23" height="17" viewBox="0 0 23 17" fill="none" xmlns="http://www.w3.org/2000/svg">
<g clip-path="url(#clip0_3306_6390)">
<path d="M22.4842 10.4826C22.3463 12.0748 21.2577 13.583 19.8164 14.2915C18.1615 15.1051 16.2572 14.6744 14.4739 14.7822C13.6332 14.5897 13.7072 13.5095 14.6019 13.431C16.6946 13.2474 18.7445 14.0445 20.3159 12.211C21.7271 10.5646 21.1812 8.0446 19.2641 7.0471C18.9174 6.86667 18.61 6.83166 18.2884 6.69813C17.8924 6.53369 17.7821 5.93371 17.5375 5.58077C16.6936 4.36324 15.6989 4.20455 14.3049 4.24702C13.5408 4.2703 13.643 3.99014 13.3118 3.49021C11.2037 0.307697 6.36393 0.774753 5.2321 4.40479C5.01786 5.09193 5.1321 5.52787 5.04448 6.15927C4.9608 6.76232 4.40134 6.73845 3.94565 6.93527C1.86973 7.83188 1.18513 10.4845 2.66423 12.211C4.23322 14.0424 6.28907 13.2477 8.37826 13.431C9.34461 13.5158 9.2645 14.7007 8.5053 14.7812C6.24787 14.6944 4.17504 15.2217 2.27942 13.7265C-0.646438 11.4187 0.191568 6.86019 3.65428 5.59576C3.75863 1.71764 7.65814 -0.959475 11.4263 0.325422C12.7117 0.763713 13.8397 1.6838 14.505 2.84577C16.4353 2.72238 18.2707 3.76766 19.059 5.49922C20.8634 6.04813 22.3172 7.72878 22.4842 9.59763C22.5056 9.8369 22.505 10.2429 22.4842 10.4826Z" fill="black"/>
<path d="M12.1801 9.80582V16.4855C12.1801 16.5194 12.0118 16.7755 11.9627 16.8201C11.6976 17.061 11.253 17.0581 10.9989 16.8018C10.9637 16.7663 10.8058 16.504 10.8058 16.4855V9.80582L8.75684 11.7356C8.07392 11.9917 7.51726 11.2516 7.94876 10.6897L11.0623 7.63429C11.3078 7.43474 11.677 7.43406 11.9236 7.63429L15.0371 10.6897C15.4686 11.2516 14.912 11.9917 14.229 11.7356L12.1801 9.80582Z" fill="black"/>
</g>
<defs>
<clipPath id="clip0_3306_6390">
<rect width="22" height="17" fill="white" transform="translate(0.5)"/>
</clipPath>
</defs>
</svg>
