<svg width="67" height="13" viewBox="0 0 67 13" fill="none" xmlns="http://www.w3.org/2000/svg">
<g clip-path="url(#clip0_6861_233)">
<path d="M0.480469 0.375L0.610469 0.835L2.37047 3.805V2.275H10.4605L16.2805 12.115L17.3205 10.135L11.6305 0.375H0.480469Z" fill="white"/>
<path d="M17.1088 6.675C17.0088 7.065 17.9788 8.215 18.0888 8.685L22.9688 0.375H20.7088L17.1088 6.675Z" fill="white"/>
<path d="M12.492 10.2275H6.08203L7.07203 12.1175H14.572L12.492 8.6875V10.2275Z" fill="white"/>
<path d="M10.5895 5.25781H3.26953C3.38953 5.97781 4.02953 6.54781 4.25953 7.24781H11.5795C11.4295 6.54781 10.8295 5.94781 10.5895 5.25781Z" fill="white"/>
<path d="M16.4115 3.08786C18.3015 2.83786 17.9515 -0.152141 15.9915 0.127859C14.0815 0.407859 14.5315 3.33786 16.4115 3.08786Z" fill="#2DDE28"/>
<path d="M25.1914 7.89656V0.976562H30.4014V2.32656H26.6914V3.72656H29.9514V5.07656H26.6914V6.52656H30.4514V7.87656H25.1914V7.89656Z" fill="white"/>
<path d="M35.3627 7.94656H34.0227L31.2227 0.976562H32.9027L34.7127 5.84656L36.5227 0.976562H38.1627L35.3627 7.94656Z" fill="white"/>
<path d="M46.0019 5.82937C45.8219 6.25937 45.5619 6.63937 45.2319 6.96937C44.9019 7.29937 44.5219 7.54937 44.0619 7.73937C43.6019 7.92937 43.1219 8.01938 42.5819 8.01938C42.0419 8.01938 41.5619 7.92937 41.1119 7.73937C40.6619 7.54937 40.2719 7.29938 39.9519 6.97937C39.6319 6.65937 39.3719 6.27937 39.1919 5.84937C39.0119 5.41937 38.9219 4.94938 38.9219 4.45937V4.43937C38.9219 3.94937 39.0119 3.47938 39.2019 3.04938C39.3819 2.61937 39.6419 2.23938 39.9719 1.90938C40.3019 1.57938 40.6919 1.32938 41.1419 1.13938C41.5919 0.949375 42.0819 0.859375 42.6219 0.859375C43.1619 0.859375 43.6419 0.949375 44.0919 1.13938C44.5419 1.32938 44.9319 1.57938 45.2519 1.89938C45.5719 2.21938 45.8319 2.59938 46.0119 3.02938C46.1919 3.45938 46.2819 3.91937 46.2819 4.41937V4.43937C46.2819 4.92937 46.1919 5.39937 46.0019 5.82937ZM44.6919 4.43937C44.6919 4.13937 44.6419 3.85937 44.5419 3.59937C44.4419 3.33937 44.2919 3.10938 44.1019 2.90938C43.9119 2.70938 43.6919 2.55938 43.4319 2.43938C43.1719 2.31938 42.8919 2.26937 42.5919 2.26937C42.2919 2.26937 42.0019 2.32938 41.7419 2.43938C41.4919 2.54938 41.2719 2.70937 41.0919 2.89937C40.9119 3.09938 40.7719 3.32938 40.6619 3.58938C40.5619 3.84938 40.5119 4.12937 40.5119 4.42937V4.44937C40.5119 4.74937 40.5619 5.02938 40.6619 5.28937C40.7619 5.54937 40.9119 5.77938 41.1019 5.97937C41.2919 6.17937 41.5119 6.32937 41.7619 6.44937C42.0119 6.56937 42.3019 6.61937 42.6119 6.61937C42.9219 6.61937 43.1919 6.55937 43.4519 6.44937C43.7119 6.33937 43.9319 6.17937 44.1119 5.98937C44.2919 5.79937 44.4319 5.55937 44.5419 5.29938C44.6419 5.03938 44.6919 4.75937 44.6919 4.45937V4.43937Z" fill="white"/>
<path d="M47.6328 7.89656V0.976562H49.1528V6.52656H52.6028V7.89656H47.6328Z" fill="white"/>
<path d="M57.3002 7.94656H55.9602L53.1602 0.976562H54.8402L56.6502 5.84656L58.4602 0.976562H60.1002L57.3002 7.94656Z" fill="white"/>
<path d="M61.1719 7.89656V0.976562H66.3819V2.32656H62.6719V3.72656H65.9319V5.07656H62.6719V6.52656H66.4319V7.87656H61.1719V7.89656Z" fill="white"/>
<path d="M27.2781 11.6878C27.2281 11.7878 27.1681 11.8678 27.0881 11.9378C27.0081 12.0078 26.9081 12.0578 26.7881 12.0878C26.6781 12.1278 26.5481 12.1378 26.4081 12.1378C26.2081 12.1378 26.0181 12.1078 25.8381 12.0378C25.6481 11.9678 25.4781 11.8678 25.3281 11.7278L25.6581 11.3278C25.7781 11.4278 25.8981 11.4978 26.0181 11.5578C26.1381 11.6178 26.2781 11.6378 26.4181 11.6378C26.5381 11.6378 26.6281 11.6178 26.6881 11.5778C26.7481 11.5378 26.7881 11.4778 26.7881 11.3978C26.7881 11.3978 26.7881 11.3178 26.7681 11.2978C26.7581 11.2678 26.7281 11.2478 26.6881 11.2178C26.6481 11.1878 26.5981 11.1678 26.5281 11.1478C26.4581 11.1278 26.3781 11.0978 26.2681 11.0678C26.1381 11.0378 26.0181 10.9978 25.9181 10.9578C25.8181 10.9178 25.7281 10.8678 25.6481 10.8178C25.5781 10.7578 25.5181 10.6878 25.4781 10.6078C25.4381 10.5278 25.4181 10.4178 25.4181 10.2878C25.4181 10.1678 25.4381 10.0578 25.4881 9.96781C25.5281 9.87781 25.5881 9.78781 25.6681 9.72781C25.7481 9.65781 25.8381 9.60781 25.9481 9.56781C26.0581 9.52781 26.1781 9.50781 26.3081 9.50781C26.4981 9.50781 26.6681 9.53781 26.8281 9.58781C26.9881 9.64781 27.1281 9.72781 27.2581 9.82781L26.9681 10.2478C26.8581 10.1678 26.7381 10.1078 26.6281 10.0678C26.5181 10.0178 26.4081 9.99781 26.2981 9.99781C26.1881 9.99781 26.1081 10.0178 26.0481 10.0578C25.9981 10.0978 25.9681 10.1578 25.9681 10.2178C25.9681 10.2178 25.9681 10.2978 25.9881 10.3378C26.0081 10.3678 26.0281 10.3978 26.0781 10.4178C26.1281 10.4378 26.1781 10.4678 26.2481 10.4878C26.3181 10.5078 26.4081 10.5378 26.5181 10.5678C26.6481 10.5978 26.7681 10.6378 26.8681 10.6878C26.9681 10.7278 27.0581 10.7778 27.1281 10.8378C27.1981 10.8978 27.2481 10.9678 27.2881 11.0478C27.3281 11.1278 27.3381 11.2278 27.3381 11.3378C27.3381 11.4678 27.3181 11.5878 27.2681 11.6878H27.2781Z" fill="white"/>
<path d="M31.9298 10.0669V12.1069H31.3698V10.0669H30.5898V9.54688H32.7098V10.0669H31.9298Z" fill="white"/>
<path d="M37.6281 12.1069L37.0781 11.2869H36.6381V12.1069H36.0781V9.54688H37.2481C37.5581 9.54688 37.7881 9.61688 37.9581 9.76688C38.1281 9.91688 38.2081 10.1269 38.2081 10.3869C38.2081 10.5969 38.1581 10.7669 38.0581 10.8969C37.9581 11.0269 37.8281 11.1269 37.6581 11.1869L38.2881 12.1069H37.6281ZM37.6381 10.4269C37.6381 10.3069 37.5981 10.2169 37.5181 10.1569C37.4381 10.0969 37.3281 10.0669 37.1881 10.0669H36.6281V10.8069H37.1981C37.3381 10.8069 37.4481 10.7769 37.5181 10.7069C37.5881 10.6369 37.6281 10.5569 37.6281 10.4469L37.6381 10.4269Z" fill="white"/>
<path d="M41.6484 12.1069V9.54688H43.5784V10.0469H42.2084V10.5669H43.4184V11.0669H42.2084V11.6069H43.5984V12.1069H41.6484Z" fill="white"/>
<path d="M48.8273 12.1069L47.5873 10.4769V12.1069H47.0273V9.54688H47.5473L48.7473 11.1269V9.54688H49.3073V12.1069H48.8273Z" fill="white"/>
<path d="M54.7083 12.0378C54.5283 12.1178 54.3183 12.1578 54.0883 12.1578C53.8883 12.1578 53.7083 12.1278 53.5383 12.0578C53.3683 11.9878 53.2283 11.8978 53.1183 11.7878C52.9983 11.6678 52.9083 11.5278 52.8383 11.3678C52.7683 11.2078 52.7383 11.0278 52.7383 10.8378C52.7383 10.6478 52.7683 10.4778 52.8383 10.3178C52.9083 10.1578 52.9983 10.0178 53.1183 9.89781C53.2383 9.77781 53.3783 9.67781 53.5383 9.60781C53.6983 9.53781 53.8783 9.50781 54.0783 9.50781C54.1883 9.50781 54.2983 9.50781 54.3883 9.52781C54.4783 9.54781 54.5683 9.56781 54.6483 9.59781C54.7283 9.62781 54.8083 9.66781 54.8783 9.70781C54.9483 9.74781 55.0183 9.79781 55.0883 9.85781L54.7383 10.2878C54.7383 10.2878 54.6383 10.2078 54.5883 10.1778C54.5383 10.1478 54.4883 10.1178 54.4383 10.0978C54.3883 10.0778 54.3283 10.0578 54.2683 10.0478C54.2083 10.0378 54.1383 10.0278 54.0683 10.0278C53.9683 10.0278 53.8683 10.0478 53.7783 10.0878C53.6883 10.1278 53.6083 10.1878 53.5483 10.2578C53.4783 10.3278 53.4283 10.4178 53.3883 10.5078C53.3483 10.6078 53.3283 10.7078 53.3283 10.8178C53.3283 10.9378 53.3483 11.0478 53.3883 11.1478C53.4283 11.2478 53.4783 11.3378 53.5483 11.4078C53.6183 11.4778 53.6983 11.5378 53.7983 11.5778C53.8883 11.6178 53.9983 11.6378 54.1083 11.6378C54.3183 11.6378 54.4983 11.5878 54.6383 11.4878V11.1178H54.0683V10.6278H55.1783V11.7378C55.0483 11.8478 54.8883 11.9478 54.7083 12.0278V12.0378Z" fill="white"/>
<path d="M59.8088 10.0669V12.1069H59.2486V10.0669H58.4688V9.54688H60.5886V10.0669H59.8088Z" fill="white"/>
<path d="M65.557 12.1069V11.0769H64.517V12.1069H63.957V9.54688H64.517V10.5569H65.557V9.54688H66.117V12.1069H65.557Z" fill="white"/>
</g>
<defs>
<clipPath id="clip0_6861_233">
<rect width="67" height="13" fill="white"/>
</clipPath>
</defs>
</svg>
