<svg width="67" height="13" viewBox="0 0 67 13" fill="none" xmlns="http://www.w3.org/2000/svg">
<g clip-path="url(#clip0_6861_253)">
<path d="M0.480469 0.265625L0.610469 0.725625L2.37047 3.69562V2.16562H10.4605L16.2805 12.0056L17.3205 10.0256L11.6305 0.265625H0.480469Z" fill="black"/>
<path d="M17.1088 6.56562C17.0088 6.95562 17.9788 8.10562 18.0888 8.57562L22.9688 0.265625H20.7088L17.1088 6.56562Z" fill="black"/>
<path d="M12.492 10.1181H6.08203L7.07203 12.0081H14.572L12.492 8.57812V10.1181Z" fill="black"/>
<path d="M10.5895 5.14844H3.26953C3.38953 5.86844 4.02953 6.43844 4.25953 7.13844H11.5795C11.4295 6.43844 10.8295 5.83844 10.5895 5.14844Z" fill="black"/>
<path d="M16.4115 2.97848C18.3015 2.72848 17.9515 -0.261516 15.9915 0.0184835C14.0815 0.298484 14.5315 3.22848 16.4115 2.97848Z" fill="#2DDE28"/>
<path d="M25.1914 7.78719V0.867188H30.4014V2.21719H26.6914V3.61719H29.9514V4.96719H26.6914V6.41719H30.4514V7.76719H25.1914V7.78719Z" fill="black"/>
<path d="M35.3627 7.83719H34.0227L31.2227 0.867188H32.9027L34.7127 5.73719L36.5227 0.867188H38.1627L35.3627 7.83719Z" fill="black"/>
<path d="M46.0019 5.72C45.8219 6.15 45.5619 6.53 45.2319 6.86C44.9019 7.19 44.5219 7.44 44.0619 7.63C43.6019 7.82 43.1219 7.91 42.5819 7.91C42.0419 7.91 41.5619 7.82 41.1119 7.63C40.6619 7.44 40.2719 7.19 39.9519 6.87C39.6319 6.55 39.3719 6.17 39.1919 5.74C39.0119 5.31 38.9219 4.84 38.9219 4.35V4.33C38.9219 3.84 39.0119 3.37 39.2019 2.94C39.3819 2.51 39.6419 2.13 39.9719 1.8C40.3019 1.47 40.6919 1.22 41.1419 1.03C41.5919 0.84 42.0819 0.75 42.6219 0.75C43.1619 0.75 43.6419 0.84 44.0919 1.03C44.5419 1.22 44.9319 1.47 45.2519 1.79C45.5719 2.11 45.8319 2.49 46.0119 2.92C46.1919 3.35 46.2819 3.81 46.2819 4.31V4.33C46.2819 4.82 46.1919 5.29 46.0019 5.72ZM44.6919 4.33C44.6919 4.03 44.6419 3.75 44.5419 3.49C44.4419 3.23 44.2919 3 44.1019 2.8C43.9119 2.6 43.6919 2.45 43.4319 2.33C43.1719 2.21 42.8919 2.16 42.5919 2.16C42.2919 2.16 42.0019 2.22 41.7419 2.33C41.4919 2.44 41.2719 2.6 41.0919 2.79C40.9119 2.99 40.7719 3.22 40.6619 3.48C40.5619 3.74 40.5119 4.02 40.5119 4.32V4.34C40.5119 4.64 40.5619 4.92 40.6619 5.18C40.7619 5.44 40.9119 5.67 41.1019 5.87C41.2919 6.07 41.5119 6.22 41.7619 6.34C42.0119 6.46 42.3019 6.51 42.6119 6.51C42.9219 6.51 43.1919 6.45 43.4519 6.34C43.7119 6.23 43.9319 6.07 44.1119 5.88C44.2919 5.69 44.4319 5.45 44.5419 5.19C44.6419 4.93 44.6919 4.65 44.6919 4.35V4.33Z" fill="black"/>
<path d="M47.6328 7.78719V0.867188H49.1528V6.41719H52.6028V7.78719H47.6328Z" fill="black"/>
<path d="M57.3002 7.83719H55.9602L53.1602 0.867188H54.8402L56.6502 5.73719L58.4602 0.867188H60.1002L57.3002 7.83719Z" fill="black"/>
<path d="M61.1719 7.78719V0.867188H66.3819V2.21719H62.6719V3.61719H65.9319V4.96719H62.6719V6.41719H66.4319V7.76719H61.1719V7.78719Z" fill="black"/>
<path d="M27.2781 11.5784C27.2281 11.6784 27.1681 11.7584 27.0881 11.8284C27.0081 11.8984 26.9081 11.9484 26.7881 11.9784C26.6781 12.0184 26.5481 12.0284 26.4081 12.0284C26.2081 12.0284 26.0181 11.9984 25.8381 11.9284C25.6481 11.8584 25.4781 11.7584 25.3281 11.6184L25.6581 11.2184C25.7781 11.3184 25.8981 11.3884 26.0181 11.4484C26.1381 11.5084 26.2781 11.5284 26.4181 11.5284C26.5381 11.5284 26.6281 11.5084 26.6881 11.4684C26.7481 11.4284 26.7881 11.3684 26.7881 11.2884C26.7881 11.2884 26.7881 11.2084 26.7681 11.1884C26.7581 11.1584 26.7281 11.1384 26.6881 11.1084C26.6481 11.0784 26.5981 11.0584 26.5281 11.0384C26.4581 11.0184 26.3781 10.9884 26.2681 10.9584C26.1381 10.9284 26.0181 10.8884 25.9181 10.8484C25.8181 10.8084 25.7281 10.7584 25.6481 10.7084C25.5781 10.6484 25.5181 10.5784 25.4781 10.4984C25.4381 10.4184 25.4181 10.3084 25.4181 10.1784C25.4181 10.0584 25.4381 9.94844 25.4881 9.85844C25.5281 9.76844 25.5881 9.67844 25.6681 9.61844C25.7481 9.54844 25.8381 9.49844 25.9481 9.45844C26.0581 9.41844 26.1781 9.39844 26.3081 9.39844C26.4981 9.39844 26.6681 9.42844 26.8281 9.47844C26.9881 9.53844 27.1281 9.61844 27.2581 9.71844L26.9681 10.1384C26.8581 10.0584 26.7381 9.99844 26.6281 9.95844C26.5181 9.90844 26.4081 9.88844 26.2981 9.88844C26.1881 9.88844 26.1081 9.90844 26.0481 9.94844C25.9981 9.98844 25.9681 10.0484 25.9681 10.1084C25.9681 10.1084 25.9681 10.1884 25.9881 10.2284C26.0081 10.2584 26.0281 10.2884 26.0781 10.3084C26.1281 10.3284 26.1781 10.3584 26.2481 10.3784C26.3181 10.3984 26.4081 10.4284 26.5181 10.4584C26.6481 10.4884 26.7681 10.5284 26.8681 10.5784C26.9681 10.6184 27.0581 10.6684 27.1281 10.7284C27.1981 10.7884 27.2481 10.8584 27.2881 10.9384C27.3281 11.0184 27.3381 11.1184 27.3381 11.2284C27.3381 11.3584 27.3181 11.4784 27.2681 11.5784H27.2781Z" fill="black"/>
<path d="M31.9298 9.9575V11.9975H31.3698V9.9575H30.5898V9.4375H32.7098V9.9575H31.9298Z" fill="black"/>
<path d="M37.6281 11.9975L37.0781 11.1775H36.6381V11.9975H36.0781V9.4375H37.2481C37.5581 9.4375 37.7881 9.5075 37.9581 9.6575C38.1281 9.8075 38.2081 10.0175 38.2081 10.2775C38.2081 10.4875 38.1581 10.6575 38.0581 10.7875C37.9581 10.9175 37.8281 11.0175 37.6581 11.0775L38.2881 11.9975H37.6281ZM37.6381 10.3175C37.6381 10.1975 37.5981 10.1075 37.5181 10.0475C37.4381 9.9875 37.3281 9.9575 37.1881 9.9575H36.6281V10.6975H37.1981C37.3381 10.6975 37.4481 10.6675 37.5181 10.5975C37.5881 10.5275 37.6281 10.4475 37.6281 10.3375L37.6381 10.3175Z" fill="black"/>
<path d="M41.6484 11.9975V9.4375H43.5784V9.9375H42.2084V10.4575H43.4184V10.9575H42.2084V11.4975H43.5984V11.9975H41.6484Z" fill="black"/>
<path d="M48.8273 11.9975L47.5873 10.3675V11.9975H47.0273V9.4375H47.5473L48.7473 11.0175V9.4375H49.3073V11.9975H48.8273Z" fill="black"/>
<path d="M54.7083 11.9284C54.5283 12.0084 54.3183 12.0484 54.0883 12.0484C53.8883 12.0484 53.7083 12.0184 53.5383 11.9484C53.3683 11.8784 53.2283 11.7884 53.1183 11.6784C52.9983 11.5584 52.9083 11.4184 52.8383 11.2584C52.7683 11.0984 52.7383 10.9184 52.7383 10.7284C52.7383 10.5384 52.7683 10.3684 52.8383 10.2084C52.9083 10.0484 52.9983 9.90844 53.1183 9.78844C53.2383 9.66844 53.3783 9.56844 53.5383 9.49844C53.6983 9.42844 53.8783 9.39844 54.0783 9.39844C54.1883 9.39844 54.2983 9.39844 54.3883 9.41844C54.4783 9.43844 54.5683 9.45844 54.6483 9.48844C54.7283 9.51844 54.8083 9.55844 54.8783 9.59844C54.9483 9.63844 55.0183 9.68844 55.0883 9.74844L54.7383 10.1784C54.7383 10.1784 54.6383 10.0984 54.5883 10.0684C54.5383 10.0384 54.4883 10.0084 54.4383 9.98844C54.3883 9.96844 54.3283 9.94844 54.2683 9.93844C54.2083 9.92844 54.1383 9.91844 54.0683 9.91844C53.9683 9.91844 53.8683 9.93844 53.7783 9.97844C53.6883 10.0184 53.6083 10.0784 53.5483 10.1484C53.4783 10.2184 53.4283 10.3084 53.3883 10.3984C53.3483 10.4984 53.3283 10.5984 53.3283 10.7084C53.3283 10.8284 53.3483 10.9384 53.3883 11.0384C53.4283 11.1384 53.4783 11.2284 53.5483 11.2984C53.6183 11.3684 53.6983 11.4284 53.7983 11.4684C53.8883 11.5084 53.9983 11.5284 54.1083 11.5284C54.3183 11.5284 54.4983 11.4784 54.6383 11.3784V11.0084H54.0683V10.5184H55.1783V11.6284C55.0483 11.7384 54.8883 11.8384 54.7083 11.9184V11.9284Z" fill="black"/>
<path d="M59.8088 9.9575V11.9975H59.2486V9.9575H58.4688V9.4375H60.5886V9.9575H59.8088Z" fill="black"/>
<path d="M65.557 11.9975V10.9675H64.517V11.9975H63.957V9.4375H64.517V10.4475H65.557V9.4375H66.117V11.9975H65.557Z" fill="black"/>
</g>
<defs>
<clipPath id="clip0_6861_253">
<rect width="67" height="13" fill="white"/>
</clipPath>
</defs>
</svg>
