<svg width="32" height="32" viewBox="0 0 32 32" fill="none" xmlns="http://www.w3.org/2000/svg">
<mask id="mask0_3306_9597" style="mask-type:luminance" maskUnits="userSpaceOnUse" x="3" y="17" width="20" height="10">
<path d="M3.26562 17.8594H22.8405V26.9618H3.26562V17.8594Z" fill="white"/>
</mask>
<g mask="url(#mask0_3306_9597)">
<path d="M7.70501 26.959C5.43322 26.959 3.45716 25.4386 3.37403 25.3739C3.2869 25.3051 3.27091 25.1788 3.33966 25.0917C3.4084 25.0038 3.5347 24.9885 3.62264 25.0565C3.64182 25.0717 5.5747 26.5569 7.70501 26.5569C8.64267 26.5569 11.2878 25.5905 14.781 23.9717C17.7731 22.5849 20.5228 21.1076 21.0408 20.6096C22.0848 19.604 22.4381 18.1427 22.4413 18.1284C22.4669 18.0197 22.5748 17.9525 22.6835 17.9781C22.7915 18.0037 22.8594 18.1116 22.8338 18.2195C22.8187 18.2834 22.4526 19.8094 21.3206 20.899C20.6891 21.5065 17.5676 23.1236 14.9505 24.3363C13.2486 25.1253 9.13667 26.959 7.70501 26.959Z" fill="#4AB04A" stroke="#4AB04A" stroke-width="0.36655"/>
</g>
<mask id="mask1_3306_9597" style="mask-type:luminance" maskUnits="userSpaceOnUse" x="3" y="14" width="15" height="8">
<path d="M3.26562 14.1758H17.7246V21.7474H3.26562V14.1758Z" fill="white"/>
</mask>
<g mask="url(#mask1_3306_9597)">
<path d="M7.09429 21.6778C6.8952 21.6778 6.70577 21.5955 6.56907 21.4476C6.31086 21.1686 5.90079 20.8017 5.41318 20.6418C4.47953 20.334 3.54108 20.4843 3.53148 20.486C3.42197 20.5043 3.31806 20.43 3.29967 20.3204C3.28128 20.211 3.35563 20.107 3.46514 20.0886C3.50751 20.0814 4.50751 19.92 5.53951 20.2597C6.10863 20.4468 6.57468 20.8608 6.86567 21.175C6.9304 21.2453 7.0231 21.2813 7.11905 21.2741C7.21499 21.2669 7.30129 21.2173 7.35485 21.1382C7.677 20.6634 8.20699 20.0007 8.90722 19.5419C9.3197 19.2709 9.82168 19.0455 10.398 18.8728C11.1151 18.657 11.6778 18.1398 11.9424 17.4531C12.2102 16.7553 12.705 15.812 13.5388 15.2797C15.0712 14.3012 17.2367 14.3388 17.3286 14.3404C17.4397 14.3428 17.5276 14.4347 17.5252 14.5458C17.5228 14.6569 17.4309 14.7449 17.319 14.7425C17.2982 14.7417 15.1839 14.7065 13.7562 15.6186C13.0152 16.0918 12.5651 16.9559 12.3182 17.597C12.0096 18.4012 11.3517 19.0063 10.514 19.2581C9.97518 19.4196 9.50834 19.6282 9.12865 19.8776C8.48434 20.3005 7.99034 20.9192 7.68901 21.3636C7.56511 21.5451 7.36922 21.6586 7.14942 21.6754C7.13106 21.677 7.11265 21.6778 7.09429 21.6778Z" fill="#4AB04A" stroke="#4AB04A" stroke-width="0.36655"/>
</g>
<mask id="mask2_3306_9597" style="mask-type:luminance" maskUnits="userSpaceOnUse" x="3" y="10" width="26" height="4">
<path d="M3.26562 10.2852H28.7303V13.764H3.26562V10.2852Z" fill="white"/>
</mask>
<g mask="url(#mask2_3306_9597)">
<path d="M10.9912 13.5802C10.4212 13.5802 9.89282 13.2956 9.57628 12.8192C9.16778 12.2037 8.29408 11.1381 7.03669 10.9167C5.13739 10.5809 3.63378 11.6729 3.61859 11.684C3.52906 11.7504 3.40276 11.7312 3.33641 11.6425C3.27006 11.553 3.28925 11.4267 3.37878 11.3611C3.44512 11.3115 5.03827 10.1557 7.10703 10.5202C8.44196 10.756 9.37001 11.78 9.91281 12.5969C10.1542 12.9606 10.5563 13.1773 10.9896 13.1773C11.2469 13.1773 11.4955 13.1021 11.7106 12.9583C12.5443 12.4019 14.7594 11.0853 17.3077 10.8855C20.5068 10.6353 28.2287 12.9782 28.5556 13.0781C28.662 13.1109 28.7219 13.2228 28.6899 13.3292C28.6572 13.4355 28.5445 13.4954 28.4381 13.4627C28.3582 13.4387 20.4621 11.0422 17.3397 11.2868C14.8857 11.4786 12.7418 12.7536 11.9344 13.2932C11.653 13.481 11.3269 13.5802 10.9912 13.5802Z" fill="#4AB04A" stroke="#4AB04A" stroke-width="0.36655"/>
</g>
<path d="M23.3792 8.50175C23.3352 8.50175 23.2912 8.49776 23.2465 8.49052C23.0298 8.45616 22.8396 8.33865 22.7109 8.16118C22.5822 7.98377 22.5303 7.76632 22.5654 7.54967L22.7733 6.26112C22.8452 5.81349 23.2681 5.50891 23.7165 5.58083C23.9331 5.61524 24.1234 5.73275 24.2521 5.91017C24.3808 6.08842 24.4327 6.30508 24.3975 6.52168L24.1898 7.81107C24.1546 8.02773 24.037 8.21716 23.8596 8.34584C23.7173 8.44819 23.551 8.50175 23.3792 8.50175ZM23.5854 5.97254C23.3831 5.97254 23.2041 6.1188 23.1713 6.32428L22.9635 7.61362C22.9459 7.72394 22.9723 7.83505 23.0379 7.92538C23.1034 8.0165 23.2001 8.07568 23.3112 8.09325C23.4215 8.11166 23.5327 8.08528 23.623 8.0197C23.7141 7.95418 23.7741 7.85745 23.7916 7.74712L23.9995 6.45773C24.0363 6.22996 23.8804 6.01493 23.6526 5.97815C23.6294 5.97411 23.607 5.97254 23.5854 5.97254Z" fill="#4AB04A" stroke="#4AB04A" stroke-width="0.36655"/>
<path d="M22.5195 11.7326L23.0799 8.26172L23.478 8.32567L22.9176 11.7965L22.5195 11.7326Z" fill="#4AB04A" stroke="#4AB04A" stroke-width="0.36655"/>
<path d="M26.4524 9.16108C26.4092 9.16108 26.3652 9.15788 26.3204 9.15069C25.8728 9.07872 25.5674 8.65669 25.6394 8.20984L25.8473 6.92045C25.9192 6.4736 26.3428 6.16903 26.7905 6.241C27.0071 6.27536 27.1973 6.39287 27.3261 6.57034C27.4548 6.74775 27.5067 6.9652 27.4715 7.18185L27.2637 8.47124C27.199 8.87408 26.8489 9.16108 26.4524 9.16108ZM26.3852 8.75337C26.6138 8.79014 26.8289 8.63507 26.8656 8.40724L27.0735 7.11791C27.1102 6.89008 26.9544 6.67505 26.7265 6.63827C26.6162 6.61986 26.5051 6.64625 26.414 6.71182C26.3229 6.77734 26.2629 6.87408 26.2453 6.9844L26.0375 8.27379C26.0199 8.38411 26.0463 8.49522 26.1118 8.58555C26.1774 8.67583 26.2741 8.73579 26.3852 8.75337Z" fill="#4AB04A" stroke="#4AB04A" stroke-width="0.36655"/>
<path d="M25.5781 12.4782L26.1521 8.92188L26.5501 8.98582L25.9762 12.5422L25.5781 12.4782Z" fill="#4AB04A" stroke="#4AB04A" stroke-width="0.36655"/>
<mask id="mask3_3306_9597" style="mask-type:luminance" maskUnits="userSpaceOnUse" x="19" y="5" width="3" height="4">
<path d="M19.1602 5.03906H21.2065V8.44148H19.1602V5.03906Z" fill="white"/>
</mask>
<g mask="url(#mask3_3306_9597)">
<path d="M20.1753 8.30452C20.1561 8.30452 20.1378 8.30373 20.1186 8.3021C19.8988 8.28773 19.6989 8.18858 19.5542 8.02313C19.4095 7.85767 19.3384 7.64663 19.3536 7.42761L19.4423 6.12463C19.4735 5.67301 19.866 5.33088 20.3192 5.36125C20.5383 5.37641 20.7389 5.47556 20.8836 5.64101C21.0275 5.80647 21.0986 6.01751 21.0842 6.23653L20.9947 7.53872C20.9803 7.75774 20.8804 7.9576 20.7149 8.10145C20.5639 8.23338 20.3744 8.30452 20.1753 8.30452ZM20.2625 5.76172C20.161 5.76172 20.0642 5.79771 19.9875 5.86486C19.9028 5.9384 19.8524 6.0407 19.8444 6.15181L19.7557 7.45478C19.7485 7.56668 19.7845 7.67459 19.858 7.75852C19.9315 7.84246 20.0339 7.89366 20.1458 7.90084C20.2576 7.90882 20.3656 7.87204 20.4503 7.7985C20.5343 7.72495 20.5854 7.62344 20.5926 7.51155L20.6821 6.20936C20.6893 6.09746 20.6533 5.98955 20.579 5.90562C20.5055 5.8209 20.4032 5.77054 20.2921 5.7633C20.2817 5.76251 20.2721 5.76172 20.2625 5.76172Z" fill="#4AB04A" stroke="#4AB04A" stroke-width="0.36655"/>
</g>
<path d="M19.7148 11.234L19.929 8.09009L20.3319 8.11726L20.1169 11.2612L19.7148 11.234Z" fill="#4AB04A" stroke="#4AB04A" stroke-width="0.36655"/>
<path d="M17.1653 8.37377C16.9686 8.37377 16.7799 8.30426 16.6297 8.17474C16.4626 8.03168 16.3619 7.8326 16.3459 7.61358L16.2484 6.31139C16.2148 5.86056 16.5553 5.4657 17.0078 5.43213C17.2268 5.41534 17.4395 5.48569 17.6057 5.62874C17.772 5.77185 17.8727 5.97088 17.8895 6.18911L17.987 7.4913C18.003 7.71032 17.9335 7.92215 17.7896 8.08839C17.6465 8.25468 17.4466 8.3554 17.2276 8.3714C17.2068 8.37298 17.186 8.37377 17.1653 8.37377ZM17.0693 5.83181C17.0589 5.83181 17.0485 5.8326 17.0374 5.83338C16.8071 5.85017 16.6337 6.05161 16.6505 6.28186L16.748 7.58399C16.756 7.6951 16.808 7.79666 16.8927 7.87016C16.9774 7.94292 17.0853 7.97812 17.1972 7.97009C17.3092 7.96212 17.4107 7.91097 17.4842 7.8262C17.557 7.74148 17.5929 7.63278 17.5849 7.52167L17.4874 6.21948C17.4786 6.10759 17.4274 6.00608 17.3427 5.93332C17.266 5.86775 17.17 5.83181 17.0693 5.83181Z" fill="#4AB04A" stroke="#4AB04A" stroke-width="0.36655"/>
<path d="M17.0117 8.18584L17.4138 8.15625L17.6312 11.0644L17.2292 11.0939L17.0117 8.18584Z" fill="#4AB04A" stroke="#4AB04A" stroke-width="0.36655"/>
<path d="M14.2699 8.94083C14.0733 8.94083 13.8854 8.87127 13.7343 8.7418C13.5681 8.59869 13.4674 8.39882 13.4514 8.18059L13.3538 6.87845C13.3203 6.42678 13.6608 6.03271 14.1132 5.99835C14.3323 5.98235 14.5441 6.05191 14.7112 6.19496C14.8775 6.33807 14.9782 6.53794 14.9941 6.75612L15.0917 8.05831C15.1084 8.27732 15.0381 8.48915 14.895 8.65545C14.7511 8.8209 14.5513 8.92163 14.3323 8.93841C14.3115 8.94004 14.2907 8.94083 14.2699 8.94083ZM14.1748 6.39882C14.1644 6.39882 14.1532 6.39882 14.1428 6.39961C14.0309 6.40842 13.9294 6.45957 13.8559 6.54429C13.7831 6.62906 13.7471 6.73697 13.7559 6.84808L13.8535 8.15022C13.8614 8.26216 13.9126 8.36367 13.9974 8.43643C14.0829 8.50998 14.1908 8.54513 14.3027 8.53715C14.4146 8.52834 14.5161 8.47719 14.5889 8.39247C14.6624 8.3077 14.6976 8.19979 14.6896 8.08868L14.5921 6.78654C14.5841 6.6746 14.5329 6.57309 14.4474 6.50033C14.3707 6.43402 14.2747 6.39882 14.1748 6.39882Z" fill="#4AB04A" stroke="#4AB04A" stroke-width="0.36655"/>
<path d="M14.1094 8.74828L14.5115 8.71875L14.7361 11.7164L14.334 11.7459L14.1094 8.74828Z" fill="#4AB04A" stroke="#4AB04A" stroke-width="0.36655"/>
<mask id="mask4_3306_9597" style="mask-type:luminance" maskUnits="userSpaceOnUse" x="18" y="22" width="11" height="1">
<path d="M18.1367 22.1484H28.7331V22.7624H18.1367V22.1484Z" fill="white"/>
</mask>
<g mask="url(#mask4_3306_9597)">
<path d="M28.4972 22.6607H18.3421C18.231 22.6607 18.1406 22.5704 18.1406 22.4593C18.1406 22.3481 18.231 22.2578 18.3421 22.2578H28.4972C28.6091 22.2578 28.6995 22.3481 28.6995 22.4593C28.6995 22.5704 28.6091 22.6607 28.4972 22.6607Z" fill="#4AB04A" stroke="#4AB04A" stroke-width="0.36655"/>
</g>
<path d="M10.4538 19.1915C10.3474 19.1915 10.2587 19.1084 10.2523 19.0021C10.1908 17.9086 9.85905 17.0612 9.23872 16.4098C9.16198 16.329 9.16602 16.2019 9.24675 16.1252C9.32664 16.0492 9.45459 16.0524 9.53129 16.1331C10.2099 16.8462 10.5881 17.8038 10.6552 18.9789C10.6616 19.09 10.5769 19.1851 10.4658 19.1915C10.4618 19.1915 10.4578 19.1915 10.4538 19.1915Z" fill="#4AB04A" stroke="#4AB04A" stroke-width="0.36655"/>
</svg>
