<svg width="32" height="32" viewBox="0 0 32 32" fill="none" xmlns="http://www.w3.org/2000/svg">
<mask id="mask0_3306_9643" style="mask-type:luminance" maskUnits="userSpaceOnUse" x="4" y="3" width="24" height="26">
<path d="M4.33984 3.66797H27.6649V28.3352H4.33984V3.66797Z" fill="white"/>
</mask>
<g mask="url(#mask0_3306_9643)">
<path fill-rule="evenodd" clip-rule="evenodd" d="M5.79554 15.1261C6.24674 14.8533 6.62277 14.4677 6.88417 14.0104C7.14652 14.4677 7.52254 14.8533 7.97374 15.1261C7.52254 15.399 7.14652 15.7854 6.88506 16.2428C6.62361 15.7854 6.24674 15.399 5.79554 15.1261ZM6.88506 17.7179C7.06783 17.7179 7.22347 17.5841 7.25144 17.4022C7.39659 16.464 8.11538 15.6954 9.03961 15.4899C9.42439 15.4033 9.42439 14.8489 9.03961 14.7633C8.11538 14.5577 7.39659 13.7883 7.25144 12.85C7.18675 12.4338 6.58253 12.4329 6.5178 12.85C6.37264 13.7883 5.6539 14.5577 4.72964 14.7633C4.34489 14.848 4.34577 15.4042 4.72964 15.4899C5.6539 15.6954 6.37264 16.464 6.5178 17.4022C6.54581 17.5841 6.7023 17.7179 6.88506 17.7179ZM25.1359 15.0387C24.8744 14.584 24.5011 14.1992 24.0525 13.9282C24.5011 13.6571 24.8744 13.2732 25.1359 12.8186C25.3956 13.2732 25.7707 13.6571 26.2184 13.9282C25.7707 14.1992 25.3956 14.584 25.1359 15.0387ZM27.2826 13.5644C26.3627 13.3598 25.6466 12.5947 25.5022 11.66C25.4376 11.2429 24.8342 11.2429 24.7695 11.66C24.6243 12.5947 23.9091 13.3598 22.9883 13.5644C22.6027 13.6501 22.6036 14.2054 22.9883 14.2919C23.9091 14.4966 24.6243 15.2617 24.7695 16.1964C24.8342 16.6144 25.4376 16.6135 25.5022 16.1964C25.6466 15.2617 26.3627 14.4966 27.2826 14.2919C27.6682 14.2054 27.6691 13.651 27.2826 13.5644ZM21.2754 27.5909C21.0891 26.233 20.8416 24.2769 21.0428 23.4322C21.3986 23.51 21.7554 23.5608 22.1025 23.6106C22.9752 23.7357 23.7998 23.8528 24.3699 24.3862C25.0537 25.0245 25.1341 26.692 25.1403 27.5909H21.2754ZM7.48755 24.3862C8.05852 23.8528 8.88312 23.7357 9.75667 23.6106C10.1029 23.5608 10.4597 23.51 10.8156 23.4322C11.0167 24.2769 10.7701 26.233 10.5838 27.5909H6.71803C6.72328 26.692 6.80548 25.0245 7.48755 24.3862ZM9.70767 20.0963C9.91494 21.47 10.9878 21.6642 11.4775 23.0527C11.7774 23.9009 11.5938 25.6585 11.3323 27.5909H13.2272V24.7421C13.2272 24.5218 13.2316 24.3189 13.2351 24.1387C13.2526 23.1664 13.2613 22.6784 12.72 21.7131C12.3449 21.0416 11.8002 20.635 11.4827 19.8182C11.0018 18.5792 11.7258 16.45 12.0109 14.9626C12.0337 14.8437 11.9663 14.73 11.8526 14.6916L11.7293 14.6504C11.613 14.6111 11.488 14.6671 11.4381 14.779C11.363 14.9486 11.2817 15.1288 11.195 15.3176C10.5357 16.7753 9.53891 18.9779 9.70767 20.0963ZM11.3017 8.47968C11.2641 7.87546 11.2676 7.26688 11.3105 6.67053C11.3394 6.27703 11.5134 5.95698 11.8282 5.72002C12.5889 5.14817 13.4432 4.7573 14.3744 4.54745C14.8143 4.44864 15.2358 4.56668 15.561 4.87972C15.9187 5.22424 16.2483 5.59674 16.5386 5.99113C14.4269 5.73927 12.4534 6.79207 11.3061 8.53739C11.3044 8.51819 11.3026 8.49893 11.3017 8.47968ZM19.8343 8.79711C18.9091 7.48721 17.4681 6.69938 15.93 6.69938C13.3426 6.69938 11.2152 8.88456 11.0193 11.6503C11.2545 11.297 11.5265 10.9753 11.8343 10.6902C13.1319 9.48438 14.7723 9.10751 16.3524 8.88104C17.5888 8.70268 18.6914 8.67467 19.8343 8.79711ZM20.3074 9.60855C20.6825 10.4008 20.8687 11.2743 20.853 12.1767C19.9113 11.1511 18.7631 10.2705 17.379 9.51323C18.3828 9.42929 19.3202 9.46166 20.3074 9.60855ZM13.5954 21.7936C13.9058 21.4106 14.1567 20.9681 14.3561 20.4539C15.3748 20.9218 16.4792 20.927 17.4952 20.4373C17.6963 20.9585 17.9499 21.4062 18.2629 21.7936C17.7602 22.8831 17.8887 23.6386 17.8887 24.7421V27.5909H13.9696V24.7421C13.9696 23.6394 14.099 22.8857 13.5954 21.7936ZM12.0809 18.3842C12.567 19.1065 13.1135 19.6766 13.7038 20.0815C13.5656 20.4565 13.3995 20.7871 13.2019 21.0783C12.8512 20.5501 12.3982 20.1252 12.1744 19.5481C12.0573 19.2455 12.0406 18.8407 12.0809 18.3842ZM19.6847 19.5481C19.8089 19.2271 19.8203 18.7908 19.7696 18.3012C19.279 19.0452 18.7308 19.6329 18.1441 20.0517C18.2839 20.4391 18.4536 20.7792 18.6573 21.0783C19.008 20.5484 19.4592 20.1278 19.6847 19.5481ZM11.1732 14.0209C11.1251 13.7122 11.0972 13.4202 11.0901 13.1508C11.3708 12.3892 11.7897 11.7456 12.3379 11.2359C13.3365 10.309 14.5563 9.92335 16.0612 9.67853C18.0697 10.6212 19.6113 11.7797 20.7664 13.2146C20.7551 13.4604 20.7244 13.7297 20.6755 14.0147C20.4446 13.8871 20.164 13.8547 19.8946 13.9448L19.7714 13.9859C19.3079 14.1406 19.0272 14.6207 19.1199 15.1025C19.1863 15.4505 19.2738 15.8239 19.3665 16.2192C19.4391 16.5278 19.5143 16.8478 19.5807 17.1653C18.9739 18.2985 17.7401 20.0596 15.93 20.0596C14.0763 20.0596 12.8556 18.3475 12.261 17.244C12.3318 16.9012 12.414 16.5541 12.4918 16.2192C12.5845 15.8239 12.6728 15.4505 12.7393 15.1025C12.8311 14.6207 12.5504 14.1406 12.0878 13.9859L11.9646 13.9448C11.6909 13.853 11.4067 13.8879 11.1732 14.0209ZM22.1506 20.0963C22.3203 18.9779 21.3226 16.7753 20.6624 15.3176C20.5775 15.1288 20.4962 14.9486 20.4202 14.779C20.3703 14.6671 20.2453 14.612 20.129 14.6504L20.0057 14.6916C19.892 14.73 19.8255 14.8437 19.8483 14.9626C20.1325 16.45 20.8565 18.5801 20.3756 19.8182C20.0582 20.635 19.5125 21.0442 19.1374 21.7131C18.597 22.6784 18.6057 23.1664 18.6241 24.1387C18.6268 24.3189 18.6302 24.5218 18.6302 24.7421V27.5909H20.5268C20.2645 25.6593 20.0818 23.9009 20.3808 23.0527C20.8705 21.665 21.9434 21.47 22.1506 20.0963ZM24.8762 23.8423C23.9196 22.9478 22.5721 22.9758 21.3645 22.7388C21.8892 21.9597 22.6814 21.5531 22.8843 20.2083C23.0871 18.8712 22.0763 16.6389 21.3391 15.0098C21.3121 14.9512 21.2858 14.8935 21.2605 14.8376C21.4144 14.2141 21.5009 13.6239 21.5114 13.1228C21.5674 12.7766 21.5963 12.4224 21.5963 12.0683C21.5963 10.852 21.2596 9.65051 20.6187 8.63449H20.6178C19.8859 7.47409 18.813 6.62856 17.5905 6.22368C17.3964 5.90714 17.1822 5.59847 16.9522 5.30733C16.6855 4.97154 16.3908 4.64625 16.0743 4.34195C15.5715 3.8584 14.8921 3.66778 14.2118 3.82168C13.1756 4.05515 12.2295 4.48886 11.3831 5.12456C10.896 5.49093 10.6145 6.00687 10.5707 6.61634C10.5252 7.2459 10.5218 7.88773 10.5611 8.52516C10.5856 8.92826 10.6284 9.33838 10.6879 9.74583C10.4142 10.4629 10.263 11.2472 10.263 12.0683C10.263 12.4216 10.2918 12.7757 10.3469 13.1211C10.3565 13.6448 10.4387 14.2464 10.5838 14.8699C10.5629 14.9154 10.5419 14.9626 10.52 15.0098C9.7829 16.6389 8.77207 18.8712 8.97403 20.2083C9.17778 21.554 9.96913 21.9597 10.4938 22.7379C9.28795 22.9758 7.93959 22.9478 6.983 23.8423C6.06749 24.6975 5.9643 26.4953 5.97742 27.9661C5.9792 28.1707 6.14534 28.3351 6.3482 28.3351H25.5101C25.7139 28.3351 25.8792 28.1707 25.8809 27.9661C25.894 26.4953 25.7917 24.6975 24.8762 23.8423Z" fill="#4AB04A"/>
</g>
</svg>
