<svg width="32" height="32" viewBox="0 0 32 32" fill="none" xmlns="http://www.w3.org/2000/svg">
<mask id="mask0_3306_9652" style="mask-type:luminance" maskUnits="userSpaceOnUse" x="3" y="3" width="26" height="26">
<path d="M28.7506 3.01562H3.25391V28.9845H28.7506V3.01562Z" fill="white"/>
</mask>
<g mask="url(#mask0_3306_9652)">
<mask id="mask1_3306_9652" style="mask-type:luminance" maskUnits="userSpaceOnUse" x="3" y="3" width="26" height="27">
<path d="M3.44141 3.91016H28.5765V29.0453H3.44141V3.91016Z" fill="white"/>
</mask>
<g mask="url(#mask1_3306_9652)">
<path d="M18.1832 28.9783C18.1091 28.8967 18.1151 28.7708 18.1968 28.6968C19.8893 27.1633 21.2373 25.4946 22.2035 23.7383C23.1059 22.0977 23.7004 20.3346 23.9717 18.4966C23.987 18.3878 24.0891 18.3121 24.1971 18.3282C24.306 18.3444 24.3808 18.4456 24.3655 18.5544C24.2583 19.2816 24.101 19.9969 23.8969 20.6978C24.7584 20.8738 25.5716 21.18 26.3157 21.6095C27.1033 22.0637 27.8364 22.6684 28.4939 23.4066C28.5679 23.4891 28.5602 23.615 28.4786 23.6881C28.4403 23.7222 28.3927 23.7392 28.3459 23.7392C28.2914 23.7392 28.237 23.7162 28.1971 23.672C27.5677 22.966 26.8677 22.3877 26.1167 21.9548C25.3989 21.5406 24.613 21.2472 23.7795 21.0805C23.4657 22.0628 23.0557 23.0154 22.5531 23.9305C21.5648 25.7259 20.1895 27.4295 18.4638 28.9928C18.4255 29.0268 18.378 29.0438 18.3303 29.0438C18.2759 29.0438 18.2223 29.0217 18.1832 28.9783ZM18.2385 13.2779C19.4921 13.0789 20.534 13.2771 21.3352 13.869C21.3708 13.8954 21.4125 13.9081 21.4534 13.9081C21.5146 13.9081 21.575 13.8801 21.6141 13.8265C21.6788 13.738 21.66 13.6138 21.5716 13.5484C20.6811 12.8909 19.538 12.6672 18.1764 12.8841C18.0675 12.902 17.9935 13.004 18.0114 13.1129C18.0284 13.2209 18.1304 13.2958 18.2385 13.2779ZM3.4787 5.83595C3.43873 5.73303 3.48806 5.61736 3.59012 5.57654C3.69218 5.53573 3.8087 5.58588 3.84868 5.6888L5.2282 9.16227C5.28009 9.29153 5.37787 9.39278 5.50545 9.44807C5.63303 9.50331 5.77425 9.50504 5.90351 9.454C6.16969 9.34772 6.29984 9.04492 6.1944 8.77785L4.37939 4.20636C4.33857 4.1043 4.38875 3.98863 4.49081 3.94781C4.59287 3.90698 4.70854 3.95716 4.74851 4.05922L6.02343 7.26819L6.572 7.1202L5.41533 4.20636C5.37446 4.1043 5.42467 3.98863 5.52675 3.94781C5.62878 3.90698 5.74446 3.95716 5.78527 4.05922L7.32809 7.9469C7.55692 8.52185 8.21008 8.80335 8.78419 8.57458C9.35915 8.34664 9.64064 7.69258 9.41187 7.11763L8.25604 4.20636C8.21606 4.1043 8.26538 3.98863 8.36741 3.94781C8.46949 3.90698 8.586 3.95716 8.62598 4.05922L9.52581 6.32414C10.4061 6.10386 11.334 6.52825 11.7414 7.34473L14.5387 12.9496C16.6157 10.507 18.3252 9.02027 19.6214 8.52951C21.7196 7.73513 24.0049 7.99711 25.5528 8.35687C27.2232 8.7447 28.385 9.31026 28.4335 9.33408C28.5322 9.38255 28.573 9.50163 28.5245 9.60031C28.4761 9.69893 28.357 9.73979 28.2583 9.69216C28.2124 9.66919 23.6043 7.44765 19.7626 8.90202C18.5064 9.37746 16.8147 10.8701 14.7326 13.3374L15.584 15.0427C15.8613 15.5998 15.9412 16.2164 15.8409 16.8016L17.3233 19.1396C17.6082 19.5896 17.7009 20.1228 17.5852 20.6425C17.4696 21.1621 17.1583 21.6052 16.7092 21.891C16.3792 22.1002 16.0101 22.2006 15.6453 22.2006C14.9861 22.2006 14.3405 21.8731 13.9612 21.2761L12.6072 19.1396C11.9821 19.0452 11.4122 18.7484 10.9725 18.2857C8.65829 21.5984 6.2701 25.4683 4.39981 28.9392C4.36408 29.0064 4.29604 29.0447 4.2246 29.0447C4.19313 29.0447 4.16081 29.0361 4.13019 29.02C4.03409 28.9681 3.99751 28.8473 4.05025 28.7504C5.94092 25.2403 8.35891 21.3254 10.6978 17.9838L4.38194 10.9781C4.34367 10.9348 4.32581 10.8777 4.33262 10.8199L4.59798 8.65368L3.4787 5.83595ZM14.6773 18.1403C15.2574 17.6164 15.5389 16.856 15.476 16.1067L15.3101 16.207C15.0643 16.3559 14.7888 16.4324 14.5081 16.4324C14.3805 16.4324 14.2513 16.4171 14.1237 16.3839C13.7171 16.2811 13.3761 16.025 13.1643 15.6627L12.5128 14.5494C12.1029 13.8494 12.2908 12.9666 12.9508 12.4954L13.6261 12.0123L13.3157 11.3898L12.4278 12.1918C12.1412 12.4512 11.7762 12.5915 11.3927 12.5915C11.3655 12.5915 11.3383 12.5907 11.311 12.5898C10.8986 12.5686 10.5184 12.3874 10.2411 12.0804C9.75547 11.5411 9.71891 10.7519 10.1067 10.1753L4.92457 10.9849L11.2149 17.9625C12.1207 18.9678 13.6737 19.0469 14.6773 18.1403ZM11.7295 9.11212C11.5339 9.4914 11.2311 9.78654 10.8628 9.96773L10.6204 10.1872C10.3925 10.393 10.2581 10.6753 10.242 10.9824C10.2267 11.2894 10.3313 11.5845 10.5371 11.8133C10.7429 12.0413 11.0253 12.1756 11.3314 12.1909C11.6385 12.2063 11.9328 12.1025 12.1607 11.8958L13.1303 11.0198L11.9141 8.58223C11.8783 8.76338 11.818 8.942 11.7295 9.11212ZM14.9708 20.2197L15.0618 20.3626C15.231 20.6297 15.5857 20.7097 15.8528 20.5395C16.1198 20.3703 16.1989 20.0148 16.0297 19.7477L15.9387 19.604C15.8561 19.4747 15.7295 19.3854 15.5797 19.3522C15.4301 19.3182 15.277 19.3454 15.1477 19.4279C15.0184 19.5096 14.9291 19.6371 14.8959 19.7869C14.8619 19.9365 14.8891 20.0905 14.9708 20.2197ZM15.5194 18.9432L15.1009 18.2832C15.0507 18.3359 14.9989 18.3869 14.9436 18.4362C14.708 18.6497 14.4435 18.8181 14.1602 18.9406L14.5515 19.5581C14.6263 19.3659 14.7582 19.2034 14.9342 19.0911C15.1111 18.9789 15.3144 18.9287 15.5194 18.9432ZM15.6997 17.3229C15.6163 17.5457 15.504 17.7592 15.3654 17.9574L16.2746 19.3905L16.3656 19.5343C16.6523 19.9867 16.5179 20.5889 16.0662 20.8764C15.9055 20.9784 15.7252 21.0277 15.5474 21.0277C15.226 21.0277 14.9104 20.8678 14.7259 20.5761L13.7733 19.075C13.5547 19.1328 13.3285 19.1651 13.098 19.1702L14.2981 21.0626C14.7684 21.8051 15.7541 22.0254 16.4958 21.5542C16.8546 21.3263 17.1039 20.9716 17.1966 20.5557C17.2893 20.1398 17.2153 19.7128 16.9874 19.3531L15.6997 17.3229ZM15.2276 15.2213L14.3193 13.4004L14.3185 13.3995L13.8065 12.3738L13.1813 12.8195C12.6914 13.1707 12.5511 13.8273 12.8556 14.3478L13.5079 15.4611C13.6652 15.7308 13.9187 15.9213 14.2215 15.9978C14.5234 16.0744 14.8372 16.0276 15.1043 15.866L15.4028 15.6848C15.3612 15.5267 15.3025 15.371 15.2276 15.2213ZM4.90671 9.41061L4.75957 10.6073L10.2368 9.7517C10.731 9.67427 11.1469 9.37489 11.3757 8.92925C11.6053 8.48356 11.6087 7.97156 11.3851 7.52251C11.0686 6.8897 10.3593 6.55207 9.67379 6.69838L9.78181 6.96964C10.0914 7.7496 9.71041 8.63579 8.93134 8.94541C8.74847 9.01854 8.55878 9.05342 8.37255 9.05342C7.7678 9.05342 7.19542 8.68941 6.95899 8.09405L6.71998 7.49271L6.17142 7.6407L6.56434 8.63071C6.75146 9.10189 6.52096 9.63687 6.05066 9.82399C5.93924 9.86822 5.82524 9.88946 5.71298 9.88946C5.38301 9.88946 5.06916 9.71 4.90671 9.41061ZM19.9522 22.523C20.0313 22.5434 20.1147 22.5127 20.1623 22.4464C20.2099 22.3801 20.2125 22.2916 20.1691 22.2218C20.1631 22.2133 19.6103 21.3356 19.7838 20.6688C19.925 20.1279 20.7934 19.6967 21.1157 19.5759C21.1914 19.5478 21.2424 19.4772 21.2458 19.3973C21.2484 19.3165 21.2033 19.2425 21.131 19.2085C21.1191 19.2034 19.9394 18.6489 19.521 18.045C19.0992 17.4361 18.8976 15.8779 18.8959 15.8626C18.8831 15.7631 18.7989 15.6882 18.6986 15.6882C18.5982 15.6882 18.5131 15.7631 18.5004 15.8626C18.3754 16.8381 18.0692 17.5526 17.564 18.0458C17.4849 18.1233 17.4832 18.2491 17.5606 18.3282C17.6371 18.4064 17.763 18.4082 17.8421 18.3316C18.2189 17.9625 18.4979 17.493 18.6833 16.9087C18.7955 17.3918 18.9631 17.9387 19.1944 18.2721C19.5151 18.7348 20.1725 19.1473 20.5893 19.3777C20.1708 19.5929 19.5457 20.0012 19.3985 20.5676C19.2607 21.0949 19.4589 21.6835 19.6307 22.0569C19.0889 21.9803 18.1576 21.9378 17.6397 22.4319C17.1328 22.9167 17.0137 23.8617 16.989 24.417C16.5816 24.1058 15.8536 23.6431 15.0873 23.6124C14.3338 23.5827 13.5232 23.9782 13.0503 24.2571C13.1133 23.8829 13.1711 23.3667 13.0912 23.0171C12.9517 22.4005 12.3784 21.9497 12.3538 21.9301C12.267 21.8629 12.142 21.8791 12.0748 21.9658C12.0076 22.0526 12.0229 22.1776 12.1097 22.2457C12.1148 22.2491 12.5953 22.6292 12.7033 23.1055C12.7977 23.5214 12.6387 24.3498 12.569 24.6339C12.5494 24.7147 12.5825 24.7997 12.6523 24.8465C12.722 24.8933 12.813 24.8907 12.8802 24.8414C12.8922 24.8329 14.0769 23.9679 15.072 24.0105C16.0569 24.0496 17.0392 24.9767 17.0486 24.986C17.086 25.0217 17.1362 25.0413 17.1863 25.0413C17.2144 25.0413 17.2425 25.0353 17.2689 25.0234C17.3428 24.9894 17.3888 24.9137 17.3854 24.832C17.3845 24.8168 17.3165 23.2918 17.9144 22.7203C18.4 22.2576 19.5499 22.4209 19.9522 22.523Z" fill="#4AB04A" stroke="#4AB04A" stroke-width="0.331989"/>
</g>
</g>
</svg>
