<svg width="33" height="32" viewBox="0 0 33 32" fill="none" xmlns="http://www.w3.org/2000/svg">
<path d="M13.3497 12.024C13.398 12.024 13.4448 12.015 13.4893 11.9965C13.5338 11.978 13.574 11.9512 13.6081 11.917C13.6423 11.8829 13.669 11.8428 13.6876 11.7982C13.7062 11.753 13.715 11.7062 13.715 11.6579V10.7987C14.0061 10.6784 14.9678 10.5024 16.5012 10.5024C18.0339 10.5024 18.9948 10.6784 19.2866 10.7987V11.6579C19.2866 11.7062 19.2962 11.753 19.3148 11.7982C19.3334 11.8428 19.3594 11.8829 19.3943 11.917C19.4284 11.9512 19.4678 11.978 19.5123 11.9965C19.5576 12.015 19.6037 12.024 19.6527 12.024C19.701 12.024 19.7478 12.015 19.7923 11.9965C19.8368 11.978 19.8762 11.9512 19.9111 11.917C19.9453 11.8829 19.9712 11.8428 19.9898 11.7982C20.0084 11.753 20.018 11.7062 20.018 11.6579V10.6561C20.018 10.068 18.8351 9.76953 16.5012 9.76953C14.1673 9.76953 12.9844 10.068 12.9844 10.6561V11.6579C12.9844 11.7062 12.9932 11.753 13.0118 11.7982C13.0304 11.8428 13.0571 11.8829 13.0913 11.917C13.1254 11.9512 13.1648 11.978 13.2101 11.9965C13.2546 12.015 13.3014 12.024 13.3497 12.024Z" fill="#4AB04A"/>
<path d="M19.3356 14.6338C19.023 14.4749 17.9537 14.3138 16.5012 14.3138C15.0487 14.3138 13.975 14.4749 13.666 14.6338C13.6304 14.6532 13.5933 14.6672 13.5547 14.6761C13.5153 14.6851 13.4759 14.6888 13.4358 14.688C13.3958 14.6866 13.3564 14.6806 13.3178 14.6695C13.2791 14.6584 13.2428 14.642 13.2086 14.6212C13.1744 14.6004 13.1433 14.5759 13.1151 14.5469C13.0876 14.518 13.0638 14.4861 13.0438 14.4511C13.0245 14.4163 13.0096 14.3791 12.9992 14.3405C12.9888 14.3012 12.9844 14.2618 12.9844 14.2217V13.1754C12.9844 13.1264 12.9932 13.0796 13.0118 13.0351C13.0304 12.9897 13.0571 12.9504 13.0913 12.9162C13.1254 12.8814 13.1648 12.8553 13.2101 12.8368C13.2546 12.8182 13.3014 12.8086 13.3497 12.8086C13.398 12.8086 13.4448 12.8182 13.4893 12.8368C13.5338 12.8553 13.574 12.8814 13.6081 12.9162C13.6423 12.9504 13.669 12.9897 13.6876 13.0351C13.7062 13.0796 13.715 13.1264 13.715 13.1754V13.8415C14.422 13.6514 15.5945 13.5794 16.5012 13.5794C17.4071 13.5794 18.5797 13.6514 19.2866 13.8415V13.2222C19.2866 13.1739 19.2962 13.1271 19.3148 13.0819C19.3334 13.0373 19.3594 12.9972 19.3943 12.963C19.4284 12.9289 19.4678 12.9021 19.5123 12.8836C19.5576 12.865 19.6037 12.8561 19.6527 12.8561C19.701 12.8561 19.7478 12.865 19.7923 12.8836C19.8368 12.9021 19.8762 12.9289 19.9111 12.963C19.9453 12.9972 19.9712 13.0373 19.9898 13.0819C20.0084 13.1271 20.018 13.1739 20.018 13.2222V14.2217C20.018 14.3026 19.9987 14.3791 19.9586 14.4497C19.9193 14.521 19.8643 14.5774 19.7953 14.6197C19.7255 14.662 19.6497 14.6843 19.5673 14.6873C19.4856 14.6902 19.4084 14.6725 19.3356 14.6338Z" fill="#4AB04A"/>
<path d="M16.5034 15.906C17.2089 15.9105 17.9106 15.8674 18.6101 15.7761C18.6583 15.7694 18.7029 15.7538 18.7452 15.7286C18.7868 15.7041 18.8224 15.6721 18.8514 15.6328C18.8804 15.5942 18.9012 15.5511 18.913 15.5043C18.9249 15.4568 18.9271 15.4092 18.9205 15.361C18.9138 15.3127 18.8975 15.2682 18.873 15.2266C18.8477 15.1843 18.8165 15.1494 18.7772 15.1197C18.7386 15.0907 18.6955 15.0706 18.6487 15.058C18.6012 15.0461 18.5536 15.0439 18.5061 15.0506C17.1695 15.2088 15.8329 15.2088 14.4962 15.0506C14.4479 15.0439 14.4004 15.0461 14.3536 15.058C14.3069 15.0706 14.2638 15.0907 14.2251 15.1197C14.1858 15.1494 14.1539 15.1843 14.1294 15.2266C14.1049 15.2682 14.0885 15.3127 14.0818 15.361C14.0752 15.4092 14.0774 15.4568 14.0893 15.5043C14.1012 15.5511 14.122 15.5942 14.1509 15.6328C14.1799 15.6721 14.2155 15.7041 14.2571 15.7286C14.2987 15.7538 14.344 15.7694 14.3915 15.7761C15.0925 15.8674 15.7964 15.9105 16.5034 15.906Z" fill="#4AB04A"/>
<path d="M21.7911 13.5386C21.8467 13.5394 21.9017 13.5357 21.9566 13.529C22.0116 13.5223 22.0665 13.5119 22.12 13.4985C22.1735 13.4844 22.2262 13.4673 22.2782 13.4473C22.3294 13.4265 22.3799 13.4028 22.4282 13.376C22.4765 13.3493 22.5232 13.3196 22.5685 13.2869C22.6131 13.2542 22.6554 13.2186 22.6963 13.18C22.7364 13.1421 22.7742 13.1013 22.8091 13.0582C22.844 13.0151 22.8767 12.9705 22.9057 12.9231C22.9354 12.8763 22.9614 12.8272 22.9851 12.7768C23.0081 12.7262 23.0282 12.6743 23.0445 12.6215C23.0616 12.5681 23.0742 12.5146 23.0839 12.4597C23.0943 12.4047 23.1002 12.3498 23.1032 12.2941C23.1062 12.2384 23.1054 12.1834 23.101 12.1277C23.0965 12.072 23.0891 12.0171 23.0779 11.9629C23.0661 11.9087 23.052 11.8552 23.0334 11.8025C23.0156 11.7498 22.994 11.6985 22.9695 11.6488C22.945 11.599 22.9175 11.5507 22.8871 11.5047C22.8567 11.4579 22.8233 11.4141 22.7869 11.3718C22.7504 11.3295 22.7118 11.2901 22.6703 11.253C22.6294 11.2158 22.5856 11.1817 22.5396 11.1497C22.4943 11.1186 22.4468 11.0896 22.3978 11.0644C22.348 11.0384 22.2975 11.0161 22.2455 10.9976C22.1935 10.9783 22.1401 10.9626 22.0858 10.95C22.0317 10.9381 21.9775 10.9292 21.9217 10.924C21.8668 10.9188 21.8118 10.9166 21.7561 10.9188C21.7005 10.9203 21.6455 10.9255 21.5906 10.9344C21.5363 10.9433 21.4821 10.9552 21.4287 10.9708C21.3752 10.9871 21.3232 11.0057 21.2727 11.028C21.2223 11.0503 21.1725 11.0762 21.125 11.1045C21.0774 11.1334 21.0321 11.1646 20.9883 11.1988C20.9445 11.2337 20.9037 11.2708 20.8651 11.3102C20.8257 11.3495 20.7893 11.3918 20.7559 11.4364C20.7269 11.475 20.7054 11.5173 20.6935 11.5649C20.6809 11.6116 20.6779 11.6592 20.6846 11.7074C20.6905 11.7557 20.7062 11.801 20.7307 11.8426C20.7552 11.8849 20.7864 11.9206 20.825 11.9503C20.8636 11.9792 20.9059 12.0008 20.9534 12.0126C21.0002 12.0253 21.0477 12.0282 21.096 12.0223C21.1435 12.0156 21.1888 12 21.2304 11.9755C21.2727 11.951 21.3084 11.9198 21.3381 11.8812C21.3626 11.8485 21.3901 11.8196 21.4205 11.7928C21.451 11.7661 21.4844 11.7431 21.52 11.7238C21.5549 11.7045 21.592 11.6889 21.6314 11.677C21.67 11.6658 21.7094 11.6584 21.7495 11.6547C21.7903 11.6518 21.8304 11.6525 21.8705 11.6577C21.9106 11.6629 21.95 11.6725 21.9878 11.6859C22.0257 11.6993 22.0621 11.7164 22.097 11.7379C22.1312 11.7587 22.1631 11.7832 22.1928 11.8114C22.2218 11.8389 22.2485 11.8701 22.2715 11.9035C22.2938 11.9369 22.3131 11.9718 22.3287 12.0097C22.3443 12.0468 22.3554 12.0854 22.3628 12.1255C22.3703 12.1656 22.374 12.2057 22.3725 12.2458C22.3717 12.2866 22.3666 12.3268 22.3569 12.3661C22.3472 12.4055 22.3339 12.4433 22.3168 12.4797C22.299 12.5169 22.2782 12.551 22.2529 12.5829C22.2284 12.6149 22.201 12.6446 22.1698 12.6706C22.1393 12.6973 22.1059 12.7196 22.0703 12.7389C22.0346 12.7582 21.9975 12.7738 21.9589 12.7849C21.9203 12.7968 21.8801 12.8035 21.8401 12.8072C21.8 12.8102 21.7599 12.8087 21.7198 12.8035C21.6797 12.7983 21.6403 12.7886 21.6024 12.7745C21.5638 12.7612 21.5282 12.7433 21.4933 12.7226C21.4591 12.701 21.4272 12.6765 21.3983 12.6483C21.3685 12.6201 21.3425 12.5896 21.3203 12.5562C21.292 12.5161 21.2579 12.4827 21.2171 12.4567C21.1762 12.43 21.1317 12.4129 21.0841 12.404C21.0366 12.3951 20.9883 12.3958 20.9408 12.4062C20.8933 12.4166 20.8502 12.4359 20.8101 12.4634C20.77 12.4909 20.7366 12.5257 20.7106 12.5666C20.6846 12.6074 20.6668 12.652 20.6579 12.6995C20.6497 12.7478 20.6505 12.7953 20.6608 12.8429C20.6705 12.8911 20.6898 12.9349 20.7173 12.975C20.8391 13.151 20.995 13.2891 21.1851 13.3894C21.3745 13.4889 21.5765 13.5386 21.7911 13.5386Z" fill="#4AB04A"/>
<path d="M19.6552 12.0212H21.046C21.0943 12.0212 21.1411 12.0123 21.1856 11.9938C21.2302 11.9752 21.2695 11.9485 21.3044 11.9143C21.3386 11.8802 21.3646 11.84 21.3832 11.7955C21.4017 11.7502 21.4114 11.7034 21.4114 11.6552C21.4114 11.6069 21.4017 11.5601 21.3832 11.5148C21.3646 11.4703 21.3386 11.4302 21.3044 11.396C21.2695 11.3618 21.2302 11.3351 21.1856 11.3166C21.1411 11.298 21.0943 11.2891 21.046 11.2891H19.6552C19.6062 11.2891 19.5601 11.298 19.5148 11.3166C19.4703 11.3351 19.4309 11.3618 19.3968 11.396C19.3619 11.4302 19.3359 11.4703 19.3173 11.5148C19.2987 11.5601 19.2891 11.6069 19.2891 11.6552C19.2891 11.7034 19.2987 11.7502 19.3173 11.7955C19.3359 11.84 19.3619 11.8802 19.3968 11.9143C19.4309 11.9485 19.4703 11.9752 19.5148 11.9938C19.5601 12.0123 19.6062 12.0212 19.6552 12.0212Z" fill="#4AB04A"/>
<path d="M11.2098 13.5403C11.4281 13.5418 11.6338 13.4913 11.8261 13.3888C12.0192 13.2864 12.1766 13.1445 12.2984 12.9626C12.3258 12.9225 12.3437 12.8787 12.3533 12.8312C12.363 12.7829 12.3637 12.7354 12.3541 12.6879C12.3451 12.6403 12.3266 12.5957 12.2999 12.5557C12.2731 12.5148 12.2397 12.4814 12.1996 12.454C12.1595 12.4265 12.1157 12.4079 12.0682 12.3982C12.0206 12.3886 11.9732 12.3886 11.9256 12.3975C11.8781 12.4072 11.8335 12.425 11.7934 12.4517C11.7526 12.4784 11.7192 12.5119 11.6917 12.5527C11.6694 12.5861 11.6435 12.6166 11.6144 12.6448C11.5855 12.673 11.5536 12.6983 11.5194 12.7198C11.4852 12.7413 11.4489 12.7584 11.411 12.7725C11.3731 12.7866 11.3338 12.7962 11.2937 12.8014C11.2543 12.8074 11.2135 12.8082 11.1734 12.8059C11.1333 12.803 11.0939 12.7955 11.0545 12.7844C11.0159 12.7733 10.9788 12.7576 10.9432 12.7391C10.9076 12.7198 10.8741 12.6968 10.8437 12.6708C10.8125 12.6448 10.785 12.6158 10.7598 12.5839C10.7352 12.5519 10.7137 12.5171 10.6966 12.4807C10.6788 12.4443 10.6655 12.4064 10.6558 12.3671C10.6462 12.3277 10.641 12.2876 10.6394 12.2475C10.638 12.2067 10.6417 12.1666 10.6484 12.1272C10.6558 12.0871 10.6669 12.0485 10.6825 12.0106C10.6981 11.9735 10.7167 11.9379 10.7397 11.9044C10.7627 11.871 10.7887 11.8405 10.8177 11.8123C10.8474 11.7849 10.8793 11.7604 10.9135 11.7388C10.9484 11.7173 10.984 11.7002 11.0227 11.6868C11.0605 11.6735 11.0999 11.6638 11.14 11.6586C11.1793 11.6534 11.2202 11.652 11.2602 11.6557C11.3004 11.6586 11.3397 11.6661 11.3783 11.6772C11.4177 11.6891 11.4548 11.7047 11.4897 11.724C11.5254 11.7433 11.5588 11.7663 11.5892 11.7923C11.6197 11.819 11.6479 11.848 11.6724 11.8807C11.7028 11.9134 11.7392 11.9393 11.7793 11.9594C11.8202 11.9787 11.8633 11.9906 11.9085 11.9943C11.9531 11.998 11.9977 11.9935 12.0407 11.9802C12.0845 11.9676 12.1239 11.9475 12.1595 11.92C12.1959 11.8925 12.2256 11.8591 12.2494 11.8205C12.2731 11.7819 12.2888 11.7403 12.2969 11.6958C12.3051 11.6512 12.3051 11.6074 12.2969 11.5628C12.2888 11.5183 12.2731 11.4767 12.2494 11.4381C12.2159 11.3935 12.1796 11.3519 12.141 11.3126C12.1024 11.2725 12.0608 11.2361 12.0177 11.202C11.9739 11.167 11.9286 11.1359 11.881 11.1076C11.8335 11.0794 11.7845 11.0535 11.7333 11.0312C11.6828 11.0096 11.6308 10.9903 11.5781 10.9747C11.5246 10.9591 11.4711 10.9472 11.4162 10.9384C11.362 10.9294 11.307 10.9242 11.2513 10.9227C11.1964 10.9205 11.1407 10.9227 11.0858 10.9279C11.0308 10.9332 10.9766 10.9413 10.9224 10.9539C10.8682 10.9658 10.8154 10.9814 10.7635 11.0007C10.7115 11.0193 10.661 11.0415 10.6113 11.0668C10.5622 11.0921 10.5147 11.121 10.4694 11.1522C10.4234 11.1834 10.3803 11.2175 10.3387 11.2547C10.2979 11.2918 10.2593 11.3312 10.2229 11.3728C10.1865 11.4151 10.1531 11.4589 10.1219 11.5049C10.0915 11.551 10.064 11.5992 10.0395 11.649C10.0142 11.698 9.99341 11.7492 9.97484 11.8019C9.95705 11.8539 9.94221 11.9074 9.9303 11.9616C9.91918 12.0158 9.91099 12.0708 9.90654 12.1257C9.90208 12.1814 9.90134 12.2364 9.90354 12.2921C9.90653 12.3478 9.91246 12.4027 9.92211 12.4569C9.93103 12.5119 9.94441 12.5653 9.96073 12.6188C9.97709 12.6715 9.9964 12.7235 10.0194 12.774C10.0425 12.8245 10.0684 12.8735 10.0974 12.9203C10.1263 12.9678 10.1583 13.0131 10.1932 13.0562C10.2281 13.0993 10.2652 13.1401 10.3053 13.1779C10.3454 13.2165 10.387 13.2522 10.4315 13.2856C10.4761 13.3183 10.5229 13.348 10.5711 13.3755C10.6194 13.4022 10.6692 13.4267 10.7204 13.4475C10.7716 13.4683 10.8236 13.4854 10.8771 13.4995C10.9313 13.5136 10.9848 13.524 11.0397 13.5314C11.0947 13.5389 11.1496 13.5426 11.2053 13.5426L11.2098 13.5403Z" fill="#4AB04A"/>
<path d="M11.963 12.0212H13.3538C13.4021 12.0212 13.4489 12.0123 13.4935 11.9938C13.538 11.9752 13.5781 11.9485 13.6122 11.9143C13.6464 11.8802 13.6731 11.84 13.6917 11.7955C13.7103 11.7502 13.7192 11.7034 13.7192 11.6552C13.7192 11.6069 13.7103 11.5601 13.6917 11.5148C13.6731 11.4703 13.6464 11.4302 13.6122 11.396C13.5781 11.3618 13.538 11.3351 13.4935 11.3166C13.4489 11.298 13.4021 11.2891 13.3538 11.2891H11.963C11.9147 11.2891 11.8679 11.298 11.8227 11.3166C11.7781 11.3351 11.7387 11.3618 11.7046 11.396C11.6704 11.4302 11.6437 11.4703 11.6251 11.5148C11.6066 11.5601 11.5977 11.6069 11.5977 11.6552C11.5977 11.7034 11.6066 11.7502 11.6251 11.7955C11.6437 11.84 11.6704 11.8802 11.7046 11.9143C11.7387 11.9485 11.7781 11.9752 11.8227 11.9938C11.8679 12.0123 11.9147 12.0212 11.963 12.0212Z" fill="#4AB04A"/>
<path d="M14.4427 10.2741C14.491 10.2741 14.5378 10.2644 14.5824 10.2459C14.6269 10.2273 14.667 10.2013 14.7012 10.1672C14.7353 10.1322 14.762 10.0929 14.7806 10.0484C14.7992 10.003 14.8088 9.9563 14.8088 9.90798V9.08228C14.8051 9.03549 14.794 8.99168 14.7739 8.95008C14.7531 8.90848 14.7264 8.87139 14.693 8.84018C14.6588 8.80897 14.6202 8.78447 14.5772 8.76742C14.5341 8.75032 14.4895 8.74219 14.4435 8.74219C14.3974 8.74219 14.3529 8.75032 14.3098 8.76742C14.2668 8.78447 14.2282 8.80897 14.194 8.84018C14.1605 8.87139 14.1331 8.90848 14.113 8.95008C14.093 8.99168 14.0811 9.03549 14.0781 9.08228V9.90798C14.0781 9.9563 14.087 10.003 14.1056 10.0476C14.1242 10.0922 14.1502 10.1322 14.1843 10.1664C14.2185 10.2006 14.2578 10.2273 14.3031 10.2459C14.3477 10.2644 14.3937 10.2741 14.4427 10.2741Z" fill="#4AB04A"/>
<path d="M18.5553 10.2741C18.6043 10.2741 18.6511 10.2644 18.6956 10.2459C18.7402 10.2273 18.7803 10.2013 18.8144 10.1672C18.8486 10.1322 18.8753 10.0929 18.8939 10.0484C18.9125 10.003 18.9221 9.9563 18.9221 9.90798V9.08228C18.9184 9.03549 18.9065 8.99168 18.8864 8.95008C18.8664 8.90848 18.8397 8.87139 18.8055 8.84018C18.7721 8.80897 18.7335 8.78447 18.6904 8.76742C18.6473 8.75032 18.6028 8.74219 18.5567 8.74219C18.5107 8.74219 18.4661 8.75032 18.4231 8.76742C18.38 8.78447 18.3414 8.80897 18.3072 8.84018C18.2738 8.87139 18.2463 8.90848 18.2263 8.95008C18.2063 8.99168 18.1943 9.03549 18.1914 9.08228V9.90798C18.1914 9.9563 18.2003 10.003 18.2189 10.0476C18.2374 10.0922 18.2634 10.1322 18.2976 10.1664C18.3317 10.2006 18.3711 10.2273 18.4164 10.2459C18.4609 10.2644 18.507 10.2741 18.5553 10.2741Z" fill="#4AB04A"/>
<mask id="mask0_3306_9664" style="mask-type:luminance" maskUnits="userSpaceOnUse" x="12" y="4" width="9" height="3">
<path d="M12.8477 4.52734H20.0715V6.87985H12.8477V4.52734Z" fill="white"/>
</mask>
<g mask="url(#mask0_3306_9664)">
<path d="M13.3537 6.7818C13.402 6.7818 13.4488 6.77215 13.4933 6.75358C13.5378 6.73501 13.578 6.70904 13.6121 6.67416C13.6463 6.63995 13.673 6.60061 13.6915 6.55534C13.7101 6.51075 13.719 6.464 13.719 6.41496V5.5573C14.0101 5.43701 14.9717 5.25955 16.5052 5.25955C18.0379 5.25955 18.9988 5.43701 19.2906 5.5573V6.41128C19.2906 6.45955 19.3002 6.50629 19.3188 6.55161C19.3374 6.59615 19.3634 6.63549 19.3983 6.67043C19.4324 6.70458 19.4718 6.73134 19.5163 6.74985C19.5616 6.76842 19.6077 6.77734 19.6567 6.77734C19.705 6.77734 19.7518 6.76842 19.7963 6.74985C19.8408 6.73134 19.8802 6.70458 19.9151 6.67043C19.9493 6.63549 19.9752 6.59615 19.9938 6.55161C20.0124 6.50629 20.022 6.45955 20.022 6.41128V5.41399C20.022 4.82512 18.8391 4.52734 16.5052 4.52734C14.1713 4.52734 12.9883 4.82512 12.9883 5.41399V6.41128C12.9876 6.46028 12.9965 6.50707 13.0143 6.55308C13.0329 6.5984 13.0589 6.63848 13.093 6.67337C13.128 6.70831 13.1673 6.73501 13.2126 6.75358C13.2579 6.77215 13.3047 6.7818 13.3537 6.7818Z" fill="#4AB04A"/>
</g>
<path d="M13.4454 9.44811C13.5218 9.44811 13.5939 9.43027 13.6614 9.39539C13.9748 9.23497 15.0441 9.07382 16.4973 9.07382C17.9513 9.07382 19.0236 9.23497 19.3325 9.39539C19.4053 9.43326 19.4832 9.45031 19.5649 9.44738C19.6473 9.44439 19.7231 9.42136 19.7929 9.37829C19.8619 9.33595 19.9162 9.28029 19.9563 9.209C19.9956 9.13845 20.0149 9.06269 20.0142 8.98175V7.98298C20.0142 7.93472 20.0053 7.88793 19.9867 7.84266C19.9682 7.79807 19.9414 7.75872 19.9073 7.72384C19.8731 7.68968 19.8337 7.66293 19.7884 7.64436C19.7439 7.62579 19.6971 7.61692 19.6488 7.61692C19.6006 7.61692 19.5538 7.62579 19.5093 7.64436C19.4647 7.66293 19.4246 7.68968 19.3904 7.72384C19.3563 7.75872 19.3295 7.79807 19.311 7.84266C19.2924 7.88793 19.2835 7.93472 19.2835 7.98298V8.60378C18.5765 8.41294 17.404 8.34238 16.4973 8.34238C15.5914 8.34238 14.4188 8.41294 13.712 8.60378V7.93252C13.712 7.8842 13.7023 7.83746 13.6837 7.79287C13.6652 7.7476 13.6391 7.70826 13.6043 7.67405C13.5701 7.63917 13.5308 7.6132 13.4862 7.59463C13.4409 7.57606 13.3948 7.56641 13.3458 7.56641C13.2976 7.56641 13.2508 7.57606 13.2063 7.59463C13.1617 7.6132 13.1223 7.63917 13.0874 7.67405C13.0533 7.70826 13.0273 7.7476 13.0087 7.79287C12.9901 7.83746 12.9805 7.8842 12.9805 7.93252V8.97955C12.9805 9.06049 12.9998 9.13619 13.0392 9.20675C13.0785 9.27804 13.1327 9.33449 13.2018 9.37609C13.276 9.42361 13.3577 9.44738 13.4454 9.44811Z" fill="#4AB04A"/>
<path d="M21.7891 8.29868C21.8774 8.30387 21.9658 8.29941 22.0542 8.28677C22.1418 8.27345 22.2279 8.25188 22.3111 8.22146C22.395 8.19025 22.4745 8.15164 22.5502 8.10484C22.626 8.0581 22.6957 8.00386 22.7611 7.94295C22.8257 7.88137 22.8829 7.81453 22.9341 7.74099C22.9854 7.66823 23.0284 7.59101 23.0633 7.50859C23.099 7.42691 23.125 7.34225 23.1435 7.25537C23.1614 7.16771 23.1703 7.07937 23.1703 6.99025C23.1703 6.90112 23.1614 6.81278 23.1435 6.7259C23.125 6.63825 23.099 6.55363 23.0633 6.47195C23.0284 6.38948 22.9854 6.31227 22.9341 6.2395C22.8829 6.16601 22.8257 6.09918 22.7611 6.03754C22.6957 5.97663 22.626 5.92244 22.5502 5.87565C22.4745 5.82886 22.395 5.79025 22.3111 5.75908C22.2279 5.72861 22.1418 5.7071 22.0542 5.69372C21.9658 5.68108 21.8774 5.67662 21.7891 5.68181C21.5841 5.68034 21.3896 5.72488 21.2054 5.81548C21.022 5.90681 20.8683 6.03381 20.745 6.1979C20.7153 6.23651 20.6945 6.27958 20.6819 6.32638C20.67 6.37317 20.6671 6.4207 20.6737 6.46896C20.6796 6.51722 20.6953 6.56255 20.7198 6.6041C20.7443 6.64643 20.7754 6.6821 20.8141 6.71106C20.8527 6.74075 20.8958 6.76152 20.9425 6.77417C20.9893 6.78681 21.0368 6.78975 21.0844 6.78309C21.1326 6.77637 21.178 6.76079 21.2195 6.73629C21.2611 6.71179 21.2968 6.68058 21.3265 6.64197C21.3562 6.60263 21.3896 6.56701 21.4282 6.53653C21.4668 6.5061 21.5084 6.48087 21.5529 6.46078C21.5975 6.44074 21.6443 6.42663 21.6925 6.41844C21.7416 6.41031 21.7898 6.40806 21.8388 6.41251C21.8878 6.41697 21.9354 6.42736 21.9814 6.44446C22.0282 6.46078 22.0713 6.48307 22.1121 6.51056C22.1522 6.53805 22.1886 6.57068 22.2213 6.60782C22.2539 6.64496 22.2806 6.68504 22.3029 6.72884C22.3252 6.77343 22.3408 6.81944 22.3512 6.86697C22.3616 6.91523 22.3653 6.96428 22.3638 7.01328C22.3616 7.06227 22.3535 7.11053 22.3386 7.15733C22.3245 7.20486 22.3044 7.24939 22.2784 7.29099C22.2524 7.33333 22.222 7.3712 22.1871 7.40535C22.1514 7.43877 22.1121 7.46846 22.069 7.49223C22.0267 7.51599 21.9814 7.53456 21.9339 7.5472C21.8864 7.55979 21.8381 7.56577 21.7891 7.56577C21.694 7.56577 21.6042 7.54348 21.5202 7.49894C21.4356 7.45435 21.3665 7.3935 21.3131 7.31476C21.2849 7.27468 21.2507 7.24126 21.2098 7.21524C21.169 7.18854 21.1244 7.1707 21.077 7.16252C21.0287 7.1536 20.9811 7.15434 20.9337 7.16478C20.8861 7.17516 20.8423 7.19373 20.8022 7.22196C20.7628 7.24939 20.7294 7.28433 20.7034 7.32514C20.6767 7.36601 20.6596 7.41055 20.6507 7.45881C20.6418 7.50634 20.6426 7.5546 20.6529 7.60213C20.6633 7.64966 20.6826 7.69346 20.7101 7.73359C20.8326 7.91106 20.9893 8.04992 21.1802 8.14943C21.371 8.24968 21.5737 8.29941 21.7891 8.29868Z" fill="#4AB04A"/>
<path d="M19.6552 6.77978H21.046C21.0943 6.77978 21.1411 6.77013 21.1856 6.75161C21.2302 6.73304 21.2695 6.70702 21.3044 6.67213C21.3386 6.63798 21.3646 6.59864 21.3832 6.55331C21.4017 6.50878 21.4114 6.46198 21.4114 6.41299C21.4114 6.36472 21.4017 6.31793 21.3832 6.27334C21.3646 6.22807 21.3386 6.18872 21.3044 6.15457C21.2695 6.11964 21.2302 6.09367 21.1856 6.0751C21.1411 6.05653 21.0943 6.04688 21.046 6.04688H19.6552C19.6062 6.04688 19.5601 6.05653 19.5148 6.0751C19.4703 6.09367 19.4309 6.11964 19.3968 6.15457C19.3619 6.18872 19.3359 6.22807 19.3173 6.27334C19.2987 6.31793 19.2891 6.36472 19.2891 6.41299C19.2891 6.46198 19.2987 6.50878 19.3173 6.55331C19.3359 6.59864 19.3619 6.63798 19.3968 6.67213C19.4309 6.70702 19.4703 6.73304 19.5148 6.75161C19.5601 6.77013 19.6062 6.77978 19.6552 6.77978Z" fill="#4AB04A"/>
<path d="M11.2101 8.29548C11.4276 8.29622 11.6333 8.24648 11.8257 8.14477C12.0187 8.043 12.1761 7.9012 12.2987 7.72074C12.3261 7.68066 12.3447 7.63681 12.3544 7.58928C12.364 7.5418 12.364 7.49349 12.3551 7.44601C12.3462 7.39848 12.3276 7.35389 12.3009 7.31382C12.2741 7.27295 12.2407 7.2388 12.2006 7.2121C12.1606 7.18461 12.1167 7.16604 12.0692 7.15639C12.0217 7.14673 11.9742 7.14673 11.9267 7.15565C11.8791 7.1653 11.8353 7.18314 11.7945 7.20984C11.7544 7.2366 11.7202 7.27001 11.6935 7.31082C11.6704 7.34424 11.6445 7.37545 11.6155 7.40368C11.5866 7.4319 11.5553 7.4564 11.5205 7.47791C11.4863 7.49947 11.4499 7.51725 11.412 7.53136C11.3742 7.54547 11.3348 7.55513 11.2947 7.56111C11.2546 7.5663 11.2145 7.56777 11.1744 7.56478C11.1336 7.56184 11.0942 7.55513 11.0556 7.54401C11.0162 7.53288 10.9791 7.51725 10.9435 7.49873C10.9078 7.47943 10.8744 7.4564 10.8432 7.43038C10.812 7.40441 10.7846 7.37545 10.7593 7.34351C10.7348 7.31156 10.7133 7.27667 10.6954 7.24027C10.6783 7.20391 10.6643 7.16604 10.6546 7.12669C10.6449 7.0873 10.6397 7.04722 10.6383 7.00641C10.6375 6.96627 10.6405 6.92546 10.6472 6.88606C10.6546 6.84599 10.6657 6.80738 10.6813 6.7695C10.6962 6.73236 10.7155 6.69674 10.7385 6.66332C10.7615 6.62917 10.7875 6.59869 10.8165 6.57047C10.8462 6.54225 10.8781 6.51775 10.9123 6.49698C10.9465 6.47541 10.9828 6.45763 11.0214 6.44425C11.0593 6.43088 11.0986 6.42122 11.1388 6.41603C11.1788 6.41084 11.219 6.40937 11.2591 6.41231C11.2999 6.41603 11.3393 6.42348 11.3779 6.4346C11.4172 6.44646 11.4544 6.4613 11.49 6.48066C11.5257 6.5007 11.5583 6.52294 11.5895 6.5497C11.62 6.57566 11.6474 6.60541 11.6727 6.6373C11.7017 6.67591 11.7373 6.70786 11.7789 6.73236C11.8212 6.75612 11.8657 6.7717 11.914 6.77842C11.9623 6.78508 12.0091 6.78214 12.0566 6.7695C12.1034 6.75686 12.1457 6.73608 12.1843 6.70713C12.2229 6.67743 12.2541 6.64176 12.2786 6.60022C12.3031 6.55788 12.3187 6.51256 12.3254 6.46503C12.3313 6.41677 12.3284 6.36924 12.3165 6.32244C12.3039 6.27492 12.2831 6.23263 12.2541 6.19402C12.1717 6.08412 12.0736 5.98907 11.9615 5.91033C11.8494 5.8309 11.7276 5.77073 11.5962 5.73065C11.4655 5.68979 11.3311 5.67048 11.1937 5.67195C11.0564 5.67347 10.9227 5.69645 10.7927 5.74031C10.6628 5.78411 10.5425 5.84722 10.4318 5.9289C10.3219 6.01058 10.2269 6.10789 10.1467 6.21926C10.0665 6.33136 10.0056 6.45317 9.964 6.58385C9.9224 6.71531 9.90163 6.84971 9.90236 6.98705C9.90236 7.07324 9.91128 7.15785 9.92838 7.24252C9.94543 7.32641 9.96993 7.40814 10.0033 7.48756C10.036 7.56703 10.0761 7.64205 10.1244 7.71329C10.1719 7.78537 10.2261 7.85141 10.287 7.91159C10.3472 7.97249 10.4133 8.02668 10.4846 8.07421C10.5558 8.12247 10.6309 8.16255 10.7103 8.19523C10.7898 8.22791 10.8707 8.25315 10.9553 8.27025C11.0393 8.28656 11.1239 8.29548 11.2101 8.29548Z" fill="#4AB04A"/>
<path d="M11.963 6.77978H13.3538C13.4021 6.77978 13.4489 6.77013 13.4935 6.75161C13.538 6.73304 13.5781 6.70702 13.6122 6.67213C13.6464 6.63798 13.6731 6.59864 13.6917 6.55331C13.7103 6.50878 13.7192 6.46198 13.7192 6.41299C13.7192 6.36472 13.7103 6.31793 13.6917 6.27334C13.6731 6.22807 13.6464 6.18872 13.6122 6.15457C13.5781 6.11964 13.538 6.09367 13.4935 6.0751C13.4489 6.05653 13.4021 6.04688 13.3538 6.04688H11.963C11.9147 6.04688 11.8679 6.05653 11.8227 6.0751C11.7781 6.09367 11.7387 6.11964 11.7046 6.15457C11.6704 6.18872 11.6437 6.22807 11.6251 6.27334C11.6066 6.31793 11.5977 6.36472 11.5977 6.41299C11.5977 6.46198 11.6066 6.50878 11.6251 6.55331C11.6437 6.59864 11.6704 6.63798 11.7046 6.67213C11.7387 6.70702 11.7781 6.73304 11.8227 6.75161C11.8679 6.77013 11.9147 6.77978 11.963 6.77978Z" fill="#4AB04A"/>
<path d="M9.7008 19.0646C9.75205 19.0646 9.80104 19.0542 9.84784 19.0333C9.89238 19.0133 9.93099 18.9858 9.9644 18.9509C9.99782 18.916 10.0231 18.8759 10.0409 18.8314C10.058 18.7861 10.0661 18.7393 10.0654 18.6911C10.0647 18.6421 10.0543 18.596 10.035 18.5515L8.89141 15.9576C8.86911 15.9183 8.84015 15.8841 8.80527 15.8559C8.7696 15.8269 8.73025 15.8054 8.68718 15.7913C8.64411 15.7772 8.60031 15.7712 8.55499 15.7742C8.50971 15.7764 8.46591 15.7868 8.42431 15.8054C8.38344 15.824 8.34636 15.8492 8.31441 15.8811C8.28246 15.913 8.25723 15.9502 8.23866 15.9918C8.22009 16.0334 8.2097 16.0772 8.2075 16.1224C8.20524 16.1678 8.21117 16.2123 8.22528 16.2554L9.37408 18.8455C9.40304 18.9109 9.44684 18.9636 9.50549 19.0029C9.56493 19.0423 9.6295 19.0631 9.7008 19.0646Z" fill="#4AB04A"/>
<path d="M14.4311 25.2994C14.5135 25.2994 14.5877 25.2749 14.6531 25.2244C14.7192 25.1739 14.7622 25.1093 14.7837 25.0291C14.8833 24.666 14.9456 24.2962 14.9709 23.9197C14.9969 23.544 14.985 23.1689 14.9367 22.7954C14.8877 22.4219 14.8031 22.0566 14.682 21.7001C14.561 21.343 14.4058 21.0021 14.2172 20.6761L11.9375 16.7419C11.8513 16.5934 11.7518 16.4546 11.6382 16.3261C11.5254 16.1976 11.4006 16.081 11.2647 15.9771C11.1281 15.8732 10.9832 15.7833 10.8295 15.7083C10.6758 15.6325 10.5169 15.5731 10.3513 15.5286C10.1857 15.4847 10.0179 15.4573 9.84709 15.4469C9.67634 15.4357 9.50553 15.4417 9.33624 15.464C9.16691 15.487 9.00056 15.5263 8.83867 15.5813C8.67683 15.637 8.52161 15.7075 8.37383 15.7937C8.3315 15.8174 8.29588 15.8494 8.26692 15.888C8.23723 15.9266 8.2164 15.9689 8.20381 16.0164C8.19117 16.0632 8.18818 16.1107 8.19489 16.159C8.20082 16.2073 8.2164 16.2519 8.2409 16.2942C8.26466 16.3365 8.29661 16.3721 8.33449 16.4018C8.3731 16.4308 8.41616 16.4524 8.46296 16.4649C8.50975 16.4769 8.55728 16.4806 8.60554 16.4739C8.65307 16.4672 8.69834 16.4524 8.73994 16.4279C8.84685 16.3655 8.95828 16.315 9.07484 16.2749C9.1914 16.2355 9.31096 16.2073 9.43277 16.191C9.55526 16.1746 9.6778 16.1702 9.80035 16.1783C9.92357 16.1858 10.0447 16.2058 10.1635 16.237C10.283 16.2689 10.3974 16.312 10.508 16.3662C10.6187 16.4204 10.7234 16.485 10.8214 16.56C10.9194 16.635 11.0093 16.7189 11.0902 16.811C11.1719 16.9038 11.2439 17.0033 11.3056 17.1102L13.5845 21.0445C13.7486 21.3281 13.8838 21.6259 13.9892 21.9363C14.0946 22.2467 14.1682 22.5652 14.2105 22.8905C14.2536 23.2157 14.2632 23.5425 14.241 23.87C14.2187 24.1967 14.1645 24.519 14.0783 24.8353C14.0657 24.8828 14.062 24.9304 14.0687 24.9786C14.0746 25.0262 14.0894 25.0714 14.1139 25.1138C14.1377 25.1561 14.1689 25.1917 14.2075 25.2215C14.2454 25.2511 14.2885 25.2727 14.3353 25.286C14.3664 25.2942 14.3984 25.2987 14.4311 25.2994Z" fill="#4AB04A"/>
<path d="M8.83654 25.0183L8.48013 24.9344L8.83953 25.0042C8.92493 24.647 8.9754 24.2854 8.99103 23.9192C9.00735 23.5532 8.98878 23.1885 8.93532 22.8254C8.88113 22.4631 8.79347 22.1089 8.67245 21.7628C8.55069 21.4168 8.39772 21.0856 8.2128 20.7692L7.37 19.3131C7.31355 19.215 7.25931 19.117 7.20737 19.0175C6.49598 17.6489 6.27465 16.0012 6.58059 14.3779L7.51331 9.5556C7.51772 9.53556 7.51924 9.51474 7.51924 9.49396C7.52071 9.43379 7.52816 9.37441 7.54148 9.31576C7.5556 9.25706 7.57569 9.19988 7.60165 9.14569C7.62762 9.0915 7.65957 9.04024 7.69671 8.99272C7.73385 8.94519 7.7754 8.90212 7.82146 8.86351C7.86825 8.8249 7.91798 8.79222 7.97144 8.76399C8.02495 8.73656 8.08061 8.715 8.13931 8.69942C8.19722 8.68378 8.25661 8.67492 8.31678 8.67193C8.37689 8.66894 8.43633 8.67266 8.49571 8.68305C8.59449 8.70314 8.68656 8.7395 8.77196 8.79148C8.8581 8.84347 8.93312 8.90883 8.99623 8.98605C9.06007 9.06401 9.10906 9.15015 9.14248 9.2452C9.17668 9.33952 9.19373 9.43752 9.19447 9.53777L8.19796 16.0613C8.1935 16.1081 8.19796 16.1542 8.21055 16.1994C8.22392 16.244 8.24475 16.2856 8.27292 16.3227C8.30193 16.3599 8.33682 16.3903 8.37689 16.414C8.41776 16.4385 8.46083 16.4534 8.50762 16.4608C8.55363 16.4682 8.59969 16.466 8.64569 16.4556C8.69175 16.4452 8.73335 16.4259 8.77196 16.3992C8.81057 16.3724 8.84325 16.339 8.86849 16.2997C8.89451 16.2611 8.91229 16.218 8.92194 16.1719L9.92144 9.61871C9.92297 9.60087 9.92297 9.5823 9.92144 9.56452C9.92223 9.4702 9.91552 9.37661 9.90067 9.28381C9.88509 9.19101 9.8628 9.10041 9.83163 9.01129C9.80116 8.92295 9.76255 8.83754 9.71727 8.75508C9.67122 8.6734 9.61849 8.59544 9.55985 8.52268C9.50041 8.44992 9.4351 8.3823 9.36454 8.32066C9.29325 8.25908 9.21823 8.2041 9.13729 8.15584C9.05713 8.10758 8.9732 8.06671 8.88559 8.03256C8.79793 7.99914 8.70812 7.97318 8.616 7.95534C8.5061 7.93677 8.39546 7.93011 8.28409 7.9353C8.17346 7.94049 8.06356 7.95681 7.95586 7.98503C7.84821 8.01399 7.74497 8.05338 7.64546 8.10385C7.54594 8.15437 7.45314 8.21449 7.36701 8.28504C7.28087 8.3556 7.20291 8.43429 7.13309 8.52116C7.06327 8.60809 7.00315 8.70162 6.95337 8.80114C6.90363 8.90138 6.86502 9.00536 6.83754 9.11374C6.81005 9.22144 6.79373 9.33134 6.78927 9.44271L5.87292 14.2398C5.53135 16.019 5.7764 17.8413 6.56428 19.3562C6.62072 19.4661 6.68011 19.5737 6.74248 19.6814L7.58607 21.1376C7.74644 21.4123 7.87937 21.7004 7.98482 22.0012C8.09026 22.3019 8.16674 22.6093 8.21354 22.9249C8.26033 23.2398 8.27664 23.5569 8.26327 23.8747C8.24921 24.1933 8.20609 24.5074 8.13259 24.8178L8.48013 24.9351L8.83654 25.0183Z" fill="#4AB04A"/>
<path d="M23.299 19.0667C23.3717 19.0667 23.4378 19.0467 23.4987 19.0073C23.5596 18.9673 23.6042 18.9145 23.6331 18.8477L24.7767 16.2576C24.7968 16.213 24.8072 16.1663 24.8079 16.1179C24.8094 16.0697 24.8012 16.0222 24.7834 15.9769C24.7663 15.9316 24.7411 15.8915 24.7076 15.8566C24.6742 15.8209 24.6349 15.7935 24.591 15.7741C24.5465 15.7541 24.5005 15.7437 24.4514 15.7422C24.4032 15.7415 24.3564 15.7496 24.3111 15.7667C24.2658 15.7846 24.2257 15.8098 24.1908 15.8432C24.1552 15.8766 24.1284 15.916 24.1084 15.9598L22.9648 18.5536C22.9455 18.5982 22.9351 18.6449 22.9336 18.6932C22.9329 18.7423 22.9403 18.789 22.9581 18.8343C22.9752 18.8796 23.0012 18.9197 23.0346 18.9553C23.068 18.9902 23.1067 19.0177 23.1512 19.037C23.1987 19.0571 23.2477 19.0675 23.299 19.0667Z" fill="#4AB04A"/>
<path d="M18.5686 25.3009C18.6013 25.3009 18.6332 25.2964 18.6651 25.2875C18.7119 25.2749 18.7542 25.2533 18.7928 25.2236C18.8314 25.1939 18.8626 25.1583 18.8864 25.1159C18.9101 25.0737 18.9257 25.0283 18.9317 24.9801C18.9376 24.9318 18.9346 24.8843 18.922 24.8375C18.8352 24.5204 18.7809 24.1989 18.7587 23.8714C18.7364 23.5439 18.7468 23.2172 18.7891 22.8919C18.8314 22.566 18.9049 22.2481 19.0104 21.937C19.1158 21.6266 19.251 21.3288 19.4158 21.0452L21.6963 17.111C21.7579 17.004 21.83 16.9045 21.9116 16.8117C21.9933 16.7197 22.0824 16.6357 22.1805 16.5607C22.2785 16.4865 22.3832 16.4218 22.4931 16.3677C22.6037 16.3135 22.7188 16.2704 22.8376 16.2385C22.9572 16.2065 23.0775 16.1872 23.2008 16.179C23.3233 16.1716 23.4458 16.1753 23.5683 16.1917C23.6901 16.208 23.8097 16.2362 23.9263 16.2763C24.0428 16.3157 24.1543 16.3669 24.2604 16.4286C24.3028 16.4531 24.348 16.4679 24.3956 16.4746C24.4438 16.4813 24.4914 16.4776 24.5382 16.4657C24.5849 16.4531 24.628 16.4322 24.6659 16.4025C24.7045 16.3729 24.7364 16.3372 24.7602 16.2949C24.7847 16.2533 24.8003 16.208 24.807 16.1597C24.8129 16.1114 24.8099 16.0639 24.798 16.0172C24.7854 15.9704 24.7646 15.9273 24.7349 15.8887C24.706 15.8501 24.6703 15.8182 24.628 15.7944C24.4802 15.7082 24.325 15.637 24.1631 15.582C24.0013 15.5263 23.8349 15.4877 23.6656 15.4647C23.4956 15.4417 23.3255 15.4357 23.1547 15.4468C22.9839 15.458 22.8153 15.4855 22.6505 15.5293C22.4849 15.5731 22.3253 15.6332 22.1716 15.7082C22.0178 15.784 21.873 15.8739 21.7364 15.9778C21.6005 16.0818 21.4758 16.1984 21.3621 16.3268C21.2493 16.4553 21.1498 16.5941 21.0636 16.7426L18.7832 20.6769C18.5938 21.0028 18.4394 21.3437 18.3183 21.7009C18.1973 22.0573 18.1119 22.4226 18.0636 22.7961C18.0146 23.1697 18.0034 23.5447 18.0287 23.9204C18.0547 24.2969 18.1171 24.6667 18.2158 25.0298C18.2374 25.11 18.2812 25.1746 18.3465 25.2251C18.4126 25.2756 18.4861 25.3009 18.5686 25.3009Z" fill="#4AB04A"/>
<path d="M24.5274 25.2841C24.5534 25.2841 24.5787 25.2811 24.6047 25.2752C24.6515 25.2656 24.6945 25.2477 24.7339 25.221C24.7732 25.1943 24.8059 25.1608 24.8319 25.1208C24.8579 25.0806 24.875 25.0376 24.8831 24.99C24.8913 24.9433 24.8906 24.8965 24.8802 24.8497C24.8044 24.5378 24.7584 24.2207 24.7435 23.8999C24.7279 23.5792 24.7435 23.2591 24.7896 22.9413C24.8356 22.6235 24.9113 22.3123 25.0175 22.0094C25.123 21.7056 25.2566 21.4153 25.4178 21.1376L26.2614 19.6814C26.323 19.5767 26.3839 19.4661 26.4403 19.3562C27.2274 17.8413 27.4725 16.0242 27.1317 14.2398L26.2146 9.44271C26.2101 9.33134 26.1945 9.22144 26.1663 9.11374C26.1388 9.00536 26.1002 8.90138 26.0505 8.80114C26.0007 8.70162 25.9406 8.60809 25.8715 8.52116C25.8017 8.43429 25.7237 8.3556 25.6368 8.28504C25.5507 8.21449 25.4579 8.15437 25.3584 8.10385C25.2596 8.05338 25.1556 8.01399 25.048 7.98503C24.9403 7.95681 24.8311 7.94049 24.7198 7.9353C24.6084 7.93011 24.4977 7.93677 24.3886 7.95534C24.2965 7.97318 24.2067 7.99841 24.119 8.03182C24.0314 8.06524 23.9475 8.10611 23.8673 8.15363C23.7863 8.2019 23.7106 8.25609 23.64 8.31773C23.5687 8.37863 23.5034 8.44546 23.4447 8.51822C23.3854 8.59025 23.3326 8.66747 23.2866 8.74915C23.2406 8.83083 23.202 8.91623 23.1707 9.00462C23.1395 9.09297 23.1166 9.18356 23.1009 9.27636C23.0853 9.36921 23.0779 9.46201 23.0787 9.5556C23.0779 9.57417 23.0779 9.59201 23.0787 9.61053L24.0789 16.1638C24.0864 16.2113 24.1027 16.2566 24.1279 16.2982C24.1532 16.3398 24.1851 16.3747 24.2237 16.4037C24.2631 16.4326 24.3062 16.4527 24.3536 16.4646C24.4004 16.4757 24.448 16.4779 24.4962 16.4705C24.5438 16.463 24.5883 16.4467 24.6299 16.4215C24.6715 16.3969 24.7064 16.3643 24.7353 16.3249C24.7643 16.2863 24.7844 16.2425 24.7955 16.1957C24.8074 16.1482 24.8089 16.1007 24.8014 16.0524L23.8064 9.52885C23.8071 9.42786 23.8242 9.3306 23.8584 9.23555C23.8918 9.14123 23.9408 9.05509 24.0046 8.97714C24.0678 8.89918 24.1428 8.83455 24.2289 8.78257C24.315 8.73058 24.4071 8.69496 24.5051 8.67492C24.5646 8.66448 24.624 8.66081 24.6849 8.66375C24.745 8.666 24.8037 8.67565 24.8623 8.69123C24.9203 8.70681 24.976 8.72837 25.0294 8.75586C25.0829 8.7833 25.1334 8.81672 25.1794 8.85533C25.2255 8.89394 25.2678 8.93701 25.3049 8.98453C25.3413 9.03206 25.3732 9.08258 25.3992 9.1375C25.4252 9.19175 25.4453 9.24819 25.4594 9.30684C25.4727 9.36549 25.4801 9.42566 25.4817 9.48578C25.4817 9.5066 25.4839 9.52738 25.4876 9.54742L26.4099 14.3734C26.7232 15.9975 26.4997 17.6445 25.7883 19.0123C25.7364 19.117 25.6844 19.2113 25.6257 19.3086L24.7821 20.7648C24.598 21.0804 24.4458 21.4101 24.3247 21.7546C24.2037 22.0992 24.1161 22.4519 24.0626 22.8136C24.0091 23.1745 23.9898 23.5376 24.0054 23.9022C24.021 24.2675 24.0715 24.6277 24.1554 24.9826C24.1754 25.0703 24.22 25.1415 24.2891 25.198C24.3589 25.2544 24.4383 25.2827 24.5274 25.2841Z" fill="#4AB04A"/>
<mask id="mask1_3306_9664" style="mask-type:luminance" maskUnits="userSpaceOnUse" x="17" y="24" width="9" height="4">
<path d="M17.2227 24.5586H25.587V27.4695H17.2227V24.5586Z" fill="white"/>
</mask>
<g mask="url(#mask1_3306_9664)">
<path d="M18.0337 27.4735H24.8023C24.8892 27.4735 24.9731 27.4563 25.054 27.4229C25.1342 27.3895 25.2055 27.342 25.2671 27.2803C25.3288 27.218 25.3763 27.1467 25.4097 27.0665C25.4431 26.9855 25.4602 26.9016 25.4602 26.814V25.2219C25.4602 25.1343 25.4431 25.0504 25.4097 24.9702C25.3763 24.8893 25.3288 24.818 25.2671 24.7563C25.2055 24.694 25.1342 24.6464 25.054 24.613C24.9731 24.5796 24.8892 24.5625 24.8023 24.5625H21.3656C21.3196 24.5662 21.2757 24.5781 21.2342 24.5982C21.1926 24.6182 21.1562 24.645 21.1243 24.6791C21.0931 24.7133 21.0693 24.7519 21.0523 24.7949C21.0352 24.838 21.027 24.8826 21.027 24.9286C21.027 24.9754 21.0352 25.0199 21.0523 25.063C21.0693 25.1061 21.0931 25.1447 21.1243 25.1788C21.1562 25.213 21.1926 25.2397 21.2342 25.2598C21.2757 25.2799 21.3196 25.2917 21.3656 25.2955H24.7302V26.7398H18.1064V25.2955H20.0008C20.0468 25.2917 20.0906 25.2799 20.1322 25.2598C20.1738 25.2397 20.2109 25.213 20.2421 25.1788C20.2733 25.1447 20.2978 25.1061 20.3141 25.063C20.3312 25.0199 20.3401 24.9754 20.3401 24.9286C20.3401 24.8826 20.3312 24.838 20.3141 24.7949C20.2978 24.7519 20.2733 24.7133 20.2421 24.6791C20.2109 24.645 20.1738 24.6182 20.1322 24.5982C20.0906 24.5781 20.0468 24.5662 20.0008 24.5625H18.0337C17.9461 24.5625 17.8621 24.5796 17.7819 24.613C17.701 24.6464 17.6297 24.694 17.5681 24.7556C17.5065 24.8172 17.4589 24.8885 17.4255 24.9695C17.3914 25.0504 17.375 25.1343 17.375 25.2219V26.814C17.375 26.9016 17.3914 26.9855 17.4255 27.0665C17.4589 27.1474 17.5065 27.2187 17.5681 27.2803C17.6297 27.342 17.701 27.3895 17.7819 27.4229C17.8621 27.4571 17.9461 27.4735 18.0337 27.4735Z" fill="#4AB04A"/>
</g>
<mask id="mask2_3306_9664" style="mask-type:luminance" maskUnits="userSpaceOnUse" x="7" y="24" width="9" height="4">
<path d="M7.51953 24.5586H15.6939V27.4695H7.51953V24.5586Z" fill="white"/>
</mask>
<g mask="url(#mask2_3306_9664)">
<path d="M8.19847 27.4735H14.9663C15.054 27.4735 15.1379 27.4563 15.2181 27.4229C15.299 27.3895 15.3696 27.342 15.4312 27.2803C15.4928 27.218 15.5411 27.1467 15.5745 27.0665C15.6079 26.9855 15.6243 26.9016 15.6243 26.814V25.2219C15.6243 25.1343 15.6079 25.0504 15.5745 24.9702C15.5411 24.8893 15.4928 24.818 15.4312 24.7563C15.3696 24.694 15.299 24.6464 15.2181 24.613C15.1379 24.5796 15.054 24.5625 14.9663 24.5625H13.2844C13.2384 24.5662 13.1945 24.5781 13.153 24.5982C13.1114 24.6182 13.075 24.645 13.0431 24.6791C13.0118 24.7133 12.9881 24.7519 12.971 24.7949C12.9539 24.838 12.9458 24.8826 12.9458 24.9286C12.9458 24.9754 12.9539 25.0199 12.971 25.063C12.9881 25.1061 13.0118 25.1447 13.0431 25.1788C13.075 25.213 13.1114 25.2397 13.153 25.2598C13.1945 25.2799 13.2384 25.2917 13.2844 25.2955H14.8936V26.7398H8.27123V25.2955H11.7702C11.8163 25.2917 11.8601 25.2799 11.9017 25.2598C11.9433 25.2397 11.9804 25.213 12.0116 25.1788C12.0428 25.1447 12.0673 25.1061 12.0836 25.063C12.1007 25.0199 12.1089 24.9754 12.1089 24.9286C12.1089 24.8826 12.1007 24.838 12.0836 24.7949C12.0673 24.7519 12.0428 24.7133 12.0116 24.6791C11.9804 24.645 11.9433 24.6182 11.9017 24.5982C11.8601 24.5781 11.8163 24.5662 11.7702 24.5625H8.19847C8.11087 24.5625 8.02693 24.5796 7.94599 24.613C7.86578 24.6464 7.79454 24.694 7.7329 24.7556C7.67052 24.8172 7.623 24.8885 7.58958 24.9695C7.55616 25.0504 7.53906 25.1343 7.53906 25.2219V26.814C7.53906 26.9016 7.55616 26.9855 7.58958 27.0665C7.623 27.1474 7.67052 27.2187 7.7329 27.2803C7.79454 27.342 7.86578 27.3895 7.94599 27.4229C8.02693 27.4571 8.11087 27.4735 8.19847 27.4735Z" fill="#4AB04A"/>
</g>
</svg>
