<svg width="24" height="24" viewBox="0 0 24 24" fill="none" xmlns="http://www.w3.org/2000/svg">
<g clip-path="url(#clip0_3306_4043)">
<path d="M16.0758 0H16.7789C17.8195 0.219161 18.3574 1.11021 19.1338 1.78209C19.3441 1.55103 19.5301 1.30432 19.7586 1.10582C20.4586 0.499061 21.2607 0.358172 22.1129 0.716969C23.506 1.30369 23.9017 3.07201 22.9112 4.21791C22.7045 4.45711 22.4729 4.67502 22.2162 4.94177C22.63 5.33939 23.0489 5.70445 23.4252 6.11021C24.3118 7.06575 24.1509 8.60238 23.1003 9.37195C22.9512 9.4809 22.7872 9.56919 22.6244 9.67126C22.6701 9.77019 22.7146 9.85974 22.7534 9.95178C23.367 11.4008 22.2976 13.0207 20.7254 13.0307C20.0704 13.0351 19.5282 12.7884 19.0724 12.33C18.368 11.6218 17.6636 10.9136 16.9711 10.2173C14.7139 12.4746 12.4737 14.7157 10.199 16.9919C10.2559 17.0344 10.3323 17.0783 10.3931 17.1384C11.0837 17.8284 11.7899 18.5034 12.4555 19.2173C13.2 20.0163 13.23 21.1872 12.5738 22.0545C11.9421 22.8904 10.8057 23.1603 9.84206 22.7051C9.78195 22.6769 9.71997 22.6531 9.65422 22.6255C9.6154 22.6994 9.58785 22.7545 9.55843 22.809C9.08195 23.7038 8.09956 24.1622 7.11153 23.948C6.66385 23.851 6.28692 23.6268 5.96822 23.3006C5.62135 22.9455 5.2726 22.5911 4.86624 22.1772C4.61767 22.4565 4.42295 22.7282 4.17688 22.9411C3.62965 23.4145 2.9791 23.5711 2.27471 23.4083C0.594193 23.02 -0.0331847 21.0257 1.12076 19.7426C1.31799 19.5235 1.55529 19.3394 1.82766 19.0895C1.63419 18.9236 1.47953 18.8046 1.34053 18.6694C0.776395 18.1234 0.172811 17.6036 0 16.7802C0 16.546 0 16.3112 0 16.077C0.0144009 16.0413 0.035063 16.0063 0.0432026 15.9693C0.195351 15.2492 0.61235 14.7351 1.26164 14.4001C1.30109 14.3801 1.33552 14.3507 1.37622 14.3231C1.00493 13.6299 0.957971 12.9274 1.2917 12.2229C1.95414 10.8265 3.75487 10.5354 4.89505 11.6425C5.56187 12.2899 6.21116 12.9555 6.86859 13.6124C6.92745 13.6713 6.98943 13.7276 7.01886 13.7558C9.27229 11.5034 11.5126 9.26487 13.7779 7.00063C13.7065 6.93926 13.612 6.8685 13.5293 6.78585C12.8562 6.11146 12.1606 5.45773 11.5207 4.75266C10.8902 4.05761 10.7825 3.2248 11.1688 2.37633C11.5558 1.52724 12.252 1.07013 13.1937 1.08892C13.5781 1.09643 13.9601 1.23043 14.3564 1.30933C14.4635 1.15279 14.5868 0.944897 14.7377 0.758923C15.0821 0.333125 15.5605 0.132749 16.0751 0.00125235L16.0758 0ZM21.5149 10.8416C21.5118 10.5454 21.379 10.3375 21.1887 10.1478C19.1269 8.09017 17.0675 6.0288 15.0076 3.96932C14.5987 3.56043 14.1911 3.15091 13.781 2.74389C13.5681 2.53225 13.3133 2.43331 13.014 2.5047C12.7003 2.57984 12.4937 2.77395 12.406 3.08892C12.3134 3.41891 12.428 3.68503 12.6584 3.91547C15.1322 6.39011 17.606 8.86412 20.0811 11.3375C20.1412 11.3976 20.2076 11.4552 20.2802 11.4991C20.5494 11.6637 20.8281 11.6688 21.101 11.5135C21.3659 11.3626 21.4942 11.1227 21.5155 10.8416H21.5149ZM10.8376 21.5172C11.1525 21.4928 11.4086 21.3406 11.5508 21.0257C11.7017 20.6913 11.6259 20.3713 11.3254 20.0708C8.85779 17.6018 6.38898 15.1327 3.91954 12.665C3.54324 12.2893 3.05486 12.2755 2.7155 12.623C2.38428 12.9624 2.40557 13.4421 2.77123 13.8109C3.16757 14.2098 3.56641 14.6061 3.964 15.0038C6.02896 17.0695 8.09517 19.134 10.1583 21.2016C10.3423 21.3863 10.5471 21.511 10.8376 21.5172ZM9.20341 15.8942C11.4299 13.6675 13.6689 11.4277 15.8817 9.21415C15.5166 8.84846 15.1397 8.47088 14.7978 8.12774C12.5738 10.3519 10.3361 12.5899 8.11709 14.8084C8.4721 15.1634 8.84652 15.5379 9.20279 15.8942H9.20341ZM21.7604 8.39574C22.0978 8.3995 22.3921 8.21227 22.518 7.90733C22.6626 7.55604 22.5787 7.24796 22.3182 6.98685C20.5532 5.21916 18.7875 3.4521 17.0193 1.68817C16.6518 1.32185 16.1697 1.31371 15.8322 1.65247C15.5029 1.98309 15.521 2.47714 15.8804 2.8397C16.2486 3.21165 16.6192 3.57984 16.9893 3.94991C18.3693 5.32999 19.7499 6.70883 21.128 8.0908C21.3052 8.26863 21.498 8.40075 21.7604 8.39637V8.39574ZM2.23965 15.6024C1.89966 15.5974 1.60789 15.7802 1.47891 16.0858C1.33114 16.4358 1.41191 16.7458 1.67238 17.0069C3.44244 18.7802 5.21312 20.5535 6.98818 22.3219C7.34507 22.6775 7.82782 22.6788 8.15841 22.3494C8.49026 22.0182 8.47523 21.5241 8.11771 21.1616C7.794 20.8334 7.46717 20.5097 7.14158 20.1841C5.71777 18.7602 4.29271 17.3363 2.87078 15.9105C2.69359 15.7332 2.502 15.5986 2.23965 15.6018V15.6024ZM3.87759 21.278C3.47938 20.8785 3.10683 20.5047 2.7274 20.1246C2.54833 20.3037 2.34797 20.4897 2.16389 20.69C1.86523 21.015 1.879 21.5053 2.18455 21.8109C2.4901 22.1171 2.97535 22.1321 3.30594 21.8341C3.50818 21.6518 3.69727 21.454 3.87759 21.2774V21.278ZM21.2595 3.87539C21.451 3.68566 21.6545 3.50219 21.8374 3.29994C22.1273 2.97934 22.1129 2.49843 21.8198 2.19599C21.5331 1.89981 21.0528 1.85786 20.7366 2.12649C20.5125 2.31622 20.3153 2.53851 20.1161 2.73575C20.5012 3.1196 20.875 3.49217 21.2601 3.87539H21.2595Z" fill="white"/>
</g>
<defs>
<clipPath id="clip0_3306_4043">
<rect width="24" height="24" fill="white"/>
</clipPath>
</defs>
</svg>
