<svg width="28" height="24" viewBox="0 0 28 24" fill="none" xmlns="http://www.w3.org/2000/svg">
<g clip-path="url(#clip0_3306_4743)">
<path d="M3.85968 10.955C3.62292 14.3304 4.66345 17.2244 7.19701 19.5162C9.22821 21.3538 11.6559 22.1959 14.3826 22.0806C16.9029 21.9731 19.0875 21.0149 20.9295 19.2809C21.1063 19.115 21.329 18.9553 21.558 18.8961C21.9801 18.7863 22.3734 19.0013 22.5619 19.3619C22.7535 19.7304 22.6842 20.1744 22.3703 20.4868C21.4825 21.3702 20.4964 22.132 19.3625 22.6625C14.7977 24.7977 10.4533 24.395 6.44854 21.3297C4.04115 19.4866 2.6151 16.9782 2.12755 13.976C1.97645 13.0443 1.96399 12.0908 1.88455 11.1108C1.80122 11.2074 1.71087 11.3321 1.60183 11.4365C1.21241 11.808 0.62595 11.808 0.267684 11.4442C-0.0929178 11.0789 -0.092139 10.4962 0.287934 10.109C0.976427 9.40951 1.67037 8.71465 2.37055 8.0268C2.75607 7.64821 3.29425 7.63341 3.67899 8.00654C4.39786 8.70374 5.10427 9.41263 5.80289 10.1301C6.17829 10.5157 6.16349 11.0742 5.80055 11.4411C5.44073 11.8041 4.87685 11.8197 4.48899 11.4575C4.29973 11.2807 4.14318 11.0695 3.97262 10.874C3.93523 10.9013 3.89785 10.9285 3.86046 10.9566L3.85968 10.955Z" fill="white"/>
<path d="M25.9654 12.2121C26.1258 12.0337 26.252 11.8709 26.4008 11.7322C26.8003 11.3614 27.3712 11.3755 27.7341 11.7533C28.0909 12.1241 28.0932 12.6779 27.7147 13.0651C27.0285 13.767 26.3338 14.4603 25.6336 15.1481C25.2255 15.5485 24.6889 15.5493 24.2808 15.1481C23.5798 14.4611 22.8859 13.767 22.2005 13.0643C21.8235 12.6779 21.8352 12.0882 22.2005 11.7291C22.5658 11.3692 23.1445 11.3762 23.5339 11.7556C23.6787 11.8966 23.8034 12.0586 23.9381 12.2113C23.9716 12.1965 24.0051 12.1825 24.0378 12.1677C24.0175 11.7603 24.0183 11.3505 23.9739 10.9462C23.5175 6.75603 20.6592 3.34015 16.5835 2.25267C13.2182 1.35449 10.1488 2.05091 7.43374 4.24923C7.17127 4.4619 6.9127 4.66755 6.5521 4.62315C6.16346 4.57485 5.87451 4.36764 5.75301 3.99138C5.62606 3.59643 5.72419 3.24433 6.04351 2.96467C6.89634 2.21762 7.83718 1.60533 8.86291 1.12469C15.1956 -1.83938 22.7597 1.27971 25.1671 7.84662C25.6492 9.16156 25.8938 10.5209 25.9031 11.9223C25.9031 11.9807 25.9031 12.0392 25.9078 12.0968C25.9086 12.1132 25.9226 12.128 25.9662 12.2121H25.9654Z" fill="white"/>
<path d="M14.3065 13.0106C12.428 13.0145 10.8734 11.4659 10.8711 9.58853C10.8695 7.71973 12.4077 6.16953 14.2692 6.16408C16.1843 6.15862 17.7311 7.68467 17.7334 9.58074C17.735 11.4605 16.1906 13.0068 14.3058 13.0106H14.3065ZM14.2886 11.1278C15.1578 11.1317 15.844 10.4563 15.8486 9.59165C15.8533 8.73787 15.1531 8.03054 14.3034 8.02977C13.4537 8.02977 12.752 8.73865 12.7582 9.59165C12.7644 10.4454 13.4405 11.1239 14.2894 11.1278H14.2886Z" fill="white"/>
<path d="M14.302 13.6301C15.0987 13.6301 15.8947 13.6247 16.6914 13.6317C17.4905 13.6395 18.1969 13.9121 18.7764 14.4605C19.3831 15.0347 19.9696 15.6306 20.5537 16.2273C20.9392 16.6215 20.933 17.1878 20.5607 17.5578C20.1876 17.9286 19.6253 17.9294 19.2305 17.543C18.7024 17.0273 18.1798 16.5046 17.6642 15.9765C17.3394 15.6431 16.957 15.4888 16.4928 15.4912C15.0263 15.4982 13.559 15.4966 12.0924 15.4912C11.6508 15.4896 11.2816 15.6361 10.9701 15.9523C10.4319 16.4992 9.89219 17.0452 9.33921 17.5773C8.99263 17.9107 8.47314 17.9154 8.11644 17.6201C7.75428 17.3202 7.66159 16.8061 7.90537 16.4119C7.96067 16.3223 8.03621 16.2429 8.11098 16.1673C8.62424 15.6501 9.14139 15.1367 9.65542 14.6202C10.326 13.9464 11.1313 13.6107 12.087 13.6255C12.8253 13.6372 13.5636 13.6278 14.302 13.6278V13.6301Z" fill="white"/>
</g>
<defs>
<clipPath id="clip0_3306_4743">
<rect width="28" height="24" fill="white"/>
</clipPath>
</defs>
</svg>
