<svg width="16" height="16" viewBox="0 0 16 16" fill="none" xmlns="http://www.w3.org/2000/svg">
<path d="M1 4.82812L1.08094 5.11453L2.17675 6.9637V6.0111H7.21373L10.8374 12.1377L11.4849 10.9049L7.94219 4.82812H1Z" fill="#191919"/>
<path d="M11.3522 8.75062C11.2899 8.99344 11.8938 9.70945 11.9623 10.0021L15.0007 4.82812H13.5936L11.3522 8.75062Z" fill="#191919"/>
<path d="M8.47926 10.9666H4.48828L5.10467 12.1434H9.77431L8.47926 10.0078V10.9666Z" fill="#191919"/>
<path d="M7.29194 7.875H2.73438C2.80909 8.32328 3.20756 8.67818 3.35077 9.11401H7.90833C7.81494 8.67818 7.44137 8.30461 7.29194 7.875Z" fill="#191919"/>
<path d="M10.9217 6.51852C12.0985 6.36287 11.8806 4.50124 10.6602 4.67557C9.47103 4.8499 9.7512 6.67417 10.9217 6.51852Z" fill="#2DDE28"/>
</svg>
