<svg width="32" height="32" viewBox="0 0 32 32" fill="none" xmlns="http://www.w3.org/2000/svg">
<path d="M26.8267 8.61381C24.2219 8.61381 22.0661 10.5509 21.7104 13.0591C21.5877 13.0506 21.4651 13.0405 21.3403 13.0405C21.264 13.0405 21.1904 13.0485 21.1152 13.0517C20.7557 10.5471 18.6021 8.61381 16 8.61381C13.3963 8.61381 11.2416 10.5493 10.8843 13.0559C10.7808 13.0495 10.6784 13.0399 10.5733 13.0399C10.4773 13.0399 10.3835 13.049 10.2885 13.0543C9.93067 10.5482 7.77653 8.61328 5.17333 8.61328C2.32053 8.61328 0 10.9343 0 13.7866C0 16.6389 2.32107 18.9599 5.17333 18.9599C5.26933 18.9599 5.3632 18.9509 5.45813 18.9455C5.816 21.4517 7.97013 23.3866 10.5733 23.3866C13.1771 23.3866 15.3317 21.4511 15.6891 18.9445C15.7925 18.9509 15.8949 18.9605 16 18.9605C16.0763 18.9605 16.1499 18.9525 16.2251 18.9493C16.584 21.4538 18.7376 23.3871 21.3403 23.3871C23.9451 23.3871 26.1008 21.4501 26.4565 18.9418C26.5792 18.9503 26.7019 18.9605 26.8267 18.9605C29.6795 18.9605 32 16.6394 32 13.7871C32 10.9349 29.6789 8.61381 26.8267 8.61381ZM1.06667 13.7871C1.06667 11.5226 2.9088 9.68048 5.17333 9.68048C7.24587 9.68048 8.95947 11.2245 9.23627 13.2218C7.13387 13.7855 5.56 15.6394 5.41653 17.8815C5.336 17.8863 5.25547 17.8938 5.17333 17.8938C2.9088 17.8938 1.06667 16.0517 1.06667 13.7871ZM9.23947 14.3338C9.03147 15.889 7.95147 17.169 6.5072 17.6671C6.71573 16.1119 7.7952 14.8319 9.23947 14.3338ZM10.5733 22.3205C8.5008 22.3205 6.7872 20.7765 6.5104 18.7791C8.6128 18.2154 10.1867 16.3615 10.3301 14.1194C10.4112 14.1146 10.4912 14.1071 10.5733 14.1071C10.6645 14.1071 10.7536 14.1151 10.8432 14.121C10.9867 16.3535 12.5483 18.201 14.6373 18.7727C14.3637 20.7733 12.648 22.3205 10.5733 22.3205ZM11.9355 14.3439C13.3621 14.8479 14.4277 16.1162 14.6379 17.657C13.2112 17.153 12.1456 15.8847 11.9355 14.3439ZM15.7301 17.8805C15.5867 15.6479 14.0251 13.8005 11.936 13.2287C12.2101 11.2282 13.9253 9.68101 16 9.68101C18.0672 9.68101 19.7776 11.2175 20.0608 13.2074C17.9291 13.7525 16.3269 15.6213 16.1835 17.8853C16.1221 17.8874 16.0619 17.8938 16 17.8938C15.9088 17.8938 15.8197 17.8863 15.7301 17.8805ZM20.0693 14.3103C19.8661 15.8991 18.7541 17.2063 17.2704 17.6906C17.4741 16.1018 18.5861 14.7946 20.0693 14.3103ZM21.3403 22.3205C19.2731 22.3205 17.5627 20.7839 17.2795 18.7941C19.4112 18.249 21.0133 16.3802 21.1568 14.1162C21.2181 14.1135 21.2784 14.1071 21.3403 14.1071C21.4517 14.1071 21.5611 14.1151 21.6704 14.1237C21.8139 16.3343 23.3472 18.1685 25.4069 18.7578C25.1392 20.7653 23.4197 22.3205 21.3403 22.3205ZM22.7659 14.3674C24.1536 14.8837 25.1867 16.1269 25.4011 17.6335C24.0133 17.1173 22.9803 15.8741 22.7659 14.3674ZM26.8267 17.8938C26.7152 17.8938 26.6059 17.8858 26.4965 17.8773C26.3531 15.6666 24.8197 13.8325 22.76 13.2431C23.0277 11.2357 24.7467 9.68048 26.8267 9.68048C29.0912 9.68048 30.9333 11.5226 30.9333 13.7871C30.9333 16.0517 29.0912 17.8938 26.8267 17.8938Z" fill="#4AB04A"/>
</svg>
