<svg width="30" height="30" viewBox="0 0 30 30" fill="none" xmlns="http://www.w3.org/2000/svg">
<path d="M3.75 8.75H26.25" stroke="#4AB04A" stroke-width="1.5" stroke-linecap="round" stroke-linejoin="round"/>
<path d="M11.9625 13.75H8.75" stroke="#4AB04A" stroke-width="1.5" stroke-linecap="round" stroke-linejoin="round"/>
<path d="M11.25 21.25H7.5C5.42875 21.25 3.75 19.5713 3.75 17.5V7.5C3.75 5.42875 5.42875 3.75 7.5 3.75H22.5C24.5713 3.75 26.25 5.42875 26.25 7.5V12.5" stroke="#4AB04A" stroke-width="1.5" stroke-linecap="round" stroke-linejoin="round"/>
<path fill-rule="evenodd" clip-rule="evenodd" d="M27.4995 21.197C27.4995 24.6858 24.6858 27.4995 21.197 27.4995C17.7083 27.4995 14.8945 24.6858 14.8945 21.197C14.8945 17.7083 17.7083 14.8945 21.197 14.8945C24.6858 14.8945 27.4995 17.7083 27.4995 21.197Z" stroke="#4AB04A" stroke-width="1.5" stroke-linecap="round" stroke-linejoin="round"/>
<path d="M16.7422 25.6522L25.6522 16.7422" stroke="#4AB04A" stroke-width="1.5" stroke-linecap="round" stroke-linejoin="round"/>
</svg>
