<svg width="30" height="30" viewBox="0 0 30 30" fill="none" xmlns="http://www.w3.org/2000/svg">
<path d="M26.7196 12.6562C26.1929 12.6555 25.6765 12.8028 25.2296 13.0815C24.7826 13.3602 24.423 13.7589 24.1919 14.2322C23.9608 14.7056 23.8674 15.2343 23.9225 15.7582C23.9776 16.282 24.1788 16.7798 24.5034 17.1947C23.9962 17.47 23.4849 17.7228 22.9696 17.9531V3.75C22.9689 3.12863 22.7217 2.53292 22.2823 2.09354C21.8429 1.65416 21.2472 1.40699 20.6259 1.40625H9.37586C8.75449 1.40699 8.15878 1.65416 7.7194 2.09354C7.28002 2.53292 7.03285 3.12863 7.03211 3.75V17.9531C6.51648 17.7234 6.00523 17.4705 5.49836 17.1942C5.84359 16.7519 6.04863 16.2165 6.08712 15.6567C6.12562 15.0969 5.99581 14.5384 5.71438 14.053C5.43295 13.5676 5.01276 13.1775 4.50785 12.9328C4.00293 12.6881 3.43637 12.6 2.88099 12.6799C2.32562 12.7597 1.80682 13.0038 1.3913 13.3809C0.975774 13.7579 0.682524 14.2506 0.549246 14.7957C0.415969 15.3407 0.448758 15.9131 0.643396 16.4394C0.838035 16.9656 1.18563 17.4216 1.64148 17.7487V28.125C1.64148 28.2493 1.69087 28.3685 1.77878 28.4565C1.86668 28.5444 1.98591 28.5938 2.11023 28.5938H4.45398C4.5783 28.5938 4.69753 28.5444 4.78544 28.4565C4.87335 28.3685 4.92273 28.2493 4.92273 28.125V17.9489C5.60777 18.3297 6.31181 18.6754 7.03211 18.9844V26.25C7.03211 26.3743 7.08149 26.4935 7.1694 26.5815C7.25731 26.6694 7.37654 26.7188 7.50086 26.7188H22.5009C22.6252 26.7188 22.7444 26.6694 22.8323 26.5815C22.9202 26.4935 22.9696 26.3743 22.9696 26.25V18.9844C23.6899 18.675 24.394 18.3291 25.079 17.948V28.125C25.079 28.2493 25.1284 28.3685 25.2163 28.4565C25.3042 28.5444 25.4234 28.5938 25.5477 28.5938H27.8915C28.0158 28.5938 28.135 28.5444 28.2229 28.4565C28.3108 28.3685 28.3602 28.2493 28.3602 28.125V17.7487C28.8437 17.4019 29.2045 16.9105 29.3907 16.3454C29.577 15.7803 29.579 15.1707 29.3965 14.6044C29.2141 14.038 28.8566 13.5442 28.3755 13.1941C27.8944 12.844 27.3146 12.6557 26.7196 12.6562ZM3.98523 27.6562H2.57898V18.1875C3.03965 18.3106 3.52457 18.3106 3.98523 18.1875V27.6562ZM3.28211 17.3438C2.91127 17.3438 2.54876 17.2338 2.24041 17.0278C1.93207 16.8217 1.69175 16.5289 1.54983 16.1863C1.40792 15.8437 1.37079 15.4667 1.44314 15.103C1.51548 14.7392 1.69406 14.4051 1.95628 14.1429C2.21851 13.8807 2.5526 13.7021 2.91631 13.6298C3.28003 13.5574 3.65703 13.5946 3.99964 13.7365C4.34225 13.8784 4.63509 14.1187 4.84111 14.4271C5.04714 14.7354 5.15711 15.0979 5.15711 15.4688C5.15711 15.966 4.95956 16.4429 4.60793 16.7946C4.2563 17.1462 3.77939 17.3438 3.28211 17.3438ZM8.90711 25.7812H7.96961V19.3472C8.28086 19.462 8.59351 19.567 8.90711 19.6664V25.7812ZM20.1571 25.7812H9.84461V19.9444C13.2222 20.8519 16.7795 20.8519 20.1571 19.9444V25.7812ZM20.1571 18.9778C16.7847 19.9241 13.217 19.9241 9.84461 18.9778V4.21875H20.1571V18.9778ZM22.0321 25.7812H21.0946V19.6664C21.4082 19.567 21.7209 19.462 22.0321 19.3472V25.7812ZM22.0321 18.3427C21.7209 18.4636 21.4087 18.5794 21.0946 18.6839V3.75C21.0946 3.62568 21.0452 3.50645 20.9573 3.41854C20.8694 3.33064 20.7502 3.28125 20.6259 3.28125H9.37586C9.25154 3.28125 9.13231 3.33064 9.0444 3.41854C8.95649 3.50645 8.90711 3.62568 8.90711 3.75V18.6839C8.59305 18.5794 8.28086 18.4636 7.96961 18.3427V3.75C7.96961 3.37704 8.11777 3.01935 8.38149 2.75563C8.64521 2.49191 9.0029 2.34375 9.37586 2.34375H20.6259C20.9988 2.34375 21.3565 2.49191 21.6202 2.75563C21.8839 3.01935 22.0321 3.37704 22.0321 3.75V18.3427ZM27.4227 27.6562H26.0165V18.1875C26.4771 18.3106 26.9621 18.3106 27.4227 18.1875V27.6562ZM26.7196 17.3438C26.3488 17.3438 25.9863 17.2338 25.6779 17.0278C25.3696 16.8217 25.1292 16.5289 24.9873 16.1863C24.8454 15.8437 24.8083 15.4667 24.8806 15.103C24.953 14.7392 25.1316 14.4051 25.3938 14.1429C25.656 13.8807 25.9901 13.7021 26.3538 13.6298C26.7175 13.5574 27.0945 13.5946 27.4371 13.7365C27.7798 13.8784 28.0726 14.1187 28.2786 14.4271C28.4846 14.7354 28.5946 15.0979 28.5946 15.4688C28.5946 15.966 28.3971 16.4429 28.0454 16.7946C27.6938 17.1462 27.2169 17.3438 26.7196 17.3438Z" fill="#4AB04A"/>
<path d="M17.8125 16.875C18.1855 16.875 18.5431 16.7268 18.8069 16.4631C19.0706 16.1994 19.2188 15.8417 19.2188 15.4688V12.6562C19.2188 12.2833 19.0706 11.9256 18.8069 11.6619C18.5431 11.3982 18.1855 11.25 17.8125 11.25C17.4395 11.25 17.0819 11.3982 16.8181 11.6619C16.5544 11.9256 16.4062 12.2833 16.4062 12.6562V15.4688C16.4062 15.8417 16.5544 16.1994 16.8181 16.4631C17.0819 16.7268 17.4395 16.875 17.8125 16.875ZM17.3438 12.6562C17.3438 12.5319 17.3931 12.4127 17.481 12.3248C17.569 12.2369 17.6882 12.1875 17.8125 12.1875C17.9368 12.1875 18.056 12.2369 18.144 12.3248C18.2319 12.4127 18.2812 12.5319 18.2812 12.6562V15.4688C18.2812 15.5931 18.2319 15.7123 18.144 15.8002C18.056 15.8881 17.9368 15.9375 17.8125 15.9375C17.6882 15.9375 17.569 15.8881 17.481 15.8002C17.3931 15.7123 17.3438 15.5931 17.3438 15.4688V12.6562Z" fill="#4AB04A"/>
</svg>
