<svg width="30" height="30" viewBox="0 0 30 30" fill="none" xmlns="http://www.w3.org/2000/svg">
<path d="M26.25 10.625H3.75" stroke="#4AB04A" stroke-width="1.5" stroke-linecap="round" stroke-linejoin="round"/>
<path d="M13.75 7.17734L13.7438 7.18359L13.75 7.18984L13.7562 7.18359L13.75 7.17734" stroke="#4AB04A" stroke-width="1.5" stroke-linecap="round" stroke-linejoin="round"/>
<path d="M10.625 7.18516L10.6188 7.19141L10.625 7.19766L10.6312 7.19141L10.625 7.18516" stroke="#4AB04A" stroke-width="1.5" stroke-linecap="round" stroke-linejoin="round"/>
<path d="M7.5 7.18516L7.49375 7.19141L7.5 7.19766L7.50625 7.19141L7.5 7.18516" stroke="#4AB04A" stroke-width="1.5" stroke-linecap="round" stroke-linejoin="round"/>
<path d="M11.25 26.25H7.5C5.42893 26.25 3.75 24.5711 3.75 22.5V7.5C3.75 5.42893 5.42893 3.75 7.5 3.75H22.5C24.5711 3.75 26.25 5.42893 26.25 7.5V12.5" stroke="#4AB04A" stroke-width="1.5" stroke-linecap="round" stroke-linejoin="round"/>
<path d="M8.75 17.5H11.25" stroke="#4AB04A" stroke-width="1.5" stroke-linecap="round" stroke-linejoin="round"/>
<path d="M10 21.25H11.25" stroke="#4AB04A" stroke-width="1.5" stroke-linecap="round" stroke-linejoin="round"/>
<rect x="15" y="16.25" width="11.25" height="10" rx="2.8125" stroke="#4AB04A" stroke-width="1.5" stroke-linecap="round" stroke-linejoin="round"/>
<path d="M18.75 20C18.75 21.0355 19.5895 21.875 20.625 21.875C21.6605 21.875 22.5 21.0355 22.5 20" stroke="#4AB04A" stroke-width="1.5" stroke-linecap="round" stroke-linejoin="round"/>
</svg>
