<svg width="30" height="30" viewBox="0 0 30 30" fill="none" xmlns="http://www.w3.org/2000/svg">
<path d="M19.8844 18.1498H16.5416L17.238 15.8355C17.451 15.1435 17.384 14.3956 17.0515 13.7525C16.7189 13.1093 16.1472 12.6224 15.4594 12.3962C15.2619 12.3311 15.053 12.3075 14.846 12.3269C14.6389 12.3462 14.438 12.4081 14.2559 12.5087C14.0739 12.6093 13.9146 12.7464 13.788 12.9114C13.6613 13.0764 13.5702 13.2658 13.5201 13.4677L13.413 13.9177C13.0089 15.5392 12.172 17.0205 10.9916 18.2034L10.3809 18.8034C10.2257 18.6079 10.0287 18.4497 9.80434 18.3403C9.58 18.2309 9.33401 18.1731 9.08443 18.1712H8.30229C7.86269 18.1712 7.44077 18.3444 7.12792 18.6532C6.81508 18.962 6.6365 19.3817 6.63086 19.8212V26.7212C6.63086 27.1645 6.80696 27.5897 7.12041 27.9031C7.43386 28.2166 7.859 28.3927 8.30229 28.3927H9.08443C9.37214 28.392 9.65475 28.3166 9.90455 28.1739C10.1544 28.0311 10.3628 27.8259 10.5094 27.5784L10.6594 27.6534C11.6278 28.137 12.6949 28.39 13.7773 28.3927H17.6237C18.2596 28.3958 18.8863 28.2407 19.4474 27.9415C20.0084 27.6422 20.4863 27.2082 20.838 26.6784C21.5865 25.5592 21.9856 24.2427 21.9844 22.8962V20.2284C21.9844 19.9536 21.93 19.6816 21.8242 19.428C21.7184 19.1744 21.5634 18.9443 21.3681 18.751C21.1728 18.5577 20.9411 18.405 20.6864 18.3018C20.4318 18.1987 20.1592 18.147 19.8844 18.1498ZM9.64157 26.7212C9.64157 26.8804 9.57836 27.033 9.46584 27.1455C9.35332 27.258 9.2007 27.3212 9.04157 27.3212H8.30229C8.14316 27.3212 7.99055 27.258 7.87802 27.1455C7.7655 27.033 7.70229 26.8804 7.70229 26.7212V19.8212C7.70229 19.6621 7.7655 19.5095 7.87802 19.397C7.99055 19.2845 8.14316 19.2212 8.30229 19.2212H9.08443C9.23602 19.2321 9.37784 19.3001 9.48125 19.4114C9.58466 19.5228 9.64196 19.6693 9.64157 19.8212V26.7212ZM20.8916 22.8962C20.896 24.0396 20.5604 25.1584 19.9273 26.1105C19.674 26.4892 19.3313 26.7997 18.9296 27.0146C18.5278 27.2295 18.0793 27.3422 17.6237 27.3427H13.7773C12.8625 27.3418 11.9604 27.1291 11.1416 26.7212L10.713 26.507V19.9284L11.6987 18.9427C13.0175 17.6241 13.9543 15.9727 14.4094 14.1641L14.5166 13.7248C14.5484 13.6073 14.6254 13.5071 14.7309 13.4462C14.7849 13.4226 14.8433 13.4105 14.9023 13.4105C14.9613 13.4105 15.0196 13.4226 15.0737 13.4462C15.2849 13.5165 15.4801 13.6276 15.6482 13.7733C15.8164 13.9191 15.9542 14.0965 16.0537 14.2955C16.1532 14.4946 16.2125 14.7113 16.2282 14.9332C16.2439 15.1552 16.2157 15.3781 16.1451 15.5891L15.2451 18.5998C15.2219 18.6797 15.2175 18.7638 15.2324 18.8456C15.2472 18.9275 15.281 19.0047 15.3309 19.0712C15.3795 19.1391 15.444 19.194 15.5187 19.2313C15.5933 19.2687 15.676 19.2873 15.7594 19.2855H19.8201C19.9524 19.2855 20.0834 19.3116 20.2056 19.3622C20.3278 19.4128 20.4388 19.487 20.5323 19.5805C20.6258 19.674 20.7 19.7851 20.7506 19.9073C20.8012 20.0294 20.8273 20.1604 20.8273 20.2927L20.8916 22.8962Z" fill="#4AB04A"/>
<path d="M11.7855 7.82092L11.4427 9.80306C11.4015 10.0224 11.4239 10.249 11.5075 10.456C11.591 10.663 11.7322 10.8417 11.9141 10.9709C12.1155 11.1211 12.3593 11.2036 12.6105 11.2066C12.8045 11.2036 12.9951 11.1559 13.1677 11.0673L14.9998 10.1245L16.7891 11.0673C16.9859 11.1712 17.208 11.2173 17.4298 11.2003C17.6517 11.1832 17.8641 11.1037 18.0427 10.9709C18.2228 10.8425 18.3627 10.6656 18.4462 10.4607C18.5296 10.2558 18.5532 10.0315 18.5141 9.81378L18.2141 7.82092L19.6177 6.42806C19.7798 6.27476 19.895 6.07859 19.95 5.86237C20.005 5.64615 19.9975 5.41876 19.9284 5.20663C19.8592 4.99473 19.7323 4.80631 19.562 4.66248C19.3916 4.51865 19.1846 4.42511 18.9641 4.39235L16.9605 4.10306L16.0713 2.27092C15.9712 2.07258 15.8181 1.9059 15.6289 1.78945C15.4398 1.67299 15.222 1.61133 14.9998 1.61133C14.7777 1.61133 14.5599 1.67299 14.3707 1.78945C14.1816 1.9059 14.0284 2.07258 13.9284 2.27092L13.0391 4.08163L11.0355 4.37092C10.815 4.40369 10.608 4.49723 10.4377 4.64105C10.2674 4.78488 10.1405 4.97331 10.0713 5.18521C9.99769 5.40027 9.98787 5.63202 10.043 5.85254C10.0981 6.07305 10.2159 6.27292 10.382 6.42806L11.7855 7.82092ZM11.1427 5.43163L13.4248 5.09949C13.5279 5.10617 13.6307 5.08228 13.7203 5.03082C13.8098 4.97936 13.8822 4.90262 13.9284 4.81021L14.9998 2.74235C15.0092 2.72183 15.0243 2.70445 15.0433 2.69226C15.0623 2.68007 15.0844 2.67359 15.107 2.67359C15.1295 2.67359 15.1516 2.68007 15.1706 2.69226C15.1896 2.70445 15.2047 2.72183 15.2141 2.74235L16.2855 4.81021C16.324 4.88844 16.3814 4.95586 16.4525 5.00637C16.5236 5.05687 16.6061 5.08888 16.6927 5.09949L18.9748 5.43163C18.997 5.43616 19.0176 5.44647 19.0346 5.46152C19.0515 5.47657 19.0642 5.49583 19.0713 5.51735C19.0816 5.53527 19.0871 5.55559 19.0871 5.57628C19.0871 5.59697 19.0816 5.61729 19.0713 5.63521L17.4213 7.24235C17.3589 7.30471 17.3119 7.38075 17.284 7.46444C17.2561 7.54813 17.248 7.63717 17.2605 7.72449L17.657 9.98521C17.6643 10.008 17.6628 10.0327 17.6529 10.0545C17.643 10.0762 17.6254 10.0936 17.6034 10.1031C17.5849 10.117 17.5623 10.1245 17.5391 10.1245C17.5159 10.1245 17.4934 10.117 17.4748 10.1031L15.4391 9.03164C15.3639 8.9894 15.279 8.96722 15.1927 8.96722C15.1064 8.96722 15.0215 8.9894 14.9463 9.03164L12.8998 10.1031C12.883 10.1161 12.8622 10.1232 12.8409 10.1232C12.8196 10.1232 12.7989 10.1161 12.782 10.1031C12.76 10.0936 12.7424 10.0762 12.7325 10.0545C12.7226 10.0327 12.7211 10.008 12.7284 9.98521L13.1248 7.72449C13.1373 7.63717 13.1293 7.54813 13.1014 7.46444C13.0735 7.38075 13.0265 7.30471 12.9641 7.24235L11.3141 5.63521C11.3038 5.61729 11.2983 5.59697 11.2983 5.57628C11.2983 5.55559 11.3038 5.53527 11.3141 5.51735C11.2863 5.51893 11.2587 5.51142 11.2355 5.49596C11.2123 5.4805 11.1948 5.45793 11.1855 5.43163H11.1427Z" fill="#4AB04A"/>
<path d="M7.86378 14.1962C8.02338 14.1991 8.18161 14.1663 8.32691 14.1002C8.47221 14.0341 8.60091 13.9364 8.7036 13.8142C8.80629 13.692 8.88038 13.5484 8.92045 13.3939C8.96052 13.2394 8.96557 13.0779 8.93521 12.9212L8.64593 11.2926L9.84593 10.1247C9.99711 9.986 10.1053 9.80675 10.1576 9.60832C10.2098 9.40989 10.204 9.20062 10.1408 9.00539C10.0776 8.81016 9.95971 8.63718 9.80107 8.50702C9.64242 8.37687 9.44974 8.29501 9.24593 8.27117L7.60664 8.03546L6.86735 6.54617C6.76871 6.37481 6.62665 6.23248 6.45548 6.1335C6.28431 6.03453 6.09008 5.98242 5.89235 5.98242C5.69463 5.98242 5.5004 6.03453 5.32923 6.1335C5.15806 6.23248 5.016 6.37481 4.91736 6.54617L4.17807 8.03546L2.53878 8.27117C2.33497 8.29501 2.14229 8.37687 1.98364 8.50702C1.825 8.63718 1.70707 8.81016 1.64387 9.00539C1.58068 9.20062 1.57487 9.40989 1.62715 9.60832C1.67943 9.80675 1.7876 9.986 1.93878 10.1247L3.12807 11.2926L2.83878 12.9212C2.80167 13.1231 2.82333 13.3314 2.90121 13.5213C2.97909 13.7113 3.1099 13.8749 3.27807 13.9926C3.44232 14.1127 3.63736 14.1835 3.84038 14.1968C4.0434 14.21 4.246 14.1652 4.4245 14.0676L5.89235 13.2962L7.36021 14.0676C7.51497 14.1511 7.68792 14.1953 7.86378 14.1962ZM5.89235 12.1605C5.806 12.1599 5.72102 12.1821 5.64593 12.2247L3.8995 13.1033L4.28521 11.1962C4.29117 11.1045 4.27479 11.0127 4.23747 10.9287C4.20014 10.8447 4.14299 10.7711 4.07093 10.714L2.68878 9.33189L4.61736 9.05332C4.70262 9.04291 4.78381 9.01087 4.85319 8.96023C4.92258 8.9096 4.97786 8.84206 5.01378 8.76403L5.90307 7.0176L6.77093 8.76403C6.80685 8.84206 6.86213 8.9096 6.93152 8.96023C7.0009 9.01087 7.08209 9.04291 7.16736 9.05332L9.09593 9.36403L7.71378 10.714C7.65139 10.7764 7.60437 10.8524 7.57648 10.9361C7.54858 11.0198 7.54057 11.1088 7.55307 11.1962L7.86378 13.1247L6.13878 12.2247C6.06369 12.1821 5.97871 12.1599 5.89235 12.1605Z" fill="#4AB04A"/>
<path d="M28.3393 9.01046C28.2781 8.81657 28.163 8.6441 28.0075 8.51319C27.8519 8.38228 27.6623 8.29834 27.4608 8.27117L25.8215 8.03546L25.0822 6.54617C24.9836 6.37481 24.8415 6.23248 24.6703 6.1335C24.4992 6.03453 24.3049 5.98242 24.1072 5.98242C23.9095 5.98242 23.7152 6.03453 23.5441 6.1335C23.3729 6.23248 23.2308 6.37481 23.1322 6.54617L22.3929 8.03546L20.7536 8.27117C20.5498 8.29501 20.3571 8.37687 20.1985 8.50702C20.0398 8.63718 19.9219 8.81016 19.8587 9.00539C19.7955 9.20062 19.7897 9.40989 19.842 9.60832C19.8943 9.80675 20.0024 9.986 20.1536 10.1247L21.3429 11.2926L21.0536 12.9212C21.0165 13.1231 21.0382 13.3314 21.1161 13.5213C21.1939 13.7113 21.3247 13.8749 21.4929 13.9926C21.6572 14.1127 21.8522 14.1835 22.0552 14.1968C22.2582 14.21 22.4608 14.1652 22.6393 14.0676L24.1072 13.2962L25.5751 14.0676C25.7298 14.1511 25.9028 14.1953 26.0786 14.1962C26.2382 14.1991 26.3965 14.1663 26.5418 14.1002C26.6871 14.0341 26.8158 13.9364 26.9184 13.8142C27.0211 13.692 27.0952 13.5484 27.1353 13.3939C27.1754 13.2394 27.1804 13.0779 27.1501 12.9212L26.8608 11.2926L28.0501 10.1247C28.1993 9.9858 28.3058 9.80714 28.3571 9.60976C28.4083 9.41237 28.4022 9.20447 28.3393 9.01046ZM25.9286 10.714C25.8662 10.7764 25.8192 10.8524 25.7913 10.9361C25.7634 11.0198 25.7554 11.1088 25.7679 11.1962L26.0786 13.1247L24.3536 12.2247C24.2784 12.1825 24.1935 12.1603 24.1072 12.1603C24.0209 12.1603 23.936 12.1825 23.8608 12.2247L22.1143 13.1033L22.5001 11.1962C22.506 11.1045 22.4896 11.0127 22.4523 10.9287C22.415 10.8447 22.3578 10.7711 22.2858 10.714L20.9036 9.33189L22.8322 9.05332C22.9175 9.04291 22.9987 9.01087 23.068 8.96023C23.1374 8.9096 23.1927 8.84206 23.2286 8.76403L24.1179 7.0176L24.9858 8.76403C25.0217 8.84206 25.077 8.9096 25.1464 8.96023C25.2157 9.01087 25.2969 9.04291 25.3822 9.05332L27.3108 9.36403L25.9286 10.714Z" fill="#4AB04A"/>
</svg>
