<svg width="45" height="45" viewBox="0 0 45 45" fill="none" xmlns="http://www.w3.org/2000/svg">
<path d="M22.5 37.5C22.5 27.1875 14.0625 18.75 3.75 18.75C3.75 29.0625 12.1875 37.5 22.5 37.5Z" stroke="#4AB04A" stroke-width="1.5" stroke-linecap="round" stroke-linejoin="round"/>
<path d="M18.1887 15.5625C14.8137 11.8125 11.0637 9.75 11.0637 9.75C11.0637 9.75 9.56371 14.4375 10.1262 19.875" stroke="#4AB04A" stroke-width="1.5" stroke-linecap="round" stroke-linejoin="round"/>
<path d="M28.125 24.1875V22.5C28.125 14.25 22.5 7.5 22.5 7.5C22.5 7.5 16.875 14.25 16.875 22.5V24.1875" stroke="#4AB04A" stroke-width="1.5" stroke-linecap="round" stroke-linejoin="round"/>
<path d="M34.875 19.875C35.4375 14.4375 33.9375 9.75 33.9375 9.75C33.9375 9.75 30.1875 11.625 26.8125 15.5625" stroke="#4AB04A" stroke-width="1.5" stroke-linecap="round" stroke-linejoin="round"/>
<path d="M22.5 37.5C32.8125 37.5 41.25 29.0625 41.25 18.75C30.9375 18.75 22.5 27.1875 22.5 37.5Z" stroke="#4AB04A" stroke-width="1.5" stroke-linecap="round" stroke-linejoin="round"/>
</svg>
