<svg width="55" height="45" viewBox="0 0 55 45" fill="none" xmlns="http://www.w3.org/2000/svg">
<path d="M22.7168 39.712C21.6227 39.5049 20.8239 39.2664 20.2734 38.9891C20.1546 38.9281 20.0602 38.8394 19.9902 38.7229C19.9185 38.6045 19.8837 38.475 19.8837 38.3365V36.556C19.8837 36.482 19.8627 36.4173 19.8154 36.3618C19.77 36.3045 19.7123 36.2712 19.6442 36.262L19.0761 36.1695C19.0115 36.1584 18.9503 36.1714 18.8944 36.2065C18.744 36.31 18.5868 36.3969 18.419 36.4672C18.2529 36.5374 18.0817 36.5892 17.9051 36.6224C17.7286 36.6558 17.5503 36.6706 17.372 36.6669C17.1921 36.6632 17.0155 36.641 16.8407 36.5984C16.666 36.5578 16.4964 36.4986 16.3321 36.4209C16.1695 36.3433 16.014 36.2508 15.8672 36.1399C15.7221 36.0309 15.5876 35.907 15.4652 35.7683C15.3411 35.6297 15.2327 35.4798 15.1384 35.3191C14.9199 34.9437 14.7905 34.5369 14.7486 34.0987C14.7067 33.6606 14.7574 33.2334 14.9007 32.8193C14.9391 32.7047 14.9863 32.5937 15.0387 32.4846C15.0912 32.3755 15.1506 32.2701 15.217 32.1704C15.2817 32.0686 15.3534 31.9725 15.4302 31.8819C15.5072 31.7913 15.591 31.7062 15.6784 31.6249C15.7658 31.5454 15.8567 31.4714 15.9546 31.4049C16.0507 31.3384 16.1503 31.2773 16.2552 31.2237C16.3583 31.1701 16.4649 31.1239 16.575 31.0832C16.6834 31.0444 16.7952 31.013 16.9089 30.9888C17.0224 30.9648 17.1361 30.9482 17.2515 30.9408C17.3668 30.9316 17.4821 30.9316 17.5975 30.939C17.7129 30.9445 17.8265 30.9612 17.9401 30.9834C18.0537 31.0056 18.1655 31.037 18.2756 31.0739C18.3857 31.1127 18.4924 31.1571 18.5972 31.2107C18.7021 31.2625 18.8017 31.3217 18.8996 31.3882C18.9958 31.4548 19.0884 31.5269 19.1775 31.6064C19.2666 31.6841 19.3488 31.7692 19.4274 31.8597C19.4659 31.893 19.5096 31.9133 19.5603 31.9189C19.6459 31.9337 19.721 31.9115 19.7857 31.8505C19.8521 31.7913 19.8854 31.7155 19.8854 31.6231V29.8944C19.8854 29.8333 19.8924 29.7723 19.9081 29.7131C19.9221 29.6539 19.9431 29.5985 19.971 29.5449C19.9989 29.4912 20.0322 29.4432 20.0706 29.3988C20.1109 29.3545 20.1546 29.3157 20.2034 29.2823C20.2524 29.2509 20.3031 29.225 20.359 29.2065C20.4132 29.188 20.4691 29.177 20.5268 29.1732C20.5845 29.1696 20.6422 29.1732 20.6981 29.1844C20.754 29.1954 20.8082 29.2139 20.8606 29.2417C21.1577 29.3914 21.7625 29.6189 22.958 29.8462C25.688 30.3713 28.418 30.3713 31.1482 29.8462C32.3437 29.6189 32.9483 29.3914 33.2455 29.2417C33.2979 29.2158 33.3521 29.1973 33.408 29.1844C33.464 29.1732 33.5216 29.1696 33.5793 29.1732C33.6353 29.177 33.6929 29.188 33.7471 29.2084C33.8013 29.2269 33.8538 29.2527 33.9009 29.2842C33.9499 29.3175 33.9936 29.3563 34.0337 29.3988C34.074 29.4432 34.1071 29.4932 34.1351 29.5468C34.1631 29.5985 34.1841 29.6559 34.1981 29.715C34.212 29.7723 34.2208 29.8333 34.2208 29.8944V31.6231C34.219 31.7155 34.2522 31.7913 34.3186 31.8505C34.3833 31.9115 34.4602 31.9337 34.5458 31.9189C34.5948 31.9133 34.6385 31.893 34.6769 31.8597C34.7556 31.7692 34.8377 31.6841 34.9269 31.6045C35.0143 31.5251 35.1069 31.4511 35.2048 31.3846C35.3026 31.318 35.4023 31.257 35.5071 31.2052C35.612 31.1516 35.7186 31.1054 35.8287 31.0665C35.9388 31.0296 36.0507 30.9982 36.166 30.9741C36.2796 30.9519 36.3933 30.9371 36.5104 30.9297C36.6257 30.9223 36.741 30.9223 36.8564 30.9297C36.9718 30.939 37.0872 30.9538 37.2007 30.9778C37.3144 31.0018 37.4262 31.0332 37.5363 31.0721C37.6464 31.1127 37.753 31.1589 37.8561 31.2126C37.9611 31.2662 38.0624 31.3272 38.1586 31.3938C38.2547 31.4622 38.3472 31.5361 38.4365 31.6157C38.5238 31.6952 38.606 31.782 38.6828 31.8727C38.7615 31.9633 38.8332 32.0594 38.8979 32.1611C38.9643 32.2627 39.0237 32.3681 39.0761 32.4772C39.1303 32.5863 39.1757 32.6991 39.216 32.8138C39.2841 33.0171 39.3313 33.226 39.3575 33.4423C39.382 33.6568 39.3838 33.8713 39.3628 34.0876C39.3418 34.3021 39.2981 34.5129 39.2317 34.7182C39.167 34.9233 39.0796 35.1174 38.973 35.3023C38.8646 35.4854 38.7388 35.6555 38.5954 35.809C38.4522 35.9624 38.2931 36.0993 38.1219 36.2138C37.9488 36.3304 37.767 36.4247 37.573 36.4968C37.3808 36.5688 37.1833 36.6188 36.9805 36.6428C36.3391 36.7205 35.7483 36.5726 35.2065 36.201C35.1524 36.164 35.0911 36.151 35.0265 36.164L34.4602 36.2546C34.3903 36.2656 34.3343 36.2989 34.2872 36.3544C34.2418 36.4117 34.219 36.4764 34.2208 36.5504V38.3291C34.2208 38.4696 34.1858 38.599 34.1141 38.7155C34.0443 38.8338 33.9499 38.9225 33.831 38.9835C33.2822 39.259 32.4835 39.4957 31.3894 39.7065C28.4967 40.2593 25.6042 40.2593 22.7115 39.7065L22.7168 39.712ZM32.8592 36.556C32.8575 36.347 32.8925 36.1455 32.9606 35.9476C33.0287 35.7517 33.1266 35.5742 33.2542 35.4152C33.3836 35.258 33.5339 35.1268 33.7069 35.0269C33.8799 34.9252 34.0634 34.8586 34.2592 34.8291L34.8272 34.7384C35.2345 34.67 35.6102 34.757 35.9563 34.9936C36.222 35.1804 36.5121 35.2525 36.8284 35.2136C36.9892 35.1933 37.143 35.1434 37.2881 35.0638C37.4315 34.9843 37.559 34.8789 37.6674 34.7514C37.7775 34.622 37.8614 34.4777 37.9208 34.3169C37.9802 34.1561 38.0099 33.9896 38.0117 33.8177C38.0135 33.6439 37.9872 33.4775 37.9313 33.3148C37.8771 33.1521 37.795 33.0061 37.6901 32.8748C37.5835 32.7435 37.4594 32.6363 37.3178 32.553C37.1745 32.4698 37.0225 32.4144 36.8617 32.3903C36.6432 32.3571 36.43 32.3793 36.222 32.4606C36.0157 32.5401 35.8374 32.6659 35.6906 32.8414C35.439 33.1262 35.1296 33.2982 34.7643 33.3555C34.6472 33.3758 34.5284 33.3813 34.4095 33.3739C34.2906 33.3666 34.1735 33.3462 34.06 33.3111C33.9446 33.276 33.8345 33.2298 33.7297 33.1706C33.6247 33.1114 33.5269 33.0393 33.436 32.958C33.3451 32.8766 33.2647 32.7842 33.1913 32.6843C33.1197 32.5826 33.0585 32.4754 33.0096 32.3608C32.9589 32.2461 32.9222 32.1278 32.8959 32.0039C32.8697 31.8801 32.8575 31.7562 32.8575 31.6305V30.9297C32.4432 31.0536 31.9556 31.1701 31.3928 31.2792C28.5003 31.832 25.6076 31.832 22.7151 31.2792C22.1505 31.1683 21.6646 31.0536 21.2487 30.9297V31.6305C21.2487 31.7562 21.2364 31.8801 21.2102 32.0039C21.1857 32.1278 21.1473 32.2461 21.0983 32.3608C21.0476 32.4754 20.9865 32.5826 20.9148 32.6843C20.8431 32.7842 20.7627 32.8766 20.6719 32.958C20.581 33.0393 20.4831 33.1114 20.3782 33.1706C20.2734 33.2298 20.1633 33.276 20.0479 33.3111C19.9343 33.3462 19.8172 33.3666 19.6983 33.3739C19.5795 33.3813 19.4607 33.3758 19.3436 33.3555C18.9765 33.3 18.6654 33.1281 18.412 32.8414C18.3333 32.7527 18.2477 32.6751 18.1515 32.6104C18.0554 32.5438 17.954 32.492 17.8439 32.455C17.7356 32.4181 17.6255 32.3959 17.5118 32.3885C17.3983 32.3811 17.2846 32.3885 17.1728 32.4125C17.061 32.4347 16.9543 32.4736 16.8512 32.5254C16.7481 32.5789 16.6537 32.6437 16.5663 32.7213C16.4789 32.8008 16.4038 32.8877 16.3373 32.9875C16.2727 33.0874 16.2202 33.1928 16.1801 33.3056C16.1451 33.4073 16.1206 33.5108 16.1067 33.618C16.0944 33.7253 16.0927 33.8325 16.1014 33.9398C16.1119 34.047 16.1328 34.1523 16.1643 34.2559C16.1975 34.3576 16.2395 34.4556 16.2936 34.5461C16.3461 34.6386 16.409 34.7236 16.4789 34.8013C16.5506 34.8789 16.6292 34.9455 16.7149 35.0047C16.8005 35.062 16.8914 35.11 16.9876 35.1452C17.0837 35.1822 17.1832 35.2062 17.2846 35.2192C17.5992 35.258 17.8894 35.1859 18.1533 35.001C18.4994 34.7644 18.8751 34.6774 19.2824 34.744L19.8504 34.8346C20.0462 34.8661 20.2297 34.9307 20.4027 35.0324C20.5757 35.1322 20.726 35.2635 20.8554 35.4207C20.9848 35.5797 21.0826 35.7572 21.1507 35.955C21.219 36.151 21.2521 36.3544 21.2504 36.5634V37.852C21.8097 38.0443 22.3795 38.1904 22.9597 38.2921C25.6897 38.8172 28.4199 38.8172 31.1499 38.2921C31.7301 38.1904 32.3 38.0443 32.8592 37.8539V36.556Z" fill="#4AB04A"/>
<path d="M22.7151 27.9427C21.621 27.7356 20.8222 27.4971 20.2717 27.2179C20.1528 27.1569 20.0584 27.0682 19.9885 26.9498C19.9168 26.8333 19.8819 26.704 19.8819 26.5653V24.7866C19.8819 24.7127 19.8591 24.6479 19.8137 24.5925C19.7683 24.5371 19.7106 24.5037 19.6424 24.4908L19.0762 24.3984C19.0115 24.3892 18.9503 24.402 18.8927 24.4372C18.7423 24.5407 18.585 24.6277 18.4172 24.6979C18.2512 24.7682 18.0799 24.8199 17.9034 24.8532C17.7269 24.8865 17.5485 24.9013 17.3703 24.8976C17.1903 24.8939 17.0137 24.8698 16.839 24.8292C16.6642 24.7884 16.4947 24.7293 16.3303 24.6517C16.1678 24.574 16.0123 24.4816 15.8655 24.3706C15.7204 24.2615 15.5858 24.1377 15.4635 23.999C15.3394 23.8603 15.231 23.7106 15.1366 23.5497C14.9199 23.1744 14.7905 22.7658 14.7487 22.3275C14.7067 21.8894 14.7574 21.4623 14.8989 21.0482C14.9373 20.9335 14.9846 20.8225 15.037 20.7135C15.0894 20.6044 15.1488 20.4991 15.2153 20.3992C15.2799 20.2975 15.3516 20.2014 15.4303 20.1107C15.5072 20.0202 15.5893 19.9351 15.6767 19.8556C15.7641 19.7743 15.8567 19.7021 15.9529 19.6337C16.049 19.5672 16.1504 19.5062 16.2535 19.4525C16.3566 19.3989 16.4632 19.3527 16.5733 19.3139C16.6834 19.2751 16.7935 19.2436 16.9071 19.2196C17.0207 19.1956 17.1344 19.1789 17.2497 19.1696C17.365 19.1622 17.4804 19.1604 17.5958 19.1678C17.7112 19.1752 17.8264 19.19 17.9401 19.214C18.0519 19.2362 18.1638 19.2658 18.2739 19.3047C18.384 19.3416 18.4906 19.3879 18.5955 19.4396C18.7003 19.4932 18.8 19.5524 18.8978 19.619C18.994 19.6855 19.0883 19.7576 19.1757 19.8371C19.2649 19.9148 19.3471 19.9998 19.4257 20.0905C19.4642 20.1237 19.5079 20.1441 19.5585 20.1496C19.6424 20.1681 19.7176 20.1477 19.784 20.0905C19.8504 20.0313 19.8836 19.9554 19.8836 19.863V18.1287C19.8836 18.0678 19.8906 18.0086 19.9064 17.9494C19.9203 17.8903 19.9413 17.8329 19.9693 17.7793C19.9972 17.7256 20.0305 17.6776 20.0689 17.6332C20.1091 17.5888 20.1528 17.55 20.2017 17.5186C20.2507 17.4853 20.3014 17.4595 20.3572 17.4409C20.4115 17.4225 20.4673 17.4113 20.525 17.4077C20.5827 17.4039 20.6404 17.4077 20.6964 17.4187C20.7523 17.4299 20.8065 17.4501 20.8589 17.4761C21.156 17.6258 21.7608 17.8513 22.9563 18.0806C25.6863 18.6039 28.4163 18.6039 31.1464 18.0806C32.3436 17.8513 32.9483 17.6258 33.2438 17.4761C33.2962 17.4501 33.3503 17.4317 33.4063 17.4206C33.4622 17.4077 33.5199 17.4039 33.5776 17.4077C33.6335 17.4113 33.6912 17.4243 33.7454 17.4428C33.7996 17.4613 33.852 17.4871 33.8992 17.5186C33.9481 17.5519 33.9918 17.5907 34.032 17.635C34.0722 17.6794 34.1054 17.7275 34.1334 17.7811C34.1614 17.8347 34.1823 17.8903 34.1963 17.9494C34.2103 18.0086 34.219 18.0678 34.219 18.1287V19.8593C34.2172 19.9499 34.2505 20.0257 34.3169 20.0849C34.3816 20.1477 34.4584 20.1699 34.5441 20.1533C34.5931 20.1477 34.6368 20.1274 34.6752 20.0941C34.7539 20.0035 34.836 19.9184 34.9251 19.839C35.0125 19.7595 35.1052 19.6855 35.203 19.619C35.3009 19.5524 35.4005 19.4932 35.5054 19.4396C35.6102 19.386 35.7169 19.3397 35.827 19.3028C35.9371 19.264 36.0489 19.2325 36.1643 19.2104C36.2779 19.1863 36.3915 19.1716 36.5086 19.1642C36.624 19.1568 36.7393 19.1568 36.8547 19.1642C36.9701 19.1734 37.0854 19.19 37.199 19.214C37.3126 19.2362 37.4245 19.2695 37.5346 19.3083C37.6447 19.3471 37.7513 19.3934 37.8544 19.447C37.9593 19.5006 38.0607 19.5616 38.1568 19.6282C38.2529 19.6966 38.3455 19.7705 38.4347 19.85C38.5221 19.9296 38.6043 20.0165 38.6811 20.1071C38.7598 20.1995 38.8315 20.2956 38.8961 20.3955C38.9626 20.4971 39.022 20.6026 39.0744 20.7116C39.1285 20.8207 39.174 20.9335 39.2142 21.0482C39.354 21.4642 39.4012 21.8894 39.3575 22.3275C39.3138 22.7658 39.1828 23.1725 38.9643 23.5479C38.8682 23.7087 38.7598 23.8567 38.6374 23.9953C38.5151 24.1321 38.3805 24.256 38.2337 24.3651C38.0869 24.4742 37.9331 24.5666 37.7688 24.6443C37.6063 24.7201 37.4367 24.7792 37.262 24.8218C37.0872 24.8624 36.9106 24.8846 36.7323 24.8883C36.5523 24.892 36.3758 24.8772 36.1993 24.844C36.0245 24.8106 35.8532 24.7589 35.6854 24.6886C35.5194 24.6184 35.3621 24.5333 35.2118 24.4298C35.1558 24.3928 35.0946 24.3798 35.03 24.391L34.462 24.4834C34.3938 24.4945 34.3361 24.5278 34.2925 24.5851C34.247 24.6405 34.2242 24.7053 34.2242 24.7792V26.556C34.2242 26.6966 34.1893 26.8241 34.1194 26.9424C34.0477 27.0608 33.9534 27.1495 33.8345 27.2087C33.2857 27.4879 32.487 27.7246 31.3928 27.9353C29.9579 28.209 28.5107 28.3477 27.0531 28.3477C25.5954 28.3495 24.15 28.2145 22.7151 27.9427ZM32.8575 24.7866C32.8558 24.5777 32.8889 24.3744 32.9571 24.1783C33.0253 23.9824 33.1249 23.8049 33.2525 23.6458C33.3819 23.4869 33.5321 23.3574 33.7052 23.2558C33.8782 23.1559 34.0617 23.0893 34.2575 23.0597L34.8273 22.9692C35.2362 22.8989 35.6138 22.984 35.9615 23.2206C36.2273 23.4073 36.5173 23.4795 36.8337 23.4425C36.9962 23.4221 37.1483 23.3722 37.2934 23.2908C37.4385 23.2114 37.5643 23.1079 37.6744 22.9802C37.7828 22.8508 37.8666 22.7067 37.9261 22.5458C37.9855 22.3849 38.017 22.2185 38.0187 22.0465C38.0205 21.8728 37.9943 21.7064 37.9383 21.5437C37.8824 21.381 37.802 21.2349 37.6954 21.1036C37.5905 20.9724 37.4665 20.8651 37.3231 20.7819C37.1797 20.6968 37.0277 20.6432 36.8669 20.6192C36.6484 20.5859 36.4352 20.6081 36.229 20.6876C36.0209 20.7671 35.8444 20.8947 35.6976 21.0685C35.4442 21.355 35.1366 21.5252 34.7713 21.5825C34.6525 21.6009 34.5354 21.6083 34.4166 21.6009C34.2976 21.5935 34.1805 21.5733 34.0652 21.5381C33.9499 21.5048 33.8415 21.4568 33.7349 21.3976C33.63 21.3384 33.5321 21.2681 33.4413 21.1868C33.3521 21.1036 33.2699 21.013 33.1983 20.9132C33.1267 20.8115 33.0654 20.7042 33.0148 20.5896C32.9659 20.4749 32.9274 20.3566 32.9012 20.2328C32.8767 20.1089 32.8628 19.985 32.8628 19.8593V19.1586C32.4503 19.2825 31.9643 19.3971 31.3981 19.5043C28.5055 20.0609 25.6146 20.0609 22.7221 19.5043C22.1558 19.3971 21.6698 19.2825 21.2557 19.1586V19.8593C21.2557 19.985 21.2434 20.1089 21.2172 20.2328C21.1927 20.3566 21.1543 20.4749 21.1053 20.5896C21.0547 20.7042 20.9935 20.8115 20.9218 20.9132C20.8502 21.013 20.7698 21.1055 20.6788 21.1868C20.588 21.2681 20.4901 21.3403 20.3852 21.3994C20.2804 21.4586 20.1703 21.5048 20.0549 21.5399C19.9395 21.5733 19.8242 21.5935 19.7036 21.6009C19.5847 21.6083 19.4676 21.6029 19.3488 21.5825C18.9782 21.5289 18.6654 21.3588 18.4102 21.0685C18.3316 20.9798 18.2459 20.9039 18.1498 20.8393C18.0537 20.7727 17.9505 20.7209 17.8422 20.684C17.7339 20.647 17.6219 20.6248 17.5084 20.6174C17.3947 20.61 17.2812 20.6174 17.1693 20.6414C17.0574 20.6654 16.9508 20.7024 16.8477 20.756C16.7446 20.8078 16.6502 20.8743 16.5628 20.952C16.4754 21.0296 16.4003 21.1184 16.3339 21.2183C16.2692 21.3162 16.2168 21.4234 16.1765 21.5363C16.1416 21.6379 16.1171 21.7415 16.1031 21.8487C16.091 21.9559 16.0891 22.0632 16.0997 22.1704C16.1084 22.2777 16.1294 22.3831 16.1625 22.4866C16.1941 22.5883 16.2378 22.6863 16.2902 22.7769C16.3443 22.8693 16.4073 22.9544 16.4772 23.032C16.5488 23.1079 16.6275 23.1762 16.7131 23.2354C16.7988 23.2928 16.8897 23.3408 16.9858 23.3759C17.0819 23.4129 17.1815 23.4369 17.2829 23.4499C17.5975 23.4887 17.8894 23.4147 18.1533 23.2298C18.4994 22.9932 18.8751 22.9082 19.2807 22.9747L19.8487 23.0653C20.0444 23.0967 20.228 23.1615 20.4009 23.2632C20.574 23.363 20.7243 23.4943 20.8536 23.6514C20.983 23.8104 21.0809 23.9879 21.149 24.1857C21.2172 24.3818 21.2504 24.5833 21.2487 24.794V26.0827C21.8079 26.275 22.3777 26.4211 22.958 26.5227C25.688 27.0478 28.4181 27.0478 31.1482 26.5227C31.7284 26.4229 32.2982 26.275 32.8575 26.0827V24.7866Z" fill="#4AB04A"/>
<mask id="mask0_11645_295" style="mask-type:luminance" maskUnits="userSpaceOnUse" x="14" y="5" width="26" height="12">
<path d="M14.6719 5.57812H39.7282V16.568H14.6719V5.57812Z" fill="white"/>
</mask>
<g mask="url(#mask0_11645_295)">
<path d="M22.7184 16.1554C21.6224 15.9484 20.8237 15.7118 20.275 15.4326C20.156 15.3716 20.0617 15.2828 19.9918 15.1645C19.9201 15.048 19.8851 14.9186 19.8851 14.7799V12.9939C19.8851 12.9199 19.8624 12.8552 19.817 12.7998C19.7716 12.7424 19.7139 12.711 19.6457 12.6999L19.0776 12.6075C19.013 12.5963 18.9518 12.6093 18.896 12.6463C18.7526 12.7461 18.6005 12.8293 18.4415 12.8977C18.2824 12.9643 18.1199 13.0161 17.9504 13.053C17.7826 13.0882 17.6131 13.1048 17.4417 13.1066C17.2705 13.1085 17.0992 13.0918 16.9314 13.0586C16.7636 13.0253 16.5993 12.9753 16.4385 12.9088C16.2795 12.8422 16.1274 12.7608 15.9823 12.6647C15.8372 12.5667 15.701 12.4577 15.5769 12.3338C15.451 12.2081 15.3374 12.0731 15.2378 11.927C15.1364 11.7791 15.049 11.6238 14.9756 11.4593C14.9039 11.2947 14.8445 11.1246 14.8025 10.949C14.7607 10.7733 14.7344 10.594 14.724 10.4128C14.7134 10.2316 14.7187 10.0504 14.7414 9.86923C14.7624 9.6899 14.8008 9.51241 14.855 9.34039C14.9075 9.16847 14.9773 9.00203 15.0595 8.84306C15.1434 8.68406 15.2395 8.53614 15.3514 8.39562C15.4615 8.25696 15.5821 8.12938 15.715 8.01476C15.8478 7.90012 15.9893 7.80028 16.1414 7.71338C16.2917 7.62649 16.449 7.55623 16.6133 7.50261C16.7758 7.44714 16.9436 7.41016 17.1131 7.38982C17.2845 7.36763 17.454 7.36394 17.6252 7.37688C17.7966 7.39168 17.9644 7.42126 18.1304 7.46933C18.2964 7.51555 18.4555 7.58026 18.6111 7.65977C18.7649 7.73927 18.9099 7.83356 19.0479 7.94264C19.1843 8.04988 19.3119 8.17191 19.4272 8.30688C19.4657 8.34017 19.5094 8.3605 19.5601 8.36605C19.6457 8.38269 19.7209 8.36234 19.7873 8.30319C19.8537 8.24402 19.8869 8.16822 19.8869 8.07577V6.33964C19.8869 6.27863 19.8939 6.21762 19.9097 6.15846C19.9236 6.09929 19.9446 6.04382 19.9725 5.99021C20.0005 5.93659 20.0338 5.88852 20.0722 5.84414C20.1123 5.79977 20.156 5.76094 20.205 5.72766C20.254 5.69623 20.3047 5.67034 20.3605 5.65185C20.4148 5.63336 20.4706 5.62227 20.5283 5.61858C20.586 5.61488 20.6437 5.61858 20.6996 5.62966C20.7555 5.64076 20.8098 5.65925 20.8622 5.68699C21.1593 5.83675 21.7641 6.06231 22.9596 6.29158C25.6896 6.81482 28.4196 6.81482 31.1497 6.29158C32.3452 6.06231 32.9499 5.83675 33.2471 5.68699C33.2995 5.6611 33.3536 5.64261 33.4096 5.62966C33.4655 5.61858 33.5232 5.61488 33.5808 5.61858C33.6368 5.62227 33.6945 5.63336 33.7486 5.65371C33.8028 5.67219 33.8553 5.69808 33.9025 5.72951C33.9514 5.76279 33.9951 5.80162 34.0353 5.84414C34.0755 5.88852 34.1087 5.93843 34.1367 5.99205C34.1647 6.04382 34.1856 6.10114 34.1996 6.1603C34.2135 6.21762 34.2223 6.27863 34.2223 6.33964V8.06837C34.2223 8.11275 34.2311 8.15527 34.2468 8.19409C34.2642 8.23477 34.2888 8.26805 34.3202 8.29579C34.3516 8.32537 34.3866 8.34386 34.4268 8.3568C34.467 8.3679 34.5071 8.36975 34.5474 8.36235C34.5981 8.35865 34.6401 8.33831 34.6785 8.30503C34.7571 8.21444 34.8393 8.12938 34.9284 8.04988C35.0158 7.97038 35.1084 7.89643 35.2063 7.82986C35.3042 7.7633 35.4038 7.70229 35.5087 7.65052C35.6135 7.5969 35.7202 7.55068 35.8303 7.51185C35.9404 7.47487 36.0522 7.44345 36.1676 7.4194C36.2812 7.39722 36.3948 7.38243 36.5119 7.37503C36.6273 7.36763 36.7426 7.36763 36.858 7.37503C36.9734 7.38428 37.0886 7.39907 37.2023 7.4231C37.3158 7.44714 37.4278 7.47857 37.5379 7.51925C37.648 7.55807 37.7546 7.6043 37.8577 7.65792C37.9626 7.71153 38.0639 7.77255 38.1601 7.83911C38.2562 7.90752 38.3488 7.98148 38.438 8.06098C38.5253 8.14048 38.6076 8.22737 38.6844 8.31798C38.7631 8.40857 38.8348 8.50472 38.8994 8.60641C38.9658 8.70809 39.0253 8.81348 39.0777 8.92256C39.1318 9.03163 39.1773 9.14445 39.2175 9.25909C39.3119 9.54009 39.3661 9.8304 39.3748 10.1299C39.3853 10.4294 39.3521 10.7234 39.2752 11.01C39.1983 11.2984 39.0811 11.5665 38.9256 11.8161C38.7683 12.0657 38.5813 12.2839 38.3594 12.4706C38.1391 12.6573 37.8962 12.8034 37.6323 12.9088C37.3684 13.0161 37.0956 13.077 36.8125 13.0918C36.5311 13.1066 36.2533 13.077 35.9805 12.9994C35.7079 12.9236 35.4527 12.8034 35.2151 12.6425C35.1591 12.6055 35.0979 12.5907 35.0333 12.6037L34.4653 12.6962C34.397 12.7073 34.3394 12.7387 34.2939 12.796C34.2502 12.8515 34.2275 12.9162 34.2275 12.9901V14.7688C34.2275 14.9093 34.1926 15.0369 34.1227 15.1552C34.051 15.2735 33.9566 15.3623 33.8378 15.4214C33.2889 15.7006 32.4902 15.9373 31.3961 16.1444C29.9612 16.4199 28.514 16.5586 27.0563 16.5586C25.5987 16.5604 24.1533 16.4273 22.7184 16.1554ZM32.8608 12.9994C32.8591 12.7904 32.8922 12.5889 32.9604 12.3912C33.0286 12.1951 33.1281 12.0176 33.2558 11.8587C33.3851 11.7014 33.5354 11.572 33.7085 11.4703C33.8815 11.3705 34.065 11.304 34.2608 11.2744L34.8288 11.1838C35.2378 11.1117 35.6171 11.1949 35.9648 11.4315C36.2305 11.6182 36.5206 11.6904 36.837 11.6497C36.9995 11.6312 37.1533 11.5813 37.2984 11.5018C37.4435 11.4241 37.571 11.3188 37.6812 11.1912C37.7913 11.0617 37.8752 10.9176 37.9346 10.7567C37.994 10.5958 38.0255 10.4276 38.0272 10.2556C38.029 10.0818 38.0028 9.91362 37.9468 9.75275C37.8909 9.59006 37.8088 9.44207 37.7039 9.31079C37.5973 9.17952 37.4715 9.07237 37.3281 8.98915C37.1849 8.90593 37.0328 8.85416 36.8702 8.83012C36.6517 8.79499 36.4385 8.81718 36.2323 8.89668C36.0242 8.978 35.8477 9.10562 35.7009 9.27937C35.4475 9.56594 35.1399 9.73613 34.7746 9.7934C34.6558 9.81185 34.5387 9.81925 34.4198 9.81185C34.3009 9.80445 34.1838 9.78418 34.0685 9.74901C33.9532 9.71576 33.8448 9.66771 33.7382 9.60851C33.6333 9.54931 33.5354 9.47906 33.4445 9.39584C33.3554 9.31454 33.2732 9.22392 33.2016 9.12225C33.13 9.0224 33.0687 8.91517 33.018 8.80054C32.9692 8.68591 32.9306 8.56573 32.9045 8.4437C32.88 8.31982 32.8661 8.19595 32.8661 8.06837V7.36763C32.4535 7.49152 31.9642 7.608 31.4014 7.71523C28.5087 8.27175 25.6179 8.27175 22.7253 7.71523C22.1591 7.608 21.6731 7.49152 21.2589 7.36763V8.06837C21.2589 8.19595 21.2467 8.31982 21.2205 8.4437C21.196 8.56757 21.1576 8.68591 21.1086 8.80054C21.0579 8.91517 20.9968 9.0224 20.9251 9.12407C20.8534 9.22392 20.7731 9.31637 20.6821 9.39776C20.5913 9.47906 20.4934 9.54931 20.3885 9.61033C20.2837 9.66953 20.1736 9.71576 20.0582 9.74901C19.9428 9.78418 19.8275 9.80445 19.7069 9.81185C19.588 9.81925 19.4709 9.81185 19.3521 9.7934C18.9815 9.73978 18.6687 9.56786 18.4135 9.27754C18.3401 9.1925 18.258 9.1186 18.1671 9.05565C18.0762 8.9928 17.9801 8.9411 17.8787 8.90223C17.7773 8.86341 17.6725 8.83752 17.5641 8.82643C17.4557 8.81533 17.3492 8.81718 17.2408 8.83197C17.1341 8.84861 17.0293 8.87819 16.9296 8.92072C16.8283 8.9632 16.7339 9.01683 16.6465 9.08342C16.5574 9.15185 16.4787 9.22767 16.4088 9.31454C16.3372 9.40324 16.2777 9.49761 16.2288 9.59928C16.1798 9.70278 16.1448 9.81003 16.1204 9.92093C16.096 10.0337 16.0837 10.1466 16.0872 10.2612C16.089 10.3777 16.103 10.4904 16.1309 10.6014C16.1588 10.7123 16.1974 10.8177 16.2498 10.9194C16.3022 11.0192 16.3651 11.1117 16.4367 11.1967C16.5102 11.2818 16.5923 11.3557 16.6832 11.4205C16.7723 11.4833 16.8685 11.5351 16.9716 11.5739C17.073 11.6127 17.1778 11.6386 17.2862 11.6497C17.6008 11.6904 17.8909 11.6182 18.1548 11.4315C18.5009 11.1949 18.8784 11.1117 19.2839 11.1764L19.852 11.2688C20.0477 11.2984 20.2313 11.3631 20.4042 11.4649C20.5773 11.5646 20.7276 11.694 20.8569 11.8531C20.9863 12.012 21.0842 12.1895 21.1523 12.3856C21.2205 12.5815 21.2537 12.785 21.252 12.9939V14.2954C21.8112 14.4877 22.381 14.6338 22.9613 14.7355C25.6913 15.2587 28.4214 15.2587 31.1514 14.7355C31.7317 14.6356 32.3015 14.4877 32.8608 14.2954V12.9994Z" fill="#4AB04A"/>
</g>
</svg>
