<svg width="50" height="45" viewBox="0 0 50 45" fill="none" xmlns="http://www.w3.org/2000/svg">
<path opacity="0.8" d="M11.5518 18.8193C14.3938 18.8193 16.7029 21.1331 16.7031 23.9854C16.7031 26.1859 15.326 28.068 13.3896 28.8125H14.9297C15.2864 28.8126 15.5762 29.1025 15.5762 29.4609C15.5762 29.8211 15.2864 30.1113 14.9297 30.1113H7.69824V31.499H15.5879L17.6914 25.1709C17.779 24.9052 18.0279 24.7246 18.3057 24.7246H49.2227V26.0254H18.7734L16.6738 32.3428C16.6704 32.3511 16.6685 32.3578 16.665 32.3662L14.9277 37.5947C14.7374 38.1677 14.9964 38.7942 15.5332 39.0635L16.791 39.6943C17.0928 39.8451 17.4445 39.8623 17.7617 39.7422C18.0772 39.6221 18.329 39.3731 18.4541 39.0576C19.7338 35.8484 22.207 29.6494 22.207 29.6494C22.3391 29.3166 22.7171 29.1543 23.0498 29.2881C23.3823 29.422 23.5439 29.7994 23.4102 30.1338L22.8662 31.499H49.2227V32.7988H22.3467L19.6572 39.542C19.3981 40.1954 18.8761 40.7084 18.2227 40.957C17.5675 41.2073 16.8368 41.1711 16.2109 40.8555C15.7942 40.6463 15.3529 40.4263 14.9531 40.2256C13.8385 39.6664 13.3037 38.3694 13.6982 37.1826L15.1562 32.7988H1.42188C1.06338 32.7988 0.773438 32.507 0.773438 32.1484C0.773578 31.7902 1.06347 31.499 1.42188 31.499H6.40137V29.4609C6.40139 29.1024 6.69134 28.8125 7.0498 28.8125H9.71484C7.77846 28.0681 6.40137 26.1859 6.40137 23.9854C6.40161 21.1333 8.70988 18.8196 11.5518 18.8193ZM11.5518 20.1191C9.42514 20.1194 7.69849 21.852 7.69824 23.9854C7.69824 26.119 9.42498 27.8503 11.5518 27.8506C13.6786 27.8506 15.4062 26.1191 15.4062 23.9854C15.406 21.8518 13.6785 20.1191 11.5518 20.1191ZM34.3379 12.6973C35.089 12.2292 35.9947 12.08 36.8555 12.2822C37.7166 12.4847 38.4632 13.0235 38.9297 13.7764C40.3202 16.0269 42.2385 19.1292 42.2588 19.1621C42.2982 19.2256 42.3254 19.2946 42.3408 19.3682L43.1133 22.9824C43.1886 23.3321 42.9639 23.6783 42.6143 23.7539C42.2644 23.8277 41.9195 23.6046 41.8457 23.2529L41.0977 19.751L37.8281 14.4609C37.5434 14.0012 37.0872 13.6723 36.5605 13.5488C36.034 13.4254 35.4802 13.5144 35.0205 13.8008L31.6621 15.8896L27.3428 21.3906C27.1851 21.5896 27.1562 21.862 27.2676 22.0918C27.3791 22.3215 27.6105 22.4678 27.8643 22.4678H28.3633C28.5588 22.4678 28.7441 22.3819 28.8711 22.2344C29.9619 20.9472 32.9521 17.4241 32.9805 17.3906C33.1194 17.226 33.3324 17.1421 33.5469 17.166C33.7612 17.1901 33.9484 17.3207 34.0479 17.5127L36.8027 22.8174C36.9673 23.1348 36.8437 23.528 36.5264 23.6943C36.2091 23.859 35.8177 23.7353 35.6514 23.418L33.3428 18.9688L29.8574 23.0752C29.4851 23.5143 28.9395 23.7676 28.3633 23.7676H27.8643C27.1148 23.7676 26.4285 23.3376 26.1025 22.6602C25.7732 21.9826 25.8611 21.1758 26.3242 20.584C28.1102 18.3097 30.6895 15.0259 30.7129 14.9961C30.7592 14.936 30.8167 14.8858 30.8818 14.8447C30.9155 14.8238 32.7505 13.683 34.3379 12.6973ZM28.207 3.88281C31.0492 3.88281 33.3584 6.19702 33.3584 9.04785C33.3582 11.8984 31.0491 14.2119 28.207 14.2119C25.3651 14.2117 23.0568 11.8983 23.0566 9.04785C23.0566 6.19714 25.365 3.88301 28.207 3.88281ZM28.207 5.18164C26.0802 5.18184 24.3535 6.9142 24.3535 9.04785C24.3537 11.1814 26.0803 12.9139 28.207 12.9141C30.3356 12.9141 32.0614 11.1815 32.0615 9.04785C32.0615 6.91408 30.3357 5.18164 28.207 5.18164Z" fill="#4AB04A"/>
</svg>
