<svg width="46" height="42" viewBox="0 0 46 42" fill="none" xmlns="http://www.w3.org/2000/svg">
<g opacity="0.8">
<mask id="mask0_11645_322" style="mask-type:luminance" maskUnits="userSpaceOnUse" x="0" y="21" width="46" height="13">
<path d="M0.476562 21.2812H45.2482V33.1368H0.476562V21.2812Z" fill="white"/>
</mask>
<g mask="url(#mask0_11645_322)">
<path d="M44.5485 33.1378H39.3304C39.0479 33.1378 38.819 32.9101 38.819 32.6285V27.8893H6.72531V32.6285C6.72531 32.9101 6.49542 33.1378 6.21384 33.1378H0.995845C0.714271 33.1378 0.484375 32.9101 0.484375 32.6285V21.8687C0.484375 21.5872 0.714271 21.3594 0.995845 21.3594H44.5485C44.83 21.3594 45.0589 21.5872 45.0589 21.8687V32.6285C45.0589 32.9101 44.83 33.1378 44.5485 33.1378ZM39.8419 32.1191H44.037V22.3782H1.50731V32.1191H5.70238V27.3799C5.70238 27.0984 5.93122 26.8706 6.21384 26.8706H39.3304C39.6131 26.8706 39.8419 27.0984 39.8419 27.3799V32.1191Z" fill="#4AB04A"/>
</g>
<path d="M39.3297 30.3162H35.7231C35.5174 30.3162 35.3318 30.1928 35.2517 30.003L34.2308 27.5733C34.1223 27.3139 34.2456 27.0144 34.5061 26.9068C34.7656 26.7982 35.0661 26.9205 35.1747 27.1799L36.0637 29.2975H39.3297C39.6123 29.2975 39.8411 29.5253 39.8411 29.8069C39.8411 30.0874 39.6123 30.3162 39.3297 30.3162Z" fill="#4AB04A"/>
<path d="M9.82124 30.3162H6.21459C5.93196 30.3162 5.70312 30.0874 5.70312 29.8069C5.70312 29.5253 5.93196 29.2975 6.21459 29.2975H9.4806L10.3696 27.1799C10.4782 26.9205 10.7777 26.7982 11.0382 26.9068C11.2986 27.0144 11.4221 27.3139 11.3124 27.5733L10.2926 30.003C10.2125 30.1928 10.0268 30.3162 9.82124 30.3162Z" fill="#4AB04A"/>
<path d="M27.5442 22.3757C27.2627 22.3757 27.0338 22.1468 27.0338 21.8663V20.8138C27.0338 20.0693 26.4338 19.464 25.6966 19.464H11.9841C11.2469 19.464 10.6469 20.0693 10.6469 20.8138V21.8663C10.6469 22.1468 10.418 22.3757 10.1365 22.3757C9.85384 22.3757 9.625 22.1468 9.625 21.8663V20.8138C9.625 19.5072 10.6838 18.4453 11.9841 18.4453H25.6966C26.998 18.4453 28.0557 19.5072 28.0557 20.8138V21.8663C28.0557 22.1468 27.8269 22.3757 27.5442 22.3757Z" fill="#4AB04A"/>
<path d="M31.4718 22.3762C31.3579 22.3762 31.2429 22.3382 31.148 22.2602C30.9297 22.082 30.8981 21.7614 31.0763 21.5431L40.1024 10.5767C40.2806 10.3594 40.6033 10.3278 40.8215 10.506C41.0399 10.6842 41.0715 11.0059 40.8922 11.2231L31.8673 22.1896C31.7659 22.3119 31.6194 22.3762 31.4718 22.3762Z" fill="#4AB04A"/>
<path d="M35.5067 22.3758C35.3928 22.3758 35.2779 22.3378 35.183 22.2598C34.9647 22.0816 34.933 21.761 35.1123 21.5427L42.4974 12.5693C42.6767 12.3521 42.9984 12.3194 43.2167 12.4987C43.435 12.677 43.4676 12.9975 43.2884 13.2158L35.9022 22.1891C35.802 22.3114 35.6554 22.3758 35.5067 22.3758Z" fill="#4AB04A"/>
<mask id="mask1_11645_322" style="mask-type:luminance" maskUnits="userSpaceOnUse" x="39" y="7" width="7" height="7">
<path d="M39.8516 7.84375H45.5209V13.4561H39.8516V7.84375Z" fill="white"/>
</mask>
<g mask="url(#mask1_11645_322)">
<path d="M42.7164 13.4155C42.0784 13.4155 41.4657 13.194 40.968 12.7796C39.8048 11.8104 39.6413 10.0705 40.6041 8.89987C41.0724 8.33039 41.7336 7.97923 42.4655 7.91064C43.1973 7.84214 43.9102 8.06362 44.4744 8.53394C45.6387 9.5031 45.8021 11.2431 44.8382 12.4137C44.37 12.9831 43.7088 13.3343 42.9769 13.4029C42.8894 13.4113 42.8029 13.4155 42.7164 13.4155ZM42.7249 8.91781C42.67 8.91781 42.6162 8.91987 42.5614 8.92516C42.1037 8.96838 41.6893 9.18885 41.3951 9.54632C40.7855 10.2855 40.8889 11.3855 41.6239 11.9982C41.9772 12.2924 42.4243 12.4316 42.8809 12.3884C43.3397 12.3452 43.7542 12.1247 44.0484 11.7672C44.6569 11.028 44.5545 9.92806 43.8195 9.31535C43.5074 9.05594 43.1235 8.91781 42.7249 8.91781Z" fill="#4AB04A"/>
</g>
<path d="M42.3279 11.1262C42.0664 10.9078 42.0305 10.5176 42.2467 10.2551C42.4629 9.99249 42.851 9.95559 43.1125 10.1728C43.3729 10.39 43.4098 10.7813 43.1937 11.0439C42.9775 11.3065 42.5894 11.3434 42.3279 11.1262Z" fill="#4AB04A"/>
<path d="M44.5492 22.3773C44.2665 22.3773 44.0377 22.1485 44.0377 21.868V18.8636H38.402C38.1195 18.8636 37.8906 18.6347 37.8906 18.3531C37.8906 18.0726 38.1195 17.8438 38.402 17.8438H44.5492C44.8307 17.8438 45.0596 18.0726 45.0596 18.3531V21.868C45.0596 22.1485 44.8307 22.3773 44.5492 22.3773Z" fill="#4AB04A"/>
<path d="M6.21092 22.3807C5.92829 22.3807 5.69945 22.1518 5.69945 21.8713V15.9004C5.69945 15.3193 5.23227 14.8468 4.65753 14.8468C4.08279 14.8468 3.61562 15.3193 3.61562 15.9004V21.8713C3.61562 22.1518 3.38679 22.3807 3.10416 22.3807C2.82259 22.3807 2.59375 22.1518 2.59375 21.8713V15.9004C2.59375 14.7572 3.51966 13.8281 4.65753 13.8281C5.79541 13.8281 6.72238 14.7572 6.72238 15.9004V21.8713C6.72238 22.1518 6.49248 22.3807 6.21092 22.3807Z" fill="#4AB04A"/>
</g>
</svg>
