<svg width="50" height="45" viewBox="0 0 50 45" fill="none" xmlns="http://www.w3.org/2000/svg">
<mask id="mask0_11645_348" style="mask-type:luminance" maskUnits="userSpaceOnUse" x="3" y="25" width="34" height="16">
<path d="M3.72656 25.6016H36.4319V40.8096H3.72656V25.6016Z" fill="white"/>
</mask>
<g mask="url(#mask0_11645_348)">
<path d="M11.1421 40.8111C7.34646 40.8111 4.04491 38.2708 3.90601 38.1627C3.76044 38.0478 3.73372 37.8368 3.84859 37.6912C3.96344 37.5443 4.17446 37.5189 4.32137 37.6324C4.35343 37.6578 7.58284 40.1393 11.1421 40.1393C12.7087 40.1393 17.1281 38.5246 22.9645 35.82C27.9636 33.5029 32.5578 31.0347 33.4233 30.2027C35.1675 28.5225 35.7579 26.0811 35.7632 26.0571C35.806 25.8755 35.9863 25.7633 36.1679 25.806C36.3482 25.8487 36.4617 26.029 36.419 26.2093C36.3936 26.3162 35.782 28.8657 33.8908 30.6862C32.8357 31.7012 27.6203 34.403 23.2477 36.4291C20.4042 37.7473 13.5341 40.8111 11.1421 40.8111Z" fill="#4AB04A" stroke="#4AB04A" stroke-width="0.391951"/>
</g>
<mask id="mask1_11645_348" style="mask-type:luminance" maskUnits="userSpaceOnUse" x="3" y="19" width="25" height="14">
<path d="M3.72656 19.4453H27.8842V32.0958H3.72656V19.4453Z" fill="white"/>
</mask>
<g mask="url(#mask1_11645_348)">
<path d="M10.122 31.9866C9.78935 31.9866 9.47285 31.8491 9.24444 31.602C8.81304 31.1359 8.1279 30.5229 7.31322 30.2557C5.7533 29.7415 4.18535 29.9926 4.16932 29.9953C3.98635 30.026 3.81273 29.9018 3.78201 29.7188C3.75129 29.5359 3.8755 29.3623 4.05848 29.3315C4.12926 29.3195 5.80005 29.0497 7.52428 29.6173C8.47516 29.9299 9.25382 30.6217 9.74 31.1466C9.84816 31.2641 10.003 31.3242 10.1633 31.3121C10.3236 31.3001 10.4678 31.2173 10.5573 31.0851C11.0956 30.2918 11.9811 29.1846 13.151 28.418C13.8401 27.9653 14.6788 27.5886 15.6418 27.3001C16.8398 26.9395 17.7801 26.0754 18.2222 24.9282C18.6695 23.7622 19.4963 22.1862 20.8893 21.2968C23.4495 19.6621 27.0676 19.7248 27.2212 19.7275C27.4068 19.7315 27.5537 19.885 27.5498 20.0707C27.5457 20.2563 27.3921 20.4033 27.2051 20.3993C27.1704 20.398 23.6379 20.3391 21.2526 21.8631C20.0145 22.6537 19.2625 24.0975 18.8499 25.1686C18.3343 26.5121 17.2352 27.5232 15.8355 27.9439C14.9353 28.2136 14.1553 28.5622 13.5209 28.9789C12.4444 29.6854 11.6191 30.7192 11.1156 31.4618C10.9086 31.7649 10.5813 31.9546 10.2141 31.9827C10.1834 31.9853 10.1526 31.9866 10.122 31.9866Z" fill="#4AB04A" stroke="#4AB04A" stroke-width="0.391951"/>
</g>
<mask id="mask2_11645_348" style="mask-type:luminance" maskUnits="userSpaceOnUse" x="3" y="12" width="44" height="7">
<path d="M3.72656 12.9453H46.2723V18.7577H3.72656V12.9453Z" fill="white"/>
</mask>
<g mask="url(#mask2_11645_348)">
<path d="M16.6328 18.4499C15.6805 18.4499 14.7977 17.9744 14.2688 17.1784C13.5863 16.15 12.1266 14.3697 10.0257 13.9998C6.85243 13.4388 4.34023 15.2632 4.31486 15.2819C4.16527 15.3927 3.95425 15.3607 3.8434 15.2125C3.73254 15.0628 3.7646 14.8519 3.91418 14.7423C4.02503 14.6595 6.68682 12.7283 10.1433 13.3373C12.3736 13.7313 13.9242 15.4422 14.8311 16.8071C15.2344 17.4148 15.9063 17.7768 16.6301 17.7768C17.0601 17.7768 17.4755 17.6512 17.8348 17.4108C19.2277 16.4812 22.9286 14.2816 27.1864 13.9477C32.5313 13.5296 45.4329 17.4441 45.9791 17.6111C46.1567 17.6659 46.2569 17.8528 46.2035 18.0305C46.1488 18.2082 45.9604 18.3082 45.7828 18.2536C45.6493 18.2135 32.4565 14.2094 27.2398 14.6181C23.1396 14.9386 19.5576 17.0689 18.2087 17.9704C17.7386 18.2842 17.1937 18.4499 16.6328 18.4499Z" fill="#4AB04A" stroke="#4AB04A" stroke-width="0.391951"/>
</g>
<path d="M37.3228 9.9759C37.2494 9.9759 37.1759 9.96924 37.1012 9.95714C36.7392 9.89973 36.4214 9.7034 36.2063 9.40689C35.9913 9.11047 35.9045 8.74717 35.9632 8.38519L36.3105 6.23231C36.4307 5.48441 37.1372 4.97553 37.8865 5.0957C38.2484 5.15319 38.5663 5.34952 38.7813 5.64595C38.9963 5.94377 39.0831 6.30576 39.0243 6.66765L38.6771 8.82193C38.6183 9.18392 38.422 9.50041 38.1255 9.71541C37.8878 9.88641 37.61 9.9759 37.3228 9.9759ZM37.6674 5.75016C37.3295 5.75016 37.0303 5.99452 36.9756 6.33783L36.6284 8.49203C36.5989 8.67635 36.643 8.86199 36.7526 9.01292C36.8621 9.16516 37.0237 9.26403 37.2093 9.29339C37.3936 9.32415 37.5793 9.28007 37.7302 9.17051C37.8824 9.06103 37.9826 8.89941 38.012 8.71509L38.3592 6.56081C38.4207 6.18024 38.1602 5.82098 37.7796 5.75954C37.7409 5.75279 37.7035 5.75016 37.6674 5.75016Z" fill="#4AB04A" stroke="#4AB04A" stroke-width="0.391951"/>
<path d="M35.8906 15.3693L36.8269 9.57031L37.4919 9.67715L36.5557 15.4762L35.8906 15.3693Z" fill="#4AB04A" stroke="#4AB04A" stroke-width="0.391951"/>
<path d="M42.4618 11.0683C42.3896 11.0683 42.3162 11.0629 42.2413 11.0509C41.4934 10.9307 40.9832 10.2255 41.1035 9.47896L41.4508 7.32468C41.5709 6.5781 42.2788 6.06922 43.0267 6.18947C43.3886 6.24688 43.7064 6.44321 43.9215 6.73972C44.1365 7.03614 44.2233 7.39944 44.1646 7.76143L43.8173 9.91571C43.7092 10.5888 43.1242 11.0683 42.4618 11.0683ZM42.3496 10.3871C42.7315 10.4485 43.0908 10.1894 43.1523 9.80878L43.4995 7.65458C43.5609 7.27393 43.3005 6.91466 42.9198 6.85322C42.7355 6.82246 42.5499 6.86655 42.3976 6.97611C42.2454 7.08558 42.1452 7.2472 42.1158 7.43152L41.7686 9.5858C41.7392 9.77013 41.7833 9.95576 41.8928 10.1067C42.0023 10.2575 42.1639 10.3577 42.3496 10.3871Z" fill="#4AB04A" stroke="#4AB04A" stroke-width="0.391951"/>
<path d="M41 16.6137L41.9589 10.6719L42.624 10.7787L41.6651 16.7206L41 16.6137Z" fill="#4AB04A" stroke="#4AB04A" stroke-width="0.391951"/>
<mask id="mask3_11645_348" style="mask-type:luminance" maskUnits="userSpaceOnUse" x="30" y="4" width="4" height="6">
<path d="M30.2773 4.1875H33.6964V9.87217H30.2773V4.1875Z" fill="white"/>
</mask>
<g mask="url(#mask3_11645_348)">
<path d="M31.9701 9.64723C31.938 9.64723 31.9073 9.64592 31.8753 9.6432C31.508 9.61919 31.1741 9.45353 30.9324 9.17709C30.6906 8.90065 30.5718 8.54805 30.5971 8.18212L30.7454 6.00514C30.7975 5.25058 31.4532 4.67895 32.2105 4.7297C32.5764 4.75503 32.9117 4.92068 33.1534 5.19712C33.3938 5.47356 33.5127 5.82616 33.4886 6.19209L33.3391 8.36776C33.315 8.73369 33.1481 9.06762 32.8716 9.30795C32.6192 9.52839 32.3026 9.64723 31.9701 9.64723ZM32.1157 5.3988C31.9461 5.3988 31.7845 5.45892 31.6562 5.57111C31.5147 5.69399 31.4305 5.8649 31.4171 6.05054L31.2689 8.22752C31.2569 8.41448 31.317 8.59477 31.4398 8.735C31.5627 8.87524 31.7337 8.96078 31.9207 8.97279C32.1076 8.98611 32.2879 8.92467 32.4295 8.80179C32.5698 8.67891 32.6552 8.50931 32.6672 8.32236L32.8169 6.14669C32.8289 5.95974 32.7687 5.77945 32.6445 5.63921C32.5217 5.49766 32.3508 5.41352 32.1651 5.40143C32.1478 5.40011 32.1317 5.3988 32.1157 5.3988Z" fill="#4AB04A" stroke="#4AB04A" stroke-width="0.391951"/>
</g>
<path d="M31.2031 14.534L31.561 9.28125L32.2341 9.32665L31.8749 14.5794L31.2031 14.534Z" fill="#4AB04A" stroke="#4AB04A" stroke-width="0.391951"/>
<path d="M26.9459 9.76265C26.6173 9.76265 26.3021 9.64651 26.0511 9.43011C25.7719 9.1911 25.6036 8.85848 25.5769 8.49255L25.414 6.31688C25.3579 5.56364 25.9268 4.90392 26.6828 4.84782C27.0487 4.81978 27.404 4.93731 27.6818 5.17633C27.9596 5.41543 28.1279 5.74796 28.1559 6.11257L28.3189 8.28824C28.3455 8.65417 28.2294 9.00809 27.989 9.28584C27.7499 9.56369 27.416 9.73197 27.0501 9.7587C27.0153 9.76133 26.9806 9.76265 26.9459 9.76265ZM26.7856 5.51561C26.7682 5.51561 26.7509 5.51692 26.7322 5.51824C26.3475 5.54628 26.0577 5.88285 26.0858 6.26753L26.2487 8.44312C26.262 8.62875 26.3489 8.79844 26.4905 8.92123C26.632 9.0428 26.8123 9.10161 26.9992 9.0882C27.1863 9.07488 27.3559 8.98942 27.4788 8.84778C27.6003 8.70623 27.6604 8.52463 27.6471 8.33899L27.4841 6.16332C27.4694 5.97637 27.3839 5.80677 27.2424 5.68521C27.1142 5.57565 26.9538 5.51561 26.7856 5.51561Z" fill="#4AB04A" stroke="#4AB04A" stroke-width="0.391951"/>
<path d="M26.6875 9.44787L27.3593 9.39844L27.7225 14.2573L27.0508 14.3066L26.6875 9.44787Z" fill="#4AB04A" stroke="#4AB04A" stroke-width="0.391951"/>
<path d="M22.1008 10.7091C21.7722 10.7091 21.4584 10.5928 21.2059 10.3765C20.9282 10.1374 20.7599 9.80348 20.7332 9.43887L20.5702 7.26329C20.5141 6.50864 21.0831 5.85024 21.839 5.79283C22.2049 5.7661 22.5589 5.88232 22.838 6.12133C23.1159 6.36043 23.2841 6.69437 23.3108 7.05889L23.4737 9.23456C23.5018 9.60049 23.3842 9.95441 23.1452 10.2323C22.9048 10.5087 22.5709 10.677 22.2049 10.705C22.1702 10.7077 22.1355 10.7091 22.1008 10.7091ZM21.9419 6.46193C21.9245 6.46193 21.9058 6.46193 21.8884 6.46324C21.7015 6.47797 21.5318 6.56342 21.409 6.70497C21.2874 6.84661 21.2273 7.0269 21.242 7.21254L21.405 9.38812C21.4183 9.57516 21.5038 9.74476 21.6454 9.86632C21.7883 9.98921 21.9685 10.0479 22.1556 10.0346C22.3425 10.0199 22.5121 9.93443 22.6337 9.79288C22.7566 9.65124 22.8153 9.47095 22.802 9.28531L22.639 7.10973C22.6256 6.92269 22.5402 6.75309 22.3973 6.63152C22.2691 6.52074 22.1088 6.46193 21.9419 6.46193Z" fill="#4AB04A" stroke="#4AB04A" stroke-width="0.391951"/>
<path d="M21.8438 10.3853L22.5156 10.3359L22.8909 15.3443L22.2191 15.3937L21.8438 10.3853Z" fill="#4AB04A" stroke="#4AB04A" stroke-width="0.391951"/>
<mask id="mask4_11645_348" style="mask-type:luminance" maskUnits="userSpaceOnUse" x="28" y="32" width="19" height="2">
<path d="M28.5664 32.7812H46.2706V33.807H28.5664V32.7812Z" fill="white"/>
</mask>
<g mask="url(#mask4_11645_348)">
<path d="M45.8778 33.6419H28.9108C28.7251 33.6419 28.5742 33.491 28.5742 33.3053C28.5742 33.1197 28.7251 32.9688 28.9108 32.9688H45.8778C46.0648 32.9688 46.2157 33.1197 46.2157 33.3053C46.2157 33.491 46.0648 33.6419 45.8778 33.6419Z" fill="#4AB04A" stroke="#4AB04A" stroke-width="0.391951"/>
</g>
<path d="M15.7316 27.8399C15.5539 27.8399 15.4057 27.701 15.395 27.5233C15.2922 25.6963 14.7379 24.2806 13.7015 23.1921C13.5733 23.0572 13.58 22.8449 13.7149 22.7166C13.8484 22.5897 14.0622 22.5951 14.1903 22.73C15.3242 23.9214 15.9559 25.5214 16.0681 27.4846C16.0788 27.6702 15.9373 27.8292 15.7516 27.8399C15.7449 27.8399 15.7382 27.8399 15.7316 27.8399Z" fill="#4AB04A" stroke="#4AB04A" stroke-width="0.391951"/>
</svg>
