<svg width="40" height="40" viewBox="0 0 40 40" fill="none" xmlns="http://www.w3.org/2000/svg">
<mask id="mask0_11645_390" style="mask-type:luminance" maskUnits="userSpaceOnUse" x="3" y="4" width="34" height="32">
<path d="M36.6805 4.05493H3.31641V35.9362H36.6805V4.05493Z" fill="white"/>
</mask>
<g mask="url(#mask0_11645_390)">
<path d="M23.9393 7.75791L24.1271 7.94475L24.3647 7.82745C25.5215 7.25648 26.8135 7.01648 28.0982 7.13385C29.3829 7.25115 30.61 7.72136 31.6442 8.49251C32.6783 9.26359 33.4792 10.3055 33.9583 11.5033C34.4375 12.701 34.5761 14.0079 34.359 15.2794L34.2917 15.674L34.6902 15.7109C34.9755 15.7375 35.2523 15.8225 35.5033 15.9607C35.7544 16.0989 35.9742 16.2874 36.1491 16.5144C36.3241 16.7414 36.4503 17.002 36.52 17.2799C36.5898 17.5578 36.6014 17.8472 36.5544 18.1298C35.4554 24.7406 32.7581 28.8195 28.5482 30.5299L28.317 30.6239V30.8734V32.5238C28.317 33.4025 27.9679 34.2453 27.3465 34.8666C26.7252 35.488 25.8825 35.837 25.0037 35.837H15.1798C14.3011 35.837 13.4584 35.488 12.837 34.8666C12.2157 34.2453 11.8666 33.4025 11.8666 32.5238V30.8734V30.6239L11.6355 30.5299C7.42552 28.8195 4.72814 24.7407 3.62919 18.13C3.58376 17.8549 3.59395 17.5735 3.65915 17.3025C3.72439 17.0313 3.84335 16.776 4.009 16.5516C4.17465 16.3273 4.38363 16.1384 4.62357 15.9962C4.86352 15.854 5.12955 15.7614 5.40588 15.7239L5.72669 15.6803V15.3566V15.3541V15.332C5.72669 13.2221 6.35156 11.1593 7.52257 9.40409C8.6935 7.64885 10.3581 6.27981 12.3064 5.46958C14.2545 4.65936 16.3991 4.44431 18.4695 4.8516C20.5398 5.25879 22.4431 6.27009 23.9393 7.75791ZM7.44123 15.332V15.7027H7.81195H10.2679H10.6386V15.332C10.6386 13.8019 11.2464 12.3345 12.3284 11.2526C13.4103 10.1707 14.8777 9.56283 16.4079 9.56283C17.9379 9.56283 19.4054 10.1707 20.4873 11.2526C21.5692 12.3345 22.177 13.8019 22.177 15.332V15.7027H22.5477H25.0037H25.3744V15.332C25.3744 12.954 24.4297 10.6733 22.7482 8.99171C21.0666 7.31009 18.7859 6.36544 16.4079 6.36544C14.0298 6.36544 11.7491 7.31009 10.0675 8.99171C8.38596 10.6733 7.44123 12.954 7.44123 15.332ZM12.3532 15.332V15.7027H12.7239H20.0918H20.4625V15.332C20.4625 14.2566 20.0353 13.2253 19.2749 12.4649C18.5146 11.7045 17.4832 11.2774 16.4079 11.2774C15.3324 11.2774 14.3012 11.7045 13.5408 12.4649C12.7804 13.2253 12.3532 14.2566 12.3532 15.332ZM29.2648 15.148L28.9475 15.7027H29.5865H32.2169H32.5048L32.5761 15.4238C32.7755 14.6433 32.794 13.8276 32.6305 13.0389C32.4668 12.2501 32.1253 11.5091 31.6319 10.8723C31.1386 10.2356 30.5063 9.71987 29.7835 9.36443C29.0606 9.00899 28.2661 8.82326 27.4606 8.82141H27.4597C26.8264 8.82141 26.2237 8.93232 25.6631 9.13592L25.233 9.29214L25.475 9.68042C25.8949 10.3542 26.2417 11.0809 26.508 11.8439L26.6193 12.1629L26.9472 12.0815C27.3445 11.983 27.762 12.0033 28.1479 12.1399C28.5338 12.2765 28.8711 12.5234 29.1179 12.85C29.3647 13.1765 29.5102 13.5685 29.5363 13.9769C29.5624 14.3854 29.468 14.7926 29.2648 15.148ZM26.6024 31.2958V30.9251H26.2317H13.9519H13.5812V31.2958V32.5238C13.5812 32.9478 13.7496 33.3545 14.0494 33.6542C14.3492 33.9541 14.7558 34.1225 15.1798 34.1225H25.0037C25.4277 34.1225 25.8343 33.9541 26.1342 33.6542C26.434 33.3545 26.6024 32.9478 26.6024 32.5238V31.2958ZM12.9739 29.1928L13.0292 29.2106H13.0874H27.0962H27.1544L27.2097 29.1928C31.2954 27.8789 33.8123 24.17 34.8641 17.8488L34.936 17.4173H34.4985H5.6851H5.24758L5.31943 17.8488C6.37128 24.17 8.88812 27.8789 12.9739 29.1928Z" fill="#4AB04A"/>
</g>
</svg>
