<svg width="39" height="39" viewBox="0 0 39 39" fill="none" xmlns="http://www.w3.org/2000/svg">
<path d="M15.3786 14.3851C15.4363 14.3851 15.4923 14.3745 15.5456 14.3523C15.5989 14.3301 15.6469 14.2981 15.6878 14.2572C15.7286 14.2163 15.7606 14.1683 15.7829 14.115C15.8051 14.0609 15.8157 14.0049 15.8157 13.9471V12.919C16.164 12.7751 17.3148 12.5645 19.1496 12.5645C20.9836 12.5645 22.1334 12.7751 22.4826 12.919V13.9471C22.4826 14.0049 22.4942 14.0609 22.5164 14.115C22.5386 14.1683 22.5697 14.2163 22.6115 14.2572C22.6523 14.2981 22.6994 14.3301 22.7527 14.3523C22.8069 14.3745 22.8621 14.3851 22.9207 14.3851C22.9784 14.3851 23.0344 14.3745 23.0877 14.3523C23.141 14.3301 23.1882 14.2981 23.2299 14.2572C23.2708 14.2163 23.3018 14.1683 23.3241 14.115C23.3463 14.0609 23.3578 14.0049 23.3578 13.9471V12.7484C23.3578 12.0447 21.9424 11.6875 19.1496 11.6875C16.3569 11.6875 14.9414 12.0447 14.9414 12.7484V13.9471C14.9414 14.0049 14.952 14.0609 14.9742 14.115C14.9965 14.1683 15.0285 14.2163 15.0693 14.2572C15.1102 14.2981 15.1573 14.3301 15.2115 14.3523C15.2648 14.3745 15.3208 14.3851 15.3786 14.3851Z" fill="#4AB04A"/>
<path d="M22.5412 17.5122C22.1672 17.322 20.8876 17.1292 19.1496 17.1292C17.4116 17.1292 16.1267 17.322 15.7571 17.5122C15.7144 17.5353 15.67 17.5521 15.6238 17.5628C15.5767 17.5735 15.5296 17.5779 15.4816 17.5771C15.4337 17.5753 15.3865 17.5681 15.3403 17.5548C15.2941 17.5415 15.2506 17.5219 15.2097 17.4971C15.1688 17.4722 15.1315 17.4429 15.0978 17.4082C15.0649 17.3736 15.0364 17.3354 15.0125 17.2936C14.9894 17.2518 14.9716 17.2074 14.9592 17.1612C14.9467 17.1141 14.9414 17.067 14.9414 17.019V15.767C14.9414 15.7084 14.952 15.6524 14.9742 15.5991C14.9965 15.5449 15.0285 15.4978 15.0693 15.4569C15.1102 15.4152 15.1573 15.3841 15.2115 15.3618C15.2648 15.3397 15.3208 15.3281 15.3786 15.3281C15.4363 15.3281 15.4923 15.3397 15.5456 15.3618C15.5989 15.3841 15.6469 15.4152 15.6878 15.4569C15.7286 15.4978 15.7606 15.5449 15.7829 15.5991C15.8051 15.6524 15.8157 15.7084 15.8157 15.767V16.5641C16.6616 16.3366 18.0647 16.2504 19.1496 16.2504C20.2337 16.2504 21.6367 16.3366 22.4826 16.5641V15.823C22.4826 15.7653 22.4942 15.7093 22.5164 15.6551C22.5386 15.6017 22.5697 15.5538 22.6115 15.5129C22.6523 15.4721 22.6994 15.44 22.7527 15.4178C22.8069 15.3956 22.8621 15.385 22.9207 15.385C22.9784 15.385 23.0344 15.3956 23.0877 15.4178C23.141 15.44 23.1882 15.4721 23.2299 15.5129C23.2708 15.5538 23.3018 15.6017 23.3241 15.6551C23.3463 15.7093 23.3578 15.7653 23.3578 15.823V17.019C23.3578 17.1159 23.3347 17.2074 23.2868 17.2918C23.2397 17.3771 23.1739 17.4447 23.0913 17.4953C23.0078 17.5459 22.9171 17.5726 22.8185 17.5762C22.7208 17.5797 22.6284 17.5584 22.5412 17.5122Z" fill="#4AB04A"/>
<path d="M19.1481 19.0281C19.9923 19.0334 20.832 18.9819 21.669 18.8726C21.7268 18.8646 21.7801 18.8459 21.8307 18.8157C21.8805 18.7864 21.9231 18.7482 21.9578 18.7011C21.9925 18.6549 22.0173 18.6033 22.0315 18.5474C22.0458 18.4905 22.0484 18.4336 22.0404 18.3759C22.0325 18.3181 22.0129 18.2648 21.9836 18.215C21.9534 18.1644 21.916 18.1226 21.8689 18.0871C21.8227 18.0525 21.7712 18.0284 21.7152 18.0134C21.6583 17.9991 21.6015 17.9965 21.5446 18.0044C19.9452 18.1937 18.3458 18.1937 16.7464 18.0044C16.6886 17.9965 16.6317 17.9991 16.5757 18.0134C16.5198 18.0284 16.4683 18.0525 16.422 18.0871C16.3749 18.1226 16.3368 18.1644 16.3074 18.215C16.2781 18.2648 16.2586 18.3181 16.2505 18.3759C16.2425 18.4336 16.2452 18.4905 16.2594 18.5474C16.2737 18.6033 16.2985 18.6549 16.3332 18.7011C16.3678 18.7482 16.4105 18.7864 16.4602 18.8157C16.51 18.8459 16.5642 18.8646 16.6211 18.8726C17.4599 18.9819 18.3022 19.0334 19.1481 19.0281Z" fill="#4AB04A"/>
<path d="M25.4759 16.1984C25.5425 16.1992 25.6083 16.1948 25.674 16.1868C25.7398 16.1788 25.8055 16.1664 25.8695 16.1504C25.9335 16.1335 25.9966 16.1131 26.0588 16.0891C26.12 16.0642 26.1805 16.0358 26.2382 16.0038C26.296 15.9718 26.352 15.9363 26.4062 15.8972C26.4595 15.8581 26.5102 15.8154 26.559 15.7692C26.607 15.7239 26.6523 15.675 26.6941 15.6235C26.7358 15.572 26.7749 15.5186 26.8096 15.4618C26.8451 15.4058 26.8763 15.3471 26.9047 15.2867C26.9322 15.2263 26.9562 15.1641 26.9758 15.101C26.9962 15.037 27.0113 14.973 27.0228 14.9073C27.0353 14.8415 27.0424 14.7758 27.0459 14.7092C27.0495 14.6425 27.0486 14.5768 27.0433 14.5101C27.038 14.4434 27.029 14.3777 27.0157 14.3129C27.0016 14.248 26.9847 14.184 26.9624 14.1209C26.9411 14.0578 26.9153 13.9965 26.886 13.937C26.8567 13.8774 26.8238 13.8197 26.7874 13.7646C26.751 13.7086 26.711 13.6562 26.6674 13.6056C26.6239 13.5549 26.5777 13.5078 26.5279 13.4634C26.479 13.4189 26.4266 13.3781 26.3715 13.3398C26.3173 13.3026 26.2605 13.2679 26.2018 13.2377C26.1423 13.2066 26.0819 13.18 26.0197 13.1577C25.9575 13.1346 25.8935 13.1159 25.8286 13.1009C25.7638 13.0866 25.6989 13.0759 25.6322 13.0697C25.5665 13.0635 25.5007 13.0609 25.4341 13.0635C25.3675 13.0653 25.3017 13.0716 25.236 13.0822C25.1711 13.0928 25.1062 13.1071 25.0422 13.1257C24.9783 13.1452 24.9161 13.1675 24.8556 13.1941C24.7952 13.2208 24.7357 13.2519 24.6788 13.2857C24.6219 13.3203 24.5678 13.3577 24.5153 13.3985C24.4629 13.4403 24.414 13.4847 24.3678 13.5318C24.3207 13.5789 24.2772 13.6295 24.2372 13.6828C24.2025 13.7291 24.1768 13.7797 24.1626 13.8366C24.1474 13.8925 24.1439 13.9494 24.1519 14.0072C24.159 14.0649 24.1777 14.1192 24.207 14.1689C24.2363 14.2195 24.2737 14.2622 24.3199 14.2977C24.3661 14.3324 24.4167 14.3582 24.4735 14.3724C24.5295 14.3875 24.5864 14.391 24.6441 14.3839C24.701 14.376 24.7553 14.3573 24.805 14.3279C24.8556 14.2986 24.8983 14.2613 24.9338 14.2151C24.9632 14.176 24.996 14.1414 25.0325 14.1094C25.0689 14.0773 25.1089 14.0499 25.1515 14.0268C25.1933 14.0037 25.2377 13.985 25.2848 13.9708C25.331 13.9574 25.3781 13.9485 25.4261 13.9441C25.475 13.9406 25.523 13.9414 25.5709 13.9477C25.6189 13.9539 25.666 13.9654 25.7113 13.9814C25.7567 13.9974 25.8002 14.0178 25.842 14.0436C25.8828 14.0685 25.9211 14.0978 25.9566 14.1316C25.9912 14.1645 26.0232 14.2018 26.0507 14.2418C26.0774 14.2817 26.1005 14.3235 26.1192 14.3688C26.1379 14.4132 26.1512 14.4594 26.16 14.5075C26.1689 14.5554 26.1734 14.6034 26.1716 14.6514C26.1707 14.7002 26.1645 14.7483 26.1529 14.7953C26.1414 14.8424 26.1254 14.8877 26.105 14.9313C26.0836 14.9757 26.0588 15.0166 26.0285 15.0548C25.9992 15.093 25.9664 15.1285 25.929 15.1597C25.8926 15.1916 25.8526 15.2183 25.81 15.2414C25.7673 15.2645 25.7229 15.2831 25.6767 15.2965C25.6305 15.3107 25.5825 15.3187 25.5345 15.3231C25.4865 15.3267 25.4385 15.3249 25.3906 15.3187C25.3426 15.3125 25.2955 15.3009 25.2502 15.284C25.2039 15.2681 25.1613 15.2467 25.1195 15.2219C25.0787 15.1961 25.0405 15.1668 25.0058 15.133C24.9703 15.0992 24.9392 15.0628 24.9125 15.0228C24.8787 14.9748 24.8379 14.9348 24.789 14.9037C24.7401 14.8717 24.6868 14.8513 24.63 14.8407C24.5731 14.83 24.5153 14.8309 24.4585 14.8433C24.4016 14.8558 24.3501 14.8789 24.302 14.9117C24.2541 14.9446 24.2141 14.9864 24.183 15.0353C24.1519 15.0841 24.1306 15.1374 24.1199 15.1943C24.1101 15.2521 24.111 15.3089 24.1235 15.3658C24.135 15.4236 24.1581 15.476 24.191 15.5239C24.3368 15.7345 24.5233 15.8998 24.7508 16.0198C24.9774 16.1389 25.2191 16.1984 25.4759 16.1984Z" fill="#4AB04A"/>
<path d="M22.9186 14.3917H24.5828C24.6406 14.3917 24.6966 14.3811 24.7499 14.3589C24.8032 14.3367 24.8503 14.3047 24.892 14.2638C24.9329 14.2229 24.964 14.1749 24.9863 14.1216C25.0085 14.0675 25.02 14.0115 25.02 13.9537C25.02 13.896 25.0085 13.84 24.9863 13.7857C24.964 13.7324 24.9329 13.6845 24.892 13.6436C24.8503 13.6027 24.8032 13.5707 24.7499 13.5485C24.6966 13.5263 24.6406 13.5156 24.5828 13.5156H22.9186C22.8599 13.5156 22.8048 13.5263 22.7506 13.5485C22.6973 13.5707 22.6502 13.6027 22.6093 13.6436C22.5676 13.6845 22.5365 13.7324 22.5142 13.7857C22.492 13.84 22.4805 13.896 22.4805 13.9537C22.4805 14.0115 22.492 14.0675 22.5142 14.1216C22.5365 14.1749 22.5676 14.2229 22.6093 14.2638C22.6502 14.3047 22.6973 14.3367 22.7506 14.3589C22.8048 14.3811 22.8599 14.3917 22.9186 14.3917Z" fill="#4AB04A"/>
<path d="M12.8184 16.1957C13.0796 16.1975 13.3258 16.1371 13.5559 16.0144C13.7869 15.8918 13.9753 15.7221 14.121 15.5044C14.1538 15.4565 14.1752 15.404 14.1867 15.3472C14.1983 15.2894 14.1992 15.2325 14.1876 15.1757C14.1769 15.1188 14.1547 15.0654 14.1228 15.0175C14.0908 14.9686 14.0508 14.9286 14.0028 14.8958C13.9549 14.8629 13.9024 14.8407 13.8455 14.8291C13.7886 14.8176 13.7318 14.8176 13.675 14.8282C13.6181 14.8398 13.5647 14.8611 13.5168 14.8931C13.4679 14.9251 13.4279 14.9651 13.3951 15.0139C13.3684 15.0539 13.3373 15.0904 13.3026 15.1241C13.2679 15.1579 13.2298 15.1881 13.1889 15.2138C13.148 15.2396 13.1045 15.26 13.0592 15.2769C13.0138 15.2938 12.9668 15.3054 12.9187 15.3116C12.8717 15.3187 12.8228 15.3196 12.7748 15.3169C12.7268 15.3134 12.6798 15.3045 12.6326 15.2912C12.5864 15.2779 12.542 15.2592 12.4994 15.2369C12.4567 15.2138 12.4168 15.1863 12.3803 15.1552C12.343 15.1241 12.3101 15.0895 12.2799 15.0513C12.2505 15.013 12.2248 14.9713 12.2043 14.9277C12.1831 14.8842 12.167 14.8389 12.1555 14.7918C12.1439 14.7447 12.1377 14.6967 12.1359 14.6488C12.1342 14.5999 12.1386 14.5519 12.1466 14.5048C12.1555 14.4568 12.1688 14.4106 12.1874 14.3653C12.2062 14.3208 12.2284 14.2782 12.2559 14.2382C12.2834 14.1982 12.3146 14.1618 12.3492 14.128C12.3847 14.0952 12.423 14.0659 12.4638 14.0401C12.5056 14.0143 12.5483 13.9939 12.5945 13.9779C12.6398 13.9618 12.6869 13.9503 12.7348 13.9441C12.7819 13.9379 12.8308 13.9361 12.8788 13.9406C12.9268 13.9441 12.9739 13.953 13.0201 13.9663C13.0671 13.9806 13.1116 13.9992 13.1533 14.0223C13.196 14.0454 13.236 14.073 13.2724 14.104C13.3089 14.136 13.3426 14.1707 13.372 14.2098C13.4084 14.2489 13.4519 14.28 13.4999 14.304C13.5488 14.3271 13.6003 14.3413 13.6545 14.3458C13.7078 14.3502 13.7611 14.3448 13.8127 14.3289C13.8651 14.3137 13.9122 14.2898 13.9549 14.2569C13.9984 14.224 14.0339 14.184 14.0623 14.1378C14.0908 14.0916 14.1095 14.0418 14.1192 13.9885C14.129 13.9352 14.129 13.8828 14.1192 13.8295C14.1095 13.7762 14.0908 13.7264 14.0623 13.6802C14.0223 13.6269 13.9788 13.5771 13.9326 13.53C13.8864 13.4821 13.8367 13.4385 13.7851 13.3977C13.7327 13.3558 13.6785 13.3186 13.6216 13.2848C13.5647 13.251 13.5061 13.2199 13.4448 13.1933C13.3844 13.1675 13.3222 13.1444 13.2591 13.1257C13.1951 13.1071 13.1311 13.0928 13.0654 13.0822C13.0005 13.0716 12.9347 13.0653 12.8681 13.0635C12.8024 13.0609 12.7357 13.0635 12.67 13.0697C12.6042 13.076 12.5393 13.0857 12.4745 13.1009C12.4096 13.1151 12.3465 13.1338 12.2843 13.1569C12.2222 13.1791 12.1617 13.2057 12.1022 13.2359C12.0435 13.2661 11.9866 13.3008 11.9325 13.3381C11.8774 13.3754 11.8258 13.4163 11.7761 13.4607C11.7272 13.5052 11.681 13.5523 11.6374 13.602C11.5939 13.6526 11.554 13.7051 11.5166 13.7602C11.4802 13.8153 11.4473 13.873 11.418 13.9325C11.3878 13.9912 11.3629 14.0525 11.3407 14.1156C11.3194 14.1778 11.3016 14.2418 11.2874 14.3067C11.274 14.3715 11.2643 14.4373 11.2589 14.503C11.2536 14.5697 11.2527 14.6354 11.2553 14.7021C11.2589 14.7687 11.266 14.8344 11.2776 14.8993C11.2882 14.9651 11.3042 15.029 11.3238 15.093C11.3434 15.1561 11.3664 15.2183 11.394 15.2787C11.4216 15.3391 11.4526 15.3978 11.4873 15.4538C11.5219 15.5106 11.5602 15.5649 11.6019 15.6164C11.6437 15.6679 11.6881 15.7168 11.7361 15.7621C11.7841 15.8083 11.8339 15.851 11.8871 15.891C11.9404 15.9301 11.9964 15.9656 12.0542 15.9985C12.1119 16.0304 12.1715 16.0598 12.2328 16.0847C12.2941 16.1095 12.3563 16.13 12.4203 16.1469C12.4852 16.1637 12.5491 16.1762 12.6149 16.1851C12.6806 16.194 12.7464 16.1984 12.813 16.1984L12.8184 16.1957Z" fill="#4AB04A"/>
<path d="M13.7106 14.3917H15.3749C15.4326 14.3917 15.4886 14.3811 15.542 14.3589C15.5953 14.3367 15.6432 14.3047 15.6841 14.2638C15.725 14.2229 15.757 14.1749 15.7792 14.1216C15.8014 14.0675 15.8121 14.0115 15.8121 13.9537C15.8121 13.896 15.8014 13.84 15.7792 13.7857C15.757 13.7324 15.725 13.6845 15.6841 13.6436C15.6432 13.6027 15.5953 13.5707 15.542 13.5485C15.4886 13.5263 15.4326 13.5156 15.3749 13.5156H13.7106C13.6528 13.5156 13.5968 13.5263 13.5427 13.5485C13.4894 13.5707 13.4422 13.6027 13.4014 13.6436C13.3605 13.6845 13.3285 13.7324 13.3063 13.7857C13.2841 13.84 13.2734 13.896 13.2734 13.9537C13.2734 14.0115 13.2841 14.0675 13.3063 14.1216C13.3285 14.1749 13.3605 14.2229 13.4014 14.2638C13.4422 14.3047 13.4894 14.3367 13.5427 14.3589C13.5968 14.3811 13.6528 14.3917 13.7106 14.3917Z" fill="#4AB04A"/>
<path d="M16.6863 12.294C16.7441 12.294 16.8 12.2825 16.8534 12.2602C16.9067 12.238 16.9546 12.2069 16.9955 12.1661C17.0364 12.1243 17.0684 12.0772 17.0906 12.0239C17.1128 11.9697 17.1244 11.9137 17.1244 11.8559V10.8679C17.1199 10.8119 17.1066 10.7595 17.0826 10.7097C17.0577 10.6599 17.0257 10.6155 16.9858 10.5782C16.9449 10.5408 16.8987 10.5115 16.8472 10.4911C16.7956 10.4707 16.7423 10.4609 16.6872 10.4609C16.6321 10.4609 16.5788 10.4707 16.5273 10.4911C16.4757 10.5115 16.4295 10.5408 16.3886 10.5782C16.3486 10.6155 16.3158 10.6599 16.2917 10.7097C16.2678 10.7595 16.2536 10.8119 16.25 10.8679V11.8559C16.25 11.9137 16.2607 11.9697 16.2829 12.023C16.3051 12.0763 16.3362 12.1243 16.3771 12.1652C16.418 12.2061 16.4651 12.238 16.5192 12.2602C16.5726 12.2825 16.6276 12.294 16.6863 12.294Z" fill="#4AB04A"/>
<path d="M21.6034 12.294C21.662 12.294 21.718 12.2825 21.7713 12.2602C21.8246 12.238 21.8726 12.2069 21.9135 12.1661C21.9543 12.1243 21.9863 12.0772 22.0086 12.0239C22.0308 11.9697 22.0423 11.9137 22.0423 11.8559V10.8679C22.0379 10.8119 22.0236 10.7595 21.9996 10.7097C21.9757 10.6599 21.9437 10.6155 21.9028 10.5782C21.8628 10.5408 21.8166 10.5115 21.7651 10.4911C21.7135 10.4707 21.6602 10.4609 21.6051 10.4609C21.5501 10.4609 21.4967 10.4707 21.4452 10.4911C21.3936 10.5115 21.3474 10.5408 21.3066 10.5782C21.2666 10.6155 21.2337 10.6599 21.2097 10.7097C21.1857 10.7595 21.1715 10.8119 21.168 10.8679V11.8559C21.168 11.9137 21.1786 11.9697 21.2009 12.023C21.223 12.0763 21.2542 12.1243 21.295 12.1652C21.3359 12.2061 21.383 12.238 21.4372 12.2602C21.4905 12.2825 21.5456 12.294 21.6034 12.294Z" fill="#4AB04A"/>
<mask id="mask0_11645_406" style="mask-type:luminance" maskUnits="userSpaceOnUse" x="14" y="5" width="10" height="4">
<path d="M14.7695 5.41406H23.4135V8.22905H14.7695V5.41406Z" fill="white"/>
</mask>
<g mask="url(#mask0_11645_406)">
<path d="M15.3709 8.11173C15.4286 8.11173 15.4846 8.10018 15.5379 8.07796C15.5912 8.05574 15.6392 8.02467 15.6801 7.98293C15.7209 7.942 15.7529 7.89492 15.7751 7.84075C15.7973 7.78739 15.808 7.73146 15.808 7.67277V6.64651C16.1563 6.50257 17.307 6.29021 19.1419 6.29021C20.9759 6.29021 22.1257 6.50257 22.4749 6.64651V7.66837C22.4749 7.72612 22.4865 7.78205 22.5087 7.83629C22.5309 7.88958 22.562 7.93666 22.6038 7.97847C22.6446 8.01933 22.6917 8.05135 22.745 8.07351C22.7992 8.09573 22.8543 8.1064 22.913 8.1064C22.9707 8.1064 23.0267 8.09573 23.08 8.07351C23.1333 8.05135 23.1804 8.01933 23.2222 7.97847C23.2631 7.93666 23.2941 7.88958 23.3164 7.83629C23.3386 7.78205 23.3501 7.72612 23.3501 7.66837V6.47501C23.3501 5.77038 21.9347 5.41406 19.1419 5.41406C16.3492 5.41406 14.9336 5.77038 14.9336 6.47501V7.66837C14.9328 7.727 14.9434 7.783 14.9648 7.83805C14.987 7.89228 15.0181 7.94024 15.0589 7.98198C15.1007 8.02379 15.1478 8.05574 15.202 8.07796C15.2562 8.10018 15.3122 8.11173 15.3709 8.11173Z" fill="#4AB04A"/>
</g>
<path d="M15.4938 11.3063C15.5853 11.3063 15.6715 11.285 15.7523 11.2432C16.1273 11.0513 17.4068 10.8584 19.1457 10.8584C20.8856 10.8584 22.1687 11.0513 22.5383 11.2432C22.6254 11.2886 22.7187 11.309 22.8164 11.3054C22.915 11.3019 23.0057 11.2743 23.0892 11.2228C23.1718 11.1721 23.2367 11.1055 23.2847 11.0202C23.3318 10.9358 23.3549 10.8451 23.354 10.7483V9.55316C23.354 9.49541 23.3433 9.43942 23.3211 9.38525C23.2989 9.33189 23.2669 9.28481 23.2261 9.24307C23.1852 9.2022 23.1381 9.17019 23.0839 9.14797C23.0306 9.12575 22.9746 9.11514 22.9168 9.11514C22.8591 9.11514 22.8031 9.12575 22.7498 9.14797C22.6965 9.17019 22.6485 9.2022 22.6076 9.24307C22.5668 9.28481 22.5348 9.33189 22.5125 9.38525C22.4903 9.43942 22.4796 9.49541 22.4796 9.55316V10.296C21.6337 10.0676 20.2307 9.98321 19.1457 9.98321C18.0617 9.98321 16.6586 10.0676 15.8128 10.296V9.49277C15.8128 9.43496 15.8012 9.37903 15.779 9.32567C15.7568 9.2715 15.7257 9.22442 15.6839 9.1835C15.6431 9.14175 15.596 9.11068 15.5426 9.08846C15.4885 9.06624 15.4333 9.05469 15.3747 9.05469C15.317 9.05469 15.261 9.06624 15.2077 9.08846C15.1543 9.11068 15.1072 9.14175 15.0655 9.1835C15.0246 9.22442 14.9935 9.2715 14.9713 9.32567C14.9491 9.37903 14.9375 9.43496 14.9375 9.49277V10.7456C14.9375 10.8425 14.9606 10.9331 15.0077 11.0175C15.0548 11.1028 15.1197 11.1704 15.2023 11.2201C15.2912 11.277 15.3889 11.3054 15.4938 11.3063Z" fill="#4AB04A"/>
<path d="M25.4751 9.92293C25.5808 9.92915 25.6865 9.92381 25.7922 9.90868C25.8971 9.89274 26.0001 9.86694 26.0997 9.83053C26.2001 9.79318 26.2952 9.74698 26.3858 9.69099C26.4765 9.63506 26.5599 9.57015 26.6382 9.49727C26.7154 9.42358 26.7839 9.34361 26.8452 9.2556C26.9065 9.16854 26.958 9.07614 26.9998 8.97752C27.0425 8.87978 27.0735 8.77847 27.0958 8.67452C27.1171 8.56963 27.1278 8.46392 27.1278 8.35727C27.1278 8.25062 27.1171 8.14491 27.0958 8.04096C27.0735 7.93607 27.0425 7.83482 26.9998 7.73708C26.958 7.6384 26.9065 7.546 26.8452 7.45894C26.7839 7.37099 26.7154 7.29102 26.6382 7.21726C26.5599 7.14438 26.4765 7.07954 26.3858 7.02355C26.2952 6.96756 26.2001 6.92136 26.0997 6.88407C26.0001 6.8476 25.8971 6.82186 25.7922 6.80585C25.6865 6.79073 25.5808 6.78539 25.4751 6.79161C25.2298 6.78985 24.997 6.84314 24.7766 6.95155C24.5571 7.06084 24.3732 7.21281 24.2257 7.40916C24.1902 7.45536 24.1653 7.50689 24.1502 7.56289C24.1359 7.61888 24.1324 7.67575 24.1404 7.7335C24.1475 7.79125 24.1662 7.84549 24.1955 7.8952C24.2248 7.94586 24.2621 7.98854 24.3084 8.0232C24.3546 8.05872 24.4061 8.08358 24.462 8.09871C24.518 8.11384 24.5749 8.11735 24.6318 8.10938C24.6895 8.10135 24.7438 8.0827 24.7935 8.05339C24.8433 8.02407 24.8859 7.98672 24.9215 7.94052C24.957 7.89345 24.997 7.85082 25.0432 7.81435C25.0894 7.77794 25.1392 7.74775 25.1925 7.72371C25.2457 7.69973 25.3017 7.68284 25.3595 7.67305C25.4182 7.66332 25.4759 7.66062 25.5346 7.66596C25.5932 7.67129 25.6501 7.68372 25.7052 7.70419C25.7612 7.72371 25.8127 7.75039 25.8615 7.78328C25.9096 7.81617 25.9531 7.85522 25.9922 7.89966C26.0313 7.9441 26.0632 7.99206 26.0899 8.04448C26.1166 8.09783 26.1352 8.15288 26.1477 8.20975C26.1601 8.2675 26.1645 8.3262 26.1628 8.38483C26.1601 8.44345 26.1504 8.50121 26.1326 8.5572C26.1157 8.61407 26.0917 8.66736 26.0606 8.71714C26.0295 8.7678 25.993 8.81312 25.9513 8.85399C25.9086 8.89397 25.8615 8.9295 25.81 8.95794C25.7594 8.98637 25.7052 9.00859 25.6483 9.02372C25.5914 9.03879 25.5337 9.04594 25.4751 9.04594C25.3613 9.04594 25.2538 9.01926 25.1533 8.96597C25.0521 8.91261 24.9694 8.8398 24.9055 8.74558C24.8717 8.69762 24.8308 8.65763 24.7819 8.6265C24.7331 8.59455 24.6797 8.57321 24.6229 8.56341C24.5651 8.55274 24.5082 8.55362 24.4514 8.56611C24.3946 8.57854 24.3421 8.60076 24.2941 8.63453C24.247 8.66736 24.2071 8.70917 24.1759 8.75801C24.144 8.80691 24.1235 8.8602 24.1128 8.91795C24.1022 8.97482 24.1031 9.03257 24.1155 9.08944C24.128 9.14631 24.1511 9.19873 24.184 9.24675C24.3305 9.45911 24.518 9.62527 24.7464 9.74435C24.9748 9.8643 25.2173 9.92381 25.4751 9.92293Z" fill="#4AB04A"/>
<path d="M22.9186 8.11136H24.5828C24.6406 8.11136 24.6966 8.09981 24.7499 8.07766C24.8032 8.05543 24.8503 8.0243 24.892 7.98256C24.9329 7.94169 24.964 7.89461 24.9863 7.84038C25.0085 7.78708 25.02 7.73109 25.02 7.67246C25.02 7.61471 25.0085 7.55872 24.9863 7.50536C24.964 7.45119 24.9329 7.40411 24.892 7.36325C24.8503 7.32144 24.8032 7.29037 24.7499 7.26815C24.6966 7.24592 24.6406 7.23438 24.5828 7.23438H22.9186C22.8599 7.23438 22.8048 7.24592 22.7506 7.26815C22.6973 7.29037 22.6502 7.32144 22.6093 7.36325C22.5676 7.40411 22.5365 7.45119 22.5142 7.50536C22.492 7.55872 22.4805 7.61471 22.4805 7.67246C22.4805 7.73109 22.492 7.78708 22.5142 7.84038C22.5365 7.89461 22.5676 7.94169 22.6093 7.98256C22.6502 8.0243 22.6973 8.05543 22.7506 8.07766C22.8048 8.09981 22.8599 8.11136 22.9186 8.11136Z" fill="#4AB04A"/>
<path d="M12.8148 9.92845C13.0751 9.92933 13.3213 9.86982 13.5514 9.74811C13.7824 9.62633 13.9708 9.45666 14.1175 9.24072C14.1503 9.19276 14.1725 9.14029 14.1841 9.08342C14.1956 9.02661 14.1956 8.96879 14.1849 8.91198C14.1743 8.85511 14.1521 8.80176 14.1201 8.7538C14.0881 8.7049 14.0481 8.66403 14.0001 8.63208C13.9522 8.59919 13.8997 8.57697 13.8429 8.56542C13.786 8.55387 13.7291 8.55387 13.6723 8.56454C13.6154 8.57609 13.563 8.59743 13.5141 8.62938C13.4661 8.6614 13.4252 8.70138 13.3933 8.75022C13.3657 8.79021 13.3346 8.82756 13.3 8.86133C13.2653 8.8951 13.228 8.92441 13.1862 8.95015C13.1454 8.97595 13.1018 8.99723 13.0565 9.01411C13.0112 9.031 12.9641 9.04255 12.9161 9.04971C12.8681 9.05592 12.8201 9.05768 12.7721 9.0541C12.7233 9.05059 12.6761 9.04255 12.6299 9.02924C12.5829 9.01594 12.5384 8.99723 12.4958 8.97507C12.4531 8.95197 12.4132 8.92441 12.3758 8.89328C12.3385 8.86221 12.3057 8.82756 12.2754 8.78933C12.2461 8.7511 12.2204 8.70936 12.199 8.66579C12.1785 8.62229 12.1617 8.57697 12.1502 8.52989C12.1386 8.48275 12.1323 8.43479 12.1306 8.38595C12.1297 8.33793 12.1333 8.2891 12.1413 8.24195C12.1502 8.194 12.1635 8.1478 12.1821 8.10247C12.1999 8.05803 12.223 8.01541 12.2505 7.97542C12.2781 7.93456 12.3092 7.89809 12.3438 7.86432C12.3794 7.83055 12.4176 7.80123 12.4584 7.77637C12.4994 7.75057 12.5429 7.72929 12.5891 7.71329C12.6344 7.69728 12.6815 7.68573 12.7295 7.67952C12.7775 7.6733 12.8255 7.67154 12.8734 7.67506C12.9223 7.67952 12.9694 7.68843 13.0156 7.70174C13.0627 7.71592 13.1071 7.73369 13.1498 7.75685C13.1924 7.78083 13.2316 7.80745 13.2688 7.83946C13.3053 7.87053 13.3381 7.90612 13.3684 7.94429C13.403 7.99049 13.4457 8.02872 13.4954 8.05803C13.5461 8.08647 13.5994 8.10511 13.6571 8.11315C13.7149 8.12112 13.7709 8.1176 13.8278 8.10247C13.8838 8.08735 13.9344 8.06249 13.9806 8.02784C14.0268 7.99231 14.0641 7.94962 14.0934 7.89991C14.1227 7.84925 14.1414 7.79502 14.1494 7.73815C14.1565 7.68039 14.153 7.62352 14.1387 7.56753C14.1237 7.51066 14.0987 7.46006 14.0641 7.41386C13.9655 7.28236 13.8482 7.16861 13.714 7.07439C13.5799 6.97936 13.4341 6.90736 13.2769 6.8594C13.1204 6.8105 12.9596 6.7874 12.7952 6.78916C12.6309 6.79098 12.4709 6.81847 12.3154 6.87095C12.1599 6.92336 12.016 6.99888 11.8836 7.09661C11.7521 7.19435 11.6383 7.31079 11.5424 7.44406C11.4464 7.5782 11.3736 7.72396 11.3238 7.88032C11.274 8.03763 11.2491 8.19845 11.25 8.36279C11.25 8.46593 11.2607 8.56718 11.2812 8.66849C11.3016 8.76886 11.3309 8.86666 11.3709 8.9617C11.41 9.0568 11.4579 9.14656 11.5157 9.23181C11.5726 9.31806 11.6375 9.39709 11.7103 9.46909C11.7823 9.54197 11.8614 9.60681 11.9467 9.66368C12.032 9.72143 12.1217 9.76939 12.2168 9.8085C12.3119 9.8476 12.4087 9.8778 12.51 9.89826C12.6104 9.91778 12.7117 9.92845 12.8148 9.92845Z" fill="#4AB04A"/>
<path d="M13.7106 8.11136H15.3749C15.4326 8.11136 15.4886 8.09981 15.542 8.07766C15.5953 8.05543 15.6432 8.0243 15.6841 7.98256C15.725 7.94169 15.757 7.89461 15.7792 7.84038C15.8014 7.78708 15.8121 7.73109 15.8121 7.67246C15.8121 7.61471 15.8014 7.55872 15.7792 7.50536C15.757 7.45119 15.725 7.40411 15.6841 7.36325C15.6432 7.32144 15.5953 7.29037 15.542 7.26815C15.4886 7.24592 15.4326 7.23438 15.3749 7.23438H13.7106C13.6528 7.23438 13.5968 7.24592 13.5427 7.26815C13.4894 7.29037 13.4422 7.32144 13.4014 7.36325C13.3605 7.40411 13.3285 7.45119 13.3063 7.50536C13.2841 7.55872 13.2734 7.61471 13.2734 7.67246C13.2734 7.73109 13.2841 7.78708 13.3063 7.84038C13.3285 7.89461 13.3605 7.94169 13.4014 7.98256C13.4422 8.0243 13.4894 8.05543 13.5427 8.07766C13.5968 8.09981 13.6528 8.11136 13.7106 8.11136Z" fill="#4AB04A"/>
<path d="M11.0101 22.8131C11.0714 22.8131 11.13 22.8007 11.186 22.7758C11.2393 22.7518 11.2855 22.7189 11.3255 22.6772C11.3655 22.6354 11.3957 22.5874 11.417 22.5341C11.4375 22.4799 11.4472 22.4239 11.4464 22.3662C11.4455 22.3076 11.433 22.2525 11.4099 22.1992L10.0416 19.0954C10.0149 19.0483 9.98025 19.0074 9.9385 18.9737C9.89582 18.939 9.84874 18.9132 9.7972 18.8963C9.74567 18.8795 9.69325 18.8724 9.63902 18.8759C9.58484 18.8786 9.53243 18.891 9.48265 18.9132C9.43375 18.9354 9.38937 18.9656 9.35114 19.0039C9.31292 19.042 9.28272 19.0865 9.2605 19.1363C9.23828 19.186 9.22585 19.2384 9.22321 19.2926C9.22052 19.3469 9.22761 19.4002 9.24449 19.4517L10.6191 22.551C10.6538 22.6292 10.7062 22.6923 10.7764 22.7394C10.8475 22.7865 10.9248 22.8114 11.0101 22.8131Z" fill="#4AB04A"/>
<path d="M16.6734 30.2726C16.772 30.2726 16.8608 30.2433 16.939 30.1828C17.0181 30.1224 17.0696 30.0451 17.0954 29.9491C17.2145 29.5146 17.2891 29.0721 17.3194 28.6216C17.3504 28.172 17.3362 27.7233 17.2784 27.2764C17.2198 26.8294 17.1185 26.3922 16.9737 25.9657C16.8289 25.5383 16.6431 25.1305 16.4174 24.7404L13.6896 20.0328C13.5865 19.8551 13.4674 19.6889 13.3314 19.5352C13.1964 19.3814 13.0471 19.242 12.8845 19.1175C12.721 18.9932 12.5477 18.8857 12.3638 18.7959C12.1799 18.7053 11.9898 18.6342 11.7916 18.5808C11.5934 18.5284 11.3926 18.4955 11.1882 18.4831C10.9839 18.4698 10.7795 18.4769 10.5769 18.5036C10.3743 18.5311 10.1753 18.5782 9.98154 18.6439C9.78789 18.7106 9.60215 18.795 9.42532 18.8981C9.37466 18.9265 9.33204 18.9648 9.29739 19.011C9.26186 19.0572 9.23694 19.1078 9.22187 19.1646C9.20675 19.2206 9.20317 19.2775 9.2112 19.3352C9.2183 19.393 9.23694 19.4463 9.26625 19.497C9.29469 19.5476 9.33292 19.5903 9.37824 19.6258C9.42444 19.6605 9.47598 19.6863 9.53197 19.7013C9.58796 19.7156 9.64483 19.72 9.70258 19.712C9.75946 19.704 9.81363 19.6863 9.86341 19.6569C9.99134 19.5823 10.1247 19.5219 10.2641 19.4739C10.4036 19.4268 10.5467 19.393 10.6924 19.3735C10.839 19.3539 10.9856 19.3486 11.1323 19.3583C11.2797 19.3672 11.4246 19.3912 11.5668 19.4286C11.7098 19.4667 11.8467 19.5183 11.9791 19.5832C12.1115 19.648 12.2368 19.7254 12.354 19.8151C12.4713 19.9048 12.5789 20.0052 12.6757 20.1154C12.7735 20.2265 12.8596 20.3456 12.9334 20.4735L15.6604 25.1811C15.8568 25.5206 16.0185 25.8768 16.1446 26.2483C16.2708 26.6197 16.3588 27.0009 16.4095 27.3901C16.461 27.7793 16.4726 28.1702 16.4459 28.5621C16.4192 28.9531 16.3544 29.3387 16.2513 29.7172C16.2362 29.7741 16.2317 29.831 16.2397 29.8887C16.2468 29.9456 16.2646 29.9998 16.2939 30.0504C16.3223 30.1011 16.3597 30.1437 16.4059 30.1793C16.4512 30.2148 16.5028 30.2406 16.5587 30.2566C16.596 30.2664 16.6343 30.2717 16.6734 30.2726Z" fill="#4AB04A"/>
<path d="M9.97215 29.9278L9.54567 29.8274L9.97573 29.9109C10.0779 29.4836 10.1383 29.0508 10.157 28.6127C10.1765 28.1747 10.1543 27.7384 10.0903 27.3039C10.0255 26.8703 9.92061 26.4464 9.7758 26.0323C9.6301 25.6183 9.44706 25.222 9.22579 24.8434L8.21729 23.101C8.14975 22.9837 8.08484 22.8664 8.0227 22.7473C7.17144 21.1097 6.90661 19.138 7.2727 17.1956L8.38878 11.4253C8.39406 11.4013 8.39588 11.3764 8.39588 11.3515C8.39763 11.2795 8.40655 11.2084 8.42249 11.1383C8.43938 11.068 8.46342 10.9996 8.49449 10.9348C8.52556 10.8699 8.56379 10.8086 8.60824 10.7517C8.65268 10.6948 8.70239 10.6433 8.75751 10.5971C8.8135 10.5509 8.87301 10.5118 8.93697 10.478C9.001 10.4452 9.0676 10.4194 9.13784 10.4008C9.20714 10.382 9.2782 10.3714 9.3502 10.3679C9.42214 10.3643 9.49326 10.3687 9.56432 10.3812C9.68252 10.4052 9.79268 10.4487 9.89488 10.5109C9.99795 10.5731 10.0877 10.6513 10.1632 10.7437C10.2396 10.837 10.2982 10.9401 10.3382 11.0538C10.3792 11.1667 10.3996 11.284 10.4004 11.4039L9.20802 19.2099C9.20269 19.2659 9.20802 19.3211 9.22309 19.3752C9.2391 19.4285 9.26402 19.4783 9.29772 19.5227C9.33244 19.5672 9.37418 19.6036 9.42214 19.632C9.47104 19.6613 9.52257 19.6791 9.57857 19.688C9.63362 19.6969 9.68873 19.6942 9.74378 19.6818C9.7989 19.6693 9.84868 19.6462 9.89488 19.6143C9.94108 19.5823 9.98018 19.5423 10.0104 19.4952C10.0415 19.449 10.0628 19.3974 10.0743 19.3423L11.2703 11.5008C11.2722 11.4794 11.2722 11.4572 11.2703 11.4359C11.2713 11.3231 11.2632 11.2111 11.2455 11.1C11.2268 10.989 11.2002 10.8806 11.1629 10.7739C11.1264 10.6682 11.0802 10.566 11.026 10.4674C10.9709 10.3696 10.9078 10.2763 10.8377 10.1893C10.7665 10.1022 10.6884 10.0213 10.604 9.94754C10.5186 9.87385 10.4289 9.80806 10.332 9.75031C10.2361 9.69256 10.1357 9.64366 10.0308 9.6028C9.92595 9.56281 9.81848 9.53174 9.70825 9.5104C9.57675 9.48817 9.44436 9.4802 9.3111 9.48642C9.17871 9.49263 9.0472 9.51215 8.91833 9.54592C8.78952 9.58057 8.66599 9.62772 8.54691 9.6881C8.42783 9.74855 8.31678 9.82049 8.21371 9.90492C8.11064 9.98935 8.01736 10.0835 7.93381 10.1875C7.85026 10.2915 7.77832 10.4034 7.71875 10.5225C7.65925 10.6424 7.61305 10.7668 7.58015 10.8965C7.54726 11.0254 7.52774 11.1569 7.5224 11.2902L6.4259 17.0303C6.01718 19.1593 6.3104 21.3399 7.25317 23.1525C7.32072 23.2841 7.39177 23.4129 7.46641 23.5417L8.47585 25.2842C8.66774 25.613 8.82681 25.9577 8.95298 26.3176C9.07915 26.6775 9.17067 27.0453 9.22667 27.4229C9.28266 27.7997 9.30218 28.1791 9.28617 28.5594C9.26935 28.9406 9.21775 29.3165 9.12981 29.6879L9.54567 29.8283L9.97215 29.9278Z" fill="#4AB04A"/>
<path d="M27.281 22.8141C27.368 22.8141 27.4471 22.7901 27.52 22.743C27.5929 22.695 27.6462 22.6319 27.6808 22.552L29.0492 19.4527C29.0732 19.3993 29.0857 19.3434 29.0865 19.2856C29.0883 19.2278 29.0785 19.1709 29.0572 19.1168C29.0368 19.0625 29.0066 19.0146 28.9666 18.9728C28.9266 18.9302 28.8795 18.8973 28.827 18.8742C28.7737 18.8502 28.7187 18.8377 28.66 18.836C28.6022 18.8351 28.5463 18.8448 28.4921 18.8653C28.4378 18.8866 28.3899 18.9168 28.3481 18.9568C28.3055 18.9968 28.2735 19.0439 28.2495 19.0963L26.8811 22.2001C26.858 22.2534 26.8456 22.3094 26.8438 22.3671C26.8429 22.4258 26.8518 22.4817 26.8731 22.536C26.8935 22.5901 26.9247 22.6382 26.9646 22.6808C27.0046 22.7225 27.0508 22.7554 27.1041 22.7785C27.161 22.8025 27.2196 22.815 27.281 22.8141Z" fill="#4AB04A"/>
<path d="M21.6187 30.2743C21.6578 30.2743 21.696 30.269 21.7342 30.2583C21.7902 30.2432 21.8408 30.2174 21.887 30.1819C21.9332 30.1464 21.9705 30.1037 21.999 30.053C22.0274 30.0025 22.046 29.9482 22.0532 29.8905C22.0603 29.8327 22.0567 29.7758 22.0416 29.7199C21.9377 29.3405 21.8728 28.9557 21.8462 28.5638C21.8195 28.172 21.8319 27.781 21.8826 27.3918C21.9332 27.0018 22.0212 26.6214 22.1474 26.2491C22.2735 25.8777 22.4353 25.5214 22.6325 25.182L25.3613 20.4743C25.435 20.3464 25.5212 20.2273 25.619 20.1163C25.7167 20.0061 25.8234 19.9057 25.9407 19.8159C26.0579 19.7271 26.1832 19.6498 26.3147 19.5849C26.4471 19.5201 26.5848 19.4685 26.727 19.4303C26.8701 19.3921 27.014 19.369 27.1615 19.3592C27.3082 19.3503 27.4547 19.3548 27.6014 19.3743C27.7471 19.3939 27.8901 19.4276 28.0297 19.4756C28.1692 19.5227 28.3025 19.584 28.4295 19.6578C28.4802 19.6871 28.5344 19.7049 28.5912 19.7128C28.649 19.7209 28.7059 19.7164 28.7618 19.7022C28.8178 19.6871 28.8694 19.6622 28.9147 19.6267C28.9609 19.5911 28.9991 19.5485 29.0275 19.4978C29.0568 19.4481 29.0755 19.3939 29.0835 19.3361C29.0906 19.2783 29.0871 19.2215 29.0728 19.1655C29.0578 19.1095 29.0328 19.058 28.9973 19.0118C28.9627 18.9656 28.92 18.9274 28.8694 18.8989C28.6925 18.7959 28.5068 18.7106 28.3131 18.6448C28.1194 18.5782 27.9204 18.532 27.7178 18.5044C27.5143 18.4769 27.3108 18.4698 27.1064 18.4831C26.9021 18.4964 26.7003 18.5293 26.5031 18.5817C26.3049 18.6342 26.1139 18.7061 25.93 18.7959C25.746 18.8865 25.5728 18.994 25.4093 19.1184C25.2467 19.2428 25.0974 19.3823 24.9614 19.536C24.8264 19.6897 24.7073 19.8559 24.6043 20.0336L21.8755 24.7413C21.6489 25.1313 21.4641 25.5392 21.3192 25.9666C21.1744 26.3931 21.0722 26.8303 21.0144 27.2772C20.9558 27.7241 20.9424 28.1729 20.9727 28.6225C21.0038 29.073 21.0784 29.5155 21.1966 29.95C21.2223 30.046 21.2748 30.1233 21.353 30.1837C21.4321 30.2441 21.52 30.2743 21.6187 30.2743Z" fill="#4AB04A"/>
<path d="M28.7499 30.2459C28.7809 30.2459 28.8112 30.2423 28.8423 30.2353C28.8983 30.2237 28.9498 30.2024 28.9969 30.1704C29.044 30.1384 29.0831 30.0984 29.1142 30.0504C29.1453 30.0024 29.1657 29.9509 29.1755 29.894C29.1853 29.8381 29.1844 29.7821 29.1719 29.7261C29.0813 29.3529 29.0262 28.9735 29.0084 28.5896C28.9898 28.2058 29.0084 27.8228 29.0635 27.4425C29.1186 27.0622 29.2092 26.6899 29.3363 26.3274C29.4625 25.9639 29.6224 25.6165 29.8152 25.2842L30.8247 23.5417C30.8984 23.4164 30.9712 23.2841 31.0388 23.1525C31.9807 21.3399 32.2739 19.1655 31.8661 17.0303L30.7687 11.2902C30.7633 11.1569 30.7447 11.0254 30.7109 10.8965C30.678 10.7668 30.6318 10.6424 30.5723 10.5225C30.5128 10.4034 30.4408 10.2915 30.3581 10.1875C30.2746 10.0835 30.1813 9.98935 30.0774 9.90492C29.9743 9.82049 29.8633 9.74855 29.7442 9.6881C29.626 9.62772 29.5016 9.58057 29.3727 9.54592C29.2439 9.51215 29.1133 9.49263 28.98 9.48642C28.8467 9.4802 28.7143 9.48817 28.5837 9.5104C28.4735 9.53174 28.366 9.56193 28.2611 9.60192C28.1563 9.6419 28.0559 9.6908 27.9599 9.74767C27.8631 9.80542 27.7724 9.87027 27.688 9.94403C27.6027 10.0169 27.5246 10.0969 27.4543 10.1839C27.3832 10.2701 27.3202 10.3625 27.2651 10.4603C27.21 10.558 27.1638 10.6602 27.1264 10.766C27.0891 10.8717 27.0616 10.9801 27.0429 11.0911C27.0243 11.2022 27.0154 11.3133 27.0163 11.4253C27.0154 11.4475 27.0154 11.4688 27.0163 11.491L28.2132 19.3326C28.2221 19.3895 28.2416 19.4437 28.2718 19.4934C28.302 19.5431 28.3402 19.585 28.3864 19.6196C28.4336 19.6543 28.4851 19.6782 28.5419 19.6925C28.5979 19.7058 28.6548 19.7084 28.7125 19.6996C28.7694 19.6907 28.8227 19.6711 28.8725 19.6409C28.9222 19.6116 28.964 19.5725 28.9986 19.5254C29.0333 19.4792 29.0573 19.4268 29.0706 19.3708C29.0848 19.3139 29.0866 19.257 29.0777 19.1993L27.8871 11.3932C27.8879 11.2724 27.9084 11.156 27.9493 11.0423C27.9893 10.9294 28.0479 10.8264 28.1243 10.7331C28.1999 10.6398 28.2896 10.5625 28.3926 10.5002C28.4957 10.438 28.6059 10.3954 28.7232 10.3714C28.7943 10.3589 28.8654 10.3546 28.9382 10.3581C29.0102 10.3608 29.0804 10.3723 29.1506 10.391C29.2199 10.4096 29.2866 10.4354 29.3505 10.4683C29.4145 10.5011 29.4749 10.5411 29.53 10.5873C29.5851 10.6335 29.6358 10.6851 29.6802 10.7419C29.7237 10.7988 29.7619 10.8592 29.793 10.925C29.8241 10.9899 29.8481 11.0574 29.865 11.1276C29.881 11.1978 29.8899 11.2698 29.8917 11.3417C29.8917 11.3666 29.8943 11.3915 29.8988 11.4155L31.0024 17.1903C31.3773 19.1336 31.1099 21.1044 30.2587 22.7411C30.1964 22.8664 30.1342 22.9792 30.0641 23.0957L29.0546 24.8381C28.8343 25.2157 28.6521 25.6103 28.5072 26.0226C28.3624 26.4349 28.2576 26.8569 28.1936 27.2897C28.1296 27.7215 28.1065 28.156 28.1252 28.5923C28.1439 29.0295 28.2042 29.4605 28.3047 29.8852C28.3287 29.99 28.382 30.0753 28.4646 30.1429C28.5482 30.2104 28.6432 30.2442 28.7499 30.2459Z" fill="#4AB04A"/>
<mask id="mask1_11645_406" style="mask-type:luminance" maskUnits="userSpaceOnUse" x="20" y="29" width="11" height="4">
<path d="M20.0039 29.3906H30.0127V32.8739H20.0039V29.3906Z" fill="white"/>
</mask>
<g mask="url(#mask1_11645_406)">
<path d="M20.9718 32.8817H29.071C29.175 32.8817 29.2754 32.8612 29.3722 32.8212C29.4682 32.7812 29.5535 32.7244 29.6273 32.6506C29.701 32.576 29.7579 32.4907 29.7978 32.3947C29.8378 32.2978 29.8583 32.1974 29.8583 32.0926V30.1875C29.8583 30.0827 29.8378 29.9823 29.7978 29.8863C29.7579 29.7894 29.701 29.7041 29.6273 29.6304C29.5535 29.5557 29.4682 29.4989 29.3722 29.4589C29.2754 29.4189 29.175 29.3984 29.071 29.3984H24.9587C24.9037 29.4029 24.8512 29.4171 24.8015 29.4411C24.7517 29.4651 24.7081 29.4971 24.67 29.538C24.6326 29.5788 24.6042 29.625 24.5838 29.6766C24.5633 29.7281 24.5535 29.7814 24.5535 29.8365C24.5535 29.8925 24.5633 29.9458 24.5838 29.9973C24.6042 30.0489 24.6326 30.0951 24.67 30.1359C24.7081 30.1769 24.7517 30.2088 24.8015 30.2328C24.8512 30.2568 24.9037 30.271 24.9587 30.2755H28.9848V32.0037H21.0588V30.2755H23.3256C23.3806 30.271 23.4331 30.2568 23.4828 30.2328C23.5326 30.2088 23.5771 30.1769 23.6143 30.1359C23.6517 30.0951 23.681 30.0489 23.7005 29.9973C23.721 29.9458 23.7317 29.8925 23.7317 29.8365C23.7317 29.7814 23.721 29.7281 23.7005 29.6766C23.681 29.625 23.6517 29.5788 23.6143 29.538C23.5771 29.4971 23.5326 29.4651 23.4828 29.4411C23.4331 29.4171 23.3806 29.4029 23.3256 29.3984H20.9718C20.8669 29.3984 20.7665 29.4189 20.6705 29.4589C20.5737 29.4989 20.4884 29.5557 20.4147 29.6295C20.3409 29.7033 20.284 29.7886 20.244 29.8854C20.2032 29.9823 20.1836 30.0827 20.1836 30.1875V32.0926C20.1836 32.1974 20.2032 32.2978 20.244 32.3947C20.284 32.4915 20.3409 32.5768 20.4147 32.6506C20.4884 32.7244 20.5737 32.7812 20.6705 32.8212C20.7665 32.8621 20.8669 32.8817 20.9718 32.8817Z" fill="#4AB04A"/>
</g>
<mask id="mask2_11645_406" style="mask-type:luminance" maskUnits="userSpaceOnUse" x="8" y="29" width="11" height="4">
<path d="M8.40234 29.3906H18.1837V32.8738H8.40234V29.3906Z" fill="white"/>
</mask>
<g mask="url(#mask2_11645_406)">
<path d="M9.22264 32.8817H17.321C17.4259 32.8817 17.5263 32.8612 17.6222 32.8212C17.7191 32.7812 17.8035 32.7244 17.8772 32.6506C17.951 32.576 18.0087 32.4907 18.0487 32.3947C18.0887 32.2978 18.1083 32.1974 18.1083 32.0926V30.1875C18.1083 30.0827 18.0887 29.9823 18.0487 29.8863C18.0087 29.7894 17.951 29.7041 17.8772 29.6304C17.8035 29.5557 17.7191 29.4989 17.6222 29.4589C17.5263 29.4189 17.4259 29.3984 17.321 29.3984H15.3084C15.2533 29.4029 15.2009 29.4171 15.1512 29.4411C15.1014 29.4651 15.0578 29.4971 15.0196 29.538C14.9823 29.5788 14.9539 29.625 14.9335 29.6766C14.913 29.7281 14.9032 29.7814 14.9032 29.8365C14.9032 29.8925 14.913 29.9458 14.9335 29.9973C14.9539 30.0489 14.9823 30.0951 15.0196 30.1359C15.0578 30.1769 15.1014 30.2088 15.1512 30.2328C15.2009 30.2568 15.2533 30.271 15.3084 30.2755H17.2339V32.0037H9.3097V30.2755H13.4966C13.5517 30.271 13.6041 30.2568 13.6539 30.2328C13.7037 30.2088 13.7481 30.1769 13.7854 30.1359C13.8227 30.0951 13.8521 30.0489 13.8716 29.9973C13.8921 29.9458 13.9018 29.8925 13.9018 29.8365C13.9018 29.7814 13.8921 29.7281 13.8716 29.6766C13.8521 29.625 13.8227 29.5788 13.7854 29.538C13.7481 29.4971 13.7037 29.4651 13.6539 29.4411C13.6041 29.4171 13.5517 29.4029 13.4966 29.3984H9.22264C9.11781 29.3984 9.01737 29.4189 8.92052 29.4589C8.82454 29.4989 8.73929 29.5557 8.66554 29.6295C8.5909 29.7033 8.53403 29.7886 8.49404 29.8854C8.45406 29.9823 8.43359 30.0827 8.43359 30.1875V32.0926C8.43359 32.1974 8.45406 32.2978 8.49404 32.3947C8.53403 32.4915 8.5909 32.5768 8.66554 32.6506C8.73929 32.7244 8.82454 32.7812 8.92052 32.8212C9.01737 32.8621 9.11781 32.8817 9.22264 32.8817Z" fill="#4AB04A"/>
</g>
</svg>
