<svg width="49" height="45" viewBox="0 0 49 45" fill="none" xmlns="http://www.w3.org/2000/svg">
<mask id="mask0_11645_450" style="mask-type:luminance" maskUnits="userSpaceOnUse" x="4" y="2" width="40" height="41">
<path d="M43.2508 2.96875H4.89062V42.0394H43.2508V2.96875Z" fill="white"/>
</mask>
<g mask="url(#mask0_11645_450)">
<mask id="mask1_11645_450" style="mask-type:luminance" maskUnits="userSpaceOnUse" x="5" y="4" width="38" height="39">
<path d="M5.17188 4.30469H42.9881V42.1209H5.17188V4.30469Z" fill="white"/>
</mask>
<g mask="url(#mask1_11645_450)">
<path d="M27.3549 42.0239C27.2435 41.9011 27.2525 41.7117 27.3753 41.6004C29.9218 39.2933 31.9499 36.7826 33.4036 34.1403C34.7613 31.6719 35.6557 29.0193 36.0639 26.2541C36.0869 26.0903 36.2405 25.9764 36.403 26.0007C36.5668 26.025 36.6794 26.1773 36.6564 26.341C36.4951 27.4351 36.2584 28.5113 35.9513 29.5657C37.2475 29.8306 38.4708 30.2912 39.5905 30.9374C40.7754 31.6208 41.8784 32.5305 42.8675 33.6413C42.9789 33.7653 42.9674 33.9547 42.8445 34.0648C42.787 34.116 42.7153 34.1416 42.6449 34.1416C42.563 34.1416 42.4811 34.107 42.421 34.0405C41.474 32.9784 40.4209 32.1083 39.291 31.4569C38.211 30.8338 37.0287 30.3923 35.7747 30.1415C35.3025 31.6194 34.6857 33.0526 33.9295 34.4295C32.4426 37.1307 30.3735 39.6937 27.7772 42.0457C27.7195 42.0969 27.648 42.1224 27.5763 42.1224C27.4944 42.1224 27.4138 42.0892 27.3549 42.0239ZM27.4381 18.4024C29.3242 18.103 30.8917 18.4011 32.0971 19.2917C32.1508 19.3314 32.2136 19.3506 32.275 19.3506C32.3671 19.3506 32.458 19.3084 32.5168 19.2277C32.6141 19.0947 32.5859 18.9078 32.4529 18.8093C31.1131 17.8202 29.3933 17.4836 27.3446 17.8099C27.1809 17.8368 27.0695 17.9903 27.0964 18.1542C27.122 18.3167 27.2756 18.4293 27.4381 18.4024ZM5.23179 7.20588C5.17165 7.05103 5.24586 6.877 5.39942 6.81559C5.55297 6.75419 5.72828 6.82964 5.78842 6.98449L7.86394 12.2104C7.94201 12.4049 8.08912 12.5572 8.28107 12.6404C8.47302 12.7235 8.68548 12.7261 8.87996 12.6493C9.28042 12.4894 9.47624 12.0338 9.3176 11.632L6.58689 4.75413C6.52548 4.60058 6.60097 4.42656 6.75452 4.36513C6.90807 4.30371 7.0821 4.37921 7.14224 4.53276L9.06038 9.3607L9.8857 9.13805L8.14548 4.75413C8.08399 4.60058 8.15952 4.42656 8.31311 4.36513C8.46662 4.30371 8.64065 4.37921 8.70206 4.53276L11.0233 10.3818C11.3675 11.2469 12.3502 11.6704 13.214 11.3262C14.079 10.9833 14.5025 9.99921 14.1583 9.13419L12.4194 4.75413C12.3592 4.60058 12.4334 4.42656 12.5869 4.36513C12.7405 4.30371 12.9158 4.37921 12.9759 4.53276L14.3298 7.94036C15.6542 7.60895 17.0502 8.24746 17.6632 9.47585L21.8718 17.9085C24.9966 14.2335 27.5686 11.9967 29.5187 11.2584C32.6755 10.0632 36.1138 10.4574 38.4427 10.9986C40.9558 11.5821 42.7038 12.433 42.7767 12.4689C42.9252 12.5418 42.9866 12.721 42.9136 12.8694C42.8407 13.0178 42.6616 13.0793 42.5131 13.0076C42.444 12.973 35.5111 9.63071 29.7311 11.8188C27.8412 12.5341 25.296 14.7798 22.1635 18.492L23.4444 21.0576C23.8616 21.8957 23.9819 22.8234 23.8309 23.7038L26.0612 27.2215C26.4899 27.8984 26.6293 28.7007 26.4553 29.4825C26.2813 30.2643 25.8129 30.931 25.1373 31.3609C24.6408 31.6758 24.0855 31.8268 23.5366 31.8268C22.5449 31.8268 21.5736 31.3341 21.0029 30.4359L18.9658 27.2215C18.0253 27.0794 17.1679 26.6328 16.5064 25.9367C13.0246 30.9208 9.43149 36.743 6.6176 41.965C6.56386 42.0662 6.46149 42.1238 6.354 42.1238C6.30666 42.1238 6.25804 42.1109 6.21197 42.0866C6.06738 42.0085 6.01235 41.8269 6.09168 41.681C8.93623 36.4001 12.5741 30.51 16.0931 25.4825L6.59073 14.9424C6.53315 14.8771 6.50628 14.7913 6.51652 14.7044L6.91575 11.4452L5.23179 7.20588ZM22.0803 25.7179C22.9531 24.9297 23.3766 23.7857 23.2819 22.6584L23.0324 22.8094C22.6625 23.0333 22.248 23.1484 21.8257 23.1484C21.6338 23.1484 21.4393 23.1255 21.2473 23.0755C20.6357 22.9207 20.1226 22.5355 19.8039 21.9904L18.8238 20.3154C18.207 19.2623 18.4898 17.9341 19.4827 17.2252L20.4987 16.4983L20.0317 15.5617L18.6958 16.7683C18.2646 17.1586 17.7156 17.3697 17.1386 17.3697C17.0976 17.3697 17.0566 17.3685 17.0157 17.3672C16.3951 17.3353 15.8231 17.0626 15.4059 16.6007C14.6753 15.7894 14.6203 14.602 15.2038 13.7344L7.40712 14.9526L16.8711 25.4504C18.2339 26.963 20.5704 27.082 22.0803 25.7179ZM17.6453 12.1349C17.3509 12.7056 16.8954 13.1496 16.3413 13.4222L15.9766 13.7524C15.6337 14.062 15.4316 14.4868 15.4072 14.9488C15.3842 15.4107 15.5416 15.8547 15.8512 16.199C16.1609 16.5419 16.5858 16.744 17.0464 16.7671C17.5083 16.7901 17.9511 16.634 18.294 16.323L19.7527 15.0051L17.9229 11.3377C17.8692 11.6102 17.7783 11.879 17.6453 12.1349ZM22.5218 28.8465L22.6588 29.0615C22.9134 29.4633 23.447 29.5836 23.8488 29.3277C24.2505 29.073 24.3696 28.5382 24.1149 28.1364L23.978 27.9201C23.8539 27.7256 23.6632 27.5912 23.438 27.5413C23.2128 27.4902 22.9825 27.5311 22.788 27.6552C22.5935 27.778 22.4591 27.97 22.4092 28.1952C22.3581 28.4204 22.3989 28.6521 22.5218 28.8465ZM23.3472 26.9259L22.7176 25.9329C22.6421 26.0122 22.5641 26.089 22.4809 26.1632C22.1264 26.4844 21.7285 26.7377 21.3023 26.922L21.891 27.851C22.0036 27.5619 22.2019 27.3174 22.4668 27.1485C22.733 26.9796 23.0388 26.9041 23.3472 26.9259ZM23.6184 24.4882C23.493 24.8235 23.3241 25.1446 23.1156 25.4428L24.4834 27.599L24.6204 27.8152C25.0516 28.4959 24.8494 29.4019 24.1699 29.8344C23.9281 29.988 23.6569 30.0621 23.3894 30.0621C22.9057 30.0621 22.431 29.8216 22.1533 29.3827L20.7201 27.1242C20.3913 27.2112 20.0509 27.2598 19.7041 27.2675L21.5097 30.1146C22.2173 31.2317 23.7003 31.5631 24.8162 30.8542C25.3561 30.5113 25.7311 29.9777 25.8706 29.352C26.01 28.7262 25.8987 28.0839 25.5558 27.5426L23.6184 24.4882ZM22.9082 21.3263L21.5417 18.5867L21.5404 18.5854L20.7701 17.0422L19.8295 17.7127C19.0925 18.2412 18.8813 19.2291 19.3395 20.0122L20.3209 21.6871C20.5576 22.0928 20.939 22.3795 21.3945 22.4946C21.8487 22.6098 22.3209 22.5394 22.7227 22.2963L23.1719 22.0237C23.1092 21.7857 23.0209 21.5515 22.9082 21.3263ZM7.38025 12.584L7.15888 14.3845L15.3995 13.0972C16.143 12.9807 16.7687 12.5303 17.1129 11.8598C17.4584 11.1892 17.4636 10.4189 17.127 9.74333C16.651 8.79126 15.5838 8.28329 14.5524 8.50341L14.7149 8.91154C15.1807 10.085 14.6075 11.4183 13.4354 11.8841C13.1602 11.9941 12.8748 12.0466 12.5947 12.0466C11.6848 12.0466 10.8237 11.499 10.4679 10.6032L10.1084 9.6985L9.28303 9.92115L9.87418 11.4106C10.1557 12.1195 9.80891 12.9244 9.10134 13.206C8.9337 13.2725 8.7622 13.3045 8.5933 13.3045C8.09686 13.3045 7.62465 13.0344 7.38025 12.584ZM30.0164 32.3118C30.1354 32.3425 30.2609 32.2964 30.3325 32.1965C30.4042 32.0968 30.4081 31.9637 30.3428 31.8587C30.3338 31.8459 29.5021 30.5254 29.7631 29.5222C29.9755 28.7083 31.282 28.0596 31.767 27.8779C31.8809 27.8357 31.9576 27.7294 31.9627 27.6091C31.9666 27.4876 31.8988 27.3763 31.79 27.3251C31.7721 27.3174 29.9972 26.4831 29.3677 25.5746C28.733 24.6584 28.4298 22.3142 28.4272 22.2911C28.408 22.1414 28.2813 22.0288 28.1303 22.0288C27.9794 22.0288 27.8513 22.1414 27.8322 22.2911C27.6441 23.7588 27.1834 24.8337 26.4233 25.5759C26.3043 25.6924 26.3018 25.8817 26.4182 26.0007C26.5334 26.1184 26.7228 26.121 26.8417 26.0058C27.4087 25.4504 27.8284 24.7441 28.1073 23.8651C28.2762 24.5919 28.5283 25.4146 28.8764 25.9163C29.3587 26.6124 30.3479 27.233 30.9749 27.5797C30.3453 27.9035 29.4048 28.5177 29.1835 29.3699C28.9761 30.1632 29.2743 31.0487 29.5328 31.6105C28.7176 31.4953 27.3165 31.4313 26.5372 32.1748C25.7746 32.9042 25.5954 34.3259 25.5583 35.1614C24.9454 34.6931 23.8501 33.997 22.6971 33.9509C21.5634 33.9061 20.344 34.5011 19.6324 34.9209C19.7272 34.3578 19.8142 33.5811 19.6939 33.0552C19.4841 32.1275 18.6216 31.4493 18.5845 31.4198C18.4539 31.3187 18.2659 31.343 18.1647 31.4736C18.0636 31.6041 18.0867 31.7922 18.2172 31.8946C18.2249 31.8997 18.9478 32.4717 19.1104 33.1882C19.2524 33.8139 19.0131 35.0603 18.9082 35.4877C18.8788 35.6093 18.9287 35.7372 19.0336 35.8076C19.1385 35.878 19.2755 35.8741 19.3766 35.7999C19.3945 35.7872 21.1769 34.4858 22.6741 34.5498C24.1559 34.6086 25.6339 36.0034 25.6479 36.0175C25.7042 36.0712 25.7797 36.1007 25.8552 36.1007C25.8974 36.1007 25.9396 36.0917 25.9793 36.0737C26.0906 36.0226 26.1597 35.9087 26.1546 35.7858C26.1533 35.7628 26.051 33.4685 26.9506 32.6086C27.6812 31.9125 29.4112 32.1582 30.0164 32.3118Z" fill="#4AB04A" stroke="#4AB04A" stroke-width="0.355187"/>
</g>
</g>
</svg>
