<svg width="41" height="45" viewBox="0 0 41 45" fill="none" xmlns="http://www.w3.org/2000/svg">
<g opacity="0.8">
<path d="M9.89269 11.7153C9.3547 9.78137 9.89667 8.37725 11.4997 7.22365C13.2558 5.96014 15.1453 4.99271 17.2336 4.41046C18.6824 4.00646 19.9275 4.24312 20.8423 5.4284C21.2938 5.10559 21.7095 4.73426 22.1878 4.48176C22.8491 4.1332 23.575 4.16192 24.292 4.33917C26.6995 4.93627 28.8584 6.04827 30.7816 7.59003C31.9919 8.56044 32.3847 9.86554 32.0088 11.3825C31.9829 11.4875 31.9551 11.5925 31.9242 11.7172C33.034 11.9638 33.9777 12.4747 34.7077 13.3362C35.7836 14.6047 36.0959 16.0682 35.7598 17.6753C35.71 17.915 35.7518 18.0546 35.9179 18.2259C37.5328 19.8825 37.7566 22.3937 36.4638 24.3296C36.3385 24.5177 36.3196 24.6484 36.435 24.8554C37.7059 27.1348 37.0296 29.8817 34.8439 31.3175C34.643 31.4492 34.6162 31.566 34.651 31.7938C35.011 34.0891 33.5601 36.3933 31.3226 37.0756C31.0143 37.1696 30.8254 37.3261 30.6583 37.5964C28.4666 41.1434 23.227 41.0592 21.1357 37.4489C21.0691 37.333 21.0024 37.2182 20.9129 37.0627C20.8324 37.1924 20.7678 37.2895 20.7101 37.3905C18.578 41.1037 13.3056 41.1602 11.08 37.5023C10.9736 37.3271 10.7509 37.1736 10.551 37.1102C8.23001 36.3765 6.80201 34.102 7.16796 31.7096C7.18486 31.6017 7.10829 31.4264 7.0178 31.364C4.7505 29.7955 4.1081 27.2101 5.38793 24.8088C5.44461 24.7019 5.43367 24.4979 5.36705 24.3939C4.03352 22.3085 4.24931 19.9508 5.93785 18.1615C6.02834 18.0655 6.09099 17.8734 6.06414 17.7486C5.46748 14.9453 6.93427 12.5193 9.69977 11.7628C9.75745 11.7469 9.81612 11.7351 9.89368 11.7162L9.89269 11.7153ZM35.5271 25.3861C35.3769 25.4901 35.2466 25.5832 35.1134 25.6703C34.1915 26.2743 33.1802 26.5427 32.0794 26.4625C31.6528 26.4318 31.4608 26.2565 31.4728 25.9218C31.4837 25.5951 31.7124 25.4247 32.1201 25.4208C32.4414 25.4178 32.7725 25.4426 33.0838 25.3802C34.6768 25.0593 35.7458 24.1137 36.1366 22.5432C36.5265 20.9767 36.0462 19.6389 34.7832 18.6051C34.5555 18.419 34.5108 18.212 34.5764 17.9189C34.6937 17.3941 34.8369 16.8525 34.821 16.3227C34.7604 14.2076 32.867 12.3846 30.4495 12.7381C28.5402 13.0174 27.2584 14.5156 27.1629 16.4415C27.157 16.5623 27.1649 16.7346 27.0943 16.7911C26.9342 16.9158 26.7224 17.0664 26.5424 17.0535C26.254 17.0327 26.1327 16.7871 26.1228 16.4881C26.0472 14.1393 28.1007 11.8509 30.4644 11.6796C30.7399 11.6598 30.8602 11.5489 30.9408 11.3162C31.1287 10.7736 31.1595 10.2309 30.9915 9.6774C30.6703 8.61886 29.7355 7.86927 28.6486 7.80293C27.5169 7.7346 26.5036 8.38517 26.0452 9.4754C25.8741 9.88237 25.6206 10.0329 25.3203 9.90515C25.003 9.77048 24.9175 9.50114 25.0826 9.0902C25.5191 7.99998 26.3117 7.28604 27.4235 6.91768C27.507 6.88995 27.5885 6.85431 27.7447 6.7939C27.2047 6.54041 26.7473 6.28889 26.264 6.1067C25.5241 5.82845 24.7753 5.56406 24.0136 5.35612C22.5975 4.96993 21.434 5.87499 21.43 7.33654C21.4241 8.98326 21.4281 10.63 21.43 12.2767C21.43 12.3658 21.4489 12.4549 21.4629 12.5817C22.0744 12.049 22.7258 11.7648 23.5024 11.8123C23.9181 11.8371 24.1299 12.0054 24.1269 12.3351C24.124 12.6629 23.8992 12.8441 23.4925 12.8481C22.3797 12.8599 21.4291 13.8254 21.4291 14.9453C21.4291 21.4708 21.4291 27.9963 21.431 34.5218C21.431 34.7803 21.4519 35.0407 21.4887 35.2971C21.7791 37.335 23.3065 38.8332 25.3998 39.1451C27.2385 39.4184 29.1359 38.3678 30.0169 36.624C30.1114 36.4369 30.36 36.2458 30.5659 36.2062C32.7208 35.7893 34.0802 33.6504 33.5302 31.4997C33.4059 31.0125 33.4716 30.8709 33.925 30.6491C35.8443 29.7104 36.614 27.2329 35.5291 25.3851L35.5271 25.3861ZM6.27993 25.3851C6.22126 25.4901 6.16756 25.5723 6.12679 25.6594C5.27059 27.4814 6.06315 29.7421 7.87002 30.6362C8.34735 30.8719 8.41 31.0056 8.28172 31.5135C7.73975 33.6653 9.0872 35.7675 11.266 36.2072C11.4629 36.2468 11.6996 36.425 11.7911 36.6042C12.7556 38.4926 14.6212 39.4778 16.7234 39.0748C18.5243 38.7292 19.7266 37.6133 20.2089 35.8536C20.6922 34.0911 20.2765 32.5216 18.8764 31.2749C18.3374 30.7956 17.696 30.5164 16.9999 30.3421C16.6508 30.254 16.5036 30.0114 16.5713 29.7173C16.6429 29.4054 16.8935 29.2697 17.2614 29.347C17.334 29.3618 17.4056 29.3826 17.4762 29.4044C18.5283 29.7302 19.4422 30.2748 20.1791 31.1006C20.2288 31.1561 20.2934 31.1977 20.3859 31.2729V30.8105C20.3859 26.4149 20.3859 22.0194 20.3859 17.6229C20.3859 16.3405 19.5078 15.4325 18.227 15.3899C17.8958 15.379 17.689 15.1998 17.686 14.9047C17.682 14.577 17.87 14.3918 18.1803 14.3631C18.412 14.3423 18.6665 14.3264 18.8793 14.4007C19.3925 14.5789 19.8857 14.8097 20.3819 15.0176C20.3819 12.4312 20.4147 9.78236 20.367 7.13454C20.3451 5.91162 19.296 5.07192 18.1087 5.29175C16.7035 5.55218 15.3879 6.0958 14.128 6.78796C14.1578 6.82064 14.1697 6.84539 14.1886 6.85233C14.2582 6.87906 14.3288 6.89887 14.3994 6.92164C15.0637 7.13553 15.6564 7.47715 16.081 8.02969C16.3634 8.39706 16.5862 8.81889 16.7821 9.24072C16.9074 9.51104 16.8189 9.78533 16.5146 9.92297C16.2352 10.0487 15.9696 9.92297 15.8215 9.60808C15.7688 9.49619 15.731 9.37836 15.6763 9.26745C15.0657 8.01681 13.5701 7.46329 12.3002 8.01582C11.0074 8.57826 10.3819 10.025 10.8742 11.3162C10.9448 11.5034 11.0144 11.6549 11.2749 11.6766C12.6572 11.7965 13.7789 12.4262 14.6381 13.5006C15.3412 14.3799 15.6872 15.3988 15.6842 16.5267C15.6842 16.8554 15.4476 17.1 15.1602 17.0792C14.8449 17.0565 14.665 16.8772 14.651 16.5524C14.648 16.491 14.6471 16.4287 14.6431 16.3673C14.5128 14.1363 12.6353 12.4213 10.2875 12.7292C7.81533 13.054 6.3565 15.5424 7.21469 17.8863C7.33204 18.2071 7.24851 18.4239 6.9989 18.6299C5.76482 19.6518 5.29843 20.9737 5.67035 22.5105C6.03829 24.0305 7.04664 24.9989 8.59297 25.3416C8.97384 25.4257 9.37957 25.4 9.77435 25.4198C10.1194 25.4366 10.3372 25.6277 10.3352 25.9317C10.3322 26.2595 10.1512 26.4466 9.83004 26.4496C9.39747 26.4536 8.96091 26.4575 8.5343 26.3991C7.695 26.2842 6.96112 25.903 6.27794 25.3841L6.27993 25.3851Z" fill="#4AB04A"/>
<path d="M28.3289 21.0445C28.7177 22.1318 29.7509 22.9101 30.8587 22.9734C31.3161 22.9992 31.5985 23.2467 31.5259 23.5795C31.4593 23.8874 31.2525 24.028 30.9303 24.0171C29.556 23.9716 28.5367 23.3091 27.764 22.2159C27.583 21.9595 26.0993 20.7207 25.8478 20.5504C25.3476 20.2137 24.8493 19.8662 24.3939 19.473C24.0299 19.1582 24.013 18.8086 24.2567 18.5749C24.5053 18.3373 24.8016 18.3997 25.1437 18.7601C26.9953 20.7118 30.1357 20.291 31.3609 17.9263C31.687 17.2966 31.8183 16.6252 31.7785 15.9182C31.7636 15.6528 31.865 15.431 32.1216 15.3716C32.2777 15.3349 32.4886 15.3845 32.6278 15.4706C32.7292 15.533 32.7958 15.7162 32.8078 15.8509C33.0176 18.2303 31.2584 20.5256 28.9076 20.9495C28.7256 20.9821 28.5417 21.0089 28.3289 21.0435V21.0445Z" fill="#4AB04A"/>
<path d="M28.444 29.7775C28.6777 29.7775 28.8984 29.7696 29.1182 29.7795C29.4871 29.7953 29.68 29.9696 29.688 30.2795C29.6959 30.5925 29.4782 30.7935 29.1112 30.8242C28.7055 30.8588 28.2878 30.8529 27.897 30.9519C26.5396 31.2965 25.7819 32.262 25.3742 33.5354C25.2429 33.9443 25.1872 34.377 25.1087 34.8018C25.0321 35.2088 24.8362 35.4029 24.514 35.3653C24.1878 35.3276 24.0227 35.0534 24.0705 34.6385C24.2505 33.0858 24.7974 31.7124 26.0593 30.7123C26.3656 30.4697 26.7196 30.2607 27.0846 30.1261C27.3879 30.0152 27.4008 29.8389 27.3809 29.5963C27.2427 27.8822 26.3109 26.7692 24.7367 26.1662C24.3589 26.0216 23.9521 25.9434 23.5534 25.8652C23.1397 25.784 22.9537 25.6127 22.9836 25.278C23.0124 24.9512 23.2431 24.775 23.6628 24.8304C25.9271 25.1295 28.2898 26.6118 28.4221 29.625C28.4241 29.6716 28.435 29.7181 28.444 29.7795V29.7775Z" fill="#4AB04A"/>
<path d="M14.7553 21.6454C12.3418 21.3255 10.7358 19.8491 10.3082 17.5637C10.2386 17.1914 10.2594 16.8003 10.2654 16.4181C10.2704 16.1071 10.4782 15.9517 10.7706 15.9309C11.049 15.9111 11.2698 16.1418 11.2937 16.4497C11.3215 16.8181 11.2986 17.1974 11.3752 17.5548C11.6815 18.9926 12.5526 19.9729 13.9478 20.4126C15.341 20.8522 16.6148 20.5532 17.7127 19.5739C17.833 19.4669 17.9364 19.3431 18.0508 19.2293C18.2775 19.0045 18.5261 18.9708 18.7807 19.1718C19.0184 19.36 19.0373 19.665 18.8135 19.9293C18.1284 20.7393 17.2612 21.2671 16.23 21.5087C16.0053 21.5612 15.9068 21.6573 15.8193 21.8593C15.2336 23.2109 14.3117 24.2011 12.8191 24.5457C12.6152 24.5932 12.4034 24.616 12.1946 24.6329C11.8336 24.6616 11.5761 24.4764 11.5373 24.1764C11.4965 23.8654 11.7073 23.6189 12.1081 23.5941C13.3044 23.5208 14.1069 22.8861 14.6588 21.8731C14.6926 21.8108 14.7145 21.7414 14.7553 21.6444V21.6454Z" fill="#4AB04A"/>
<path d="M11.5858 31.0733C11.6305 30.0039 11.895 29.0286 12.5374 28.2077C13.5368 26.9313 14.9052 26.2966 16.4933 26.1134C16.7757 26.0807 16.9984 26.25 17.0362 26.559C17.075 26.8818 16.9179 27.0897 16.5967 27.1353C15.7644 27.2551 14.9917 27.5185 14.2846 27.9839C13.1997 28.6978 12.7264 29.7356 12.6488 30.9862C12.6409 31.109 12.7323 31.315 12.8298 31.3546C14.58 32.0705 15.4441 33.4647 15.8409 35.2233C15.9006 35.4877 15.9394 35.758 15.9662 36.0284C16.001 36.3799 15.8041 36.6383 15.4978 36.674C15.2154 36.7067 15.0116 36.5027 14.929 36.164C14.7719 35.5194 14.6665 34.849 14.407 34.245C13.7934 32.8171 12.6409 32.1398 11.0955 32.1061C11.009 32.1042 10.9215 32.1081 10.835 32.1022C10.5287 32.0814 10.3517 31.914 10.3368 31.611C10.3218 31.3011 10.5098 31.1189 10.7972 31.0793C11.0398 31.0456 11.2914 31.0724 11.5828 31.0724L11.5858 31.0733Z" fill="#4AB04A"/>
</g>
</svg>
