<svg width="159" height="50" viewBox="0 0 159 50" fill="none" xmlns="http://www.w3.org/2000/svg">
<path d="M57.249 30.1695L60.4194 16.9248H63.7668L66.7774 30.1695H64.121L63.4654 26.814H60.5611L59.9057 30.1695H57.249ZM60.9506 24.8715H63.0761L62.4033 21.1097C62.2798 20.4916 62.2259 19.8909 62.1551 19.2735C62.1377 18.973 62.1022 18.6733 62.0664 18.3904H62.0311C61.9953 18.6733 61.9606 18.973 61.9422 19.2735C61.8716 19.8911 61.819 20.4916 61.6947 21.1097L60.9506 24.8715Z" fill="#007AC2"/>
<path d="M70.1957 16.9248H67.8936V30.1698H70.1957V16.9248Z" fill="#007AC2"/>
<path d="M71.9307 16.9248H74.2328V20.1034C74.2328 20.4215 74.1975 20.7391 74.1801 21.2165H74.2149C74.6755 20.2622 75.2951 19.9268 76.2698 19.9449C77.7572 19.9796 78.6077 20.7391 78.6608 23.4766V27.0796C78.6077 28.6685 78.2178 30.4349 76.2698 30.4349C75.3135 30.3818 74.6755 30.0994 74.162 29.1102H74.1267V30.1703H71.9307V16.9248ZM74.233 26.9024C74.233 28.0499 74.6049 28.6683 75.3488 28.6683C76.0574 28.6683 76.3053 27.909 76.3585 26.9552V23.6349C76.2874 22.6462 76.3937 21.7105 75.3138 21.7105C74.2333 21.7105 74.198 23.1233 74.2333 23.9183V26.9024H74.233Z" fill="#007AC2"/>
<path d="M79.8649 23.6353C79.7583 21.2865 80.963 19.9446 83.2299 19.9446C86.4358 19.9446 86.7725 21.6046 86.7725 24.3245V25.6657H82.167V27.1142C82.1852 28.4212 82.6811 28.6687 83.3715 28.6687C84.2217 28.6687 84.4696 28.0504 84.4341 26.7968H86.7369C86.8256 29.0225 85.9041 30.4348 83.5489 30.4348C80.8925 30.4348 79.812 29.1808 79.8652 26.2491V23.6353H79.8649ZM84.4699 23.9006V23.0348C84.4522 22.0282 84.1866 21.7107 83.2654 21.7107C82.1146 21.7107 82.1673 22.5936 82.1673 23.4943V23.9006H84.4699Z" fill="#007AC2"/>
<path d="M90.7207 21.9754H90.7563C91.0397 21.2516 91.323 20.8453 91.6596 20.5626C92.3148 20.0154 92.7578 20.0501 93.0936 20.0327V22.7526C91.8189 22.6284 90.8442 22.9468 90.8094 24.4126V30.1699H88.5068V20.2093H90.7207V21.9754Z" fill="#007AC2"/>
<path d="M98.8672 30.2048C97.5043 30.3636 95.5907 30.4872 95.5907 28.633V21.8872H94.6523V20.2096H95.5731V17.4722H97.8936V20.2099H98.867V21.8875H97.8936V28.0681C97.9467 28.492 98.5838 28.4398 98.867 28.4033L98.8672 30.2048Z" fill="#007AC2"/>
<path d="M104.588 30.1699C104.429 29.8513 104.411 29.4988 104.446 29.1456H104.411C103.88 29.9757 103.171 30.4348 102.392 30.4348C100.532 30.4348 99.7178 29.4988 99.7178 27.4498C99.7178 25.1722 101.329 24.6245 103.136 23.8825C104.11 23.4772 104.464 23.0355 104.27 22.2229C104.162 21.7815 103.809 21.7109 103.189 21.7109C102.144 21.7109 101.967 22.2586 101.985 23.1589H99.7888C99.7709 21.2697 100.39 19.9453 103.278 19.9453C106.412 19.9453 106.607 21.5873 106.572 22.8943V28.7747C106.572 29.2513 106.642 29.7111 106.766 30.1702H104.588V30.1699ZM104.27 24.9247C103.703 25.3134 103.012 25.7016 102.409 26.1966C102.074 26.479 102.02 26.9735 102.02 27.3968C102.02 28.1564 102.25 28.6687 103.101 28.6687C104.464 28.6687 104.216 26.9556 104.27 26.0026V24.9247Z" fill="#007AC2"/>
<path d="M113.105 30.1698V16.9248H115.585V22.1695H119.057V16.9248H121.536V30.1698H119.057V24.1122H115.585V30.1698H113.105Z" fill="#007AC2"/>
<path d="M123.289 23.6353C123.182 21.2865 124.387 19.9446 126.654 19.9446C129.86 19.9446 130.196 21.6046 130.196 24.3245V25.6657H125.591V27.1142C125.609 28.4212 126.104 28.6687 126.795 28.6687C127.645 28.6687 127.893 28.0504 127.858 26.7968H130.161C130.249 29.0225 129.328 30.4348 126.973 30.4348C124.316 30.4348 123.236 29.1808 123.289 26.2491V23.6353H123.289ZM127.894 23.9006V23.0348C127.876 22.0282 127.611 21.7107 126.689 21.7107C125.538 21.7107 125.592 22.5936 125.592 23.4943V23.9006H127.894Z" fill="#007AC2"/>
<path d="M136.484 30.1699C136.324 29.8513 136.306 29.4988 136.342 29.1456H136.306C135.775 29.9757 135.067 30.4348 134.287 30.4348C132.428 30.4348 131.612 29.4988 131.612 27.4498C131.612 25.1722 133.225 24.6245 135.032 23.8825C136.005 23.4772 136.359 23.0355 136.165 22.2229C136.058 21.7815 135.704 21.7109 135.084 21.7109C134.039 21.7109 133.862 22.2586 133.88 23.1589H131.684C131.666 21.2697 132.286 19.9453 135.173 19.9453C138.308 19.9453 138.503 21.5873 138.467 22.8943V28.7747C138.467 29.2513 138.537 29.7111 138.662 30.1702H136.484V30.1699ZM136.165 24.9247C135.598 25.3134 134.907 25.7016 134.305 26.1966C133.968 26.479 133.915 26.9735 133.915 27.3968C133.915 28.1564 134.145 28.6687 134.995 28.6687C136.359 28.6687 136.111 26.9556 136.165 26.0026V24.9247Z" fill="#007AC2"/>
<path d="M142.628 16.9248H140.326V30.1698H142.628V16.9248Z" fill="#007AC2"/>
<path d="M148.047 30.2048C146.683 30.3636 144.77 30.4872 144.77 28.633V21.8872H143.832V20.2096H144.753V17.4722H147.072V20.2099H148.047V21.8875H147.072V28.0681C147.126 28.492 147.763 28.4398 148.047 28.4033L148.047 30.2048Z" fill="#007AC2"/>
<path d="M149.234 30.1698V16.9248H151.537V21.2336H151.573C152.228 20.0683 153.148 19.9449 153.645 19.9449C154.955 19.9449 156.018 20.704 155.947 22.4876V30.1698H153.645V23.3527C153.645 22.3818 153.538 21.7457 152.67 21.71C151.803 21.6751 151.502 22.4876 151.537 23.5474V30.1698H149.234Z" fill="#007AC2"/>
<path d="M63.3593 37.2649C63.3771 36.0815 63.2706 34.9159 61.9068 34.9159C61.0743 34.9159 60.5434 35.2506 60.5434 36.1523C60.5434 37.1586 61.1806 37.5475 61.96 38.0418C62.7749 38.5536 64.2802 39.5433 64.9707 40.2141C65.8211 41.0443 66.0869 41.8385 66.0869 42.9865C66.0869 45.4938 64.4219 46.8008 61.9955 46.8008C59.0201 46.8008 57.957 45.1408 57.957 42.7749V41.8038H60.4368V42.5807C60.3839 43.8699 60.7732 44.8056 61.9955 44.8056C63.0402 44.8056 63.5364 44.2576 63.5364 43.2513C63.5364 42.4739 63.1819 41.9448 62.5443 41.5036C61.2519 40.4968 59.6398 39.7724 58.6301 38.4478C58.2229 37.8475 57.9928 37.1234 57.9928 36.4171C57.9928 34.1568 59.2681 32.9204 61.8889 32.9204C65.8385 32.9204 65.7322 35.9578 65.75 37.2649H63.3593Z" fill="#00B374"/>
<path d="M67.5036 39.9493C67.3972 37.5998 68.6019 36.2583 70.8685 36.2583C74.0742 36.2583 74.4109 37.9176 74.4109 40.6385V41.9804H69.8057V43.4279C69.8238 44.7352 70.3194 44.9824 71.0104 44.9824C71.8603 44.9824 72.1088 44.3643 72.0727 43.1103H74.3753C74.4638 45.3354 73.5428 46.7483 71.187 46.7483C68.5306 46.7483 67.4501 45.4947 67.5036 42.5631V39.9493ZM72.1088 40.2143V39.3488C72.0909 38.3422 71.825 38.0244 70.904 38.0244C69.753 38.0244 69.8057 38.907 69.8057 39.8078V40.2143H72.1088Z" fill="#00B374"/>
<path d="M78.3594 38.2892H78.3952C78.6787 37.5648 78.9619 37.159 79.2983 36.8761C79.954 36.3286 80.3967 36.3643 80.7328 36.3462V39.0663C79.4578 38.9427 78.4831 39.2603 78.4481 40.7258V46.4836H76.1455V36.5231H78.3594V38.2892Z" fill="#00B374"/>
<path d="M82.1846 36.5232H84.6646L85.6382 42.1038C85.8333 43.0041 85.9217 44.576 85.9572 45.0526H85.9925C86.0283 44.576 86.1167 43.0041 86.3115 42.1038L87.3038 36.5232H89.6944L87.392 46.4832H84.523L82.1846 36.5232Z" fill="#00B374"/>
<path d="M91.1807 33.2383H93.483V35.3219H91.1807V33.2383ZM91.1807 36.523H93.483V46.4833H91.1807V36.523Z" fill="#00B374"/>
<path d="M99.2568 39.9849V38.8724C99.2216 38.3244 98.9557 38.0239 98.4601 38.0239C97.5743 38.0239 97.5743 39.0307 97.5922 40.2493V42.5978C97.5393 44.541 97.7694 44.8942 98.4601 44.9819C99.1686 44.9646 99.1863 44.3113 99.2568 43.5164V42.5978H101.559V43.5164C101.559 45.6005 100.691 46.7478 98.4069 46.7478C96.3704 46.7478 95.2009 45.6709 95.2899 43.0221V39.7905C95.2723 36.9998 96.6536 36.2578 98.4069 36.2578C100.727 36.2578 101.578 37.7063 101.559 39.1892V39.9847L99.2568 39.9849Z" fill="#00B374"/>
<path d="M103.223 39.9493C103.117 37.5998 104.321 36.2583 106.588 36.2583C109.794 36.2583 110.131 37.9176 110.131 40.6385V41.9804H105.526V43.4279C105.544 44.7352 106.04 44.9824 106.73 44.9824C107.58 44.9824 107.828 44.3643 107.793 43.1103H110.096C110.184 45.3354 109.263 46.7483 106.908 46.7483C104.251 46.7483 103.17 45.4947 103.223 42.5631V39.9493H103.223ZM107.828 40.2143V39.3488C107.811 38.3422 107.545 38.0244 106.624 38.0244C105.473 38.0244 105.526 38.907 105.526 39.8078V40.2143H107.828Z" fill="#00B374"/>
<path d="M113.956 43.1985C113.779 45.0354 114.487 44.9822 115.019 44.9822C115.675 44.9822 116.134 44.5058 115.975 43.8699C115.939 43.3053 115.284 42.9867 114.841 42.6864L113.584 41.8214C112.433 41.0264 111.689 40.1083 111.689 38.6779C111.689 37.1415 112.912 36.2583 115.125 36.2583C117.357 36.2583 118.384 37.4241 118.331 39.5606H116.029C116.082 38.448 115.763 38.0241 114.966 38.0241C114.416 38.0241 113.992 38.2719 113.992 38.8367C113.992 39.4196 114.417 39.6847 114.859 39.9849L116.737 41.256C117.321 41.5915 118.242 42.5452 118.313 43.2166C118.508 44.947 118.083 46.7488 114.895 46.7488C113.673 46.7488 111.388 46.2362 111.654 43.1988H113.956V43.1985Z" fill="#00B374"/>
<path d="M17.8347 16.9517H4.01074V31.5866H17.8347V16.9517Z" fill="#007AC2"/>
<path d="M48.8567 16.9517H35.0303V31.5866H48.8567V16.9517Z" fill="#007AC2"/>
<path d="M33.7169 32.9302H19.04V46.7149H33.7169V32.9302Z" fill="#007AC2"/>
<path d="M19.1738 3.17993V22.3345L26.6446 31.6081H33.7033V3.17993H19.1738Z" fill="#00B374"/>
</svg>
