<svg width="140" height="52" viewBox="0 0 140 52" fill="none" xmlns="http://www.w3.org/2000/svg">
<g clip-path="url(#clip0_3306_5772)">
<path d="M11.4329 15.6185H2.20793L8.30631 36.0748H16.1966L18.2171 29.1331L20.304 36.0748H28.1648L31.1734 26.8388L31.8223 29.6421C32.4934 32.5412 37.1391 37.4986 44.1297 37.2404C49.8742 37.0265 52.315 34.7765 55.2646 30.815L55.2794 36.0822H71.5393C74.924 35.883 77.3943 33.0134 77.4091 30.188C77.4238 26.8388 75.9195 25.4962 73.2353 24.493C74.7396 22.8405 75.3517 22.4422 75.3517 20.0594C75.3517 17.3963 73.0583 15.6406 69.5261 15.6111C68.3094 15.6037 58.2585 15.6111 55.3236 15.6111V21.5496C52.2707 17.1086 50.1839 15.0062 44.1666 15.0062C41.158 15.0062 37.9723 15.884 35.6864 17.9275C35.3545 18.2225 32.9727 21.0479 32.9727 21.0479L34.3074 15.6111H24.6621L22.966 21.7487L21.1078 15.6111H14.9651L13.1732 22.1471L11.4477 15.6111M75.8679 23.9028C77.999 25.2897 79.024 27.6356 79.0092 30.2027C78.9945 33.906 75.8089 37.4691 71.5835 37.6978H53.6792V35.2412C47.2416 40.9289 35.6937 39.8592 31.1513 32.1208L29.3373 37.6978H19.1315L18.2614 34.7986L17.4133 37.6978H7.13383L0.0546875 14.0029H12.6644L13.188 15.9947L13.7337 14.0029H22.2876L22.8849 15.9873L23.4306 14.0029H36.3427L35.9223 15.7144C38.3484 14.1136 41.2612 13.3906 44.1518 13.3906C48.6943 13.3906 51.7029 14.8291 53.7087 16.7767V14.0029C53.7087 14.0029 68.0956 13.9882 69.5261 14.0029C73.4639 14.0324 76.9371 16.1054 76.9371 20.0668C76.9371 21.3209 76.8929 22.4643 75.8605 23.9028H75.8679Z" fill="#003B77"/>
<path d="M47.5165 28.8579C46.7422 30.2005 45.3927 30.9899 43.8073 30.9899C40.4742 30.9899 39.3828 27.862 39.3828 26.1211C39.3828 20.0277 46.8602 19.7769 47.8483 23.694L47.074 23.0965H55.215L55.2814 28.8653H47.5165M46.226 23.9375C45.1936 21.8055 40.9904 22.2629 40.9904 26.1211C40.9904 27.5301 41.8384 29.3743 43.8146 29.3743C45.3706 29.3743 45.9974 28.4891 46.4767 27.2424H53.6665L53.637 24.7194H46.4988C46.4988 24.7194 46.285 24.0481 46.2334 23.9375H46.226Z" fill="#003B77"/>
<path d="M64.7721 21.2562V22.2373H66.092C66.092 22.2373 66.1363 22.2373 66.2026 22.2226C66.4386 22.1857 66.7041 22.1193 66.7041 21.8242C66.7041 21.4701 66.4312 21.3373 66.1363 21.2709L66.0552 21.2562H64.7721ZM63.1719 19.6406H66.1436C66.1436 19.6406 66.3132 19.6554 66.5124 19.6996C67.5226 19.9431 68.3043 20.6808 68.3043 21.8242C68.3043 23.0857 67.2203 23.8529 66.0994 23.8529H63.1719V19.6406Z" fill="#003B77"/>
<path d="M64.8415 28.7787V29.8484L67.1053 29.8263C67.1053 29.8263 67.1865 29.8263 67.2602 29.8263C67.5994 29.7968 67.8649 29.7156 67.8575 29.3025C67.8575 28.8894 67.4077 28.7861 67.0832 28.7787H64.8341M63.2266 27.1558H67.0832C70.2688 27.1558 70.2541 31.5672 67.0685 31.4418L63.2561 31.4713L63.2266 27.1484V27.1558Z" fill="#003B77"/>
<path d="M89.3438 13.4062H90.4572L91.4454 17.7439H91.4601L92.3598 13.4062H93.8051L94.7342 17.7439H94.749L95.7445 13.4062H96.7769L95.3979 18.8283H94.0337L93.075 14.4907H93.0603L92.1164 18.8283H90.7448L89.3438 13.4062Z" fill="#003B77"/>
<path d="M99.1598 18.113C99.9415 18.113 100.148 17.3975 100.148 16.7262C100.148 16.1139 99.8309 15.5385 99.1598 15.5385C98.4888 15.5385 98.1791 16.1286 98.1791 16.7262C98.1791 17.3901 98.3855 18.113 99.1598 18.113ZM99.1598 14.7344C100.318 14.7344 101.21 15.5311 101.21 16.8589C101.21 18.0098 100.458 18.9245 99.1598 18.9245C97.862 18.9245 97.1172 18.0098 97.1172 16.8589C97.1172 15.5385 98.0021 14.7344 99.1598 14.7344Z" fill="#003B77"/>
<path d="M102.031 14.8303H102.93V15.7376H102.945C102.989 15.3614 103.41 14.7344 104.014 14.7344C104.11 14.7344 104.221 14.7344 104.324 14.7639V15.8114C104.236 15.7598 104.051 15.7229 103.867 15.7229C103.041 15.7229 103.041 16.7778 103.041 17.3532V18.8212H102.023V14.8303" fill="#003B77"/>
<path d="M104.984 13H106.002V16.4303H106.017L107.233 14.8295H108.428L106.975 16.6147L108.612 18.8278H107.322L106.017 16.8877H106.002V18.8278H104.984V13Z" fill="#003B77"/>
<path d="M111.629 16.4385C111.599 15.9294 111.371 15.5016 110.803 15.5016C110.235 15.5016 109.947 15.9073 109.903 16.4385H111.629ZM112.314 18.6073C111.946 18.8212 111.518 18.9245 110.972 18.9245C109.682 18.9245 108.93 18.1647 108.93 16.8516C108.93 15.6934 109.527 14.7344 110.744 14.7344C112.189 14.7344 112.602 15.7524 112.602 17.154H109.903C109.947 17.7958 110.39 18.1647 111.017 18.1647C111.511 18.1647 111.938 17.9802 112.314 17.7589V18.6073Z" fill="#003B77"/>
<path d="M113.414 14.8303H114.313V15.7376H114.328C114.372 15.3614 114.793 14.7344 115.397 14.7344C115.493 14.7344 115.604 14.7344 115.707 14.7639V15.8114C115.618 15.7598 115.434 15.7229 115.25 15.7229C114.424 15.7229 114.424 16.7778 114.424 17.3532V18.8212H113.406V14.8303" fill="#003B77"/>
<path d="M118.668 15.6639C118.358 15.5532 118.129 15.4942 117.753 15.4942C117.481 15.4942 117.156 15.5975 117.156 15.9368C117.156 16.5712 118.926 16.1729 118.926 17.6188C118.926 18.5483 118.115 18.9245 117.289 18.9245C116.905 18.9245 116.507 18.8507 116.138 18.7548L116.197 17.8991C116.515 18.0614 116.846 18.1647 117.2 18.1647C117.458 18.1647 117.871 18.0614 117.871 17.6778C117.871 16.8958 116.102 17.427 116.102 15.9811C116.102 15.118 116.839 14.7344 117.635 14.7344C118.115 14.7344 118.424 14.8155 118.741 14.8819L118.675 15.6639" fill="#003B77"/>
<path d="M119.932 13.4062H121.038L120.338 15.3464H119.445L119.932 13.4062Z" fill="#003B77"/>
<path d="M93.7241 28.2723C93.3407 28.3609 92.9204 28.442 92.5148 28.442C90.7966 28.442 89.6094 27.5641 89.6094 25.7273C89.6094 23.8904 90.7155 22.8281 92.5148 22.8281C92.8614 22.8281 93.3259 22.9019 93.7168 23.0568L93.643 23.9716C93.2448 23.7355 92.8761 23.6839 92.5 23.6839C91.4087 23.6839 90.7229 24.5396 90.7229 25.6535C90.7229 26.7674 91.3865 27.5863 92.5222 27.5863C92.9425 27.5863 93.4365 27.4904 93.6799 27.3576L93.7241 28.265" fill="#003B77"/>
<path d="M96.2145 27.6438C96.9962 27.6438 97.2026 26.9283 97.2026 26.257C97.2026 25.6447 96.8855 25.0693 96.2145 25.0693C95.5435 25.0693 95.2338 25.6594 95.2338 26.257C95.2338 26.9209 95.4402 27.6438 96.2145 27.6438ZM96.2145 24.2578C97.3722 24.2578 98.2645 25.0545 98.2645 26.3824C98.2645 27.5332 97.5123 28.4479 96.2145 28.4479C94.9167 28.4479 94.1719 27.5332 94.1719 26.3824C94.1719 25.0619 95.0568 24.2578 96.2145 24.2578Z" fill="#003B77"/>
<path d="M99.0391 24.3541H99.9903V24.9148H100.005C100.322 24.4279 100.787 24.2656 101.163 24.2656C101.708 24.2656 102.099 24.4722 102.313 24.9738C102.549 24.4943 103.058 24.2656 103.537 24.2656C104.503 24.2656 104.776 24.9443 104.776 25.8369V28.3598H103.758V25.9771C103.758 25.6009 103.758 25.0771 103.176 25.0771C102.498 25.0771 102.416 25.9033 102.416 26.4197V28.3598H101.399V25.9771C101.399 25.6009 101.399 25.0771 100.816 25.0771C100.138 25.0771 100.057 25.9033 100.057 26.4197V28.3598H99.0391V24.3541Z" fill="#003B77"/>
<path d="M106.822 26.3455C106.822 26.9135 107.043 27.6438 107.714 27.6438C108.385 27.6438 108.57 26.8988 108.57 26.3455C108.57 25.7922 108.385 25.0693 107.729 25.0693C107.073 25.0693 106.822 25.7848 106.822 26.3455ZM105.797 24.3537H106.77V24.9217H106.785C107.014 24.5308 107.397 24.2578 108.002 24.2578C109.204 24.2578 109.639 25.2389 109.639 26.3381C109.639 27.4373 109.196 28.4479 107.98 28.4479C107.545 28.4479 107.191 28.3373 106.837 27.8947H106.822V29.9823H105.804V24.3463L105.797 24.3537Z" fill="#003B77"/>
<path d="M112.886 25.9619C112.857 25.4529 112.628 25.0176 112.061 25.0176C111.493 25.0176 111.205 25.4234 111.161 25.9619H112.886ZM113.572 28.1307C113.204 28.3373 112.776 28.4479 112.23 28.4479C110.94 28.4479 110.188 27.6881 110.188 26.375C110.188 25.2168 110.785 24.2578 112.002 24.2578C113.447 24.2578 113.86 25.2758 113.86 26.6775H111.161C111.205 27.3266 111.648 27.6881 112.274 27.6881C112.768 27.6881 113.196 27.5037 113.572 27.2824V28.1307Z" fill="#003B77"/>
<path d="M114.656 24.3541H115.622V24.9H115.637C115.954 24.4427 116.389 24.2656 116.92 24.2656C117.842 24.2656 118.247 24.9369 118.247 25.8369V28.3598H117.23V26.2205C117.23 25.7336 117.23 25.0697 116.574 25.0697C115.836 25.0697 115.681 25.8886 115.681 26.3976V28.3525H114.664V24.3468" fill="#003B77"/>
<path d="M121.614 25.1951C121.304 25.0845 121.075 25.0255 120.706 25.0255C120.434 25.0255 120.109 25.1287 120.109 25.4681C120.109 26.1025 121.879 25.7041 121.879 27.15C121.879 28.0869 121.068 28.4557 120.242 28.4557C119.851 28.4557 119.46 28.3894 119.092 28.2861L119.151 27.4303C119.468 27.5926 119.807 27.6959 120.153 27.6959C120.412 27.6959 120.824 27.5926 120.824 27.209C120.824 26.4271 119.055 26.9582 119.055 25.5123C119.055 24.6492 119.792 24.2656 120.589 24.2656C121.068 24.2656 121.378 24.3468 121.695 24.4132L121.628 25.1951" fill="#003B77"/>
<path d="M124.022 27.6881C124.331 27.6881 124.575 27.5479 124.737 27.334C124.907 27.1053 124.951 26.8176 124.951 26.5078H124.508C124.051 26.5078 123.38 26.5816 123.38 27.2012C123.38 27.5406 123.66 27.6881 124.022 27.6881ZM122.834 24.5603C123.225 24.3758 123.756 24.2578 124.191 24.2578C125.386 24.2578 125.873 24.7594 125.873 25.9471V26.4562C125.873 26.8619 125.88 27.1643 125.887 27.4594C125.887 27.7619 125.909 28.0422 125.932 28.352H125.039C125.002 28.1455 125.002 27.8799 124.995 27.7545H124.98C124.744 28.1971 124.235 28.4479 123.778 28.4479C123.085 28.4479 122.414 28.0201 122.414 27.2602C122.414 26.6627 122.694 26.3086 123.078 26.1168C123.469 25.925 123.963 25.8807 124.39 25.8807H124.951C124.951 25.2389 124.671 25.0176 124.073 25.0176C123.638 25.0176 123.21 25.1873 122.864 25.4529L122.834 24.5603Z" fill="#003B77"/>
<path d="M127.205 25.1073H126.453V24.3474H127.205V23.5507L128.223 23.2188V24.3548H129.123V25.1146H128.223V26.981C128.223 27.3203 128.311 27.6449 128.702 27.6449C128.887 27.6449 129.056 27.608 129.167 27.5343L129.196 28.3605C128.982 28.4195 128.746 28.4564 128.444 28.4564C127.648 28.4564 127.205 27.9548 127.205 27.1581V25.122" fill="#003B77"/>
<path d="M129.844 22.625H130.861V23.6209H129.844V22.625ZM129.844 24.3512H130.861V28.3569H129.844V24.3512Z" fill="#003B77"/>
<path d="M133.722 27.6438C134.504 27.6438 134.71 26.9283 134.71 26.257C134.71 25.6447 134.393 25.0693 133.722 25.0693C133.051 25.0693 132.742 25.6594 132.742 26.257C132.742 26.9209 132.948 27.6438 133.722 27.6438ZM133.722 24.2578C134.88 24.2578 135.772 25.0545 135.772 26.3824C135.772 27.5332 135.02 28.4479 133.722 28.4479C132.424 28.4479 131.68 27.5332 131.68 26.3824C131.68 25.0619 132.565 24.2578 133.722 24.2578Z" fill="#003B77"/>
<path d="M136.57 24.3541H137.536V24.9H137.551C137.868 24.4427 138.303 24.2656 138.834 24.2656C139.756 24.2656 140.161 24.9369 140.161 25.8369V28.3598H139.144V26.2205C139.144 25.7336 139.136 25.0697 138.488 25.0697C137.75 25.0697 137.595 25.8886 137.595 26.3976V28.3525H136.578V24.3468" fill="#003B77"/>
<path d="M90.9447 34.6515H91.3798C91.8296 34.6515 92.3826 34.5482 92.3826 33.9875C92.3826 33.3605 91.8443 33.3089 91.3576 33.3089H90.9447V34.6441M90.9447 37.0268H91.4461C91.9402 37.0268 92.5375 36.9014 92.5375 36.2744C92.5375 35.5662 91.9771 35.4556 91.4461 35.4556H90.9447V37.0268ZM89.8828 32.4531H91.7337C92.4195 32.4531 93.4445 32.6523 93.4445 33.8474C93.4445 34.4892 93.0168 34.9465 92.39 35.0572V35.072C93.1127 35.1383 93.6067 35.64 93.6067 36.3113C93.6067 37.6834 92.4048 37.8826 91.7411 37.8826H89.8902V32.4531H89.8828Z" fill="#003B77"/>
<path d="M96.2145 37.1677C96.9962 37.1677 97.2026 36.4521 97.2026 35.7808C97.2026 35.1686 96.8855 34.5932 96.2145 34.5932C95.5435 34.5932 95.2338 35.1833 95.2338 35.7808C95.2338 36.4448 95.4402 37.1677 96.2145 37.1677ZM96.2145 33.7891C97.3722 33.7891 98.2645 34.5858 98.2645 35.9136C98.2645 37.0644 97.5123 37.9792 96.2145 37.9792C94.9167 37.9792 94.1719 37.0644 94.1719 35.9136C94.1719 34.5932 95.0568 33.7891 96.2145 33.7891Z" fill="#003B77"/>
<path d="M100.42 37.212C100.729 37.212 100.973 37.0718 101.135 36.8579C101.305 36.6292 101.349 36.3415 101.349 36.0317H100.906C100.449 36.0317 99.7781 36.1128 99.7781 36.7251C99.7781 37.0644 100.058 37.212 100.42 37.212ZM99.225 34.0915C99.6232 33.9071 100.147 33.7891 100.582 33.7891C101.776 33.7891 102.263 34.2907 102.263 35.4784V35.9948C102.263 36.4005 102.271 36.703 102.278 36.998C102.278 37.3005 102.3 37.5808 102.322 37.8907H101.43C101.393 37.6767 101.393 37.4185 101.386 37.2931H101.371C101.135 37.7357 100.626 37.9866 100.169 37.9866C99.4757 37.9866 98.8047 37.5587 98.8047 36.7989C98.8047 36.2013 99.0849 35.8472 99.4684 35.6554C99.8592 35.4636 100.353 35.4194 100.781 35.4194H101.341C101.341 34.7776 101.061 34.5563 100.464 34.5563C100.029 34.5563 99.6011 34.7259 99.2545 34.9915L99.225 34.0989V34.0915Z" fill="#003B77"/>
<path d="M103.296 33.8772H104.196V34.7845H104.211C104.255 34.4083 104.675 33.7812 105.28 33.7812C105.376 33.7812 105.487 33.7812 105.59 33.8108V34.8583C105.501 34.8066 105.317 34.7698 105.133 34.7698C104.307 34.7698 104.307 35.8247 104.307 36.4001V37.8681H103.289V33.8624" fill="#003B77"/>
<path d="M107.894 37.1669C108.573 37.1669 108.787 36.4366 108.787 35.8686C108.787 35.3006 108.528 34.5924 107.872 34.5924C107.216 34.5924 107.032 35.3301 107.032 35.8686C107.032 36.4071 107.223 37.1669 107.887 37.1669M108.831 37.4325H108.816C108.514 37.8235 108.093 37.9784 107.621 37.9784C106.427 37.9784 105.984 36.9678 105.984 35.8686C105.984 34.7694 106.427 33.7883 107.621 33.7883C108.13 33.7883 108.484 33.9653 108.787 34.3489H108.801V32.0547H109.819V37.8825H108.831V37.4325Z" fill="#003B77"/>
</g>
<defs>
<clipPath id="clip0_3306_5772">
<rect width="140" height="52" fill="white"/>
</clipPath>
</defs>
</svg>
