<svg width="139" height="52" viewBox="0 0 139 52" fill="none" xmlns="http://www.w3.org/2000/svg">
<path d="M9.8323 29.7786C9.8323 29.1832 10.1648 29.0916 10.7348 29.4122C11.7798 29.9618 12.9197 30.5573 12.9197 30.5573C12.9672 30.2366 13.2522 29.9618 13.8697 30.0992C14.4397 30.2366 15.1047 30.374 15.1047 30.374C15.1047 30.374 14.7722 29.5954 14.5822 29.2748C14.2972 28.6336 14.5822 28.3588 14.8672 28.2672C14.8672 28.2672 14.4872 27.9924 14.2022 27.8092C13.6322 27.4427 13.7747 27.0305 14.2972 26.8015C15.0572 26.4809 16.0072 26.0687 16.0072 26.0687C15.7222 25.8855 15.3422 25.4275 15.7697 24.8779C16.1497 24.3282 16.7197 23.5954 16.7197 23.5954H15.0097C14.3922 23.5954 14.2497 23.0916 14.2497 22.771C14.2497 22.771 13.2522 23.458 12.5397 23.916C11.9223 24.3282 11.3998 23.916 11.4948 23.229C11.6373 22.1756 11.7798 20.9847 11.7798 20.9847C11.3998 21.2137 10.7823 21.2137 10.4973 20.6183C10.0223 19.8397 9.4998 18.7863 9.4998 18.7863C9.4998 18.7863 9.02481 19.7939 8.59732 20.6641C8.31233 21.2595 7.64734 21.2595 7.31485 21.0305C7.31485 21.0305 7.45735 22.2214 7.59984 23.2748C7.69484 23.9618 7.12485 24.3282 6.55486 23.9618C5.84238 23.5038 4.8449 22.8168 4.8449 22.8168C4.8449 23.1374 4.7024 23.6412 4.08492 23.6412H2.37495C2.37495 23.6412 2.94494 24.4198 3.32493 24.9237C3.70492 25.4733 3.37243 25.9313 3.08744 26.1145C3.08744 26.1145 4.03742 26.5267 4.7974 26.8473C5.36739 27.0763 5.50989 27.4427 4.8924 27.855C4.60741 28.0382 4.22741 28.313 4.22741 28.313C4.51241 28.4046 4.7974 28.6794 4.51241 29.3206C4.36991 29.6412 3.98992 30.4198 3.98992 30.4198C3.98992 30.4198 4.6549 30.2824 5.22489 30.145C5.84238 30.0076 6.17487 30.2824 6.17487 30.6031C6.17487 30.6031 7.26735 30.0076 8.31233 29.458C8.88232 29.1374 9.21481 29.2748 9.21481 29.8244V31.1985C9.21481 32.0229 9.07231 32.9389 8.73982 33.3969C4.6549 32.9847 1.28247 29.8702 1.28247 25.7481C1.28247 21.4885 4.9874 18.0076 9.4998 18.0076C14.0597 18.0076 17.7171 21.4427 17.7171 25.7023C17.7171 29.687 14.5347 32.9389 10.4023 33.3511V34.4046C15.2472 33.9924 18.9996 30.2366 18.9996 25.7023C19.0471 20.8931 14.7722 17 9.4998 17C4.27491 17 0 20.8931 0 25.7481C0 30.0076 3.27743 33.5344 7.69484 34.313C8.45483 34.4504 8.88232 34.542 9.30981 35C9.7848 34.1756 9.8798 32.4351 9.8798 31.4275V29.7786H9.8323Z" fill="#D82F2E"/>
<path d="M47.5349 30.6959V20.3548H52.0829C54.5176 20.3548 55.6202 21.47 55.6661 22.9401C55.7121 23.5991 55.5742 24.2581 55.1608 24.765C54.7473 25.2719 54.5636 25.4747 53.7826 25.8802L57.2281 30.6959H54.6555L51.6235 26.4378H49.5562V30.6959H47.5349ZM49.6021 25.0184H50.5209C53.0476 25.0184 53.5529 24.5622 53.5529 23.1935C53.5529 21.8756 52.4504 21.6728 50.7966 21.6728H49.5562V25.0184H49.6021ZM27 30.6959L31.0886 20.3548H33.5693L37.612 30.6959H35.0853L33.9828 27.9078H29.6645L28.5619 30.6959H27ZM30.2158 26.5392H33.4774L31.8696 22.4332L30.2158 26.5392ZM40.5521 20.3548H42.7572V30.6959H40.5521V20.3548ZM72.9852 30.341C71.9286 30.7972 70.6423 31 69.1263 31C67.2888 31 65.8187 30.4931 64.808 29.53C63.7514 28.5668 63.2461 27.1982 63.2461 25.4747C63.2461 23.7005 63.7514 22.3825 64.808 21.4194C65.8646 20.4562 67.3347 20 69.2641 20C70.5045 20 71.7449 20.1521 72.9393 20.4055V22.0783C71.5611 21.6221 70.2748 21.4194 69.356 21.4194C68.1616 21.4194 67.2428 21.7742 66.5997 22.4332C65.9565 23.1429 65.6349 24.106 65.6349 25.424C65.6349 26.6912 65.9565 27.6544 66.6915 28.3641C67.3806 29.0737 68.3454 29.4286 69.5857 29.4286C70.6883 29.4286 71.9286 29.1751 73.0312 28.6682V30.341H72.9852ZM75.6497 30.6959L79.7383 20.3548H82.219L86.2617 30.6959H83.735L82.6325 27.9078H78.3142L77.2116 30.6959H75.6497ZM78.8655 26.5392H82.1271L80.5193 22.4332L78.8655 26.5392ZM102.708 30.6959L106.797 20.3548H109.277L113.32 30.6959H110.793L109.691 27.9078H105.372L104.27 30.6959H102.708ZM105.924 26.5392H109.185L107.578 22.4332L105.924 26.5392ZM128.388 30.6959L132.477 20.3548H134.957L139 30.6959H136.473L135.371 27.9078H131.052L129.95 30.6959H128.388ZM131.604 26.5392H134.865L133.258 22.4332L131.604 26.5392ZM91.9122 20.3548L97.7924 27.7051V20.3548H99.5841V30.6959H97.2871L91.1772 22.9401V30.6959H89.3856V20.3548H91.9122ZM116.444 30.6959V20.3548H120.992C122.6 20.3548 123.84 20.8111 124.713 21.6221C125.586 22.4839 125.999 23.7005 125.999 25.2719C125.999 26.9954 125.54 28.3134 124.621 29.2258C123.702 30.1889 122.416 30.6452 120.762 30.6452H116.444V30.6959ZM118.603 29.2258H120.211C121.359 29.2258 122.186 28.9217 122.783 28.3134C123.335 27.7051 123.61 26.7419 123.656 25.4747C123.656 24.5115 123.427 23.6498 122.967 22.9908C122.646 22.5346 122.278 22.2304 121.865 22.0276C121.405 21.8756 120.808 21.7742 119.935 21.7742H118.603V29.2258Z" fill="black"/>
</svg>
