<svg width="140" height="52" viewBox="0 0 140 52" fill="none" xmlns="http://www.w3.org/2000/svg">
<path fill-rule="evenodd" clip-rule="evenodd" d="M85.5506 40.5911C78.2219 45.8777 67.5994 48.6983 58.4535 48.6983C45.6295 48.6983 34.0846 44.0563 25.3504 36.3361C24.6643 35.7288 25.2792 34.9015 26.1026 35.3744C35.5284 40.7416 47.1831 43.9704 59.222 43.9704C67.3413 43.9704 76.2731 42.3264 84.4857 38.9149C85.7263 38.3991 86.7638 39.71 85.5506 40.5911Z" fill="#FF9900"/>
<path fill-rule="evenodd" clip-rule="evenodd" d="M88.0831 36.7993C87.1483 35.5822 81.8806 36.2242 79.5161 36.5089C78.7959 36.5983 78.686 35.9618 79.3347 35.5041C83.5302 32.5061 90.4144 33.3714 91.2172 34.3763C92.02 35.3868 91.0083 42.3933 87.0657 45.7374C86.4609 46.2511 85.8835 45.9775 86.1529 45.2963C87.0383 43.0521 89.0233 38.022 88.0831 36.7993Z" fill="#FF9900"/>
<path fill-rule="evenodd" clip-rule="evenodd" d="M80.1178 15.1488V12.2842C80.1178 11.8506 80.4437 11.5598 80.8347 11.5598H93.5268C93.9342 11.5598 94.2601 11.856 94.2601 12.2842V14.7372C94.2546 15.1488 93.9125 15.6866 93.3043 16.5372L86.7274 26.0257C89.1713 25.9654 91.7509 26.333 93.9668 27.5953C94.4664 27.8806 94.6022 28.2977 94.6402 28.7092V31.766C94.6402 32.183 94.184 32.6715 93.7061 32.4191C89.8012 30.3502 84.6147 30.1252 80.2971 32.441C79.8571 32.6825 79.3955 32.1996 79.3955 31.7825V28.8794C79.3955 28.413 79.4009 27.6172 79.8625 26.9093L87.4822 15.8678H80.8509C80.4437 15.8678 80.1178 15.5769 80.1178 15.1488ZM33.8189 33.0227H29.9574C29.5881 32.9953 29.2949 32.7154 29.2677 32.3587V12.3336C29.2677 11.9329 29.5989 11.6146 30.0117 11.6146H33.6124C33.9872 11.631 34.2859 11.922 34.3131 12.284V14.9019H34.3837C35.3232 12.372 37.0882 11.1923 39.467 11.1923C41.8837 11.1923 43.3936 12.372 44.4798 14.9019C45.414 12.372 47.5375 11.1923 49.8131 11.1923C51.4314 11.1923 53.202 11.8673 54.2827 13.3819C55.5046 15.0666 55.2549 17.5142 55.2549 19.6599L55.2494 32.2984C55.2494 32.6991 54.9181 33.0228 54.5054 33.0228H50.6494C50.2639 32.9955 49.9542 32.6827 49.9542 32.2984V21.6849C49.9542 20.8397 50.0303 18.7323 49.8456 17.9312C49.5578 16.5866 48.6943 16.2079 47.5754 16.2079C46.6413 16.2079 45.6637 16.839 45.2672 17.8489C44.8709 18.8587 44.9089 20.5488 44.9089 21.6849V32.2983C44.9089 32.6989 44.5775 33.0227 44.1648 33.0227H40.3088C39.9178 32.9953 39.6136 32.6825 39.6136 32.2983L39.6082 21.6849C39.6082 19.4513 39.9721 16.1642 37.2295 16.1642C34.4543 16.1642 34.5628 19.3689 34.5628 21.6849V32.2983C34.5628 32.6989 34.2316 33.0227 33.8189 33.0227ZM105.187 11.1921C110.917 11.1921 114.018 16.164 114.018 22.4861C114.018 28.594 110.591 33.4399 105.187 33.4399C99.5606 33.4399 96.4976 28.4678 96.4976 22.272C96.4976 16.0378 99.5987 11.1921 105.187 11.1921ZM105.22 15.2805C102.374 15.2805 102.195 19.1989 102.195 21.6409C102.195 24.0886 102.157 29.3129 105.187 29.3129C108.18 29.3129 108.321 25.0983 108.321 22.5299C108.321 20.8397 108.25 18.8201 107.745 17.2178C107.311 15.8238 106.447 15.2805 105.22 15.2805ZM121.448 33.0227H117.602C117.217 32.9953 116.907 32.6825 116.907 32.2983L116.902 12.2677C116.934 11.9 117.255 11.6146 117.646 11.6146H121.225C121.562 11.631 121.839 11.8617 121.915 12.1744V15.2367H121.985C123.066 12.4982 124.581 11.1921 127.248 11.1921C128.98 11.1921 130.669 11.8231 131.756 13.5518C132.766 15.1542 132.766 17.8489 132.766 19.7861V32.3916C132.722 32.7428 132.402 33.0227 132.022 33.0227H128.149C127.796 32.9953 127.503 32.7318 127.465 32.3916V21.5147C127.465 19.3251 127.715 16.12 125.048 16.12C124.109 16.12 123.245 16.7567 122.816 17.7226C122.273 18.9465 122.202 20.1647 122.202 21.5148V32.2983C122.197 32.6989 121.86 33.0227 121.448 33.0227ZM69.9999 23.4575C69.9999 24.9775 70.038 26.2453 69.2775 27.5951C68.6639 28.6929 67.6864 29.3677 66.6055 29.3677C65.1229 29.3677 64.2539 28.2264 64.2539 26.5416C64.2539 23.2159 67.203 22.6123 69.9999 22.6123V23.4575ZM73.8938 32.9678C73.6387 33.1983 73.2694 33.2148 72.9816 33.0611C71.6998 31.9855 71.4663 31.4861 70.7657 30.4599C68.6476 32.6441 67.1433 33.2971 64.4006 33.2971C61.1474 33.2971 58.622 31.272 58.622 27.2167C58.622 24.0501 60.3165 21.8934 62.7387 20.8397C64.8351 19.9068 67.7624 19.7421 70 19.4842V18.9794C70 18.0519 70.0705 16.9543 69.5274 16.1531C69.0604 15.4342 68.1587 15.1378 67.3605 15.1378C65.8886 15.1378 64.5798 15.9006 64.2594 17.4811C64.1942 17.8324 63.9389 18.1781 63.586 18.1946L59.844 17.7885C59.5291 17.7171 59.176 17.4592 59.2683 16.9708C60.1265 12.383 64.2322 11 67.9037 11C69.7828 11 72.2376 11.5049 73.7203 12.9428C75.5993 14.7154 75.4201 17.0805 75.4201 19.6544V25.7348C75.4201 27.5624 76.1697 28.3634 76.8756 29.3513C77.1202 29.7026 77.1743 30.1252 76.8594 30.3885C76.0719 31.0526 74.6706 32.2873 73.8995 32.9788L73.8941 32.9678M19.3779 23.4575C19.3779 24.9775 19.4159 26.2453 18.6555 27.5951C18.0419 28.6929 17.0697 29.3677 15.9835 29.3677C14.5009 29.3677 13.6373 28.2264 13.6373 26.5416C13.6373 23.2159 16.5864 22.6123 19.3779 22.6123V23.4575ZM23.2718 32.9678C23.0167 33.1983 22.6474 33.2148 22.3595 33.0611C21.0778 31.9855 20.8496 31.4861 20.1437 30.4599C18.0255 32.6441 16.5267 33.2971 13.7785 33.2971C10.5309 33.2971 8 31.272 8 27.2167C8 24.0501 9.69993 21.8934 12.1166 20.8397C14.2131 19.9068 17.1403 19.7421 19.3779 19.4842V18.9794C19.3779 18.0519 19.4485 16.9543 18.9108 16.1531C18.4383 15.4342 17.5368 15.1378 16.7438 15.1378C15.2721 15.1378 13.9578 15.9006 13.6373 17.4811C13.5722 17.8324 13.3169 18.1781 12.9693 18.1946L9.22195 17.7885C8.90692 17.7171 8.55945 17.4592 8.64629 16.9708C9.50979 12.383 13.6102 11 17.2816 11C19.1605 11 21.6154 11.5049 23.0981 12.9428C24.9771 14.7154 24.7979 17.0805 24.7979 19.6544V25.7348C24.7979 27.5624 25.5474 28.3634 26.2535 29.3513C26.5034 29.7026 26.5576 30.1252 26.2426 30.3885C25.4551 31.0526 24.054 32.2873 23.2828 32.9788L23.2718 32.9678Z" fill="black"/>
</svg>
