<svg width="178" height="52" viewBox="0 0 178 52" fill="none" xmlns="http://www.w3.org/2000/svg">
<g clip-path="url(#clip0_3306_5769)">
<g clip-path="url(#clip1_3306_5769)">
<path d="M69.6416 38.6403C64.5701 38.6403 59.8624 37.0978 56.72 34.237C54.3459 32.0757 53.2051 29.14 53.2051 26.1184C53.2051 23.1336 54.3951 20.1776 56.7197 18.0277C59.6381 15.33 64.7905 13.6406 69.6416 13.6406C75.01 13.6406 79.3067 15.0121 82.5913 18.0351C84.9283 20.1862 86.0582 23.129 86.0582 26.1187C86.0582 29.0165 84.8592 32.1025 82.5913 34.237C79.5327 37.1163 74.726 38.6403 69.6416 38.6403V35.343C72.3334 35.343 74.8303 34.4004 76.5741 32.6405C78.3059 30.8927 79.1127 28.7442 79.1127 26.1184C79.1127 23.6029 78.2423 21.2511 76.5741 19.5831C74.8537 17.8643 72.2971 16.8971 69.6416 16.8971C66.978 16.8971 64.4197 17.8543 62.6978 19.5831C61.0386 21.2506 60.166 23.6092 60.166 26.1184C60.166 28.6199 61.0488 30.9771 62.6978 32.6408C64.4211 34.3796 66.9704 35.343 69.6416 35.343V38.6403ZM32.5742 13.6526C29.8614 13.6526 26.7794 14.1673 24.1607 15.3534C21.7439 16.4472 19.7656 18.2162 19.7656 21.1488C19.7645 23.79 21.4195 25.3368 21.3745 25.2941C22.0784 25.9513 23.2117 27.0704 26.1744 27.7277C27.4985 28.0214 30.3294 28.4725 33.1486 28.7713C35.9469 29.0707 38.7008 29.3552 39.8225 29.6432C40.7136 29.8733 42.2106 30.1867 42.2106 31.8901C42.2106 33.5866 40.6335 34.1044 40.3594 34.2168C40.0856 34.3265 38.1936 35.207 34.7926 35.207C32.2816 35.207 29.2629 34.4412 28.1625 34.042C26.8941 33.5841 25.5635 32.9784 24.3224 31.4407C24.0137 31.0595 23.5268 30.011 23.5268 28.9729H20.4488V37.7208H23.87V36.5389C23.87 36.4043 24.0359 35.8509 24.6102 36.114C25.3249 36.4434 27.4226 37.2905 29.6159 37.755C31.4143 38.1365 32.5739 38.41 34.8097 38.41C38.4576 38.41 40.4173 37.8072 41.7721 37.4148C43.0484 37.0442 44.6255 36.3787 45.9065 35.3425C46.6004 34.7822 48.1218 33.346 48.1218 30.739C48.1218 28.2366 46.7977 26.6835 46.3319 26.2111C45.6974 25.5672 44.9223 25.0682 44.1147 24.6836C43.411 24.3477 42.3006 23.9442 41.392 23.7187C39.6285 23.2796 35.641 22.7378 33.7341 22.5354C31.7345 22.3235 28.2657 22.0321 26.8803 21.5973C26.4603 21.4653 25.604 21.0515 25.604 20.0433C25.604 19.3262 25.9956 18.7183 26.7696 18.227C27.9981 17.4463 30.4796 16.961 33.0662 16.961C36.1243 16.9496 38.714 17.6587 40.3614 18.4058C40.9216 18.6596 41.5772 19.024 42.0979 19.4551C42.6854 19.941 43.5102 20.9506 43.8085 22.3589H46.572V14.7441H43.4863V15.6292C43.4863 15.9149 43.1954 16.2861 42.6452 15.9793C41.2643 15.2445 37.3601 13.6592 32.5737 13.6526M100.194 15.0364L115.246 28.814L115.092 19.5378C115.076 18.3214 114.855 17.8136 113.558 17.8136H110.728V15.0386H123.598V17.8136H120.837C119.515 17.8136 119.431 18.2427 119.415 19.5378L119.648 37.2626H115.241L97.9039 21.5688L97.9076 32.7067C97.9227 33.9174 97.9787 34.4876 99.2086 34.4876H102.3V37.2614H89.6602V34.4879H92.6148C93.7185 34.4879 93.6747 33.4207 93.6747 32.6437V19.6433C93.6747 18.8041 93.5586 17.8156 91.8257 17.8156H89.4283V15.0364H100.194ZM138.305 34.4825C138.425 34.4825 138.962 34.4668 139.066 34.4346C139.364 34.3405 139.565 34.1255 139.658 33.9014C139.698 33.8073 139.718 33.391 139.718 33.3006L139.72 28.9153C139.72 28.8098 139.712 28.7641 139.536 28.5292C139.342 28.2726 131.651 19.4334 131.3 19.0442C130.862 18.5609 130.095 17.8138 128.929 17.8138H126.254V15.0378H141.347V17.8104H139.528C139.107 17.8104 138.827 18.2153 139.187 18.6653C139.187 18.6653 144.265 24.8262 144.313 24.8906C144.36 24.9562 144.4 24.9719 144.465 24.912C144.529 24.8507 149.67 18.7217 149.711 18.6732C149.956 18.3761 149.79 17.8136 149.263 17.8136H147.396V15.0378H159.766V17.8136H157.002C156 17.8136 155.592 18.0018 154.838 18.8666C154.493 19.2623 146.72 28.2603 146.509 28.5041C146.398 28.6316 146.408 28.8092 146.408 28.9147V33.2995C146.408 33.3885 146.427 33.8053 146.467 33.8988C146.56 34.1241 146.763 34.3391 147.06 34.432C147.164 34.4645 147.694 34.4805 147.814 34.4805H150.641V37.256H135.626V34.4802L138.305 34.4825H138.305Z" fill="black"/>
</g>
</g>
<defs>
<clipPath id="clip0_3306_5769">
<rect width="178" height="52" fill="white"/>
</clipPath>
<clipPath id="clip1_3306_5769">
<rect width="140" height="52" fill="white" transform="translate(19.7656 -0.359375)"/>
</clipPath>
</defs>
</svg>
