<svg width="16" height="16" viewBox="0 0 16 16" fill="none" xmlns="http://www.w3.org/2000/svg">
<rect width="16" height="16" fill="black"/>
<path d="M1 5.16406L1.08094 5.45047L2.17676 7.29966V6.34705H7.21379L10.8375 12.4737L11.485 11.2409L7.94226 5.16406H1Z" fill="white"/>
<path d="M11.3522 9.08659C11.2899 9.32942 11.8938 10.0454 11.9623 10.3381L15.0007 5.16406H13.5936L11.3522 9.08659Z" fill="white"/>
<path d="M8.4793 11.287H4.48828L5.10468 12.4637H9.77436L8.4793 10.3281V11.287Z" fill="white"/>
<path d="M7.28808 8.19531H2.73047C2.80518 8.6436 3.20366 8.9985 3.34687 9.43433H7.90448C7.81108 8.9985 7.43751 8.62492 7.28808 8.19531Z" fill="white"/>
<path d="M10.9181 6.85488C12.0951 6.69919 11.8771 4.83714 10.6565 5.01151C9.46702 5.18588 9.74727 7.01057 10.9181 6.85488Z" fill="#2DDE28"/>
</svg>
