<svg width="22" height="22" viewBox="0 0 22 22" fill="none" xmlns="http://www.w3.org/2000/svg">
<rect width="22" height="22" fill="black"/>
<path d="M4 7.82812L4.08094 8.11453L5.17675 9.9637V9.0111H10.2137L13.8374 15.1377L14.4849 13.9049L10.9422 7.82812H4Z" fill="white"/>
<path d="M14.3522 11.7506C14.2899 11.9934 14.8938 12.7094 14.9623 13.0021L18.0007 7.82812H16.5936L14.3522 11.7506Z" fill="white"/>
<path d="M11.4793 13.9666H7.48828L8.10467 15.1434H12.7743L11.4793 13.0078V13.9666Z" fill="white"/>
<path d="M10.2919 10.875H5.73438C5.80909 11.3233 6.20756 11.6782 6.35077 12.114H10.9083C10.8149 11.6782 10.4414 11.3046 10.2919 10.875Z" fill="white"/>
<path d="M13.9217 9.51852C15.0985 9.36287 14.8806 7.50124 13.6602 7.67557C12.471 7.8499 12.7512 9.67417 13.9217 9.51852Z" fill="#2DDE28"/>
</svg>
