<svg width="16" height="12" viewBox="0 0 16 12" fill="none" xmlns="http://www.w3.org/2000/svg">
<rect width="16" height="12" rx="2" fill="black"/>
<path d="M2 3.34375L2.06937 3.58923L3.00859 5.17415V4.35768H7.32578L10.4316 9.60875L10.9866 8.55213L7.95015 3.34375H2Z" fill="white"/>
<path d="M10.871 6.70572C10.8177 6.91384 11.3353 7.52753 11.394 7.77835L13.9982 3.34375H12.7922L10.871 6.70572Z" fill="white"/>
<path d="M8.41286 8.59525H4.99219L5.5205 9.60384H9.52284L8.41286 7.77344V8.59525Z" fill="white"/>
<path d="M7.39066 5.94531H3.48438C3.54841 6.32954 3.88995 6.63372 4.01268 7.00727H7.91897C7.83892 6.63372 7.51874 6.31353 7.39066 5.94531Z" fill="white"/>
<path d="M10.5015 4.79258C11.5101 4.65917 11.3233 3.06357 10.2774 3.21299C9.25811 3.36241 9.49825 4.92599 10.5015 4.79258Z" fill="#2DDE28"/>
</svg>
