<svg width="32" height="32" viewBox="0 0 32 32" fill="none" xmlns="http://www.w3.org/2000/svg">
<path d="M5.18515 12.8839C5.85775 13.3333 6.79405 13.3333 8.66667 13.3333C10.5393 13.3333 11.4756 13.3333 12.1482 12.8839C12.4394 12.6894 12.6894 12.4394 12.8839 12.1482C13.3333 11.4756 13.3333 10.5393 13.3333 8.66667C13.3333 6.79405 13.3333 5.85775 12.8839 5.18515C12.6894 4.89397 12.4394 4.64397 12.1482 4.44941C11.4756 4 10.5393 4 8.66667 4C6.79405 4 5.85775 4 5.18515 4.44941C4.89397 4.64397 4.64397 4.89397 4.44943 5.18515C4 5.85775 4 6.79405 4 8.66667C4 10.5393 4 11.4756 4.44943 12.1482C4.64397 12.4394 4.89397 12.6894 5.18515 12.8839Z" stroke="#4AB04A" stroke-width="1.5" stroke-linejoin="round"/>
<path d="M19.853 12.8839C20.5257 13.3333 21.462 13.3333 23.3346 13.3333C25.2072 13.3333 26.1436 13.3333 26.8161 12.8839C27.1073 12.6894 27.3573 12.4394 27.5518 12.1482C28.0013 11.4756 28.0013 10.5393 28.0013 8.66667C28.0013 6.79405 28.0013 5.85775 27.5518 5.18515C27.3573 4.89397 27.1073 4.64397 26.8161 4.44941C26.1436 4 25.2072 4 23.3346 4C21.462 4 20.5257 4 19.853 4.44941C19.562 4.64397 19.312 4.89397 19.1173 5.18515C18.668 5.85775 18.668 6.79405 18.668 8.66667C18.668 10.5393 18.668 11.4756 19.1173 12.1482C19.312 12.4394 19.562 12.6894 19.853 12.8839Z" stroke="#4AB04A" stroke-width="1.5" stroke-linejoin="round"/>
<path d="M5.18515 27.5518C5.85775 28.0013 6.79405 28.0013 8.66667 28.0013C10.5393 28.0013 11.4756 28.0013 12.1482 27.5518C12.4394 27.3573 12.6894 27.1073 12.8839 26.8161C13.3333 26.1436 13.3333 25.2073 13.3333 23.3346C13.3333 21.462 13.3333 20.5257 12.8839 19.8532C12.6894 19.562 12.4394 19.312 12.1482 19.1174C11.4756 18.668 10.5393 18.668 8.66667 18.668C6.79405 18.668 5.85775 18.668 5.18515 19.1174C4.89397 19.312 4.64397 19.562 4.44943 19.8532C4 20.5257 4 21.462 4 23.3346C4 25.2073 4 26.1436 4.44943 26.8161C4.64397 27.1073 4.89397 27.3573 5.18515 27.5518Z" stroke="#4AB04A" stroke-width="1.5" stroke-linejoin="round"/>
<path d="M19.853 27.5518C20.5257 28.0013 21.462 28.0013 23.3346 28.0013C25.2072 28.0013 26.1436 28.0013 26.8161 27.5518C27.1073 27.3573 27.3573 27.1073 27.5518 26.8161C28.0013 26.1436 28.0013 25.2073 28.0013 23.3346C28.0013 21.462 28.0013 20.5257 27.5518 19.8532C27.3573 19.562 27.1073 19.312 26.8161 19.1174C26.1436 18.668 25.2072 18.668 23.3346 18.668C21.462 18.668 20.5257 18.668 19.853 19.1174C19.562 19.312 19.312 19.562 19.1173 19.8532C18.668 20.5257 18.668 21.462 18.668 23.3346C18.668 25.2073 18.668 26.1436 19.1173 26.8161C19.312 27.1073 19.562 27.3573 19.853 27.5518Z" stroke="#4AB04A" stroke-width="1.5" stroke-linejoin="round"/>
</svg>
