<svg width="33" height="32" viewBox="0 0 33 32" fill="none" xmlns="http://www.w3.org/2000/svg">
<path d="M13.7346 22.0467C13.1028 21.9336 12.6415 21.8034 12.3236 21.652C12.255 21.6187 12.2005 21.5703 12.1601 21.5067C12.1187 21.4421 12.0985 21.3714 12.0985 21.2958V20.3238C12.0985 20.2834 12.0864 20.2481 12.0591 20.2179C12.0329 20.1865 11.9996 20.1684 11.9602 20.1634L11.6322 20.1129C11.5949 20.1068 11.5596 20.1139 11.5273 20.1331C11.4404 20.1896 11.3496 20.237 11.2527 20.2754C11.1568 20.3137 11.058 20.342 10.956 20.3601C10.854 20.3783 10.7511 20.3864 10.6481 20.3844C10.5442 20.3824 10.4422 20.3703 10.3413 20.347C10.2404 20.3248 10.1425 20.2925 10.0476 20.2501C9.95375 20.2077 9.86393 20.1573 9.77916 20.0967C9.69538 20.0372 9.61769 19.9696 9.54703 19.8939C9.47537 19.8182 9.41279 19.7364 9.35828 19.6486C9.23212 19.4437 9.15742 19.2217 9.13323 18.9824C9.109 18.7433 9.13827 18.5101 9.22105 18.2841C9.24324 18.2215 9.27047 18.1609 9.30073 18.1013C9.33106 18.0418 9.36536 17.9843 9.40371 17.9298C9.44106 17.8743 9.48245 17.8218 9.52683 17.7723C9.57127 17.7229 9.61969 17.6764 9.67015 17.632C9.72062 17.5887 9.77313 17.5483 9.82963 17.5119C9.88513 17.4756 9.94268 17.4423 10.0032 17.413C10.0628 17.3838 10.1243 17.3585 10.1879 17.3363C10.2505 17.3151 10.3151 17.298 10.3807 17.2848C10.4463 17.2717 10.5119 17.2626 10.5785 17.2586C10.6452 17.2536 10.7117 17.2536 10.7783 17.2576C10.845 17.2606 10.9106 17.2697 10.9762 17.2818C11.0418 17.294 11.1064 17.3111 11.17 17.3312C11.2335 17.3524 11.2951 17.3767 11.3557 17.406C11.4162 17.4342 11.4737 17.4665 11.5303 17.5028C11.5858 17.5392 11.6393 17.5785 11.6908 17.6219C11.7422 17.6644 11.7897 17.7108 11.8351 17.7602C11.8573 17.7784 11.8825 17.7895 11.9118 17.7925C11.9612 17.8006 12.0046 17.7885 12.042 17.7552C12.0803 17.7229 12.0995 17.6815 12.0995 17.6311V16.6874C12.0995 16.6541 12.1036 16.6207 12.1126 16.5884C12.1207 16.5561 12.1328 16.5258 12.149 16.4966C12.1651 16.4673 12.1843 16.4411 12.2065 16.4168C12.2297 16.3927 12.255 16.3715 12.2832 16.3533C12.3115 16.3361 12.3407 16.322 12.373 16.3119C12.4043 16.3018 12.4366 16.2958 12.4699 16.2937C12.5033 16.2917 12.5366 16.2937 12.5688 16.2998C12.6011 16.3058 12.6324 16.3159 12.6627 16.3311C12.8343 16.4128 13.1835 16.537 13.8738 16.6611C15.4503 16.9477 17.0268 16.9477 18.6034 16.6611C19.2938 16.537 19.6429 16.4128 19.8145 16.3311C19.8448 16.317 19.8761 16.3068 19.9084 16.2998C19.9407 16.2937 19.974 16.2917 20.0073 16.2937C20.0396 16.2958 20.0729 16.3018 20.1042 16.3129C20.1355 16.323 20.1658 16.3371 20.193 16.3543C20.2213 16.3725 20.2465 16.3936 20.2697 16.4168C20.2929 16.4411 20.3121 16.4684 20.3282 16.4976C20.3444 16.5258 20.3565 16.5572 20.3646 16.5894C20.3727 16.6207 20.3777 16.6541 20.3777 16.6874V17.6311C20.3767 17.6815 20.3959 17.7229 20.4342 17.7552C20.4716 17.7885 20.516 17.8006 20.5654 17.7925C20.5937 17.7895 20.6189 17.7784 20.6411 17.7602C20.6865 17.7108 20.734 17.6644 20.7855 17.6209C20.8359 17.5775 20.8894 17.5372 20.946 17.5009C21.0025 17.4645 21.06 17.4312 21.1205 17.4029C21.1811 17.3737 21.2427 17.3485 21.3062 17.3272C21.3698 17.3071 21.4345 17.2899 21.501 17.2768C21.5666 17.2647 21.6323 17.2566 21.6999 17.2526C21.7665 17.2485 21.8331 17.2485 21.8997 17.2526C21.9663 17.2576 22.033 17.2657 22.0985 17.2788C22.1642 17.2919 22.2287 17.3091 22.2923 17.3303C22.3559 17.3524 22.4175 17.3777 22.477 17.4069C22.5376 17.4362 22.5961 17.4695 22.6517 17.5059C22.7072 17.5432 22.7606 17.5836 22.8121 17.627C22.8626 17.6704 22.91 17.7178 22.9544 17.7673C22.9998 17.8168 23.0412 17.8692 23.0786 17.9247C23.1169 17.9802 23.1512 18.0378 23.1815 18.0973C23.2128 18.1568 23.239 18.2184 23.2623 18.281C23.3016 18.392 23.3289 18.5061 23.344 18.6242C23.3581 18.7412 23.3592 18.8583 23.3471 18.9764C23.3349 19.0935 23.3097 19.2085 23.2714 19.3206C23.234 19.4326 23.1835 19.5386 23.122 19.6395C23.0594 19.7394 22.9867 19.8323 22.9039 19.9161C22.8212 19.9998 22.7294 20.0745 22.6305 20.1371C22.5305 20.2007 22.4256 20.2522 22.3135 20.2915C22.2025 20.3309 22.0885 20.3581 21.9714 20.3712C21.601 20.4136 21.2598 20.3329 20.947 20.13C20.9157 20.1098 20.8803 20.1028 20.843 20.1098L20.516 20.1593C20.4756 20.1653 20.4433 20.1835 20.4161 20.2138C20.3898 20.2451 20.3767 20.2804 20.3777 20.3208V21.2917C20.3777 21.3684 20.3575 21.4391 20.3161 21.5027C20.2758 21.5673 20.2213 21.6157 20.1526 21.649C19.8357 21.7994 19.3745 21.9286 18.7427 22.0436C17.0723 22.3454 15.4019 22.3454 13.7315 22.0436L13.7346 22.0467ZM19.5915 20.3238C19.5905 20.2098 19.6107 20.0998 19.65 19.9918C19.6894 19.8848 19.7459 19.7879 19.8196 19.7011C19.8943 19.6153 19.9811 19.5437 20.081 19.4892C20.1809 19.4336 20.2869 19.3973 20.3999 19.3811L20.7279 19.3317C20.9631 19.2943 21.1801 19.3418 21.3799 19.4709C21.5333 19.5729 21.7009 19.6123 21.8836 19.5911C21.9764 19.58 22.0652 19.5527 22.149 19.5093C22.2318 19.4659 22.3054 19.4084 22.368 19.3388C22.4316 19.2681 22.4801 19.1893 22.5144 19.1016C22.5487 19.0138 22.5658 18.9229 22.5668 18.8291C22.5679 18.7342 22.5527 18.6434 22.5204 18.5545C22.4891 18.4657 22.4417 18.386 22.3811 18.3143C22.3196 18.2427 22.2479 18.1841 22.1662 18.1387C22.0834 18.0933 21.9956 18.063 21.9028 18.0499C21.7766 18.0317 21.6535 18.0439 21.5333 18.0882C21.4143 18.1316 21.3113 18.2003 21.2265 18.2961C21.0812 18.4516 20.9025 18.5455 20.6916 18.5767C20.624 18.5879 20.5553 18.5908 20.4867 18.5868C20.4181 18.5828 20.3504 18.5717 20.2849 18.5525C20.2182 18.5333 20.1547 18.5081 20.0941 18.4758C20.0335 18.4435 19.977 18.4041 19.9245 18.3598C19.8721 18.3153 19.8256 18.2649 19.7833 18.2104C19.7419 18.1549 19.7066 18.0963 19.6783 18.0337C19.649 17.9711 19.6278 17.9066 19.6127 17.8389C19.5975 17.7713 19.5905 17.7037 19.5905 17.6351V17.2526C19.3513 17.3202 19.0697 17.3838 18.7447 17.4433C17.0743 17.7451 15.4039 17.7451 13.7336 17.4433C13.4075 17.3828 13.127 17.3202 12.8868 17.2526V17.6351C12.8868 17.7037 12.8797 17.7713 12.8645 17.8389C12.8504 17.9066 12.8282 17.9711 12.8 18.0337C12.7707 18.0963 12.7354 18.1549 12.694 18.2104C12.6526 18.2649 12.6062 18.3153 12.5537 18.3598C12.5012 18.4041 12.4447 18.4435 12.3841 18.4758C12.3236 18.5081 12.26 18.5333 12.1934 18.5525C12.1278 18.5717 12.0601 18.5828 11.9915 18.5868C11.9229 18.5908 11.8543 18.5879 11.7867 18.5767C11.5747 18.5465 11.3951 18.4526 11.2487 18.2961C11.2033 18.2477 11.1538 18.2053 11.0983 18.17C11.0428 18.1337 10.9842 18.1054 10.9207 18.0852C10.8581 18.065 10.7945 18.0529 10.7289 18.0489C10.6633 18.0448 10.5977 18.0489 10.5331 18.062C10.4685 18.0741 10.4069 18.0953 10.3474 18.1236C10.2879 18.1528 10.2334 18.1882 10.1829 18.2306C10.1324 18.2739 10.089 18.3214 10.0506 18.3759C10.0133 18.4304 9.98302 18.4879 9.95983 18.5495C9.93963 18.605 9.92552 18.6615 9.91744 18.72C9.91036 18.7786 9.90936 18.8371 9.9144 18.8957C9.92049 18.9542 9.93255 19.0117 9.95075 19.0683C9.9699 19.1238 9.99414 19.1773 10.0254 19.2267C10.0557 19.2772 10.092 19.3236 10.1324 19.366C10.1738 19.4084 10.2192 19.4447 10.2687 19.477C10.3181 19.5083 10.3706 19.5345 10.4261 19.5537C10.4816 19.5739 10.5391 19.587 10.5977 19.5941C10.7793 19.6153 10.9469 19.5759 11.0993 19.475C11.2992 19.3458 11.5161 19.2984 11.7513 19.3347L12.0793 19.3842C12.1924 19.4013 12.2983 19.4366 12.3983 19.4921C12.4982 19.5466 12.585 19.6183 12.6597 19.7041C12.7344 19.7909 12.7909 19.8878 12.8302 19.9958C12.8696 20.1028 12.8888 20.2138 12.8878 20.3279V21.0313C13.2108 21.1363 13.5398 21.216 13.8748 21.2716C15.4513 21.5582 17.0279 21.5582 18.6044 21.2716C18.9394 21.216 19.2685 21.1363 19.5915 21.0323V20.3238Z" fill="#4AB04A"/>
<path d="M13.7336 15.615C13.1018 15.5019 12.6405 15.3717 12.3226 15.2193C12.2539 15.186 12.1994 15.1376 12.1591 15.073C12.1177 15.0094 12.0975 14.9388 12.0975 14.8631V13.8921C12.0975 13.8518 12.0844 13.8164 12.0582 13.7861C12.0319 13.7559 11.9986 13.7377 11.9592 13.7306L11.6322 13.6802C11.5949 13.6751 11.5595 13.6822 11.5263 13.7014C11.4394 13.7579 11.3486 13.8053 11.2517 13.8437C11.1559 13.882 11.0569 13.9103 10.955 13.9285C10.8531 13.9466 10.7501 13.9547 10.6472 13.9527C10.5432 13.9507 10.4413 13.9375 10.3403 13.9154C10.2394 13.8931 10.1415 13.8609 10.0466 13.8185C9.95276 13.7761 9.86295 13.7256 9.77818 13.665C9.6944 13.6055 9.61666 13.5379 9.54605 13.4622C9.47439 13.3865 9.4118 13.3047 9.3573 13.2169C9.23213 13.012 9.15743 12.789 9.13325 12.5497C9.10901 12.3106 9.13828 12.0774 9.22001 11.8514C9.2422 11.7888 9.26948 11.7282 9.29975 11.6686C9.33002 11.6091 9.36433 11.5516 9.40273 11.4971C9.44003 11.4415 9.48142 11.3891 9.52685 11.3396C9.57128 11.2902 9.6187 11.2437 9.66917 11.2003C9.71963 11.156 9.77309 11.1166 9.82864 11.0792C9.88414 11.0429 9.94269 11.0096 10.0022 10.9803C10.0618 10.9511 10.1234 10.9258 10.1869 10.9046C10.2505 10.8834 10.3141 10.8663 10.3797 10.8532C10.4453 10.8401 10.5109 10.8309 10.5775 10.8259C10.6441 10.8218 10.7107 10.8208 10.7774 10.8249C10.844 10.8289 10.9106 10.837 10.9762 10.8501C11.0408 10.8622 11.1054 10.8784 11.169 10.8996C11.2326 10.9198 11.2941 10.945 11.3547 10.9732C11.4152 11.0025 11.4728 11.0348 11.5293 11.0712C11.5848 11.1075 11.6393 11.1468 11.6897 11.1903C11.7412 11.2327 11.7887 11.2791 11.8341 11.3285C11.8563 11.3467 11.8815 11.3578 11.9108 11.3608C11.9592 11.3709 12.0026 11.3598 12.041 11.3285C12.0793 11.2962 12.0985 11.2548 12.0985 11.2044V10.2576C12.0985 10.2244 12.1025 10.1921 12.1117 10.1598C12.1197 10.1275 12.1318 10.0962 12.148 10.0669C12.1641 10.0376 12.1833 10.0114 12.2055 9.98717C12.2287 9.96294 12.2539 9.94174 12.2822 9.92459C12.3105 9.90644 12.3397 9.89233 12.372 9.8822C12.4033 9.87213 12.4356 9.86604 12.4689 9.86405C12.5022 9.862 12.5355 9.86405 12.5678 9.87008C12.6002 9.87617 12.6314 9.88724 12.6617 9.9014C12.8333 9.98313 13.1825 10.1063 13.8729 10.2314C15.4494 10.5171 17.0259 10.5171 18.6024 10.2314C19.2937 10.1063 19.6429 9.98313 19.8135 9.9014C19.8438 9.88724 19.8751 9.87716 19.9074 9.87113C19.9397 9.86405 19.973 9.862 20.0063 9.86405C20.0386 9.86604 20.0719 9.87312 20.1032 9.88325C20.1345 9.89332 20.1647 9.90743 20.192 9.92459C20.2203 9.94279 20.2455 9.96398 20.2687 9.98817C20.2919 10.0124 20.3111 10.0386 20.3273 10.0679C20.3434 10.0972 20.3555 10.1275 20.3636 10.1598C20.3716 10.1921 20.3767 10.2244 20.3767 10.2576V11.2024C20.3757 11.2518 20.3949 11.2932 20.4332 11.3255C20.4706 11.3598 20.515 11.3719 20.5644 11.3629C20.5927 11.3598 20.6179 11.3487 20.6401 11.3305C20.6856 11.2811 20.733 11.2346 20.7844 11.1913C20.8349 11.1479 20.8884 11.1075 20.9449 11.0712C21.0015 11.0348 21.059 11.0025 21.1196 10.9732C21.1801 10.944 21.2417 10.9187 21.3053 10.8986C21.3688 10.8774 21.4334 10.8602 21.5 10.8481C21.5657 10.835 21.6312 10.8269 21.6989 10.8229C21.7655 10.8189 21.8321 10.8189 21.8987 10.8229C21.9654 10.8279 22.0319 10.837 22.0975 10.8501C22.1631 10.8622 22.2277 10.8804 22.2913 10.9016C22.3549 10.9228 22.4165 10.948 22.476 10.9773C22.5366 11.0066 22.5951 11.0399 22.6506 11.0762C22.7061 11.1136 22.7596 11.1539 22.8111 11.1973C22.8616 11.2407 22.909 11.2882 22.9534 11.3376C22.9988 11.3881 23.0402 11.4405 23.0776 11.4951C23.1159 11.5506 23.1502 11.6081 23.1805 11.6676C23.2118 11.7272 23.2381 11.7888 23.2612 11.8514C23.342 12.0785 23.3693 12.3106 23.344 12.5497C23.3188 12.789 23.2431 13.011 23.1169 13.2159C23.0614 13.3037 22.9988 13.3845 22.9282 13.4602C22.8575 13.5348 22.7798 13.6024 22.6951 13.662C22.6103 13.7216 22.5215 13.772 22.4266 13.8144C22.3327 13.8558 22.2348 13.8881 22.1339 13.9113C22.033 13.9335 21.931 13.9456 21.8281 13.9476C21.7241 13.9497 21.6222 13.9416 21.5202 13.9234C21.4193 13.9052 21.3204 13.877 21.2235 13.8386C21.1276 13.8003 21.0368 13.7538 20.95 13.6973C20.9177 13.6771 20.8823 13.6701 20.845 13.6761L20.517 13.7266C20.4776 13.7326 20.4443 13.7508 20.4191 13.7821C20.3928 13.8124 20.3797 13.8477 20.3797 13.8881V14.858C20.3797 14.9347 20.3595 15.0044 20.3192 15.0689C20.2778 15.1336 20.2233 15.182 20.1547 15.2143C19.8378 15.3667 19.3765 15.4959 18.7447 15.6109C17.916 15.7603 17.0804 15.836 16.2386 15.836C15.3969 15.837 14.5622 15.7633 13.7336 15.615ZM19.5905 13.8921C19.5895 13.7781 19.6086 13.6671 19.648 13.5601C19.6874 13.4531 19.7449 13.3562 19.8186 13.2694C19.8933 13.1826 19.98 13.1119 20.08 13.0564C20.1799 13.0019 20.2859 12.9656 20.3989 12.9494L20.7279 12.9C20.9641 12.8617 21.1821 12.9081 21.383 13.0372C21.5364 13.1392 21.7039 13.1786 21.8866 13.1584C21.9805 13.1472 22.0683 13.12 22.1521 13.0756C22.2358 13.0322 22.3085 12.9757 22.3721 12.906C22.4346 12.8354 22.4831 12.7567 22.5174 12.6689C22.5517 12.5811 22.5699 12.4902 22.5709 12.3964C22.5719 12.3015 22.5568 12.2106 22.5245 12.1218C22.4922 12.033 22.4458 11.9533 22.3842 11.8816C22.3236 11.81 22.252 11.7514 22.1692 11.706C22.0864 11.6596 21.9986 11.6303 21.9058 11.6172C21.7796 11.599 21.6565 11.6111 21.5374 11.6545C21.4173 11.6979 21.3153 11.7676 21.2306 11.8624C21.0842 12.0189 20.9066 12.1118 20.6956 12.143C20.627 12.1531 20.5594 12.1571 20.4908 12.1531C20.4221 12.1491 20.3545 12.138 20.2879 12.1188C20.2213 12.1006 20.1587 12.0744 20.0971 12.0421C20.0366 12.0098 19.98 11.9714 19.9276 11.9271C19.8761 11.8816 19.8286 11.8322 19.7873 11.7776C19.7459 11.7221 19.7106 11.6636 19.6813 11.601C19.6531 11.5384 19.6308 11.4739 19.6157 11.4062C19.6015 11.3386 19.5935 11.271 19.5935 11.2024V10.8199C19.3553 10.8875 19.0747 10.9501 18.7477 11.0086C17.0773 11.3124 15.408 11.3124 13.7376 11.0086C13.4106 10.9501 13.13 10.8875 12.8908 10.8199V11.2024C12.8908 11.271 12.8837 11.3386 12.8686 11.4062C12.8545 11.4739 12.8323 11.5384 12.804 11.601C12.7747 11.6636 12.7394 11.7221 12.698 11.7776C12.6567 11.8322 12.6102 11.8826 12.5577 11.9271C12.5053 11.9714 12.4488 12.0108 12.3882 12.0431C12.3276 12.0754 12.2641 12.1006 12.1974 12.1198C12.1308 12.138 12.0642 12.1491 11.9946 12.1531C11.9259 12.1571 11.8583 12.1541 11.7897 12.143C11.5757 12.1138 11.395 12.0209 11.2477 11.8624C11.2023 11.814 11.1528 11.7726 11.0973 11.7373C11.0418 11.701 10.9822 11.6727 10.9197 11.6525C10.8571 11.6323 10.7925 11.6202 10.7269 11.6162C10.6613 11.6121 10.5957 11.6162 10.5311 11.6293C10.4665 11.6424 10.4049 11.6626 10.3454 11.6919C10.2858 11.7202 10.2313 11.7565 10.1809 11.7988C10.1304 11.8412 10.087 11.8897 10.0487 11.9442C10.0113 11.9977 9.98104 12.0562 9.9578 12.1178C9.9376 12.1733 9.92349 12.2298 9.91541 12.2883C9.90838 12.3469 9.90733 12.4054 9.91342 12.464C9.91845 12.5225 9.93057 12.5801 9.94972 12.6366C9.96792 12.6921 9.99315 12.7456 10.0234 12.795C10.0547 12.8455 10.091 12.8919 10.1314 12.9343C10.1728 12.9757 10.2182 13.013 10.2677 13.0453C10.3171 13.0766 10.3696 13.1029 10.4251 13.122C10.4806 13.1422 10.5382 13.1553 10.5967 13.1624C10.7784 13.1836 10.9469 13.1432 11.0993 13.0423C11.2992 12.9131 11.5161 12.8667 11.7503 12.903L12.0783 12.9525C12.1913 12.9696 12.2974 13.005 12.3972 13.0605C12.4972 13.115 12.584 13.1866 12.6586 13.2724C12.7334 13.3592 12.7899 13.4561 12.8292 13.5641C12.8686 13.6711 12.8878 13.7811 12.8868 13.8962V14.5996C13.2097 14.7046 13.5388 14.7843 13.8739 14.8398C15.4504 15.1265 17.0269 15.1265 18.6034 14.8398C18.9385 14.7853 19.2675 14.7046 19.5905 14.5996V13.8921Z" fill="#4AB04A"/>
<mask id="mask0_3306_9523" style="mask-type:luminance" maskUnits="userSpaceOnUse" x="9" y="3" width="15" height="7">
<path d="M9.09375 3.40625H23.5629V9.40544H9.09375V3.40625Z" fill="white"/>
</mask>
<g mask="url(#mask0_3306_9523)">
<path d="M13.7406 9.18627C13.1077 9.07328 12.6465 8.94407 12.3296 8.79168C12.2609 8.75836 12.2064 8.70989 12.1661 8.64532C12.1247 8.58174 12.1045 8.51107 12.1045 8.43537V7.46042C12.1045 7.42003 12.0914 7.38473 12.0652 7.35446C12.0389 7.32314 12.0056 7.30598 11.9662 7.29995L11.6382 7.24949C11.6009 7.2434 11.5655 7.25048 11.5333 7.27068C11.4505 7.32518 11.3627 7.37056 11.2708 7.40791C11.179 7.44427 11.0851 7.47254 10.9872 7.49269C10.8903 7.51189 10.7925 7.52096 10.6935 7.52196C10.5946 7.52301 10.4957 7.51388 10.3988 7.49573C10.3019 7.47758 10.2071 7.4503 10.1142 7.414C10.0224 7.37764 9.93454 7.33321 9.85076 7.28075C9.76699 7.22724 9.6883 7.1677 9.61664 7.10008C9.54393 7.03147 9.47836 6.95776 9.42081 6.87802C9.36227 6.79729 9.3118 6.71252 9.26941 6.62271C9.22802 6.53284 9.19372 6.43999 9.16948 6.34415C9.1453 6.24825 9.13014 6.15036 9.1241 6.05143C9.11802 5.95254 9.12106 5.8536 9.13417 5.75472C9.14629 5.65683 9.16848 5.55994 9.1998 5.46604C9.23007 5.37219 9.27041 5.28133 9.31789 5.19455C9.36631 5.10775 9.42181 5.02701 9.48644 4.9503C9.55002 4.87461 9.61963 4.80496 9.69638 4.74239C9.77307 4.67981 9.8548 4.62531 9.94262 4.57787C10.0294 4.53044 10.1202 4.49209 10.2151 4.46282C10.309 4.43254 10.4059 4.41235 10.5038 4.40125C10.6027 4.38914 10.7006 4.38712 10.7995 4.39418C10.8984 4.40226 10.9953 4.41841 11.0912 4.44465C11.1871 4.46988 11.2789 4.50521 11.3688 4.54861C11.4576 4.59201 11.5413 4.64348 11.621 4.70303C11.6998 4.76156 11.7735 4.82818 11.8401 4.90186C11.8623 4.92003 11.8875 4.93113 11.9168 4.93415C11.9662 4.94324 12.0097 4.93213 12.048 4.89984C12.0864 4.86754 12.1055 4.82616 12.1055 4.7757V3.82797C12.1055 3.79467 12.1095 3.76136 12.1187 3.72907C12.1267 3.69677 12.1388 3.66649 12.155 3.63722C12.1711 3.60795 12.1903 3.58171 12.2125 3.55748C12.2357 3.53326 12.2609 3.51206 12.2892 3.4939C12.3175 3.47674 12.3468 3.46261 12.379 3.45252C12.4103 3.44242 12.4426 3.43637 12.4759 3.43435C12.5092 3.43233 12.5425 3.43435 12.5749 3.4404C12.6071 3.44646 12.6384 3.45656 12.6687 3.4717C12.8403 3.55345 13.1895 3.67658 13.8799 3.80173C15.4564 4.08736 17.0329 4.08736 18.6094 3.80173C19.2997 3.67658 19.649 3.55345 19.8205 3.4717C19.8508 3.45756 19.8821 3.44747 19.9144 3.4404C19.9467 3.43435 19.98 3.43233 20.0133 3.43435C20.0456 3.43637 20.0789 3.44242 20.1102 3.45353C20.1415 3.46362 20.1718 3.47775 20.199 3.49491C20.2273 3.51308 20.2525 3.53427 20.2757 3.55748C20.2989 3.58171 20.3181 3.60896 20.3343 3.63823C20.3504 3.66649 20.3625 3.69777 20.3706 3.73007C20.3787 3.76136 20.3837 3.79467 20.3837 3.82797V4.77166C20.3837 4.79588 20.3888 4.8191 20.3979 4.84029C20.4079 4.8625 20.4221 4.88066 20.4402 4.8958C20.4584 4.91195 20.4786 4.92204 20.5018 4.92911C20.525 4.93517 20.5482 4.93617 20.5714 4.93213C20.6007 4.93012 20.625 4.91902 20.6471 4.90085C20.6926 4.8514 20.74 4.80496 20.7915 4.76156C20.8419 4.71816 20.8954 4.6778 20.9519 4.64146C21.0085 4.60513 21.066 4.57182 21.1266 4.54356C21.1871 4.51429 21.2487 4.48906 21.3123 4.46786C21.3759 4.44768 21.4404 4.43052 21.5071 4.4174C21.5727 4.40529 21.6383 4.39722 21.7059 4.39318C21.7725 4.38914 21.8391 4.38914 21.9057 4.39318C21.9724 4.39822 22.0389 4.4063 22.1046 4.41942C22.1701 4.43254 22.2348 4.4497 22.2983 4.4719C22.3619 4.49309 22.4235 4.51833 22.4831 4.5476C22.5436 4.57687 22.6021 4.61017 22.6576 4.64651C22.7131 4.68385 22.7666 4.72422 22.8181 4.76762C22.8686 4.81102 22.9161 4.85846 22.9604 4.90791C23.0059 4.95737 23.0472 5.00985 23.0846 5.06537C23.1229 5.12087 23.1573 5.1784 23.1875 5.23795C23.2188 5.29749 23.2451 5.35907 23.2683 5.42166C23.3228 5.57505 23.3541 5.73353 23.3591 5.89704C23.3652 6.0605 23.346 6.22097 23.3016 6.37746C23.2572 6.53489 23.1895 6.68125 23.0997 6.81749C23.0089 6.95372 22.9009 7.07286 22.7727 7.17478C22.6455 7.27671 22.5052 7.35645 22.3529 7.414C22.2005 7.47254 22.043 7.5058 21.8795 7.51388C21.717 7.52196 21.5565 7.5058 21.399 7.46341C21.2416 7.42208 21.0943 7.35645 20.957 7.26863C20.9247 7.24844 20.8893 7.24036 20.8521 7.24744L20.524 7.29791C20.4846 7.30399 20.4513 7.32114 20.4251 7.35241C20.3999 7.38268 20.3867 7.41804 20.3867 7.45838V8.42934C20.3867 8.50604 20.3665 8.57565 20.3262 8.64028C20.2848 8.70486 20.2303 8.75333 20.1617 8.78559C19.8447 8.93798 19.3835 9.06719 18.7517 9.18024C17.9231 9.33064 17.0874 9.40634 16.2456 9.40634C15.4039 9.40734 14.5692 9.33468 13.7406 9.18627ZM19.5975 7.46341C19.5965 7.34937 19.6156 7.23936 19.655 7.1314C19.6944 7.02438 19.7519 6.92749 19.8256 6.84072C19.9003 6.7549 19.9871 6.68424 20.087 6.62874C20.1869 6.57423 20.2929 6.53793 20.4059 6.52177L20.734 6.47231C20.9701 6.43296 21.1892 6.47839 21.39 6.60754C21.5434 6.70947 21.7109 6.74887 21.8936 6.72663C21.9875 6.71655 22.0763 6.68933 22.1601 6.64589C22.2438 6.60351 22.3175 6.54601 22.3811 6.47635C22.4447 6.40568 22.4931 6.32699 22.5274 6.23918C22.5617 6.15136 22.5799 6.05951 22.5809 5.96566C22.5819 5.87076 22.5668 5.77895 22.5345 5.69114C22.5022 5.60233 22.4548 5.52154 22.3942 5.44988C22.3327 5.37822 22.26 5.31973 22.1772 5.2743C22.0945 5.22887 22.0067 5.20061 21.9128 5.18748C21.7866 5.16831 21.6635 5.18042 21.5444 5.22382C21.4243 5.26821 21.3223 5.33788 21.2376 5.43272C21.0912 5.58916 20.9136 5.68206 20.7026 5.71333C20.634 5.7234 20.5664 5.72744 20.4978 5.7234C20.4291 5.71936 20.3615 5.70829 20.2949 5.68909C20.2283 5.67094 20.1657 5.64471 20.1041 5.6124C20.0436 5.58008 19.9871 5.54173 19.9346 5.49631C19.8831 5.45193 19.8357 5.40246 19.7943 5.34695C19.7529 5.29245 19.7176 5.23392 19.6883 5.17134C19.6601 5.10876 19.6378 5.04316 19.6227 4.97655C19.6086 4.90892 19.6005 4.8413 19.6005 4.77166V4.38914C19.3623 4.45676 19.0797 4.52035 18.7547 4.57889C17.0843 4.88268 15.415 4.88268 13.7446 4.57889C13.4176 4.52035 13.137 4.45676 12.8978 4.38914V4.77166C12.8978 4.8413 12.8908 4.90892 12.8756 4.97655C12.8615 5.04417 12.8393 5.10876 12.811 5.17134C12.7818 5.23392 12.7464 5.29245 12.7051 5.34795C12.6637 5.40246 12.6172 5.45292 12.5647 5.49735C12.5123 5.54173 12.4558 5.58008 12.3952 5.61339C12.3346 5.64571 12.2711 5.67094 12.2044 5.68909C12.1378 5.70829 12.0712 5.71936 12.0016 5.7234C11.9329 5.72744 11.8653 5.7234 11.7967 5.71333C11.5827 5.68406 11.402 5.59021 11.2547 5.43173C11.2123 5.3853 11.1649 5.34496 11.1124 5.3106C11.0599 5.27629 11.0044 5.24807 10.9458 5.22685C10.8873 5.20566 10.8268 5.19152 10.7642 5.18547C10.7016 5.17941 10.6401 5.18042 10.5775 5.1885C10.5159 5.19758 10.4554 5.21373 10.3978 5.23694C10.3393 5.26013 10.2848 5.28941 10.2343 5.32576C10.1828 5.36311 10.1374 5.4045 10.0971 5.45193C10.0557 5.50034 10.0214 5.55186 9.99309 5.60736C9.96481 5.66386 9.94461 5.7224 9.9305 5.78294C9.91639 5.84453 9.90931 5.90612 9.91135 5.9687C9.91235 6.03228 9.92043 6.09381 9.93659 6.1544C9.95269 6.21494 9.97494 6.27249 10.0052 6.32799C10.0355 6.3825 10.0718 6.43296 10.1132 6.47939C10.1556 6.52581 10.203 6.56615 10.2555 6.60151C10.3069 6.63582 10.3625 6.6641 10.422 6.68529C10.4806 6.70648 10.5411 6.72059 10.6037 6.72663C10.7854 6.74887 10.9529 6.70947 11.1053 6.60754C11.3051 6.47839 11.5232 6.43296 11.7573 6.46827L12.0854 6.51873C12.1984 6.53489 12.3044 6.57019 12.4043 6.62575C12.5042 6.6802 12.591 6.75086 12.6657 6.83768C12.7404 6.92445 12.7969 7.02134 12.8363 7.12836C12.8756 7.23532 12.8948 7.34638 12.8938 7.46042V8.17093C13.2167 8.2759 13.5458 8.35564 13.8809 8.41114C15.4574 8.69678 17.0339 8.69678 18.6104 8.41114C18.9455 8.35663 19.2745 8.2759 19.5975 8.17093V7.46341Z" fill="#4AB04A"/>
</g>
<mask id="mask1_3306_9523" style="mask-type:luminance" maskUnits="userSpaceOnUse" x="6" y="21" width="20" height="8">
<path d="M6.51172 21.5508H25.89V28.5876H6.51172V21.5508Z" fill="white"/>
</mask>
<g mask="url(#mask1_3306_9523)">
<path d="M9.33459 28.567C9.42136 28.567 9.5001 28.5408 9.56976 28.4883C9.63938 28.4368 9.6868 28.3682 9.71203 28.2844C9.73627 28.2006 9.73428 28.1179 9.70395 28.0361C9.67369 27.9544 9.62222 27.8898 9.54957 27.8413C7.61273 26.5747 7.39471 25.2929 7.55319 24.44C7.74393 23.4055 8.53118 22.6889 9.00352 22.587C10.0905 22.3549 11.1715 22.7 11.8881 23.0301C13.1537 23.6144 14.6717 23.9223 16.2795 23.9223C17.8681 23.9223 19.3205 23.6225 20.6083 23.0301C21.3239 22.7 22.4099 22.3539 23.4929 22.587C23.9632 22.6889 24.7505 23.4055 24.9422 24.44C25.1007 25.2929 24.8827 26.5747 22.9448 27.8413C22.9014 27.8706 22.8651 27.9059 22.8348 27.9493C22.8055 27.9927 22.7854 28.0402 22.7753 28.0917C22.7642 28.1421 22.7632 28.1936 22.7733 28.2451C22.7833 28.2965 22.8026 28.345 22.8308 28.3884C22.859 28.4318 22.8954 28.4691 22.9388 28.4984C22.9812 28.5277 23.0286 28.5479 23.0801 28.5589C23.1316 28.569 23.182 28.57 23.2335 28.56C23.285 28.5509 23.3324 28.5317 23.3768 28.5024C25.7991 26.9239 25.8839 25.1869 25.7184 24.2957C25.4741 22.9836 24.4588 21.9864 23.6584 21.8138C22.63 21.5888 21.4622 21.7664 20.2793 22.3125C19.0964 22.8585 17.7541 23.133 16.2815 23.133C14.7868 23.133 13.3808 22.8494 12.2191 22.3125C11.0352 21.7654 9.86647 21.5938 8.84001 21.8138C8.03765 21.9864 7.0223 22.9836 6.77905 24.2957C6.61454 25.1869 6.69931 26.9198 9.12161 28.5024C9.18624 28.5458 9.25685 28.567 9.33459 28.567Z" fill="#4AB04A"/>
</g>
<mask id="mask2_3306_9523" style="mask-type:luminance" maskUnits="userSpaceOnUse" x="17" y="24" width="5" height="5">
<path d="M17.6133 24.918H21.7473V28.5958H17.6133V24.918Z" fill="white"/>
</mask>
<g mask="url(#mask2_3306_9523)">
<path d="M18.0517 28.5662C18.1273 28.5662 18.198 28.546 18.2615 28.5056C18.3262 28.4643 18.3746 28.4098 18.4069 28.3411L19.3889 26.3104C19.4253 26.2338 19.4747 26.1671 19.5363 26.1086C19.5979 26.05 19.6675 26.0047 19.7462 25.9714C19.8239 25.938 19.9057 25.9199 19.9905 25.9168C20.0743 25.9138 20.157 25.9249 20.2378 25.9512C20.2892 25.9683 20.3387 25.9915 20.3851 26.0208C20.4305 26.049 20.4729 26.0834 20.5112 26.1217C20.5506 26.1611 20.584 26.2035 20.6122 26.2499C20.6405 26.2963 20.6637 26.3458 20.6798 26.3973C20.697 26.4497 20.7081 26.5022 20.7121 26.5567C20.7171 26.6112 20.7152 26.6658 20.7071 26.7203C20.699 26.7737 20.6849 26.8262 20.6647 26.8767C20.6445 26.9272 20.6183 26.9746 20.5869 27.02L19.938 27.9364C19.9127 27.9799 19.8966 28.0252 19.8886 28.0747C19.8805 28.1242 19.8815 28.1726 19.8926 28.2211C19.9027 28.2705 19.9219 28.3149 19.9491 28.3563C19.9764 28.3977 20.0107 28.433 20.051 28.4613C20.0924 28.4895 20.1368 28.5097 20.1853 28.5218C20.2337 28.5339 20.2822 28.536 20.3316 28.5289C20.38 28.5218 20.4265 28.5067 20.4699 28.4825C20.5133 28.4582 20.5506 28.427 20.5819 28.3876L21.2309 27.4722C21.2925 27.3884 21.3439 27.2986 21.3863 27.2037C21.4287 27.1088 21.461 27.0099 21.4822 26.908C21.5044 26.807 21.5155 26.7041 21.5155 26.6001C21.5155 26.4962 21.5054 26.3932 21.4842 26.2913C21.463 26.1894 21.4317 26.0904 21.3894 25.9956C21.348 25.8997 21.2965 25.8098 21.236 25.7261C21.1754 25.6413 21.1068 25.5646 21.0301 25.4939C20.9533 25.4243 20.8696 25.3627 20.7807 25.3103C20.6909 25.2578 20.5971 25.2144 20.4981 25.1821C20.4002 25.1488 20.2993 25.1266 20.1954 25.1144C20.0924 25.1034 19.9895 25.1024 19.8855 25.1124C19.7826 25.1215 19.6817 25.1427 19.5817 25.174C19.4828 25.2053 19.3879 25.2457 19.2981 25.2971C19.2073 25.3476 19.1235 25.4082 19.0448 25.4768C18.9671 25.5454 18.8974 25.6211 18.8349 25.7049C18.7733 25.7886 18.7198 25.8775 18.6764 25.9714L17.6944 28.002C17.6802 28.0323 17.6701 28.0636 17.6641 28.0959C17.657 28.1292 17.655 28.1615 17.657 28.1948C17.659 28.2281 17.6651 28.2604 17.6752 28.2927C17.6853 28.324 17.6994 28.3542 17.7175 28.3815C17.7347 28.4098 17.7559 28.436 17.7801 28.4582C17.8044 28.4815 17.8306 28.5006 17.8599 28.5168C17.8891 28.5329 17.9194 28.545 17.9517 28.5531C17.984 28.5622 18.0163 28.5662 18.0496 28.5662H18.0517Z" fill="#4AB04A"/>
</g>
<mask id="mask3_3306_9523" style="mask-type:luminance" maskUnits="userSpaceOnUse" x="6" y="21" width="20" height="8">
<path d="M6.51172 21.5508H25.89V28.5876H6.51172V21.5508Z" fill="white"/>
</mask>
<g mask="url(#mask3_3306_9523)">
<path d="M9.32772 28.567C9.41454 28.567 9.49328 28.5408 9.5629 28.4883C9.63256 28.4368 9.67998 28.3682 9.70522 28.2844C9.72945 28.2006 9.72741 28.1179 9.69714 28.0361C9.66687 27.9544 9.61541 27.8898 9.54275 27.8413C7.60591 26.5747 7.38789 25.2929 7.54637 24.44C7.73711 23.4055 8.52437 22.6889 8.99671 22.587C10.0837 22.3549 11.1647 22.7 11.8813 23.0301C13.165 23.6225 14.6195 23.9223 16.2081 23.9223C17.8159 23.9223 19.3359 23.6144 20.6005 23.0301C21.3161 22.7 22.4021 22.3539 23.4841 22.587C23.9554 22.6889 24.7426 23.4055 24.9344 24.44C25.0929 25.2929 24.8738 26.5747 22.937 27.8413C22.8936 27.8706 22.8563 27.9059 22.827 27.9493C22.7977 27.9927 22.7775 28.0402 22.7664 28.0917C22.7563 28.1421 22.7553 28.1936 22.7654 28.2451C22.7745 28.2965 22.7937 28.345 22.823 28.3884C22.8512 28.4328 22.8865 28.4691 22.9299 28.4984C22.9734 28.5277 23.0208 28.5479 23.0722 28.5589C23.1227 28.57 23.1742 28.57 23.2256 28.561C23.2772 28.5509 23.3246 28.5317 23.368 28.5024C25.7913 26.9239 25.875 25.1869 25.7095 24.2957C25.4663 22.9836 24.4509 21.9864 23.6496 21.8138C22.6221 21.5888 21.4544 21.7664 20.2715 22.3125C19.1078 22.8494 17.7039 23.133 16.2081 23.133C14.7345 23.133 13.3921 22.8565 12.2113 22.3125C11.0294 21.7695 9.85761 21.5938 8.83219 21.8138C8.02978 21.9864 7.01444 22.9836 6.77124 24.2957C6.60673 25.1869 6.6915 26.9198 9.11379 28.5024C9.17837 28.5458 9.25003 28.567 9.32772 28.567Z" fill="#4AB04A"/>
</g>
<mask id="mask4_3306_9523" style="mask-type:luminance" maskUnits="userSpaceOnUse" x="10" y="24" width="6" height="5">
<path d="M10.8945 24.918H15.0286V28.5958H10.8945V24.918Z" fill="white"/>
</mask>
<g mask="url(#mask4_3306_9523)">
<path d="M14.422 28.5663C14.4826 28.5663 14.5391 28.5532 14.5936 28.527C14.6411 28.5037 14.6815 28.4735 14.7168 28.4341C14.7511 28.3947 14.7774 28.3503 14.7945 28.3009C14.8117 28.2514 14.8177 28.1999 14.8147 28.1485C14.8117 28.096 14.7985 28.0466 14.7763 27.9991L13.7953 25.9684C13.7156 25.8059 13.6106 25.6636 13.4794 25.5394C13.3482 25.4153 13.1988 25.3184 13.0333 25.2488C12.8667 25.1791 12.6932 25.1408 12.5135 25.1337C12.3328 25.1277 12.1572 25.1519 11.9866 25.2094C11.8766 25.2458 11.7717 25.2952 11.6738 25.3568C11.5749 25.4184 11.485 25.49 11.4033 25.5727C11.3215 25.6555 11.2509 25.7464 11.1903 25.8453C11.1298 25.9442 11.0813 26.0491 11.046 26.1602C11.0096 26.2702 10.9875 26.3832 10.9774 26.4993C10.9683 26.6154 10.9723 26.7304 10.9895 26.8455C11.0067 26.9605 11.0369 27.0715 11.0803 27.1796C11.1237 27.2875 11.1792 27.3885 11.2469 27.4834L11.8938 28.3998C11.9221 28.4472 11.9584 28.4866 12.0028 28.5189C12.0472 28.5512 12.0966 28.5723 12.1502 28.5845C12.2037 28.5956 12.2571 28.5966 12.3106 28.5855C12.3651 28.5744 12.4146 28.5532 12.459 28.5219C12.5044 28.4906 12.5408 28.4513 12.569 28.4048C12.5983 28.3574 12.6165 28.3069 12.6235 28.2524C12.6316 28.1979 12.6275 28.1444 12.6124 28.0909C12.5973 28.0385 12.573 27.991 12.5377 27.9486L11.8907 27.0312C11.8595 26.9868 11.8332 26.9394 11.8131 26.8879C11.7929 26.8374 11.7787 26.7849 11.7707 26.7314C11.7626 26.6769 11.7606 26.6234 11.7646 26.5689C11.7697 26.5144 11.7807 26.4609 11.7969 26.4095C11.814 26.358 11.8373 26.3085 11.8656 26.2621C11.8938 26.2157 11.9271 26.1733 11.9654 26.1339C12.0038 26.0955 12.0462 26.0612 12.0926 26.033C12.139 26.0037 12.1885 25.9815 12.24 25.9643C12.3197 25.9371 12.4025 25.926 12.4873 25.929C12.572 25.9321 12.6528 25.9502 12.7315 25.9835C12.8092 26.0159 12.8789 26.0612 12.9404 26.1198C13.002 26.1783 13.0515 26.245 13.0888 26.3216L14.0698 28.3523C14.1041 28.418 14.1526 28.4704 14.2161 28.5088C14.2798 28.5471 14.3484 28.5663 14.422 28.5663Z" fill="#4AB04A"/>
</g>
<mask id="mask5_3306_9523" style="mask-type:luminance" maskUnits="userSpaceOnUse" x="5" y="27" width="22" height="2">
<path d="M5.59375 27.75H26.8998V28.5857H5.59375V27.75Z" fill="white"/>
</mask>
<g mask="url(#mask5_3306_9523)">
<path d="M6.00793 28.5588H26.4652C26.5167 28.5588 26.5671 28.5487 26.6156 28.5286C26.664 28.5084 26.7064 28.4801 26.7438 28.4437C26.7801 28.4064 26.8093 28.364 26.8285 28.3156C26.8487 28.2671 26.8588 28.2167 26.8588 28.1642C26.8588 28.1117 26.8487 28.0613 26.8285 28.0128C26.8093 27.9644 26.7801 27.922 26.7438 27.8846C26.7064 27.8483 26.664 27.819 26.6156 27.7988C26.5671 27.7797 26.5167 27.7695 26.4652 27.7695H6.00793C5.95542 27.7695 5.90495 27.7797 5.85653 27.7988C5.80806 27.819 5.76567 27.8483 5.72935 27.8846C5.69201 27.922 5.66375 27.9644 5.64356 28.0128C5.62337 28.0613 5.61328 28.1117 5.61328 28.1642C5.61328 28.2167 5.62337 28.2671 5.64356 28.3156C5.66375 28.364 5.69201 28.4064 5.72935 28.4437C5.76567 28.4801 5.80806 28.5084 5.85653 28.5286C5.90495 28.5487 5.95542 28.5588 6.00793 28.5588Z" fill="#4AB04A"/>
</g>
</svg>
