<svg width="33" height="32" viewBox="0 0 33 32" fill="none" xmlns="http://www.w3.org/2000/svg">
<mask id="mask0_3306_9635" style="mask-type:luminance" maskUnits="userSpaceOnUse" x="4" y="4" width="25" height="24">
<path d="M28.3019 4.72266H4.69531V27.28H28.3019V4.72266Z" fill="white"/>
</mask>
<g mask="url(#mask0_3306_9635)">
<path d="M19.2884 7.343L19.4214 7.4752L19.5894 7.39221C20.4079 6.98822 21.3221 6.81841 22.2311 6.90145C23.14 6.98444 24.0083 7.31714 24.74 7.86276C25.4717 8.40834 26.0384 9.14555 26.3774 9.99302C26.7164 10.8404 26.8145 11.7651 26.6609 12.6648L26.6132 12.944L26.8952 12.9701C27.0971 12.9889 27.2929 13.049 27.4705 13.1469C27.6481 13.2446 27.8037 13.378 27.9274 13.5386C28.0512 13.6992 28.1406 13.8836 28.1899 14.0802C28.2392 14.2769 28.2475 14.4816 28.2142 14.6816C27.4366 19.359 25.5281 22.245 22.5494 23.4552L22.3859 23.5217V23.6982V24.8659C22.3859 25.4877 22.1388 26.084 21.6992 26.5236C21.2596 26.9632 20.6633 27.2102 20.0416 27.2102H13.0908C12.469 27.2102 11.8728 26.9632 11.4331 26.5236C10.9935 26.084 10.7465 25.4877 10.7465 24.8659V23.6982V23.5217L10.583 23.4552C7.60422 22.245 5.69571 19.3591 4.91816 14.6817C4.88601 14.4871 4.89323 14.288 4.93936 14.0962C4.98551 13.9044 5.06968 13.7237 5.18689 13.565C5.3041 13.4062 5.45196 13.2725 5.62173 13.172C5.7915 13.0714 5.97973 13.0058 6.17524 12.9793L6.40223 12.9485V12.7194V12.7176V12.702C6.40223 11.2091 6.84436 9.74966 7.67289 8.50775C8.50138 7.26583 9.67919 6.29718 11.0577 5.7239C12.4361 5.15064 13.9534 4.99849 15.4183 5.28666C16.8831 5.57476 18.2298 6.2903 19.2884 7.343ZM7.61535 12.702V12.9643H7.87764H9.61535H9.87764V12.702C9.87764 11.6194 10.3077 10.5811 11.0732 9.81566C11.8387 9.05012 12.877 8.62006 13.9596 8.62006C15.0422 8.62006 16.0805 9.05012 16.846 9.81566C17.6115 10.5811 18.0416 11.6194 18.0416 12.702V12.9643H18.3039H20.0416H20.3039V12.702C20.3039 11.0194 19.6354 9.40574 18.4457 8.21597C17.2559 7.02615 15.6422 6.35777 13.9596 6.35777C12.277 6.35777 10.6633 7.02615 9.47355 8.21597C8.28378 9.40574 7.61535 11.0194 7.61535 12.702ZM11.0908 12.702V12.9643H11.3531H16.5662H16.8285V12.702C16.8285 11.9411 16.5262 11.2114 15.9882 10.6734C15.4502 10.1354 14.7205 9.83318 13.9596 9.83318C13.1987 9.83318 12.4691 10.1354 11.931 10.6734C11.393 11.2114 11.0908 11.9411 11.0908 12.702ZM23.0564 12.5718L22.832 12.9643H23.2841H25.1452H25.3489L25.3994 12.7669C25.5404 12.2147 25.5535 11.6376 25.4378 11.0795C25.322 10.5214 25.0804 9.99716 24.7313 9.54659C24.3822 9.09608 23.9349 8.73117 23.4235 8.47968C22.912 8.22819 22.3498 8.09678 21.7799 8.09547H21.7793C21.3312 8.09547 20.9047 8.17395 20.5081 8.318L20.2038 8.42853L20.3751 8.70326C20.6721 9.18001 20.9175 9.69416 21.1059 10.234L21.1847 10.4597L21.4167 10.4021C21.6978 10.3324 21.9932 10.3468 22.2662 10.4435C22.5393 10.5401 22.7779 10.7148 22.9525 10.9459C23.1272 11.1769 23.2301 11.4542 23.2486 11.7432C23.2671 12.0323 23.2002 12.3204 23.0564 12.5718ZM21.1727 23.9971V23.7348H20.9105H12.2219H11.9596V23.9971V24.8659C11.9596 25.166 12.0788 25.4537 12.2909 25.6658C12.5031 25.8779 12.7907 25.9971 13.0908 25.9971H20.0416C20.3416 25.9971 20.6293 25.8779 20.8414 25.6658C21.0536 25.4537 21.1727 25.166 21.1727 24.8659V23.9971ZM11.5299 22.5091L11.5691 22.5217H11.6103H21.5221H21.5633L21.6024 22.5091C24.4932 21.5795 26.274 18.9553 27.0183 14.4828L27.0691 14.1774H26.7595H6.3728H6.06324L6.11407 14.4828C6.85831 18.9553 8.63908 21.5795 11.5299 22.5091Z" fill="#4AB04A"/>
</g>
</svg>
