<svg width="33" height="32" viewBox="0 0 33 32" fill="none" xmlns="http://www.w3.org/2000/svg">
<path d="M22.1647 17.9999C22.4299 17.9999 22.6843 17.8945 22.8718 17.707C23.0593 17.5194 23.1647 17.2651 23.1647 16.9999C23.1647 16.7347 23.0593 16.4803 22.8718 16.2928C22.6843 16.1052 22.4299 15.9999 22.1647 15.9999C21.8995 15.9999 21.6451 16.1052 21.4576 16.2928C21.27 16.4803 21.1647 16.7347 21.1647 16.9999C21.1647 17.2651 21.27 17.5194 21.4576 17.707C21.6451 17.8945 21.8995 17.9999 22.1647 17.9999ZM15.7247 8.13987C16.5667 7.89121 17.5227 7.94321 18.378 8.54854H14.8047C15.0929 8.37412 15.402 8.23681 15.7247 8.13987Z" fill="#4AB04A"/>
<path fill-rule="evenodd" clip-rule="evenodd" d="M14.8064 8.54754H18.3797C19.2644 9.17088 19.7937 10.2115 19.8304 11.2849C19.889 12.9635 18.9904 14.3849 17.9337 15.5409C17.1144 16.4362 16.1244 17.2489 15.2804 17.9422C15.0377 18.1409 14.807 18.3295 14.597 18.5082L14.163 18.8749L13.7317 18.5042C13.4997 18.3049 13.2424 18.0922 12.9717 17.8675C12.149 17.1875 11.1957 16.3989 10.405 15.5382C9.34837 14.3862 8.4477 12.9695 8.50237 11.2862V11.2849C8.53903 10.2115 9.06837 9.17021 9.9537 8.54688H13.5244C13.7537 8.6851 13.9677 8.84065 14.1664 9.01354C14.3661 8.84013 14.5802 8.68401 14.8064 8.54688M14.6797 10.3882C15.047 9.94421 15.5664 9.57621 16.1044 9.41688C16.627 9.26221 17.1444 9.30621 17.609 9.63554L17.611 9.63688C18.1344 10.0049 18.4744 10.6482 18.4977 11.3302C18.5377 12.4855 17.923 13.5762 16.9497 14.6402C16.2017 15.4582 15.3164 16.1855 14.4824 16.8702L14.169 17.1275C14.0353 17.0155 13.8995 16.9029 13.7617 16.7895C12.9557 16.1229 12.1104 15.4229 11.3884 14.6362C10.4144 13.5755 9.79703 12.4895 9.83503 11.3295C9.85837 10.6475 10.1977 10.0049 10.7217 9.63621C11.1864 9.30954 11.7057 9.26488 12.2284 9.41954C12.767 9.57821 13.2857 9.94421 13.6524 10.3882L14.1657 11.0095L14.6797 10.3882Z" fill="#4AB04A"/>
<path d="M13.5245 8.54991H9.95312C10.8078 7.94791 11.7638 7.89525 12.6051 8.14325C12.9271 8.23858 13.2365 8.37791 13.5238 8.54991" fill="#4AB04A"/>
<path fill-rule="evenodd" clip-rule="evenodd" d="M28.4793 19.7174C28.7073 18.468 26.9767 16.9107 26.9767 16.9107C26.3907 15.6974 26.406 14.6707 26.4233 13.506C26.428 13.176 26.4333 12.8347 26.4247 12.4747C26.3821 10.8996 25.8687 9.37332 24.9507 8.0927C23.9228 6.84813 22.5978 5.88282 21.098 5.28603C19.1653 4.43394 17.0756 3.99588 14.9633 4.00003C12.188 4.00003 9.52667 5.04936 7.56467 6.91736C5.60267 8.78536 4.5 11.3187 4.5 13.96C4.5 17.138 6.376 19.5894 8.81133 21.4094V25.7087C9.502 27.114 12.1087 28.1107 13.6313 27.99C15.9073 27.99 16.8647 27.0934 17.2313 26.562C17.386 26.338 17.436 26.1794 17.436 26.1794V25.2307C17.436 25.2307 17.9693 25.4054 18.7693 25.5634C21.176 26.038 25.9967 26.3594 25.9967 21.3114C25.9967 21.3114 28.2513 20.966 28.4793 19.7174ZM25.7753 17.4907L25.8893 17.7274L26.0827 17.9007L26.084 17.902L26.0887 17.9067L26.1267 17.942C26.162 17.9767 26.216 18.0287 26.2807 18.0967C26.4133 18.2347 26.5827 18.4254 26.742 18.64C26.9053 18.86 27.0313 19.0714 27.1047 19.2527C27.144 19.3494 27.158 19.4127 27.1633 19.4487L27.1293 19.4807C27.0327 19.5627 26.8707 19.658 26.6473 19.7494C26.3733 19.8594 26.0887 19.9412 25.798 19.9934L25.7913 19.9947L24.6633 20.1667V21.312C24.6633 22.6874 24.2407 23.3674 23.7953 23.7467C23.2993 24.1687 22.5553 24.4034 21.63 24.4634C20.7187 24.5234 19.7733 24.4034 19.0313 24.2567C18.6563 24.1829 18.2848 24.0921 17.918 23.9847L17.8613 23.9674L17.8513 23.964H17.8493L16.1027 23.3907V25.848C16.0417 25.9254 15.9724 25.9959 15.896 26.058C15.6213 26.286 14.9833 26.658 13.6313 26.658H13.578L13.526 26.6614C13.05 26.6994 12.2433 26.5534 11.448 26.2027C10.7987 25.916 10.3673 25.5867 10.1447 25.3227V20.7427L9.60933 20.3427C7.34733 18.6507 5.83333 16.548 5.83333 13.96C5.83333 11.6934 6.77867 9.5067 8.484 7.8827C10.1913 6.25736 12.5213 5.33336 14.9633 5.33336H14.9647C16.8909 5.32929 18.7967 5.72852 20.5593 6.50536L20.5807 6.5147L20.602 6.52336C21.8987 7.04336 23.0287 7.86403 23.8907 8.90336C24.6393 9.95918 25.0574 11.2136 25.092 12.5074C25.098 12.7727 25.0927 13.052 25.0873 13.3447C25.0647 14.5454 25.0387 15.9634 25.7753 17.4907Z" fill="#4AB04A"/>
</svg>
