<svg width="33" height="32" viewBox="0 0 33 32" fill="none" xmlns="http://www.w3.org/2000/svg">
<mask id="mask0_3306_9559" style="mask-type:luminance" maskUnits="userSpaceOnUse" x="0" y="7" width="33" height="18">
<path d="M0.75 7.5H32.7508V24.4967H0.75V7.5Z" fill="white"/>
</mask>
<g mask="url(#mask0_3306_9559)">
<path fill-rule="evenodd" clip-rule="evenodd" d="M10.4635 20.6162H30.4309C30.5915 20.6162 30.7228 20.485 30.7228 20.3236C30.7228 20.1623 30.5915 20.031 30.4309 20.031H28.189V17.275C28.189 17.1136 28.0586 16.9823 27.8972 16.9823H8.64467C8.51962 16.9823 8.40769 17.0634 8.36828 17.1831L7.42178 20.031H3.87053V19.4065H7.12537C7.28595 19.4065 7.41642 19.276 7.41642 19.1139C7.41642 18.9525 7.28595 18.8221 7.12537 18.8221H6.43208C7.30371 18.487 7.92359 17.6401 7.92359 16.6496C7.92359 15.3658 6.8845 14.3243 5.60528 14.3243C4.32602 14.3243 3.28689 15.3658 3.28689 16.6496C3.28689 17.6401 3.90682 18.487 4.77842 18.8221H3.57871C3.41736 18.8221 3.28689 18.9525 3.28689 19.1139V20.031H1.04573C0.884377 20.031 0.753906 20.1623 0.753906 20.3236C0.753906 20.485 0.884377 20.6162 1.04573 20.6162H7.22725L6.57107 22.5895C6.39346 23.1237 6.63433 23.7074 7.13614 23.959C7.31606 24.0494 7.51447 24.1482 7.70206 24.2424C7.9838 24.3844 8.31269 24.4006 8.60763 24.2879C8.90178 24.176 9.13645 23.9452 9.25305 23.651L10.4635 20.6162ZM7.91051 20.4109C7.90893 20.4147 7.90819 20.4178 7.90662 20.4217L7.12458 22.7748C7.03888 23.0326 7.15548 23.3144 7.39708 23.4356L7.963 23.7197C8.09888 23.7877 8.25715 23.7954 8.39997 23.7413C8.542 23.6873 8.6555 23.5753 8.71183 23.4333C9.28778 21.9889 10.401 19.1988 10.401 19.1988C10.4604 19.049 10.6303 18.9757 10.7801 19.0359C10.9298 19.0961 11.0024 19.266 10.9422 19.4165L10.6975 20.031H27.6054V17.5675C25.2091 17.5675 8.85543 17.5675 8.85543 17.5675L7.91051 20.4109ZM5.60528 14.9095C6.56255 14.9095 7.33996 15.6892 7.33996 16.6496C7.33996 17.61 6.56255 18.389 5.60528 18.389C4.64795 18.389 3.87053 17.61 3.87053 16.6496C3.87053 15.6892 4.64795 14.9095 5.60528 14.9095ZM22.1032 16.198L21.7558 14.5713C21.7489 14.5382 21.7365 14.5073 21.7188 14.4787C21.7188 14.4787 20.8495 13.0729 20.2203 12.0545C20.0103 11.7157 19.6745 11.4732 19.2869 11.3821C18.8994 11.2911 18.4917 11.3582 18.1536 11.569C17.4325 12.0168 16.598 12.5356 16.598 12.5356C16.5687 12.554 16.5432 12.5764 16.5223 12.6035C16.5223 12.6035 15.3543 14.0904 14.5468 15.1187C14.3383 15.385 14.2989 15.7479 14.4471 16.0529C14.5938 16.3578 14.9027 16.5516 15.24 16.5516C15.3219 16.5516 15.3983 16.5516 15.4647 16.5516C15.724 16.5516 15.9695 16.4373 16.1371 16.2397L17.7058 14.3915L18.7449 16.3941C18.8198 16.5369 18.9959 16.5925 19.1387 16.5184C19.2815 16.4435 19.3371 16.2667 19.263 16.1238L18.0231 13.736C17.9784 13.6496 17.8942 13.5909 17.7977 13.5801C17.7012 13.5693 17.6054 13.6071 17.5429 13.6812C17.5429 13.6812 16.1865 15.2793 15.6932 15.8614C15.636 15.9278 15.5527 15.9664 15.4647 15.9664H15.24C15.1258 15.9664 15.0215 15.9007 14.9713 15.7973C14.9211 15.6939 14.9343 15.5711 15.0053 15.4815L16.9493 13.0057L18.4608 12.0654C18.6678 11.9365 18.9171 11.8963 19.1541 11.9519C19.3912 12.0075 19.5965 12.1557 19.7247 12.3626L21.1961 14.7435L21.5327 16.3199C21.5659 16.4782 21.7211 16.5786 21.8786 16.5454C22.036 16.5114 22.1372 16.3555 22.1032 16.198ZM15.3944 7.60156C14.1152 7.60156 13.0761 8.64302 13.0761 9.92613C13.0761 11.2092 14.1152 12.2506 15.3944 12.2506C16.6737 12.2506 17.7128 11.2092 17.7128 9.92613C17.7128 8.64302 16.6737 7.60156 15.3944 7.60156ZM15.3944 8.18598C16.3525 8.18598 17.1291 8.96576 17.1291 9.92613C17.1291 10.8865 16.3525 11.6662 15.3944 11.6662C14.4371 11.6662 13.6597 10.8865 13.6597 9.92613C13.6597 8.96576 14.4371 8.18598 15.3944 8.18598Z" fill="#4AB04A"/>
</g>
</svg>
