<svg width="32" height="32" viewBox="0 0 32 32" fill="none" xmlns="http://www.w3.org/2000/svg">
<mask id="mask0_3306_9576" style="mask-type:luminance" maskUnits="userSpaceOnUse" x="1" y="16" width="30" height="9">
<path d="M1.05078 16.5234H30.774V24.3941H1.05078V16.5234Z" fill="white"/>
</mask>
<g mask="url(#mask0_3306_9576)">
<path d="M30.3042 24.3938H26.8401C26.6525 24.3938 26.5005 24.2426 26.5005 24.0556V20.9093H5.19404V24.0556C5.19404 24.2426 5.04142 24.3938 4.85449 24.3938H1.39034C1.20341 24.3938 1.05078 24.2426 1.05078 24.0556V16.9124C1.05078 16.7255 1.20341 16.5742 1.39034 16.5742H30.3042C30.4912 16.5742 30.6431 16.7255 30.6431 16.9124V24.0556C30.6431 24.2426 30.4912 24.3938 30.3042 24.3938ZM27.1796 23.7175H29.9647V17.2506H1.72989V23.7175H4.51493V20.5712C4.51493 20.3843 4.66685 20.233 4.85449 20.233H26.8401C27.0277 20.233 27.1796 20.3843 27.1796 20.5712V23.7175Z" fill="#4AB04A"/>
</g>
<path d="M26.8409 22.5241H24.4466C24.31 22.5241 24.1868 22.4422 24.1336 22.3162L23.4559 20.7031C23.3838 20.5309 23.4657 20.3321 23.6386 20.2607C23.8109 20.1886 24.0104 20.2698 24.0825 20.442L24.6727 21.8478H26.8409C27.0285 21.8478 27.1805 21.9991 27.1805 22.186C27.1805 22.3722 27.0285 22.5241 26.8409 22.5241Z" fill="#4AB04A"/>
<path d="M7.24958 22.5241H4.85518C4.66755 22.5241 4.51562 22.3722 4.51562 22.186C4.51562 21.9991 4.66755 21.8478 4.85518 21.8478H7.02343L7.61359 20.442C7.68572 20.2698 7.88454 20.1886 8.0575 20.2607C8.23041 20.3321 8.31235 20.5309 8.23953 20.7031L7.5625 22.3162C7.5093 22.4422 7.38608 22.5241 7.24958 22.5241Z" fill="#4AB04A"/>
<path d="M19.0174 17.2538C18.8305 17.2538 18.6786 17.1019 18.6786 16.9157V16.2169C18.6786 15.7227 18.2802 15.3208 17.7908 15.3208H8.68726C8.19787 15.3208 7.79955 15.7227 7.79955 16.2169V16.9157C7.79955 17.1019 7.64757 17.2538 7.46066 17.2538C7.27302 17.2538 7.12109 17.1019 7.12109 16.9157V16.2169C7.12109 15.3495 7.82405 14.6445 8.68726 14.6445H17.7908C18.6547 14.6445 19.357 15.3495 19.357 16.2169V16.9157C19.357 17.1019 19.205 17.2538 19.0174 17.2538Z" fill="#4AB04A"/>
<path d="M21.6243 17.254C21.5487 17.254 21.4724 17.2287 21.4094 17.177C21.2644 17.0586 21.2434 16.8458 21.3617 16.7009L27.354 9.42043C27.4723 9.27622 27.6866 9.25518 27.8314 9.37353C27.9764 9.49182 27.9974 9.70538 27.8784 9.84959L21.8868 17.1301C21.8196 17.2113 21.7223 17.254 21.6243 17.254Z" fill="#4AB04A"/>
<path d="M24.3038 17.2553C24.2282 17.2553 24.1519 17.2301 24.0889 17.1782C23.944 17.0599 23.923 16.8471 24.042 16.7022L28.9449 10.7449C29.0639 10.6007 29.2775 10.579 29.4224 10.698C29.5673 10.8164 29.589 11.0292 29.47 11.1741L24.5664 17.1313C24.4999 17.2125 24.4026 17.2553 24.3038 17.2553Z" fill="#4AB04A"/>
<mask id="mask1_3306_9576" style="mask-type:luminance" maskUnits="userSpaceOnUse" x="27" y="7" width="4" height="5">
<path d="M27.1914 7.60156H30.9552V11.3275H27.1914V7.60156Z" fill="white"/>
</mask>
<g mask="url(#mask1_3306_9576)">
<path d="M29.0885 11.2994C28.6649 11.2994 28.2582 11.1524 27.9277 10.8772C27.1555 10.2338 27.047 9.07869 27.6861 8.30156C27.997 7.92349 28.436 7.69036 28.9219 7.64482C29.4077 7.59934 29.881 7.74638 30.2556 8.05862C31.0285 8.70203 31.137 9.85718 30.4971 10.6343C30.1863 11.0124 29.7473 11.2455 29.2614 11.291C29.2033 11.2966 29.1459 11.2994 29.0885 11.2994ZM29.0941 8.31347C29.0577 8.31347 29.022 8.31483 28.9856 8.31834C28.6817 8.34704 28.4066 8.4934 28.2113 8.73072C27.8066 9.22148 27.8752 9.95171 28.3632 10.3585C28.5977 10.5538 28.8945 10.6462 29.1977 10.6175C29.5023 10.5888 29.7774 10.4425 29.9727 10.2051C30.3767 9.71438 30.3088 8.98415 29.8208 8.57739C29.6136 8.40516 29.3587 8.31347 29.0941 8.31347Z" fill="#4AB04A"/>
</g>
<path d="M28.8312 9.78549C28.6576 9.64055 28.6338 9.38151 28.7774 9.20719C28.9209 9.03286 29.1785 9.00837 29.3521 9.15258C29.5251 9.29679 29.5496 9.55656 29.406 9.73088C29.2625 9.9052 29.0049 9.9297 28.8312 9.78549Z" fill="#4AB04A"/>
<path d="M30.3072 17.2559C30.1196 17.2559 29.9677 17.104 29.9677 16.9177V14.9231H26.2262C26.0386 14.9231 25.8867 14.7712 25.8867 14.5842C25.8867 14.398 26.0386 14.2461 26.2262 14.2461H30.3072C30.4941 14.2461 30.6461 14.398 30.6461 14.5842V16.9177C30.6461 17.104 30.4941 17.2559 30.3072 17.2559Z" fill="#4AB04A"/>
<path d="M4.8506 17.256C4.66297 17.256 4.51105 17.1041 4.51105 16.9179V12.9539C4.51105 12.5681 4.20089 12.2544 3.81933 12.2544C3.43777 12.2544 3.12762 12.5681 3.12762 12.9539V16.9179C3.12762 17.1041 2.9757 17.256 2.78807 17.256C2.60114 17.256 2.44922 17.1041 2.44922 16.9179V12.9539C2.44922 12.1949 3.06392 11.5781 3.81933 11.5781C4.57475 11.5781 5.19015 12.1949 5.19015 12.9539V16.9179C5.19015 17.1041 5.03753 17.256 4.8506 17.256Z" fill="#4AB04A"/>
</svg>
