<svg width="30" height="30" viewBox="0 0 30 30" fill="none" xmlns="http://www.w3.org/2000/svg">
<g clip-path="url(#clip0_3306_2580)">
<path d="M0.0625 29.9428V28.1273L0.0666846 28.1165C0.224504 27.7293 0.39667 27.3665 0.770295 27.1834C0.97833 27.081 1.0148 26.9589 1.0148 26.7404C1.00942 19.9675 1.00942 13.0821 1.00942 6.42236V3.36664C1.00942 3.34509 1.01061 3.32294 1.0124 3.30139C1.01539 3.2571 1.01778 3.2158 1.00762 3.18347C0.986699 3.11883 0.951429 3.06735 0.936484 3.06076C0.540142 2.99133 0.262763 2.74831 0.0672824 2.29698L0.0625 2.28561V0.806529L0.0678802 0.794558C0.220917 0.465341 0.464819 0.221122 0.793609 0.0678872L0.805566 0.0625H29.1652L29.1801 0.0714786C29.2172 0.0948231 29.2555 0.117569 29.2937 0.139716C29.3786 0.189398 29.4659 0.240277 29.5436 0.304923C29.8497 0.559916 29.9507 1.14472 29.9435 1.60742C29.9364 2.04498 29.8234 2.59447 29.5275 2.82493C29.4121 2.91471 29.2758 2.97337 29.1311 3.03503C29.0743 3.05957 29.0158 3.08471 28.9572 3.11224V17.7145C28.9572 20.6852 28.9572 23.7565 28.9536 26.7775C28.9536 26.9703 28.9823 27.0708 29.155 27.1582C29.5735 27.3701 29.8341 27.7352 29.8712 28.1596C29.9053 28.5553 29.8981 28.9444 29.8903 29.3562C29.8867 29.528 29.8838 29.7057 29.8838 29.8823V29.9422H0.0625V29.9428ZM28.8406 28.833C28.8316 28.7726 28.8257 28.7115 28.8191 28.6523C28.8005 28.4769 28.7838 28.3111 28.7037 28.2027C28.6206 28.0908 28.3671 28.0315 28.1591 28.0315C21.6114 28.025 15.1958 28.0238 9.78393 28.0238H1.81346H1.71123C1.64488 28.0238 1.57434 28.0255 1.50918 28.0399C1.27603 28.0902 1.16185 28.2225 1.15887 28.4434C1.15767 28.5403 1.15767 28.6379 1.15827 28.7414V28.833H28.8418H28.8406ZM12.5045 26.9056V3.0877H2.11654V26.9056H12.5045ZM27.8465 26.9056V13.1587H26.0662V14.0907H25.0009V11.126H26.0847V12.0328H27.85V5.94051H21.1445C20.8899 5.94051 20.6346 5.94051 20.3799 5.94111C20.1635 5.94171 19.9005 5.99378 19.879 6.238C19.8473 6.59655 19.8539 6.9527 19.8604 7.32921C19.8628 7.46388 19.8652 7.60216 19.8658 7.74043C19.9077 7.74043 19.9483 7.73983 19.9878 7.73923C20.0422 7.73863 20.0942 7.73803 20.145 7.73803C20.2173 7.73803 20.2765 7.73923 20.3321 7.74222C20.9975 7.77694 21.5576 8.21989 21.664 8.79512C21.7429 9.2219 21.7597 9.66604 21.7752 10.0964C21.7824 10.2844 21.7895 10.4795 21.8015 10.6699L21.8057 10.7333H16.8404V10.6734C16.8404 10.519 16.8398 10.367 16.8392 10.2155C16.838 9.87734 16.8368 9.5583 16.8416 9.23267C16.8547 8.40784 17.489 7.76557 18.3169 7.73923C18.3767 7.73743 18.4365 7.73684 18.4975 7.73684C18.5477 7.73684 18.5985 7.73684 18.6505 7.73743C18.6852 7.73743 18.7204 7.73743 18.7563 7.73803V7.32921C18.7563 6.99879 18.7563 6.68155 18.7563 6.3643C18.7563 5.98361 18.8908 5.64182 19.1538 5.34852C19.5496 4.90797 20.0715 4.8511 20.4822 4.8511C21.5965 4.8523 22.7072 4.8523 23.8179 4.8523H27.8447V3.10147H13.6176V26.9044H27.8447L27.8465 26.9056ZM20.6729 9.64569C20.6729 9.61876 20.6729 9.59242 20.6735 9.56668C20.674 9.47749 20.6752 9.39309 20.6717 9.31109C20.6579 8.98067 20.5126 8.83821 20.1862 8.83582C19.8873 8.83343 19.5884 8.83223 19.2901 8.83223C18.9918 8.83223 18.6762 8.83343 18.3887 8.83642C18.088 8.83941 17.9481 8.97469 17.9355 9.27458C17.9313 9.36975 17.9325 9.46432 17.9337 9.56429C17.9337 9.59122 17.9337 9.61816 17.9343 9.64509H20.6729V9.64569ZM28.7993 1.95998V1.17525H1.17321V1.95998H28.7993Z" fill="#4AB04A"/>
<path d="M29.1451 0.120912C29.2647 0.196333 29.3944 0.26038 29.502 0.350167C30.0108 0.773958 30.0078 2.37156 29.4877 2.77679C29.3257 2.90309 29.1147 2.96594 28.8941 3.07368V15.7647C28.8941 19.4351 28.8953 23.1062 28.8905 26.7767C28.8905 26.9772 28.921 27.1077 29.1248 27.2112C29.5074 27.4052 29.7716 27.7434 29.8081 28.1648C29.8571 28.7274 29.8201 29.2973 29.8201 29.8821H0.11956V28.1384C0.266021 27.7781 0.428623 27.4159 0.794476 27.2364C1.02642 27.1226 1.07245 26.9778 1.07245 26.7396C1.06648 18.9485 1.06767 11.1574 1.06707 3.36639C1.06707 3.29875 1.08202 3.22572 1.06169 3.16467C1.04137 3.10242 0.994142 3.01024 0.946318 3.00186C0.518293 2.92644 0.280966 2.6451 0.118962 2.27219V0.818253C0.266021 0.500409 0.498565 0.268162 0.815399 0.120912H29.1445M1.11071 2.0184H28.8564V1.11395H1.11071V2.0184ZM2.05404 26.964H12.5616V3.0264H2.05404V26.964ZM13.5563 26.964H27.9029V13.0974H26.0031V14.0294H25.0574V11.1844H26.0216V12.0912H27.9065V5.87921H27.5747C26.5352 5.87921 25.4962 5.87921 24.4566 5.87921C23.6771 5.87921 22.8975 5.87921 22.118 5.87921H22.1156C21.7898 5.87921 21.464 5.87921 21.1388 5.87921C20.8847 5.87921 20.6307 5.87921 20.3772 5.8804C20.1172 5.8816 19.8416 5.95463 19.8171 6.23237C19.7716 6.74594 19.8039 7.26671 19.8039 7.80004C19.9271 7.80004 20.0377 7.79704 20.1435 7.79704C20.2056 7.79704 20.2666 7.79824 20.327 7.80123C20.923 7.83236 21.4951 8.22203 21.6033 8.80504C21.7157 9.4126 21.6995 10.0441 21.7402 10.6726H16.898C16.898 10.1794 16.892 9.7059 16.8992 9.23303C16.9124 8.43872 17.5227 7.82398 18.3172 7.79824C18.3764 7.79644 18.4356 7.79585 18.4953 7.79585C18.5982 7.79585 18.7028 7.79764 18.8146 7.79764C18.8146 7.29185 18.8146 6.82795 18.8146 6.36405C18.8146 5.98935 18.9479 5.66611 19.1972 5.38838C19.5421 5.00349 19.9922 4.91131 20.4812 4.91131C20.4824 4.91131 20.4836 4.91131 20.4848 4.91131C21.5973 4.91251 22.7104 4.91251 23.8229 4.91251C25.0616 4.91251 26.2996 4.91251 27.5377 4.91251H27.9035V3.04196H13.5569V26.9646M17.8718 9.70411H20.7293C20.7293 9.55566 20.7335 9.43115 20.7287 9.30725C20.7138 8.9487 20.5434 8.77751 20.1841 8.77452C19.8846 8.77212 19.5857 8.77093 19.2862 8.77093C18.9867 8.77093 18.6854 8.77212 18.3853 8.77512C18.0518 8.77871 17.8868 8.94391 17.873 9.27074C17.8671 9.412 17.8718 9.55326 17.8718 9.70411ZM1.09517 28.8914H28.9084C28.8588 28.6269 28.8785 28.3413 28.7494 28.166C28.6472 28.0277 28.3614 27.9708 28.157 27.9702C22.0343 27.9636 15.9099 27.9625 9.78659 27.9625C7.12757 27.9625 4.46975 27.9625 1.81014 27.9625C1.77666 27.9625 1.74259 27.9625 1.70851 27.9625C1.63558 27.9625 1.56265 27.9648 1.4933 27.9798C1.25 28.0325 1.09935 28.1767 1.09577 28.4413C1.09397 28.5844 1.09577 28.7274 1.09577 28.8914M29.1798 0.00119715H0.789694L0.765782 0.0125701C0.42384 0.171193 0.169775 0.425587 0.0113582 0.767972L0 0.791915V2.29614L0.0101626 2.31888C0.211621 2.78338 0.496772 3.03657 0.906863 3.11499C0.918819 3.13055 0.937351 3.16407 0.948709 3.19998C0.955882 3.22153 0.953491 3.25924 0.9511 3.29576C0.949904 3.3179 0.948111 3.34065 0.948111 3.36519V6.47539C0.948111 13.1166 0.948111 19.984 0.953491 26.7384C0.953491 26.9622 0.908058 27.046 0.742468 27.1274C0.317432 27.3363 0.139287 27.7733 0.0095648 28.0917L0.0005978 28.1133V30H29.9402V29.8803C29.9402 29.7043 29.9438 29.5271 29.9468 29.3559C29.9546 28.9603 29.9623 28.5514 29.9277 28.1528C29.8888 27.7069 29.6162 27.3244 29.1792 27.1029C29.0346 27.0299 29.0106 26.9568 29.0106 26.7755C29.0148 23.7497 29.0142 20.673 29.0142 17.6975V15.7629V3.41427V3.14791C29.0609 3.12696 29.1069 3.10661 29.1523 3.08745C29.3006 3.024 29.4405 2.96415 29.5618 2.86957C29.8272 2.66306 29.991 2.19079 30.0006 1.60598C30.0084 1.12951 29.902 0.525549 29.5791 0.256789C29.4978 0.18915 29.4082 0.136475 29.3209 0.0855963C29.282 0.0628504 29.245 0.0413017 29.2091 0.0185558L29.1798 0V0.00119715ZM1.23027 1.23366H28.7368V1.89868H1.23027V1.23366ZM2.1736 3.14611H12.442V26.8443H2.1736V3.14611ZM13.6759 3.16108H27.7834V4.79219H25.6917H23.8223C22.7098 4.79219 21.5967 4.79219 20.4842 4.791H20.4806C20.0574 4.791 19.5188 4.84966 19.1075 5.30817C18.8337 5.61284 18.695 5.9684 18.6944 6.36405C18.6944 6.68549 18.6944 7.00752 18.6944 7.34332V7.67793C18.6795 7.67793 18.6639 7.67793 18.649 7.67793C18.597 7.67793 18.5456 7.67733 18.4953 7.67733C18.4254 7.67733 18.3674 7.67793 18.3136 7.67972C17.4534 7.70726 16.794 8.37467 16.7802 9.23183C16.7749 9.55805 16.7761 9.87769 16.7779 10.2165C16.7785 10.3673 16.7791 10.5194 16.7791 10.6738V10.7935H21.8681L21.8598 10.666C21.8478 10.4763 21.8406 10.2817 21.8335 10.0944C21.8173 9.6622 21.8012 9.21507 21.7211 8.78409C21.6093 8.18193 21.0258 7.71863 20.3336 7.68272C20.2774 7.67972 20.217 7.67852 20.1435 7.67852C20.0921 7.67852 20.0395 7.67912 19.9851 7.67972C19.9647 7.67972 19.9438 7.67972 19.9229 7.68032C19.9217 7.5618 19.9199 7.44328 19.9175 7.32836C19.9109 6.95305 19.9044 6.59869 19.9354 6.24374C19.9498 6.08392 20.098 6.00191 20.3766 6.00132C20.6307 6.00072 20.8841 6.00012 21.1382 6.00012C21.3008 6.00012 21.464 6.00012 21.6266 6.00012C21.7892 6.00012 21.9524 6.00012 22.115 6.00012H24.456H26.0151H27.5741H27.7863V11.9727H26.1406V11.0659H24.9372V14.1503H26.1221V13.2183H27.7828V26.8455H13.6753V3.16108H13.6759ZM17.9908 9.58439C17.9908 9.57721 17.9908 9.56942 17.9908 9.56224C17.9896 9.46288 17.989 9.3695 17.9926 9.27612C18.0039 9.00856 18.1181 8.89782 18.3865 8.89543C18.6735 8.89244 18.9766 8.89124 19.2862 8.89124C19.5732 8.89124 19.8667 8.89244 20.1829 8.89483C20.477 8.89723 20.5966 9.01455 20.6092 9.31264C20.6127 9.39285 20.6115 9.47665 20.611 9.56524C20.611 9.57182 20.611 9.5784 20.611 9.58499H17.9908V9.58439ZM1.21473 28.7717C1.21473 28.7609 1.21473 28.7502 1.21473 28.7394C1.21473 28.6364 1.21413 28.5389 1.21533 28.4431C1.21772 28.2516 1.31396 28.1414 1.51841 28.0971C1.57819 28.084 1.64515 28.0822 1.70851 28.0822C1.72525 28.0822 1.74199 28.0822 1.75873 28.0822C1.77606 28.0822 1.7934 28.0822 1.81014 28.0822H3.17671C5.3802 28.0822 7.58309 28.0822 9.78659 28.0822C15.2092 28.0822 21.6326 28.0834 28.1564 28.0899C28.374 28.0899 28.5922 28.1546 28.6526 28.2372C28.7225 28.3324 28.7392 28.4904 28.7566 28.6574C28.7608 28.6951 28.7643 28.7334 28.7691 28.7717H1.21473Z" fill="#4AB04A"/>
<path d="M20.2422 11.6582L21.3242 11.5469L21.5496 13.5766L20.4676 13.688L20.2422 11.6582Z" fill="#4AB04A"/>
<path d="M21.2709 11.6161C21.3433 12.2667 21.412 12.885 21.4832 13.5267C21.1508 13.5608 20.8483 13.592 20.5201 13.6255C20.4484 12.9772 20.3796 12.3589 20.3079 11.7148C20.6433 11.6801 20.9451 11.649 21.2709 11.6155M21.3768 11.4844L21.259 11.4963L20.2959 11.5957L20.1758 11.6083L20.1889 11.728L20.3784 13.4381L20.4006 13.6386L20.4137 13.7566L20.5315 13.7446L21.4945 13.6458L21.6147 13.6333L21.6015 13.5135L21.3893 11.6029L21.3762 11.485L21.3768 11.4844Z" fill="#4AB04A"/>
<path d="M19.8256 11.6016H18.7812V13.611H19.8256V11.6016Z" fill="#4AB04A"/>
<path d="M19.7631 11.6588V13.5485H18.8383V11.6588H19.7631ZM19.8827 11.5391H18.7188V13.6682H19.8827V11.5391Z" fill="#4AB04A"/>
<path d="M19.8309 14.4766H18.7734V16.4932H19.8309V14.4766Z" fill="#4AB04A"/>
<path d="M19.7684 14.5338V16.4307H18.8305V14.5338H19.7684ZM19.888 14.4141H18.7109V16.5504H19.888V14.4141Z" fill="#4AB04A"/>
<path d="M19.8303 17.3516H18.7734V19.3664H19.8303V17.3516Z" fill="#4AB04A"/>
<path d="M19.7678 17.4088V19.3039H18.8305V17.4088H19.7678ZM19.8874 17.2891H18.7109V19.4236H19.8874V17.2891Z" fill="#4AB04A"/>
<path d="M16.7031 16.4264L16.9697 14.4062L18.0506 14.5391L17.7768 16.5719L16.7031 16.4264Z" fill="#4AB04A"/>
<path d="M17.0223 14.4688C17.3385 14.5077 17.6458 14.5454 17.9842 14.5867C17.8969 15.2368 17.8132 15.8587 17.7265 16.5004C17.4013 16.4567 17.109 16.4166 16.7706 16.3711C16.8531 15.7468 16.9344 15.1314 17.0217 14.4688M16.9189 14.3359L16.9033 14.4533L16.6523 16.3555L16.6367 16.474L16.7551 16.4902L16.9422 16.5154L17.711 16.6195L17.8293 16.6357L17.8455 16.5171L18.1031 14.6035L18.1193 14.4832L17.9991 14.4682L17.3696 14.391L17.0372 14.3503L16.9195 14.3359H16.9189Z" fill="#4AB04A"/>
<path d="M16.3203 19.2744L16.5941 17.25L17.6713 17.3943L17.3964 19.4216L16.3203 19.2744Z" fill="#4AB04A"/>
<path d="M16.6422 17.3138C16.965 17.3569 17.2669 17.3976 17.601 17.4425C17.5143 18.0823 17.4307 18.6989 17.3422 19.3507C17.0194 19.3064 16.7115 19.2645 16.3845 19.2196C16.4712 18.578 16.5549 17.9608 16.6422 17.3138ZM16.5399 17.1797L16.5238 17.2982L16.4455 17.8776L16.2661 19.2041L16.25 19.3226L16.3684 19.3387L16.9285 19.4154L17.326 19.4698L17.4444 19.486L17.4605 19.3675L17.5096 19.0083L17.7194 17.4592L17.7355 17.3401L17.6166 17.3239L17.1126 17.2563L16.6577 17.1953L16.5393 17.1797H16.5399Z" fill="#4AB04A"/>
<path d="M20.875 17.3913L21.9516 17.2656L22.1842 19.2936L21.1046 19.4301L20.875 17.3913Z" fill="#4AB04A"/>
<path d="M21.899 17.3276C21.9713 17.9609 22.0425 18.5774 22.1178 19.2371C21.8033 19.2772 21.4949 19.3161 21.1571 19.3592C21.0854 18.7193 21.0154 18.1016 20.9413 17.4395C21.2737 17.4006 21.5666 17.3665 21.899 17.3276ZM22.0042 17.1953L21.8852 17.2091L21.5899 17.2438L20.927 17.3216L20.8086 17.3354L20.8217 17.4539L20.9443 18.5415L21.0381 19.3735L21.0519 19.4944L21.1721 19.4789L21.3119 19.4609L22.1327 19.3568L22.2499 19.3418L22.2361 19.2245L22.2015 18.9246L22.0167 17.315L22.003 17.1959L22.0042 17.1953Z" fill="#4AB04A"/>
<path d="M20.5547 14.5217L21.6349 14.3984L21.8621 16.4312L20.7884 16.5569L20.5547 14.5217Z" fill="#4AB04A"/>
<path d="M21.5823 14.4682C21.654 15.1087 21.7233 15.7282 21.7963 16.3819C21.4633 16.4208 21.1769 16.4543 20.841 16.4938C20.7686 15.8635 20.6969 15.2374 20.621 14.5784C20.945 14.5412 21.2463 14.5071 21.5823 14.4688M21.6875 14.3359L21.5685 14.3497L21.0867 14.4048L20.6072 14.4592L20.4883 14.473L20.502 14.5921L20.5283 14.8208L20.722 16.5076L20.7358 16.6267L20.8547 16.6129L21.4621 16.5417L21.81 16.501L21.9284 16.4872L21.9152 16.3687L21.911 16.3292L21.7012 14.4551L21.6881 14.3359H21.6875Z" fill="#4AB04A"/>
<path d="M17.0938 13.5719L17.3586 11.5469L18.4376 11.6822L18.165 13.7137L17.0938 13.5719Z" fill="#4AB04A"/>
<path d="M17.4105 11.6112C17.7351 11.6519 18.0275 11.6885 18.3706 11.7316C18.2827 12.3882 18.2002 13.0047 18.1141 13.644C17.7955 13.6021 17.5044 13.5638 17.1607 13.5183C17.2437 12.885 17.325 12.2631 17.4105 11.6112ZM17.3077 11.4778L17.2922 11.5957L17.1266 12.8623L17.0429 13.5027L17.0273 13.6213L17.1457 13.6368L17.9605 13.7446L18.0986 13.7625L18.217 13.7781L18.2331 13.6596L18.37 12.6396L18.4896 11.7471L18.5057 11.6274L18.3861 11.6124L17.8111 11.54L17.4261 11.4915L17.3083 11.4766L17.3077 11.4778Z" fill="#4AB04A"/>
<path d="M8.70312 17.4445V12.5703H11.6706V17.4445H8.70312ZM10.576 16.3659V13.6388H9.78574V16.3659H10.576Z" fill="#4AB04A"/>
<path d="M11.612 12.6275V17.382H8.76409V12.6275H11.612ZM9.72715 16.4225H10.637V13.5757H9.72715V16.4225ZM11.7316 12.5078H8.64453V17.5017H11.7316V12.5078ZM9.84671 13.6954H10.5174V16.3028H9.84671V13.6954Z" fill="#4AB04A"/>
</g>
<defs>
<clipPath id="clip0_3306_2580">
<rect width="30" height="30" fill="white"/>
</clipPath>
</defs>
</svg>
