<svg width="32" height="26" viewBox="0 0 32 26" fill="none" xmlns="http://www.w3.org/2000/svg">
<g clip-path="url(#clip0_3306_713)">
<path d="M0.0078125 7.37206C0.236629 6.83079 0.649165 6.63907 1.22956 6.69196C2.68429 6.82583 4.10646 7.10928 5.50524 7.51998C5.60211 7.5489 5.69982 7.577 5.80337 7.60757C5.91527 6.925 5.97958 6.24572 6.14325 5.59042C6.42051 4.48557 6.73617 3.38816 7.08274 2.30231C7.29318 1.6404 7.90113 1.4429 8.51242 1.78418C9.89784 2.55683 11.1522 3.50633 12.3196 4.57151C12.3956 4.64092 12.4716 4.71034 12.5793 4.80785C12.642 4.70042 12.6987 4.61035 12.7497 4.51697C13.442 3.24272 14.2462 2.04449 15.1974 0.943771C15.7109 0.348789 16.313 0.352094 16.8325 0.953688C17.7686 2.03953 18.5594 3.22206 19.2484 4.474C19.3027 4.57316 19.357 4.67233 19.4313 4.80868C19.5257 4.72604 19.6083 4.6558 19.6885 4.58308C20.8384 3.52947 22.0785 2.59485 23.4381 1.82054C24.1312 1.42554 24.6874 1.62717 24.9713 2.37256C25.5726 3.94843 25.9592 5.57554 26.1413 7.25058C26.1538 7.36214 26.1789 7.47288 26.2006 7.59518C26.8595 7.42825 27.5008 7.22827 28.1564 7.10928C29.095 6.93904 30.042 6.79774 30.9915 6.7027C31.6304 6.63907 32.0429 7.0663 32.0053 7.70508C31.9109 9.33633 31.5585 10.9213 31.0508 12.4732C30.5882 13.8888 29.9702 15.2349 29.1418 16.51C29.419 16.6827 29.6988 16.8372 29.9568 17.0223C30.513 17.4198 31.0708 17.8181 31.6045 18.2445C31.9911 18.5528 32.088 19.0106 31.845 19.4114C30.5289 21.5864 28.8754 23.4366 26.5705 24.6315C24.5062 25.7016 22.3666 25.7248 20.1862 25.0215C19.0722 24.6629 18.0367 24.1456 17.0404 23.5407C16.8959 23.4531 16.6972 23.4308 16.521 23.4217C16.1794 23.4035 15.8362 23.4035 15.4946 23.4217C15.3184 23.4308 15.1197 23.4539 14.9761 23.5415C13.5397 24.4183 12.0273 25.0943 10.3488 25.3794C8.2644 25.733 6.36121 25.2819 4.60752 24.153C2.75527 22.9606 1.34814 21.3492 0.214081 19.4915C-0.0715215 19.0238 -0.00137355 18.561 0.438721 18.2247C1.10429 17.7148 1.79993 17.243 2.4847 16.7579C2.60162 16.6753 2.73022 16.6067 2.84129 16.5389C2.46216 15.8158 2.05797 15.1225 1.72477 14.397C0.842907 12.4732 0.296755 10.4536 0.0679393 8.3513C0.0595884 8.27114 0.0278548 8.19347 0.0078125 8.11413C0.0078125 7.86705 0.0078125 7.61914 0.0078125 7.37206ZM16.0149 2.93614C15.9456 3.02208 15.9055 3.06835 15.8696 3.11711C14.8124 4.55746 13.9556 6.10442 13.3551 7.78442C12.6169 9.85115 12.3639 11.9609 12.7931 14.1309C13.2858 16.6216 14.4015 18.8304 15.8855 20.8749C15.9205 20.9236 15.9381 20.9856 15.9715 21.0608C16.0667 20.9484 16.1026 20.912 16.1318 20.8715C17.3068 19.2585 18.2496 17.5273 18.8476 15.6217C19.3436 14.0408 19.5591 12.4286 19.3712 10.7767C19.1783 9.08263 18.6455 7.48858 17.888 5.96393C17.3644 4.91032 16.7506 3.91125 16.0141 2.93614H16.0149ZM18.1502 21.2897C21.2543 20.6121 24.0418 19.4948 26.2006 17.2141C28.4645 14.8226 29.4892 11.8667 30.0278 8.62483C29.1777 8.81406 28.3818 8.95951 27.6052 9.17023C25.3838 9.77347 23.3337 10.7164 21.5842 12.2344C21.4238 12.3732 21.3094 12.5087 21.2952 12.7443C21.2034 14.2755 20.856 15.753 20.309 17.186C19.767 18.6057 19.0538 19.9386 18.1502 21.2889V21.2897ZM13.8236 21.2789C13.4161 20.5782 13.0294 19.9559 12.6854 19.3122C11.725 17.5173 10.986 15.6324 10.8357 13.5979C10.7655 12.6467 10.3505 12.079 9.61307 11.5626C7.72242 10.2395 5.63051 9.40822 3.38577 8.91653C2.93649 8.8182 2.48136 8.74796 1.99617 8.65788C2.5298 11.7989 3.51438 14.6887 5.6731 17.0546C7.84685 19.4378 10.6912 20.5889 13.8228 21.2781L13.8236 21.2789ZM12.247 22.8639C12.1543 22.8242 12.1008 22.7928 12.0424 22.7771C8.99844 21.9376 6.28272 20.5484 4.14571 18.1817C4.09477 18.1247 3.94696 18.0784 3.89434 18.1098C3.33734 18.442 2.79118 18.7916 2.22165 19.1494C3.35905 20.7476 4.62672 22.1194 6.35871 22.9978C8.32786 23.996 10.2745 23.7076 12.247 22.8647V22.8639ZM29.7982 19.1659C29.3706 18.8841 28.9789 18.6164 28.5772 18.3635C28.0278 18.0181 28.0269 18.0255 27.5902 18.4834C25.6611 20.503 23.2786 21.7706 20.6271 22.5904C20.3549 22.6747 20.0827 22.7557 19.7478 22.8573C21.266 23.487 22.7541 23.8746 24.33 23.4738C26.7835 22.8507 28.3501 21.112 29.799 19.1651L29.7982 19.1659ZM23.54 3.9881C23.4807 4.00876 23.4489 4.01371 23.4247 4.02942C22.3232 4.76075 21.3027 5.58877 20.3858 6.53826C20.324 6.60189 20.314 6.7589 20.3415 6.85476C20.5194 7.46627 20.7307 8.06868 20.8985 8.68267C21.0255 9.14461 21.1048 9.61894 21.2067 10.0958C21.2551 10.0767 21.2852 10.0693 21.3111 10.0544C22.2614 9.50656 23.2084 8.95124 24.1654 8.41493C24.3333 8.32155 24.3383 8.21165 24.3266 8.06538C24.218 6.687 23.9508 5.3392 23.5383 3.98892L23.54 3.9881ZM10.8031 10.1032C10.824 10.047 10.8415 10.0098 10.8524 9.97097C11.1371 8.90992 11.4244 7.85052 11.6983 6.78699C11.7192 6.70518 11.6724 6.57049 11.609 6.50851C11.1998 6.11268 10.7939 5.71024 10.3538 5.34912C9.7659 4.8657 9.14793 4.41863 8.50156 3.92447C8.06147 5.36152 7.77837 6.74568 7.69904 8.16702C7.69486 8.24883 7.80927 8.36865 7.89779 8.41741C8.51409 8.75787 9.14542 9.07354 9.75838 9.42062C10.1166 9.6239 10.4498 9.87016 10.8031 10.104V10.1032Z" fill="#4AB04A"/>
</g>
<defs>
<clipPath id="clip0_3306_713">
<rect width="32" height="25" fill="white" transform="translate(0.0078125 0.5)"/>
</clipPath>
</defs>
</svg>
