<svg width="32" height="32" viewBox="0 0 32 32" fill="none" xmlns="http://www.w3.org/2000/svg">
<g clip-path="url(#clip0_3306_2506)">
<path d="M16.0102 0.000692493C19.2772 0.000692493 22.5433 -0.000197855 25.8102 0.000692493C28.8448 0.00158284 31.3006 2.00843 31.8972 4.98486C31.9622 5.30895 31.9924 5.6455 31.9924 5.97671C31.9978 12.6543 32.0022 19.3328 31.9942 26.0104C31.9907 28.9655 29.6925 31.5484 26.7487 31.9339C26.4522 31.9731 26.1521 31.9953 25.8539 31.9953C19.287 31.9989 12.721 31.9998 6.15415 31.9971C2.70555 31.9971 0.00222606 29.2985 0.00133563 25.8555C-0.000445211 19.2776 -0.000445211 12.6997 0.00133563 6.12184C0.00222606 2.71804 2.71 0.00514423 6.11052 0.00158284C9.41043 -0.00197855 12.7103 0.00158284 16.0102 0.00158284V0.000692493ZM29.867 16.0002C29.867 12.7229 29.8732 9.44461 29.8652 6.16724C29.859 3.8924 28.1004 2.13575 25.8245 2.13397C19.2799 2.12862 12.7362 2.12951 6.19155 2.13397C3.89604 2.13575 2.13479 3.8924 2.13301 6.18327C2.12855 12.7273 2.12855 19.2723 2.13301 25.8163C2.13479 28.1072 3.89426 29.8647 6.19066 29.8665C12.7353 29.8719 19.279 29.8736 25.8236 29.8576C26.2911 29.8567 26.7799 29.7668 27.2224 29.6137C28.8314 29.0599 29.8625 27.5668 29.8652 25.8324C29.8714 22.555 29.867 19.2767 29.867 15.9994V16.0002Z" fill="#4AB04A"/>
<path d="M9.06102 7.46699C14.2255 12.6319 19.3677 17.7737 24.5205 22.927C24.525 22.8469 24.5348 22.7454 24.5357 22.643C24.5366 21.465 24.5357 20.288 24.5366 19.1101C24.5375 18.4361 24.9871 17.9508 25.6024 17.9526C26.215 17.9544 26.6656 18.4441 26.6665 19.1154C26.6673 21.3484 26.6673 23.5814 26.6665 25.8144C26.6665 26.3993 26.3975 26.6673 25.8108 26.6673C23.5776 26.6682 21.3453 26.6682 19.1121 26.6673C18.4425 26.6673 17.9519 26.2133 17.9528 25.6007C17.9537 24.9837 18.4381 24.5376 19.113 24.5367C20.2795 24.535 21.4459 24.5367 22.6124 24.5367C22.7201 24.5367 22.8278 24.5367 22.8991 24.5367C17.7587 19.3959 12.6138 14.2505 7.47963 9.11769C7.47785 9.15152 7.46805 9.24501 7.46805 9.3385C7.46716 10.5271 7.46805 11.7157 7.46716 12.9043C7.46627 13.5685 6.99791 14.0627 6.38797 14.0511C5.78694 14.0395 5.33816 13.5552 5.33727 12.9088C5.33549 10.6651 5.33549 8.42055 5.33727 6.17687C5.33727 5.60972 5.60796 5.33727 6.17249 5.33727C8.41635 5.33549 10.6602 5.33549 12.9041 5.33727C13.5666 5.33727 14.0625 5.80738 14.0509 6.41638C14.0394 7.01914 13.5577 7.46609 12.9094 7.46699C11.6326 7.46877 10.3557 7.46699 9.06102 7.46699Z" fill="#4AB04A"/>
</g>
<defs>
<clipPath id="clip0_3306_2506">
<rect width="32" height="32" fill="white"/>
</clipPath>
</defs>
</svg>
