<svg width="20" height="21" viewBox="0 0 20 21" fill="none" xmlns="http://www.w3.org/2000/svg">
<path d="M9.99984 18.8334C11.0944 18.8348 12.1784 18.6198 13.1896 18.201C14.2009 17.7821 15.1194 17.1675 15.8923 16.3926C16.6673 15.6196 17.2818 14.7011 17.7007 13.6899C18.1196 12.6787 18.3345 11.5946 18.3332 10.5001C18.3345 9.40554 18.1196 8.32152 17.7007 7.31029C17.2818 6.29907 16.6673 5.38058 15.8923 4.60759C15.1194 3.83265 14.2009 3.2181 13.1896 2.79922C12.1784 2.38034 11.0944 2.1654 9.99984 2.16675C8.9053 2.1654 7.82127 2.38034 6.81005 2.79922C5.79882 3.2181 4.88033 3.83265 4.10734 4.60759C3.33241 5.38058 2.71785 6.29907 2.29897 7.31029C1.8801 8.32152 1.66516 9.40554 1.66651 10.5001C1.66516 11.5946 1.8801 12.6787 2.29897 13.6899C2.71785 14.7011 3.33241 15.6196 4.10734 16.3926C4.88033 17.1675 5.79882 17.7821 6.81005 18.201C7.82127 18.6198 8.9053 18.8348 9.99984 18.8334Z" fill="black" stroke="black" stroke-width="2" stroke-linejoin="round"/>
<path d="M6.00244 10L8.50244 12.5L13.5024 7.5" stroke="white" stroke-width="1.5" stroke-linecap="round" stroke-linejoin="round"/>
</svg>
