<svg width="207" height="74" viewBox="0 0 207 74" fill="none" xmlns="http://www.w3.org/2000/svg">
<g clip-path="url(#clip0_3306_6760)">
<path d="M2.32637 8.61876C3.66119 8.56795 4.78794 9.59985 4.83898 10.9327L4.89002 12.2382L4.99209 13.4812L5.14128 14.7164L5.33365 15.9398L5.57313 17.1476L5.85973 18.3476L6.18951 19.5397L6.55855 20.7163L6.9747 21.885L7.42618 23.042L7.91693 24.1872L8.43515 25.2934L9.61687 27.5643L10.9242 29.7532L12.369 31.8991L13.9276 33.9981L15.5961 36.0424L17.3706 38.0358L19.2276 39.9785L21.167 41.8625L23.1771 43.6878L25.2422 45.4585L27.3543 47.1666L29.5018 48.8122L31.6768 50.3991L33.8636 51.9196L36.0543 53.3737L38.2371 54.7691L40.4003 56.0941L42.5321 57.3488L44.2595 58.3221L45.9909 59.2485L47.7301 60.1279L49.4732 60.9683L51.2202 61.7618L52.9751 62.5123L54.734 63.2197L56.4967 63.8842L58.2673 64.5057L60.0419 65.0881L61.8164 65.6275L63.587 66.12L65.389 66.5617L67.1557 66.9995L70.7558 67.7187L74.3559 68.2737L77.9639 68.6881L81.5718 68.9499L85.1876 69.0594L88.8034 69.0359L92.4153 68.8679L96.0272 68.5591L99.6351 68.1291L103.231 67.5623L106.82 66.8666L110.396 66.0536L113.953 65.1155L117.506 64.0523L119.257 63.4699L121.016 62.8875L122.763 62.2465L124.51 61.6054L126.245 60.9097L127.984 60.2139L129.708 59.4674L131.431 58.7247L133.135 57.9273L134.843 57.1299L136.531 56.2818L138.223 55.4336L139.896 54.5385L141.568 53.6473L143.217 52.7053L144.87 51.7672L146.499 50.7822L148.132 49.7933L149.742 48.7653L151.352 47.7412L152.938 46.6741L154.524 45.607L156.083 44.4969L157.645 43.3869L159.184 42.2416L160.719 41.1003L162.227 39.9198L163.734 38.7394L165.21 37.5238L166.69 36.3043L168.143 35.0574L169.592 33.8105L171.009 32.5323L172.426 31.2542L173.808 29.9448L175.194 28.6353L176.549 27.2986L177.899 25.9657L179.214 24.6054L180.529 23.2452L181.805 21.8576L183.085 20.47L184.33 19.059L185.57 17.6518L186.772 16.2212L187.965 14.8024L190.293 11.8943L192.535 8.96272L194.686 5.99991L194.753 5.90219L193.921 6.27352L192.193 7.03572L191.345 7.43832L190.454 7.86047L189.559 8.27869L188.664 8.68911L187.769 9.07999L186.878 9.43958L185.99 9.76401L185.099 10.0415L184.208 10.2565L183.301 10.4011L182.351 10.4441L181.586 10.3699C180.255 10.2291 179.293 9.04481 179.434 7.71975C179.575 6.39469 180.769 5.43706 182.096 5.57777L182.481 5.62467L182.791 5.60903L183.246 5.53477L183.8 5.40187L184.428 5.20253L185.131 4.94455L185.884 4.63967L186.681 4.29179L187.514 3.90874L188.374 3.50223L189.253 3.08009L190.183 2.63449L191.95 1.84884L193.901 0.988922L197.168 0.0547409L198.232 -0.00389862L198.271 0.00392151L198.345 0.0156479L198.459 0.0351944L198.612 0.0586472L198.801 0.0899124L199.029 0.125092L199.296 0.168091L199.602 0.218903L199.877 0.261902L200.116 0.300987L200.324 0.336166L200.505 0.367439L200.666 0.398705L200.838 0.43779L201.223 0.562874L202.205 1.29771V1.30553L202.216 1.30943V1.31725V1.32117L202.578 1.93484L202.684 2.20454L202.794 2.56414L202.88 2.91592L202.962 3.30289L203.045 3.72894L203.131 4.19798L203.218 4.71394L203.308 5.27679L203.402 5.87874L203.5 6.52759L203.602 7.21943L203.81 8.69302L204.026 10.3034L204.25 12.0193L204.478 13.8095L204.709 15.6623L204.941 17.5541L205.169 19.4537L205.396 21.3534L205.82 25.0237L206.201 28.3578L206.374 29.8588L206.531 31.2034L206.668 32.3682L206.731 32.8802L206.786 33.3375L206.837 33.7362L206.88 34.0802L206.916 34.3538L206.947 34.5688C207.144 35.9603 206.17 37.2463 204.772 37.4417C203.375 37.6371 202.083 36.6678 201.887 35.2763L201.851 35.0378L201.812 34.729L201.765 34.3655L201.714 33.9512L201.659 33.4822L201.596 32.9584L201.463 31.7858L201.31 30.4334L201.141 28.9324L200.768 25.5983L200.356 21.9319L200.144 20.0361L199.932 18.1404L199.716 16.2564L199.5 14.4115L199.288 12.633L199.08 10.9327L198.879 9.34578L198.832 8.97445L196.634 11.9959L194.317 15.0212L191.927 18.0036L190.678 19.485L189.437 20.9586L188.154 22.4087L186.874 23.8589L185.559 25.2856L184.24 26.7162L182.881 28.1194L181.523 29.5226L180.129 30.8985L178.735 32.2705L177.31 33.619L175.881 34.9675L174.421 36.2847L172.956 37.602L171.461 38.8879L169.965 40.17L168.441 41.4208L166.914 42.6755L165.36 43.895L163.805 45.1145L162.219 46.295L160.637 47.4715L159.027 48.6128L157.413 49.7581L155.776 50.8604L154.135 51.9626L152.471 53.0219L150.806 54.0772L149.122 55.0935L147.434 56.1098L145.722 57.0791L144.01 58.0485L142.275 58.971L140.544 59.8934L138.793 60.769L137.038 61.6445L135.267 62.4693L133.493 63.294L131.702 64.0679L129.916 64.838L128.114 65.5572L126.308 66.2764L124.486 66.9409L122.665 67.6053L120.827 68.2112L118.982 68.817L115.3 69.9115L111.578 70.8848L107.836 71.729L104.079 72.4522L100.303 73.0385L96.5179 73.4841L92.7215 73.8007L88.9133 73.9687L85.1052 73.9844L81.2931 73.8593L77.477 73.5779L73.6728 73.1323L69.8725 72.5381L66.0957 71.7759L64.1877 71.303L62.315 70.8379L60.4188 70.3063L58.5382 69.7317L56.6655 69.1141L54.7968 68.4535L52.932 67.746L51.075 66.9956L49.2219 66.2021L47.3728 65.3617L45.5354 64.4744L43.706 63.5442L41.8804 62.5631L40.0666 61.5351L37.8641 60.2374L35.6263 58.8654L33.3689 57.4192L31.0997 55.9065L28.8266 54.3235L26.5652 52.6662L24.3235 50.9463L22.1093 49.1522L19.9421 47.2878L17.8221 45.3608L15.7649 43.3595L13.7862 41.2879L11.8861 39.1537L10.0801 36.9453L8.39197 34.6665L6.81374 32.3213L5.36506 29.8979L4.08519 27.4393L3.47667 26.1416L2.92311 24.8517L2.41274 23.5462L1.94555 22.225L1.52154 20.8843L1.14858 19.528L0.822724 18.156L0.547907 16.7645L0.324128 15.3613L0.151386 13.9424L0.0336072 12.504L-0.0213562 11.1008C-0.0763196 9.77183 0.964059 8.65002 2.30281 8.59921L2.32637 8.61876Z" fill="#050505"/>
</g>
<defs>
<clipPath id="clip0_3306_6760">
<rect width="207" height="74" fill="white" transform="matrix(1 0 0 -1 0 74)"/>
</clipPath>
</defs>
</svg>
