<svg width="24" height="24" viewBox="0 0 24 24" fill="none" xmlns="http://www.w3.org/2000/svg">
<path d="M8.968 3L9.827 8.772C9.855 8.96667 9.86933 9.16167 9.87 9.357V9.438C9.87 9.64867 9.848 9.856 9.804 10.06L9.754 10.294C9.7368 10.3736 9.70994 10.4509 9.674 10.524L6.994 15.99M10.426 8.755L15.944 11.059L16.503 11.302C16.841 11.449 17.099 11.734 17.21 12.085L20.004 21M9.512 11.96L14.636 13.971M14.636 13.971L12.021 20.874M14.636 13.971L16.819 11.806M6.998 9.501C6.998 10.327 6.328 10.997 5.499 10.997C4.671 10.997 4 10.327 4 9.501C4 8.676 4.671 8.006 5.5 8.006C6.327 8.006 6.998 8.676 6.998 9.501Z" stroke="white" stroke-width="1.5" stroke-linecap="round" stroke-linejoin="round"/>
</svg>
