<svg width="20" height="20" viewBox="0 0 20 20" fill="none" xmlns="http://www.w3.org/2000/svg">
<g clip-path="url(#clip0_13078_12936)">
<circle cx="10" cy="10" r="9.75" stroke="white" stroke-width="0.5"/>
<g clip-path="url(#clip1_13078_12936)">
<path d="M11.2952 10.0247C11.2516 10.0683 11.2266 10.1286 11.2266 10.1904C11.2266 10.2521 11.2516 10.3125 11.2952 10.3561C11.3388 10.3997 11.3993 10.4248 11.4609 10.4248C11.5226 10.4248 11.583 10.3997 11.6266 10.3561C11.6702 10.3125 11.6953 10.2521 11.6953 10.1904C11.6953 10.1285 11.6702 10.0683 11.6266 10.0247C11.583 9.9809 11.5226 9.95605 11.4609 9.95605C11.3993 9.95605 11.3388 9.9809 11.2952 10.0247Z" fill="white"/>
<path d="M14.0641 8.19986C14.1077 8.15629 14.1328 8.09582 14.1328 8.03418C14.1328 7.97228 14.1077 7.91181 14.0641 7.86848C14.0205 7.82488 13.9601 7.7998 13.8984 7.7998C13.8366 7.7998 13.7763 7.82486 13.7327 7.86848C13.6889 7.91207 13.6641 7.9723 13.6641 8.03418C13.6641 8.09582 13.6889 8.15629 13.7327 8.19986C13.7763 8.24345 13.8366 8.26855 13.8984 8.26855C13.9601 8.26855 14.0205 8.24348 14.0641 8.19986Z" fill="white"/>
<path d="M6.63281 7.98438V7.70312H6.88718C6.98752 7.77222 7.0905 7.83761 7.19531 7.90005V9.80999C7.19531 10.1489 7.47105 10.4246 7.80996 10.4246H13.4062C13.5357 10.4246 13.6406 10.3197 13.6406 10.1903C13.6406 10.0608 13.5357 9.95589 13.4062 9.95589H8.67445C8.58337 9.4424 8.17758 9.0366 7.66409 8.9455V8.15043C8.1229 8.36802 8.61131 8.52433 9.11009 8.61105L9.95672 8.75826C10.0034 8.76637 10.0499 8.7703 10.0959 8.7703C10.1605 8.7703 10.2239 8.76238 10.2853 8.74757C10.5315 9.15161 10.9766 9.40923 11.461 9.40923C12.2193 9.40923 12.8362 8.79231 12.8362 8.03402C12.8362 7.27572 12.2192 6.6588 11.4609 6.6588C11.032 6.6588 10.6349 6.85666 10.3769 7.18748L9.28249 6.58223C9.20222 6.53781 9.15234 6.45325 9.15234 6.36154C9.15234 6.22248 9.26545 6.10938 9.40451 6.10938H14.2474C14.3385 6.62287 14.7443 7.02866 15.2578 7.11977V8.9455C14.7443 9.03658 14.3385 9.44238 14.2474 9.95589H12.5156C12.3862 9.95589 12.2812 10.0608 12.2812 10.1903C12.2812 10.3197 12.3862 10.4246 12.5156 10.4246H15.1119C15.4508 10.4246 15.7266 10.1489 15.7266 9.80999V6.2553C15.7266 5.91637 15.4508 5.64062 15.1119 5.64062H12.033L10.8626 4.73812C10.5589 4.50395 10.1805 4.375 9.79702 4.375H6.63281V4.23438C6.63281 4.10495 6.52788 4 6.39844 4H4.33594C4.20649 4 4.10156 4.10495 4.10156 4.23438V7.98438C4.10156 8.1138 4.20649 8.21875 4.33594 8.21875H6.39844C6.52788 8.21875 6.63281 8.1138 6.63281 7.98438ZM8.19384 9.95587H7.80996C7.7295 9.95587 7.66406 9.89043 7.66406 9.80997V9.42609C7.91852 9.50052 8.11941 9.70141 8.19384 9.95587ZM11.4609 7.12755C11.9608 7.12755 12.3674 7.53419 12.3674 8.03399C12.3674 8.53382 11.9608 8.94046 11.4609 8.94046C11.1442 8.94046 10.8532 8.77338 10.6901 8.51085C10.7607 8.43491 10.8177 8.34456 10.8558 8.24252C10.9535 7.98044 10.9047 7.69209 10.7465 7.47665C10.9166 7.25842 11.1781 7.12755 11.4609 7.12755ZM15.1119 9.95587H14.728C14.8025 9.70141 15.0034 9.50052 15.2578 9.42609V9.80997C15.2578 9.89043 15.1924 9.95587 15.1119 9.95587ZM15.2578 6.2553V6.63916C15.0034 6.56472 14.8025 6.36384 14.728 6.10938H15.1119C15.1924 6.10938 15.2578 6.17484 15.2578 6.2553ZM9.79702 4.84375C10.0775 4.84375 10.3542 4.93806 10.5763 5.10932L11.2654 5.64062H9.40451C9.00701 5.64062 8.68359 5.96402 8.68359 6.36154C8.68359 6.62373 8.82614 6.86547 9.05559 6.99241L10.2614 7.65927C10.4087 7.74072 10.4753 7.92102 10.4166 8.07869C10.359 8.23307 10.1993 8.32466 10.037 8.29642L9.19036 8.14921C8.44099 8.01892 7.71694 7.71752 7.0965 7.27759C7.05689 7.24949 7.0095 7.2344 6.96094 7.2344H6.63281V4.84375H9.79702ZM6.16406 7.75H4.57031V4.46875H6.16406V7.75Z" fill="white"/>
<path d="M15.8663 11.7815H13.8038C13.6854 11.7815 13.5878 11.8693 13.5719 11.9833C13.268 11.8346 12.9348 11.7568 12.5905 11.7568C11.9287 11.7568 11.3046 12.0471 10.8782 12.5533L10.6423 12.8333H9.27155C8.82239 12.8333 8.45698 13.1987 8.45698 13.6478C8.45698 13.7203 8.46663 13.7906 8.48449 13.8575C8.26849 13.7681 8.07012 13.6361 7.89985 13.4658L6.7605 12.3261C6.44374 12.0093 5.92716 12.008 5.60892 12.3233C5.45356 12.4773 5.36771 12.6825 5.36719 12.9012C5.36667 13.1199 5.45156 13.3255 5.60623 13.4802L6.87952 14.7535C7.50209 15.3761 8.32988 15.719 9.21035 15.719H13.5694V15.7658C13.5694 15.8953 13.6743 16.0002 13.8038 16.0002H15.8663C15.9957 16.0002 16.1006 15.8953 16.1006 15.7658V12.0158C16.1006 11.8864 15.9957 11.7815 15.8663 11.7815ZM9.21035 15.2502C8.45508 15.2502 7.74502 14.9561 7.21099 14.4221L5.93771 13.1488C5.87187 13.0829 5.83573 12.9954 5.83596 12.9023C5.83617 12.8092 5.87271 12.7219 5.93885 12.6563C6.0743 12.5221 6.29419 12.5226 6.42903 12.6575L7.56837 13.7972C7.99721 14.2262 8.56742 14.4624 9.17396 14.4624H11.8237C11.9532 14.4624 12.0581 14.3574 12.0581 14.228C12.0581 14.0986 11.9532 13.9936 11.8237 13.9936H9.27155C9.08086 13.9936 8.92573 13.8385 8.92573 13.6478C8.92573 13.4571 9.08086 13.302 9.27155 13.302H10.7513C10.8205 13.302 10.8861 13.2715 10.9306 13.2186L11.2367 12.8553C11.5738 12.4551 12.0673 12.2256 12.5906 12.2256C12.9417 12.2256 13.2785 12.3274 13.5694 12.5209V15.2502H9.21035ZM15.6319 15.5315H14.0381V12.2502H15.6319V15.5315Z" fill="white"/>
</g>
<line x1="16.188" y1="2.49778" x2="3.18801" y2="17.3311" stroke="white" stroke-width="0.5"/>
</g>
<defs>
<clipPath id="clip0_13078_12936">
<rect width="20" height="20" fill="white"/>
</clipPath>
<clipPath id="clip1_13078_12936">
<rect width="12" height="12" fill="white" transform="translate(4.10156 4)"/>
</clipPath>
</defs>
</svg>
