<svg width="20" height="20" viewBox="0 0 20 20" fill="none" xmlns="http://www.w3.org/2000/svg">
<g clip-path="url(#clip0_13041_752)">
<circle cx="10" cy="10" r="9.75" stroke="#4AB04A" stroke-width="0.5"/>
<g clip-path="url(#clip1_13041_752)">
<path d="M11.2933 10.0257C11.2497 10.0693 11.2246 10.1295 11.2246 10.1914C11.2246 10.253 11.2497 10.3135 11.2933 10.3571C11.3369 10.4007 11.3973 10.4258 11.459 10.4258C11.5206 10.4258 11.5811 10.4007 11.6247 10.3571C11.6683 10.3135 11.6934 10.253 11.6934 10.1914C11.6934 10.1295 11.6683 10.0693 11.6247 10.0257C11.5811 9.98187 11.5206 9.95703 11.459 9.95703C11.3973 9.95703 11.3369 9.98187 11.2933 10.0257Z" fill="#4AB04A"/>
<path d="M14.0622 8.20084C14.1058 8.15727 14.1309 8.0968 14.1309 8.03516C14.1309 7.97326 14.1058 7.91279 14.0622 7.86945C14.0186 7.82586 13.9581 7.80078 13.8965 7.80078C13.8346 7.80078 13.7744 7.82584 13.7308 7.86945C13.687 7.91305 13.6621 7.97328 13.6621 8.03516C13.6621 8.0968 13.687 8.15727 13.7308 8.20084C13.7744 8.24443 13.8346 8.26953 13.8965 8.26953C13.9581 8.26953 14.0186 8.24445 14.0622 8.20084Z" fill="#4AB04A"/>
<path d="M6.63086 7.98438V7.70312H6.88523C6.98556 7.77222 7.08855 7.83761 7.19336 7.90005V9.80999C7.19336 10.1489 7.4691 10.4246 7.80801 10.4246H13.4043C13.5337 10.4246 13.6387 10.3197 13.6387 10.1903C13.6387 10.0608 13.5337 9.95589 13.4043 9.95589H8.6725C8.58142 9.4424 8.17563 9.0366 7.66213 8.9455V8.15043C8.12095 8.36802 8.60936 8.52433 9.10813 8.61105L9.95477 8.75826C10.0014 8.76637 10.048 8.7703 10.094 8.7703C10.1585 8.7703 10.222 8.76238 10.2833 8.74757C10.5296 9.15161 10.9746 9.40923 11.459 9.40923C12.2173 9.40923 12.8342 8.79231 12.8342 8.03402C12.8342 7.27572 12.2173 6.6588 11.459 6.6588C11.0301 6.6588 10.633 6.85666 10.375 7.18748L9.28054 6.58223C9.20027 6.53781 9.15039 6.45325 9.15039 6.36154C9.15039 6.22248 9.2635 6.10938 9.40255 6.10938H14.2455C14.3366 6.62287 14.7424 7.02866 15.2559 7.11977V8.9455C14.7424 9.03658 14.3366 9.44238 14.2455 9.95589H12.5137C12.3842 9.95589 12.2793 10.0608 12.2793 10.1903C12.2793 10.3197 12.3842 10.4246 12.5137 10.4246H15.11C15.4489 10.4246 15.7246 10.1489 15.7246 9.80999V6.2553C15.7246 5.91637 15.4489 5.64062 15.11 5.64062H12.031L10.8606 4.73812C10.557 4.50395 10.1785 4.375 9.79506 4.375H6.63086V4.23438C6.63086 4.10495 6.52593 4 6.39648 4H4.33398C4.20454 4 4.09961 4.10495 4.09961 4.23438V7.98438C4.09961 8.1138 4.20454 8.21875 4.33398 8.21875H6.39648C6.52593 8.21875 6.63086 8.1138 6.63086 7.98438ZM8.19189 9.95587H7.80801C7.72755 9.95587 7.66211 9.89043 7.66211 9.80997V9.42609C7.91657 9.50052 8.11745 9.70141 8.19189 9.95587ZM11.459 7.12755C11.9588 7.12755 12.3655 7.53419 12.3655 8.03399C12.3655 8.53382 11.9588 8.94046 11.459 8.94046C11.1423 8.94046 10.8512 8.77338 10.6881 8.51085C10.7587 8.43491 10.8157 8.34456 10.8538 8.24252C10.9515 7.98044 10.9027 7.69209 10.7445 7.47665C10.9146 7.25842 11.1762 7.12755 11.459 7.12755ZM15.11 9.95587H14.7261C14.8005 9.70141 15.0014 9.50052 15.2559 9.42609V9.80997C15.2559 9.89043 15.1904 9.95587 15.11 9.95587ZM15.2559 6.2553V6.63916C15.0014 6.56472 14.8005 6.36384 14.7261 6.10938H15.11C15.1904 6.10938 15.2559 6.17484 15.2559 6.2553ZM9.79506 4.84375C10.0755 4.84375 10.3523 4.93806 10.5744 5.10932L11.2634 5.64062H9.40255C9.00505 5.64062 8.68164 5.96402 8.68164 6.36154C8.68164 6.62373 8.82419 6.86547 9.05364 6.99241L10.2595 7.65927C10.4067 7.74072 10.4734 7.92102 10.4146 8.07869C10.357 8.23307 10.1974 8.32466 10.035 8.29642L9.18841 8.14921C8.43904 8.01892 7.71498 7.71752 7.09455 7.27759C7.05494 7.24949 7.00755 7.2344 6.95898 7.2344H6.63086V4.84375H9.79506ZM6.16211 7.75H4.56836V4.46875H6.16211V7.75Z" fill="#4AB04A"/>
<path d="M15.8653 11.7824H13.8028C13.6844 11.7824 13.5868 11.8703 13.5709 11.9843C13.267 11.8356 12.9338 11.7578 12.5896 11.7578C11.9277 11.7578 11.3036 12.0481 10.8772 12.5543L10.6413 12.8343H9.27057C8.82142 12.8343 8.456 13.1997 8.456 13.6488C8.456 13.7213 8.46566 13.7916 8.48352 13.8585C8.26752 13.7691 8.06914 13.6371 7.89887 13.4668L6.75953 12.3271C6.44277 12.0103 5.92618 12.009 5.60795 12.3243C5.45258 12.4782 5.36673 12.6835 5.36621 12.9022C5.3657 13.1209 5.45059 13.3265 5.60525 13.4812L6.87854 14.7545C7.50111 15.3771 8.3289 15.7199 9.20938 15.7199H13.5684V15.7668C13.5684 15.8962 13.6733 16.0012 13.8028 16.0012H15.8653C15.9947 16.0012 16.0997 15.8962 16.0997 15.7668V12.0168C16.0997 11.8874 15.9947 11.7824 15.8653 11.7824ZM9.20938 15.2512C8.4541 15.2512 7.74404 14.9571 7.21002 14.423L5.93673 13.1497C5.87089 13.0839 5.83475 12.9964 5.83499 12.9033C5.8352 12.8102 5.87174 12.7228 5.93788 12.6573C6.07332 12.5231 6.29321 12.5236 6.42805 12.6585L7.56739 13.7982C7.99623 14.2271 8.56644 14.4634 9.17298 14.4634H11.8228C11.9522 14.4634 12.0571 14.3584 12.0571 14.229C12.0571 14.0996 11.9522 13.9946 11.8228 13.9946H9.27057C9.07989 13.9946 8.92475 13.8395 8.92475 13.6488C8.92475 13.4581 9.07989 13.303 9.27057 13.303H10.7504C10.8195 13.303 10.8851 13.2725 10.9296 13.2196L11.2357 12.8562C11.5728 12.4561 12.0663 12.2265 12.5896 12.2265C12.9407 12.2265 13.2775 12.3284 13.5684 12.5218V15.2512H9.20938ZM15.6309 15.5324H14.0372V12.2512H15.6309V15.5324Z" fill="#4AB04A"/>
</g>
<line x1="16.188" y1="2.49681" x2="3.18801" y2="17.3301" stroke="#4AB04A" stroke-width="0.5"/>
</g>
<defs>
<clipPath id="clip0_13041_752">
<rect width="20" height="20" fill="white"/>
</clipPath>
<clipPath id="clip1_13041_752">
<rect width="12" height="12" fill="white" transform="translate(4.09961 4)"/>
</clipPath>
</defs>
</svg>
