<svg width="20" height="20" viewBox="0 0 20 20" fill="none" xmlns="http://www.w3.org/2000/svg">
<g clip-path="url(#clip0_13308_977)">
<path d="M19.6856 19.6877C19.611 19.6888 19.5384 19.663 19.4811 19.6151C19.4237 19.5673 19.3855 19.5005 19.3731 19.4268C18.8325 16.1549 17.956 11.1174 17.7606 10.644L17.6997 10.4971C17.456 9.90024 17.231 9.33618 16.7513 9.1393C16.1263 8.88149 13.8622 8.11899 13.8388 8.11118C13.7632 8.08261 13.7016 8.02585 13.6669 7.95283C13.6322 7.87981 13.6272 7.7962 13.6529 7.71956C13.6786 7.64292 13.733 7.57921 13.8046 7.54181C13.8763 7.50441 13.9596 7.49623 14.0372 7.51899C14.131 7.55024 16.3481 8.30024 16.9903 8.56274C17.7044 8.85805 18.0091 9.60336 18.2778 10.2612L18.3372 10.4065C18.6231 11.0971 19.8497 18.4862 19.9888 19.3252C19.9955 19.3658 19.9941 19.4072 19.9848 19.4472C19.9754 19.4872 19.9583 19.525 19.9344 19.5584C19.9104 19.5918 19.8801 19.6201 19.8452 19.6417C19.8103 19.6634 19.7715 19.678 19.731 19.6846L19.6856 19.6877Z" fill="white"/>
<path d="M15.1827 20.0002C15.1338 19.9999 15.0856 19.9882 15.0421 19.9659C14.5537 19.7022 14.1241 19.3417 13.7796 18.9065C13.2718 18.2377 13.0734 17.5643 12.9327 16.7596C12.8857 16.3881 12.8773 16.0126 12.9077 15.6393C12.9296 15.1487 12.9515 14.6424 12.8093 14.3456C12.6937 14.1065 12.2234 13.2424 11.6796 12.244C11.4249 11.7752 11.1546 11.2799 10.8984 10.8018C10.1374 9.39555 9.75148 8.65493 9.64835 8.4018C9.4046 7.81118 9.50617 7.38149 9.63429 7.1268C9.81873 6.7895 10.119 6.53032 10.4796 6.39712C10.9234 6.2143 11.6046 6.1893 12.3343 7.10962L16.1046 11.8565L15.6155 12.2456L11.8421 7.49087C11.4499 6.99712 11.0718 6.82055 10.7155 6.96743C10.4951 7.04616 10.3089 7.19919 10.189 7.40024C10.1389 7.52104 10.1159 7.65135 10.1215 7.782C10.1272 7.91266 10.1614 8.04048 10.2218 8.15649C10.3452 8.45649 10.9796 9.63618 11.4452 10.5002C11.703 10.9768 11.9734 11.4737 12.2265 11.9409C12.7749 12.9471 13.2468 13.8159 13.3702 14.069C13.5827 14.5065 13.5562 15.094 13.5265 15.6627C13.4988 15.9906 13.504 16.3203 13.5421 16.6471C13.6702 17.3831 13.8374 17.9534 14.2702 18.5221C14.557 18.8847 14.9129 19.1869 15.3171 19.4112C15.3795 19.4431 15.4293 19.4952 15.4586 19.5589C15.4879 19.6226 15.4948 19.6943 15.4784 19.7624C15.462 19.8306 15.4232 19.8913 15.3681 19.9347C15.3131 19.9781 15.245 20.0017 15.1749 20.0018L15.1827 20.0002Z" fill="white"/>
<path d="M13.0698 15.3127H13.0464C12.9511 15.3127 11.4839 15.0002 11.198 14.4893C11.1386 14.3815 11.0198 14.2111 10.8948 14.033C10.6541 13.715 10.4447 13.3743 10.2698 13.0158C10.2541 12.9779 10.2461 12.9372 10.2461 12.8961C10.2461 12.855 10.2542 12.8144 10.27 12.7764C10.2857 12.7385 10.3088 12.704 10.3378 12.675C10.3669 12.646 10.4014 12.6229 10.4394 12.6072C10.4773 12.5915 10.518 12.5835 10.5591 12.5835C10.6002 12.5835 10.6408 12.5916 10.6788 12.6074C10.7167 12.6231 10.7512 12.6462 10.7802 12.6752C10.8092 12.7043 10.8323 12.7388 10.848 12.7768C11.0066 13.0934 11.1932 13.3951 11.4058 13.6783C11.5464 13.8799 11.6683 14.0549 11.7433 14.1908C11.8745 14.3658 12.8526 14.669 13.0933 14.6877C13.1757 14.6949 13.2519 14.7344 13.3052 14.7977C13.3585 14.8609 13.3846 14.9428 13.3776 15.0252C13.3714 15.1029 13.3364 15.1754 13.2795 15.2286C13.2225 15.2818 13.1477 15.3118 13.0698 15.3127Z" fill="white"/>
<path d="M12.5008 16.7842C12.1086 16.7842 11.6695 16.7607 11.4414 16.6654C10.9539 16.4623 9.60232 14.8139 9.40076 14.5139C9.24604 14.2896 9.1786 14.0166 9.21111 13.7461C9.24363 13.4756 9.37387 13.2263 9.57732 13.0451C9.73628 12.8908 9.93589 12.7849 10.1528 12.7398C10.3697 12.6947 10.595 12.7122 10.8023 12.7904C10.8423 12.8046 10.8789 12.8268 10.91 12.8556C10.9412 12.8844 10.9661 12.9192 10.9833 12.958C11.0005 12.9967 11.0097 13.0386 11.0102 13.081C11.0108 13.1234 11.0027 13.1654 10.9864 13.2046C10.9702 13.2438 10.9461 13.2792 10.9158 13.3088C10.8854 13.3384 10.8493 13.3615 10.8097 13.3767C10.7701 13.3919 10.7279 13.3988 10.6855 13.3972C10.6431 13.3955 10.6015 13.3852 10.5633 13.367C10.4676 13.3351 10.365 13.3303 10.2668 13.3532C10.1686 13.3761 10.0787 13.4258 10.007 13.4967C9.91002 13.5761 9.84697 13.6894 9.83071 13.8137C9.81445 13.938 9.84621 14.0638 9.91951 14.1654C10.1773 14.5514 11.4039 15.9623 11.6804 16.0873C11.8679 16.1654 12.6086 16.1732 13.1867 16.1357C13.2277 16.1331 13.2689 16.1385 13.3078 16.1518C13.3468 16.165 13.3827 16.1858 13.4136 16.2129C13.4445 16.24 13.4698 16.273 13.4879 16.3099C13.5061 16.3468 13.5168 16.3869 13.5195 16.4279C13.5222 16.469 13.5167 16.5101 13.5035 16.5491C13.4903 16.588 13.4695 16.624 13.4423 16.6549C13.4152 16.6858 13.3823 16.711 13.3454 16.7292C13.3085 16.7474 13.2684 16.7581 13.2273 16.7607C13.1258 16.767 12.8351 16.7842 12.5008 16.7842Z" fill="white"/>
<path d="M10.3931 13.2298C10.1779 13.2297 9.96684 13.1714 9.78215 13.0611L0.59465 7.59233C0.32153 7.42916 0.124046 7.16457 0.0452999 6.85632C-0.0334459 6.54807 0.0129414 6.22119 0.174337 5.94702L3.36184 0.587643C3.52558 0.31383 3.79113 0.116037 4.10037 0.0375568C4.40961 -0.0409236 4.73734 0.00630057 5.01184 0.168893L14.1993 5.63764C14.4718 5.80106 14.6686 6.06547 14.747 6.37333C14.8255 6.68118 14.7791 7.00755 14.6181 7.28139L13.6275 8.95014C13.6095 8.98999 13.5833 9.02561 13.5506 9.05471C13.518 9.08381 13.4796 9.10573 13.438 9.11906C13.3963 9.1324 13.3524 9.13684 13.3089 9.13211C13.2654 9.12738 13.2234 9.11358 13.1856 9.0916C13.1478 9.06962 13.1151 9.03996 13.0894 9.00452C13.0638 8.96909 13.0459 8.92867 13.0369 8.88588C13.0279 8.8431 13.028 8.79889 13.0371 8.75613C13.0462 8.71337 13.0642 8.67301 13.09 8.63764L14.0821 6.96889C14.16 6.837 14.1825 6.67966 14.1448 6.53123C14.107 6.38279 14.012 6.25534 13.8806 6.17671L4.6884 0.706393C4.5576 0.632192 4.40313 0.611573 4.25745 0.648868C4.11176 0.686163 3.98621 0.778469 3.90715 0.906393L0.711837 6.26733C0.633966 6.39922 0.611455 6.55657 0.649221 6.705C0.686988 6.85343 0.781963 6.98089 0.9134 7.05952L10.1009 12.5283C10.2329 12.6057 10.3901 12.628 10.5384 12.5903C10.6867 12.5525 10.8142 12.4578 10.8931 12.3267L11.3618 11.5455C11.3798 11.5056 11.406 11.47 11.4387 11.4409C11.4713 11.4118 11.5097 11.3899 11.5513 11.3765C11.593 11.3632 11.6369 11.3588 11.6804 11.3635C11.7239 11.3682 11.7659 11.382 11.8037 11.404C11.8415 11.426 11.8742 11.4556 11.8999 11.4911C11.9255 11.5265 11.9434 11.5669 11.9524 11.6097C11.9614 11.6525 11.9613 11.6967 11.9522 11.7395C11.9431 11.7822 11.9251 11.8226 11.8993 11.858L11.4306 12.6392C11.3501 12.7751 11.2435 12.8936 11.1169 12.988C10.9903 13.0824 10.8463 13.1508 10.6931 13.1892C10.5952 13.2152 10.4944 13.2288 10.3931 13.2298Z" fill="white"/>
<path d="M4.94403 5.86854C4.83398 5.8674 4.72618 5.83722 4.63153 5.78104L3.48466 5.09823C3.34238 5.01342 3.2396 4.8756 3.19887 4.71505C3.15815 4.5545 3.18282 4.38435 3.26747 4.24198L3.78309 3.37479C3.86791 3.23252 4.00573 3.12973 4.16627 3.08901C4.32682 3.04829 4.49697 3.07296 4.63934 3.15761L5.77997 3.83886C5.92224 3.92367 6.02503 4.06149 6.06575 4.22204C6.10647 4.38259 6.0818 4.55273 5.99716 4.69511L5.48153 5.56229C5.39683 5.70455 5.25916 5.80738 5.09872 5.84823C5.04821 5.86144 4.99624 5.86826 4.94403 5.86854ZM4.94403 5.24354L5.46747 4.37479L4.32059 3.69198L3.80497 4.55917L4.95184 5.24198L4.94403 5.24354Z" fill="white"/>
<path d="M6.15604 8.78115C6.10102 8.78058 6.04712 8.76549 5.99979 8.7374L2.24979 6.50615C2.18723 6.46065 2.14376 6.39356 2.12781 6.31786C2.11186 6.24216 2.12455 6.16323 2.16344 6.09635C2.20232 6.02947 2.26463 5.97939 2.33831 5.9558C2.41199 5.93221 2.4918 5.93679 2.56229 5.96865L6.31229 8.1999C6.37095 8.2347 6.41662 8.28773 6.44232 8.3509C6.46802 8.41408 6.47235 8.48393 6.45464 8.54979C6.43693 8.61566 6.39817 8.67392 6.34425 8.71569C6.29034 8.75747 6.22424 8.78045 6.15604 8.78115Z" fill="white"/>
<path d="M8.01193 9.88613C7.9569 9.88556 7.903 9.87047 7.85568 9.84239L6.76193 9.19395C6.72208 9.17594 6.68646 9.14977 6.65736 9.11713C6.62826 9.08449 6.60634 9.04611 6.59301 9.00447C6.57967 8.96282 6.57523 8.91884 6.57996 8.87537C6.58469 8.8319 6.59849 8.78991 6.62047 8.75211C6.64244 8.71431 6.67211 8.68154 6.70755 8.65592C6.74298 8.63031 6.7834 8.61241 6.82619 8.6034C6.86897 8.59438 6.91318 8.59444 6.95594 8.60358C6.9987 8.61272 7.03906 8.63073 7.07443 8.65645L8.16818 9.30488C8.22683 9.33968 8.2725 9.39271 8.2982 9.45589C8.3239 9.51906 8.32823 9.58891 8.31052 9.65478C8.29282 9.72064 8.25405 9.7789 8.20014 9.82068C8.14622 9.86245 8.08012 9.88544 8.01193 9.88613Z" fill="white"/>
</g>
<defs>
<clipPath id="clip0_13308_977">
<rect width="20" height="20" fill="white"/>
</clipPath>
</defs>
</svg>
