<svg width="20" height="20" viewBox="0 0 20 20" fill="none" xmlns="http://www.w3.org/2000/svg">
<g clip-path="url(#clip0_13078_12949)">
<circle cx="10" cy="10" r="9.75" stroke="white" stroke-width="0.5"/>
<path d="M15.9832 10.1832C15.9831 10.1832 15.9831 10.1832 15.9831 10.1831L13.7175 4.49425C13.6694 4.37337 13.5324 4.31436 13.4115 4.36245C13.4114 4.36248 13.4113 4.36251 13.4112 4.36257L4.21978 8.02251C4.1823 8.03871 4.14979 8.06456 4.12556 8.09742C4.04911 8.13714 4.00082 8.21576 4 8.30189V14.4265C4 14.5566 4.10547 14.6621 4.23556 14.6621H14.1292C14.2593 14.6621 14.3648 14.5566 14.3648 14.4265V11.0815L15.8517 10.4893C15.9725 10.4411 16.0314 10.3041 15.9832 10.1832ZM13.8937 14.191H4.47113V8.53745H13.8937V14.191ZM7.93037 8.0675L11.8746 6.49583C12.2267 6.86584 12.7144 7.07614 13.2251 7.07814L13.6185 8.0675H7.93037ZM14.3648 10.5755V8.30189C14.3648 8.1718 14.2593 8.06633 14.1292 8.06633H14.1254L13.6263 6.81266C13.6208 6.8022 13.6143 6.79225 13.607 6.78298C13.5817 6.66952 13.4766 6.59211 13.3608 6.60159C12.8856 6.64491 12.4208 6.44474 12.1258 6.06969C12.0523 5.97909 11.9233 5.95656 11.8235 6.01693C11.8123 6.01825 11.8012 6.02031 11.7903 6.02305L6.97493 7.94053C6.91665 7.96338 6.87004 8.0087 6.8456 8.06633H5.38323L13.3669 4.8874L15.4585 10.1393L14.3648 10.5755Z" fill="white"/>
<path d="M5.1096 12.5994C5.56694 12.7346 5.92482 13.092 6.06057 13.5492C6.09034 13.649 6.18212 13.7174 6.28624 13.7174C6.29846 13.7166 6.31059 13.7148 6.32251 13.712C6.33308 13.715 6.34389 13.7172 6.35479 13.7186H12.0083C12.018 13.7173 12.0276 13.7153 12.037 13.7127C12.1547 13.7413 12.2733 13.6691 12.302 13.5515C12.3021 13.551 12.3022 13.5506 12.3023 13.5502C12.4377 13.0925 12.7956 12.7346 13.2533 12.5992C13.3642 12.5653 13.4332 12.4547 13.4148 12.3401C13.418 12.3286 13.4203 12.317 13.4217 12.3052V10.4207C13.4203 10.4089 13.4179 10.3972 13.4146 10.3858C13.4331 10.2712 13.3641 10.1606 13.253 10.1267C12.7954 9.99136 12.4375 9.63327 12.3025 9.17552C12.2684 9.06377 12.1567 8.99463 12.0415 9.01392C12.0306 9.01089 12.0195 9.00868 12.0083 9.00732H6.35479C6.34292 9.00874 6.33117 9.01109 6.31969 9.01439C6.20511 8.99613 6.09458 9.06507 6.06057 9.17599C5.92509 9.63354 5.56718 9.99136 5.1096 10.1267C4.99862 10.1606 4.92966 10.2712 4.948 10.3858C4.94494 10.3973 4.94273 10.4089 4.94141 10.4207V12.3052C4.94276 12.3163 4.94497 12.3272 4.948 12.338C4.92869 12.4533 4.99779 12.5651 5.1096 12.5994ZM5.41253 10.5163C5.88554 10.3264 6.26044 9.95146 6.45042 9.47845H11.9124C12.1025 9.95146 12.4775 10.3264 12.9506 10.5163V12.2096C12.4777 12.3998 12.1029 12.7746 11.9127 13.2475H6.45042C6.26024 12.7746 5.8854 12.3998 5.41253 12.2096V10.5163Z" fill="white"/>
<path d="M9.18291 12.7789C9.96351 12.7789 10.5963 12.1461 10.5963 11.3655C10.5963 10.5849 9.96351 9.95215 9.18291 9.95215C8.40231 9.95215 7.76953 10.5849 7.76953 11.3655C7.7703 12.1458 8.40264 12.7781 9.18291 12.7789ZM9.18291 10.4233C9.7033 10.4233 10.1252 10.8451 10.1252 11.3655C10.1252 11.8859 9.7033 12.3078 9.18291 12.3078C8.66252 12.3078 8.24066 11.8859 8.24066 11.3655C8.24066 10.8451 8.66252 10.4233 9.18291 10.4233Z" fill="white"/>
<path d="M6.59163 11.7179C6.78676 11.7179 6.94497 11.5597 6.94497 11.3646C6.94497 11.1694 6.78676 11.0112 6.59163 11.0112C6.39649 11.0112 6.23828 11.1694 6.23828 11.3646C6.23828 11.5597 6.39649 11.7179 6.59163 11.7179ZM6.59163 11.2468C6.65667 11.2468 6.70941 11.2995 6.70941 11.3646C6.70941 11.4296 6.65667 11.4824 6.59163 11.4824C6.52658 11.4824 6.47384 11.4296 6.47384 11.3646C6.47384 11.2995 6.52658 11.2468 6.59163 11.2468Z" fill="white"/>
<path d="M11.7752 11.7179C11.9704 11.7179 12.1286 11.5597 12.1286 11.3646C12.1286 11.1694 11.9704 11.0112 11.7752 11.0112C11.5801 11.0112 11.4219 11.1694 11.4219 11.3646C11.4219 11.5597 11.5801 11.7179 11.7752 11.7179ZM11.7752 11.2468C11.8403 11.2468 11.893 11.2995 11.893 11.3646C11.893 11.4296 11.8403 11.4824 11.7752 11.4824C11.7102 11.4824 11.6574 11.4296 11.6574 11.3646C11.6574 11.2995 11.7102 11.2468 11.7752 11.2468Z" fill="white"/>
<line x1="16.188" y1="2.49778" x2="3.18801" y2="17.3311" stroke="white" stroke-width="0.5"/>
</g>
<defs>
<clipPath id="clip0_13078_12949">
<rect width="20" height="20" fill="white"/>
</clipPath>
</defs>
</svg>
