<svg width="20" height="20" viewBox="0 0 20 20" fill="none" xmlns="http://www.w3.org/2000/svg">
<path d="M14.9884 2.16422V1.76234C14.9884 1.30953 14.62 0.941406 14.1675 0.941406C13.715 0.941406 13.3466 1.30984 13.3466 1.76234V2.10734H10.8197V1.76234C10.8197 1.30953 10.4513 0.941406 9.99875 0.941406C9.54625 0.941406 9.17781 1.30984 9.17781 1.76234V2.10734H6.65094V1.76234C6.65094 1.30953 6.2825 0.941406 5.83 0.941406C5.3775 0.941406 5.00906 1.30984 5.00906 1.76234V2.16453C2.91906 2.49422 1.375 4.25047 1.375 6.36422V14.8023C1.375 17.1495 3.31594 19.0592 5.70188 19.0592H14.2956C16.6816 19.0592 18.6225 17.1495 18.6225 14.8023V6.36422C18.6225 4.25047 17.0784 2.49422 14.9884 2.16422ZM13.9716 1.76234C13.9716 1.65422 14.0594 1.56641 14.1675 1.56641C14.2756 1.56641 14.3634 1.65422 14.3634 1.76234V3.05297C14.3634 3.16109 14.2756 3.24891 14.1675 3.24891C14.0594 3.24891 13.9716 3.16109 13.9716 3.05297V1.76234ZM9.80281 1.76234C9.80281 1.65422 9.89063 1.56641 9.99875 1.56641C10.1069 1.56641 10.1947 1.65422 10.1947 1.76234V3.05297C10.1947 3.16109 10.1069 3.24891 9.99875 3.24891C9.89063 3.24891 9.80281 3.16109 9.80281 3.05297V1.76234ZM5.63406 1.76234C5.63406 1.65422 5.72188 1.56641 5.83 1.56641C5.93813 1.56641 6.02594 1.65422 6.02594 1.76234V3.05297C6.02594 3.16109 5.93813 3.24891 5.83 3.24891C5.72188 3.24891 5.63406 3.16109 5.63406 3.05297V1.76234ZM5.00906 2.79453V3.05266C5.00906 3.50547 5.3775 3.87359 5.83 3.87359C6.2825 3.87359 6.65094 3.50516 6.65094 3.05266V2.73234H9.17781V3.05297C9.17781 3.50578 9.54625 3.87391 9.99875 3.87391C10.4513 3.87391 10.8197 3.50547 10.8197 3.05297V2.73234H13.3466V3.05297C13.3466 3.50578 13.715 3.87391 14.1675 3.87391C14.62 3.87391 14.9884 3.50547 14.9884 3.05297V2.79453C16.7006 3.11016 17.9572 4.55141 17.9938 6.28672H2.00375C2.04031 4.55141 3.29719 3.11047 5.00906 2.79453ZM17.9975 14.8023C17.9975 16.8048 16.3372 18.4342 14.2956 18.4342H5.70188C3.66063 18.4342 2 16.8048 2 14.8023V6.91203H17.9972L17.9975 14.8023Z" fill="white"/>
<path d="M5.85537 10.8722C5.86693 10.9188 5.90006 10.9575 5.94381 10.9769C5.98787 10.996 6.03849 10.9941 6.08068 10.9713L6.92849 10.5138V15.5869C6.92849 15.6732 6.99881 15.7432 7.08474 15.7432H7.88131C7.96787 15.7432 8.03756 15.6732 8.03756 15.5869V9.49316C8.03756 9.40691 7.96787 9.33691 7.88131 9.33691H7.17881C7.15318 9.33691 7.12756 9.34348 7.10506 9.35535L5.77381 10.0679C5.71037 10.1016 5.67849 10.1744 5.69631 10.2441L5.85537 10.8722Z" fill="white"/>
<path d="M12.0348 15.8459C13.4808 15.8459 14.3095 14.6168 14.3095 12.474C14.3095 10.445 13.4977 9.2334 12.138 9.2334C10.7348 9.2334 9.86328 10.5075 9.86328 12.5596C9.88141 14.5868 10.7139 15.8459 12.0348 15.8459ZM12.0908 10.1837C13.0314 10.1837 13.1717 11.6421 13.1717 12.5115C13.1717 13.4021 13.0302 14.8959 12.0817 14.8959C11.4145 14.8959 11.0002 14.004 11.0002 12.5678C11.0002 11.1196 11.4286 10.1837 12.0908 10.1837Z" fill="white"/>
</svg>
