<svg width="20" height="20" viewBox="0 0 20 20" fill="none" xmlns="http://www.w3.org/2000/svg">
<g clip-path="url(#clip0_13041_765)">
<circle cx="10" cy="10" r="9.75" stroke="#4AB04A" stroke-width="0.5"/>
<g clip-path="url(#clip1_13041_765)">
<path d="M15.9832 10.1774C15.9831 10.1773 15.9831 10.1773 15.9831 10.1772L13.7175 4.48839C13.6694 4.36751 13.5324 4.3085 13.4115 4.35659C13.4114 4.35662 13.4113 4.35665 13.4112 4.35671L4.21978 8.01665C4.1823 8.03285 4.14979 8.0587 4.12556 8.09156C4.04911 8.13128 4.00082 8.2099 4 8.29603V14.4207C4 14.5508 4.10547 14.6562 4.23556 14.6562H14.1292C14.2593 14.6562 14.3648 14.5508 14.3648 14.4207V11.0757L15.8517 10.4835C15.9725 10.4353 16.0314 10.2982 15.9832 10.1774ZM13.8937 14.1851H4.47113V8.53159H13.8937V14.1851ZM7.93037 8.06164L11.8746 6.48997C12.2267 6.85998 12.7144 7.07028 13.2251 7.07228L13.6185 8.06164H7.93037ZM14.3648 10.5697V8.29603C14.3648 8.16594 14.2593 8.06047 14.1292 8.06047H14.1254L13.6263 6.8068C13.6208 6.79635 13.6143 6.78639 13.607 6.77712C13.5817 6.66366 13.4766 6.58625 13.3608 6.59573C12.8856 6.63905 12.4208 6.43888 12.1258 6.06383C12.0523 5.97323 11.9233 5.9507 11.8235 6.01107C11.8123 6.01239 11.8012 6.01445 11.7903 6.01719L6.97493 7.93468C6.91665 7.95752 6.87004 8.00284 6.8456 8.06047H5.38323L13.3669 4.88154L15.4585 10.1334L14.3648 10.5697Z" fill="#4AB04A"/>
<path d="M5.11057 12.596C5.56792 12.7312 5.9258 13.0886 6.06154 13.5458C6.09131 13.6456 6.18309 13.714 6.28721 13.714C6.29943 13.7132 6.31156 13.7114 6.32349 13.7086C6.33406 13.7116 6.34487 13.7138 6.35576 13.7152H12.0093C12.019 13.7139 12.0286 13.7119 12.038 13.7093C12.1557 13.7379 12.2743 13.6657 12.303 13.548C12.3031 13.5476 12.3032 13.5472 12.3033 13.5467C12.4387 13.0891 12.7966 12.7312 13.2542 12.5958C13.3652 12.5619 13.4342 12.4513 13.4158 12.3367C13.419 12.3252 13.4212 12.3136 13.4227 12.3018V10.4173C13.4213 10.4055 13.4189 10.3938 13.4156 10.3824C13.4341 10.2678 13.3651 10.1571 13.254 10.1233C12.7964 9.98794 12.4385 9.62986 12.3035 9.1721C12.2694 9.06035 12.1577 8.99122 12.0425 9.0105C12.0316 9.00747 12.0205 9.00526 12.0093 9.00391H6.35576C6.3439 9.00532 6.33215 9.00767 6.32066 9.01097C6.20609 8.99272 6.09555 9.06165 6.06154 9.17257C5.92607 9.63012 5.56816 9.98794 5.11057 10.1233C4.9996 10.1572 4.93063 10.2678 4.94898 10.3824C4.94592 10.3939 4.94371 10.4055 4.94238 10.4173V12.3018C4.94374 12.3129 4.94595 12.3238 4.94898 12.3345C4.92966 12.4499 4.99877 12.5617 5.11057 12.596ZM5.41351 10.5129C5.88652 10.3229 6.26142 9.94804 6.4514 9.47503H11.9134C12.1035 9.94804 12.4785 10.3229 12.9515 10.5129V12.2062C12.4787 12.3963 12.1038 12.7712 11.9136 13.244H6.4514C6.26121 12.7712 5.88637 12.3963 5.41351 12.2062V10.5129Z" fill="#4AB04A"/>
<path d="M9.18193 12.776C9.96253 12.776 10.5953 12.1432 10.5953 11.3626C10.5953 10.582 9.96253 9.94922 9.18193 9.94922C8.40134 9.94922 7.76855 10.582 7.76855 11.3626C7.76932 12.1429 8.40166 12.7752 9.18193 12.776ZM9.18193 10.4203C9.70232 10.4203 10.1242 10.8422 10.1242 11.3626C10.1242 11.883 9.70232 12.3049 9.18193 12.3049C8.66155 12.3049 8.23968 11.883 8.23968 11.3626C8.23968 10.8422 8.66155 10.4203 9.18193 10.4203Z" fill="#4AB04A"/>
<path d="M6.59065 11.7145C6.78578 11.7145 6.94399 11.5563 6.94399 11.3612C6.94399 11.166 6.78578 11.0078 6.59065 11.0078C6.39551 11.0078 6.2373 11.166 6.2373 11.3612C6.2373 11.5563 6.39551 11.7145 6.59065 11.7145ZM6.59065 11.2434C6.65569 11.2434 6.70843 11.2961 6.70843 11.3612C6.70843 11.4262 6.65569 11.4789 6.59065 11.4789C6.5256 11.4789 6.47287 11.4262 6.47287 11.3612C6.47287 11.2961 6.5256 11.2434 6.59065 11.2434Z" fill="#4AB04A"/>
<path d="M11.7733 11.7145C11.9684 11.7145 12.1266 11.5563 12.1266 11.3612C12.1266 11.166 11.9684 11.0078 11.7733 11.0078C11.5781 11.0078 11.4199 11.166 11.4199 11.3612C11.4199 11.5563 11.5781 11.7145 11.7733 11.7145ZM11.7733 11.2434C11.8383 11.2434 11.891 11.2961 11.891 11.3612C11.891 11.4262 11.8383 11.4789 11.7733 11.4789C11.7082 11.4789 11.6555 11.4262 11.6555 11.3612C11.6555 11.2961 11.7082 11.2434 11.7733 11.2434Z" fill="#4AB04A"/>
</g>
<line x1="16.188" y1="2.49681" x2="3.18801" y2="17.3301" stroke="#4AB04A" stroke-width="0.5"/>
</g>
<defs>
<clipPath id="clip0_13041_765">
<rect width="20" height="20" fill="white"/>
</clipPath>
<clipPath id="clip1_13041_765">
<rect width="12" height="12" fill="white" transform="translate(4 3.5)"/>
</clipPath>
</defs>
</svg>
