<svg width="49" height="48" viewBox="0 0 49 48" fill="currentColor" xmlns="http://www.w3.org/2000/svg">
<path d="M24.7763 3.00022C36.3849 3.05236 45.8283 12.5159 45.75 24.0391C45.6718 35.6665 36.3066 44.9998 24.7503 44.9998C13.1417 44.9737 3.67222 35.484 3.75048 23.9348C3.82874 12.3334 13.246 2.94808 24.7763 3.00022ZM24.7503 42.0277C34.7154 42.0277 42.7761 33.9719 42.8022 24.013C42.8022 14.0541 34.7414 5.94618 24.7763 5.94618C14.8112 5.94618 6.75045 14.002 6.72436 23.9609C6.72436 33.9459 14.7851 42.0277 24.7503 42.0277Z" fill="currentColor"/>
<path d="M25.1435 35.2463C21.074 35.1942 18.1262 33.6039 15.8306 30.7883C15.3088 30.1365 15.4132 29.2501 15.9871 28.7287C16.6393 28.1812 17.5262 28.2594 18.1001 28.9372C19.1958 30.2408 20.474 31.2836 22.1175 31.8571C25.4044 32.9782 28.9 31.9354 31.2478 29.1197C31.7174 28.5462 32.2652 28.2333 32.9956 28.4419C33.9869 28.7287 34.3782 29.9019 33.7521 30.7361C32.0565 32.8739 29.9174 34.3599 27.2044 34.9595C26.3957 35.142 25.587 35.1942 25.1435 35.2463Z" fill="currentColor"/>
<path d="M18.9045 18.1511C19.974 18.1511 20.8349 19.0375 20.8349 20.1064C20.8349 21.2013 19.9218 22.0877 18.8523 22.0616C17.7827 22.0616 16.9219 21.1492 16.9219 20.0803C16.9219 18.9853 17.8088 18.125 18.9045 18.125V18.1511Z" fill="currentColor"/>
<path d="M32.552 20.0201C32.6042 21.115 31.7434 22.0275 30.6477 22.0536C29.6042 22.0797 28.6912 21.2193 28.639 20.1504C28.5869 19.1076 29.4216 18.1691 30.4651 18.143C31.6129 18.0909 32.4999 18.8991 32.552 20.0201Z" fill="currentColor"/>
</svg>
