<svg width="48" height="48" viewBox="0 0 48 48" fill="none" xmlns="http://www.w3.org/2000/svg">
<g clip-path="url(#clip0_3306_6205)">
<path d="M0 46.218C0.904172 44.1328 1.81398 42.0495 2.71064 39.9615C4.6279 35.4934 6.54609 31.0252 8.44551 26.5495C8.78916 25.7399 9.32621 25.3754 10.2125 25.397C11.711 25.4337 13.2114 25.4074 14.7118 25.4074C14.8611 25.4074 15.0104 25.4074 15.2432 25.4074C15.0573 25.0655 14.9109 24.7968 14.7644 24.5282C13.3861 22.0015 12.1289 19.411 11.6106 16.5612C10.7637 11.9062 11.5308 7.56857 14.7691 3.96456C17.5661 0.848968 21.1969 -0.323253 25.3337 0.0750011C30.7653 0.59818 35.4345 4.56851 36.4852 10.9406C37.0898 14.6085 36.3021 18.0068 34.8177 21.3065C34.2046 22.6684 33.507 23.9928 32.8122 25.4064C32.9765 25.4064 33.1351 25.4064 33.2938 25.4064C34.8402 25.4064 36.3875 25.4168 37.9339 25.4017C38.701 25.3942 39.1911 25.7342 39.4897 26.434C42.2595 32.9122 45.0377 39.3857 47.8094 45.863C48.2197 46.8229 47.9737 47.4222 46.9616 47.9999H1.03093C0.556775 47.7866 0.213133 47.4429 0 46.9685C0 46.7187 0 46.4688 0 46.218ZM23.977 33.054C24.0775 32.9441 24.1432 32.8822 24.1967 32.8108C25.1281 31.5775 26.0886 30.3658 26.9815 29.1053C29.1945 25.9822 31.2104 22.7445 32.6591 19.1799C33.8187 16.3274 34.2224 13.4231 33.4685 10.3967C31.6366 3.0497 23.7207 1.00677 18.5219 4.44923C15.5409 6.42359 14.4001 9.41332 14.1522 12.8398C13.9738 15.3045 14.6442 17.5973 15.6019 19.8234C17.2713 23.7035 19.5829 27.2005 22.0813 30.5828C22.6907 31.4075 23.3291 32.2096 23.977 33.054ZM41.3281 37.9965C41.3018 37.9073 41.2933 37.8632 41.2755 37.8218C39.9526 34.7278 38.625 31.6357 37.3124 28.5371C37.1941 28.2581 37.0194 28.229 36.7678 28.2299C35.0036 28.2365 33.2384 28.2421 31.4742 28.2252C31.1362 28.2215 30.9409 28.3323 30.7578 28.6122C29.0481 31.2281 27.1853 33.7322 25.1581 36.1114C24.4577 36.9333 23.5357 36.9305 22.8353 36.1114C22.2278 35.4004 21.641 34.6715 21.0307 33.9342C19.3529 34.7927 17.6816 35.6483 15.985 36.5172C16.0479 36.6036 16.0779 36.6571 16.1192 36.6984C18.8787 39.4609 21.6372 42.2233 24.4051 44.9773C24.5197 45.0919 24.7262 45.1632 24.8924 45.1679C25.6098 45.1886 26.3299 45.198 27.0463 45.167C27.3449 45.1538 27.666 45.0843 27.9308 44.95C29.7785 44.0098 31.6141 43.0461 33.4534 42.0899C36.0664 40.7317 38.6794 39.3726 41.3271 37.9965H41.3281ZM20.5049 45.1501C20.4119 45.0364 20.3622 44.9632 20.3012 44.9021C18.0496 42.6488 15.7944 40.3992 13.5513 38.1374C13.3382 37.9233 13.1851 37.9411 12.9485 38.0632C10.5815 39.2852 8.22299 40.5251 5.83064 41.6954C5.09548 42.0552 4.60912 42.5163 4.35655 43.2941C4.15281 43.9215 3.84766 44.5161 3.57725 45.1501H20.504H20.5049ZM19.2796 31.6395C19.2054 31.5117 19.1576 31.4159 19.0965 31.3276C18.459 30.4015 17.8102 29.4838 17.1887 28.5483C17.029 28.3088 16.86 28.2261 16.5793 28.228C14.8292 28.2393 13.08 28.2478 11.3299 28.2233C10.9374 28.2177 10.7581 28.3511 10.6106 28.6995C9.34593 31.6855 8.06431 34.663 6.78927 37.6443C6.73763 37.7655 6.6982 37.8932 6.61557 38.1224C10.8942 35.932 15.0761 33.7914 19.2787 31.6404L19.2796 31.6395ZM42.4707 40.6021C39.5507 42.1209 36.7011 43.6022 33.8515 45.0843C33.8637 45.1059 33.8769 45.1266 33.8891 45.1482H44.418C43.7627 43.6181 43.128 42.1359 42.4707 40.603V40.6021Z" fill="white"/>
<path d="M19.7696 12.6865C19.7799 10.3533 21.6718 8.45783 23.9937 8.45313C26.3335 8.44937 28.2357 10.3674 28.2273 12.7222C28.2188 15.0741 26.3025 16.9724 23.9571 16.9517C21.6371 16.932 19.7592 15.0187 19.7696 12.6855V12.6865ZM23.9787 11.317C23.206 11.3236 22.5797 11.9595 22.5919 12.724C22.6042 13.4849 23.2511 14.1076 24.0191 14.0973C24.7862 14.0869 25.419 13.4426 25.4068 12.6846C25.3937 11.9153 24.7618 11.3104 23.9797 11.317H23.9787Z" fill="white"/>
</g>
<defs>
<clipPath id="clip0_3306_6205">
<rect width="48" height="48" fill="white"/>
</clipPath>
</defs>
</svg>
