<svg width="49" height="48" viewBox="0 0 49 48" fill="currentColor" xmlns="http://www.w3.org/2000/svg">
<path d="M47.2465 3.29112C46.2001 5.32572 45.1537 7.36997 44.0977 9.40458C43.8865 9.81922 43.6561 10.2242 43.4737 10.6485C43.2145 11.2463 42.7921 11.5163 42.1297 11.4874C41.4577 11.4585 40.7858 11.4681 40.1138 11.4874C39.9698 11.4874 39.749 11.632 39.701 11.7574C37.7522 17.273 35.813 22.7983 33.8834 28.3139C33.8834 28.3428 33.8834 28.3718 33.8738 28.4489C34.7186 28.6707 35.5634 28.8925 36.4178 29.1142C38.7602 29.7314 40.4978 31.0813 41.4289 33.3667C43.1665 37.6095 40.0946 42.4212 35.525 42.6237C35.0834 42.6429 34.6322 42.6237 34.1138 42.6237C34.1138 43.3469 34.1138 44.0218 34.1138 44.6872C34.1138 45.7768 33.8066 46.0854 32.7314 46.0854C31.5026 46.0854 30.2739 46.0854 29.0451 46.0854C28.1331 46.0854 27.7779 45.719 27.7779 44.7933C27.7779 44.099 27.7779 43.4143 27.7779 42.6815H15.394C15.394 43.2601 15.394 43.8386 15.394 44.4172C15.394 45.8925 15.202 46.0854 13.7524 46.0854C12.61 46.0854 11.4773 46.0854 10.3349 46.0854C9.43248 46.0854 9.08688 45.7286 9.08688 44.8318C9.08688 44.0218 9.08688 43.2119 9.08688 42.4115C3.77814 41.158 0.610175 35.8641 1.35897 31.2163C1.77176 28.661 2.94295 26.5396 4.94933 24.91C6.95571 23.2901 9.28848 22.7115 11.8901 22.9043C11.6597 21.9787 11.4485 21.1205 11.2373 20.2719C10.8533 18.7098 10.4597 17.1573 10.0949 15.5952C10.0181 15.277 9.89328 15.1998 9.58608 15.1902C8.93329 15.1709 8.25169 15.1998 7.6277 15.0359C5.92852 14.5731 4.76693 12.7506 4.85333 10.8124C4.93973 8.9128 6.32211 7.29283 8.1365 6.89748C8.87569 6.7432 9.55728 6.89748 10.2581 7.08069C12.9172 7.77497 15.5956 8.43067 18.2452 9.16351C20.4628 9.78065 21.2788 12.2877 19.8868 14.0427C19.3012 14.7756 18.5332 15.1613 17.5924 15.1902C17.026 15.1998 16.4596 15.1902 15.8452 15.1902C16.1044 16.2605 16.354 17.2634 16.6036 18.2566C17.074 20.1658 17.554 22.0751 18.0244 23.9843C18.082 24.2254 18.1684 24.37 18.4372 24.4375C22.8531 25.5754 27.2595 26.7325 31.6754 27.88C31.7138 27.8896 31.7618 27.8896 31.8578 27.8993C33.7682 22.4511 35.6786 16.9934 37.6178 11.4681C37.3394 11.4681 37.1378 11.4681 36.9362 11.4681C35.2466 11.4681 33.557 11.4681 31.8578 11.4681C31.0035 11.4681 30.4851 10.716 30.8307 10.0121C31.0419 9.58779 31.397 9.42387 31.8578 9.42387C33.2498 9.42387 34.6418 9.42387 36.0338 9.42387C37.781 9.42387 39.5378 9.41422 41.2849 9.43351C41.6689 9.43351 41.8609 9.30815 42.0337 8.96102C43.0513 6.91677 44.1457 4.92073 45.1153 2.85719C45.5569 1.92185 46.6321 1.57472 47.2369 2.73184V3.27183L47.2465 3.29112ZM23.1891 40.589C23.1891 40.589 23.1891 40.589 23.1891 40.5794C27.2595 40.5794 31.3299 40.618 35.4002 40.5698C37.8098 40.5408 39.8162 38.4484 39.8834 36.028C39.9506 33.762 38.4626 31.8142 36.149 31.1778C34.6514 30.7631 33.1442 30.3774 31.637 29.9917C25.3875 28.391 19.138 26.7711 12.8692 25.1897C10.0469 24.4761 7.5029 25.0547 5.46772 27.2243C3.42295 29.4132 2.78935 32.0167 3.65334 34.8999C4.66133 38.2748 7.8869 40.5794 11.5061 40.589C15.394 40.5987 19.2916 40.589 23.1795 40.589H23.1891ZM13.0132 13.1556C14.4916 13.1556 15.97 13.1556 17.458 13.1556C18.1876 13.1556 18.6676 12.5867 18.514 11.9213C18.3892 11.3813 17.9476 11.1885 17.4676 11.0631C14.7892 10.3689 12.1205 9.68422 9.44208 8.99959C8.41489 8.72959 7.4549 9.22137 7.06131 10.2242C6.48531 11.6706 7.4645 13.1652 8.99089 13.1652C10.3349 13.1652 11.6789 13.1652 13.0324 13.1652L13.0132 13.1556ZM15.8164 23.7915C15.8164 23.6854 15.8356 23.6565 15.8164 23.6276C15.1444 20.8987 14.482 18.1794 13.8004 15.4505C13.7716 15.3541 13.6372 15.2095 13.5508 15.2095C13.0804 15.1806 12.61 15.1998 12.1013 15.1998C12.7732 17.8998 13.4164 20.5226 14.0788 23.1358C14.1076 23.2515 14.242 23.3865 14.3572 23.4154C14.8276 23.5504 15.3076 23.6565 15.8164 23.7818V23.7915ZM32.0498 44.0411V42.6719H29.8419V44.0411H32.0498ZM11.1413 44.0604C11.5637 44.0604 11.9669 44.0604 12.3605 44.0604C13.4548 44.0604 13.4452 44.0604 13.3684 42.9611C13.3492 42.7297 13.2628 42.6526 13.042 42.6526C12.5236 42.6526 11.9957 42.6526 11.4773 42.6526C11.3621 42.6526 11.2373 42.6815 11.1317 42.7008V44.0701L11.1413 44.0604Z" fill="currentColor"/>
<path d="M14.5297 37.4937C14.0113 36.7222 13.5601 36.0183 13.0705 35.3433C13.0129 35.2662 12.7537 35.2855 12.6001 35.3337C9.91215 36.1437 7.21457 34.1669 7.19537 31.3705C7.18577 29.5674 8.29936 27.9956 10.0273 27.3881C11.6401 26.8192 13.5121 27.3592 14.5969 28.7188C15.7201 30.117 15.8449 32.0552 14.8657 33.5594C14.6545 33.8873 14.6833 34.0801 14.8849 34.3791C15.5281 35.3048 16.1521 36.2401 16.7665 37.1851C16.9105 37.4069 17.0737 37.5129 17.3425 37.5033C17.9281 37.484 18.5137 37.4937 19.0896 37.5033C19.704 37.5129 20.136 37.9372 20.1456 38.4965C20.1456 39.0654 19.7328 39.5283 19.1184 39.5283C16.6225 39.5476 14.1169 39.5476 11.6209 39.5283C11.0065 39.5283 10.5937 39.0751 10.5937 38.4965C10.5937 37.9083 11.0353 37.5033 11.6881 37.4937C12.5905 37.4937 13.5025 37.4937 14.5201 37.4937H14.5297ZM9.23055 31.332C9.23055 32.5277 10.1713 33.4919 11.3521 33.4919C12.5137 33.4919 13.4737 32.5373 13.4833 31.3705C13.4833 30.1845 12.5233 29.2009 11.3521 29.2009C10.1905 29.2009 9.24015 30.1556 9.23055 31.3223V31.332Z" fill="currentColor"/>
<path d="M32.5301 32.5079C34.2389 32.5175 35.6021 33.8964 35.6021 35.6128C35.6021 37.3388 34.1909 38.7467 32.4917 38.7274C30.8021 38.7081 29.4102 37.3003 29.4102 35.6128C29.4102 33.8964 30.8117 32.4982 32.5397 32.5079H32.5301ZM32.5013 34.5425C31.9253 34.5425 31.4357 35.0246 31.4357 35.6032C31.4357 36.1914 31.9445 36.7024 32.5205 36.6831C33.0965 36.6735 33.5765 36.1721 33.5669 35.6032C33.5669 35.0246 33.0773 34.5425 32.5013 34.5425Z" fill="currentColor"/>
</svg>
