<svg width="49" height="48" viewBox="0 0 49 48" fill="none" xmlns="http://www.w3.org/2000/svg">
<path d="M44.5 25.2654C44.3952 25.9665 44.3149 26.6729 44.1801 27.3697C43.3382 31.7417 41.1322 35.3076 37.6466 38.0929C35.0673 40.1548 32.1113 41.3852 28.8312 41.8274C28.0278 41.9356 27.2104 41.9918 26.3984 41.994C24.3978 42.0003 22.393 42.0194 20.3956 41.9271C17.1668 41.7787 14.2034 40.753 11.5384 38.9541C7.72876 36.3842 5.2093 32.883 4.04854 28.4463C3.69977 27.1109 3.51148 25.7512 3.50399 24.3713C3.4965 23.089 3.50185 21.8056 3.50185 20.4575C5.81911 20.4861 8.12139 20.3345 10.3852 20.763C10.7596 19.6557 11.0977 18.5642 11.4989 17.4951C11.9022 16.4217 12.3686 15.3706 12.8276 14.2591C14.2269 14.8308 15.5995 15.3918 16.9989 15.9625C17.0417 15.8638 17.0898 15.761 17.1305 15.6549C17.8858 13.6587 19.0176 11.9002 20.5336 10.3877C21.6708 9.25282 22.8155 8.12323 23.9474 7C23.9956 7.0053 24.0309 7 24.0448 7.01379C25.4345 8.4043 26.8563 9.76405 28.1989 11.1991C29.3886 12.4698 30.2263 13.9769 30.8436 15.5997C30.8757 15.6846 30.9163 15.7673 30.9666 15.884C32.3082 15.3271 33.6391 14.7756 34.9571 14.2283C34.9988 14.2517 35.0341 14.258 35.0427 14.276C35.8269 16.1523 36.7277 17.983 37.2423 19.9611C37.4498 20.7598 37.4519 20.711 38.2714 20.6675C40.1479 20.5689 42.0265 20.5233 43.9041 20.4543C44.1031 20.4469 44.301 20.432 44.5 20.4204V25.2633V25.2654ZM25.2302 39.5608C35.048 40.2057 42.7273 32.1204 42.0576 22.9097C32.9362 22.1811 24.6204 29.6767 25.2302 39.5608ZM5.93465 22.8896C5.2981 33.1619 14.1916 40.3977 22.7749 39.5216C23.3355 30.0373 15.5706 22.2903 5.93465 22.8896ZM23.9688 10.3442C23.4029 10.9127 22.8616 11.46 22.3159 12.0041C20.9508 13.3649 19.9463 14.9485 19.2904 16.7558C19.1663 17.0974 19.2455 17.2543 19.5387 17.4495C20.6962 18.2164 21.7436 19.1168 22.6668 20.152C23.1076 20.6452 23.5248 21.1597 23.9646 21.6783C25.2933 19.8381 26.9184 18.3108 28.7906 17.0952C27.9754 14.2686 26.085 12.2608 23.9678 10.3442H23.9688ZM12.8351 21.3601C18.1061 23.2512 21.8099 26.7493 23.9988 31.8913C24.262 31.3291 24.4995 30.82 24.738 30.3109C24.7552 30.2749 24.7873 30.2409 24.7894 30.2049C24.7958 30.0871 24.8076 29.9662 24.7883 29.8506C24.0277 25.4362 21.8206 21.9254 18.1061 19.3619C16.8887 18.5218 15.5503 17.9173 14.1456 17.3997C13.5872 18.6989 13.0672 19.977 12.8361 21.3601H12.8351ZM26.7418 27.2223C28.9468 24.5293 31.7155 22.5629 35.0823 21.4078C34.8276 19.9728 34.312 18.6576 33.7161 17.3445C33.3855 17.4792 33.0902 17.598 32.796 17.7178C29.7491 18.9652 27.3056 20.9359 25.5179 23.6882C25.4441 23.8017 25.3874 23.9926 25.4324 24.104C25.8517 25.1403 26.2946 26.167 26.7418 27.2213V27.2223Z" fill="white"/>
</svg>
