<svg width="33" height="33" viewBox="0 0 33 33" fill="none" xmlns="http://www.w3.org/2000/svg">
<g clip-path="url(#clip0_8248_511)">
<path d="M30.2702 12.1617C29.8406 11.9476 29.3672 11.8359 28.8872 11.8352H27.2937C23.4043 11.8358 19.5296 12.3129 15.7562 13.2557C15.5446 13.3084 15.3273 13.3351 15.1092 13.3352C14.971 13.3337 14.8347 13.3029 14.7092 13.2447C14.946 13.1577 15.1566 13.0114 15.3209 12.8199C15.4852 12.6284 15.5977 12.398 15.6477 12.1507L15.9647 10.5672C15.9885 10.4462 16.0001 10.3231 15.9992 10.1997C15.9983 9.76364 15.8446 9.34165 15.5648 9.00713C15.285 8.67261 14.8968 8.44673 14.4677 8.36874C14.4817 8.06874 14.4992 7.76874 14.4992 7.46375C14.4985 6.31077 14.2046 5.17692 13.6452 4.16874C12.9478 2.9138 11.8534 1.92595 10.5339 1.36024C9.2143 0.794543 7.74425 0.683016 6.35444 1.04317C4.96463 1.40332 3.73376 2.21477 2.855 3.35014C1.97625 4.48551 1.49937 5.88053 1.49922 7.31625C1.49978 8.39885 1.66534 9.47504 1.99022 10.5077C1.59048 10.7023 1.27904 11.0407 1.11834 11.4552C0.957644 11.8697 0.959564 12.3296 1.12372 12.7427L1.81022 14.4587C1.88557 14.6482 2.00167 14.8188 2.15028 14.9584C2.29889 15.0979 2.47638 15.2031 2.67018 15.2665C2.86397 15.3299 3.06933 15.3498 3.2717 15.325C3.47407 15.3001 3.6685 15.2311 3.84122 15.1227L4.65572 17.1007C4.883 17.6507 4.99972 18.2401 4.99922 18.8352V19.9312C3.44314 20.2959 1.97919 20.9782 0.699219 21.9352L1.29922 22.7352C2.55747 21.7946 4.00919 21.1456 5.54922 20.8352L5.59922 20.8252C5.71216 20.8022 5.81366 20.7408 5.88655 20.6515C5.95944 20.5622 5.99924 20.4505 5.99922 20.3352V19.7727H6.00272C6.01129 20.057 6.13006 20.3268 6.33394 20.5251C6.53782 20.7234 6.81082 20.8346 7.09522 20.8352C7.40013 20.835 7.7041 20.8015 8.00172 20.7352L11.7992 19.8917C11.8672 19.8767 11.9372 19.8737 12.0062 19.8642C12.0062 19.8792 12.0002 19.8927 12.0002 19.9082C12.0006 20.2864 12.151 20.649 12.4183 20.9165C12.6856 21.184 13.048 21.3346 13.4262 21.3352H14.5802C14.9677 21.3326 15.3486 21.2356 15.6902 21.0527L17.9942 21.7107C18.2826 21.7934 18.5812 21.8353 18.8812 21.8352C19.3107 21.8368 19.7321 21.718 20.0976 21.4924C20.4631 21.2668 20.7581 20.9434 20.9492 20.5587L20.0542 20.1117C19.9462 20.3302 19.7789 20.5138 19.5715 20.6417C19.3641 20.7697 19.1249 20.8367 18.8812 20.8352C18.8267 20.8352 18.7727 20.8277 18.7182 20.8237C20.0305 19.7205 21.5925 18.9545 23.2682 18.5922C23.3631 18.5718 23.4499 18.5242 23.5182 18.4552C24.9948 16.9643 26.8695 15.9301 28.9182 15.4762L29.6062 15.3262L29.3892 14.3492L28.7012 14.5022C26.9456 14.8938 25.3014 15.6775 23.8917 16.7947C23.3974 16.7528 22.9071 16.6725 22.4252 16.5547C21.3834 16.2943 20.2968 16.2683 19.2437 16.4787C18.2971 16.6689 17.4028 17.0612 16.6217 17.6287C16.6107 17.6112 16.6027 17.5927 16.5917 17.5757L15.9137 16.5587L15.0817 17.1137L15.7592 18.1302C15.9015 18.3438 15.9832 18.5919 15.9956 18.8482C16.008 19.1045 15.9506 19.3593 15.8296 19.5856C15.7087 19.8119 15.5286 20.0011 15.3085 20.1331C15.0885 20.2651 14.8368 20.335 14.5802 20.3352H13.4262C13.33 20.3353 13.2366 20.3028 13.1611 20.2431C13.0856 20.1834 13.0326 20.1 13.0104 20.0064C12.9883 19.9127 12.9985 19.8143 13.0393 19.7272C13.0801 19.6401 13.1491 19.5692 13.2352 19.5262C13.4865 19.401 13.7634 19.3356 14.0442 19.3352H14.9992V18.3352H14.0442C13.6081 18.3358 13.1781 18.4373 12.7877 18.6317C12.6716 18.69 12.564 18.764 12.4682 18.8517C12.171 18.8346 11.8729 18.8561 11.5812 18.9157L7.78522 19.7597C7.55864 19.8099 7.32728 19.8352 7.09522 19.8352C7.07276 19.8354 7.05094 19.8277 7.03357 19.8135C7.01619 19.7992 7.00437 19.7794 7.00015 19.7573C6.99592 19.7352 6.99957 19.7124 7.01046 19.6927C7.02134 19.6731 7.03877 19.6579 7.05972 19.6497L11.6852 17.7997L11.3132 16.8707L6.68872 18.7207C6.63496 18.7466 6.58345 18.7768 6.53472 18.8112L6.48472 18.8237C6.42727 18.8363 6.36775 18.8361 6.3104 18.8231C6.25304 18.81 6.19927 18.7845 6.15291 18.7483C6.10655 18.7121 6.06874 18.6662 6.04217 18.6137C6.01561 18.5612 6.00094 18.5035 5.99922 18.4447C5.999 18.3544 6.02408 18.2658 6.07162 18.1891C6.11917 18.1123 6.18727 18.0503 6.26822 18.0102C7.87347 17.2067 9.54982 16.5539 11.2757 16.0602L12.1367 15.8142L11.8617 14.8522L10.9992 15.1002C9.42853 15.5522 7.8973 16.1315 6.42072 16.8322C6.40949 16.8317 6.39824 16.8325 6.38722 16.8347C6.28387 16.8346 6.1848 16.7935 6.11177 16.7203C6.03874 16.6472 5.99772 16.5481 5.99772 16.4447C5.99799 16.3452 6.0239 16.2474 6.07294 16.1608C6.12199 16.0742 6.19251 16.0017 6.27772 15.9502C7.55343 15.1863 8.92377 14.593 10.3537 14.1852L11.6367 13.8187L11.3617 12.8567L10.0792 13.2232C9.11032 13.5037 8.16667 13.8649 7.25822 14.3032C7.18201 14.2736 7.11651 14.2217 7.0703 14.1543C7.02408 14.0868 6.99931 14.007 6.99922 13.9252C6.99941 13.841 7.02285 13.7584 7.06696 13.6866C7.11107 13.6148 7.17414 13.5565 7.24922 13.5182L8.82672 12.7297C9.3462 12.4706 9.91871 12.3356 10.4992 12.3352H11.4992C11.7507 12.3345 11.9998 12.3836 12.2322 12.4798C12.4645 12.576 12.6754 12.7174 12.8527 12.8957L13.7142 13.7577C14.0852 14.1262 14.5864 14.3337 15.1092 14.3352C15.4093 14.3352 15.7082 14.2983 15.9992 14.2252C19.6932 13.3027 23.4863 12.8359 27.2937 12.8352H28.8872C29.1654 12.836 29.4406 12.8916 29.6973 12.9988C29.954 13.1059 30.187 13.2626 30.3831 13.4598C30.5792 13.6571 30.7346 13.891 30.8403 14.1483C30.946 14.4055 31 14.6811 30.9992 14.9592C30.9983 15.4196 30.8491 15.8674 30.5737 16.2362C29.9004 17.1337 29.3484 18.116 28.9317 19.1577C28.0419 21.3755 26.6309 23.3462 24.8182 24.9032C24.3277 25.3235 23.9608 25.8694 23.7567 26.4822L22.0247 31.6772L22.9747 31.9932L24.7062 26.7987C24.8533 26.3579 25.1172 25.9651 25.4697 25.6622C27.4051 24.0003 28.9115 21.8964 29.8612 19.5287C30.2449 18.5684 30.7534 17.6627 31.3737 16.8352C31.7785 16.2934 31.9978 15.6356 31.9992 14.9592C32.0013 14.3779 31.8404 13.8077 31.5348 13.3132C31.2292 12.8187 30.7911 12.4198 30.2702 12.1617ZM19.4417 17.4567C20.3495 17.2764 21.286 17.2986 22.1842 17.5217C22.4077 17.5777 22.6342 17.6217 22.8637 17.6602C20.8634 18.1283 19.0246 19.1226 17.5377 20.5402L16.5852 20.2682C16.8551 19.8698 16.9993 19.3995 16.9992 18.9182C16.9981 18.8207 16.9909 18.7234 16.9777 18.6267C17.6925 18.0435 18.538 17.6421 19.4417 17.4567ZM14.9992 10.1997C14.9993 10.2567 14.9936 10.3135 14.9822 10.3692L14.6657 11.9542C14.6498 12.0362 14.6124 12.1125 14.5573 12.1752C14.5022 12.238 14.4313 12.2849 14.3521 12.3112C14.2728 12.3375 14.188 12.3423 14.1063 12.325C14.0246 12.3077 13.949 12.2689 13.8872 12.2127C14.1263 11.2821 14.2948 10.3348 14.3912 9.37875C14.5668 9.43297 14.7205 9.54186 14.8299 9.68954C14.9392 9.83722 14.9986 10.016 14.9992 10.1997ZM3.10472 14.3352C3.02561 14.3354 2.94832 14.3116 2.88299 14.2669C2.81767 14.2223 2.76737 14.159 2.73872 14.0852L2.05222 12.3722C2.01586 12.2787 1.99787 12.1791 1.99922 12.0787C2.00142 11.9573 2.03339 11.8383 2.09232 11.7321C2.15125 11.6259 2.23535 11.5358 2.33722 11.4697L3.43972 14.1472C3.40439 14.2044 3.35511 14.2516 3.29651 14.2845C3.23791 14.3174 3.17191 14.3349 3.10472 14.3352ZM4.05822 13.0227C4.55881 13.4066 4.96699 13.8978 5.25272 14.4602C5.37698 14.7046 5.52043 14.9386 5.68172 15.1602C5.46779 15.3083 5.29407 15.5073 5.17622 15.7392L4.05822 13.0227ZM10.4992 11.3352C9.7641 11.3362 9.03918 11.5074 8.38122 11.8352L6.80372 12.6237C6.58606 12.7318 6.39921 12.8931 6.2605 13.0927C6.12179 13.2922 6.0357 13.5236 6.01022 13.7652C5.5008 12.872 4.73965 12.1486 3.82172 11.6852L3.42722 11.4882L3.23022 11.0102C2.7467 9.83875 2.49832 8.5836 2.49922 7.31625C2.49928 6.10201 2.90254 4.92218 3.64569 3.96193C4.38885 3.00168 5.42983 2.31539 6.60523 2.01078C7.78064 1.70618 9.02391 1.8005 10.1399 2.27895C11.2559 2.75739 12.1814 3.59287 12.7712 4.65424C13.2481 5.51406 13.4987 6.48101 13.4992 7.46425C13.4956 8.90517 13.3199 10.3405 12.9757 11.7397C12.5288 11.4747 12.0188 11.3349 11.4992 11.3352H10.4992Z" fill="white"/>
<path d="M13 24.3359H12V26.4204C12 28.4189 12.5432 30.3798 13.5715 32.0934L14.4285 31.5784C13.4938 30.0203 13 28.2374 13 26.4204V24.3359Z" fill="white"/>
<path d="M8.99881 26.4204C8.99879 28.2374 8.50503 30.0203 7.57031 31.5784L8.42731 32.0934C9.45565 30.3798 9.99885 28.4189 9.99881 26.4204V24.3359H8.99881V26.4204Z" fill="white"/>
</g>
<defs>
<clipPath id="clip0_8248_511">
<rect width="32" height="32" fill="white" transform="translate(0.5 0.335938)"/>
</clipPath>
</defs>
</svg>
