<svg width="53" height="48" viewBox="0 0 53 48" fill="none" xmlns="http://www.w3.org/2000/svg">
<g clip-path="url(#clip0_3306_6479)">
<path d="M8.19384 26.1381C8.83899 25.4805 9.41471 24.8937 10.1327 24.1602C9.70256 23.7858 9.22506 23.4014 8.78311 22.9798C8.06685 22.2952 7.3709 21.587 6.67157 20.8855C4.62947 18.8351 5.31525 15.8117 8.03806 14.8337C8.13288 14.7999 8.22094 14.751 8.31068 14.7089C7.44541 12.4055 8.52403 10.2067 11.0606 9.58446C10.3511 6.60153 12.7183 4.37909 15.6155 5.07213C15.9999 3.39602 17.0091 2.3219 18.7583 2.05547C20.5379 1.78399 21.647 2.89015 22.7358 4.11941C23.6604 3.19367 24.5476 2.30335 25.4383 1.4164C27.3382 -0.475545 29.3126 -0.472172 31.2175 1.42483C31.2903 1.49734 31.3733 1.5631 31.4359 1.64404C31.9135 2.27806 32.4485 2.51244 33.3189 2.36574C34.9766 2.08583 36.5395 3.18356 37.0475 4.77366C37.1034 4.94735 37.1508 5.1244 37.2185 5.35204C38.5816 5.01479 39.8279 5.234 40.8371 6.22213C41.8497 7.21531 42.1138 8.44288 41.7498 9.8728C42.8809 10.1409 43.8224 10.6856 44.3862 11.7293C44.9518 12.7748 44.967 13.8489 44.4912 14.9804C44.6402 15.036 44.7638 15.0849 44.8891 15.1288C47.4138 15.9988 48.1758 19.0846 46.32 21.0052C45.26 22.103 44.1543 23.1585 43.0587 24.2411C43.6835 24.8313 44.2762 25.3911 45.0077 26.0825C45.2058 25.8346 45.4327 25.4855 45.7239 25.2006C46.4063 24.5311 47.2513 24.5092 47.9269 25.1685C49.4644 26.6693 50.9884 28.1835 52.4937 29.7146C53.2184 30.4515 53.1575 31.2642 52.3684 32.0517C48.567 35.844 44.7605 39.6329 40.9556 43.4236C39.6535 44.7203 38.353 46.0203 37.0475 47.3154C36.1382 48.2158 35.3796 48.2209 34.4839 47.3339C33.0615 45.9225 31.6425 44.5095 30.2252 43.0914C29.3752 42.2398 29.3735 41.4827 30.2269 40.6329C30.4725 40.3884 30.762 40.186 31.0042 39.9854C29.448 38.4357 27.9901 36.9839 26.5796 35.5793C25.1234 37.0125 23.6417 38.4711 22.028 40.0595C22.3311 40.3041 22.6867 40.5317 22.9661 40.8285C23.5588 41.4541 23.5808 42.2668 22.9763 42.884C21.4303 44.4623 19.864 46.0237 18.2791 47.5632C17.6576 48.1669 16.8669 48.1298 16.2099 47.5582C16.0846 47.4503 15.9728 47.3272 15.856 47.2108C10.8371 42.2112 5.81646 37.2115 0.797548 32.2119C-0.262452 31.1546 -0.265838 30.4852 0.787388 29.4347C2.11831 28.1076 3.45093 26.7806 4.78186 25.4552C5.81138 24.4316 6.50732 24.4249 7.52161 25.4316C7.74173 25.6491 7.94832 25.8801 8.19215 26.1398L8.19384 26.1381ZM23.9584 14.1238C23.6163 16.6598 22.8967 17.3799 20.1383 17.9431C20.096 18.9396 19.8234 19.867 19.0817 20.609C18.3265 21.3627 17.3986 21.6831 16.3758 21.673C16.342 21.7387 16.3284 21.7556 16.3267 21.7742C16.0947 24.3962 14.4963 25.6912 11.9106 25.3624C11.7616 25.3439 11.5516 25.3456 11.4585 25.4333C10.7846 26.0588 10.1344 26.7097 9.58065 27.251C13.4092 31.0619 17.1649 34.8002 20.9867 38.6043C21.0764 38.4914 21.2034 38.2974 21.3626 38.1389C23.6129 35.8912 25.8718 33.6553 28.1171 31.4025C28.9468 30.5712 29.9154 30.0215 31.0804 29.8562C31.9185 29.7365 32.7618 29.6539 33.6068 29.5797C34.6583 29.4869 35.6133 29.234 36.4007 28.4398C39.2048 25.6086 42.0427 22.8095 44.8638 19.9952C45.7172 19.1437 45.8238 18.1252 45.1584 17.3512C44.4743 16.5553 43.504 16.5131 42.5101 17.2348C42.0461 17.5721 41.5466 17.5586 41.2266 17.1994C40.9116 16.847 40.9472 16.3411 41.3417 15.928C41.7396 15.5082 42.1714 15.1203 42.5575 14.692C43.2433 13.9282 43.228 12.8591 42.5507 12.1812C41.8277 11.4595 40.7846 11.4444 39.9888 12.1678C39.5908 12.5286 39.2285 12.9249 38.8424 13.2992C38.3276 13.7966 37.8908 13.8472 37.4861 13.4712C37.0695 13.0834 37.1017 12.5708 37.5928 12.0716C38.2294 11.4241 38.883 10.7935 39.5214 10.1443C40.3342 9.31803 40.3782 8.24897 39.6416 7.50197C38.8932 6.74149 37.7858 6.78533 36.9391 7.61832C36.2618 8.28438 35.6014 8.96899 34.9157 9.62324C34.5042 10.0161 33.9911 10.0043 33.6457 9.64516C33.2867 9.27082 33.2952 8.80374 33.6965 8.38049C34.0792 7.9758 34.5296 7.62507 34.8632 7.18665C35.1273 6.84097 35.3559 6.41436 35.4287 5.99449C35.5574 5.2593 35.1002 4.55783 34.428 4.23913C33.7287 3.90863 32.9599 4.0233 32.3706 4.60167C30.8535 6.09229 29.3464 7.59303 27.858 9.11231C27.7073 9.26745 27.6667 9.57097 27.6531 9.81041C27.6294 10.2573 27.7446 10.7227 27.6616 11.1526C27.3246 12.9316 26.0462 13.945 23.9584 14.1305V14.1238ZM2.05228 30.8191C7.11183 35.8609 12.212 40.9414 17.2868 45.9967C18.6516 44.6427 20.057 43.2482 21.4303 41.8857C16.3504 36.8271 11.2468 31.7448 6.18052 26.6996C4.82758 28.0503 3.42723 29.4465 2.05228 30.8191ZM35.7369 45.9967C40.8117 40.9448 45.9119 35.8659 50.9579 30.841C49.5779 29.4734 48.164 28.0739 46.8229 26.7468C41.7735 31.7802 36.675 36.8608 31.6222 41.8958C32.9768 43.2465 34.3789 44.6444 35.7369 45.9967ZM41.7295 25.6137C41.6008 25.7351 41.4501 25.87 41.3061 26.0133C40.0616 27.2493 38.8187 28.487 37.5775 29.7264C36.7647 30.5375 35.808 31.0652 34.6515 31.1985C34.0368 31.2693 33.4205 31.3317 32.8075 31.4244C31.8576 31.5677 30.8179 31.4548 30.0204 32.1023C29.2431 32.7329 28.5472 33.4664 27.8716 34.1038C29.3888 35.6147 30.8484 37.0648 32.2504 38.461C35.9638 34.7631 39.7161 31.0248 43.4769 27.278C42.9385 26.7637 42.3594 26.214 41.7295 25.6137ZM20.306 16.2332C20.3314 16.1995 20.3568 16.1658 20.3821 16.1321C20.582 16.0865 20.7885 16.0629 20.9782 15.9921C22.2702 15.5115 22.5733 13.9956 21.5624 12.9721C19.9825 11.3719 18.3908 9.78343 16.7805 8.21524C16.3572 7.80381 16.1269 7.23892 15.5122 6.96407C14.5538 6.53408 13.6462 6.62345 13.0621 7.37888C12.4897 8.11576 12.5676 9.09882 13.3008 9.8357C15.2075 11.7513 17.1141 13.6668 19.0563 15.5453C19.3865 15.8639 19.886 16.009 20.3076 16.2332H20.306ZM18.467 17.9936C18.2283 17.5805 18.0623 17.0999 17.7389 16.7678C16.1574 15.1406 14.542 13.5454 12.9232 11.9553C12.1409 11.1864 11.0335 11.1661 10.3105 11.8642C9.56541 12.5842 9.57557 13.7005 10.3714 14.5082C11.6312 15.7864 12.9097 17.046 14.183 18.3107C14.5928 18.717 14.9856 19.1453 15.4327 19.5079C16.0084 19.975 16.6721 20.0559 17.3461 19.7153C18.0149 19.378 18.34 18.8148 18.4653 17.9903L18.467 17.9936ZM22.4784 6.94383C22.8306 7.28445 23.1998 7.64024 23.5689 7.99772C24.5121 8.91165 25.5128 8.91671 26.4526 7.99435C27.4974 6.96575 28.5235 5.91861 29.5733 4.89676C30.0136 4.46846 30.4962 4.08231 31.0042 3.63546C30.4352 3.08913 30.0136 2.6642 29.5683 2.26457C28.8706 1.63898 27.8529 1.55467 27.1943 2.19206C25.6076 3.72483 24.082 5.32 22.4767 6.94383H22.4784ZM12.4745 23.6998C13.5142 23.6712 14.0696 23.3272 14.376 22.6409C14.7029 21.9091 14.5877 21.2177 14.0272 20.6461C12.8419 19.4387 11.6397 18.2466 10.4324 17.0595C9.6179 16.2585 8.52742 16.2282 7.78237 16.96C7.03732 17.6901 7.06103 18.7777 7.87212 19.6006C9.03202 20.7759 10.1885 21.9563 11.3925 23.086C11.7447 23.4165 12.256 23.5784 12.4762 23.6998H12.4745ZM25.9107 10.3433C24.6475 10.5287 23.5113 10.3517 22.5834 9.47148C21.9247 8.84758 21.2779 8.20681 20.648 7.55424C20.1976 7.08716 20.201 6.66898 20.648 6.19852C20.9138 5.91861 21.2254 5.68254 21.5844 5.36722C21.1611 4.96252 20.8376 4.64888 20.5091 4.34199C19.737 3.61523 18.5873 3.60511 17.8913 4.31501C17.2157 5.00636 17.2275 6.13445 17.9387 6.87807C18.4518 7.41429 18.9886 7.93027 19.5152 8.45469C20.6277 9.56085 21.7317 10.6754 22.8544 11.7715C23.4572 12.36 24.1921 12.4797 24.9049 12.1559C25.6212 11.8305 25.9531 11.2639 25.9107 10.3433Z" fill="#4AB04A"/>
</g>
<defs>
<clipPath id="clip0_3306_6479">
<rect width="53" height="48" fill="white"/>
</clipPath>
</defs>
</svg>
