<svg width="48" height="48" viewBox="0 0 48 48" fill="none" xmlns="http://www.w3.org/2000/svg">
<g clip-path="url(#clip0_3306_6454)">
<path d="M39.6468 16.9428C39.6468 19.3822 39.6546 21.8203 39.6428 24.2597C39.6402 24.8917 39.5932 25.5262 39.5318 26.1556C39.4652 26.8279 38.9572 27.2362 38.3356 27.1634C37.7374 27.0931 37.3691 26.5457 37.4305 25.8773C37.4919 25.1986 37.5494 24.5159 37.5507 23.8358C37.5572 18.9583 37.5494 14.0808 37.5441 9.20334C37.5441 8.52067 37.4174 8.38154 36.7827 8.34383C32.7655 8.10587 28.9573 7.05651 25.3724 5.26857C23.6746 4.42206 22.0656 3.39481 20.4449 2.40267C19.9826 2.1192 19.66 2.1166 19.2212 2.42347C15.5305 5.00201 11.5251 6.89397 7.08997 7.78079C5.73828 8.05126 4.35656 8.18129 2.98397 8.33082C2.24609 8.41144 2.10374 8.50637 2.10243 9.23845C2.10243 9.98613 2.10635 10.7338 2.10113 11.4828C2.0959 12.1356 1.66362 12.6063 1.07593 12.618C0.516974 12.6284 0.0363729 12.1824 0.0246191 11.5582C0.00502938 10.5518 -0.0106424 9.54012 0.0572686 8.53627C0.136933 7.36599 1.17127 6.36474 2.33751 6.30233C8.10733 5.99025 13.2712 3.99946 17.9871 0.742159C19.4171 -0.246084 20.2438 -0.247385 21.6947 0.738258C24.9493 2.9501 28.4362 4.66912 32.2902 5.53384C33.9187 5.89923 35.5904 6.08647 37.2503 6.28412C38.5889 6.44276 39.6376 7.49082 39.6428 8.84835C39.6533 11.5478 39.6455 14.246 39.6468 16.9454V16.9428Z" fill="#4AB04A"/>
<path d="M38.6101 47.9876C33.4502 47.9954 29.2149 43.7889 29.2031 38.6448C29.1914 33.4799 33.4228 29.2422 38.601 29.2344C43.7583 29.2266 47.9675 33.4175 47.9962 38.5876C48.0249 43.7616 43.8118 47.9798 38.6101 47.9876ZM31.3267 38.6396C31.3319 42.6381 34.589 45.8941 38.5931 45.9019C42.5986 45.9097 45.9079 42.6147 45.9092 38.6175C45.9092 34.6034 42.6339 31.3474 38.5971 31.3513C34.5511 31.3565 31.3214 34.5943 31.3267 38.6396Z" fill="#4AB04A"/>
<path d="M0.00873994 20.6436C0.00873994 19.0676 0.00351602 17.4904 0.0113519 15.9144C0.0139639 15.2265 0.311727 14.8039 0.835425 14.696C1.51976 14.5542 2.097 15.0523 2.09961 15.8064C2.10484 18.1145 2.17536 20.4252 2.08655 22.7293C1.8776 28.1829 3.96455 32.7223 7.5116 36.7039C10.8862 40.4917 14.9478 43.3823 19.4169 45.7411C19.7303 45.9062 19.9863 45.9023 20.2776 45.7216C22.2104 44.524 24.1537 43.342 26.0813 42.1353C26.7683 41.7049 27.4761 41.8024 27.7869 42.4305C28.0129 42.8882 27.9058 43.4083 27.4604 43.7334C25.3944 45.2392 23.2356 46.5993 20.941 47.7319C20.1665 48.1142 19.3634 48.07 18.5928 47.6682C13.7463 45.1404 9.36217 42.0027 5.74852 37.8716C3.03992 34.7768 1.01434 31.305 0.327399 27.2011C0.0766509 25.7058 0.0962406 24.1636 0.0165758 22.6422C-0.0173797 21.9778 0.0113519 21.3094 0.0113519 20.6436H0.00873994Z" fill="#4AB04A"/>
<path d="M25.2049 14.6993C25.0391 15.6498 24.996 16.642 24.6852 17.5431C23.865 19.9162 21.4085 21.249 18.8722 20.8173C16.4823 20.4116 14.6356 18.2219 14.633 15.7525C14.6317 14.7162 14.5834 13.6629 14.7401 12.6448C15.1189 10.1781 17.3873 8.36283 19.8883 8.40704C22.5042 8.45385 24.6525 10.325 24.9908 12.8788C25.0691 13.4718 25.0717 14.0751 25.1083 14.6733C25.1409 14.6811 25.1749 14.6902 25.2076 14.698L25.2049 14.6993ZM22.9952 14.6525C22.9782 14.6525 22.9626 14.6499 22.9456 14.6486C22.9456 14.2585 22.9534 13.8684 22.9443 13.4796C22.9038 11.8711 21.5613 10.5474 19.9223 10.4941C18.325 10.442 16.8793 11.6786 16.7644 13.2702C16.6991 14.174 16.7004 15.0907 16.7605 15.9957C16.8571 17.4651 18.0704 18.6653 19.4913 18.7875C21.078 18.924 22.4872 17.9865 22.8346 16.4872C22.9717 15.8956 22.9469 15.2662 22.9965 14.6538L22.9952 14.6525Z" fill="#4AB04A"/>
<path d="M19.823 22.9941C21.223 22.9941 22.6243 22.9746 24.0243 22.998C26.8596 23.0461 29.0772 25.1891 29.2104 27.9834C29.2469 28.7363 28.8839 29.2096 28.2439 29.2461C27.5923 29.2825 27.1874 28.869 27.1339 28.1135C27.0085 26.3398 25.7117 25.1175 23.9264 25.1123C21.1747 25.1045 18.4217 25.1019 15.67 25.1136C13.9487 25.1214 12.6532 26.375 12.5565 28.0901C12.5134 28.843 12.0615 29.2929 11.4007 29.2422C10.7765 29.194 10.3977 28.6882 10.4408 27.9574C10.5988 25.1969 12.8229 23.0539 15.6203 22.998C17.0204 22.9707 18.4217 22.9928 19.8217 22.9928L19.823 22.9941Z" fill="#4AB04A"/>
<path d="M37.4596 39.3757C38.635 38.2016 39.7594 37.0781 40.8852 35.9546C41.0118 35.8285 41.1333 35.6945 41.277 35.5892C41.7158 35.2654 42.2826 35.3148 42.6522 35.6958C43.01 36.0651 43.0518 36.6009 42.7462 37.0313C42.6626 37.1496 42.5555 37.2523 42.4523 37.3563C41.1072 38.6996 39.7633 40.0441 38.4156 41.3847C37.7325 42.0635 37.2232 42.0622 36.5441 41.3847C35.9107 40.7541 35.276 40.1247 34.6465 39.4902C34.1124 38.9518 34.0693 38.3641 34.5185 37.9038C34.9521 37.4578 35.5946 37.4877 36.1131 37.9974C36.5532 38.4291 36.9764 38.8777 37.4622 39.3757H37.4596Z" fill="#4AB04A"/>
</g>
<defs>
<clipPath id="clip0_3306_6454">
<rect width="48" height="48" fill="white"/>
</clipPath>
</defs>
</svg>
