<svg width="65" height="48" viewBox="0 0 65 48" fill="none" xmlns="http://www.w3.org/2000/svg">
<g clip-path="url(#clip0_3306_6411)">
<path d="M-0.00304372 39.6638C0.270366 38.8744 0.467475 38.0455 0.834671 37.302C1.56588 35.8228 2.72946 34.7423 4.22845 34.0273C4.36039 33.964 4.48596 33.8881 4.58452 33.8343C4.26183 33.2031 3.8692 32.6178 3.64666 31.9755C2.50374 28.6834 4.47484 25.1936 7.88133 24.4263C8.16746 24.3615 8.47425 24.3868 8.76038 24.3219C8.95272 24.2792 9.1848 24.1985 9.29925 24.0546C10.1306 23.0105 11.1511 22.2211 12.4196 21.6816C12.1621 21.2355 11.8951 20.8179 11.6757 20.3781C11.2878 19.5982 11.4849 18.8879 12.1557 18.5398C12.8154 18.1981 13.5069 18.4639 13.9409 19.2296C14.9455 21.0014 16.6797 21.6247 18.3075 20.7989C19.6809 20.1028 20.3739 18.5351 19.9527 17.0718C19.5092 15.5278 18.1628 14.5881 16.5669 14.7289C15.9819 14.7795 15.4589 14.6862 15.1108 14.172C14.8294 13.756 14.7452 13.2545 15.0822 12.878C15.3508 12.5758 15.7737 12.2768 16.1567 12.2357C16.7656 12.1709 17.0978 11.856 17.5095 11.4716C18.3138 10.7202 19.2231 10.0779 20.1419 9.34863C19.0943 7.93277 18.627 6.24481 19.1007 4.36543C19.4488 2.98596 20.2277 1.89124 21.369 1.04647C23.3067 -0.38679 26.3095 -0.307692 28.1725 1.19043C29.4537 2.22029 30.1992 3.52699 30.3979 5.15009C30.5966 6.75895 30.0784 8.1669 29.22 9.34072C30.3518 10.2393 31.4423 11.1078 32.4946 11.9446C33.4785 11.1536 34.5785 10.2709 35.7373 9.33913C34.6199 7.80463 34.1732 5.97904 34.8329 3.96203C35.2398 2.71544 35.9996 1.72672 37.071 0.98952C39.2758 -0.529167 42.1784 -0.276053 44.2544 1.58592C46.3606 3.47637 46.5418 6.13249 44.8044 9.42614C45.5245 9.92921 46.3129 10.3532 46.936 10.9512C47.6704 11.6551 48.3873 12.1186 49.446 12.3749C53.5201 13.3621 55.1224 17.8691 52.7444 21.3114C52.6744 21.4127 52.6124 21.5187 52.5218 21.6626C53.8205 22.2132 54.8665 23.0326 55.7265 24.1052C55.8568 24.2666 56.1731 24.333 56.41 24.3504C60.7353 24.6668 63.2548 29.7702 60.5381 33.4815C60.4762 33.5654 60.4221 33.6555 60.3824 33.7156C61.139 34.2503 61.9402 34.7139 62.6173 35.3166C64.0845 36.6217 64.8666 38.3018 64.954 40.2587C65.0144 41.6239 64.997 42.9955 64.9636 44.3623C64.9175 46.335 63.2802 47.9312 61.2884 47.9897C60.8227 48.004 60.3569 48.0024 59.8928 47.9929C59.0598 47.9755 58.5162 47.4819 58.5098 46.7479C58.5019 46.0123 59.0455 45.4981 59.8658 45.476C60.2679 45.4649 60.6701 45.4918 61.0707 45.4665C61.8257 45.419 62.3725 45.0488 62.3821 44.3496C62.4027 42.7154 62.5029 41.0433 62.2009 39.455C61.786 37.264 59.8467 35.9067 57.5879 35.8655C56.5721 35.8465 55.5564 35.8908 54.5422 35.8545C51.8669 35.7595 49.5747 37.6389 49.4253 40.3061C49.3315 42.0004 49.4078 43.7042 49.4078 45.4728C49.8958 45.4728 50.3775 45.4665 50.8559 45.4728C51.7255 45.487 52.285 45.9933 52.277 46.7463C52.2691 47.4961 51.7096 47.9881 50.8273 47.9913C48.648 47.9976 46.4703 47.9929 44.2909 47.9929C30.986 47.9929 17.6812 47.9929 4.37469 47.9929C1.98554 47.9929 0.930047 47.2683 0.079615 45.0473C0.0668983 45.0125 0.0208002 44.9903 -0.0078125 44.9634C-0.0078125 43.1948 -0.0078125 41.4261 -0.0078125 39.6591L-0.00304372 39.6638ZM31.2086 45.4491C31.2086 43.7754 31.2992 42.1523 31.1895 40.5434C30.9908 37.6532 28.9911 35.875 26.0901 35.8655C25.033 35.8624 23.9744 35.845 22.9173 35.8719C20.6728 35.9304 18.6349 37.4396 18.3297 39.5879C18.0579 41.5052 18.1485 43.4732 18.0786 45.4491H31.2086ZM46.8295 45.4475C46.8295 43.8165 46.8756 42.2583 46.82 40.7032C46.7214 37.9585 44.7646 35.962 42.118 35.875C40.8924 35.8355 39.6636 35.8339 38.4381 35.8766C36.0425 35.962 34.0921 37.6816 33.8696 40.0482C33.7138 41.6967 33.7837 43.3672 33.7583 45.0283C33.7567 45.1675 33.7901 45.3067 33.806 45.4459H46.8295V45.4475ZM15.602 45.476C15.602 43.788 15.6751 42.1871 15.5861 40.594C15.4335 37.8746 13.5101 35.9652 10.9111 35.8766C9.68552 35.8339 8.45676 35.8355 7.23119 35.8766C4.83249 35.9573 2.89319 37.6816 2.64204 40.034C2.5101 41.2632 2.54984 42.5114 2.53712 43.7516C2.52441 45.0061 2.9997 45.4744 4.24752 45.4744C6.99752 45.4776 9.74751 45.4744 12.4959 45.4744C13.5069 45.4744 14.5195 45.4744 15.6004 45.4744L15.602 45.476ZM27.9611 21.4902C26.9246 20.1883 26.5161 18.5936 26.8261 16.8551C27.1376 15.1117 28.1566 13.8145 29.6699 12.859C28.7972 12.0886 27.8689 11.6203 26.7673 11.6061C25.2683 11.5855 23.7677 11.5571 22.2719 11.6361C21.2959 11.6884 20.4391 12.1345 19.7047 12.8827C21.2721 13.8477 22.2528 15.1782 22.5517 16.9247C22.8473 18.6585 22.4054 20.2452 21.4103 21.495C22.5676 22.4157 23.6707 23.2937 24.6801 24.0973C25.7197 23.2715 26.8134 22.403 27.9611 21.4902ZM45.251 12.829C44.399 12.0807 43.4691 11.6267 42.3659 11.6013C41.099 11.5729 39.8321 11.5523 38.5652 11.5665C37.3444 11.5808 36.254 11.9605 35.3177 12.8717C36.8373 13.8193 37.8435 15.1291 38.1551 16.8756C38.4667 18.6284 38.0263 20.2325 37.0265 21.4918C38.1901 22.422 39.2901 23.3 40.2709 24.0831C40.7477 23.6702 41.2485 23.1813 41.8048 22.77C42.3771 22.3492 43.005 22.0043 43.6106 21.6247C41.5521 17.6587 41.9097 15.6717 45.2526 12.829H45.251ZM20.1562 33.6555C19.1722 32.3488 18.6953 30.7937 19.0212 29.0283C19.3455 27.2723 20.3517 25.9909 21.8491 25.0196C21.0479 24.2523 20.145 23.8015 19.107 23.7603C17.6096 23.7018 16.1075 23.6971 14.6101 23.7635C13.58 23.8094 12.6787 24.2586 11.9268 25.0038C15.0663 27.0556 15.7673 30.827 13.6198 33.6793C14.7436 34.5715 15.8643 35.459 16.8705 36.2563C17.9132 35.4305 19.0069 34.5636 20.1546 33.6555H20.1562ZM37.4271 24.9895C36.6545 24.2444 35.7342 23.7967 34.6755 23.7587C33.221 23.7065 31.7602 23.7065 30.3057 23.7587C29.2454 23.7967 28.3267 24.246 27.516 25.0227C29.0229 26.002 30.0228 27.2865 30.347 29.0441C30.6761 30.8191 30.1642 32.3789 29.1405 33.7694C29.7986 34.1839 30.4249 34.5319 30.9988 34.9543C31.5678 35.3735 32.0829 35.8671 32.4962 36.2183C32.9381 35.8386 33.4531 35.3387 34.0269 34.9164C34.5976 34.4971 35.2271 34.1554 35.8311 33.7805C33.6804 30.2021 34.0858 27.9336 37.4271 24.9895ZM48.1012 36.2547C49.1376 35.4368 50.2471 34.5588 51.3805 33.6634C50.414 32.3741 49.9229 30.8254 50.2392 29.0583C50.5571 27.2802 51.5887 25.9956 53.0734 25.0101C52.2675 24.2618 51.3805 23.8062 50.3632 23.7651C48.8658 23.705 47.3636 23.7018 45.8662 23.7651C44.8187 23.8094 43.8999 24.2507 43.1289 25.0354C44.6772 26.0289 45.6548 27.3308 45.9695 29.0963C46.2811 30.8523 45.7677 32.3947 44.833 33.665C45.9727 34.5683 47.0648 35.4352 48.1028 36.2579L48.1012 36.2547ZM9.07194 26.8689C7.30431 26.8689 5.8546 28.3132 5.8546 30.0771C5.8546 31.8252 7.32974 33.3075 9.07194 33.3075C10.8141 33.3075 12.2909 31.8252 12.2893 30.0771C12.2893 28.3132 10.8396 26.8689 9.07194 26.8689ZM24.6611 26.8705C22.8934 26.8815 21.4421 28.348 21.466 30.0993C21.4898 31.8616 22.9729 33.3296 24.7056 33.3059C26.4605 33.2822 27.9261 31.7904 27.9007 30.055C27.8736 28.2768 26.4319 26.8594 24.6611 26.8705ZM40.274 26.8705C38.5064 26.88 37.0551 28.3433 37.0758 30.0961C37.0964 31.8552 38.5779 33.3265 40.3122 33.3059C42.0655 33.2853 43.5327 31.7967 43.5104 30.0581C43.4882 28.2816 42.0448 26.861 40.274 26.8705ZM59.1218 30.0613C59.1012 28.2863 57.6578 26.8626 55.8886 26.8705C54.121 26.8784 52.6697 28.3401 52.6872 30.0945C52.7046 31.8521 54.1861 33.3249 55.922 33.3075C57.6737 33.2901 59.1425 31.8015 59.1218 30.0613ZM24.6785 8.98477C26.4382 8.98477 27.8991 7.53095 27.9007 5.77497C27.9038 4.03164 26.4207 2.5351 24.6865 2.53194C22.957 2.52877 21.4692 4.02057 21.4644 5.76706C21.458 7.51987 22.922 8.98319 24.6801 8.98477H24.6785ZM40.2852 8.98477C42.0464 8.98794 43.5041 7.54044 43.512 5.77971C43.52 4.03797 42.0401 2.53985 40.3026 2.53194C38.5763 2.52403 37.0853 4.01582 37.0758 5.76231C37.0646 7.51038 38.5303 8.98161 40.2868 8.98477H40.2852ZM35.6801 17.9434C35.6849 16.159 34.2781 14.7178 32.5089 14.6973C30.7619 14.6767 29.3058 16.1305 29.2979 17.9039C29.29 19.7042 30.6824 21.12 32.4691 21.1295C34.2606 21.139 35.6753 19.7358 35.6801 17.9434ZM48.1298 21.1311C49.9149 21.1169 51.3026 19.6963 51.2899 17.8944C51.2788 16.1242 49.81 14.6672 48.0678 14.6988C46.2938 14.7305 44.8982 16.1685 44.9077 17.9561C44.9172 19.7421 46.3415 21.1469 48.1298 21.1311Z" fill="#4AB04A"/>
<path d="M57.3793 46.7095C57.3904 47.4277 56.842 47.9861 56.1203 47.9909C55.405 47.9956 54.8328 47.4324 54.836 46.7269C54.8391 46.0466 55.3828 45.4961 56.0711 45.4771C56.7927 45.4566 57.3682 45.9976 57.3793 46.7095Z" fill="#4AB04A"/>
<path d="M13.9701 16.2072C13.9796 16.9128 13.3915 17.5298 12.7159 17.5219C12.0562 17.5139 11.4554 16.9302 11.4379 16.28C11.4204 15.5903 12.0149 14.9828 12.7095 14.9844C13.4074 14.9844 13.959 15.5222 13.9685 16.2088L13.9701 16.2072Z" fill="#4AB04A"/>
</g>
<defs>
<clipPath id="clip0_3306_6411">
<rect width="65" height="48" fill="white"/>
</clipPath>
</defs>
</svg>
