<svg width="75" height="48" viewBox="0 0 75 48" fill="none" xmlns="http://www.w3.org/2000/svg">
<g clip-path="url(#clip0_3306_6465)">
<path d="M75.0012 42.5799C74.962 42.6409 74.9053 42.6959 74.8877 42.7628C74.007 46.152 71.686 47.9941 68.2221 47.9961C47.7441 48.002 27.2661 48.002 6.78804 47.9961C3.27523 47.9961 0.731131 45.9436 0.0872784 42.6271C0.0226974 42.2929 0.00508443 41.945 0.00508443 41.6029C-0.000786564 38.017 -0.000786564 34.4292 0.00117043 30.8434C0.00117043 29.7798 0.335817 29.3532 1.37303 29.0682C3.87016 28.3801 5.43575 26.4083 5.42206 23.9646C5.40836 21.5564 3.84472 19.614 1.37303 18.9358C0.316247 18.6429 0.00312743 18.2241 0.00117043 17.0839C0.00117043 13.6199 -0.000786564 10.156 0.00117043 6.69201C0.00508443 2.88008 2.61963 0.161206 6.42404 0.00982962C6.61974 0.00196592 6.81544 0.00589777 7.00918 0.00589777C27.3659 0.00393185 47.7226 0.0078637 68.0773 0C70.4766 0 72.504 0.77654 73.8602 2.83093C74.373 3.60747 74.6293 4.55505 75.0012 5.42398V17.9567C74.6 18.5505 74.0364 18.8296 73.3436 19.0085C71.1518 19.5747 69.5901 21.6763 69.5783 23.9646C69.5666 26.2923 71.1204 28.4155 73.3456 28.9934C74.0403 29.1743 74.598 29.4574 75.0031 30.0472V42.5799H75.0012ZM2.92688 31.7418C2.92688 34.9207 2.92101 38.0878 2.92688 41.2549C2.93275 43.5491 4.33005 44.9803 6.62365 44.9823C27.2015 44.9902 47.7793 44.9902 68.3572 44.9823C70.686 44.9823 72.0696 43.5511 72.0735 41.1999C72.0794 38.2765 72.0637 35.3532 72.0852 32.4279C72.0892 31.9227 71.9443 31.6927 71.4688 31.4607C68.3513 29.9489 66.6409 27.4463 66.6683 23.9351C66.6937 20.4574 68.4139 17.9921 71.5197 16.5177C71.9404 16.3191 72.0892 16.1284 72.0872 15.6664C72.0657 12.694 72.0833 9.72149 72.0735 6.74705C72.0676 4.45085 70.6703 3.01966 68.3787 3.01966C47.8008 3.0118 27.223 3.0118 6.64518 3.01966C4.31048 3.01966 2.93275 4.44495 2.92884 6.80013C2.92493 9.72346 2.93862 12.6468 2.9171 15.5721C2.91318 16.0773 3.05213 16.3211 3.53551 16.5354C7.59432 18.3499 9.45152 23.0406 7.74501 27.1435C6.82131 29.365 5.18134 30.863 2.92884 31.7418H2.92688Z" fill="#4AB04A"/>
<path d="M17.8743 30.0681C17.9369 29.5511 18.0172 28.745 18.1405 27.9469C18.2324 27.3532 18.1522 26.8676 17.6825 26.4253C17.115 25.8905 16.5925 25.2968 16.1032 24.6874C14.4828 22.6723 15.4163 19.7962 17.9056 19.1356C18.7745 18.9056 19.6708 18.7758 20.5417 18.5517C20.7883 18.4888 21.0623 18.2962 21.1973 18.0819C21.6396 17.3781 22.0094 16.6291 22.4341 15.9154C23.8764 13.4895 27.035 13.4855 28.4891 15.9095C28.992 16.749 29.2895 17.8519 30.0096 18.3807C30.7279 18.9056 31.8629 18.8388 32.8062 19.0688C35.5793 19.7431 36.5225 22.7627 34.6399 24.9174C34.3013 25.3047 34 25.747 33.5949 26.0478C32.7064 26.7064 32.7181 27.5557 32.8493 28.5229C32.9667 29.3879 33.09 30.2981 32.9432 31.1415C32.5714 33.2745 30.3541 34.4443 28.3462 33.6481C27.5321 33.3256 26.7591 32.8951 25.943 32.5786C25.6651 32.4705 25.2757 32.4685 24.9978 32.5747C24.1817 32.8892 23.4087 33.3198 22.5926 33.6402C20.2599 34.5524 17.8606 32.8735 17.8763 30.0701L17.8743 30.0681ZM20.8157 30.3414C20.8215 30.8171 21.1405 31.0314 21.6454 30.8112C22.5828 30.4023 23.5261 29.9993 24.4342 29.5295C25.1543 29.1579 25.808 29.1776 26.5164 29.5393C27.3618 29.9698 28.2347 30.3512 29.0996 30.7424C29.8746 31.0924 30.1232 30.9174 30.0488 30.0426C29.9568 28.9692 29.7631 27.8977 29.7455 26.8243C29.7376 26.3388 29.949 25.7647 30.2484 25.3774C30.8864 24.5458 31.6555 23.8165 32.3541 23.0281C32.8767 22.4384 32.7494 22.0963 31.9725 21.9331C31.0195 21.7346 30.0703 21.5085 29.1114 21.3571C28.3403 21.2372 27.8315 20.8538 27.4773 20.1658C27.0409 19.3184 26.5555 18.4947 26.082 17.6671C25.6142 16.8492 25.3011 16.8571 24.8275 17.6946C24.3441 18.5458 23.8529 19.3931 23.3989 20.2601C23.0623 20.901 22.5594 21.2313 21.8568 21.3512C20.8979 21.5144 19.9487 21.7326 18.9957 21.9292C18.1757 22.0983 18.0524 22.4482 18.6062 23.0616C19.2442 23.7713 19.8665 24.4986 20.5456 25.1671C21.1699 25.7804 21.3186 26.4783 21.1914 27.3119C21.0407 28.3047 20.9448 29.3053 20.8196 30.3433L20.8157 30.3414Z" fill="#4AB04A"/>
<path d="M58.5751 18.4783C57.3559 18.4783 56.1367 18.4921 54.9175 18.4744C53.8529 18.4587 53.1914 17.8728 53.1875 16.9862C53.1836 16.1094 53.8725 15.4842 54.9077 15.4783C57.3461 15.4666 59.7846 15.4646 62.223 15.4783C63.2739 15.4842 63.9138 16.0956 63.9001 17.0098C63.8845 17.8905 63.2661 18.4528 62.2347 18.4705C61.0155 18.4921 59.7963 18.4744 58.5771 18.4764L58.5751 18.4783Z" fill="#4AB04A"/>
<path d="M58.5106 32.5255C57.3169 32.5255 56.1212 32.5353 54.9274 32.5215C53.8843 32.5097 53.1993 31.9101 53.1876 31.0333C53.1778 30.1447 53.8393 29.5353 54.8961 29.5274C57.3345 29.5117 59.7729 29.5117 62.2113 29.5274C63.2799 29.5353 63.91 30.127 63.8963 31.0412C63.8846 31.9455 63.2388 32.5117 62.1683 32.5235C60.9491 32.5353 59.7299 32.5255 58.5106 32.5274V32.5255Z" fill="#4AB04A"/>
<path d="M56.9665 22.5372C57.7473 22.5372 58.5282 22.5215 59.309 22.5411C60.1427 22.5628 60.7572 23.1781 60.7767 23.9723C60.7963 24.7921 60.1681 25.4605 59.3031 25.4723C57.7414 25.492 56.1798 25.494 54.6181 25.4723C53.8 25.4605 53.1855 24.798 53.1875 24.0058C53.1875 23.2155 53.804 22.5687 54.6239 22.5451C55.4048 22.5215 56.1856 22.5392 56.9665 22.5392V22.5372Z" fill="#4AB04A"/>
<path d="M46.1296 38.8088C46.1296 39.1508 46.1511 39.4949 46.1257 39.835C46.065 40.6351 45.3761 41.2583 44.6168 41.2288C43.8673 41.1993 43.2489 40.5958 43.2156 39.8133C43.1882 39.1783 43.1902 38.5414 43.2117 37.9064C43.2391 37.0807 43.8634 36.4555 44.6384 36.4379C45.429 36.4202 46.0885 37.0748 46.1316 37.928C46.1453 38.2209 46.1335 38.5158 46.1335 38.8088H46.1296Z" fill="#4AB04A"/>
<path d="M43.2116 9.09127C43.2116 8.77279 43.1921 8.45431 43.2155 8.13779C43.2743 7.36912 43.9201 6.77148 44.6676 6.77344C45.378 6.77344 46.061 7.34356 46.1119 8.07095C46.1647 8.80031 46.1647 9.54146 46.1119 10.2708C46.0591 10.9962 45.3682 11.5664 44.6598 11.5644C43.9162 11.5644 43.2684 10.9609 43.2155 10.1922C43.1901 9.82652 43.2116 9.45889 43.2116 9.09127Z" fill="#4AB04A"/>
<path d="M43.2095 19.0333C43.2095 18.7148 43.1939 18.3963 43.2115 18.0798C43.2585 17.2698 43.9141 16.6427 44.6832 16.6565C45.419 16.6683 46.0805 17.2777 46.1216 18.0464C46.1568 18.7286 46.1626 19.4186 46.1176 20.1008C46.0687 20.8616 45.374 21.4651 44.644 21.4533C43.9023 21.4396 43.2663 20.8321 43.2154 20.0615C43.1919 19.7213 43.2115 19.3773 43.2115 19.0352L43.2095 19.0333Z" fill="#4AB04A"/>
<path d="M43.2108 28.8824C43.2108 28.564 43.1912 28.2455 43.2147 27.929C43.2695 27.1603 43.9094 26.5528 44.6531 26.5469C45.3556 26.541 46.0562 27.1131 46.111 27.8346C46.1658 28.564 46.1658 29.3051 46.113 30.0345C46.0602 30.7855 45.3224 31.3811 44.6022 31.3438C43.8801 31.3045 43.2714 30.7206 43.2186 29.9853C43.1912 29.6197 43.2147 29.252 43.2127 28.8844L43.2108 28.8824Z" fill="#4AB04A"/>
</g>
<defs>
<clipPath id="clip0_3306_6465">
<rect width="75" height="48" fill="white"/>
</clipPath>
</defs>
</svg>
