<svg width="29" height="29" viewBox="0 0 29 29" fill="none" xmlns="http://www.w3.org/2000/svg">
<path d="M28.1191 7.99707C28.1199 7.73433 28.0685 7.47405 27.9679 7.23132C27.8673 6.98859 27.7196 6.76823 27.5332 6.58301L25.8549 4.90463L27.1553 3.60425C27.4824 3.2763 27.6661 2.83199 27.6661 2.36878C27.6661 1.90556 27.4824 1.46125 27.1553 1.1333C27.0004 0.937722 26.8063 0.776841 26.5853 0.661074C26.3644 0.545307 26.1216 0.477234 25.8726 0.461265C25.6237 0.445295 25.3742 0.481784 25.1403 0.568369C24.9063 0.654954 24.6932 0.789704 24.5146 0.963895L23.2146 2.26425L21.5361 0.585695C21.1611 0.21068 20.6524 0 20.1221 0C19.5917 0 19.083 0.21068 18.708 0.585695L17.2125 2.0812C14.7596 -0.218925 11.0078 3.62448 13.378 6.02301L16.417 9.06201L9.06189 16.4169L6.02295 13.3779C3.62819 11.0099 -0.213431 14.7529 2.0812 17.2122L0.585934 18.7078C0.400175 18.8935 0.252818 19.1139 0.152282 19.3566C0.051746 19.5992 0 19.8593 0 20.122C0 20.3846 0.051746 20.6447 0.152282 20.8873C0.252818 21.13 0.400175 21.3504 0.585934 21.5361L2.26425 23.2145L0.963864 24.5149C-0.665341 26.1724 1.93591 28.791 3.60453 27.1555L4.90453 25.8549L6.58303 27.5334C6.95807 27.9085 7.46672 28.1191 7.99709 28.1191C8.52746 28.1191 9.03611 27.9085 9.41115 27.5334L10.9067 26.0379C13.3594 28.3384 17.1114 24.4943 14.7412 22.0961L11.7022 19.0571L19.0572 11.7023L22.0962 14.7412C22.3605 14.9981 22.6762 15.1963 23.0225 15.3226C23.3688 15.4489 23.7379 15.5006 24.1056 15.4742C24.4732 15.4479 24.8312 15.344 25.1559 15.1695C25.4806 14.9951 25.7648 14.7539 25.9897 14.4619C26.458 13.9917 26.725 13.3577 26.734 12.6942C26.743 12.0307 26.4934 11.3897 26.038 10.907L27.5332 9.41138C27.7196 9.22611 27.8673 9.0057 27.9679 8.76293C28.0685 8.52016 28.1199 8.25985 28.1191 7.99707ZM25.2217 1.67114C25.9318 0.950175 27.169 2.18584 26.4482 2.89723L25.1479 4.19751L23.9219 2.97119L25.2217 1.67114ZM2.89746 26.448C2.18741 27.1691 0.950069 25.933 1.67091 25.2219L2.97119 23.9216L4.19726 25.148L2.89746 26.448ZM8.7041 26.8264C8.51355 27.0081 8.26036 27.1095 7.99707 27.1095C7.73377 27.1095 7.48058 27.0081 7.29004 26.8264L1.29297 20.8291C1.10654 20.641 1.00194 20.3868 1.00194 20.1219C1.00194 19.8571 1.10654 19.6029 1.29297 19.4148L2.7827 17.9248L10.1943 25.3362L8.7041 26.8264ZM14.0342 25.0034C13.8782 25.2287 13.6696 25.4124 13.4264 25.5386C13.1833 25.6648 12.913 25.7297 12.639 25.7277C12.3651 25.7257 12.0958 25.6567 11.8546 25.5269C11.6133 25.397 11.4075 25.2102 11.2549 24.9826L2.83642 16.5642C2.6732 16.3916 2.54962 16.1854 2.4743 15.9601C2.39898 15.7348 2.37374 15.4958 2.40034 15.2597C2.42694 15.0237 2.50474 14.7962 2.6283 14.5933C2.75187 14.3904 2.91823 14.217 3.11577 14.085C3.40778 13.7937 3.80339 13.6301 4.21584 13.6301C4.62828 13.6301 5.0239 13.7937 5.31592 14.085L14.0342 22.8032C14.3254 23.0952 14.489 23.4909 14.489 23.9033C14.489 24.3158 14.3254 24.7114 14.0342 25.0034ZM18.3501 10.9954L10.9951 18.3501L9.76907 17.1238L17.1241 9.76904L18.3501 10.9954ZM25.2827 13.7549C25.1508 13.9525 24.9773 14.1189 24.7743 14.2425C24.5714 14.3661 24.3439 14.4439 24.1078 14.4705C23.8717 14.4971 23.6327 14.4718 23.4073 14.3964C23.182 14.3211 22.9758 14.1974 22.8032 14.0341L14.085 5.31592C13.7937 5.02394 13.6301 4.62836 13.6301 4.21594C13.6301 3.80352 13.7937 3.40794 14.085 3.11597C14.2459 2.89875 14.4532 2.72008 14.6918 2.59294C14.9304 2.4658 15.1943 2.39336 15.4644 2.3809C15.7392 2.39491 16.0074 2.47001 16.2496 2.60071C16.4917 2.73142 16.7017 2.91446 16.8642 3.13651L24.9829 11.2551L25.2827 11.5549C25.574 11.8469 25.7376 12.2425 25.7376 12.6549C25.7376 13.0673 25.574 13.4629 25.2827 13.7549ZM26.8262 8.70435L25.3364 10.1943L17.9248 2.78296L19.415 1.29273C19.6056 1.11102 19.8588 1.00965 20.1221 1.00965C20.3854 1.00965 20.6386 1.11102 20.8291 1.29273L26.8262 7.29004C27.0126 7.47818 27.1172 7.73233 27.1172 7.99719C27.1172 8.26206 27.0126 8.51621 26.8262 8.70435Z" fill="#4AB04A"/>
</svg>
