<svg width="32" height="32" viewBox="0 0 32 32" fill="none" xmlns="http://www.w3.org/2000/svg">
<path d="M29.9637 15.696C29.8877 15.506 29.7037 15.381 29.4987 15.381H21.9277C23.4157 12.749 23.0957 9.285 20.9537 7.021C19.7227 5.718 18.0817 5 16.3327 5C14.5837 5 12.9427 5.718 11.7107 7.02L3.89869 15.282C3.87969 15.302 3.87169 15.327 3.85669 15.35C3.82769 15.378 3.79669 15.402 3.76869 15.431C1.34569 18.143 1.40269 22.335 3.89769 24.973C5.12269 26.28 6.76369 27 8.51969 27H18.2487C18.3757 27 18.4987 26.951 18.5917 26.864L29.8417 16.244C29.9907 16.104 30.0397 15.886 29.9637 15.696ZM12.4377 7.708C13.4787 6.606 14.8627 6 16.3327 6C17.8027 6 19.1867 6.606 20.2277 7.708C22.3967 10.001 22.3967 13.733 20.2377 16.016L14.8477 21.398C15.2637 19.42 14.6187 17.312 12.9207 15.516C11.7047 14.23 10.0857 13.513 8.36169 13.496C7.82669 13.489 7.29669 13.561 6.77869 13.693L12.4377 7.708ZM18.0497 26H8.51969C7.04369 26 5.66069 25.392 4.62469 24.287C2.48269 22.022 2.43369 18.425 4.49769 16.114C5.53869 15.055 6.93669 14.477 8.35169 14.495C9.80169 14.509 11.1657 15.116 12.1937 16.203C14.3967 18.532 14.5477 21.46 12.5927 23.649C11.7847 24.481 10.6947 24.938 9.52369 24.938C8.36669 24.938 7.26469 24.46 6.41869 23.594C5.48569 22.637 4.96969 21.329 5.00269 20.004C5.02969 18.924 5.56869 17.897 6.44469 17.256C7.26269 16.658 8.27769 16.474 9.23069 16.751C10.7087 17.181 11.7957 18.673 11.8157 20.304C11.8297 21.012 11.5737 21.689 11.1127 22.159C10.6927 22.587 10.1437 22.814 9.52369 22.814C8.19069 22.814 7.06469 21.654 7.01369 20.23C6.99769 19.771 7.13269 19.369 7.39269 19.099C7.61769 18.867 7.93069 18.744 8.29969 18.744C9.08669 18.744 9.76069 19.43 9.80269 20.273C9.81669 20.549 10.0497 20.763 10.3267 20.748C10.6027 20.734 10.8147 20.499 10.8017 20.224C10.7327 18.857 9.61069 17.745 8.29969 17.745C7.65269 17.745 7.09069 17.974 6.67269 18.406C6.22169 18.873 5.98769 19.534 6.01369 20.267C6.08369 22.224 7.65769 23.816 9.52269 23.816C10.4047 23.816 11.2227 23.477 11.8257 22.861C12.4737 22.2 12.8337 21.261 12.8147 20.289C12.7897 18.2 11.4297 16.351 9.50869 15.792C8.25469 15.426 6.92369 15.667 5.85369 16.45C4.72869 17.272 4.03669 18.592 4.00169 19.979C3.96169 21.572 4.58169 23.144 5.70169 24.292C6.73669 25.354 8.09369 25.938 9.52269 25.938C10.9567 25.938 12.2917 25.378 13.3017 24.349C13.3017 24.349 13.3017 24.354 13.3037 24.352L20.9527 16.713C21.0547 16.605 21.1457 16.49 21.2397 16.377C21.2447 16.377 21.2497 16.38 21.2547 16.38H28.2387L18.0497 26Z" fill="#4AB04A"/>
</svg>
