<svg width="32" height="32" viewBox="0 0 32 32" fill="none" xmlns="http://www.w3.org/2000/svg">
<path d="M7.2625 18.3876C6.4125 17.7438 5.10625 17.9563 4.5 18.8313C3.5375 20.0938 4.5375 22.0126 6.1 21.9688C7.99375 21.9876 8.80625 19.4813 7.2625 18.3876ZM6.30625 21.2813C4.6 21.5063 4.20625 19.0188 5.89375 18.7063C7.6 18.4751 8 20.9626 6.30625 21.2813ZM23.0125 18.1376C24.1 17.9376 23.8438 16.3313 22.75 16.4813C21.6562 16.6813 21.9188 18.2813 23.0125 18.1376ZM22.7188 17.3313C22.6875 17.1188 23.0063 17.0688 23.0438 17.2813C23.0688 17.4938 22.75 17.5438 22.7188 17.3313ZM30.9813 27.5876H27.0812L26.3 24.9251C28.0062 24.1626 29.4188 22.8438 30.2938 21.1688C30.6875 20.4876 30.0938 19.5751 29.3188 19.6376C31.0688 15.0313 27.2188 9.99385 22.3375 10.4751L20.4 3.5501H21.0562L21.4312 4.85635C21.6812 5.7376 22.5312 6.3126 23.4375 6.2501C23.3937 6.60635 23.575 6.9501 23.9688 6.95635H26.3062C26.6 6.95635 26.8375 6.71885 26.8375 6.4251V5.40635C26.8375 5.1126 26.6 4.8751 26.3062 4.8751H23.9688C23.575 4.88135 23.3937 5.2251 23.4375 5.58135C22.1125 5.63135 22.0562 4.5251 21.7563 3.55635H22.6625C24.05 3.5251 24.0562 1.48135 22.6625 1.44385H17.475C17.1938 1.44385 16.9313 1.55635 16.7313 1.75635C16.0625 2.38135 16.5625 3.5876 17.4813 3.55635H17.8687L19.9813 11.0938C18.2812 11.8876 16.9625 13.3876 16.3687 15.1751L10.825 15.5001L6.5125 8.8251L9.0875 8.3251C10.1625 8.1501 10.6625 6.9251 9.86875 6.19385C9.63125 5.96885 9.3125 5.8251 8.9625 5.78135L3.7125 5.1376C2.4125 4.9501 0.91875 5.80635 0.91875 7.1626V8.34385C0.91875 8.6876 1.075 9.00635 1.3625 9.24385C2.05 9.86885 3.14375 9.45635 3.9375 9.3251L4.825 10.7001H3.8375C3.39375 10.7001 3.39375 11.3751 3.8375 11.3751H5.25625L5.86875 12.3251H3.24375C2.8 12.3251 2.8 13.0001 3.24375 13.0001H6.3L8.01875 15.6626L6.2625 15.7688C3.99375 15.6563 1.94375 17.5251 1.86875 19.8001C1.6875 22.3376 4.125 24.5813 6.6375 24.1813L9.98125 27.1376L9.71875 27.5876H1.01875C0.49375 27.5876 0.0625 28.0188 0.0625 28.5438V29.6001C0.0625 30.1251 0.49375 30.5563 1.01875 30.5563H30.9813C31.5063 30.5563 31.9375 30.1251 31.9375 29.6001V28.5438C31.9375 28.0188 31.5063 27.5876 30.9813 27.5876ZM24.1125 5.5501H26.1562V6.2876H24.1125V5.5501ZM26.375 27.5876H25.5375L24.9 25.4188C25.1562 25.3563 25.4125 25.2751 25.6688 25.1876L26.375 27.5876ZM29.3687 20.3126C29.525 20.3126 29.6187 20.4126 29.65 20.4501C29.6875 20.4938 29.8 20.6563 29.6938 20.8563C27.775 24.6876 22.675 26.1688 19.0187 23.9501C18.825 23.8376 18.8312 23.6438 18.8375 23.5876C18.8438 23.5313 18.8813 23.3376 19.1 23.2751L19.5125 23.1563H19.5187L28.8375 20.4501C28.8438 20.4501 28.8438 20.4438 28.85 20.4438L29.25 20.3251C29.3 20.3188 29.3375 20.3126 29.3687 20.3126ZM11.3062 26.2001L13.5125 22.3813L14.6062 22.0938L11.4312 27.5876H10.5063C10.6438 27.3501 11.1625 26.4501 11.3062 26.2001ZM11.0875 25.2313L9.1625 23.5251L12.6 22.6188L11.0875 25.2313ZM15.525 21.8438L17.3625 21.3563C17.7437 21.8688 18.1875 22.3376 18.6938 22.7251C18.0063 23.0813 17.9875 24.1688 18.6812 24.5313C20.35 25.5063 22.3375 25.8688 24.2437 25.5501L24.8375 27.5751H12.2125L15.525 21.8438ZM17.475 2.88135C16.9625 2.86885 16.9813 2.1251 17.475 2.11885H22.6625C23.1562 2.1251 23.1625 2.86885 22.6625 2.88135H17.475ZM18.5688 3.55635H19.7L21.6562 10.5563C21.3 10.6251 20.95 10.7126 20.6063 10.8313L18.5688 3.55635ZM20.5063 11.5938C25.6688 9.45635 30.7938 14.7563 28.5125 19.8438L19.4813 22.4688C18.9438 22.1188 18.4625 21.6813 18.0562 21.1751L23.2875 19.7938C24.95 19.5001 25.95 17.5001 25.0438 16.0313C24.5312 15.1688 23.4812 14.6626 22.4937 14.8126L17.0938 15.1313C17.6938 13.5438 18.9438 12.2438 20.5063 11.5938ZM2.56875 8.90635C2.14375 8.9751 1.6375 8.83135 1.58125 8.3501V7.16885C1.6 6.2126 2.7375 5.68135 3.625 5.8126L8.875 6.45635C9.6875 6.5376 9.88125 7.46885 8.95625 7.66885C8.95625 7.6626 2.56875 8.90635 2.56875 8.90635ZM4.64375 9.19385L5.79375 8.96885L10.0437 15.5438L8.79375 15.6188L4.64375 9.19385ZM6.6875 23.4876C2.33125 24.5126 0.93125 17.2313 5.54375 16.4876C7.8125 16.4376 10.1562 16.2751 12.425 16.0813C15.9875 16.1188 19.5813 15.5251 23.1375 15.4876C24.2875 15.6876 25.0375 16.8688 24.5938 17.9813C24.2625 18.8188 23.3937 19.1188 22.5875 19.3063C17.2625 20.5626 12.0562 22.4813 6.6875 23.4876ZM7.45625 23.9938C7.51875 23.9563 8.2875 23.7626 8.375 23.7376L10.7437 25.8313L10.3375 26.5376L7.45625 23.9938ZM31.2625 29.6001C31.2625 29.7563 31.1375 29.8813 30.9813 29.8813H1.01875C0.8625 29.8813 0.7375 29.7563 0.7375 29.6001V28.5438C0.7375 28.3876 0.8625 28.2626 1.01875 28.2626H30.9813C31.1375 28.2626 31.2625 28.3876 31.2625 28.5438V29.6001Z" fill="#4AB04A"/>
</svg>
