<svg width="32" height="32" viewBox="0 0 32 32" fill="none" xmlns="http://www.w3.org/2000/svg">
<path d="M30.0605 9.9375C30.0613 9.67476 30.0099 9.41448 29.9093 9.17175C29.8087 8.92902 29.661 8.70866 29.4746 8.52344L27.7963 6.84506L29.0967 5.54468C29.4238 5.21673 29.6075 4.77242 29.6075 4.30921C29.6075 3.84599 29.4238 3.40168 29.0967 3.07373C28.9419 2.87815 28.7477 2.71727 28.5267 2.6015C28.3058 2.48574 28.063 2.41766 27.814 2.40169C27.5651 2.38572 27.3156 2.42221 27.0817 2.5088C26.8477 2.59538 26.6346 2.73013 26.456 2.90433L25.156 4.20468L23.4775 2.52613C23.1025 2.15111 22.5938 1.94043 22.0635 1.94043C21.5331 1.94043 21.0245 2.15111 20.6494 2.52613L19.1539 4.02163C16.7011 1.7215 12.9492 5.5649 15.3194 7.96344L18.3584 11.0024L11.0033 18.3573L7.96435 15.3184C5.5696 12.9504 1.72797 16.6934 4.0226 19.1526L2.52734 20.6482C2.34158 20.8339 2.19422 21.0543 2.09369 21.297C1.99315 21.5396 1.94141 21.7997 1.94141 22.0624C1.94141 22.325 1.99315 22.5851 2.09369 22.8278C2.19422 23.0704 2.34158 23.2909 2.52734 23.4766L4.20566 25.1549L2.90527 26.4553C1.27607 28.1129 3.87732 30.7314 5.54594 29.0959L6.84594 27.7953L8.52444 29.4739C8.89948 29.8489 9.40813 30.0596 9.9385 30.0596C10.4689 30.0596 10.9775 29.8489 11.3526 29.4739L12.8481 27.9784C15.3008 30.2788 19.0528 26.4347 16.6826 24.0366L13.6436 20.9976L20.9987 13.6427L24.0376 16.6816C24.3019 16.9386 24.6176 17.1367 24.9639 17.263C25.3102 17.3894 25.6793 17.441 26.047 17.4147C26.4147 17.3883 26.7726 17.2845 27.0973 17.11C27.422 16.9355 27.7062 16.6943 27.9311 16.4023C28.3994 15.9321 28.6664 15.2982 28.6754 14.6346C28.6844 13.9711 28.4348 13.3301 27.9794 12.8474L29.4746 11.3518C29.661 11.1665 29.8087 10.9461 29.9093 10.7034C30.0099 10.4606 30.0613 10.2003 30.0605 9.9375ZM27.1631 3.61157C27.8732 2.8906 29.1104 4.12627 28.3896 4.83766L27.0894 6.13794L25.8633 4.91162L27.1631 3.61157ZM4.83887 28.3884C4.12882 29.1095 2.89148 27.8734 3.61232 27.1623L4.9126 25.8621L6.13867 27.0884L4.83887 28.3884ZM10.6455 28.7668C10.455 28.9486 10.2018 29.0499 9.93848 29.0499C9.67518 29.0499 9.42199 28.9486 9.23144 28.7668L3.23438 22.7695C3.04794 22.5814 2.94335 22.3272 2.94335 22.0624C2.94335 21.7975 3.04794 21.5434 3.23438 21.3552L4.72411 19.8652L12.1357 27.2766L10.6455 28.7668ZM15.9756 26.9438C15.8196 27.1691 15.611 27.3528 15.3679 27.479C15.1247 27.6053 14.8544 27.6702 14.5804 27.6681C14.3065 27.6661 14.0372 27.5971 13.796 27.4673C13.5547 27.3374 13.3489 27.1506 13.1963 26.9231L4.77783 18.5046C4.61461 18.332 4.49103 18.1259 4.41571 17.9006C4.34039 17.6753 4.31515 17.4362 4.34175 17.2002C4.36834 16.9641 4.44614 16.7367 4.56971 16.5338C4.69328 16.3309 4.85964 16.1574 5.05718 16.0254C5.34919 15.7341 5.7448 15.5706 6.15724 15.5706C6.56969 15.5706 6.96531 15.7341 7.25733 16.0254L15.9756 24.7437C16.2669 25.0357 16.4304 25.4313 16.4304 25.8438C16.4304 26.2562 16.2669 26.6518 15.9756 26.9438ZM20.2915 12.9358L12.9365 20.2905L11.7105 19.0642L19.0655 11.7095L20.2915 12.9358ZM27.2241 15.6953C27.0922 15.8929 26.9187 16.0593 26.7157 16.1829C26.5128 16.3065 26.2854 16.3843 26.0492 16.4109C25.8131 16.4375 25.5741 16.4122 25.3487 16.3369C25.1234 16.2615 24.9172 16.1379 24.7446 15.9746L16.0264 7.25635C15.7351 6.96437 15.5715 6.56879 15.5715 6.15637C15.5715 5.74395 15.7351 5.34837 16.0264 5.0564C16.1873 4.83918 16.3946 4.66051 16.6332 4.53337C16.8718 4.40623 17.1357 4.33379 17.4058 4.32132C17.6806 4.33534 17.9488 4.41044 18.191 4.54114C18.4331 4.67185 18.6431 4.85489 18.8056 5.07694L26.9243 13.1956L27.2241 13.4954C27.5154 13.7873 27.679 14.1829 27.679 14.5953C27.679 15.0078 27.5154 15.4033 27.2241 15.6953ZM28.7676 10.6448L27.2778 12.1348L19.8662 4.72339L21.3564 3.23316C21.547 3.05145 21.8002 2.95008 22.0635 2.95008C22.3268 2.95008 22.58 3.05145 22.7705 3.23316L28.7676 9.23047C28.954 9.41861 29.0586 9.67276 29.0586 9.93762C29.0586 10.2025 28.954 10.4566 28.7676 10.6448Z" fill="#4AB04A"/>
</svg>
