<svg width="32" height="30" viewBox="0 0 32 30" fill="none" xmlns="http://www.w3.org/2000/svg">
<path d="M7.2 16.9438C6.35 16.3 5.04375 16.5125 4.4375 17.3875C3.475 18.65 4.475 20.5688 6.0375 20.525C7.93125 20.5437 8.74375 18.0375 7.2 16.9438ZM6.24375 19.8375C4.5375 20.0625 4.14375 17.575 5.83125 17.2625C7.5375 17.0312 7.9375 19.5187 6.24375 19.8375ZM22.95 16.6938C24.0375 16.4937 23.7812 14.8875 22.6875 15.0375C21.5938 15.2375 21.8563 16.8375 22.95 16.6938ZM22.6562 15.8875C22.625 15.675 22.9438 15.625 22.9813 15.8375C23.0063 16.05 22.6875 16.1 22.6562 15.8875ZM30.9188 26.1437H27.0187L26.2375 23.4812C27.9437 22.7187 29.3563 21.4 30.2313 19.725C30.625 19.0438 30.0312 18.1313 29.2563 18.1938C31.0063 13.5875 27.1562 8.55 22.275 9.03125L20.3375 2.10625H20.9937L21.3687 3.4125C21.6187 4.29375 22.4688 4.86875 23.375 4.80625C23.3312 5.1625 23.5125 5.50625 23.9062 5.5125H26.2437C26.5375 5.5125 26.775 5.275 26.775 4.98125V3.9625C26.775 3.66875 26.5375 3.43125 26.2437 3.43125H23.9062C23.5125 3.4375 23.3312 3.78125 23.375 4.1375C22.05 4.1875 21.9937 3.08125 21.6938 2.1125H22.6C23.9875 2.08125 23.9937 0.0375 22.6 0H17.4125C17.1313 0 16.8688 0.1125 16.6688 0.3125C16 0.9375 16.5 2.14375 17.4188 2.1125H17.8062L19.9188 9.65C18.2188 10.4437 16.9 11.9437 16.3062 13.7312L10.7625 14.0562L6.45 7.38125L9.025 6.88125C10.1 6.70625 10.6 5.48125 9.80625 4.75C9.56875 4.525 9.25 4.38125 8.9 4.3375L3.65 3.69375C2.35 3.50625 0.85625 4.3625 0.85625 5.71875V6.9C0.85625 7.24375 1.0125 7.5625 1.3 7.8C1.9875 8.425 3.08125 8.0125 3.875 7.88125L4.7625 9.25625H3.775C3.33125 9.25625 3.33125 9.93125 3.775 9.93125H5.19375L5.80625 10.8812H3.18125C2.7375 10.8812 2.7375 11.5562 3.18125 11.5562H6.2375L7.95625 14.2188L6.2 14.325C3.93125 14.2125 1.88125 16.0812 1.80625 18.3562C1.625 20.8937 4.0625 23.1375 6.575 22.7375L9.91875 25.6938L9.65625 26.1437H0.95625C0.43125 26.1437 0 26.575 0 27.1V28.1562C0 28.6812 0.43125 29.1125 0.95625 29.1125H30.9188C31.4438 29.1125 31.875 28.6812 31.875 28.1562V27.1C31.875 26.575 31.4438 26.1437 30.9188 26.1437ZM24.05 4.10625H26.0938V4.84375H24.05V4.10625ZM26.3125 26.1437H25.475L24.8375 23.975C25.0938 23.9125 25.35 23.8312 25.6063 23.7437L26.3125 26.1437ZM29.3062 18.8687C29.4625 18.8687 29.5562 18.9688 29.5875 19.0063C29.625 19.05 29.7375 19.2125 29.6313 19.4125C27.7125 23.2437 22.6125 24.725 18.9562 22.5063C18.7625 22.3938 18.7687 22.2 18.775 22.1437C18.7812 22.0875 18.8188 21.8937 19.0375 21.8312L19.45 21.7125H19.4562L28.775 19.0063C28.7812 19.0063 28.7812 19 28.7875 19L29.1875 18.8813C29.2375 18.875 29.275 18.8687 29.3062 18.8687ZM11.2437 24.7563L13.45 20.9375L14.5437 20.65L11.3687 26.1437H10.4438C10.5813 25.9062 11.1 25.0063 11.2437 24.7563ZM11.025 23.7875L9.1 22.0812L12.5375 21.175L11.025 23.7875ZM15.4625 20.4L17.3 19.9125C17.6812 20.425 18.125 20.8937 18.6313 21.2812C17.9438 21.6375 17.925 22.725 18.6187 23.0875C20.2875 24.0625 22.275 24.425 24.1812 24.1062L24.775 26.1313H12.15L15.4625 20.4ZM17.4125 1.4375C16.9 1.425 16.9188 0.68125 17.4125 0.675H22.6C23.0938 0.68125 23.1 1.425 22.6 1.4375H17.4125ZM18.5063 2.1125H19.6375L21.5938 9.1125C21.2375 9.18125 20.8875 9.26875 20.5438 9.3875L18.5063 2.1125ZM20.4438 10.15C25.6063 8.0125 30.7313 13.3125 28.45 18.4L19.4188 21.025C18.8813 20.675 18.4 20.2375 17.9937 19.7312L23.225 18.35C24.8875 18.0562 25.8875 16.0562 24.9813 14.5875C24.4688 13.725 23.4187 13.2188 22.4312 13.3687L17.0312 13.6875C17.6313 12.1 18.8813 10.8 20.4438 10.15ZM2.50625 7.4625C2.08125 7.53125 1.575 7.3875 1.51875 6.90625V5.725C1.5375 4.76875 2.675 4.2375 3.5625 4.36875L8.8125 5.0125C9.625 5.09375 9.81875 6.025 8.89375 6.225C8.89375 6.21875 2.50625 7.4625 2.50625 7.4625ZM4.58125 7.75L5.73125 7.525L9.98125 14.1L8.73125 14.175L4.58125 7.75ZM6.625 22.0437C2.26875 23.0687 0.86875 15.7875 5.48125 15.0437C7.75 14.9937 10.0938 14.8312 12.3625 14.6375C15.925 14.675 19.5188 14.0813 23.075 14.0437C24.225 14.2437 24.975 15.425 24.5312 16.5375C24.2 17.375 23.3312 17.675 22.525 17.8625C17.2 19.1187 11.9937 21.0375 6.625 22.0437ZM7.39375 22.55C7.45625 22.5125 8.225 22.3187 8.3125 22.2937L10.6812 24.3875L10.275 25.0938L7.39375 22.55ZM31.2 28.1562C31.2 28.3125 31.075 28.4375 30.9188 28.4375H0.95625C0.8 28.4375 0.675 28.3125 0.675 28.1562V27.1C0.675 26.9438 0.8 26.8188 0.95625 26.8188H30.9188C31.075 26.8188 31.2 26.9438 31.2 27.1V28.1562Z" fill="#4AB04A"/>
</svg>
