<svg width="137" height="40" viewBox="0 0 137 40" fill="none" xmlns="http://www.w3.org/2000/svg">
<path d="M32.996 32.3616C33.0242 32.3618 33.0519 32.3547 33.0765 32.3412C33.1011 32.3276 33.1216 32.308 33.1361 32.2842C33.1507 32.2604 33.1586 32.2333 33.1593 32.2056C33.1599 32.1779 33.1532 32.1505 33.1397 32.1261L30.2716 25.284C30.2153 25.1424 30.1705 24.9967 30.1375 24.8482L26.3828 6.40599C26.368 6.34376 26.3328 6.28808 26.2825 6.24757C26.2323 6.20706 26.1699 6.18398 26.105 6.18191H10.0907C10.0621 6.18036 10.0335 6.1855 10.0074 6.1969C9.98119 6.2083 9.95812 6.22564 9.94005 6.24749C9.92199 6.26935 9.90943 6.29511 9.90342 6.32265C9.89741 6.3502 9.8981 6.37876 9.90546 6.40599L10.6965 10.1698C10.7198 10.316 10.7052 10.4656 10.6541 10.6047L1.57704 32.1736C1.52784 32.2903 1.59248 32.3635 1.72078 32.3635L32.996 32.3616ZM12.1889 8.23568C12.1818 8.20846 12.1813 8.17998 12.1874 8.15252C12.1935 8.12506 12.206 8.0994 12.2241 8.0776C12.2421 8.0558 12.2651 8.03846 12.2911 8.027C12.3172 8.01554 12.3456 8.01026 12.3742 8.0116H24.5817C24.6466 8.01367 24.709 8.03675 24.7593 8.07726C24.8095 8.11777 24.8447 8.17345 24.8596 8.23568L28.3325 25.2954C28.3576 25.4179 28.3827 25.5384 28.3875 25.5631C28.4153 25.6495 28.4475 25.7344 28.484 25.8176L30.3642 30.2992C30.3774 30.3234 30.3839 30.3505 30.3831 30.3778C30.3823 30.4052 30.3742 30.4319 30.3597 30.4552C30.3452 30.4786 30.3246 30.4978 30.3002 30.5109C30.2758 30.524 30.2483 30.5306 30.2205 30.53H18.0766C18.047 30.5306 18.0176 30.525 17.9904 30.5134C17.9633 30.5019 17.9389 30.4847 17.9191 30.4631C17.8992 30.4415 17.8843 30.4159 17.8754 30.3881C17.8664 30.3604 17.8637 30.331 17.8673 30.3021L18.0843 28.2208C18.1068 28.0772 18.1774 27.9452 18.285 27.8457L20.883 25.6695C20.9334 25.6222 20.9716 25.5637 20.9946 25.499C21.0176 25.4343 21.0246 25.3652 21.0152 25.2973L18.9642 15.1224C18.9494 15.0601 18.9142 15.0043 18.8639 14.9636C18.8137 14.9229 18.7513 14.8997 18.6863 14.8974H18.2715C18.2037 14.9006 18.138 14.9218 18.0815 14.9587C18.0249 14.9957 17.9796 15.047 17.9502 15.1072L13.719 25.1776C13.6959 25.2407 13.6906 25.3088 13.7035 25.3746C13.7164 25.4404 13.7471 25.5016 13.7923 25.5517L16.0729 27.8305C16.1689 27.9384 16.219 28.0785 16.2128 28.2217L16.0025 30.3021C15.9948 30.3638 15.9647 30.4207 15.9177 30.4622C15.8707 30.5038 15.81 30.5272 15.7468 30.5281H4.504C4.37569 30.5281 4.31105 30.4521 4.36025 30.3382L12.5903 10.786C12.641 10.6468 12.6553 10.4973 12.6318 10.3512L12.1889 8.23568Z" fill="white"/>
<path d="M123.788 12.9372C123.791 12.9296 123.792 12.9213 123.791 12.9133C123.789 12.9052 123.786 12.8976 123.781 12.8911C123.776 12.8847 123.77 12.8796 123.762 12.8765C123.755 12.8733 123.746 12.8722 123.738 12.8731H119.013C119.004 12.8726 118.996 12.8741 118.988 12.8774C118.98 12.8807 118.973 12.8857 118.967 12.8921C118.961 12.8984 118.957 12.906 118.955 12.9143C118.952 12.9225 118.952 12.9311 118.953 12.9396L119.134 14.0931C119.138 14.1388 119.138 14.185 119.134 14.2307L117.698 24.4483C117.69 24.4931 117.68 24.5375 117.667 24.5812L117.347 25.6184C117.343 25.6259 117.342 25.6342 117.343 25.6424C117.344 25.6506 117.347 25.6584 117.351 25.6651C117.356 25.6718 117.363 25.6772 117.37 25.6806C117.378 25.6841 117.386 25.6855 117.394 25.6848H121.972C121.981 25.685 121.99 25.6832 121.997 25.6796C122.005 25.6761 122.012 25.6708 122.018 25.6643C122.024 25.6577 122.028 25.65 122.03 25.6416C122.033 25.6333 122.033 25.6246 122.032 25.616L121.911 24.5836C121.906 24.5386 121.906 24.4933 121.911 24.4483L123.28 14.6959C123.287 14.6511 123.297 14.6067 123.309 14.563L123.788 12.9372Z" fill="white"/>
<path d="M69.8994 22.3571C69.8909 22.3576 69.8823 22.3561 69.8744 22.3528C69.8665 22.3496 69.8595 22.3445 69.8538 22.3381C69.848 22.3318 69.8439 22.3242 69.8415 22.3159C69.8391 22.3077 69.8386 22.2991 69.8401 22.2906L70.8844 14.6957C70.8914 14.6509 70.9059 14.6076 70.9271 14.5675L71.8361 12.9322C71.8528 12.899 71.8361 12.8729 71.8005 12.8729H66.7736C66.7651 12.8724 66.7565 12.8739 66.7486 12.8771C66.7407 12.8804 66.7337 12.8854 66.728 12.8918C66.7223 12.8982 66.7181 12.9058 66.7157 12.914C66.7133 12.9223 66.7129 12.9309 66.7143 12.9393L66.8876 14.0928C66.8923 14.1386 66.8923 14.1847 66.8876 14.2305L65.4516 24.4481C65.445 24.4931 65.4347 24.5376 65.4208 24.581L65.0743 25.6205C65.0707 25.6279 65.0692 25.6362 65.07 25.6443C65.0708 25.6525 65.0738 25.6603 65.0787 25.6669C65.0836 25.6735 65.0902 25.6786 65.0977 25.6817C65.1053 25.6849 65.1136 25.6859 65.1217 25.6846H74.3069C74.3264 25.6834 74.3452 25.6764 74.3608 25.6646C74.3764 25.6528 74.3882 25.6366 74.3947 25.6182L75.3844 22.1862C75.3844 22.1506 75.3725 22.1269 75.3346 22.1316L73.882 22.3405C73.8362 22.344 73.7902 22.344 73.7444 22.3405L69.8994 22.3571Z" fill="white"/>
<path d="M100.459 14.0952C100.463 14.1403 100.463 14.1855 100.459 14.2305L99.6713 19.9884C99.6713 20.0264 99.65 20.0288 99.6334 19.9884L96.1326 12.9323C96.1223 12.9148 96.1077 12.9002 96.0903 12.8899C96.0729 12.8795 96.0531 12.8737 96.0329 12.8729H92.2046C92.1961 12.8724 92.1876 12.8738 92.1797 12.8771C92.1719 12.8803 92.1649 12.8854 92.1594 12.8919C92.1539 12.8983 92.1499 12.906 92.1479 12.9142C92.1458 12.9225 92.1457 12.9311 92.1476 12.9394L92.3446 14.0929C92.3505 14.1378 92.3505 14.1832 92.3446 14.2282L90.9039 24.4481C90.8962 24.493 90.8859 24.5373 90.8731 24.581L90.5455 25.6182C90.5422 25.6257 90.5409 25.634 90.5418 25.6422C90.5426 25.6504 90.5456 25.6582 90.5503 25.6649C90.5551 25.6717 90.5616 25.677 90.5691 25.6804C90.5766 25.6839 90.5848 25.6854 90.593 25.6846H94.3905C94.3992 25.6847 94.4079 25.6829 94.4159 25.6794C94.4239 25.6758 94.431 25.6706 94.4368 25.6641C94.4427 25.6576 94.4471 25.65 94.4497 25.6416C94.4524 25.6333 94.4532 25.6245 94.4522 25.6158L94.3311 24.5834C94.3276 24.5384 94.3276 24.4931 94.3311 24.4481L95.1571 18.5715C95.1571 18.5335 95.1785 18.5312 95.1951 18.5715L98.6532 25.6301C98.6633 25.6478 98.6778 25.6627 98.6952 25.6735C98.7126 25.6843 98.7324 25.6906 98.7528 25.6918H102.849C102.858 25.6919 102.867 25.6901 102.874 25.6865C102.882 25.683 102.889 25.6777 102.895 25.6712C102.901 25.6646 102.905 25.6569 102.907 25.6486C102.91 25.6402 102.91 25.6315 102.909 25.6229L102.757 24.5905C102.752 24.5455 102.752 24.5002 102.757 24.4552L104.181 14.2353C104.188 14.1905 104.198 14.1461 104.209 14.1024L104.572 12.9441C104.576 12.9367 104.577 12.9285 104.577 12.9203C104.576 12.9122 104.573 12.9044 104.568 12.8978C104.563 12.8912 104.557 12.8861 104.549 12.8829C104.541 12.8798 104.533 12.8788 104.525 12.88H100.436C100.427 12.88 100.419 12.8818 100.411 12.8852C100.403 12.8885 100.396 12.8935 100.39 12.8998C100.384 12.906 100.38 12.9134 100.377 12.9214C100.374 12.9295 100.373 12.938 100.374 12.9465L100.459 14.0952Z" fill="white"/>
<path d="M50.7906 12.9394C50.7863 12.9205 50.7757 12.9037 50.7606 12.8917C50.7455 12.8796 50.7268 12.873 50.7075 12.8729H44.482C44.4735 12.8724 44.465 12.8738 44.4572 12.8771C44.4493 12.8803 44.4424 12.8854 44.4368 12.8919C44.4313 12.8983 44.4274 12.906 44.4253 12.9142C44.4233 12.9225 44.4232 12.9311 44.425 12.9394L44.6149 14.0929C44.6218 14.1371 44.616 14.1823 44.5983 14.2234L40.001 24.4529C39.9867 24.4885 39.9606 24.543 39.9464 24.5786L39.4836 25.6229C39.4801 25.6298 39.4786 25.6375 39.4791 25.6451C39.4796 25.6528 39.4822 25.6602 39.4866 25.6665C39.491 25.6728 39.497 25.6778 39.504 25.681C39.5109 25.6842 39.5187 25.6855 39.5263 25.6846H43.6727C43.681 25.6848 43.6893 25.6831 43.6969 25.6796C43.7045 25.6762 43.7113 25.6711 43.7167 25.6648C43.7221 25.6584 43.7261 25.651 43.7284 25.6429C43.7306 25.6349 43.731 25.6264 43.7296 25.6182L43.5706 24.7116C43.5646 24.6667 43.5646 24.6212 43.5706 24.5763L43.5848 24.5051C43.5986 24.4613 43.6152 24.4185 43.6347 24.3769L44.2542 23.0573C44.2638 23.0396 44.2778 23.0246 44.2948 23.0138C44.3118 23.003 44.3313 22.9967 44.3515 22.9956H48.9108C48.93 22.9963 48.9485 23.0034 48.9631 23.0159C48.9778 23.0284 48.9878 23.0455 48.9915 23.0644L49.2027 24.3698C49.2027 24.4078 49.217 24.4695 49.2193 24.5051V24.5953C49.2193 24.6332 49.2027 24.6926 49.1932 24.7305L49.001 25.6182C48.9992 25.6263 48.9993 25.6347 49.0012 25.6427C49.0031 25.6508 49.0068 25.6583 49.0121 25.6647C49.0174 25.6711 49.024 25.6763 49.0315 25.6797C49.0391 25.6832 49.0473 25.6848 49.0556 25.6846H53.66C53.6679 25.6854 53.6759 25.6841 53.6832 25.6807C53.6904 25.6774 53.6966 25.6722 53.7012 25.6657C53.7058 25.6592 53.7085 25.6516 53.7092 25.6437C53.7099 25.6357 53.7085 25.6278 53.7051 25.6206L53.3515 24.581C53.3371 24.5374 53.3252 24.493 53.3159 24.4481L50.7906 12.9394ZM45.4005 20.5889C45.3625 20.5889 45.3459 20.5628 45.3602 20.5272L47.1592 16.4687C47.1685 16.4511 47.1821 16.4363 47.1987 16.4255C47.2153 16.4147 47.2344 16.4083 47.2542 16.4069H47.463C47.4821 16.4078 47.5005 16.4147 47.5154 16.4266C47.5303 16.4386 47.5411 16.455 47.5461 16.4734L48.4955 20.5082C48.4983 20.5162 48.4991 20.5247 48.4978 20.5331C48.4964 20.5414 48.493 20.5493 48.4878 20.5559C48.4825 20.5626 48.4757 20.5678 48.4679 20.5711C48.4601 20.5743 48.4516 20.5756 48.4432 20.5747L45.4005 20.5889Z" fill="white"/>
<path d="M86.8614 12.9394C86.8571 12.9205 86.8466 12.9037 86.8315 12.8917C86.8164 12.8796 86.7977 12.873 86.7783 12.8729H80.5529C80.5444 12.8724 80.5359 12.8738 80.528 12.8771C80.5202 12.8803 80.5132 12.8854 80.5077 12.8919C80.5022 12.8983 80.4982 12.906 80.4962 12.9142C80.4941 12.9225 80.494 12.9311 80.4959 12.9394L80.6858 14.0929C80.6899 14.1371 80.6842 14.1816 80.6692 14.2234L76.0718 24.4529L76.0149 24.5786L75.5592 25.6229C75.555 25.6295 75.5527 25.6371 75.5527 25.6449C75.5528 25.6527 75.555 25.6604 75.5593 25.6669C75.5636 25.6734 75.5697 25.6786 75.5768 25.6817C75.5839 25.6849 75.5918 25.6859 75.5995 25.6847H79.7412C79.7496 25.6852 79.7581 25.6838 79.766 25.6805C79.7738 25.6772 79.7808 25.6722 79.7863 25.6657C79.7918 25.6593 79.7958 25.6516 79.7978 25.6434C79.7999 25.6351 79.8 25.6265 79.7981 25.6182L79.6391 24.7116C79.6355 24.6665 79.6355 24.6213 79.6391 24.5763L79.6533 24.5051C79.6533 24.4671 79.6889 24.4101 79.7032 24.3769L80.325 23.0573C80.3345 23.0394 80.3484 23.0243 80.3655 23.0135C80.3825 23.0027 80.4021 22.9965 80.4223 22.9956H84.9864C85.0055 22.9959 85.0238 23.003 85.0382 23.0156C85.0525 23.0282 85.0619 23.0455 85.0647 23.0644L85.276 24.3698C85.276 24.4078 85.2902 24.4695 85.2926 24.5051V24.5953C85.2926 24.6332 85.276 24.6926 85.2688 24.7305L85.0766 25.6182C85.0748 25.6263 85.0749 25.6347 85.0768 25.6427C85.0787 25.6508 85.0824 25.6583 85.0877 25.6647C85.093 25.6711 85.0996 25.6763 85.1071 25.6797C85.1147 25.6832 85.1229 25.6849 85.1312 25.6847H89.7261C89.7342 25.6859 89.7425 25.6849 89.7501 25.6818C89.7577 25.6786 89.7643 25.6735 89.7692 25.6669C89.7741 25.6603 89.7771 25.6525 89.7778 25.6444C89.7786 25.6362 89.7771 25.628 89.7736 25.6206L89.42 24.581C89.42 24.5454 89.3915 24.4861 89.382 24.4481L86.8614 12.9394ZM81.4595 20.5889C81.4215 20.5889 81.4025 20.5628 81.4192 20.5272L83.2182 16.4687C83.2271 16.4508 83.2406 16.4357 83.2573 16.4249C83.274 16.414 83.2933 16.4078 83.3131 16.4069H83.5196C83.5392 16.4073 83.558 16.414 83.5734 16.4259C83.5888 16.4379 83.5999 16.4546 83.6051 16.4734L84.5544 20.5082C84.5573 20.5162 84.5581 20.5247 84.5568 20.5331C84.5554 20.5414 84.552 20.5493 84.5467 20.5559C84.5415 20.5626 84.5347 20.5678 84.5269 20.5711C84.5191 20.5743 84.5106 20.5756 84.5022 20.5747L81.4595 20.5889Z" fill="white"/>
<path d="M53.8399 12.8753C53.821 12.8751 53.8027 12.8817 53.7883 12.8939C53.7739 12.9061 53.7645 12.9231 53.7616 12.9418L53.2703 16.2645C53.2682 16.2723 53.2683 16.2805 53.2705 16.2883C53.2727 16.296 53.2769 16.3031 53.2827 16.3086C53.2885 16.3142 53.2957 16.3181 53.3035 16.32C53.3114 16.3218 53.3196 16.3215 53.3273 16.3191L54.1912 16.134C54.2356 16.1245 54.281 16.1197 54.3265 16.1198H57.0796C57.0882 16.1193 57.0967 16.1207 57.1046 16.124C57.1125 16.1273 57.1196 16.1323 57.1253 16.1387C57.131 16.1451 57.1352 16.1527 57.1376 16.1609C57.1399 16.1691 57.1404 16.1778 57.139 16.1862L55.9523 24.4481C55.9453 24.4929 55.9358 24.5373 55.9238 24.581L55.601 25.6182C55.5977 25.6257 55.5964 25.634 55.5972 25.6422C55.598 25.6504 55.601 25.6582 55.6058 25.665C55.6106 25.6717 55.617 25.677 55.6245 25.6805C55.632 25.6839 55.6403 25.6854 55.6485 25.6847H60.2434C60.2522 25.6847 60.261 25.6829 60.2691 25.6794C60.2772 25.6759 60.2845 25.6707 60.2905 25.6642C60.2965 25.6578 60.3011 25.6501 60.304 25.6418C60.307 25.6335 60.3081 25.6246 60.3075 25.6158L60.2031 24.5834C60.1983 24.5384 60.1983 24.4931 60.2031 24.4481L61.3494 16.1862C61.3523 16.1676 61.3618 16.1506 61.3762 16.1384C61.3906 16.1262 61.4089 16.1195 61.4277 16.1198H63.4072C63.452 16.1205 63.4965 16.126 63.5401 16.1364L64.7268 16.4687C64.7351 16.4711 64.7438 16.4718 64.7524 16.4705C64.761 16.4693 64.7691 16.4662 64.7764 16.4614C64.7836 16.4567 64.7897 16.4504 64.7943 16.443C64.7988 16.4357 64.8017 16.4274 64.8027 16.4188L65.3154 12.9394C65.3173 12.9311 65.3172 12.9225 65.3151 12.9142C65.3131 12.906 65.3091 12.8983 65.3036 12.8919C65.2981 12.8854 65.2911 12.8803 65.2833 12.8771C65.2754 12.8738 65.2669 12.8724 65.2584 12.8729L53.8399 12.8753Z" fill="white"/>
<path d="M106.13 12.8753C106.111 12.8751 106.093 12.8817 106.078 12.8939C106.064 12.9061 106.054 12.9231 106.051 12.9418L105.56 16.2645C105.558 16.2723 105.558 16.2805 105.56 16.2883C105.562 16.296 105.567 16.3031 105.572 16.3086C105.578 16.3142 105.585 16.3181 105.593 16.32C105.601 16.3218 105.609 16.3215 105.617 16.3191L106.481 16.134C106.525 16.1245 106.571 16.1197 106.616 16.1198H109.369C109.378 16.1193 109.387 16.1207 109.394 16.124C109.402 16.1273 109.409 16.1323 109.415 16.1387C109.421 16.1451 109.425 16.1527 109.427 16.1609C109.43 16.1691 109.43 16.1778 109.429 16.1862L108.242 24.4481C108.235 24.4929 108.226 24.5373 108.214 24.581L107.891 25.6182C107.887 25.6257 107.886 25.634 107.887 25.6422C107.888 25.6504 107.891 25.6582 107.896 25.665C107.9 25.6717 107.907 25.677 107.914 25.6805C107.922 25.6839 107.93 25.6854 107.938 25.6847H112.533C112.542 25.6847 112.551 25.6829 112.559 25.6794C112.567 25.6759 112.574 25.6707 112.58 25.6642C112.586 25.6578 112.591 25.6501 112.594 25.6418C112.597 25.6335 112.598 25.6246 112.597 25.6158L112.493 24.5834C112.488 24.5384 112.488 24.4931 112.493 24.4481L113.639 16.1862C113.642 16.1676 113.652 16.1506 113.666 16.1384C113.68 16.1262 113.699 16.1195 113.718 16.1198H115.854C115.899 16.1214 115.945 16.1278 115.989 16.1388L117.014 16.4663C117.022 16.4692 117.031 16.4703 117.04 16.4693C117.048 16.4684 117.056 16.4656 117.064 16.461C117.071 16.4564 117.077 16.4503 117.082 16.443C117.086 16.4356 117.089 16.4274 117.09 16.4188L117.603 12.9394C117.605 12.9311 117.605 12.9225 117.603 12.9142C117.6 12.906 117.597 12.8983 117.591 12.8919C117.585 12.8854 117.579 12.8803 117.571 12.8771C117.563 12.8738 117.554 12.8724 117.546 12.8729L106.13 12.8753Z" fill="white"/>
<path d="M133.554 18.8431C132.199 17.7348 130.101 17.5259 129.6 16.4056C129.567 16.2745 129.561 16.1379 129.583 16.0045C129.671 15.4586 130.544 15.321 131.444 15.3827C132.221 15.3927 132.981 15.6046 133.651 15.9974L134.484 16.8708C134.498 16.8856 134.516 16.8961 134.536 16.9013C134.556 16.9064 134.577 16.9061 134.597 16.9002C134.616 16.8943 134.634 16.8831 134.647 16.8679C134.661 16.8527 134.67 16.834 134.674 16.8139L135.173 13.2253C135.176 13.1894 135.167 13.1534 135.146 13.1241C135.125 13.0948 135.094 13.0742 135.059 13.0662C133.782 12.7644 132.476 12.6052 131.164 12.5916C128.707 12.5916 126.068 13.3392 125.335 16.1137C124.957 17.5378 125.66 19.0995 127.108 19.8613C127.681 20.1476 128.236 20.4695 128.769 20.825C129.336 21.3756 129.514 21.6106 129.481 22.0544C129.455 22.4389 128.826 23.2126 127.065 23.0037C126.437 22.969 125.837 22.7354 125.351 22.3368L124.528 21.5892C124.502 21.5683 124.471 21.5541 124.439 21.548C124.406 21.5418 124.373 21.5439 124.341 21.5541C124.31 21.5642 124.281 21.582 124.258 21.606C124.235 21.63 124.218 21.6593 124.21 21.6912L123.678 25.2822C123.676 25.3187 123.686 25.355 123.707 25.3848C123.728 25.4146 123.759 25.4362 123.794 25.446C125.036 25.7622 126.311 25.9327 127.592 25.9539C129.574 25.9539 134.411 25.4792 134.698 21.5536C134.744 21.0427 134.664 20.5282 134.464 20.0556C134.265 19.583 133.952 19.1666 133.554 18.8431Z" fill="white"/>
</svg>
