<svg width="56" height="38" viewBox="0 0 56 38" fill="none" xmlns="http://www.w3.org/2000/svg">
<g clip-path="url(#clip0_11645_516)">
<rect width="56" height="38" fill="white"/>
<path d="M0 -0.726562V39.2734H56V-0.726562H0ZM35.6303 18.4359C35.2032 18.9583 34.419 19.3019 33.8151 19.5861C32.0372 20.4229 30.0963 20.245 28.1681 20.245C26.5105 20.245 24.796 20.3983 23.1933 19.9546C21.5909 19.511 20.2103 18.3425 19.0252 17.2299L8.53782 6.04061C10.5624 6.04061 12.9064 5.72742 14.7899 6.58781C16.4018 7.32409 17.7146 8.55344 18.958 9.7927C19.9504 10.7818 20.9716 11.7652 21.916 12.8078C23.4301 14.4793 25.003 16.1667 26.958 17.3304C27.8914 17.886 29.0422 18.2647 30.1176 18.3689C31.0389 18.4582 32.0149 18.3689 32.9412 18.3689H34.6891C34.9972 18.3689 35.3503 18.3185 35.6303 18.4359ZM47.5966 6.04061L36.8403 17.4644L31.395 17.4979C30.7138 17.4979 29.9434 17.5623 29.3109 17.2969C29.641 16.8334 30.4016 16.5012 30.8571 16.1355C31.8212 15.3615 32.6892 14.4361 33.5462 13.5448C35.0603 11.9702 36.4893 10.3198 38.1176 8.85468C39.3318 7.76221 40.6627 6.66835 42.2857 6.26392C43.9772 5.84249 45.8564 6.04061 47.5966 6.04061ZM46.9244 23.4052C47.3974 23.3332 47.9242 23.394 48.4034 23.394C49.7915 23.394 51.6052 23.3016 52.549 24.5331C53.1269 25.287 53.2227 26.1749 53.3109 27.0791C53.3919 27.9094 53.3919 28.728 53.3109 29.5582C53.211 30.583 53.11 31.6811 52.3025 32.4393C51.7562 32.9522 50.8805 33.1726 50.1513 33.2433C49.1512 33.3402 48.1252 33.3401 47.1261 33.2433C46.0374 33.1378 45.0189 33.0499 44.2353 32.1713C43.7952 31.6778 43.6715 30.9881 43.5406 30.3622C43.4073 29.7246 43.4286 29.0724 43.4286 28.4192C43.4286 27.0596 43.3755 25.3999 44.381 24.3321C45.0271 23.6458 46.0524 23.538 46.9244 23.4052ZM5.84874 27.2801L10.7899 27.2913L10.8235 29.2232H5.78151C5.78151 29.66 5.6443 30.3867 5.93837 30.753C6.25177 31.1435 6.89089 31.0322 7.32773 31.0322H10.958V33.1763H5.5126C4.91591 33.1763 3.96759 33.2416 3.47443 32.832C2.90779 32.3614 3.02521 31.6122 3.02521 30.9652V25.7391C3.02521 25.0675 2.85778 24.1322 3.4958 23.6844C3.97472 23.3482 4.6899 23.461 5.2437 23.461L10.9121 23.4271L10.8795 25.6386L7.12605 25.6721C6.79496 25.6721 6.32629 25.5896 6.05042 25.8173C5.66917 26.1319 5.72592 26.8572 5.84874 27.2801ZM19.9664 30.9652V33.1763H14.3193C13.6463 33.1763 12.6971 33.355 12.2577 32.7073C11.8776 32.1469 12.0336 31.202 12.0336 30.5632L12.062 23.4438L14.8653 23.4773L14.8571 29.0892L14.8775 30.5438C14.8846 31.0577 15.8875 30.9652 16.3361 30.9652H19.9664ZM28.7731 23.461V25.6721L24.2017 25.6944C23.7162 25.8086 23.5966 26.2289 23.5966 26.6771C23.5966 26.8665 23.5663 27.0673 23.7311 27.2019L28.605 27.3025L28.6387 29.2232H23.5966C23.5966 29.6624 23.4681 30.419 23.7983 30.7642C24.1493 31.1313 24.7528 31.0322 25.2101 31.0322H28.8403V33.1763H23.5294C22.9217 33.1763 21.8879 33.2492 21.3608 32.899C20.6916 32.4543 20.8403 31.7218 20.8403 31.0322V25.7391C20.8403 25.0549 20.6715 24.085 21.3782 23.6732C22.0155 23.3018 22.9501 23.461 23.6639 23.461H28.7731ZM32.6723 23.461V33.1763L29.9007 33.1784L29.916 23.461L32.6723 23.461ZM36.5714 23.461L36.5979 27.2427L37.3885 27.2527L39.9328 23.4945L43.1597 23.528L40.6163 26.8111C40.3224 27.2016 39.7718 27.677 39.8095 28.2182C39.8471 28.7579 40.4754 29.2962 40.7955 29.6922L43.6303 33.1763L40.2862 33.1499C39.3018 31.8406 38.2556 30.3562 37.3822 29.2221L36.5714 29.2232L36.5378 33.154L33.8172 33.1611C33.8128 29.9278 33.8152 26.6944 33.8152 23.461L36.5714 23.461ZM47.8656 25.6274C47.4361 25.7285 46.9442 25.8982 46.6779 26.2751C46.4414 26.6099 46.3579 27.0186 46.3194 27.4141C46.2225 28.4068 46.0467 29.9481 46.9244 30.6749C47.4388 31.1008 48.4447 31.1409 49.0756 31.0099C50.2857 30.7587 50.4874 29.6129 50.4874 28.5532C50.4874 27.7777 50.5798 26.5748 49.8824 26.0294C49.6644 25.859 49.402 25.7885 49.1429 25.7168C48.9295 25.6577 48.7622 25.6051 48.5378 25.6051C48.3193 25.6051 48.0794 25.5771 47.8656 25.6274Z" fill="black"/>
</g>
<defs>
<clipPath id="clip0_11645_516">
<rect width="56" height="38" fill="white"/>
</clipPath>
</defs>
</svg>
