<svg width="170" height="40" viewBox="0 0 170 40" fill="none" xmlns="http://www.w3.org/2000/svg">
<g clip-path="url(#clip0_8933_77)">
<mask id="mask0_8933_77" style="mask-type:luminance" maskUnits="userSpaceOnUse" x="44" y="8" width="13" height="3">
<path d="M44.5703 8.04671H56.5215V10.4727H44.5703V8.04671Z" fill="white"/>
</mask>
<g mask="url(#mask0_8933_77)">
<path d="M40.5312 14.5137H60.5646V4.00556H40.5312V14.5137Z" fill="black"/>
</g>
<mask id="mask1_8933_77" style="mask-type:luminance" maskUnits="userSpaceOnUse" x="2" y="6" width="32" height="26">
<path d="M18.8296 11.2607H10.0838V17.3722H18.8296C21.2205 17.3722 22.8776 17.1471 23.8065 16.7101C24.735 16.2729 25.2032 15.4659 25.2032 14.2688C25.2032 13.2676 24.9588 12.5722 24.4568 12.2151C23.5618 11.5839 21.6757 11.2607 18.8324 11.2607H18.8296ZM10.0655 31.0797H2.94531V6.9468H20.4738C24.5219 6.9468 27.5315 7.5132 29.4826 8.66143C31.4337 9.80999 32.4093 11.6695 32.4093 14.2375C32.4093 15.9834 31.8552 17.4215 30.7521 18.5697C29.566 19.7981 27.8412 20.6075 25.5805 20.9956L33.9547 31.0977H25.9865L18.4578 21.6576H10.0838L10.068 31.0822L10.0655 31.0797Z" fill="white"/>
</mask>
<g mask="url(#mask1_8933_77)">
<mask id="mask2_8933_77" style="mask-type:luminance" maskUnits="userSpaceOnUse" x="2" y="6" width="168" height="27">
<path d="M2.94531 32.0059H169.438V6.14291H2.94531V32.0059Z" fill="white"/>
</mask>
<g mask="url(#mask2_8933_77)">
<path d="M2.94531 32.0059H37.9958V2.91003H2.94531V32.0059Z" fill="black"/>
</g>
</g>
<mask id="mask3_8933_77" style="mask-type:luminance" maskUnits="userSpaceOnUse" x="33" y="6" width="35" height="26">
<path d="M41.1375 19.0033C41.1375 24.6621 44.21 27.5069 50.3571 27.5069C56.5201 27.5069 59.6077 24.7113 59.6077 19.1172C59.6077 13.492 56.5173 10.696 50.3571 10.696C47.2667 10.696 44.9437 11.4411 43.3645 12.9101C41.8841 14.3169 41.1375 16.3522 41.1375 19.0033ZM50.3076 6.50904C55.5262 6.50904 59.5118 7.33399 62.2588 8.96594C65.7057 10.9858 67.4304 14.3482 67.4304 19.068C67.4304 27.44 61.7568 31.627 50.4067 31.627C44.6027 31.627 40.3103 30.5769 37.5295 28.4926C34.7639 26.408 33.3672 23.2398 33.3672 19.0033C33.3827 10.678 39.0096 6.50904 50.3104 6.50904H50.3076Z" fill="white"/>
</mask>
<g mask="url(#mask3_8933_77)">
<mask id="mask4_8933_77" style="mask-type:luminance" maskUnits="userSpaceOnUse" x="2" y="6" width="168" height="27">
<path d="M2.94531 32.0059H169.438V6.14291H2.94531V32.0059Z" fill="white"/>
</mask>
<g mask="url(#mask4_8933_77)">
<path d="M29.3281 32.0059H71.4735V2.47433H29.3281V32.0059Z" fill="black"/>
</g>
</g>
<mask id="mask5_8933_77" style="mask-type:luminance" maskUnits="userSpaceOnUse" x="68" y="6" width="33" height="26">
<path d="M92.9414 26.7304V21.0896H83.4459V16.8221H100.24V31.127H84.9078C74.1924 31.127 68.8281 27.2475 68.8281 19.5041C68.8281 15.0273 70.259 11.7765 73.1206 9.74075C75.7375 7.89955 79.6554 6.9916 84.9078 6.9916H100.24V11.1943H84.9078C82.3374 11.1943 80.4201 11.7272 79.1689 12.8108C77.6418 14.0884 76.8772 16.2378 76.8772 19.261C76.8772 21.7491 77.4467 23.5777 78.5681 24.7723C79.8376 26.0993 81.95 26.7613 84.9255 26.7613H92.9414V26.7279V26.7304Z" fill="white"/>
</mask>
<g mask="url(#mask5_8933_77)">
<mask id="mask6_8933_77" style="mask-type:luminance" maskUnits="userSpaceOnUse" x="2" y="6" width="168" height="27">
<path d="M2.94531 32.0059H169.438V6.14291H2.94531V32.0059Z" fill="white"/>
</mask>
<g mask="url(#mask6_8933_77)">
<path d="M64.7891 32.0059H104.284V2.95522H64.7891V32.0059Z" fill="black"/>
</g>
</g>
<mask id="mask7_8933_77" style="mask-type:luminance" maskUnits="userSpaceOnUse" x="103" y="6" width="30" height="26">
<path d="M103.166 21.6231V6.99505H110.321V21.4937C110.321 23.5316 110.727 24.9697 111.541 25.8259C112.662 26.9586 114.827 27.5405 117.995 27.5405C120.695 27.5405 122.597 27.1525 123.669 26.361C124.936 25.4713 125.555 23.8394 125.555 21.4962V6.99756H132.644V21.6256C132.644 24.9877 131.783 27.3463 130.042 28.738C127.88 30.499 123.864 31.3887 117.977 31.3887C112.204 31.3887 108.221 30.5483 106.026 28.8362C104.124 27.4136 103.164 25.006 103.164 21.6256L103.166 21.6231Z" fill="white"/>
</mask>
<g mask="url(#mask7_8933_77)">
<mask id="mask8_8933_77" style="mask-type:luminance" maskUnits="userSpaceOnUse" x="2" y="6" width="168" height="27">
<path d="M2.94531 32.0059H169.438V6.14291H2.94531V32.0059Z" fill="white"/>
</mask>
<g mask="url(#mask8_8933_77)">
<path d="M99.125 32.0059H136.687V2.95804H99.125V32.0059Z" fill="black"/>
</g>
</g>
<mask id="mask9_8933_77" style="mask-type:luminance" maskUnits="userSpaceOnUse" x="134" y="6" width="29" height="26">
<path d="M162.059 6.99263V11.1954H150.337C145.313 11.1954 142.632 13.0703 142.288 16.8358H162.059V21.0386H142.304C142.304 23.157 142.939 24.6749 144.221 25.58C145.503 26.4855 147.538 26.9379 150.334 26.9379H162.056V31.1406H150.025C139.439 31.1406 134.141 27.2612 134.141 19.5177C134.141 15.5402 135.262 12.5195 137.522 10.4815C140.139 8.15379 144.367 6.9898 150.22 6.9898H162.056L162.059 6.99263Z" fill="white"/>
</mask>
<g mask="url(#mask9_8933_77)">
<mask id="mask10_8933_77" style="mask-type:luminance" maskUnits="userSpaceOnUse" x="2" y="6" width="168" height="27">
<path d="M2.94531 32.0059H169.438V6.14291H2.94531V32.0059Z" fill="white"/>
</mask>
<g mask="url(#mask10_8933_77)">
<path d="M130.102 32.0059H166.103V2.95522H130.102V32.0059Z" fill="black"/>
</g>
</g>
<mask id="mask11_8933_77" style="mask-type:luminance" maskUnits="userSpaceOnUse" x="164" y="6" width="6" height="6">
<path d="M166.92 8.93611C167.261 8.93611 167.651 8.95155 167.651 8.49887C167.651 8.12628 167.359 8.07738 167.081 8.07738H166.512V8.93328H166.917L166.92 8.93611ZM166.514 10.3921H166.155V7.79006H167.165C167.75 7.79006 168.01 8.04893 168.01 8.51681C168.01 8.98501 167.7 9.17923 167.409 9.24356L168.14 10.4076H167.734L167.019 9.24356H166.514V10.3921ZM168.824 9.0807C168.824 8.01264 168.028 7.17226 166.972 7.17226C165.916 7.17226 165.12 8.01264 165.12 9.0807C165.12 10.1491 165.916 10.9714 166.972 10.9714C168.028 10.9714 168.824 10.1307 168.824 9.0807ZM169.18 9.0807C169.18 10.2937 168.19 11.2793 166.969 11.2793C165.749 11.2793 164.758 10.2937 164.758 9.0807C164.758 7.86773 165.749 6.88243 166.969 6.88243C168.19 6.88243 169.18 7.86773 169.18 9.0807Z" fill="white"/>
</mask>
<g mask="url(#mask11_8933_77)">
<mask id="mask12_8933_77" style="mask-type:luminance" maskUnits="userSpaceOnUse" x="2" y="6" width="168" height="27">
<path d="M2.94531 32.0059H169.438V6.14291H2.94531V32.0059Z" fill="white"/>
</mask>
<g mask="url(#mask12_8933_77)">
<path d="M160.719 15.3203H173.223V2.84128H160.719V15.3203Z" fill="black"/>
</g>
</g>
</g>
<defs>
<clipPath id="clip0_8933_77">
<rect width="169.302" height="40" fill="white"/>
</clipPath>
</defs>
</svg>
