<svg width="118" height="40" viewBox="0 0 118 40" fill="none" xmlns="http://www.w3.org/2000/svg">
<path d="M88.0426 4.52599L87.962 4.44531H87.8479H2.01752H1.74219V4.72102V15.7921V15.9064L1.8229 15.9871L6.25778 20.4246L6.33841 20.5052H6.45239H8.4169V27.0873V27.2016L8.49761 27.2824L12.4845 31.2716L12.5651 31.3522H12.6791H21.2801H21.5554V31.0765V29.7833H40.0262L45.4557 35.1719L45.5361 35.2517H45.6496H93.4028H93.5662L93.6446 35.1079L96.5677 29.7386H115.98H116.256V29.4629V18.1895C116.972 17.7346 117.505 16.979 117.598 16.0437L117.6 16.03V16.0162C117.6 15.2873 117.403 14.64 116.909 14.0467L116.9 14.0371L116.892 14.0283L111.977 9.11111C111.74 8.80252 111.401 8.56936 111.046 8.41304C110.685 8.25368 110.289 8.16554 109.933 8.16548L109.926 8.16562C108.867 8.19026 108.202 8.68844 107.808 9.18253C107.613 9.42679 107.486 9.66863 107.407 9.84956C107.389 9.88873 107.374 9.92522 107.362 9.95843H93.472L88.0426 4.52599Z" fill="black" stroke="white" stroke-width="0.298067"/>
<path d="M13.1275 25.339H15.5465V11.5787H74.4989V9.20312H4.92969V11.5787H13.1275V25.339Z" fill="white"/>
<path d="M19.9424 20.2727H24.1981V18.1212H19.9424V17.0903H26.662V14.6699H17.5234V23.7689H26.7964V21.3484H19.9424V20.2727Z" fill="white"/>
<path d="M49.8557 23.7689V14.6699H47.4367V18.0764H42.5538V14.6699H40.1797V23.7689H42.5538V20.2727H47.4367V23.7689H49.8557Z" fill="white"/>
<path d="M59.0904 23.7689H62.4054V14.6699H59.9863V21.1242L54.9244 14.6699H51.6094V23.7689H54.0284V17.3592L59.0904 23.7689Z" fill="white"/>
<path d="M36.0187 20.3174V20.6313C36.0187 20.9899 35.7051 21.3035 35.3467 21.3035H31.1358C30.7774 21.3035 30.4638 20.9899 30.4638 20.6313V17.7626C30.4638 17.4041 30.7774 17.0903 31.1358 17.0903H35.3018C35.6602 17.0903 35.9738 17.4041 35.9738 17.7626V18.0764H38.3928V17.4041C38.3928 15.9249 37.1834 14.6699 35.6602 14.6699H30.7326C29.2544 14.6699 28 15.8801 28 17.4041V21.0346C28 22.5138 29.2096 23.7689 30.7326 23.7689H35.6602C37.1386 23.7689 38.3928 22.5586 38.3928 21.0346V20.3174H36.0187Z" fill="white"/>
<path d="M79.249 23.7714H87.5364V17.093H82.743V19.5133H85.1174V21.3512H79.4282C79.0249 21.3512 78.7114 20.9926 78.7114 20.4994V14.7622C78.7114 14.314 79.0249 13.9106 79.4729 13.9106H87.0883V11.4902H79.2937C77.681 11.4902 76.3371 13.0142 76.3371 14.8519V20.365C76.2924 22.2476 77.5915 23.7714 79.249 23.7714Z" fill="white"/>
<path d="M101.817 23.7689V18.2109L104.505 23.7689H106.655L109.343 18.2109V23.7689H111.762V14.6699H108.358L105.58 20.3174L102.803 14.6699H99.3984V23.7689H101.817Z" fill="white"/>
<path d="M47.4375 26.8616V29.3268H90.308L98.1026 14.6699H95.37L93.1302 18.8384L90.8905 14.6699H88.1577L91.7863 21.3035L88.7402 26.8616H47.4375Z" fill="white"/>
<path d="M109.483 10.4583H110.021C110.29 10.4583 110.334 10.5031 110.334 10.7721C110.334 11.041 110.245 11.1306 109.976 11.1306H109.483V10.4583ZM109.483 11.4444H110.066C110.245 11.4444 110.29 11.5788 110.29 11.7133V12.0719H110.648V11.7133C110.648 11.4444 110.603 11.3099 110.334 11.2651C110.648 11.2203 110.693 10.9962 110.693 10.7272C110.693 10.279 110.514 10.1445 110.111 10.1445H109.125V12.0719H109.483V11.4444Z" fill="white"/>
<path d="M72.0832 20.676C72.0832 20.7657 72.0833 20.8553 72.0385 20.945C71.9488 21.1692 71.6801 21.3484 71.4114 21.3484H69.1714H67.2003C66.8421 21.3484 66.5285 21.0346 66.5285 20.676V18.7936V17.7626C66.5285 17.5834 66.6181 17.4041 66.7076 17.2696C66.8421 17.1351 67.0213 17.0903 67.2003 17.0903H71.4114C71.7696 17.0903 72.0832 17.4041 72.0832 17.7626V20.676ZM74.5023 17.4041C74.5023 16.6869 74.2335 16.0594 73.7855 15.5664C73.2928 15.0285 72.5759 14.6699 71.7696 14.6699H66.8421C66.1701 14.6699 65.543 14.9389 65.0502 15.3423C64.4678 15.8353 64.1094 16.5525 64.1094 17.3592V21.0346C64.1094 21.707 64.3783 22.2896 64.7813 22.7828C65.2741 23.3654 66.0358 23.7689 66.8421 23.7689H71.7696C72.5759 23.7689 73.2479 23.4103 73.7855 22.8724C74.2335 22.3793 74.5023 21.7518 74.5023 21.0346V17.4041Z" fill="white"/>
<path d="M109.905 12.89C110.889 12.89 111.686 12.0918 111.686 11.1071C111.686 10.1224 110.889 9.32422 109.905 9.32422C108.922 9.32422 108.125 10.1224 108.125 11.1071C108.125 12.0918 108.922 12.89 109.905 12.89Z" stroke="white" stroke-width="0.0851621"/>
</svg>
