<svg width="49" height="49" viewBox="0 0 49 49" fill="none" xmlns="http://www.w3.org/2000/svg">
<g clip-path="url(#clip0_3306_6594)">
<path d="M24.144 49C37.4784 49 48.2881 38.1903 48.2881 24.856C48.2881 11.5216 37.4784 0.711914 24.144 0.711914C10.8097 0.711914 0 11.5216 0 24.856C0 38.1903 10.8097 49 24.144 49Z" fill="#3B5998"/>
<path d="M30.2134 25.8017H25.9051V41.585H19.3778V25.8017H16.2734V20.2548H19.3778V16.6654C19.3778 14.0985 20.5971 10.0791 25.9632 10.0791L30.7983 10.0993V15.4835H27.2901C26.7147 15.4835 25.9056 15.771 25.9056 16.9955V20.26H30.7836L30.2134 25.8017Z" fill="white"/>
</g>
<defs>
<clipPath id="clip0_3306_6594">
<rect width="48.2881" height="48.2881" fill="white" transform="translate(0 0.711914)"/>
</clipPath>
</defs>
</svg>
