<svg width="31" height="42" viewBox="0 0 31 42" fill="none" xmlns="http://www.w3.org/2000/svg">
<g clip-path="url(#clip0_3306_4201)">
<path d="M2.56552 0.0039229L24.038 0L24.495 0.205734L30.8877 6.42219L31 6.86883L30.9989 39.4548C30.8621 40.9897 29.7098 41.8832 28.1772 42H2.82235C1.34979 41.8878 0.170754 41.023 0 39.548L0.00344383 2.3376C0.201257 1.04413 1.24309 0.156718 2.56552 0.0039229ZM23.3433 1.27382H2.44317C2.09886 1.27382 1.47313 1.84985 1.38816 2.19659V39.7782C1.61013 40.3346 2.09791 40.6893 2.72624 40.7047H28.2733C28.7221 40.8144 29.6563 40.1006 29.6563 39.7292V7.38225H25.4955C24.6978 7.38225 23.3433 5.96987 23.3433 5.20727V1.27382ZM28.6998 6.17907L24.6824 2.29189V5.11472C24.6824 5.53544 25.5602 6.17907 25.9737 6.17907H28.6998Z" fill="#4AB04A"/>
<path d="M20.283 10.4388H23.583C23.6885 10.4388 23.8901 10.8175 23.9123 10.9532C23.9948 11.4569 23.9664 12.899 23.8931 13.4228C23.7633 14.3493 23.1656 14.9759 22.5856 15.6553C23.9796 16.758 24.075 18.4879 23.9224 20.1149C23.8976 20.3798 23.8688 20.5907 23.6311 20.7586C21.7242 20.7208 19.5381 20.9665 17.6485 20.8084C17.5027 20.7962 17.3135 20.7962 17.1901 20.7195C17.1492 20.6941 16.9352 20.3201 16.9352 20.2956V18.0281H7.60903C7.56604 18.0281 7.21082 17.7732 7.17194 17.7106L7.07812 7.42623L7.26982 7.0564L13.2453 3.21305C13.5052 3.07446 13.8628 3.07517 14.1206 3.21305C15.8366 4.57428 18.2734 5.58313 19.9336 6.93599C20.0292 7.01385 20.283 7.23864 20.283 7.33834V10.4388ZM18.9439 10.4388V7.89365L13.7164 4.53495L8.42207 7.89365V16.7324H17.3656L18.3698 15.5765C17.5946 15.0688 17.0734 14.1346 16.9619 13.2358C16.9063 12.7885 16.7587 10.4388 17.3656 10.4388L18.9439 10.4388ZM18.2743 11.642V13.2617C18.2743 13.7186 18.9512 14.486 19.3544 14.7155C20.4141 15.3186 22.0427 14.8443 22.4628 13.7049C22.6529 13.1895 22.8121 12.1049 22.5308 11.642H18.2743ZM18.2743 19.6015H22.5308C22.8001 19.1717 22.645 17.9374 22.4361 17.4719C21.9439 16.3747 20.4203 15.9424 19.3542 16.5278C18.953 16.748 18.2743 17.533 18.2743 17.9818L18.2743 19.6015Z" fill="#4AB04A"/>
<path d="M6.00754 23.4126L24.8328 23.3906C25.7098 23.4283 25.7057 24.6553 24.8328 24.6906H6.17616C5.39244 24.7023 5.28787 23.5659 6.00754 23.4126Z" fill="#4AB04A"/>
<path d="M25.3271 27.4022C25.6593 27.7511 25.4666 28.4713 24.9266 28.4944H6.07334C5.14066 28.2675 5.43695 27.1403 6.3603 27.189H24.6396C24.8171 27.1877 25.2179 27.2875 25.3271 27.4022Z" fill="#4AB04A"/>
<path d="M19.3267 37.6449L20.5694 35.9333C22.0795 34.6126 22.5894 36.5287 22.9617 37.6451C23.0742 37.7262 23.9188 36.5982 24.1328 36.5128C24.8558 36.2242 25.4491 36.7919 25.0123 37.4562C24.8302 37.7331 23.5503 38.9131 23.2506 38.9897C22.0669 39.2923 21.7081 37.9841 21.3813 37.1816C21.1747 37.1856 20.6724 38.1116 20.4707 38.3367C19.973 38.892 19.269 39.3725 18.5579 38.8048C17.6559 38.0847 18.1654 36.5031 17.7917 35.5197C17.7163 35.507 17.6378 35.5068 17.5618 35.5193C16.7845 35.6468 15.2394 38.3469 14.5937 38.943C13.797 39.3443 13.2348 38.7876 13.6998 37.986C14.0864 37.3193 15.9162 34.9967 16.52 34.6066C18.8919 33.0743 19.4633 35.9544 19.3267 37.6449Z" fill="#4AB04A"/>
<path d="M5.91128 31.0945L24.9309 31.0703C25.6799 31.1634 25.6799 32.1898 24.9309 32.2829H6.07766C5.40511 32.1988 5.31944 31.372 5.91128 31.0945Z" fill="#4AB04A"/>
<path d="M14.3684 8.75097C14.6548 8.95731 16.612 8.92984 16.1177 9.96969C15.774 10.6925 14.7187 10.0581 14.0838 9.99807C13.599 9.95221 12.6664 9.94074 12.532 10.526C13.4101 10.9466 14.3818 10.7032 15.261 11.1721C16.6034 11.8879 16.4169 13.2618 15.1141 13.9052C14.9276 13.9973 14.5328 14.0399 14.4113 14.1289C14.2025 14.282 14.349 14.9482 13.4439 14.7842C13.0079 14.7053 13.0835 14.232 12.9922 14.1538C12.7827 13.9746 11.3065 14.0246 11.1916 13.3452C10.9664 12.0133 12.7305 12.8743 13.3563 12.9223C13.8215 12.958 14.6426 12.9278 14.8273 12.4261C14.2343 11.9523 13.457 12.1596 12.7212 11.9636C11.0697 11.5237 10.5354 9.84203 12.1798 9.02986C12.3864 8.92781 12.8253 8.86702 12.9477 8.7768C13.1176 8.65161 13.0426 8.02188 13.7126 8.05602C14.3354 8.08776 14.2331 8.65355 14.3684 8.75097Z" fill="#4AB04A"/>
</g>
<defs>
<clipPath id="clip0_3306_4201">
<rect width="31" height="42" fill="white"/>
</clipPath>
</defs>
</svg>
