<svg width="34" height="42" viewBox="0 0 34 42" fill="none" xmlns="http://www.w3.org/2000/svg">
<g clip-path="url(#clip0_3306_4237)">
<path d="M18.0752 0C18.7072 0.129291 19.3547 0.210373 19.9689 0.39664C24.6035 1.80679 27.3655 4.87363 28.2004 9.60044C28.3179 10.2688 28.3101 10.9602 28.3412 11.6417C28.3511 11.8641 28.3833 11.9956 28.6317 12.0975C29.8047 12.5807 30.4312 13.4606 30.4478 14.7283C30.46 15.6717 30.4678 16.615 30.4423 17.5573C30.4112 18.7374 29.8158 19.5822 28.7359 20.05C28.401 20.1947 28.329 20.3601 28.3412 20.6801C28.3811 21.7232 28.1383 22.6939 27.4397 23.5026C26.3731 24.7363 25.0149 25.1636 23.4183 24.8174C23.1566 24.7604 22.9981 24.7823 22.8085 24.985C22.6011 25.2064 22.7087 25.3707 22.7952 25.569C23.1333 26.3448 23.456 27.1282 23.8119 27.8974C23.8962 28.0803 24.068 28.237 24.2299 28.3696C24.3984 28.5066 24.6113 28.5898 24.7931 28.7137C26.25 29.7129 27.84 30.3342 29.5918 30.6936C32.2817 31.2447 33.998 33.4788 34.0003 36.1939C34.0003 36.8327 34.028 37.4956 33.8772 38.107C33.5423 39.4657 32.6232 40.3214 31.2505 40.6742C29.2005 41.2023 27.1093 41.4741 25.0038 41.6713C21.5833 41.9912 18.155 42.0405 14.7256 41.9759C11.0479 41.9058 7.38124 41.6779 3.77003 40.9186C3.33872 40.8276 2.90852 40.7268 2.4872 40.5975C1.0059 40.1417 -0.018593 38.8083 0.000255825 37.2776C0.0113434 36.3824 -0.00196167 35.4522 0.231986 34.6008C0.838475 32.4018 2.38519 31.1099 4.61822 30.6059C5.15597 30.4843 5.70259 30.3977 6.23368 30.2531C6.60068 30.1534 6.96768 30.0175 7.29809 29.8335C8.13963 29.3634 8.96566 28.866 9.78613 28.3597C9.94801 28.2589 10.0988 28.0891 10.1775 27.9171C10.5423 27.1227 10.8694 26.3119 11.232 25.5164C11.3373 25.2852 11.324 25.1351 11.1455 24.9445C10.6465 24.4142 10.1786 23.8554 9.68635 23.3185C8.97674 22.5427 8.54322 21.653 8.49998 20.5957C8.49554 20.5004 8.48335 20.405 8.47004 20.3108C8.46671 20.2867 8.44454 20.2659 8.44343 20.2637C7.60521 20.2637 6.77586 20.3261 5.95871 20.2495C4.62377 20.1256 3.58375 18.9664 3.55382 17.6395C3.53053 16.6282 3.52388 15.6158 3.55382 14.6056C3.58819 13.4441 4.18137 12.6092 5.25021 12.1523C5.58839 12.0077 5.65602 11.8389 5.65269 11.519C5.62497 8.66581 6.48204 6.10957 8.37247 3.93572C10.2873 1.73009 12.7188 0.440467 15.6448 0.0788897C15.7379 0.0679328 15.8266 0.0273923 15.9176 0C16.6371 0 17.3556 0 18.0752 0ZM16.9986 33.7779C16.8811 33.8722 16.7724 33.9532 16.6704 34.042C15.9686 34.6567 15.4375 35.3974 15.0073 36.218C14.6425 36.9127 14.0338 37.1187 13.302 36.824C13.0725 36.7319 12.8441 36.6333 12.6212 36.5259C10.3682 35.4324 8.55542 33.8141 7.01757 31.8802C6.83463 31.6501 6.67053 31.5909 6.39778 31.6589C5.79683 31.809 5.18258 31.912 4.58496 32.0752C3.05488 32.4949 1.99602 33.4569 1.60573 34.9722C1.40616 35.7491 1.41503 36.5971 1.44829 37.408C1.48931 38.4007 2.12131 39.0471 3.1081 39.2991C6.3501 40.1297 9.66639 40.3806 12.9938 40.5099C17.4731 40.6841 21.9503 40.6326 26.4064 40.0946C27.9498 39.9083 29.4821 39.5993 31 39.2652C31.9014 39.0668 32.4413 38.4182 32.5356 37.4923C32.5877 36.9784 32.5888 36.4536 32.5533 35.9386C32.4081 33.8919 31.1519 32.4576 29.1306 31.9996C28.6195 31.8835 28.105 31.786 27.5972 31.6589C27.3267 31.5909 27.1614 31.6435 26.9774 31.8747C25.3087 33.9576 23.3484 35.6932 20.8471 36.756C19.8991 37.1592 19.3758 36.962 18.8901 36.0438C18.4233 35.1629 17.8091 34.4036 16.9986 33.7779ZM20.6442 22.6238C21.2329 22.7783 21.8039 22.9306 22.3783 23.073C22.4581 23.0928 22.5867 23.0895 22.6333 23.0413C23.3806 22.2502 24.1024 21.4722 24.0769 20.2538C24.0303 18.069 24.0647 15.882 24.0636 13.6961C24.0636 13.5657 24.0503 13.4343 24.0503 13.4178C22.6155 13.1757 21.2296 13.0124 19.8802 12.698C18.073 12.2761 16.462 11.4675 15.2723 9.98283C15.1946 9.88641 14.9795 9.83601 14.8421 9.85573C12.8951 10.134 11.2996 11.0237 10.1066 12.5807C10.0079 12.71 9.94025 12.8985 9.94025 13.0606C9.93027 15.5336 9.9336 18.0066 9.93582 20.4795C9.93582 21.1052 10.1487 21.664 10.5567 22.1329C11.5391 23.2615 12.5314 24.3824 13.5315 25.4956C14.1912 26.2297 15.0261 26.5935 16.0251 26.5847C16.7436 26.5782 17.4632 26.5913 18.1816 26.5782C19.3935 26.5562 20.9724 25.4441 21.4292 24.2991C21.1487 24.2257 20.8637 24.1676 20.591 24.0756C20.3748 24.0022 20.2561 24.0219 20.1297 24.2421C19.7904 24.8327 19.2738 25.0661 18.5919 24.9291C17.849 24.7801 17.1084 24.6147 16.381 24.4076C15.2734 24.0909 14.6547 22.9668 14.9385 21.8568C15.208 20.8028 16.2757 20.1289 17.3878 20.3382C17.9832 20.45 18.5697 20.6077 19.1596 20.7458C20.3559 21.0263 20.6508 21.389 20.6497 22.6249L20.6442 22.6238ZM24.0569 11.8839C24.1811 9.0241 23.1466 6.7615 20.714 5.27465C18.3723 3.84368 15.9431 3.77356 13.5692 5.27575C11.7941 6.39883 9.97241 9.17531 10.1587 10.4375C10.2418 10.3729 10.3161 10.3159 10.3893 10.2557C11.8207 9.08108 13.4761 8.48502 15.3244 8.38422C15.6914 8.3645 16.0207 8.42367 16.2125 8.77429C16.595 9.47005 17.1826 9.95873 17.8512 10.3598C19.7417 11.496 21.8494 11.7699 24.0569 11.8828V11.8839ZM25.5338 11.9474C26.0006 11.9189 26.4341 11.8937 26.8621 11.8674C27.1493 8.30095 25.3287 4.56465 21.7685 2.62308C18.2249 0.691381 13.9151 1.05077 10.7718 3.59606C8.14074 5.72717 6.96546 8.5179 7.10738 11.8696C7.5908 11.897 8.01323 11.9211 8.46561 11.9474C8.4778 11.8028 8.49554 11.657 8.5022 11.5102C8.55652 10.1527 8.91133 8.8718 9.53556 7.66545C11.1821 4.48137 14.6569 2.17166 18.6506 2.94412C22.2907 3.64755 25.2511 6.88641 25.4617 10.534C25.4894 11.0073 25.5094 11.4806 25.5327 11.9474H25.5338ZM12.3984 26.3985C12.1023 27.0822 11.8407 27.7122 11.5535 28.3313C11.4526 28.5493 11.4825 28.695 11.6289 28.8758C12.9694 30.5336 14.6791 31.6161 16.7624 32.1224C16.8921 32.1541 17.0429 32.1684 17.1704 32.1377C19.3137 31.6271 21.0722 30.5194 22.4204 28.7904C22.4781 28.7169 22.5291 28.5811 22.4991 28.5088C22.2131 27.8141 21.9082 27.126 21.5911 26.3941C20.8937 27.1457 20.1175 27.7473 19.1706 27.8404C17.8191 27.9719 16.4431 27.985 15.0871 27.8974C14.026 27.8283 13.1623 27.2049 12.3973 26.3996L12.3984 26.3985ZM8.48335 16.0902C8.48335 15.4218 8.49222 14.7535 8.48002 14.0851C8.47115 13.5581 8.22057 13.3126 7.68726 13.2984C7.25928 13.2863 6.8313 13.2831 6.40332 13.2984C5.58949 13.328 4.98522 13.8802 4.96637 14.6472C4.94309 15.6158 4.94198 16.5844 4.96637 17.553C4.98522 18.2991 5.5773 18.8535 6.32903 18.8733C6.77032 18.8853 7.21271 18.8809 7.654 18.8766C8.24275 18.8711 8.47337 18.6465 8.48113 18.0537C8.48889 17.3985 8.48335 16.7443 8.48113 16.0891L8.48335 16.0902ZM29.033 16.0968C29.033 15.6465 29.0397 15.1961 29.0319 14.7458C29.0186 13.9459 28.4908 13.3652 27.687 13.3072C27.2058 13.2721 26.7202 13.2831 26.2379 13.3028C25.7744 13.3214 25.5194 13.5712 25.5161 14.0281C25.5039 15.4065 25.5039 16.7838 25.5161 18.1622C25.5205 18.6454 25.7788 18.8689 26.2789 18.8776C26.7202 18.8853 27.1626 18.8853 27.6038 18.8776C28.4432 18.8623 29.0175 18.2871 29.0308 17.4478C29.0386 16.9974 29.0319 16.5471 29.0319 16.0968H29.033ZM8.12633 31.0015C9.67082 32.9595 11.5236 34.4485 13.7089 35.4576C14.2855 34.6775 14.8221 33.9489 15.3676 33.2115C13.3863 32.5036 11.7342 31.317 10.417 29.6461C9.65087 30.0997 8.91133 30.538 8.12744 31.0015H8.12633ZM20.2849 35.4609C22.4825 34.4299 24.3363 32.9551 25.862 30.9993C25.0792 30.5347 24.3408 30.0964 23.5768 29.6439C22.2541 31.3291 20.5865 32.5102 18.6307 33.2148C19.1806 33.962 19.7139 34.6863 20.2838 35.4609H20.2849ZM24.1667 23.4686C25.9063 23.6779 27.2391 22.0551 26.8344 20.3404C26.4031 20.3075 25.9706 20.2747 25.5083 20.2396C25.5205 21.4876 25.0714 22.5416 24.1678 23.4686H24.1667ZM19.2139 22.2042C18.471 22.0343 17.7936 21.8579 17.1072 21.7297C16.7037 21.6541 16.401 21.8744 16.3211 22.2173C16.2369 22.5789 16.3999 22.9372 16.7569 23.0347C17.4532 23.2264 18.1606 23.3798 18.8901 23.5551C18.9999 23.0971 19.0997 22.6786 19.2139 22.2031V22.2042Z" fill="#4AB04A"/>
</g>
<defs>
<clipPath id="clip0_3306_4237">
<rect width="34" height="42" fill="white"/>
</clipPath>
</defs>
</svg>
