<svg width="48" height="42" viewBox="0 0 48 42" fill="none" xmlns="http://www.w3.org/2000/svg">
<g clip-path="url(#clip0_3306_4214)">
<path d="M48 36.6704C47.9054 36.7442 47.6438 37.1365 47.5782 37.1365H41.6255V41.4711C41.6255 41.6846 41.0886 42.0724 40.8332 41.9882L7.27039 41.9823C3.36846 41.5803 0.281951 38.3755 0 34.4836V7.5362C0.404645 2.36442 5.44912 -1.17371 10.504 0.361261C10.8715 0.472845 12.4716 1.08959 12.4716 1.48091V8.75185L12.6122 8.89167H16.2213V6.04855C16.2213 5.80167 17.0322 5.32947 17.2872 5.64142C18.3471 6.44954 19.3089 7.89544 20.3441 8.66052C20.4794 8.76056 20.5867 8.87873 20.7732 8.88634L32.866 8.89703L33.1432 8.79984C34.3714 6.73284 35.3418 3.64169 38.4264 5.03494C40.0326 5.76044 41.0001 7.10048 40.4072 8.89104C41.0377 8.83481 41.5415 8.86684 41.6276 9.58869L41.6447 29.7998L48 36.2043V36.6704ZM10.9717 26.4165V2.22664C7.58432 0.353172 3.0803 2.25287 1.87741 5.86084C1.7709 6.18031 1.50372 7.06951 1.50372 7.35359V29.213C3.77155 26.3512 7.45954 25.1911 10.9717 26.4165ZM37.4071 6.18931C36.9061 6.12535 36.4696 6.27075 36.1398 6.65273L26.2281 23.6479C25.9594 23.9245 26.8645 24.3581 26.9941 24.2659L37.4071 6.18931ZM38.627 7.02753L28.2292 25.0665L29.0045 25.4794L29.1465 25.3328C32.4064 19.5264 35.9452 13.8478 39.09 7.99472C39.1807 7.80243 38.8656 6.8534 38.627 7.02753ZM17.7212 8.14594V11.8746C20.039 11.4457 20.0119 13.7673 17.7212 13.3661V15.1372C18.3922 15.1232 19.4173 15.0057 19.4169 15.9296C19.4165 16.9121 18.3976 16.5773 17.7212 16.6287V18.493C20.038 18.0974 20.0331 20.3815 17.7212 19.9845V21.8489C18.3971 21.9001 19.417 21.5657 19.417 22.548C19.4169 23.4549 18.387 23.347 17.7212 23.3403V25.1115C20.038 24.7159 20.0331 26.9999 17.7212 26.6029V28.4673C18.3976 28.5187 19.4165 28.1839 19.4169 29.1664C19.4173 30.0903 18.3922 29.9728 17.7212 29.9588V31.7299C20.0119 31.3287 20.039 33.6503 17.7212 33.2214V35.645H45.3752L32.479 22.7843C32.3204 22.7485 32.1988 23.0504 32.1192 23.1624C31.948 23.4037 30.837 25.2769 30.8893 25.3929L37.0837 31.6313C37.2884 32.429 36.8883 32.6942 36.1454 32.7591C31.498 32.4988 26.4938 33.0921 21.8886 32.7593C21.3519 32.7206 20.7342 32.6335 20.7151 31.9687L20.7915 16.7455C21.1184 16.2164 21.5548 16.2733 22.0269 16.5884L26.2053 20.7298L27.7253 18.0721L17.7212 8.14594ZM16.2213 10.3832H12.4716V27.9546C12.4716 27.9809 12.1437 28.3032 12.0952 28.3253C11.5757 28.562 10.6051 27.8723 10.0116 27.6975C4.43599 26.0552 -0.441969 31.8686 2.23622 37.014C3.02615 38.5316 5.39822 40.4923 7.17514 40.4923H40.1256V37.1365H16.6431C16.6006 37.1365 16.2213 36.6887 16.2213 36.6238V10.3832ZM32.1575 10.3832H22.1271L28.5475 16.7229L32.1575 10.3832ZM40.1256 10.3832L39.4841 10.3982L33.1873 21.3375L40.1256 28.2809V10.3832ZM34.5011 31.2638L30.1366 26.7921C29.884 26.9667 29.7449 27.1502 29.4671 27.3301C28.7188 27.8144 26.1858 29.3725 25.4772 29.6073C24.5727 29.9071 24.3471 29.4007 24.2798 28.6104C24.1998 27.6713 24.1692 24.4233 24.481 23.6769C24.6054 23.379 25.3964 22.2584 25.3822 22.0806L22.2208 18.9591V31.2638H34.5011ZM25.783 27.6283C26.4924 27.3955 27.1046 26.9211 27.7498 26.5563L25.783 25.4843V27.6283Z" fill="#4AB04A"/>
</g>
<defs>
<clipPath id="clip0_3306_4214">
<rect width="48" height="42" fill="white"/>
</clipPath>
</defs>
</svg>
