<svg width="42" height="42" viewBox="0 0 42 42" fill="none" xmlns="http://www.w3.org/2000/svg">
<g clip-path="url(#clip0_3306_4257)">
<path d="M20.0024 41.9968C16.9867 41.78 14.6515 39.7728 11.6617 39.3868C11.0631 39.3095 10.4049 39.39 9.80342 39.1938C8.20249 38.6714 7.92769 36.2356 9.25846 35.248C9.50247 35.0669 9.75602 35.0008 9.97886 34.8204C9.97739 32.7863 9.91195 30.8875 10.3582 28.8932C10.8988 26.4776 12.0953 24.2728 13.7207 22.4214L13.8366 12.2397L13.7671 12.1452C8.03813 10.7804 9.79552 3.517 13.2294 0.639377C13.8045 0.157454 14.6652 -0.412723 14.8248 0.771516C15.0329 2.31604 14.6286 4.30903 14.8282 5.8454C14.886 6.29082 15.4551 6.26734 15.8544 6.29546C16.2623 6.32419 17.6947 6.34922 17.9996 6.21808C18.2628 6.10486 18.2592 5.93771 18.2827 5.68161C18.4251 4.12947 18.0752 2.18964 18.2841 0.687921C18.3556 0.174339 18.7908 0.00476234 19.2607 0.194773C19.3559 0.233277 19.9655 0.735809 20.0856 0.845065C23.4131 3.87129 24.8609 10.9266 19.1766 12.2382L19.1 19.3944L21.2255 18.7319C20.9775 17.7109 22.2464 17.3976 23.0223 17.2079C24.459 16.8568 26.2802 16.9786 27.6087 17.6602C28.152 17.939 28.1521 18.1172 28.1354 18.7318C29.3088 18.9878 30.4083 19.4821 31.4653 20.0357C31.6907 20.1538 32.3342 20.6218 32.4768 20.6634C32.5475 20.684 33.1136 20.466 33.5464 20.5798C33.954 20.6869 35.3786 22.1211 35.72 22.5054C37.2604 24.2396 38.511 26.6076 39.0185 28.8773C39.4634 30.8666 39.37 32.7953 39.3819 34.8203C39.6828 35.0421 40.0413 35.122 40.3266 35.3927C41.1506 36.1743 41.1513 37.4682 40.5539 38.3866C39.7975 39.5495 38.7086 39.2305 37.5342 39.3861C34.592 39.7758 32.4553 41.758 29.3584 41.9968H20.0024ZM19.5099 2.03367V6.08731C19.5099 6.53981 18.8407 7.20711 18.4184 7.37297C17.7439 7.63783 15.4952 7.56418 14.745 7.40245C14.3738 7.32242 13.6009 6.61318 13.6009 6.2511V2.03367C11.4147 4.1358 9.75972 9.25492 13.4381 10.7538C13.891 10.9383 14.955 11.0404 15.0606 11.5097L15.0379 21.1153C15.5332 20.7708 15.7595 20.4825 16.4247 20.5469C16.5809 20.5621 16.7569 20.6959 16.892 20.6656C16.9552 20.6514 17.8036 20.1007 17.8281 20.0504L17.9873 11.5288C18.1303 11.0593 19.1902 10.9531 19.6712 10.7523C22.8373 9.43051 21.8906 5.69823 20.5293 3.35047L19.5099 2.03367ZM26.8963 18.6577C25.4437 18.1061 23.9142 18.1072 22.4645 18.6577V34.7904H26.8963V18.6577ZM21.2334 20.0499C19.8232 20.2928 18.5955 21.0793 17.3761 21.7696V34.7904H21.2334V20.0499ZM33.2157 21.8515V29.2627C33.2157 29.2858 32.9284 29.5692 32.8859 29.5887C32.4593 29.7849 32.0108 29.4582 31.9921 29.0095L31.943 21.7701C30.7829 21.0144 29.5082 20.3009 28.1273 20.0499V34.7904H31.9846V32.2108C31.9846 31.8278 32.498 31.5803 32.8664 31.7404C32.9367 31.7709 33.2157 32.016 33.2157 32.047V34.7904H38.1399C38.1464 32.8125 38.2389 30.9104 37.7709 28.9757C37.1031 26.215 35.444 23.5981 33.2157 21.8515ZM16.1451 34.7904V21.8515C13.5054 23.9393 11.7141 27.1476 11.3134 30.5015C11.1437 31.9218 11.2497 33.3614 11.2209 34.7904H16.1451ZM39.5072 37.7926C40.0712 37.23 39.7489 36.3112 39.0284 36.0739L10.5214 36.0169C9.38392 36.1535 9.31462 37.7865 10.2339 38.0272C10.6859 38.1455 11.5326 38.0869 12.0721 38.1584C15.1103 38.5613 17.1871 40.5752 20.3682 40.7719C22.8795 40.9272 26.4786 40.922 28.9925 40.7719C32.1366 40.5841 34.3186 38.5942 37.4525 38.1581C38.0347 38.0771 39.0984 38.2005 39.5072 37.7926Z" fill="#4AB04A"/>
<path d="M42.0022 11.6972V12.0248C41.5779 12.8211 40.8848 14.7516 39.9024 14.8837C39.207 14.9772 38.2133 14.3438 37.8772 14.4147C37.544 14.4851 36.6836 15.3511 36.1959 15.4024C35.916 16.1607 36.0726 17.3325 35.2665 17.7922C34.7367 18.0942 32.7265 18.087 32.1561 17.8778C30.908 17.4201 31.4416 15.8889 30.9557 15.4723C30.7964 15.3358 30.2078 15.1196 29.9651 14.9867C29.7314 14.8586 29.5579 14.6683 29.3203 14.562C28.2305 14.7811 27.2158 15.6622 26.3416 14.5077C26.1632 14.2721 25.2743 12.7434 25.2166 12.5184C25.0756 11.9688 25.1721 11.5333 25.5453 11.1221C25.7294 10.9193 26.5937 10.313 26.6394 10.167C26.7161 9.92223 26.5653 9.14907 26.5698 8.78637C26.5722 8.59255 26.6792 8.39296 26.6573 8.22146C26.622 7.94527 25.5388 7.28784 25.3067 6.94173C24.8599 6.27549 25.0926 5.80616 25.4099 5.17265C25.6226 4.74789 26.2735 3.58817 26.6275 3.35762C27.5337 2.76731 28.239 3.47274 29.1468 3.65492L30.8486 2.63743C31.1408 1.58976 30.9365 0.228273 32.3587 0.0683218C32.8617 0.0117608 34.2941 0.0120759 34.7649 0.124679C35.927 0.40267 35.6769 1.68729 36.0105 2.56688L37.707 3.48804C38.6398 3.29872 39.6599 2.49014 40.5168 3.31141C40.7224 3.50839 41.6198 5.04982 41.7479 5.35848C42.3002 6.68912 41.1078 7.09196 40.3761 7.90731L40.3736 9.83848C40.8875 10.4886 41.7617 10.8543 42.0022 11.6972ZM39.7762 13.6529L40.7518 11.901C40.4391 11.4242 39.2218 10.7921 39.1349 10.2598C39.0593 9.79739 39.2489 9.16197 39.215 8.62309C39.1927 8.26899 38.9861 7.74444 39.0824 7.43558C39.2218 6.98812 40.5969 6.27818 40.6052 5.92636L39.6215 4.19919C39.4266 4.10092 38.11 4.75174 37.7539 4.80199C37.2704 4.8702 36.685 4.22321 36.2315 3.98415C35.8127 3.76335 35.3214 3.687 34.9414 3.388L34.4573 1.33239H32.3945C32.2125 1.46323 32.1761 3.14547 31.8635 3.50498C31.7218 3.66805 30.9327 3.93465 30.6515 4.09717C30.3007 4.2998 29.7973 4.8071 29.5045 4.91833C28.9641 5.12355 27.9738 4.46762 27.3982 4.35885L27.2727 4.40537L26.318 6.17041L27.7586 7.44325C28.042 7.79208 27.7867 8.7171 27.801 9.2033C27.8119 9.57267 28.0303 10.2515 27.9498 10.5701C27.8581 10.9328 26.7127 11.6901 26.402 11.995L27.3906 13.873C27.5 13.939 28.8849 13.3157 29.1782 13.2724C29.8692 13.1705 30.3131 13.8062 30.919 14.1167C31.176 14.2484 31.9047 14.4445 32.049 14.5862C32.3464 14.8783 32.4235 16.6665 32.5752 16.7638L34.6214 16.739C34.7953 16.6141 34.8708 14.8415 35.186 14.518C35.3373 14.3627 36.1645 14.0613 36.4465 13.8923C36.7263 13.7248 37.2533 13.2229 37.427 13.1516C38.1105 12.8708 39.5114 13.8201 39.7762 13.6529Z" fill="#4AB04A"/>
<path d="M6.87398 3.51089H1.94977V6.74561L3.50911 9.36615V20.1349H5.31465V16.8183C5.31465 16.5853 6.14505 16.1969 6.45425 16.7457C6.72374 17.2241 6.42522 20.0154 6.5453 20.1353C8.62897 19.8436 9.83847 22.7041 8.05021 23.8882C7.82977 24.0341 7.32902 24.1168 7.28322 24.3512L7.28771 36.3938C7.31312 39.9935 2.05041 40.3443 1.61853 36.8028L1.62525 24.2834C-0.875769 23.6408 -0.359346 19.907 2.27845 20.1353L2.28014 9.85541C2.02884 8.90764 0.840821 7.757 0.727854 6.81839C0.503004 4.95019 0.870449 2.68556 0.726176 0.774952C0.782994 0.371878 1.00834 0.117526 1.41444 0.0695649C3.28372 -0.151198 5.57548 0.239369 7.49101 0.0699368C7.81754 0.0705112 7.96318 0.283355 8.06614 0.560651L8.10002 6.98628L6.54939 9.77929L6.50872 13.9971C6.29204 14.565 5.38984 14.484 5.3105 13.8743C5.21433 13.1353 5.20708 10.2505 5.31968 9.53495C5.35098 9.3361 5.53112 9.05182 5.62884 8.86074C5.7866 8.55226 6.87398 6.86891 6.87398 6.74561L6.87398 3.51089ZM6.87398 1.29981H2.07288C1.90515 1.42603 1.92797 1.71498 1.94562 1.91822C1.9522 1.99391 1.93928 2.07243 1.96278 2.14677L2.07288 2.28251H6.87398L6.87398 1.29981ZM1.76214 21.3808C1.0628 21.6494 1.01973 22.7164 1.74645 22.9993L7.07397 22.9959C7.80703 22.8806 7.83172 21.5003 6.99241 21.368L1.76214 21.3808ZM6.05328 24.2295H2.85255V36.8818C2.85255 37.0502 3.24895 37.6025 3.39844 37.7292C4.12786 38.3478 5.10766 38.262 5.68607 37.4981C5.82888 37.3095 6.05328 36.7684 6.05328 36.5542V24.2295Z" fill="#4AB04A"/>
<path d="M32.9549 5.49479C37.545 4.87067 38.6135 11.4491 34.3725 12.478C29.4916 13.6621 28.2766 6.13089 32.9549 5.49479ZM33.119 6.72348C30.3147 7.128 30.7318 11.4644 33.5854 11.3721C36.7188 11.2709 36.4972 6.23618 33.119 6.72348Z" fill="#4AB04A"/>
</g>
<defs>
<clipPath id="clip0_3306_4257">
<rect width="42" height="42" fill="white"/>
</clipPath>
</defs>
</svg>
