<svg width="42" height="42" viewBox="0 0 42 42" fill="none" xmlns="http://www.w3.org/2000/svg">
<g clip-path="url(#clip0_3306_4221)">
<path d="M5.52963 0C7.55387 0.460316 8.818 2.49946 8.02818 4.50456C7.90509 4.81705 7.69578 5.02881 7.57894 5.32445C8.44614 5.2128 9.32361 5.62941 9.72463 6.41558C9.77862 6.52143 9.95525 6.9277 9.95525 7.00427V9.83055C10.6753 9.31744 11.9449 7.91241 12.757 7.67268C13.4427 7.47025 13.8794 8.23764 13.2722 8.76332C12.1975 9.69383 10.8423 10.4 9.99774 11.6343C9.77968 12.9803 10.4049 14.4421 9.21851 15.443C8.89092 15.7194 8.55709 15.7739 8.24737 16.0288L8.22915 22.5643C8.03057 23.3191 7.56077 23.6728 6.93108 24.0577C7.74125 28.1259 10.4948 31.7716 14.1785 33.6678C14.5191 33.6598 16.1693 31.4424 16.7372 31.3912C17.2039 31.3491 17.5159 31.9263 17.2845 32.3524C17.0095 32.8587 15.8939 33.5853 15.527 34.119C15.4795 34.188 15.413 34.2003 15.4465 34.3238C18.4789 35.5409 21.9442 35.7967 25.0811 34.8188L23.3815 29.7111C23.3495 29.6149 23.3005 29.5789 23.1982 29.5763C22.9932 29.5711 22.4098 29.7757 22.1152 29.8088C15.6355 30.5371 10.5628 24.4514 12.5546 18.2042C13.6244 14.8488 16.839 12.3361 20.3636 12.1243V6.5537C19.6045 6.57174 18.7993 6.67176 18.0521 6.82368C17.4689 6.94225 15.704 7.60476 15.327 7.53617C14.819 7.44375 14.7377 6.71106 15.2533 6.40183C15.7062 6.13023 17.004 5.80113 17.5619 5.67824C22.1932 4.65805 27.1601 5.75336 30.825 8.75879C31.042 8.79732 31.729 7.68747 32.1225 7.78069L41.3871 7.78079C41.6881 7.77875 41.8321 7.9827 42 8.19212V8.60173C41.8321 8.81114 41.6881 9.0151 41.3871 9.01306L32.454 9.01316L31.8434 9.55506C31.8265 9.65164 32.9711 10.8056 33.1464 11.0207C34.7524 12.9912 35.8889 15.3599 36.384 17.8612L36.542 17.9371C38.9581 17.5208 40.9089 19.912 40.0966 22.2232C39.9778 22.5611 39.7375 22.8463 39.6237 23.1833C40.7753 23.0567 41.689 23.8392 42 24.9041V27.5255C41.7713 27.8414 41.5274 28.0512 41.1192 27.8735C40.2328 27.4876 41.3964 24.8676 40.2015 24.449L33.8254 24.4745L33.3747 24.9251L33.3173 31.9037C33.4255 32.5878 34.3788 32.4576 34.3814 33.136L33.3127 36.455H34.501C34.5502 36.455 34.8235 36.6729 34.8718 36.7398C35.2771 37.3012 34.87 39.4462 35.051 40.247C35.0932 40.4333 35.3295 40.6506 35.5048 40.6946C35.8277 40.7756 38.0534 40.7698 38.4302 40.7102C38.776 40.6555 39.0123 40.355 39.0514 40.0204C39.1355 39.3014 38.8738 37.1728 39.1769 36.7051C39.2211 36.6367 39.4495 36.455 39.5003 36.455H40.6887C40.594 35.6219 39.5695 33.6979 39.7069 32.9758C39.7782 32.6012 40.2652 32.5636 40.4858 32.3609C41.1733 31.7291 40.317 29.879 41.1768 29.609C41.5735 29.4844 41.7809 29.6876 42 29.9832V32.1131C41.7709 32.6067 41.574 33.2212 41.0188 33.4301L42 36.373V36.7826C41.683 37.5997 41.1225 37.7794 40.2789 37.6838V40.4281C40.2789 40.4659 40.0916 40.8523 40.0482 40.9348C39.7614 41.4811 39.2076 41.8612 38.5898 41.9346C37.9119 42.0151 36.0743 42.0276 35.4097 41.9365C34.6983 41.839 33.911 41.1425 33.8117 40.4209C33.7488 39.9645 33.8964 37.9439 33.7686 37.7605C33.1202 37.6506 32.2763 37.726 32.1025 36.8871C31.9301 36.0548 32.8271 34.4258 32.981 33.5429C32.5966 33.0685 32.2741 32.6964 32.0424 32.1148C27.4913 36.7329 20.3306 37.8811 14.4327 35.2428L10.3683 39.2845L10.0429 39.4507L0.461809 39.4316C-0.148421 39.2419 -0.0678129 38.4567 0.491399 38.2593L9.65161 38.2404L13.2306 34.6878C13.2632 34.5425 12.1051 33.8881 11.8964 33.7364C8.75005 31.4503 6.34597 27.9629 5.69295 24.0854C4.16915 24.0728 2.24687 24.4442 1.7962 22.5328L1.76486 15.9428C1.07821 15.7015 0.515932 15.3871 0.220848 14.6865C-0.0236039 14.1062 -0.0285823 12.7291 0.0330507 12.0782C0.0834885 11.5456 0.35392 11.3875 0.883537 11.4877C1.67953 11.6383 0.93635 13.764 1.47635 14.4146C1.93893 14.9719 2.74823 14.4468 2.97177 15.2136L2.98714 22.1616C2.98941 22.4491 3.26465 22.7772 3.53902 22.8387C3.92468 22.9252 5.95148 22.9117 6.38464 22.8508C6.78753 22.7941 6.9733 22.5575 7.01036 22.1649C7.20856 20.065 6.72456 17.4186 7.02658 15.382C7.19063 14.2757 8.45493 15.1337 8.72124 14.0448L8.72785 7.33001C8.67011 6.8443 8.36077 6.56454 7.86954 6.54953L1.83712 6.59017C0.732751 7.01398 1.63619 9.03717 1.10754 9.60656C0.841835 9.89275 0.157754 9.79468 0.0606427 9.35979C-0.0228243 8.986 -0.00279678 7.6702 0.0395433 7.25099C0.159505 6.06324 1.22218 5.17106 2.41489 5.32445C2.47665 5.27034 2.10247 4.78733 2.04817 4.66785C1.1155 2.61574 2.35508 0.492619 4.46421 0H5.52963ZM4.69016 1.25058C2.21997 1.59001 2.54507 5.40742 5.06653 5.3189C7.82216 5.22217 7.55842 0.85645 4.69016 1.25058ZM21.6749 6.5537V12.1243C28.7347 12.667 32.3941 20.7822 28.0181 26.4521C27.074 27.6753 25.8531 28.5304 24.4726 29.2025L26.2656 34.4072C28.4925 33.5876 30.5277 32.1378 32.0391 30.3076L32.103 24.8827C32.3293 23.7808 33.3401 23.0702 34.46 23.1829C33.6263 22.0606 33.4917 20.4776 34.311 19.3073C34.5317 18.9919 35.1849 18.5551 35.2049 18.2288C35.2292 17.8323 34.7826 16.535 34.6254 16.0961C34.0781 14.5676 33.1908 13.0098 32.163 11.758C31.9761 11.5305 31.2036 10.6182 31.0172 10.522C30.8987 10.4608 30.8968 10.5036 30.8105 10.5629C30.1521 11.0154 29.4245 12.1791 28.7648 12.616C28.2123 12.9819 27.5322 12.5208 27.8016 11.8995C28.0246 11.3854 29.4789 10.3588 29.8732 9.79209C29.9226 9.72101 30.0129 9.67952 29.9144 9.58288C27.5638 7.76997 24.6626 6.66353 21.6749 6.5537ZM20.0189 13.3772C14.6359 13.9248 11.6836 20.2219 14.3968 24.8472C17.1108 29.4738 23.7272 29.9665 27.0346 25.7148C31.2813 20.2556 26.9064 12.6766 20.0189 13.3772ZM36.8197 19.11C34.1952 19.3601 34.5653 23.3337 37.1207 23.1852C39.8471 23.0267 39.5704 18.8479 36.8197 19.11Z" fill="#4AB04A"/>
<path d="M41.9996 2.86582V3.27542C41.7637 3.70464 41.2087 3.91244 40.8975 3.43555C40.3862 2.65204 41.5419 2.08467 41.9996 2.86582Z" fill="#4AB04A"/>
<path d="M41.9996 5.57403V5.98364C41.5419 6.76478 40.3862 6.19742 40.8975 5.41391C41.2087 4.93702 41.7637 5.14482 41.9996 5.57403Z" fill="#4AB04A"/>
<path d="M35.3398 2.47493C35.7557 2.38176 38.4608 2.3892 38.9238 2.4623C39.5971 2.56857 39.7574 3.43573 39.0902 3.68424L35.2426 3.68439C34.5804 3.46474 34.7266 2.61227 35.3398 2.47493Z" fill="#4AB04A"/>
<path d="M35.1693 5.1788L39.084 5.16406C39.7564 5.41836 39.5853 6.28084 38.9177 6.386C38.3671 6.47273 35.9534 6.47275 35.4029 6.386C34.7759 6.28719 34.5444 5.49505 35.1693 5.1788Z" fill="#4AB04A"/>
<path d="M2.9637 32.9452C4.10229 33.0353 5.61836 32.7611 6.71091 32.9329C7.36158 33.0352 7.425 34.0413 6.71122 34.1516C6.12252 34.2426 3.6214 34.2427 3.03295 34.1516C2.35914 34.0473 2.36161 33.1486 2.9637 32.9452Z" fill="#4AB04A"/>
<path d="M3.13138 35.5752C3.69785 35.4735 5.95672 35.4804 6.54671 35.5633C7.2948 35.6685 7.53218 36.4591 6.79795 36.7826H2.95015C2.25176 36.4972 2.43162 35.7009 3.13138 35.5752Z" fill="#4AB04A"/>
<path d="M0.513138 32.946C1.34856 32.7753 1.54772 33.9938 0.80215 34.1462C-0.0332702 34.3169 -0.232429 33.0984 0.513138 32.946Z" fill="#4AB04A"/>
<path d="M0.657736 35.5938C1.45835 35.5939 1.47157 36.7222 0.741183 36.7932C-0.141615 36.8791 -0.206944 35.5936 0.657736 35.5938Z" fill="#4AB04A"/>
</g>
<defs>
<clipPath id="clip0_3306_4221">
<rect width="42" height="42" fill="white"/>
</clipPath>
</defs>
</svg>
