<svg width="52" height="52" viewBox="0 0 52 52" fill="none" xmlns="http://www.w3.org/2000/svg">
<g clip-path="url(#clip0_10429_212)">
<path d="M2.85331 13.8784H3.35875V22.9252H1.46916V39.2347H0.319565V40.1861H9.95807V39.2347H8.27237V18.8414H8.57822V18.5215H8.9992C9.02376 18.5215 9.04797 18.5201 9.07191 18.5178L9.07694 23.4138C8.93814 23.472 8.84058 23.609 8.84058 23.769C8.84058 23.9292 8.93849 24.0664 9.07765 24.1244L9.07954 25.9364C9.03381 25.9511 8.98933 25.9711 8.9471 25.9966C8.78131 26.0971 8.67407 26.2651 8.65291 26.4578L8.41485 28.6246C8.39369 28.8172 8.46184 29.0046 8.6018 29.1386C8.71828 29.25 8.86945 29.3102 9.02726 29.3102C9.05909 29.3102 9.09128 29.3078 9.12347 29.3027L9.7557 29.205C10.0313 29.1623 10.2451 28.9391 10.2755 28.6618L10.4773 26.8254C10.5077 26.5482 10.3476 26.2837 10.0878 26.1822L9.4919 25.9496C9.44501 25.9313 9.39695 25.9192 9.34844 25.9126L9.34665 24.1327C9.4997 24.0818 9.61071 23.939 9.61071 23.7689C9.61071 23.5985 9.49926 23.4556 9.34593 23.4049L9.34091 18.4388C9.58767 18.3132 9.75812 18.0571 9.75812 17.7625C9.75812 17.3452 9.41668 17.0037 8.99929 17.0037H8.57822V16.6838H8.27237V13.8784H9.81882C10.3039 13.8784 10.723 13.5838 10.9074 13.1649H40.7845C40.969 13.5838 41.3881 13.8784 41.8731 13.8784H43.4196V16.6838H43.1137V17.0037H42.6928C42.2754 17.0037 41.9339 17.3452 41.9339 17.7625C41.9339 18.0571 42.1044 18.3132 42.3511 18.4388L42.346 23.4049C42.1926 23.4556 42.0813 23.5985 42.0813 23.7689C42.0813 23.939 42.1923 24.0818 42.3453 24.1327L42.3435 25.9125C42.2951 25.9191 42.247 25.9312 42.2001 25.9496L41.6044 26.1822C41.3447 26.2837 41.1844 26.5482 41.2149 26.8255L41.4167 28.6618C41.4471 28.9391 41.6609 29.1623 41.9364 29.205L42.5687 29.3027C42.6009 29.3078 42.633 29.3102 42.6649 29.3102C42.8227 29.3102 42.9739 29.25 43.0903 29.1386C43.2304 29.0046 43.2985 28.8172 43.2773 28.6246L43.0392 26.4578C43.0181 26.2652 42.9108 26.0971 42.745 25.9966C42.7027 25.9711 42.6582 25.951 42.6126 25.9363L42.6145 24.1243C42.7536 24.0663 42.8516 23.9291 42.8516 23.7689C42.8516 23.6089 42.754 23.4719 42.6152 23.4137L42.6202 18.5177C42.6442 18.52 42.6685 18.5214 42.693 18.5214H43.114V18.8413H43.4199V39.2345H41.7342V40.1859H51.3727V39.2345H50.223V22.9252H48.3334V13.8784H48.8388C49.3239 13.8784 49.743 13.5838 49.9274 13.1649H51.6921V12.2136H49.9274C49.743 11.7946 49.3239 11.5 48.8388 11.5H41.8733C41.3882 11.5 40.9691 11.7946 40.7847 12.2136H10.9075C10.723 11.7946 10.3039 11.5 9.81882 11.5H2.85331C2.36822 11.5 1.94913 11.7946 1.76469 12.2136H0V13.165H1.76469C1.94913 13.5838 2.36822 13.8784 2.85331 13.8784ZM9.95726 26.5164C10.0663 26.559 10.1335 26.67 10.1207 26.7863L9.91898 28.6226C9.90616 28.739 9.81649 28.8327 9.70082 28.8506L9.0686 28.9483C8.98799 28.9609 8.90846 28.9356 8.84973 28.8794C8.791 28.8231 8.76239 28.7446 8.77127 28.6638L9.00933 26.497C9.01686 26.4285 9.05147 26.3685 9.10384 26.3258C9.12813 26.3608 9.16848 26.3838 9.2143 26.3838C9.27832 26.3837 9.33158 26.339 9.34521 26.2791C9.35059 26.2808 9.35606 26.2817 9.36135 26.2837L9.95726 26.5164ZM9.05578 17.4795C9.21215 17.4795 9.33894 17.6063 9.33894 17.7626C9.33894 17.8155 9.32351 17.8644 9.29832 17.9067C9.2742 17.8838 9.24174 17.8695 9.20587 17.8695C9.13154 17.8696 9.07129 17.9299 9.07138 18.0041V18.0442C9.06609 18.0444 9.06107 18.0458 9.05578 18.0458C8.8994 18.0458 8.77261 17.919 8.77261 17.7626C8.77261 17.6063 8.8994 17.4795 9.05578 17.4795ZM42.921 28.6638C42.9298 28.7446 42.9012 28.8231 42.8425 28.8794C42.7838 28.9356 42.7039 28.9608 42.6236 28.9483L41.9914 28.8506C41.8757 28.8327 41.7861 28.739 41.7733 28.6226L41.5715 26.7863C41.5587 26.67 41.6259 26.559 41.735 26.5164L42.3309 26.2837C42.3362 26.2817 42.3417 26.2811 42.3472 26.2794C42.3609 26.3392 42.414 26.3838 42.4779 26.3839H42.478C42.5238 26.3839 42.5642 26.3608 42.5885 26.3259C42.6409 26.3686 42.6755 26.4285 42.683 26.497L42.921 28.6638ZM42.6364 18.0458C42.631 18.0458 42.626 18.0445 42.6207 18.0442V18.0041C42.6208 17.9299 42.5606 17.8696 42.4863 17.8695C42.4504 17.8695 42.4179 17.8838 42.3937 17.9067C42.3685 17.8644 42.3531 17.8155 42.3531 17.7626C42.3531 17.6063 42.4799 17.4795 42.6363 17.4795C42.7927 17.4795 42.9194 17.6063 42.9194 17.7626C42.9195 17.919 42.7927 18.0458 42.6364 18.0458ZM3.74574 13.8784H4.66319V22.9252H3.74574V13.8784ZM7.32103 16.6838H7.01519V18.8414H7.32103V39.2346H6.75659V22.9252H5.61453V13.8784H7.32103V16.6838ZM44.3712 18.8414H44.677V16.6838H44.3712V13.8784H46.0777V22.9252H44.9356V39.2347H44.3712V18.8414ZM47.9464 22.9252H47.0289V13.8784H47.9464V22.9252ZM49.0965 12.6892C49.0965 12.9614 48.876 13.1819 48.6038 13.1819C48.3317 13.1819 48.1111 12.9614 48.1111 12.6892C48.1111 12.4171 48.3317 12.1965 48.6038 12.1965C48.876 12.1965 49.0965 12.4172 49.0965 12.6892ZM42.1083 12.1965C42.3805 12.1965 42.601 12.4171 42.601 12.6892C42.601 12.9614 42.3805 13.1819 42.1083 13.1819C41.8362 13.1819 41.6156 12.9614 41.6156 12.6892C41.6156 12.4171 41.8362 12.1965 42.1083 12.1965ZM10.0765 12.6892C10.0765 12.9614 9.85594 13.1819 9.58381 13.1819C9.31168 13.1819 9.0911 12.9614 9.0911 12.6892C9.0911 12.4171 9.31168 12.1965 9.58381 12.1965C9.85594 12.1965 10.0765 12.4172 10.0765 12.6892ZM3.08832 12.1965C3.36045 12.1965 3.58103 12.4171 3.58103 12.6892C3.58103 12.9614 3.36045 13.1819 3.08832 13.1819C2.81619 13.1819 2.59561 12.9614 2.59561 12.6892C2.59561 12.4171 2.81628 12.1965 3.08832 12.1965Z" fill="#4AB04A"/>
<path d="M3.08106 12.8887C3.19054 12.8887 3.27931 12.7999 3.27931 12.6904C3.27931 12.581 3.19054 12.4922 3.08106 12.4922C2.97158 12.4922 2.88281 12.581 2.88281 12.6904C2.88281 12.7999 2.97158 12.8887 3.08106 12.8887Z" fill="#4AB04A"/>
<path d="M9.58106 12.8887C9.69055 12.8887 9.77931 12.7999 9.77931 12.6904C9.77931 12.5809 9.69055 12.4922 9.58106 12.4922C9.47157 12.4922 9.38281 12.5809 9.38281 12.6904C9.38281 12.7999 9.47157 12.8887 9.58106 12.8887Z" fill="#4AB04A"/>
<path d="M48.6045 12.8887C48.714 12.8887 48.8027 12.7999 48.8027 12.6904C48.8027 12.5809 48.714 12.4922 48.6045 12.4922C48.495 12.4922 48.4062 12.5809 48.4062 12.6904C48.4062 12.7999 48.495 12.8887 48.6045 12.8887Z" fill="#4AB04A"/>
<path d="M42.1045 12.8887C42.214 12.8887 42.3027 12.7999 42.3027 12.6904C42.3027 12.581 42.214 12.4922 42.1045 12.4922C41.995 12.4922 41.9062 12.581 41.9062 12.6904C41.9062 12.7999 41.995 12.8887 42.1045 12.8887Z" fill="#4AB04A"/>
</g>
<defs>
<clipPath id="clip0_10429_212">
<rect width="51.6921" height="51.6921" fill="white"/>
</clipPath>
</defs>
</svg>
