<svg width="52" height="52" viewBox="0 0 52 52" fill="none" xmlns="http://www.w3.org/2000/svg">
<g clip-path="url(#clip0_10429_450)">
<path d="M35.0398 38.3633H33.625V41.6281H35.0398C35.9413 41.6281 36.6721 40.8972 36.6721 39.9957C36.6722 39.0941 35.9413 38.3633 35.0398 38.3633Z" fill="#4AB04A"/>
<path d="M16.648 38.3634C15.7465 38.3634 15.0156 39.0942 15.0156 39.9957C15.0156 40.8972 15.7465 41.6281 16.648 41.6281H18.1716V38.3633H16.648V38.3634Z" fill="#4AB04A"/>
<path d="M35.0398 14.7461H33.625V18.0109H35.0398C35.9413 18.0109 36.6721 17.28 36.6721 16.3785C36.6722 15.477 35.9413 14.7461 35.0398 14.7461Z" fill="#4AB04A"/>
<path d="M16.648 14.7462C15.7465 14.7462 15.0156 15.4771 15.0156 16.3785C15.0156 17.28 15.7465 18.0109 16.648 18.0109H18.1716V14.7461H16.648V14.7462Z" fill="#4AB04A"/>
<path d="M50.0599 8.43455V6.74779C50.0599 5.8463 49.329 5.11544 48.4276 5.11544C48.1522 5.11544 47.8934 5.1842 47.6658 5.30454V4.9641C47.6658 3.69532 46.6372 2.66672 45.3684 2.66672H43.2161C41.9472 2.66683 40.9186 3.69542 40.9186 4.9643V8.43465H33.6816H32.539V8.21688C32.539 6.50669 31.202 5.16976 29.4918 5.16976H27.533V4.02718V3.31984C27.533 2.41836 26.8021 1.6875 25.9006 1.6875C24.9992 1.6875 24.2683 2.41836 24.2683 3.31984V4.02718V5.16986H22.4183C20.7081 5.16986 19.2623 6.50679 19.2623 8.21698V8.43465H18.2285H10.8827V4.9642C10.8827 3.69542 9.85414 2.66683 8.58536 2.66683H6.43276C5.16397 2.66683 4.13538 3.69542 4.13538 4.9642V5.30464C3.90781 5.1842 3.64895 5.11544 3.37363 5.11544C2.47214 5.11544 1.74128 5.8463 1.74128 6.74779V8.43455H1.63245C0.73086 8.43455 0 9.16541 0 10.067C0 10.9686 0.73086 11.6993 1.63234 11.6993H1.74118V13.2773C1.74118 14.1787 2.47204 14.9096 3.37352 14.9096C3.64885 14.9096 3.90771 14.8409 4.13528 14.7205V15.061C4.13528 16.3297 5.16387 17.3583 6.43266 17.3583H8.58495C9.85383 17.3583 10.8823 16.3297 10.8823 15.061V11.6993H18.2281H19.2619V46.8501C19.2619 48.5602 20.7077 50.006 22.4179 50.006H29.4915C31.2017 50.006 32.5387 48.5602 32.5387 46.8501V11.6993H33.6813H40.9183V15.0608C40.9183 16.3296 41.9469 17.3582 43.2157 17.3582H45.368C46.6369 17.3582 47.6654 16.3296 47.6654 15.0608V14.7204C47.893 14.8408 48.1518 14.9095 48.4272 14.9095C49.3286 14.9095 50.0595 14.1786 50.0595 13.2772V11.6992C50.961 11.6992 51.6918 10.9684 51.6918 10.0669C51.6921 9.16531 50.9614 8.43455 50.0599 8.43455Z" fill="#4AB04A"/>
</g>
<defs>
<clipPath id="clip0_10429_450">
<rect width="51.6921" height="51.6921" fill="white"/>
</clipPath>
</defs>
</svg>
