<svg width="52" height="52" viewBox="0 0 52 52" fill="none" xmlns="http://www.w3.org/2000/svg">
<g clip-path="url(#clip0_10429_665)">
<path d="M11.2344 44.5681H24.3117V47.6451H19.4911V50.7222H32.2095V47.6451H27.3888V44.5681H40.4661V38.4141H11.2344V44.5681Z" fill="#4AB04A"/>
<path d="M45.4972 0.976562H6.19722C2.78018 0.976562 0.00018914 3.75656 0.00018914 7.1736C-0.000426266 10.913 0.000701978 24.4961 0.00018914 28.4647H9.23128V11.2333H3.07722V7.1736C3.07722 5.45323 4.47686 4.05359 6.19722 4.05359H24.3087V11.1308H23.0071C19.6532 11.1308 16.9238 14.0857 16.9238 17.7187V35.3367H34.7706V17.7187C34.7706 14.0857 32.0413 11.1308 28.6873 11.1308H27.3857V4.05359H45.4972C47.2176 4.05359 48.6172 5.45323 48.6172 7.1736V11.2333H42.4632V28.4647H51.6943V12.7718V7.1736C51.6943 3.75656 48.9143 0.976562 45.4972 0.976562Z" fill="#4AB04A"/>
</g>
<defs>
<clipPath id="clip0_10429_665">
<rect width="51.6943" height="51.6943" fill="white"/>
</clipPath>
</defs>
</svg>
