<svg width="52" height="52" viewBox="0 0 52 52" fill="none" xmlns="http://www.w3.org/2000/svg">
<path d="M35.5411 37.1548H16.1562V33.924C16.1562 33.0323 16.88 32.3086 17.7717 32.3086H33.9257C34.8174 32.3086 35.5411 33.0323 35.5411 33.924V37.1548Z" fill="#4AB04A"/>
<path d="M46.8521 29.077C46.8521 29.9703 46.13 30.6924 45.2367 30.6924H40.3905C39.4972 30.6924 38.7751 29.9703 38.7751 29.077V24.2307H37.1597C36.7138 24.2307 36.352 23.8689 36.352 23.423V13.7306C36.352 13.2848 36.7138 12.9229 37.1597 12.9229H38.7751V8.07669C38.7751 7.1866 38.0514 6.46128 37.1597 6.46128H28.275V12.9229H28.3218C29.6707 12.9229 30.7998 13.9455 30.9339 15.2862L32.2246 28.1885C32.2715 28.6634 31.8983 29.077 31.4218 29.077H20.2835C19.8054 29.077 19.4322 28.665 19.4807 28.1885L20.7714 15.2862C20.9039 13.9455 22.033 12.9229 23.3819 12.9229H23.4287V6.46128H14.544C13.6523 6.46128 12.9286 7.1866 12.9286 8.07669V12.9229H14.544C14.9899 12.9229 15.3517 13.2848 15.3517 13.7306V23.423C15.3517 23.8689 14.9899 24.2307 14.544 24.2307H12.9286V29.077C12.9286 29.9703 12.2065 30.6924 11.3132 30.6924H6.46697C5.57365 30.6924 4.85156 29.9703 4.85156 29.077C4.85156 28.1836 5.57365 27.4616 6.46697 27.4616H9.69778V24.2307H8.08237C7.63652 24.2307 7.27467 23.8689 7.27467 23.423V13.7306C7.27467 13.2848 7.63652 12.9229 8.08237 12.9229H9.69778V8.07669C9.69778 5.40481 11.8721 3.23047 14.544 3.23047H37.1597C39.8316 3.23047 42.0059 5.40481 42.0059 8.07669V12.9229H43.6213C44.0672 12.9229 44.429 13.2848 44.429 13.7306V23.423C44.429 23.8689 44.0672 24.2307 43.6213 24.2307H42.0059V27.4616H45.2367C46.13 27.4616 46.8521 28.1836 46.8521 29.077Z" fill="#4AB04A"/>
<path d="M28.2707 45.2329H43.6171V48.4638H8.07812V45.2329H23.4245V40.3867H28.2707V45.2329Z" fill="#4AB04A"/>
</svg>
