<svg width="52" height="52" viewBox="0 0 52 52" fill="none" xmlns="http://www.w3.org/2000/svg">
<g clip-path="url(#clip0_10429_312)">
<path d="M46.5594 25.5947C44.4392 25.5947 42.632 25.6754 40.633 25.2514C38.8964 24.7971 38.5532 23.5552 39.6536 22.1216C42.1979 19.325 44.9945 16.7505 47.6296 14.0346C49.3358 12.1365 51.4762 13.1461 51.5671 15.5995C51.7387 18.9716 51.8599 22.3437 50.8906 25.6249C48.7402 31.6119 45.6104 37.2052 43.3387 43.1417C46.0243 43.5254 49.9921 42.1927 50.3152 46.1201C50.3253 47.7254 49.0632 49.0378 47.3772 49.058C32.8186 49.0984 18.2499 49.058 3.69126 49.0681C1.773 49.2701 -0.104878 48.0282 -0.00391639 46.0191C0.0566603 44.4845 1.30858 43.273 2.84319 43.2528C14.5143 43.172 26.1854 43.2427 37.8565 43.2528C38.644 43.2528 38.9974 43.0307 39.3205 42.2734C41.6931 36.6701 44.1363 31.1879 46.5594 25.5947Z" fill="#4AB04A"/>
<path d="M38.5662 10.3782C37.5364 9.8532 36.4158 10.1359 35.5677 11.0849C34.134 12.6902 32.448 13.8715 30.2268 14.0734C28.7629 14.2046 27.511 13.6493 26.2994 12.9224C24.6841 11.9431 22.9677 11.2061 21.0999 10.9032C17.748 10.358 14.9211 11.2667 12.8615 14.0633C11.3673 16.0926 10.7817 18.4551 10.4586 20.9085C10.3779 21.5344 10.6202 22.12 11.0543 22.5844C11.7408 23.3214 12.5889 23.5133 13.548 23.2306C14.5173 22.9479 15.0524 22.2613 15.2038 21.2719C15.4461 19.7676 15.7894 18.2936 16.5567 16.9508C17.324 15.608 18.7576 14.8104 20.8879 15.6181C20.8879 15.6686 20.8778 15.719 20.8576 15.7695C19.7572 18.2835 18.6466 20.7873 17.5562 23.3113C17.4048 23.7051 17.2836 24.1089 17.1826 24.5128C16.8192 25.795 16.587 27.1277 16.0721 28.3392C15.0625 30.6916 13.3057 32.1555 10.6303 32.2363C9.96392 32.2565 9.29758 32.1656 8.63123 32.1858C7.4197 32.2161 6.43028 33.1954 6.32932 34.4171C6.22836 35.6387 6.98557 36.6786 8.13652 36.8502C12.7 37.5267 16.4355 36.1233 19.212 32.3776C20.373 30.8027 21.0697 29.0156 21.5341 27.0974C21.5341 27.0974 21.7663 27.1378 22.2711 27.481C26.461 30.4998 29.2273 34.5382 30.8629 39.3944C31.2364 40.505 32.3773 41.1815 33.5283 40.9795C34.7398 40.7675 35.5677 39.8286 35.497 38.6574C35.4667 38.1324 35.2951 37.6074 35.1134 37.1026C33.3566 32.3675 30.6307 28.2988 26.7841 25.0075C26.572 24.8257 26.5115 24.6743 26.6326 24.3916C27.41 22.5541 28.1672 20.6964 28.9547 18.8589C29.0254 18.6974 29.2879 18.546 29.4696 18.5157C29.9845 18.445 30.5095 18.4854 31.0143 18.4046C34.3259 17.8998 37.0013 16.244 39.2225 13.7907C40.2826 12.6296 40.01 11.1051 38.5662 10.3782Z" fill="#4AB04A"/>
<path d="M28.1681 10.1592C30.3387 10.1996 32.0955 8.53369 32.1257 6.4236C32.156 4.3539 30.4195 2.63756 28.2892 2.61737C26.1387 2.59717 24.3719 4.28323 24.3517 6.38322C24.3315 8.40244 26.0681 10.1188 28.1681 10.1592Z" fill="#4AB04A"/>
</g>
<defs>
<clipPath id="clip0_10429_312">
<rect width="51.6921" height="51.6921" fill="white"/>
</clipPath>
</defs>
</svg>
