<svg width="52" height="52" viewBox="0 0 52 52" fill="none" xmlns="http://www.w3.org/2000/svg">
<g clip-path="url(#clip0_10429_280)">
<path d="M29.4179 36.8886C29.4179 37.4429 29.2535 37.9848 28.9455 38.4457C28.6376 38.9066 28.1998 39.2658 27.6877 39.478C27.1756 39.6901 26.6121 39.7456 26.0684 39.6375C25.5247 39.5293 25.0254 39.2624 24.6334 38.8704C24.2414 38.4785 23.9745 37.9791 23.8664 37.4354C23.7582 36.8917 23.8137 36.3282 24.0258 35.8161C24.238 35.304 24.5972 34.8662 25.0581 34.5583C25.519 34.2503 26.0609 34.0859 26.6152 34.0859C27.3585 34.0859 28.0714 34.3812 28.597 34.9068C29.1226 35.4324 29.4179 36.1453 29.4179 36.8886Z" fill="#4AB04A"/>
<path d="M26.6069 30.2813C25.301 30.2805 24.0241 30.6669 22.9379 31.3918C21.8516 32.1167 21.0047 33.1474 20.5042 34.3536C20.0037 35.5598 19.8721 36.8873 20.1261 38.1683C20.3801 39.4493 21.0082 40.6262 21.9311 41.5502C22.8539 42.4742 24.0301 43.1038 25.3108 43.3593C26.5914 43.6149 27.9191 43.4849 29.1259 42.9859C30.3328 42.4869 31.3645 41.6412 32.0907 40.5558C32.8169 39.4704 33.2049 38.1941 33.2057 36.8882C33.2036 35.1379 32.5079 33.4599 31.2711 32.2216C30.0343 30.9832 28.3571 30.2855 26.6069 30.2813ZM26.6069 41.2981C25.7339 41.2973 24.8807 41.0377 24.1553 40.552C23.4298 40.0663 22.8647 39.3764 22.5314 38.5696C22.198 37.7627 22.1114 36.8751 22.2825 36.019C22.4536 35.1629 22.8747 34.3768 23.4926 33.7601C24.1105 33.1433 24.8974 32.7237 25.7538 32.5541C26.6102 32.3846 27.4976 32.4728 28.3038 32.8076C29.1101 33.1425 29.799 33.7088 30.2833 34.4352C30.7677 35.1615 31.0258 36.0151 31.025 36.8882C31.023 38.0586 30.5567 39.1804 29.7283 40.0072C28.9 40.8341 27.7773 41.2984 26.6069 41.2981ZM26.6069 30.2813C25.301 30.2805 24.0241 30.6669 22.9379 31.3918C21.8516 32.1167 21.0047 33.1474 20.5042 34.3536C20.0037 35.5598 19.8721 36.8873 20.1261 38.1683C20.3801 39.4493 21.0082 40.6262 21.9311 41.5502C22.8539 42.4742 24.0301 43.1038 25.3108 43.3593C26.5914 43.6149 27.9191 43.4849 29.1259 42.9859C30.3328 42.4869 31.3645 41.6412 32.0907 40.5558C32.8169 39.4704 33.2049 38.1941 33.2057 36.8882C33.2036 35.1379 32.5079 33.4599 31.2711 32.2216C30.0343 30.9832 28.3571 30.2855 26.6069 30.2813ZM26.6069 41.2981C25.7339 41.2973 24.8807 41.0377 24.1553 40.552C23.4298 40.0663 22.8647 39.3764 22.5314 38.5696C22.198 37.7627 22.1114 36.8751 22.2825 36.019C22.4536 35.1629 22.8747 34.3768 23.4926 33.7601C24.1105 33.1433 24.8974 32.7237 25.7538 32.5541C26.6102 32.3846 27.4976 32.4728 28.3038 32.8076C29.1101 33.1425 29.799 33.7088 30.2833 34.4352C30.7677 35.1615 31.0258 36.0151 31.025 36.8882C31.023 38.0586 30.5567 39.1804 29.7283 40.0072C28.9 40.8341 27.7773 41.2984 26.6069 41.2981ZM26.6069 30.2813C25.301 30.2805 24.0241 30.6669 22.9379 31.3918C21.8516 32.1167 21.0047 33.1474 20.5042 34.3536C20.0037 35.5598 19.8721 36.8873 20.1261 38.1683C20.3801 39.4493 21.0082 40.6262 21.9311 41.5502C22.8539 42.4742 24.0301 43.1038 25.3108 43.3593C26.5914 43.6149 27.9191 43.4849 29.1259 42.9859C30.3328 42.4869 31.3645 41.6412 32.0907 40.5558C32.8169 39.4704 33.2049 38.1941 33.2057 36.8882C33.2036 35.1379 32.5079 33.4599 31.2711 32.2216C30.0343 30.9832 28.3571 30.2855 26.6069 30.2813ZM26.6069 41.2981C25.7339 41.2973 24.8807 41.0377 24.1553 40.552C23.4298 40.0663 22.8647 39.3764 22.5314 38.5696C22.198 37.7627 22.1114 36.8751 22.2825 36.019C22.4536 35.1629 22.8747 34.3768 23.4926 33.7601C24.1105 33.1433 24.8974 32.7237 25.7538 32.5541C26.6102 32.3846 27.4976 32.4728 28.3038 32.8076C29.1101 33.1425 29.799 33.7088 30.2833 34.4352C30.7677 35.1615 31.0258 36.0151 31.025 36.8882C31.023 38.0586 30.5567 39.1804 29.7283 40.0072C28.9 40.8341 27.7773 41.2984 26.6069 41.2981ZM26.6069 30.2813C25.301 30.2805 24.0241 30.6669 22.9379 31.3918C21.8516 32.1167 21.0047 33.1474 20.5042 34.3536C20.0037 35.5598 19.8721 36.8873 20.1261 38.1683C20.3801 39.4493 21.0082 40.6262 21.9311 41.5502C22.8539 42.4742 24.0301 43.1038 25.3108 43.3593C26.5914 43.6149 27.9191 43.4849 29.1259 42.9859C30.3328 42.4869 31.3645 41.6412 32.0907 40.5558C32.8169 39.4704 33.2049 38.1941 33.2057 36.8882C33.2036 35.1379 32.5079 33.4599 31.2711 32.2216C30.0343 30.9832 28.3571 30.2855 26.6069 30.2813ZM26.6069 41.2981C25.7339 41.2973 24.8807 41.0377 24.1553 40.552C23.4298 40.0663 22.8647 39.3764 22.5314 38.5696C22.198 37.7627 22.1114 36.8751 22.2825 36.019C22.4536 35.1629 22.8747 34.3768 23.4926 33.7601C24.1105 33.1433 24.8974 32.7237 25.7538 32.5541C26.6102 32.3846 27.4976 32.4728 28.3038 32.8076C29.1101 33.1425 29.799 33.7088 30.2833 34.4352C30.7677 35.1615 31.0258 36.0151 31.025 36.8882C31.023 38.0586 30.5567 39.1804 29.7283 40.0072C28.9 40.8341 27.7773 41.2984 26.6069 41.2981ZM26.6069 30.2813C25.301 30.2805 24.0241 30.6669 22.9379 31.3918C21.8516 32.1167 21.0047 33.1474 20.5042 34.3536C20.0037 35.5598 19.8721 36.8873 20.1261 38.1683C20.3801 39.4493 21.0082 40.6262 21.9311 41.5502C22.8539 42.4742 24.0301 43.1038 25.3108 43.3593C26.5914 43.6149 27.9191 43.4849 29.1259 42.9859C30.3328 42.4869 31.3645 41.6412 32.0907 40.5558C32.8169 39.4704 33.2049 38.1941 33.2057 36.8882C33.2036 35.1379 32.5079 33.4599 31.2711 32.2216C30.0343 30.9832 28.3571 30.2855 26.6069 30.2813ZM26.6069 41.2981C25.7339 41.2973 24.8807 41.0377 24.1553 40.552C23.4298 40.0663 22.8647 39.3764 22.5314 38.5696C22.198 37.7627 22.1114 36.8751 22.2825 36.019C22.4536 35.1629 22.8747 34.3768 23.4926 33.7601C24.1105 33.1433 24.8974 32.7237 25.7538 32.5541C26.6102 32.3846 27.4976 32.4728 28.3038 32.8076C29.1101 33.1425 29.799 33.7088 30.2833 34.4352C30.7677 35.1615 31.0258 36.0151 31.025 36.8882C31.023 38.0586 30.5567 39.1804 29.7283 40.0072C28.9 40.8341 27.7773 41.2984 26.6069 41.2981Z" fill="#4AB04A"/>
<path d="M26.6104 25.5703C24.1369 25.5696 21.7314 26.3796 19.7622 27.8763C17.7929 29.3729 16.3685 31.4737 15.7069 33.857C15.0453 36.2404 15.1831 38.7748 16.0991 41.0724C17.0152 43.37 18.659 45.304 20.7789 46.5783L1.61238 46.5864C1.39816 46.5864 1.19273 46.6715 1.04125 46.823C0.889783 46.9744 0.804688 47.1799 0.804688 47.3941C0.804688 47.6083 0.889783 47.8137 1.04125 47.9652C1.19273 48.1167 1.39816 48.2018 1.61238 48.2018L26.3196 48.1937C26.4165 48.2018 26.5135 48.2018 26.6104 48.2018C29.6091 48.1941 32.4829 46.9994 34.6033 44.879C36.7238 42.7585 37.9184 39.8848 37.9261 36.886C37.9227 33.886 36.7294 31.0098 34.608 28.8884C32.4867 26.767 29.6104 25.5737 26.6104 25.5703ZM26.6104 45.1003C24.9846 45.1011 23.3951 44.6196 22.043 43.7169C20.6909 42.8142 19.637 41.5307 19.0144 40.0289C18.3919 38.527 18.2288 36.8743 18.5458 35.2797C18.8628 33.6851 19.6456 32.2204 20.7952 31.0708C21.9447 29.9212 23.4095 29.1385 25.004 28.8215C26.5986 28.5045 28.2513 28.6676 29.7532 29.2901C31.255 29.9126 32.5385 30.9666 33.4412 32.3187C34.344 33.6708 34.8254 35.2603 34.8246 36.886C34.8209 39.0635 33.9544 41.1507 32.4147 42.6904C30.875 44.23 28.7878 45.0966 26.6104 45.1003Z" fill="#4AB04A"/>
<path d="M50.8789 36.886C50.8751 39.8852 49.6814 42.7604 47.5599 44.8804C45.4384 47.0004 42.5624 48.192 39.5632 48.1937H32.8675C33.4673 47.8566 34.0398 47.4732 34.5798 47.0468C36.2618 45.732 37.5915 44.0206 38.4498 42.0658C39.3081 40.111 39.6681 37.9738 39.4976 35.8457C39.3271 33.7176 38.6315 31.665 37.473 29.8717C36.3145 28.0785 34.7293 26.6005 32.8594 25.5703H39.5632C42.5637 25.5725 45.4406 26.7653 47.5623 28.887C49.6839 31.0086 50.8768 33.8856 50.8789 36.886Z" fill="#4AB04A"/>
</g>
<defs>
<clipPath id="clip0_10429_280">
<rect width="51.6921" height="51.6921" fill="white"/>
</clipPath>
</defs>
</svg>
