<svg width="52" height="52" viewBox="0 0 52 52" fill="none" xmlns="http://www.w3.org/2000/svg">
<g clip-path="url(#clip0_10451_204)">
<path fill-rule="evenodd" clip-rule="evenodd" d="M20.9708 4.87891C32.5526 4.87891 41.9416 14.2678 41.9416 25.8497C41.9416 37.4317 32.5526 46.8205 20.9708 46.8205C9.38887 46.8205 0 37.4317 0 25.8497C0 14.2678 9.38887 4.87891 20.9708 4.87891ZM20.9708 22.654C22.7357 22.654 24.1664 24.0848 24.1664 25.8497C24.1664 27.6147 22.7357 29.0454 20.9708 29.0454C19.2058 29.0454 17.7751 27.6147 17.7751 25.8497C17.7751 24.0848 19.2058 22.654 20.9708 22.654ZM20.9708 8.37903C25.795 8.37903 30.1628 10.3346 33.3244 13.4961C36.486 16.6577 38.4415 21.0254 38.4415 25.8497C38.4415 30.6741 36.486 35.0417 33.3244 38.2033C30.1628 41.3649 25.795 43.3204 20.9708 43.3204C16.1465 43.3204 11.7787 41.3649 8.61711 38.2033C5.45553 35.0417 3.50012 30.6741 3.50012 25.8497C3.50012 21.0254 5.45553 16.6577 8.61711 13.4961C11.7787 10.3346 16.1465 8.37903 20.9708 8.37903ZM20.9708 20.1657C17.8315 20.1657 15.2868 22.7104 15.2868 25.8497C15.2868 28.989 17.8315 31.5337 20.9708 31.5337C24.11 31.5337 26.6548 28.989 26.6548 25.8497C26.6548 22.7104 24.11 20.1657 20.9708 20.1657ZM23.7763 19.6177L29.3649 11.8491C26.9123 10.3755 24.0406 9.52773 20.9708 9.52773C17.901 9.52773 15.0292 10.3755 12.5766 11.8491L18.1653 19.6177C19.0213 19.2318 19.9709 19.0169 20.9708 19.0169C21.9706 19.0169 22.9204 19.2318 23.7763 19.6177ZM30.3257 12.4734L24.7828 20.1785C25.5158 20.672 26.1485 21.3048 26.6421 22.0378L34.3472 16.4947C33.7994 15.713 33.1851 14.9814 32.5121 14.3083C31.8392 13.6353 31.1075 13.0209 30.3257 12.4734ZM34.9713 17.4555L27.2028 23.0442C27.5888 23.9002 27.8035 24.8498 27.8035 25.8497C27.8035 26.8496 27.5888 27.7993 27.2028 28.6552L34.9713 34.244C36.4451 31.7912 37.2927 28.9195 37.2927 25.8497C37.2927 22.78 36.4451 19.9081 34.9713 17.4555ZM34.3472 35.2047L26.6421 29.6617C26.1484 30.3948 25.5159 31.0273 24.7828 31.521L30.3257 39.2261C31.1075 38.6784 31.8392 38.0641 32.5121 37.3911C33.1851 36.7181 33.7995 35.9865 34.3472 35.2047ZM29.3649 39.8503L23.7763 32.0818C22.9204 32.4677 21.9706 32.6825 20.9708 32.6825C19.9709 32.6825 19.0213 32.4677 18.1653 32.0818L12.5766 39.8503C15.0294 41.324 17.901 42.1717 20.9708 42.1717C24.0406 42.1717 26.9123 41.324 29.3649 39.8503ZM11.6158 39.2261L17.1587 31.521C16.4257 31.0273 15.7932 30.3948 15.2994 29.6617L7.59433 35.2046C8.14203 35.9864 8.75639 36.7181 9.42942 37.3911C10.1023 38.0641 10.834 38.6785 11.6158 39.2261ZM6.9702 34.2438L14.7388 28.6552C14.3528 27.7993 14.138 26.8496 14.138 25.8497C14.138 24.8498 14.3529 23.9002 14.7388 23.0442L6.97008 17.4557C5.49643 19.9084 4.64883 22.7801 4.64883 25.8497C4.64883 28.9195 5.49643 31.7912 6.9702 34.2438ZM7.59421 16.4949L15.2994 22.0378C15.7931 21.3046 16.4257 20.6722 17.1587 20.1785L11.6158 12.4734C10.834 13.0211 10.1023 13.6353 9.42942 14.3083C8.75627 14.9814 8.14191 15.713 7.59421 16.4949Z" fill="#4AB04A"/>
<path fill-rule="evenodd" clip-rule="evenodd" d="M41.3203 34.5486H44.6562C45.2756 34.5486 45.7822 34.0419 45.7822 33.4226V30.6883C45.7822 30.0691 45.2755 29.5625 44.6562 29.5625H42.7863C42.4918 31.3018 41.9955 32.9724 41.3203 34.5486Z" fill="#4AB04A"/>
<path fill-rule="evenodd" clip-rule="evenodd" d="M48.3197 35.6992H43.5058H40.7861C39.8802 37.5175 38.7321 39.194 37.3828 40.6853H48.3197C48.9391 40.6853 49.4457 40.1786 49.4457 39.5594V36.8251C49.4457 36.2059 48.9391 35.6992 48.3197 35.6992Z" fill="#4AB04A"/>
<path fill-rule="evenodd" clip-rule="evenodd" d="M48.3135 41.832H36.2594C33.9389 44.052 31.1358 45.7716 28.0234 46.8181H50.5669C51.1861 46.8181 51.6927 46.3114 51.6927 45.6922V42.9578C51.6927 42.3386 51.1861 41.832 50.5669 41.832H48.3135Z" fill="#4AB04A"/>
</g>
<defs>
<clipPath id="clip0_10451_204">
<rect width="51.6924" height="51.6924" fill="white"/>
</clipPath>
</defs>
</svg>
