<svg width="52" height="52" viewBox="0 0 52 52" fill="none" xmlns="http://www.w3.org/2000/svg">
<path d="M32.3089 15.348C32.0949 15.3486 31.8898 15.4339 31.7385 15.5852C31.5871 15.7366 31.5018 15.9416 31.5012 16.1557V16.9634C31.5012 17.1776 31.5863 17.383 31.7378 17.5345C31.8893 17.6859 32.0947 17.771 32.3089 17.771C32.5231 17.771 32.7286 17.6859 32.88 17.5345C33.0315 17.383 33.1166 17.1776 33.1166 16.9634V16.1557C33.116 15.9416 33.0307 15.7366 32.8794 15.5852C32.728 15.4339 32.5229 15.3486 32.3089 15.348ZM32.3089 12.1172C32.0949 12.1178 31.8898 12.2031 31.7385 12.3544C31.5871 12.5058 31.5018 12.7109 31.5012 12.9249V13.7326C31.5012 13.9468 31.5863 14.1522 31.7378 14.3037C31.8893 14.4552 32.0947 14.5403 32.3089 14.5403C32.5231 14.5403 32.7286 14.4552 32.88 14.3037C33.0315 14.1522 33.1166 13.9468 33.1166 13.7326V12.9249C33.116 12.7109 33.0307 12.5058 32.8794 12.3544C32.728 12.2031 32.5229 12.1178 32.3089 12.1172ZM19.3858 15.348C19.1718 15.3486 18.9667 15.4339 18.8154 15.5852C18.664 15.7366 18.5787 15.9416 18.5781 16.1557V16.9634C18.5781 17.1776 18.6632 17.383 18.8147 17.5345C18.9662 17.6859 19.1716 17.771 19.3858 17.771C19.6 17.771 19.8055 17.6859 19.9569 17.5345C20.1084 17.383 20.1935 17.1776 20.1935 16.9634V16.1557C20.1929 15.9416 20.1076 15.7366 19.9563 15.5852C19.8049 15.4339 19.5998 15.3486 19.3858 15.348ZM19.3858 12.1172C19.1718 12.1178 18.9667 12.2031 18.8154 12.3544C18.664 12.5058 18.5787 12.7109 18.5781 12.9249V13.7326C18.5781 13.9468 18.6632 14.1522 18.8147 14.3037C18.9662 14.4552 19.1716 14.5403 19.3858 14.5403C19.6 14.5403 19.8055 14.4552 19.9569 14.3037C20.1084 14.1522 20.1935 13.9468 20.1935 13.7326V12.9249C20.1929 12.7109 20.1076 12.5058 19.9563 12.3544C19.8049 12.2031 19.5998 12.1178 19.3858 12.1172ZM19.3858 15.348C19.1718 15.3486 18.9667 15.4339 18.8154 15.5852C18.664 15.7366 18.5787 15.9416 18.5781 16.1557V16.9634C18.5781 17.1776 18.6632 17.383 18.8147 17.5345C18.9662 17.6859 19.1716 17.771 19.3858 17.771C19.6 17.771 19.8055 17.6859 19.9569 17.5345C20.1084 17.383 20.1935 17.1776 20.1935 16.9634V16.1557C20.1929 15.9416 20.1076 15.7366 19.9563 15.5852C19.8049 15.4339 19.5998 15.3486 19.3858 15.348ZM19.3858 12.1172C19.1718 12.1178 18.9667 12.2031 18.8154 12.3544C18.664 12.5058 18.5787 12.7109 18.5781 12.9249V13.7326C18.5781 13.9468 18.6632 14.1522 18.8147 14.3037C18.9662 14.4552 19.1716 14.5403 19.3858 14.5403C19.6 14.5403 19.8055 14.4552 19.9569 14.3037C20.1084 14.1522 20.1935 13.9468 20.1935 13.7326V12.9249C20.1929 12.7109 20.1076 12.5058 19.9563 12.3544C19.8049 12.2031 19.5998 12.1178 19.3858 12.1172ZM32.3089 15.348C32.0949 15.3486 31.8898 15.4339 31.7385 15.5852C31.5871 15.7366 31.5018 15.9416 31.5012 16.1557V16.9634C31.5012 17.1776 31.5863 17.383 31.7378 17.5345C31.8893 17.6859 32.0947 17.771 32.3089 17.771C32.5231 17.771 32.7286 17.6859 32.88 17.5345C33.0315 17.383 33.1166 17.1776 33.1166 16.9634V16.1557C33.116 15.9416 33.0307 15.7366 32.8794 15.5852C32.728 15.4339 32.5229 15.3486 32.3089 15.348ZM32.3089 12.1172C32.0949 12.1178 31.8898 12.2031 31.7385 12.3544C31.5871 12.5058 31.5018 12.7109 31.5012 12.9249V13.7326C31.5012 13.9468 31.5863 14.1522 31.7378 14.3037C31.8893 14.4552 32.0947 14.5403 32.3089 14.5403C32.5231 14.5403 32.7286 14.4552 32.88 14.3037C33.0315 14.1522 33.1166 13.9468 33.1166 13.7326V12.9249C33.116 12.7109 33.0307 12.5058 32.8794 12.3544C32.728 12.2031 32.5229 12.1178 32.3089 12.1172ZM32.3089 15.348C32.0949 15.3486 31.8898 15.4339 31.7385 15.5852C31.5871 15.7366 31.5018 15.9416 31.5012 16.1557V16.9634C31.5012 17.1776 31.5863 17.383 31.7378 17.5345C31.8893 17.6859 32.0947 17.771 32.3089 17.771C32.5231 17.771 32.7286 17.6859 32.88 17.5345C33.0315 17.383 33.1166 17.1776 33.1166 16.9634V16.1557C33.116 15.9416 33.0307 15.7366 32.8794 15.5852C32.728 15.4339 32.5229 15.3486 32.3089 15.348ZM32.3089 12.1172C32.0949 12.1178 31.8898 12.2031 31.7385 12.3544C31.5871 12.5058 31.5018 12.7109 31.5012 12.9249V13.7326C31.5012 13.9468 31.5863 14.1522 31.7378 14.3037C31.8893 14.4552 32.0947 14.5403 32.3089 14.5403C32.5231 14.5403 32.7286 14.4552 32.88 14.3037C33.0315 14.1522 33.1166 13.9468 33.1166 13.7326V12.9249C33.116 12.7109 33.0307 12.5058 32.8794 12.3544C32.728 12.2031 32.5229 12.1178 32.3089 12.1172ZM19.3858 15.348C19.1718 15.3486 18.9667 15.4339 18.8154 15.5852C18.664 15.7366 18.5787 15.9416 18.5781 16.1557V16.9634C18.5781 17.1776 18.6632 17.383 18.8147 17.5345C18.9662 17.6859 19.1716 17.771 19.3858 17.771C19.6 17.771 19.8055 17.6859 19.9569 17.5345C20.1084 17.383 20.1935 17.1776 20.1935 16.9634V16.1557C20.1929 15.9416 20.1076 15.7366 19.9563 15.5852C19.8049 15.4339 19.5998 15.3486 19.3858 15.348ZM19.3858 12.1172C19.1718 12.1178 18.9667 12.2031 18.8154 12.3544C18.664 12.5058 18.5787 12.7109 18.5781 12.9249V13.7326C18.5781 13.9468 18.6632 14.1522 18.8147 14.3037C18.9662 14.4552 19.1716 14.5403 19.3858 14.5403C19.6 14.5403 19.8055 14.4552 19.9569 14.3037C20.1084 14.1522 20.1935 13.9468 20.1935 13.7326V12.9249C20.1929 12.7109 20.1076 12.5058 19.9563 12.3544C19.8049 12.2031 19.5998 12.1178 19.3858 12.1172Z" fill="#4AB04A"/>
<path d="M47.6557 24.2326H46.848C46.8482 23.8083 46.7647 23.3881 46.6024 22.9961C46.44 22.6041 46.2021 22.2479 45.902 21.9479C45.602 21.6478 45.2458 21.4099 44.8538 21.2475C44.4617 21.0852 44.0416 21.0017 43.6173 21.0018C43.6173 20.145 43.2769 19.3232 42.671 18.7173C42.0651 18.1115 41.2433 17.7711 40.3865 17.7711C39.5296 17.7711 38.7079 18.1115 38.102 18.7173C37.4961 19.3232 37.1557 20.145 37.1557 21.0018V24.2326H34.7326V21.0018C34.9467 21.0012 35.1517 20.9159 35.3031 20.7646C35.4544 20.6133 35.5397 20.4082 35.5403 20.1941V9.69413C35.5397 9.4801 35.4544 9.27502 35.3031 9.12368C35.1517 8.97235 34.9467 8.88705 34.7326 8.88643V4.04027C34.7326 3.39763 34.4773 2.78131 34.0229 2.32689C33.5685 1.87248 32.9522 1.61719 32.3096 1.61719C31.6669 1.61719 31.0506 1.87248 30.5962 2.32689C30.1418 2.78131 29.8865 3.39763 29.8865 4.04027V8.88643C29.6725 8.88705 29.4674 8.97235 29.316 9.12368C29.1647 9.27502 29.0794 9.4801 29.0788 9.69413V20.1941C29.0794 20.4082 29.1647 20.6133 29.316 20.7646C29.4674 20.9159 29.6725 21.0012 29.8865 21.0018V24.2326H21.8095V21.0018C22.0236 21.0012 22.2286 20.9159 22.38 20.7646C22.5313 20.6133 22.6166 20.4082 22.6172 20.1941V9.69413C22.6166 9.4801 22.5313 9.27502 22.38 9.12368C22.2286 8.97235 22.0236 8.88705 21.8095 8.88643V4.04027C21.8095 3.39763 21.5542 2.78131 21.0998 2.32689C20.6454 1.87248 20.0291 1.61719 19.3865 1.61719C18.7438 1.61719 18.1275 1.87248 17.6731 2.32689C17.2187 2.78131 16.9634 3.39763 16.9634 4.04027V8.88643C16.7493 8.88705 16.5443 8.97235 16.3929 9.12368C16.2416 9.27502 16.1563 9.4801 16.1557 9.69413V20.1941C16.1563 20.4082 16.2416 20.6133 16.3929 20.7646C16.5443 20.9159 16.7493 21.0012 16.9634 21.0018V24.2326H14.5403V21.0018C14.5403 20.145 14.1999 19.3232 13.594 18.7173C12.9881 18.1115 12.1664 17.7711 11.3095 17.7711C10.4527 17.7711 9.6309 18.1115 9.02501 18.7173C8.41912 19.3232 8.07874 20.145 8.07874 21.0018C7.65443 21.0017 7.23426 21.0852 6.84224 21.2475C6.45021 21.4099 6.094 21.6478 5.79397 21.9479C5.49395 22.2479 5.25597 22.6041 5.09365 22.9961C4.93133 23.3881 4.84785 23.8083 4.84796 24.2326H4.04027C3.39763 24.2326 2.78131 24.4879 2.32689 24.9423C1.87248 25.3967 1.61719 26.0131 1.61719 26.6557C1.61719 27.2983 1.87248 27.9147 2.32689 28.3691C2.78131 28.8235 3.39763 29.0788 4.04027 29.0788H4.84796V29.313C4.84785 29.7373 4.93133 30.1575 5.09365 30.5495C5.25597 30.9415 5.49395 31.2977 5.79397 31.5978C6.094 31.8978 6.45021 32.1358 6.84224 32.2981C7.23426 32.4604 7.65443 32.5439 8.07874 32.5438H8.10297C8.16206 33.3772 8.54252 34.1551 9.16411 34.7134C9.7857 35.2717 10.5998 35.5668 11.4348 35.5364C12.2697 35.506 13.0603 35.1526 13.6396 34.5506C14.219 33.9486 14.5419 33.1451 14.5403 32.3096V29.0788H16.9634V45.2327C16.3207 45.2327 15.7044 45.4879 15.25 45.9424C14.7956 46.3968 14.5403 47.0131 14.5403 47.6557C14.5403 48.2984 14.7956 48.9147 15.25 49.3691C15.7044 49.8235 16.3207 50.0788 16.9634 50.0788H21.8095C22.4522 50.0788 23.0685 49.8235 23.5229 49.3691C23.9773 48.9147 24.2326 48.2984 24.2326 47.6557C24.2326 47.0131 23.9773 46.3968 23.5229 45.9424C23.0685 45.4879 22.4522 45.2327 21.8095 45.2327V29.0788H29.8865V45.2327C29.2438 45.2327 28.6275 45.4879 28.1731 45.9424C27.7187 46.3968 27.4634 47.0131 27.4634 47.6557C27.4634 48.2984 27.7187 48.9147 28.1731 49.3691C28.6275 49.8235 29.2438 50.0788 29.8865 50.0788H34.7326C35.3753 50.0788 35.9916 49.8235 36.446 49.3691C36.9004 48.9147 37.1557 48.2984 37.1557 47.6557C37.1557 47.0131 36.9004 46.3968 36.446 45.9424C35.9916 45.4879 35.3753 45.2327 34.7326 45.2327V29.0788H37.1557V32.3096C37.1541 33.1451 37.477 33.9486 38.0564 34.5506C38.6357 35.1526 39.4263 35.506 40.2612 35.5364C41.0962 35.5668 41.9103 35.2717 42.5319 34.7134C43.1535 34.1551 43.5339 33.3772 43.593 32.5438H43.6173C44.0416 32.5439 44.4617 32.4604 44.8538 32.2981C45.2458 32.1358 45.602 31.8978 45.902 31.5978C46.2021 31.2977 46.44 30.9415 46.6024 30.5495C46.7647 30.1575 46.8482 29.7373 46.848 29.313V29.0788H47.6557C48.2984 29.0788 48.9147 28.8235 49.3691 28.3691C49.8235 27.9147 50.0788 27.2983 50.0788 26.6557C50.0788 26.0131 49.8235 25.3967 49.3691 24.9423C48.9147 24.4879 48.2984 24.2326 47.6557 24.2326ZM4.84796 27.4634H4.04027C3.82606 27.4634 3.62062 27.3783 3.46914 27.2268C3.31767 27.0754 3.23258 26.8699 3.23258 26.6557C3.23258 26.4415 3.31767 26.236 3.46914 26.0846C3.62062 25.9331 3.82606 25.848 4.04027 25.848H4.84796V27.4634ZM16.1557 27.4634H14.5403V25.848H16.1557V27.4634ZM18.5788 4.04027C18.5788 3.82606 18.6639 3.62062 18.8153 3.46914C18.9668 3.31767 19.1722 3.23258 19.3865 3.23258C19.6007 3.23258 19.8061 3.31767 19.9576 3.46914C20.1091 3.62062 20.1941 3.82606 20.1941 4.04027V4.84796H18.5788V4.04027ZM18.5788 6.46335H20.1941V8.88643H18.5788V6.46335ZM17.7711 10.5018H21.0018V19.3865H17.7711V10.5018ZM20.1941 21.0018V24.2326H18.5788V21.0018H20.1941ZM17.7711 25.848H21.0018V27.4634H17.7711V25.848ZM22.6172 47.6557C22.6166 47.8698 22.5313 48.0748 22.38 48.2262C22.2286 48.3775 22.0236 48.4628 21.8095 48.4634H16.9634C16.7492 48.4634 16.5437 48.3783 16.3922 48.2269C16.2408 48.0754 16.1557 47.87 16.1557 47.6557C16.1557 47.4415 16.2408 47.2361 16.3922 47.0846C16.5437 46.9331 16.7492 46.848 16.9634 46.848H17.7711C17.9851 46.8474 18.1902 46.7621 18.3415 46.6108C18.4928 46.4595 18.5781 46.2544 18.5788 46.0404V29.0788H20.1941V46.0404C20.1948 46.2544 20.2801 46.4595 20.4314 46.6108C20.5827 46.7621 20.7878 46.8474 21.0018 46.848H21.8095C22.0236 46.8487 22.2286 46.934 22.38 47.0853C22.5313 47.2366 22.6166 47.4417 22.6172 47.6557ZM29.0788 27.4634H22.6172V25.848H29.0788V27.4634ZM31.5019 4.04027C31.5019 3.82606 31.587 3.62062 31.7384 3.46914C31.8899 3.31767 32.0953 3.23258 32.3096 3.23258C32.5238 3.23258 32.7292 3.31767 32.8807 3.46914C33.0322 3.62062 33.1172 3.82606 33.1172 4.04027V4.84796H31.5019V4.04027ZM31.5019 6.46335H33.1172V8.88643H31.5019V6.46335ZM30.6942 10.5018H33.9249V19.3865H30.6942V10.5018ZM33.1172 21.0018V24.2326H31.5019V21.0018H33.1172ZM30.6942 25.848H33.9249V27.4634H30.6942V25.848ZM35.5403 47.6557C35.5397 47.8698 35.4544 48.0748 35.3031 48.2262C35.1517 48.3775 34.9467 48.4628 34.7326 48.4634H29.8865C29.6723 48.4634 29.4668 48.3783 29.3153 48.2269C29.1639 48.0754 29.0788 47.87 29.0788 47.6557C29.0788 47.4415 29.1639 47.2361 29.3153 47.0846C29.4668 46.9331 29.6723 46.848 29.8865 46.848H30.6942C30.9082 46.8474 31.1133 46.7621 31.2646 46.6108C31.4159 46.4595 31.5012 46.2544 31.5019 46.0404V29.0788H33.1172V46.0404C33.1179 46.2544 33.2032 46.4595 33.3545 46.6108C33.5058 46.7621 33.7109 46.8474 33.9249 46.848H34.7326C34.9467 46.8487 35.1517 46.934 35.3031 47.0853C35.4544 47.2366 35.5397 47.4417 35.5403 47.6557ZM37.1557 27.4634H35.5403V25.848H37.1557V27.4634ZM47.6557 27.4634H46.848V25.848H47.6557C47.87 25.848 48.0754 25.9331 48.2269 26.0846C48.3783 26.236 48.4634 26.4415 48.4634 26.6557C48.4634 26.8699 48.3783 27.0754 48.2269 27.2268C48.0754 27.3783 47.87 27.4634 47.6557 27.4634Z" fill="#4AB04A"/>
</svg>
