<svg width="52" height="52" viewBox="0 0 52 52" fill="none" xmlns="http://www.w3.org/2000/svg">
<g clip-path="url(#clip0_10254_453)">
<path d="M12.8125 24.3906H38.8727V27.3064H12.8125V24.3906Z" fill="#4AB04A"/>
<path d="M11.3328 15.3477H8.27976C8.10196 15.3477 7.93145 15.4183 7.80573 15.544C7.68 15.6697 7.60938 15.8402 7.60938 16.018V35.6894C7.61255 35.8651 7.68458 36.0325 7.80996 36.1556C7.93534 36.2788 8.10404 36.3477 8.27976 36.3477H11.3328C11.5106 36.3477 11.6812 36.2771 11.8069 36.1513C11.9326 36.0256 12.0032 35.8551 12.0032 35.6773V16.0059C12.0001 15.8302 11.928 15.6628 11.8026 15.5397C11.6773 15.4166 11.5086 15.3476 11.3328 15.3477Z" fill="#4AB04A"/>
<path d="M6.13323 18.2735H3.07611C2.90146 18.2788 2.73565 18.3516 2.61362 18.4766C2.49158 18.6017 2.42284 18.7692 2.42188 18.9439V32.7474C2.42293 32.9249 2.4939 33.0948 2.6194 33.2203C2.74489 33.3458 2.91479 33.4167 3.09226 33.4178H6.14938C6.32685 33.4167 6.49675 33.3458 6.62225 33.2203C6.74774 33.0948 6.81871 32.9249 6.81977 32.7474V18.9439C6.81925 18.8547 6.80102 18.7664 6.76613 18.6843C6.73124 18.6021 6.6804 18.5277 6.61654 18.4653C6.55267 18.403 6.47707 18.3539 6.39411 18.321C6.31114 18.2881 6.22247 18.2719 6.13323 18.2735Z" fill="#4AB04A"/>
<path d="M0 24.3906H1.59923V27.3064H0V24.3906Z" fill="#4AB04A"/>
<path d="M48.6181 18.2734H45.561C45.1908 18.2734 44.8906 18.5736 44.8906 18.9438V32.7473C44.8906 33.1176 45.1908 33.4177 45.561 33.4177H48.6181C48.9884 33.4177 49.2885 33.1176 49.2885 32.7473V18.9438C49.2885 18.5736 48.9884 18.2734 48.6181 18.2734Z" fill="#4AB04A"/>
<path d="M43.4032 15.3477H40.3501C40.1723 15.3477 40.0018 15.4183 39.876 15.544C39.7503 15.6697 39.6797 15.8403 39.6797 16.0181V35.6894C39.6829 35.8651 39.7549 36.0325 39.8803 36.1557C40.0057 36.2788 40.1744 36.3477 40.3501 36.3477H43.4032C43.4915 36.3482 43.5791 36.3313 43.6609 36.2978C43.7427 36.2644 43.8171 36.2151 43.8798 36.1528C43.9425 36.0905 43.9922 36.0164 44.0262 35.9348C44.0601 35.8532 44.0776 35.7657 44.0776 35.6773V16.0059C44.0744 15.8295 44.0018 15.6615 43.8756 15.5383C43.7493 15.4151 43.5796 15.3466 43.4032 15.3477Z" fill="#4AB04A"/>
<path d="M50.0859 24.3906H51.6852V27.3064H50.0859V24.3906Z" fill="#4AB04A"/>
</g>
<defs>
<clipPath id="clip0_10254_453">
<rect width="51.6924" height="51.6924" fill="white"/>
</clipPath>
</defs>
</svg>
