<svg width="52" height="57" viewBox="0 0 52 57" fill="none" xmlns="http://www.w3.org/2000/svg">
<path d="M4.90313 0H0.9375C0.421875 0 0 0.421875 0 0.9375V55.3125C0 55.8281 0.421875 56.25 0.9375 56.25H4.90313C5.42813 56.25 5.84063 55.8281 5.84063 55.3125V46.0969H46.125V55.3125C46.125 55.8281 46.5375 56.25 47.0625 56.25H51.0187C51.5344 56.25 51.9562 55.8281 51.9562 55.3125V0.9375C51.9562 0.421875 51.5344 0 51.0187 0H47.0625C46.5375 0 46.125 0.421875 46.125 0.9375V19.1062H40.1813C40.6688 18.675 41.1094 18.1875 41.475 17.6437C42.3469 16.3781 42.7969 14.8969 42.7969 13.3406C42.7969 11.175 41.8875 9.1125 40.2844 7.67812C39.1219 6.62812 37.7062 5.97187 36.1875 5.775C36.1594 5.775 36.1312 5.76562 36.1031 5.76562C35.55 5.69062 34.9781 5.7 34.4531 5.74688C34.2469 5.76563 34.0406 5.78438 33.8062 5.82188C33.4875 5.87813 33.2062 5.95313 32.9719 6.02813C31.9219 6.3375 30.975 6.8625 30.1125 7.62188C30.0844 7.64063 30.0563 7.65937 30.0375 7.6875C29.8781 7.82812 29.7281 7.9875 29.5781 8.14687C28.2562 9.5625 27.525 11.4094 27.525 13.3406C27.525 13.4719 27.5344 13.6031 27.5344 13.7344C27.5344 13.7437 27.5437 13.8281 27.5437 13.8375C27.5531 13.9688 27.5625 14.0906 27.5812 14.3063C27.6375 14.6906 27.7219 15.075 27.8344 15.4781C28.0594 16.2375 28.3969 16.9687 28.8562 17.6437C29.2219 18.1875 29.6719 18.675 30.1594 19.1062H21.8062C22.2937 18.675 22.7344 18.1875 23.1 17.6437C23.9719 16.3781 24.4313 14.8969 24.4313 13.3406C24.4313 11.175 23.5125 9.1125 21.9188 7.67812C20.7563 6.62812 19.3313 5.97188 17.8125 5.78438C17.7844 5.775 17.7656 5.76562 17.7375 5.76562C17.175 5.69062 16.6031 5.69063 16.0781 5.74688C15.8719 5.76563 15.6656 5.78438 15.4312 5.82188C15.1125 5.87813 14.8313 5.95313 14.5969 6.02813C13.5281 6.34688 12.5625 6.88125 11.7188 7.64062C11.7 7.65 11.6812 7.66875 11.6625 7.6875C11.5031 7.82812 11.3531 7.9875 11.2031 8.14687C9.88125 9.5625 9.15938 11.4094 9.15938 13.3406C9.15938 13.4719 9.15937 13.6031 9.16875 13.7344V13.8375C9.17812 13.9875 9.19687 14.1375 9.21562 14.2969C9.2625 14.6812 9.34688 15.0656 9.46875 15.4781C9.68438 16.2469 10.0313 16.9687 10.4813 17.6437C10.8563 18.1875 11.2969 18.675 11.7938 19.1062H5.84063V0.9375C5.84063 0.421875 5.42813 0 4.90313 0ZM18.2437 40.0781C17.5875 40.2375 16.9969 40.3031 16.3312 40.2375C16.0406 40.2187 15.7312 40.1719 15.3937 40.0969C15.3844 40.0969 15.375 40.0875 15.3563 40.0875C15.1969 40.05 15.0469 39.9938 14.85 39.9188C14.4844 39.7875 14.1188 39.6187 13.7344 39.375C13.0781 38.9813 12.4875 38.4187 12.0375 37.7437C11.6906 37.2375 11.4375 36.6937 11.2687 36.1031C11.175 35.7937 11.1094 35.5031 11.0719 35.2313C11.0625 35.1094 11.0437 34.9875 11.0344 34.8281V34.5C11.0344 33.0375 11.5781 31.65 12.5719 30.5812C12.6844 30.4687 12.7875 30.3562 12.9 30.2437C12.9187 30.2344 12.9281 30.225 12.9469 30.2156C13.5844 29.6344 14.325 29.2219 15.1688 28.9781C15.3563 28.9125 15.5625 28.8562 15.7406 28.8281C15.9 28.8094 16.0688 28.7812 16.2469 28.7719C16.6406 28.7344 17.0531 28.725 17.4562 28.7719C17.4844 28.7812 17.5125 28.7906 17.55 28.7906C18.6938 28.9312 19.7719 29.4281 20.6625 30.225C21.8813 31.3219 22.5563 32.8406 22.5563 34.5C22.5563 35.6719 22.2094 36.7969 21.5531 37.7437C20.7656 38.9062 19.5844 39.7406 18.2437 40.0781ZM36.6094 40.0781C35.9531 40.2375 35.3719 40.2937 34.6969 40.2375C34.4062 40.2187 34.1063 40.1719 33.7688 40.0969C33.7594 40.0969 33.7406 40.0875 33.7219 40.0875C33.5719 40.05 33.4219 39.9938 33.225 39.9188C32.8594 39.7875 32.4844 39.6094 32.1 39.375C31.4437 38.9813 30.8625 38.4187 30.4031 37.7437C30.0656 37.2375 29.8031 36.6844 29.6344 36.1031C29.55 35.7937 29.4844 35.5031 29.4469 35.1844C29.4281 35.0719 29.4187 34.9688 29.4094 34.8281C29.4094 34.7156 29.4 34.6125 29.4 34.5C29.4 33.0375 29.9531 31.65 30.9469 30.5812C31.0594 30.4594 31.1625 30.3563 31.275 30.2531C31.2844 30.2344 31.3031 30.225 31.3125 30.2156C31.9594 29.6344 32.6906 29.2219 33.5344 28.9781C33.7313 28.9125 33.9375 28.8562 34.1062 28.8281C34.2656 28.8094 34.4344 28.7812 34.6125 28.7719C35.0156 28.7344 35.4187 28.725 35.8219 28.7719C35.8594 28.7812 35.8875 28.7906 35.9156 28.7906C37.0687 28.9312 38.1469 29.4281 39.0281 30.225C40.2562 31.3219 40.9219 32.8406 40.9219 34.5C40.9219 35.6719 40.5844 36.7969 39.9281 37.7437C39.1406 38.9062 37.95 39.7406 36.6094 40.0781ZM29.6344 14.9531C29.55 14.6438 29.4844 14.3531 29.4375 14.0156C29.4281 13.9125 29.4187 13.8094 29.4094 13.6687C29.4094 13.5562 29.4 13.4531 29.4 13.3406C29.4 11.8875 29.9531 10.4906 30.9469 9.42188C31.0594 9.30938 31.1625 9.19687 31.275 9.08437C31.2938 9.075 31.3031 9.06562 31.3125 9.05625C31.9594 8.48437 32.6906 8.07188 33.5344 7.81875C33.7313 7.75313 33.9375 7.70625 34.1062 7.66875C34.2656 7.65 34.4344 7.63125 34.6125 7.6125C35.0156 7.575 35.4187 7.575 35.8219 7.62188C35.85 7.62188 35.8875 7.63125 35.9156 7.63125C37.0687 7.77188 38.1469 8.26875 39.0281 9.06563C40.2562 10.1719 40.9219 11.6812 40.9219 13.3406C40.9219 14.5125 40.5844 15.6375 39.9281 16.5844C39.1406 17.7469 37.9594 18.5813 36.6094 18.9281C35.9625 19.0781 35.4 19.1438 34.6969 19.0875C34.4062 19.0688 34.1063 19.0219 33.7688 18.9375C33.7594 18.9375 33.7406 18.9375 33.7312 18.9281H33.7219C33.5719 18.8906 33.4219 18.8344 33.225 18.7594C32.8594 18.6375 32.4844 18.4594 32.1 18.2156C31.4437 17.8219 30.8625 17.2594 30.4031 16.5938C30.0656 16.0781 29.8031 15.5344 29.6344 14.9531ZM11.2687 14.9531C11.175 14.6344 11.1094 14.3438 11.0719 14.0719C11.0625 13.95 11.0437 13.8281 11.0344 13.6687V13.3406C11.0344 11.8875 11.5781 10.4906 12.5719 9.43125C12.6844 9.30938 12.7969 9.19687 12.9094 9.08437C12.9187 9.075 12.9281 9.06562 12.9469 9.05625C13.5844 8.48437 14.3156 8.07188 15.1688 7.81875C15.3563 7.75313 15.5625 7.70625 15.7312 7.66875C15.9 7.65 16.0594 7.63125 16.2469 7.6125C16.6406 7.575 17.0531 7.56563 17.4469 7.62188C17.4844 7.62188 17.5125 7.63125 17.55 7.63125C18.6938 7.77188 19.7719 8.26875 20.6625 9.06563C21.8813 10.1719 22.5563 11.6812 22.5563 13.3406C22.5563 14.5125 22.2094 15.6375 21.5531 16.5844C20.7656 17.7469 19.5844 18.5813 18.2437 18.9281C17.5875 19.0781 17.025 19.1438 16.3312 19.0875C16.0406 19.0688 15.7312 19.0219 15.3937 18.9375C15.3844 18.9375 15.375 18.9375 15.3563 18.9281C15.1969 18.8906 15.0469 18.8344 14.85 18.7594C14.4844 18.6375 14.1188 18.4594 13.7344 18.2156C13.0781 17.8219 12.4875 17.2594 12.0375 16.5938C11.6906 16.0875 11.4375 15.5344 11.2687 14.9531ZM46.125 24.9375V40.2562H40.1813C40.6688 39.8344 41.1094 39.3469 41.475 38.8031C42.3469 37.5375 42.7969 36.0469 42.7969 34.5C42.7969 32.3344 41.8875 30.2719 40.2844 28.8375C39.1219 27.7781 37.7062 27.1219 36.1875 26.9344C36.1594 26.925 36.1312 26.925 36.1031 26.925V26.9156C35.55 26.85 34.9688 26.85 34.4531 26.8969C34.2469 26.9156 34.05 26.9438 33.8062 26.9813C33.4875 27.0375 33.2062 27.1125 32.9719 27.1875C31.9031 27.4969 30.9375 28.0406 30.0937 28.7906C30.075 28.8 30.0563 28.8187 30.0375 28.8375C29.8781 28.9875 29.7281 29.1375 29.5781 29.3062C28.2562 30.7219 27.525 32.5594 27.525 34.5C27.525 34.6312 27.5344 34.7625 27.5344 34.8938C27.5344 34.9031 27.5437 34.9875 27.5437 34.9969C27.5531 35.1281 27.5625 35.2594 27.5812 35.4562C27.6375 35.8406 27.7219 36.225 27.8344 36.6281C28.0594 37.3969 28.3969 38.1281 28.8562 38.7938C29.2219 39.3469 29.6719 39.8344 30.1594 40.2562H21.8062C22.2937 39.8344 22.7344 39.3469 23.1 38.8031C23.9719 37.5375 24.4313 36.0469 24.4313 34.5C24.4313 32.3344 23.5125 30.2719 21.9188 28.8375C20.7563 27.7781 19.3313 27.1312 17.8125 26.9344C17.7844 26.925 17.7562 26.925 17.7281 26.925V26.9156C17.175 26.85 16.5938 26.85 16.0781 26.8969C15.8813 26.9156 15.6844 26.9438 15.4312 26.9813C15.1125 27.0375 14.8313 27.1125 14.5969 27.1875C13.5563 27.4969 12.6094 28.0125 11.7469 28.7719C11.7187 28.7906 11.6906 28.8188 11.6625 28.8469C11.5031 28.9875 11.3531 29.1375 11.2031 29.3062C9.88125 30.7219 9.15938 32.5594 9.15938 34.5C9.15938 34.6312 9.15937 34.7625 9.16875 34.8938V34.9969C9.17812 35.1469 9.19687 35.2969 9.21562 35.4562C9.2625 35.8406 9.34688 36.225 9.46875 36.6281C9.68438 37.3969 10.0313 38.1281 10.4813 38.7938C10.8563 39.3469 11.2969 39.8344 11.7938 40.2562H5.84063V24.9375H46.125Z" fill="#4AB04A"/>
</svg>
