<svg width="52" height="52" viewBox="0 0 52 52" fill="none" xmlns="http://www.w3.org/2000/svg">
<g clip-path="url(#clip0_10254_177)">
<path d="M11.2344 44.564H24.3113V47.6409H19.4908V50.7178H32.2087V47.6409H27.3882V44.564H40.4651V38.4102H11.2344V44.564Z" fill="#4AB04A"/>
<path d="M45.4956 0.976562H6.197C2.78008 0.976562 0.000189133 3.75645 0.000189133 7.17337C-0.000426251 10.9126 0.000701952 24.4953 0.000189133 28.4637H9.23094V11.233H3.07711V7.17337C3.07711 5.45307 4.47669 4.05348 6.197 4.05348H24.3078V11.1304H23.0063C19.6525 11.1304 16.9232 14.0853 16.9232 17.7181V35.3355H34.7694V17.7181C34.7694 14.0853 32.0401 11.1304 28.6863 11.1304H27.3848V4.05348H45.4956C47.2159 4.05348 48.6155 5.45307 48.6155 7.17337V11.233H42.4616V28.4637H51.6924V12.7714V7.17337C51.6924 3.75645 48.9125 0.976562 45.4956 0.976562Z" fill="#4AB04A"/>
</g>
<defs>
<clipPath id="clip0_10254_177">
<rect width="51.6924" height="51.6924" fill="white"/>
</clipPath>
</defs>
</svg>
