<svg width="52" height="52" viewBox="0 0 52 52" fill="none" xmlns="http://www.w3.org/2000/svg">
<g clip-path="url(#clip0_10254_479)">
<path d="M50.178 6.05859H1.51443C0.677942 6.05859 0 6.73654 0 7.57302V13.7317C0 14.5433 0.636927 15.2824 1.44817 15.2477C2.31384 15.2102 3.02885 15.9028 3.02885 16.7605V22.8182C3.02885 23.6547 3.70679 24.3327 4.54328 24.3327H9.18752C10.024 24.3327 10.7019 23.6547 10.7019 22.8182V16.7605C10.7019 15.0876 12.0578 13.7317 13.7308 13.7317H37.9616C39.6346 13.7317 40.9905 15.0876 40.9905 16.7605V22.8182C40.9905 23.6547 41.6684 24.3327 42.5049 24.3327H47.1491C47.9856 24.3327 48.6636 23.6547 48.6636 22.8182V16.7605C48.6636 15.9505 49.2981 15.2079 50.1074 15.2445C50.9766 15.284 51.6924 14.5922 51.6924 13.7317V7.57302C51.6924 6.73654 51.0145 6.05859 50.178 6.05859Z" fill="#4AB04A"/>
<path d="M33.7248 3.02885L33.388 1.23481C33.2551 0.519006 32.6296 0 31.9004 0H19.785C19.0557 0 18.4303 0.519006 18.2973 1.23481L17.9609 3.02885H33.7248Z" fill="#4AB04A"/>
<path d="M38.1046 26.4742C38.0166 26.2825 37.9614 26.0731 37.9614 25.8483V25.7106L36.2837 16.7617H27.3605V19.7906C27.3605 20.6274 26.6829 21.305 25.846 21.305C25.0091 21.305 24.3316 20.6274 24.3316 19.7906V16.7617H15.4087L13.7306 25.7106V25.8483C13.7306 26.0731 13.6754 26.2825 13.5875 26.4742L9.21416 49.9004C9.12976 50.3441 9.24807 50.8012 9.53637 51.1471C9.82466 51.4933 10.2506 51.6945 10.7018 51.6945H40.9903C41.4415 51.6945 41.8674 51.4933 42.1557 51.1471C42.444 50.8012 42.5623 50.3441 42.4779 49.9004L38.1046 26.4742ZM27.3605 47.1512C27.3605 47.9881 26.6829 48.6656 25.846 48.6656C25.0091 48.6656 24.3316 47.9881 24.3316 47.1512V44.1223C24.3316 43.2855 25.0091 42.6079 25.846 42.6079C26.6829 42.6079 27.3605 43.2855 27.3605 44.1223V47.1512ZM27.3605 37.9637C27.3605 38.8006 26.6829 39.4781 25.846 39.4781C25.0091 39.4781 24.3316 38.8006 24.3316 37.9637V34.9348C24.3316 34.098 25.0091 33.4204 25.846 33.4204C26.6829 33.4204 27.3605 34.098 27.3605 34.9348V37.9637ZM27.3605 28.8771C27.3605 29.714 26.6829 30.3916 25.846 30.3916C25.0091 30.3916 24.3316 29.714 24.3316 28.8771V25.8483C24.3316 25.0114 25.0091 24.3338 25.846 24.3338C26.6829 24.3338 27.3605 25.0114 27.3605 25.8483V28.8771Z" fill="#4AB04A"/>
</g>
<defs>
<clipPath id="clip0_10254_479">
<rect width="51.6924" height="51.6924" fill="white"/>
</clipPath>
</defs>
</svg>
