<svg width="52" height="52" viewBox="0 0 52 52" fill="none" xmlns="http://www.w3.org/2000/svg">
<path d="M39.4317 37.928C41.1978 36.3557 41.9948 34.3311 41.9948 32.3064C41.9948 29.2695 40.2286 26.3834 36.9547 25.2203L39.6471 11.8449H40.9178C41.1978 11.8449 41.4778 11.7372 41.6717 11.5218L43.8255 9.36794C44.2563 8.93717 44.2563 8.26947 43.8255 7.8387C43.3948 7.40793 42.7271 7.40793 42.2963 7.8387L40.4655 9.66947H34.4563C33.8532 9.66947 33.3794 10.1433 33.3794 10.7464C33.3794 11.3495 33.8532 11.8233 34.4563 11.8233H37.4501L34.8655 24.7464L28.3824 23.9495L22.4593 31.0572C22.5455 31.4449 22.6316 31.8541 22.6316 32.2634C22.6316 35.2141 20.2409 37.648 17.247 37.648C14.2532 37.648 11.8624 35.2141 11.8624 32.2634C11.8624 29.1403 14.447 26.8357 17.3116 26.8787C18.367 26.8787 19.0778 27.1587 19.7886 27.5464L18.367 29.248C18.0009 29.1187 17.6347 29.0326 17.247 29.0326C15.4593 29.0326 14.0162 30.4757 14.0162 32.2634C14.0162 34.0511 15.4593 35.4941 17.247 35.4941C19.0347 35.4941 20.4778 34.0511 20.4778 32.2634C20.4778 31.1649 20.1116 30.8849 19.9824 30.6695L28.5117 20.4172H30.1701C30.7732 20.4172 31.247 19.9433 31.247 19.3403C31.247 18.7372 30.7732 18.2633 30.1701 18.2633H23.7086C23.1055 18.2633 22.6316 18.7372 22.6316 19.3403C22.6316 19.9433 23.1055 20.4172 23.7086 20.4172H25.7116L23.2993 23.3249L18.1516 22.7003L16.407 13.9772H19.4009C20.0039 13.9772 20.4778 13.5033 20.4778 12.9003C20.4778 12.2972 20.0039 11.8233 19.4009 11.8233H10.7855C10.1824 11.8233 9.70854 12.2972 9.70854 12.9003C9.70854 13.5033 10.1824 13.9772 10.7855 13.9772H14.2101L15.9547 22.7218C10.7855 23.411 7.55469 27.7403 7.55469 32.2849C7.55469 34.848 8.52392 37.4111 10.7424 39.4142L7.87777 42.2788C7.447 42.7095 7.447 43.3772 7.87777 43.808C8.30854 44.2388 8.97623 44.2388 9.407 43.808L12.5301 40.6849C13.8655 41.4388 15.1578 41.9557 17.3332 41.9557H17.3978L35.964 39.6726C37.0409 39.4572 37.4286 39.1988 37.644 39.1126L42.3609 43.8295C42.7917 44.2603 43.4594 44.2603 43.8901 43.8295C44.3209 43.3988 44.3209 42.7311 43.8901 42.3003L39.4963 37.9065L39.4317 37.928Z" fill="#4AB04A"/>
</svg>
