<svg width="52" height="52" viewBox="0 0 52 52" fill="none" xmlns="http://www.w3.org/2000/svg">
<g clip-path="url(#clip0_10254_94)">
<path fill-rule="evenodd" clip-rule="evenodd" d="M10.0811 30.6751C9.86915 30.6751 9.62689 30.5237 9.47548 30.4026C9.23322 30.0695 9.29378 29.6152 9.62689 29.4335L13.5939 26.4961C13.715 26.4356 13.8665 26.375 13.9876 26.375H37.7594C37.9109 26.375 38.0925 26.4356 38.1531 26.4961L41.999 29.2821C42.3321 29.5547 42.3927 29.9483 42.1504 30.2815C41.8779 30.5843 41.4842 30.6751 41.1511 30.4026L37.5172 27.7377H14.2601L10.4748 30.5237C10.4142 30.5843 10.2628 30.6751 10.0811 30.6751Z" fill="#4AB04A"/>
<path fill-rule="evenodd" clip-rule="evenodd" d="M29.5512 27.7339C28.5519 27.7339 23.2222 27.7339 22.3137 27.7339C21.92 27.7339 21.6172 27.4008 21.6172 27.0072C21.6172 24.4331 23.4341 22.707 25.9779 22.707C28.1279 22.707 30.278 24.2212 30.278 27.0072C30.278 27.4008 29.9449 27.7339 29.5512 27.7339Z" fill="#4AB04A"/>
<path fill-rule="evenodd" clip-rule="evenodd" d="M25.9768 24.1351C25.5831 24.1351 25.25 23.8323 25.25 23.4386V14.051C25.25 13.6573 25.5831 13.3242 25.9768 13.3242C26.3705 13.3242 26.7036 13.6573 26.7036 14.051V23.4386C26.7036 23.8323 26.3705 24.1351 25.9768 24.1351Z" fill="#4AB04A"/>
<path fill-rule="evenodd" clip-rule="evenodd" d="M2.78424 38.3653C2.63283 38.3653 2.5117 38.3653 2.39057 38.3653C1.66379 38.2139 1.02785 37.8202 0.573614 37.2448C0.0890919 36.6694 -0.0926038 35.9427 0.0285266 35.1553C0.17994 34.4285 0.573614 33.7926 1.14898 33.3384L8.50766 27.7966C8.84077 27.5241 9.29501 27.5847 9.4767 27.9178L11.9599 31.2489C12.081 31.37 12.081 31.582 12.081 31.7637C12.081 31.9756 11.9599 32.0968 11.8387 32.2179L4.48007 37.7596C3.93498 38.1533 3.35961 38.3653 2.78424 38.3653Z" fill="#4AB04A"/>
<path fill-rule="evenodd" clip-rule="evenodd" d="M48.9364 38.3653C48.3308 38.3653 47.7554 38.1533 47.2406 37.7596L39.8516 32.2179C39.7305 32.0968 39.6094 31.9756 39.6094 31.7637C39.6094 31.582 39.6094 31.37 39.7305 31.2489L42.2137 27.9178C42.4559 27.5847 42.8496 27.5241 43.1827 27.7966L50.5414 33.3384C51.783 34.2468 52.0555 36.0032 51.147 37.2448C50.602 37.9716 49.754 38.3653 48.9364 38.3653Z" fill="#4AB04A"/>
</g>
<defs>
<clipPath id="clip0_10254_94">
<rect width="51.6924" height="51.6924" fill="white"/>
</clipPath>
</defs>
</svg>
