<svg width="52" height="52" viewBox="0 0 52 52" fill="none" xmlns="http://www.w3.org/2000/svg">
<path d="M41.4449 48.6553L39.8727 44.5675H39.8728C44.4807 43.0077 47.8054 38.6421 47.8054 33.5143C47.8054 29.6272 45.8811 26.0108 42.6563 23.8391C40.6432 22.4832 38.2978 21.8077 35.9424 21.8491V10.2386C41.1007 9.68324 45.1299 5.30342 45.1299 0H42.101C42.101 4.00828 38.8401 7.26925 34.8318 7.26925H32.9135V22.3045C32.5228 22.4155 32.1371 22.5488 31.7555 22.7033L15.8211 29.1646L12.2244 15.4471L16.8021 13.7459C18.1055 13.2613 18.9808 12.0013 18.9808 10.6111C18.9808 8.76651 17.4805 7.26622 15.6359 7.26622H8.12742C5.53876 7.26622 3.4327 9.37228 3.4327 11.9609C3.4327 13.4976 4.18587 14.9383 5.4479 15.8157C6.24549 16.3699 7.18242 16.6557 8.12843 16.6557C8.54237 16.6557 8.95934 16.6011 9.36622 16.4891H9.36642L10.4963 20.7981H5.95674V23.827H11.2904L12.9908 30.3127L12.9907 30.3128L8.05574 32.3138C5.52362 33.3406 3.88703 35.7697 3.88703 38.5028C3.88703 42.0869 6.72607 45.0209 10.2739 45.1733H10.2743L8.93501 48.6554H0V51.6842H51.6924V48.6554L41.4449 48.6553ZM14.0337 36.2453H17.0625V39.2741H14.0337V36.2453ZM12.1801 48.6553L13.5167 45.1804H36.8633L38.1998 48.6553H12.1801Z" fill="#4AB04A"/>
</svg>
