<svg width="52" height="52" viewBox="0 0 52 52" fill="none" xmlns="http://www.w3.org/2000/svg">
<path d="M28.2004 14.3217L25.5164 11.6378C24.8067 10.928 23.656 10.928 22.9463 11.6378C22.2366 12.3474 22.2366 13.4981 22.9463 14.2078L27.9058 19.1673L28.5669 18.4779C28.2444 17.6302 28.0677 16.7106 28.0677 15.7498C28.0677 15.2618 28.1133 14.7844 28.2004 14.3217Z" fill="#4AB04A"/>
<path d="M26.4865 20.6532L25.3203 19.487C24.3741 18.5408 22.8399 18.5408 21.8936 19.487L17.8972 23.4835C16.9509 24.4297 16.9509 25.9639 17.8972 26.9102L19.2189 28.2319L21.4555 25.8995L20.7528 25.1968L23.607 22.3427L24.2499 22.9856L26.4865 20.6532Z" fill="#4AB04A"/>
<path d="M17.4606 30.0654L13.3173 25.9221C12.1607 24.7656 10.2856 24.7656 9.12901 25.9221C8.55075 26.5004 8.55075 27.438 9.12901 28.0162L14.3852 33.2724L17.4606 30.0654Z" fill="#4AB04A"/>
<path d="M39.7109 9.18476L41.1666 7.66662C41.4671 7.35324 41.9618 7.33353 42.2865 7.622L43.5017 8.70241C43.8446 9.00719 43.8652 9.53599 43.5469 9.86638L42.0628 11.4072C41.4461 10.5102 40.6437 9.75088 39.7109 9.18476Z" fill="#4AB04A"/>
<path d="M29.3569 19.9961L9.94511 40.2385C9.45266 40.7521 9.8166 41.6051 10.5281 41.6051H12.6482C12.8677 41.6051 13.0777 41.5158 13.23 41.3579L31.6472 22.2356C30.7357 21.658 29.9543 20.8936 29.3569 19.9961Z" fill="#4AB04A"/>
<path d="M35.476 23.4186C36.5241 23.4539 37.5773 23.2756 38.5533 22.8906L43.4773 40.5716C43.6207 41.0865 43.2338 41.5961 42.6991 41.5961H15.2344L18.3461 38.3653H38.0435C38.845 38.3653 39.4256 37.6009 39.2106 36.8287L35.476 23.4186Z" fill="#4AB04A"/>
<path fill-rule="evenodd" clip-rule="evenodd" d="M29.6875 15.753C29.6875 12.4074 32.3997 9.69531 35.7452 9.69531C39.0908 9.69531 41.8031 12.4074 41.8031 15.753C41.8031 19.0986 39.0908 21.8107 35.7452 21.8107C32.3997 21.8107 29.6875 19.0986 29.6875 15.753ZM36.9567 15.753C36.9567 16.4221 36.4143 16.9646 35.7452 16.9646C35.0761 16.9646 34.5337 16.4221 34.5337 15.753C34.5337 15.0839 35.0761 14.5415 35.7452 14.5415C36.4143 14.5415 36.9567 15.0839 36.9567 15.753Z" fill="#4AB04A"/>
</svg>
