<svg width="52" height="52" viewBox="0 0 52 52" fill="none" xmlns="http://www.w3.org/2000/svg">
<g clip-path="url(#clip0_10254_371)">
<path d="M43.6743 30.751C45.6432 30.751 47.2393 29.1549 47.2393 27.1861C47.2393 25.2172 45.6432 23.6211 43.6743 23.6211C41.7055 23.6211 40.1094 25.2172 40.1094 27.1861C40.1094 29.1549 41.7055 30.751 43.6743 30.751Z" fill="#4AB04A"/>
<path d="M51.6924 26.2956C51.6705 26.092 51.6378 25.8897 51.5944 25.6895C51.1978 23.698 49.3063 17.2507 41.3994 12.7412L44.9314 9.20914C45.2658 8.87485 45.4536 8.42144 45.4536 7.94863C45.4536 7.47583 45.2657 7.02241 44.9314 6.68812L43.6711 5.42782C42.9749 4.73239 41.8469 4.73239 41.1506 5.42782L32.5758 14.0026C31.8804 14.699 31.8804 15.8272 32.5758 16.5236L33.8361 17.7839C34.5326 18.479 35.6603 18.479 36.3568 17.7839L39.0499 15.0908C41.1198 16.1848 43.0165 17.579 44.6783 19.2281L44.6872 19.237C41.0665 18.7481 37.5791 20.7912 36.2352 24.1885C35.7138 23.1655 34.5978 22.5893 33.4619 22.7567C32.326 22.9241 31.4235 23.7977 31.2193 24.9276C31.0152 26.0575 31.5549 27.1916 32.5605 27.7459C33.5661 28.3002 34.8131 28.1509 35.6595 27.375C35.7579 31.7048 39.278 35.1736 43.6089 35.2082H8.91252V28.9695H12.4775C13.462 28.9695 14.26 28.1715 14.26 27.187C14.26 26.2025 13.462 25.4045 12.4775 25.4045H1.7825C0.798128 25.4043 2.48553e-05 26.2024 2.48553e-05 27.1868C2.48553e-05 28.1713 0.798027 28.9693 1.7825 28.9693H5.34746V35.208H1.7825C1.3096 35.2055 0.855979 35.3953 0.525834 35.7338C0.187309 36.064 -0.00249919 36.5176 2.48553e-05 36.9905C0.00295275 37.9737 0.799238 38.7701 1.7825 38.773H3.56498L1.7825 43.2292H0.891315C0.399127 43.2292 2.48553e-05 43.6282 2.48553e-05 44.1205V45.903C2.48553e-05 46.3952 0.399026 46.7943 0.891315 46.7943H6.23885C6.73104 46.7943 7.13015 46.3953 7.13015 45.903V44.1205C7.13015 43.6283 6.73114 43.2292 6.23885 43.2292H5.34756L7.13004 38.773H44.5625L46.345 43.2292H45.4537C44.9615 43.2292 44.5624 43.6282 44.5624 44.1205V45.903C44.5624 46.3952 44.9614 46.7943 45.4537 46.7943H50.8012C51.2934 46.7943 51.6925 46.3953 51.6925 45.903V44.1205C51.6925 43.6283 51.2935 43.2292 50.8012 43.2292H49.91L48.1275 38.773H49.91C50.8914 38.7658 51.6854 37.9719 51.6924 36.9905V27.1868C51.6907 26.8681 51.67 26.5496 51.6306 26.2333L51.6924 26.2956ZM35.0964 16.5236L33.8361 15.2629L42.4109 6.68812L43.6712 7.94843L35.0964 16.5236ZM33.8675 26.2956C33.3754 26.2956 32.9763 25.8966 32.9763 25.4043C32.9763 24.9121 33.3753 24.513 33.8675 24.513C34.3597 24.513 34.7588 24.912 34.7588 25.4043C34.7582 25.8963 34.3595 26.2951 33.8675 26.2956ZM43.6712 32.5343C40.7179 32.5343 38.3237 30.1401 38.3237 27.1868C38.3237 24.2335 40.7179 21.8393 43.6712 21.8393C46.6246 21.8393 49.0188 24.2334 49.0188 27.1868C49.0163 30.1392 46.6236 32.532 43.6712 32.5343Z" fill="#4AB04A"/>
</g>
<defs>
<clipPath id="clip0_10254_371">
<rect width="51.6924" height="51.6924" fill="white"/>
</clipPath>
</defs>
</svg>
