<svg width="52" height="52" viewBox="0 0 52 52" fill="none" xmlns="http://www.w3.org/2000/svg">
<g clip-path="url(#clip0_10254_431)">
<path d="M16.7122 11.5243C15.4097 11.2251 13.5432 11.9635 12.8192 14.2013C12.6078 14.8683 12.4357 15.483 12.2969 16.0733L14.4295 13.3728C14.7281 12.9947 15.1758 12.7778 15.658 12.7778C16.0078 12.7778 16.3519 12.8973 16.6268 13.1144C16.9549 13.3734 17.1622 13.7444 17.2112 14.1596C17.2599 14.5746 17.1442 14.9838 16.8852 15.3117L15.072 17.6079L17.7036 18.0358C17.8485 17.0776 18.0238 16.1704 18.1673 15.3763L18.4825 15.5971L19.3344 16.1941V13.2263L18.3282 12.5212L17.4425 11.9006C17.2323 11.7192 16.988 11.5878 16.7122 11.5243Z" fill="#4AB04A"/>
<path d="M21.2542 17.537C21.4591 17.6806 21.7027 17.7571 21.9515 17.7571C21.978 17.7571 22.0045 17.7562 22.031 17.7546L27.2667 17.4116C27.0683 18.2301 26.9595 19.3261 27.3516 20.3742C27.7537 21.4493 28.5955 22.2564 29.8535 22.773L29.9613 22.8174C31.4057 23.4104 32.3992 23.8191 33.1156 24.2973L32.4902 22.911C31.8825 22.6215 31.1651 22.3265 30.3075 21.9744L30.1996 21.93C29.1877 21.5144 28.5172 20.885 28.2068 20.0593C27.848 19.1048 28.0227 18.0547 28.2288 17.3485L28.6216 17.3229C29.2913 17.279 29.7986 16.7006 29.7547 16.0308C29.7313 15.6736 29.5544 15.3636 29.2939 15.1577L31.414 11.3411L30.6173 10.8984L28.3933 14.9023L22.2988 15.3014L20.9531 14.3583V17.3261L21.2542 17.537Z" fill="#4AB04A"/>
<path d="M19.958 11.4462C21.7908 10.9914 22.9078 9.13683 22.4529 7.30405C21.998 5.47126 20.1435 4.35427 18.3107 4.80916C16.4779 5.26405 15.361 7.11857 15.8158 8.95136C16.2707 10.7841 18.1253 11.9011 19.958 11.4462Z" fill="#4AB04A"/>
<path d="M33.4282 35.2842L32.0234 39.7607L35.7271 39.999C35.2924 39.1405 35.0459 38.1714 35.0459 37.1452C35.0459 35.4236 35.7364 33.8611 36.854 32.7174C36.1966 31.9258 35.5538 31.1509 34.9527 30.4258L33.7936 34.1197C33.6439 34.4951 33.5214 34.8839 33.4282 35.2842Z" fill="#4AB04A"/>
<path d="M38.0371 34.1367C37.32 34.9352 36.8828 35.9898 36.8828 37.1449C36.8828 38.297 37.3178 39.349 38.0316 40.1468L42.5291 40.4361C42.6055 40.2411 42.7027 40.0569 42.8204 39.887C41.5857 38.4041 39.8173 36.2792 38.0371 34.1367Z" fill="#4AB04A"/>
<path d="M45.0201 38.728C45.2127 38.728 45.4001 38.7495 45.5813 38.7882C45.7818 38.2784 45.893 37.7243 45.893 37.1442C45.893 34.6588 43.8711 32.6367 41.3857 32.6367C40.6353 32.6367 39.9276 32.822 39.3047 33.1478C41.0899 35.2963 42.8598 37.423 44.0883 38.8985C44.3791 38.7902 44.6921 38.728 45.0201 38.728Z" fill="#4AB04A"/>
<path d="M1.38149 46.9711C2.09798 46.9711 2.68688 46.4255 2.756 45.7272H6.18915L6.23608 45.7587L6.25704 45.7272H25.2982C25.3674 46.4256 25.9563 46.9711 26.6727 46.9711C27.3892 46.9711 27.9781 46.4255 28.0473 45.7272H48.9364C49.0055 46.4256 49.5944 46.9711 50.3109 46.9711C51.0739 46.9711 51.6924 46.3526 51.6924 45.5896C51.6924 44.852 51.1138 44.2511 50.3858 44.2119L48.5883 41.018C49.2095 39.8654 49.5625 38.5469 49.5625 37.1457C49.5625 32.7385 46.0739 29.1479 41.7077 28.9801L37.1546 27.8527L36.7232 27.7459L32.9766 19.4398L34.9239 16.0668C35.091 15.7775 34.9909 15.404 34.7015 15.2369L34.6073 15.1825C34.318 15.0154 33.9445 15.1155 33.7774 15.4049L30.9889 20.2347C30.8218 20.5241 30.9219 20.8976 31.2112 21.0647L31.3054 21.1189C31.5436 21.2565 31.8372 21.2106 32.0274 21.0296L35.3332 28.3582C36.1664 29.365 37.1258 30.5217 38.1178 31.7163C39.0735 31.1384 40.1931 30.8051 41.3892 30.8051C44.8852 30.8051 47.7296 33.6495 47.7296 37.1457C47.7296 38.0878 47.5215 38.9815 47.1515 39.786C47.4971 40.2374 47.7048 40.7997 47.7048 41.4109C47.7048 42.8893 46.502 44.0922 45.0236 44.0922C44.2595 44.0922 43.5708 43.7693 43.082 43.2548C42.5428 43.4044 41.9755 43.4861 41.3892 43.4861C39.6755 43.4861 38.1195 42.8017 36.9772 41.6932L31.5299 41.3427L30.6308 44.2081H20.0127H19.5485L21.2454 42.2691C21.6716 41.7822 22.163 41.3929 22.6923 41.1091C22.7465 41.2147 22.8116 41.3136 22.8872 41.4036C23.1779 41.7501 23.6136 41.9711 24.1001 41.9711C24.7713 41.9711 25.345 41.5505 25.575 40.9597C25.6175 40.8501 25.6479 40.735 25.6652 40.6153L42.3564 41.6894C42.347 41.5978 42.3419 41.505 42.3419 41.4111C42.3419 41.1936 42.3707 40.983 42.4199 40.7803L26.8175 39.7762C26.8802 39.6898 26.9228 39.5874 26.9325 39.474L26.936 39.4339L26.9923 38.7731C27.0207 38.4402 26.7715 38.1446 26.4385 38.1162L24.0597 37.9132L23.6872 37.8815C23.8561 37.5636 23.9373 37.1946 23.9 36.8094L23.0749 28.2905C23.0257 27.7816 22.7734 27.3143 22.375 26.9939L17.5708 23.1307C17.5674 23.0698 17.5631 23.0074 17.5581 22.943C17.4701 22.367 17.4372 21.7682 17.4399 21.1625L11.9548 20.2708C11.9361 20.2678 11.9184 20.2619 11.8998 20.2581C11.9288 20.992 12.0027 21.7743 12.121 22.6501C12.4137 24.0213 13.0738 24.6906 13.8433 25.006L19.3723 29.4522L20.1204 37.1755C20.1342 37.3178 20.1649 37.4542 20.2078 37.5847L19.8349 37.5529L19.554 37.5289L18.167 37.4106C17.8341 37.3822 17.5385 37.6315 17.5101 37.9644L17.4502 38.6654C17.4218 38.9984 17.6711 39.2941 18.0041 39.3225L21.666 39.6348L22.6663 39.7202C22.6642 39.7247 22.6619 39.7291 22.6598 39.7337C22.5977 39.8697 22.5549 40.0158 22.5336 40.169C21.8043 40.511 21.1308 41.0163 20.5592 41.6693L18.3372 44.2084H17.8728H7.27049L10.1702 39.864C10.3218 39.6371 10.4807 39.4313 10.6449 39.244C10.8428 39.8927 11.4466 40.3662 12.1593 40.3662C13.0324 40.3662 13.7428 39.6558 13.7428 38.7827C13.7428 38.6388 13.7218 38.5 13.6857 38.3674L14.3349 38.4228C14.4893 38.4361 14.6344 38.3876 14.7498 38.3007L17.0995 38.7128C17.0997 38.6873 17.1001 38.6616 17.1022 38.636L17.1621 37.9351C17.1659 37.8897 17.1741 37.8456 17.1841 37.8024L15.0299 37.4246L15.0518 37.1682C15.0802 36.8352 14.831 36.5396 14.498 36.5112L10.9142 36.2056C11.1756 36.1297 11.425 35.9971 11.6422 35.8046L18.2039 29.9911C18.4104 29.8082 18.5699 29.5862 18.6782 29.3428L14.3216 25.8396L14.8282 27.9086L9.12392 32.9623C8.33893 33.6577 8.26632 34.8577 8.96185 35.6425C9.13304 35.8358 9.33567 35.9836 9.55424 36.0896L6.22636 35.8057C5.8934 35.7773 5.59766 36.0265 5.56926 36.3595L5.50941 37.0605C5.48101 37.3934 5.73027 37.6892 6.06322 37.7176L10.5063 38.0966C10.115 38.4361 9.74654 38.8576 9.41222 39.3585L6.17487 44.2089H1.38134C0.618368 44.2089 0 44.8274 0 45.5904C0 46.3526 0.61852 46.9711 1.38149 46.9711ZM24.1002 39.4118C24.6392 39.4118 25.0762 39.8487 25.0762 40.3878C25.0762 40.9267 24.6393 41.3637 24.1002 41.3637C23.5613 41.3637 23.1243 40.9268 23.1243 40.3878C23.1243 39.8487 23.5612 39.4118 24.1002 39.4118ZM13.1355 38.7824C13.1355 39.3213 12.6986 39.7583 12.1596 39.7583C11.6206 39.7583 11.1836 39.3215 11.1836 38.7824C11.1836 38.2435 11.6205 37.8065 12.1596 37.8065C12.6985 37.8065 13.1355 38.2435 13.1355 38.7824Z" fill="#4AB04A"/>
<path d="M24.0972 40.8858C24.3709 40.8858 24.5928 40.6639 24.5928 40.3902C24.5928 40.1164 24.3709 39.8945 24.0972 39.8945C23.8235 39.8945 23.6016 40.1164 23.6016 40.3902C23.6016 40.6639 23.8235 40.8858 24.0972 40.8858Z" fill="#4AB04A"/>
<path d="M12.1597 39.2803C12.4334 39.2803 12.6553 39.0584 12.6553 38.7847C12.6553 38.511 12.4334 38.2891 12.1597 38.2891C11.886 38.2891 11.6641 38.511 11.6641 38.7847C11.6641 39.0584 11.886 39.2803 12.1597 39.2803Z" fill="#4AB04A"/>
<path d="M20.5989 18.5533V13.4102H19.6875V18.3589L20.2407 18.4488C20.3656 18.469 20.4851 18.5053 20.5989 18.5533Z" fill="#4AB04A"/>
<path d="M20.2031 21.5416C20.4624 22.1508 20.8507 22.7818 21.4341 23.2791C22.3078 24.0235 23.4355 24.3202 24.7861 24.1612L24.9022 24.1475C29.1158 23.6503 29.7642 23.5736 32.3355 26.7122C34.3648 29.1895 40.17 36.1672 43.0366 39.6103C43.2418 39.3848 43.483 39.1928 43.7538 39.0474C40.8939 35.6123 35.072 28.6146 33.0404 26.1347C30.1532 22.6106 29.125 22.732 24.7955 23.2425L24.6795 23.2562C23.5934 23.3847 22.7012 23.1597 22.0291 22.5886C21.5611 22.1911 21.2457 21.6692 21.0329 21.1602C20.8052 21.3637 20.5186 21.499 20.2031 21.5416Z" fill="#4AB04A"/>
<path d="M45.0191 39.3398C43.8739 39.3398 42.9453 40.2684 42.9453 41.4137C42.9453 42.559 43.8737 43.4875 45.0191 43.4875C46.1646 43.4875 47.093 42.5591 47.093 41.4137C47.093 40.2682 46.1644 39.3398 45.0191 39.3398ZM45.0191 42.3895C44.4802 42.3895 44.0432 41.9526 44.0432 41.4135C44.0432 40.8746 44.4801 40.4376 45.0191 40.4376C45.5582 40.4376 45.9951 40.8744 45.9951 41.4135C45.9951 41.9526 45.5581 42.3895 45.0191 42.3895Z" fill="#4AB04A"/>
<path d="M45.0269 41.9092C45.3006 41.9092 45.5225 41.6873 45.5225 41.4136C45.5225 41.1399 45.3006 40.918 45.0269 40.918C44.7532 40.918 44.5312 41.1399 44.5312 41.4136C44.5312 41.6873 44.7532 41.9092 45.0269 41.9092Z" fill="#4AB04A"/>
<path d="M12.0046 19.9266L19.7944 21.193C19.8605 21.2036 19.926 21.2088 19.9909 21.2088C20.5763 21.2088 21.0918 20.7848 21.1889 20.1885C21.2965 19.5261 20.8468 18.9018 20.1844 18.7941L14.4333 17.8592L16.6142 15.0971C17.0301 14.5703 16.9403 13.8061 16.4137 13.3904C15.8871 12.9746 15.1229 13.0643 14.707 13.5909L11.2459 17.974C10.979 18.312 10.911 18.7658 11.0668 19.1671C11.2228 19.5686 11.5795 19.8573 12.0046 19.9266Z" fill="#4AB04A"/>
</g>
<defs>
<clipPath id="clip0_10254_431">
<rect width="51.6924" height="51.6924" fill="white"/>
</clipPath>
</defs>
</svg>
