<svg width="42" height="42" viewBox="0 0 42 42" fill="none" xmlns="http://www.w3.org/2000/svg">
<path fill-rule="evenodd" clip-rule="evenodd" d="M20.9708 0C32.5526 0 41.9416 9.38888 41.9416 20.9708C41.9416 32.5528 32.5526 41.9416 20.9708 41.9416C9.38887 41.9416 0 32.5528 0 20.9708C0 9.38888 9.38887 0 20.9708 0ZM20.9708 17.7751C22.7357 17.7751 24.1664 19.2058 24.1664 20.9708C24.1664 22.7358 22.7357 24.1665 20.9708 24.1665C19.2058 24.1665 17.7751 22.7358 17.7751 20.9708C17.7751 19.2058 19.2058 17.7751 20.9708 17.7751ZM20.9708 3.50012C25.795 3.50012 30.1628 5.45565 33.3244 8.61723C36.486 11.7788 38.4415 16.1465 38.4415 20.9708C38.4415 25.7952 36.486 30.1628 33.3244 33.3244C30.1628 36.486 25.795 38.4415 20.9708 38.4415C16.1465 38.4415 11.7787 36.486 8.61711 33.3244C5.45553 30.1628 3.50012 25.7952 3.50012 20.9708C3.50012 16.1465 5.45553 11.7788 8.61711 8.61723C11.7787 5.45565 16.1465 3.50012 20.9708 3.50012ZM20.9708 15.2868C17.8315 15.2868 15.2868 17.8315 15.2868 20.9708C15.2868 24.1101 17.8315 26.6548 20.9708 26.6548C24.11 26.6548 26.6548 24.1101 26.6548 20.9708C26.6548 17.8315 24.11 15.2868 20.9708 15.2868ZM23.7763 14.7388L29.3649 6.9702C26.9123 5.49655 24.0406 4.64883 20.9708 4.64883C17.901 4.64883 15.0292 5.49655 12.5766 6.9702L18.1653 14.7388C19.0213 14.3529 19.9709 14.138 20.9708 14.138C21.9706 14.138 22.9204 14.3529 23.7763 14.7388ZM30.3257 7.59445L24.7828 15.2996C25.5158 15.7931 26.1485 16.4258 26.6421 17.1589L34.3472 11.6158C33.7994 10.8341 33.1851 10.1024 32.5121 9.42942C31.8392 8.75639 31.1075 8.14203 30.3257 7.59445ZM34.9713 12.5766L27.2028 18.1653C27.5888 19.0212 27.8035 19.9709 27.8035 20.9708C27.8035 21.9707 27.5888 22.9204 27.2028 23.7763L34.9713 29.3651C36.4451 26.9123 37.2927 24.0406 37.2927 20.9708C37.2927 17.9011 36.4451 15.0292 34.9713 12.5766ZM34.3472 30.3258L26.6421 24.7828C26.1484 25.5159 25.5159 26.1484 24.7828 26.6421L30.3257 34.3472C31.1075 33.7995 31.8392 33.1852 32.5121 32.5122C33.1851 31.8392 33.7995 31.1076 34.3472 30.3258ZM29.3649 34.9714L23.7763 27.2029C22.9204 27.5888 21.9706 27.8036 20.9708 27.8036C19.9709 27.8036 19.0213 27.5888 18.1653 27.2029L12.5766 34.9714C15.0294 36.4451 17.901 37.2928 20.9708 37.2928C24.0406 37.2928 26.9123 36.4451 29.3649 34.9714ZM11.6158 34.3472L17.1587 26.6421C16.4257 26.1484 15.7932 25.5159 15.2994 24.7828L7.59433 30.3257C8.14203 31.1075 8.75639 31.8392 9.42942 32.5122C10.1023 33.1852 10.834 33.7996 11.6158 34.3472ZM6.9702 29.3649L14.7388 23.7763C14.3528 22.9204 14.138 21.9707 14.138 20.9708C14.138 19.9709 14.3529 19.0212 14.7388 18.1653L6.97008 12.5768C5.49643 15.0295 4.64883 17.9012 4.64883 20.9708C4.64883 24.0406 5.49643 26.9123 6.9702 29.3649ZM7.59421 11.616L15.2994 17.1589C15.7931 16.4257 16.4257 15.7932 17.1587 15.2996L11.6158 7.59445C10.834 8.14215 10.1023 8.75639 9.42942 9.42942C8.75627 10.1024 8.14191 10.8341 7.59421 11.616Z" fill="#4AB04A"/>
</svg>
