<svg width="52" height="32" viewBox="0 0 52 32" fill="none" xmlns="http://www.w3.org/2000/svg">
<path d="M1.85628 16.6155H0.923093C0.413236 16.6155 0 16.2021 0 15.6924C0 15.1826 0.413236 14.7693 0.923093 14.7693H1.85628C1.84609 15.2022 1.84609 15.5253 1.84609 15.6924C1.84619 15.8595 1.84619 16.1826 1.85628 16.6155ZM8.22556 27.6924H5.61882C4.90896 27.1432 3.69227 22.789 3.69227 15.6924C3.69227 8.59578 4.90886 4.24625 5.61872 3.69237H8.22273C7.64391 7.66582 7.36375 11.677 7.38454 15.6924C7.36364 19.7077 7.64381 23.7189 8.22273 27.6924H8.22556ZM15.6711 31.3848H11.2255C10.5166 30.5992 9.23073 25.2924 9.23073 15.6924C9.23073 6.09233 10.5166 0.785583 11.2255 0H15.6684C13.9551 4.02373 13.8462 13.4087 13.8462 15.6924C13.8462 17.976 13.9551 27.361 15.6684 31.3848H15.6711ZM17.5921 16.813C17.6815 17.7228 18.4321 18.4252 19.3459 18.4542C19.1409 25.8259 18.1754 30.0388 17.5385 31.1705C16.8139 29.8782 15.6923 24.6591 15.6923 15.6924C15.6923 6.72567 16.8139 1.50282 17.5385 0.214241C18.1754 1.34592 19.1409 5.55885 19.3431 12.9306C18.4296 12.9596 17.6791 13.6613 17.5893 14.5709C17.5569 14.9069 17.5385 15.2808 17.5385 15.6925C17.5385 16.1042 17.5569 16.4781 17.5893 16.8131H17.5921V16.813ZM32.2681 16.6155H31.4114H31.4041H31.3847H31.3782L20.3936 16.6339C20.3613 16.6339 20.3336 16.6146 20.3013 16.6137C20.2649 16.6182 20.2288 16.625 20.1933 16.6339H19.4225C19.3994 16.3543 19.3847 16.0395 19.3847 15.6924C19.3847 15.3453 19.3994 15.0306 19.4243 14.7693H32.2662C32.293 15.0462 32.3078 15.3537 32.3078 15.6924C32.3078 16.0311 32.293 16.3542 32.2681 16.6155ZM34.1539 31.1705C33.517 30.0388 32.5515 25.8259 32.3494 18.4542C33.2629 18.4252 34.0133 17.7234 34.1032 16.8139C34.1355 16.4779 34.1539 16.104 34.1539 15.6923C34.1539 15.2806 34.1355 14.9067 34.1032 14.5717C34.0137 13.6618 33.2632 12.9594 32.3494 12.9305C32.5515 5.55875 33.5171 1.34582 34.1539 0.21414C34.8785 1.50645 36.0001 6.72557 36.0001 15.6923C36.0001 24.659 34.8785 29.882 34.1539 31.1705ZM40.4669 31.3848H36.0241C37.7373 27.361 37.8462 17.9761 37.8462 15.6924C37.8462 13.4087 37.7373 4.02373 36.0241 0H40.4669C41.1758 0.785583 42.4617 6.09233 42.4617 15.6924C42.4617 25.2924 41.1757 30.5992 40.4669 31.3848ZM46.0736 27.6924H43.4696C44.0484 23.7189 44.3286 19.7077 44.3078 15.6924C44.3287 11.677 44.0485 7.66582 43.4696 3.69237H46.0736C46.7834 4.24625 48 8.59578 48 15.6924C48 22.789 46.7834 27.1432 46.0736 27.6924ZM51.6924 15.6924C51.6924 16.2021 51.2792 16.6155 50.7693 16.6155H49.8361C49.8444 16.1826 49.8463 15.8595 49.8463 15.6924C49.8463 15.5253 49.8463 15.2022 49.8361 14.7693H50.7693C51.2792 14.7693 51.6924 15.1826 51.6924 15.6924Z" fill="#4AB04A"/>
</svg>
