<svg width="77" height="55" viewBox="0 0 77 55" fill="none" xmlns="http://www.w3.org/2000/svg">
<g clip-path="url(#clip0_8109_583)">
<path d="M0 0V55H77V0H0ZM48.9916 26.3484C48.4043 27.0667 47.3262 27.5392 46.4958 27.93C44.0511 29.0804 41.3824 28.8358 38.7311 28.8358C36.452 28.8358 34.0945 29.0467 31.8908 28.4367C29.6874 27.8267 27.7891 26.22 26.1597 24.6901L11.7395 9.30486C14.5232 9.30486 17.7463 8.87423 20.3361 10.0573C22.5525 11.0696 24.3575 12.76 26.0672 14.464C27.4318 15.824 28.836 17.1762 30.1345 18.6097C32.2163 20.9081 34.3791 23.2282 37.0672 24.8283C38.3507 25.5922 39.933 26.113 41.4118 26.2563C42.6785 26.379 44.0205 26.2563 45.2941 26.2563H47.6975C48.1212 26.2563 48.6067 26.1869 48.9916 26.3484ZM65.4454 9.30486L50.6555 25.0126L43.1681 25.0586C42.2314 25.0586 41.1722 25.1472 40.3025 24.7822C40.7564 24.1449 41.8022 23.6882 42.4286 23.1854C43.7541 22.1211 44.9477 20.8487 46.1261 19.6231C48.2079 17.458 50.1728 15.1888 52.4118 13.1742C54.0813 11.6721 55.9112 10.168 58.1429 9.61192C60.4687 9.03245 63.0526 9.30486 65.4454 9.30486ZM64.521 33.1812C65.1715 33.0822 65.8958 33.1658 66.5546 33.1658C68.4634 33.1658 70.9571 33.0388 72.2549 34.732C73.0495 35.7687 73.1812 36.9895 73.3025 38.2328C73.4139 39.3744 73.4139 40.5 73.3025 41.6415C73.1651 43.0506 73.0262 44.5606 71.916 45.603C71.1648 46.3083 69.9607 46.6114 68.958 46.7085C67.5829 46.8418 66.1721 46.8417 64.7983 46.7085C63.3014 46.5635 61.901 46.4426 60.8235 45.2345C60.2184 44.556 60.0483 43.6076 59.8684 42.7471C59.6851 41.8704 59.7143 40.9736 59.7143 40.0754C59.7143 38.2059 59.6413 35.9238 61.0238 34.4556C61.9123 33.512 63.3221 33.3637 64.521 33.1812ZM8.04202 38.5092L14.8361 38.5246L14.8824 41.1809H7.94958C7.94958 41.7816 7.76092 42.7807 8.16526 43.2845C8.59618 43.8214 9.47498 43.6683 10.0756 43.6683H15.0672V46.6164H7.57983C6.75938 46.6164 5.45543 46.7062 4.77734 46.143C3.99821 45.4959 4.15967 44.4658 4.15967 43.5762V36.3903C4.15967 35.4669 3.92945 34.1808 4.80673 33.565C5.46525 33.1028 6.44862 33.258 7.21009 33.258L15.0041 33.2113L14.9594 36.2521L9.79832 36.2982C9.34306 36.2982 8.69865 36.1847 8.31933 36.4978C7.79511 36.9304 7.87314 37.9277 8.04202 38.5092ZM27.4538 43.5762V46.6164H19.6891C18.7637 46.6164 17.4586 46.8622 16.8543 45.9715C16.3317 45.201 16.5462 43.9018 16.5462 43.0235L16.5853 33.2342L20.4398 33.2803L20.4286 40.9967L20.4565 42.9968C20.4664 43.7033 21.8454 43.5762 22.4622 43.5762H27.4538ZM39.563 33.258V36.2982L33.2773 36.3288C32.6097 36.4859 32.4454 37.0637 32.4454 37.6801C32.4454 37.9404 32.4037 38.2166 32.6303 38.4017L39.3319 38.5399L39.3782 41.1809H32.4454C32.4454 41.7848 32.2686 42.8251 32.7227 43.2998C33.2053 43.8045 34.0351 43.6683 34.6639 43.6683H39.6555V46.6164H32.3529C31.5173 46.6164 30.0958 46.7166 29.3711 46.2352C28.4509 45.6237 28.6555 44.6165 28.6555 43.6683V36.3903C28.6555 35.4495 28.4233 34.1158 29.395 33.5497C30.2714 33.0391 31.5564 33.258 32.5378 33.258H39.563ZM44.9244 33.258V46.6164L41.1135 46.6193L41.1345 33.258L44.9244 33.258ZM50.2857 33.258L50.3221 38.4577L51.4092 38.4715L54.9076 33.304L59.3445 33.3501L55.8474 37.8643C55.4433 38.4012 54.6863 39.0549 54.7381 39.799C54.7898 40.5412 55.6537 41.2812 56.0938 41.8258L59.9916 46.6164L55.3936 46.5802C54.04 44.7799 52.6015 42.7388 51.4005 41.1795L50.2857 41.1809L50.2395 46.5857L46.4986 46.5956C46.4926 42.1497 46.4958 37.7038 46.4958 33.258L50.2857 33.258ZM65.8152 36.2367C65.2246 36.3757 64.5483 36.609 64.1821 37.1273C63.8569 37.5876 63.7422 38.1496 63.6891 38.6935C63.556 40.0583 63.3142 42.1777 64.521 43.177C65.2284 43.7627 66.6115 43.8178 67.479 43.6377C69.1429 43.2922 69.4202 41.7167 69.4202 40.2596C69.4202 39.1933 69.5472 37.5394 68.5883 36.7895C68.2885 36.5551 67.9278 36.4582 67.5715 36.3596C67.2781 36.2783 67.048 36.206 66.7395 36.206C66.439 36.206 66.1092 36.1675 65.8152 36.2367Z" fill="black"/>
</g>
<defs>
<clipPath id="clip0_8109_583">
<rect width="77" height="55" fill="white"/>
</clipPath>
</defs>
</svg>
