<svg width="175" height="55" viewBox="0 0 175 55" fill="none" xmlns="http://www.w3.org/2000/svg">
<path d="M17.8315 18.0734C18.2122 16.1023 19.9744 14.4477 21.9449 14.0772C22.215 14.0257 22.0221 14 21.9398 14H17.5279C15.2461 14 13.026 15.8321 12.5938 18.0734L8.15625 40.9981H9.24957C11.5314 40.9981 13.7515 39.1788 14.1836 36.9376L17.8315 18.0734Z" fill="black"/>
<path d="M48.8408 14H35.0136C32.7344 14 30.5143 15.8321 30.0821 18.0734L25.6445 40.9981H28.4846C30.769 40.9981 32.9865 39.1763 33.4187 36.9376L36.732 19.8129C36.8401 19.2493 37.3958 18.7913 37.9643 18.7913H44.4804C45.0515 18.7913 45.4271 19.2493 45.3216 19.8103L44.2386 25.4096C44.1306 25.968 43.5775 26.426 43.0064 26.426H36.5108L36.3796 27.1105C35.9449 29.3492 37.4575 31.1839 39.7367 31.1839H45.5197C47.799 31.1839 50.0191 29.3492 50.4512 27.1105L52.2031 18.0734C52.6327 15.8321 51.1201 14 48.8408 14Z" fill="black"/>
<path d="M114.895 40.2699C115.327 38.0286 113.817 36.1991 111.535 36.1991H105.431C104.859 36.1991 104.479 35.741 104.589 35.1826L107.558 19.8154C107.666 19.2519 108.222 18.7939 108.79 18.7939H114.9C117.179 18.7939 119.399 16.9592 119.831 14.7205L119.973 14H105.845C103.565 14 101.345 15.8321 100.911 18.0708L97.2809 36.9247C96.8487 39.166 98.3587 40.9955 100.641 40.9955H114.753L114.895 40.2673V40.2699Z" fill="black"/>
<path d="M140.181 14H125.919C123.637 14 121.42 15.8321 120.982 18.0708L117.355 36.9247C116.923 39.166 118.433 40.9955 120.715 40.9955H134.961C137.241 40.9955 139.463 39.166 139.895 36.9247L143.541 18.0708C143.97 15.8321 142.46 14 140.181 14ZM124.664 35.1801L127.635 19.8103C127.74 19.2493 128.299 18.7913 128.87 18.7913H135.388C135.957 18.7913 136.335 19.2493 136.227 19.8103L133.256 35.1801C133.148 35.7384 132.592 36.1965 132.024 36.1965H125.502C124.934 36.1965 124.556 35.7384 124.664 35.1801Z" fill="black"/>
<path d="M75.2182 27.1105L76.9675 18.0734C77.4023 15.8321 75.8896 14 73.6078 14H59.7831C57.5013 14 55.2838 15.8321 54.8516 18.0734L50.4141 40.9981H57.401L61.5016 19.8103C61.607 19.2493 62.1627 18.7913 62.7338 18.7913H69.2448C69.8159 18.7913 70.1941 19.2493 70.086 19.8103L69.0056 25.4096C68.8975 25.968 68.3419 26.426 67.7734 26.426H61.2752L61.144 27.1105C61.054 27.5814 60.9768 28.5309 61.3652 29.272L68.0177 40.9981H75.478L69.9111 31.1839H70.2867C72.5685 31.1839 74.7886 29.3492 75.2208 27.1105" fill="black"/>
<path d="M166.559 27.1105L168.311 18.0734C168.741 15.8321 167.231 14 164.949 14H151.127C148.845 14 146.625 15.8321 146.193 18.0734L141.758 40.9981H148.745L152.843 19.8103C152.951 19.2493 153.506 18.7913 154.075 18.7913H160.594C161.162 18.7913 161.54 19.2493 161.43 19.8103L160.349 25.4096C160.239 25.968 159.688 26.426 159.117 26.426H152.619L152.488 27.1105C152.398 27.5814 152.321 28.5309 152.706 29.272L159.361 40.9981H166.819L161.252 31.1839H161.63C163.912 31.1839 166.13 29.3492 166.565 27.1105" fill="black"/>
<path d="M27.4506 18.0708C27.8288 16.11 29.5755 14.4632 31.5358 14.0823C31.8162 14.0283 31.6541 14 31.5538 14H25.4003C23.1185 14 20.901 15.8321 20.4663 18.0734L16.0312 40.9981H18.8687C21.1531 40.9981 23.3706 39.1788 23.8054 36.9376L27.4532 18.0708H27.4506Z" fill="black"/>
<path d="M6.45854 18.0734L2.03125 40.9492C4.06353 40.6378 5.91059 38.9601 6.30162 36.9401L9.94686 18.0734C10.3276 16.1049 12.0872 14.4529 14.0552 14.0798C14.3278 14.0283 14.1143 14 14.0552 14H11.3926C9.1108 14 6.89072 15.8321 6.45854 18.0734Z" fill="black"/>
<path d="M85.025 14C82.7432 14 80.5231 15.8321 80.091 18.0708L76.4611 36.9247C76.0264 39.166 77.5416 40.9955 79.8209 40.9955H94.6462L94.7851 40.2699C95.2173 38.0312 93.7073 36.1965 91.4254 36.1965H84.6031C84.0346 36.1965 83.6565 35.741 83.7645 35.1801L84.7987 29.8329H94.3195L95.2353 25.1008H85.7119L86.7358 19.8154V19.8103C86.8438 19.2493 87.3995 18.7913 87.968 18.7913H94.7903C97.0721 18.7913 99.2922 16.9566 99.7244 14.7205L99.8658 14H85.025Z" fill="black"/>
<path d="M172.485 16.2674C172.701 16.2674 172.833 16.2159 172.833 15.974C172.833 15.7321 172.701 15.673 172.485 15.673H171.981V16.2674H172.485ZM171.981 17.5308C171.981 17.7187 171.917 17.8525 171.685 17.8525C171.454 17.8525 171.387 17.7444 171.387 17.5308V15.4748C171.387 15.323 171.441 15.1969 171.69 15.1969H172.447C172.984 15.1969 173.435 15.3565 173.435 15.9766C173.435 16.4501 173.198 16.6868 172.776 16.71L173.244 17.4819C173.273 17.5334 173.285 17.5823 173.285 17.6234C173.285 17.7701 173.193 17.855 172.972 17.855C172.763 17.855 172.691 17.6929 172.609 17.5334L172.189 16.7511H171.986V17.5334L171.981 17.5308ZM172.364 18.3311C173.393 18.3311 174.222 17.5025 174.222 16.4809C174.222 15.4594 173.393 14.6282 172.364 14.6282C171.335 14.6282 170.517 15.4542 170.517 16.4809C170.517 17.5077 171.341 18.3311 172.364 18.3311ZM172.364 14.0312C173.72 14.0312 174.816 15.1274 174.816 16.4809C174.816 17.8344 173.72 18.9306 172.364 18.9306C171.009 18.9306 169.918 17.8319 169.918 16.4809C169.918 15.13 171.022 14.0312 172.364 14.0312Z" fill="black"/>
</svg>
