<svg width="182" height="43" viewBox="0 0 182 43" fill="none" xmlns="http://www.w3.org/2000/svg">
<mask id="mask0_7132_2824" style="mask-type:luminance" maskUnits="userSpaceOnUse" x="47" y="9" width="14" height="4">
<path d="M47.9102 9.64992H60.7577V12.2578H47.9102V9.64992Z" fill="white"/>
</mask>
<g mask="url(#mask0_7132_2824)">
<path d="M43.5664 16.6016H65.1023V5.30534H43.5664V16.6016Z" fill="#1263DF"/>
</g>
<mask id="mask1_7132_2824" style="mask-type:luminance" maskUnits="userSpaceOnUse" x="3" y="8" width="34" height="27">
<path d="M20.2436 13.1049H10.8419V19.6748H20.2436C22.8138 19.6748 24.5952 19.4328 25.5937 18.9631C26.5919 18.4931 27.0952 17.6255 27.0952 16.3386C27.0952 15.2624 26.8325 14.5148 26.2928 14.1309C25.3307 13.4524 23.3032 13.1049 20.2466 13.1049H20.2436ZM10.8222 34.4103H3.16797V8.46751H22.0111C26.3628 8.46751 29.5981 9.07639 31.6956 10.3107C33.793 11.5454 34.8417 13.5445 34.8417 16.305C34.8417 18.1819 34.2461 19.7278 33.0603 20.9621C31.7852 22.2827 29.9311 23.1528 27.5008 23.5699L36.503 34.4297H27.9372L19.8438 24.2817H10.8419L10.8249 34.4131L10.8222 34.4103Z" fill="white"/>
</mask>
<g mask="url(#mask1_7132_2824)">
<mask id="mask2_7132_2824" style="mask-type:luminance" maskUnits="userSpaceOnUse" x="3" y="7" width="180" height="29">
<path d="M3.16797 35.4062H182.148V7.60357H3.16797V35.4062Z" fill="white"/>
</mask>
<g mask="url(#mask2_7132_2824)">
<path d="M3.16797 35.4062H40.8472V4.12824H3.16797V35.4062Z" fill="black"/>
</g>
</g>
<mask id="mask3_7132_2824" style="mask-type:luminance" maskUnits="userSpaceOnUse" x="35" y="8" width="38" height="27">
<path d="M44.2241 21.4295C44.2241 27.5128 47.5271 30.571 54.1353 30.571C60.7605 30.571 64.0797 27.5657 64.0797 21.5521C64.0797 15.5049 60.7574 12.4992 54.1353 12.4992C50.813 12.4992 48.3158 13.3002 46.6182 14.8794C45.0268 16.3917 44.2241 18.5797 44.2241 21.4295ZM54.082 7.99825C59.6921 7.99825 63.9766 8.88507 66.9295 10.6394C70.6349 12.8108 72.489 16.4253 72.489 21.4991C72.489 30.499 66.3899 35 54.1885 35C47.9493 35 43.335 33.8712 40.3456 31.6306C37.3726 29.3896 35.8711 25.9838 35.8711 21.4295C35.8878 12.4799 41.9367 7.99825 54.0851 7.99825H54.082Z" fill="white"/>
</mask>
<g mask="url(#mask3_7132_2824)">
<mask id="mask4_7132_2824" style="mask-type:luminance" maskUnits="userSpaceOnUse" x="3" y="7" width="180" height="29">
<path d="M3.16797 35.4062H182.148V7.60357H3.16797V35.4062Z" fill="white"/>
</mask>
<g mask="url(#mask4_7132_2824)">
<path d="M31.5273 35.4062H76.8336V3.65985H31.5273V35.4062Z" fill="black"/>
</g>
</g>
<mask id="mask5_7132_2824" style="mask-type:luminance" maskUnits="userSpaceOnUse" x="73" y="8" width="35" height="27">
<path d="M99.9101 29.7346V23.6708H89.7024V19.0832H107.757V34.4609H91.2739C79.7549 34.4609 73.9883 30.2905 73.9883 21.9664C73.9883 17.1538 75.5265 13.6592 78.6027 11.4708C81.4159 9.49148 85.6276 8.51543 91.2739 8.51543H107.757V13.0334H91.2739C88.5107 13.0334 86.4496 13.6062 85.1047 14.771C83.463 16.1445 82.641 18.4551 82.641 21.705C82.641 24.3797 83.2533 26.3455 84.4588 27.6297C85.8234 29.0562 88.0943 29.7679 91.293 29.7679H99.9101V29.7319V29.7346Z" fill="white"/>
</mask>
<g mask="url(#mask5_7132_2824)">
<mask id="mask6_7132_2824" style="mask-type:luminance" maskUnits="userSpaceOnUse" x="3" y="7" width="180" height="29">
<path d="M3.16797 35.4062H182.148V7.60357H3.16797V35.4062Z" fill="white"/>
</mask>
<g mask="url(#mask6_7132_2824)">
<path d="M69.6445 35.4062H112.101V4.17681H69.6445V35.4062Z" fill="black"/>
</g>
</g>
<mask id="mask7_7132_2824" style="mask-type:luminance" maskUnits="userSpaceOnUse" x="110" y="8" width="33" height="27">
<path d="M110.905 24.2442V8.51905H118.596V24.1051C118.596 26.2958 119.032 27.8417 119.908 28.7622C121.113 29.9799 123.44 30.6054 126.845 30.6054C129.748 30.6054 131.793 30.1883 132.945 29.3374C134.307 28.381 134.973 26.6268 134.973 24.1078V8.52174H142.593V24.2469C142.593 27.8611 141.668 30.3967 139.796 31.8927C137.472 33.7858 133.155 34.7422 126.826 34.7422C120.62 34.7422 116.339 33.8387 113.979 31.9982C111.935 30.469 110.902 27.8808 110.902 24.2469L110.905 24.2442Z" fill="white"/>
</mask>
<g mask="url(#mask7_7132_2824)">
<mask id="mask8_7132_2824" style="mask-type:luminance" maskUnits="userSpaceOnUse" x="3" y="7" width="180" height="29">
<path d="M3.16797 35.4062H182.148V7.60357H3.16797V35.4062Z" fill="white"/>
</mask>
<g mask="url(#mask8_7132_2824)">
<path d="M106.559 35.4062H146.937V4.17985H106.559V35.4062Z" fill="black"/>
</g>
</g>
<mask id="mask9_7132_2824" style="mask-type:luminance" maskUnits="userSpaceOnUse" x="144" y="8" width="31" height="27">
<path d="M174.211 8.51747V13.0354H161.611C156.21 13.0354 153.327 15.051 152.958 19.0989H174.211V23.6168H152.974C152.974 25.8941 153.657 27.5259 155.035 28.4989C156.414 29.4723 158.601 29.9586 161.607 29.9586H174.209V34.4766H161.275C149.895 34.4766 144.199 30.3062 144.199 21.982C144.199 17.7061 145.404 14.4588 147.834 12.268C150.648 9.76572 155.193 8.51442 161.485 8.51442H174.209L174.211 8.51747Z" fill="white"/>
</mask>
<g mask="url(#mask9_7132_2824)">
<mask id="mask10_7132_2824" style="mask-type:luminance" maskUnits="userSpaceOnUse" x="3" y="7" width="180" height="29">
<path d="M3.16797 35.4062H182.148V7.60357H3.16797V35.4062Z" fill="white"/>
</mask>
<g mask="url(#mask10_7132_2824)">
<path d="M139.855 35.4062H178.557V4.17681H139.855V35.4062Z" fill="black"/>
</g>
</g>
<mask id="mask11_7132_2824" style="mask-type:luminance" maskUnits="userSpaceOnUse" x="177" y="8" width="5" height="6">
<path d="M179.437 10.6061C179.804 10.6061 180.224 10.6227 180.224 10.136C180.224 9.73551 179.91 9.68294 179.61 9.68294H178.999V10.603H179.435L179.437 10.6061ZM179.001 12.1713H178.615V9.37407H179.701C180.33 9.37407 180.609 9.65236 180.609 10.1553C180.609 10.6586 180.276 10.8674 179.963 10.9366L180.749 12.188H180.313L179.544 10.9366H179.001V12.1713ZM181.484 10.7615C181.484 9.61335 180.629 8.70993 179.493 8.70993C178.358 8.70993 177.503 9.61335 177.503 10.7615C177.503 11.91 178.358 12.7941 179.493 12.7941C180.629 12.7941 181.484 11.8903 181.484 10.7615ZM181.868 10.7615C181.868 12.0655 180.802 13.125 179.49 13.125C178.178 13.125 177.113 12.0655 177.113 10.7615C177.113 9.45757 178.178 8.39837 179.49 8.39837C180.802 8.39837 181.868 9.45757 181.868 10.7615Z" fill="white"/>
</mask>
<g mask="url(#mask11_7132_2824)">
<mask id="mask12_7132_2824" style="mask-type:luminance" maskUnits="userSpaceOnUse" x="3" y="7" width="180" height="29">
<path d="M3.16797 35.4062H182.148V7.60357H3.16797V35.4062Z" fill="white"/>
</mask>
<g mask="url(#mask12_7132_2824)">
<path d="M172.77 17.4688H186.212V4.05379H172.77V17.4688Z" fill="black"/>
</g>
</g>
</svg>
