<svg width="183" height="43" viewBox="0 0 183 43" fill="none" xmlns="http://www.w3.org/2000/svg">
<g clip-path="url(#clip0_3306_795)">
<mask id="mask0_3306_795" style="mask-type:luminance" maskUnits="userSpaceOnUse" x="48" y="9" width="14" height="4">
<path d="M48.2734 9.64992H61.121V12.2578H48.2734V9.64992Z" fill="white"/>
</mask>
<g mask="url(#mask0_3306_795)">
<path d="M43.9297 16.6016H65.4655V5.30534H43.9297V16.6016Z" fill="#1263DF"/>
</g>
<mask id="mask1_3306_795" style="mask-type:luminance" maskUnits="userSpaceOnUse" x="3" y="8" width="34" height="27">
<path d="M20.6069 13.1049H11.2052V19.6748H20.6069C23.1771 19.6748 24.9585 19.4328 25.957 18.9631C26.9552 18.4931 27.4585 17.6255 27.4585 16.3386C27.4585 15.2624 27.1958 14.5148 26.6561 14.1309C25.694 13.4524 23.6665 13.1049 20.6099 13.1049H20.6069ZM11.1855 34.4103H3.53125V8.46751H22.3744C26.7261 8.46751 29.9614 9.07639 32.0589 10.3107C34.1562 11.5454 35.205 13.5445 35.205 16.305C35.205 18.1819 34.6093 19.7278 33.4236 20.9621C32.1485 22.2827 30.2944 23.1528 27.8641 23.5699L36.8663 34.4297H28.3005L20.2071 24.2817H11.2052L11.1882 34.4131L11.1855 34.4103Z" fill="white"/>
</mask>
<g mask="url(#mask1_3306_795)">
<mask id="mask2_3306_795" style="mask-type:luminance" maskUnits="userSpaceOnUse" x="3" y="7" width="180" height="29">
<path d="M3.53125 35.4062H182.511V7.60357H3.53125V35.4062Z" fill="white"/>
</mask>
<g mask="url(#mask2_3306_795)">
<path d="M3.53125 35.4062H41.2105V4.12824H3.53125V35.4062Z" fill="black"/>
</g>
</g>
<mask id="mask3_3306_795" style="mask-type:luminance" maskUnits="userSpaceOnUse" x="36" y="7" width="37" height="28">
<path d="M44.5874 21.4295C44.5874 27.5128 47.8904 30.571 54.4986 30.571C61.1238 30.571 64.443 27.5657 64.443 21.5521C64.443 15.5049 61.1207 12.4992 54.4986 12.4992C51.1763 12.4992 48.6791 13.3002 46.9815 14.8794C45.3901 16.3917 44.5874 18.5797 44.5874 21.4295ZM54.4453 7.99825C60.0554 7.99825 64.3398 8.88507 67.2928 10.6394C70.9982 12.8108 72.8523 16.4253 72.8523 21.4991C72.8523 30.499 66.7532 35 54.5518 35C48.3125 35 43.6983 33.8712 40.7089 31.6306C37.7359 29.3896 36.2344 25.9838 36.2344 21.4295C36.2511 12.4799 42.3 7.99825 54.4483 7.99825H54.4453Z" fill="white"/>
</mask>
<g mask="url(#mask3_3306_795)">
<mask id="mask4_3306_795" style="mask-type:luminance" maskUnits="userSpaceOnUse" x="3" y="7" width="180" height="29">
<path d="M3.53125 35.4062H182.511V7.60357H3.53125V35.4062Z" fill="white"/>
</mask>
<g mask="url(#mask4_3306_795)">
<path d="M31.8906 35.4062H77.1969V3.65985H31.8906V35.4062Z" fill="black"/>
</g>
</g>
<mask id="mask5_3306_795" style="mask-type:luminance" maskUnits="userSpaceOnUse" x="74" y="8" width="35" height="27">
<path d="M100.273 29.7346V23.6708H90.0656V19.0832H108.12V34.4609H91.6372C80.1182 34.4609 74.3516 30.2905 74.3516 21.9664C74.3516 17.1538 75.8897 13.6592 78.9659 11.4708C81.7791 9.49148 85.9909 8.51543 91.6372 8.51543H108.12V13.0334H91.6372C88.874 13.0334 86.8129 13.6062 85.4679 14.771C83.8263 16.1445 83.0043 18.4551 83.0043 21.705C83.0043 24.3797 83.6165 26.3455 84.822 27.6297C86.1867 29.0562 88.4576 29.7679 91.6563 29.7679H100.273V29.7319V29.7346Z" fill="white"/>
</mask>
<g mask="url(#mask5_3306_795)">
<mask id="mask6_3306_795" style="mask-type:luminance" maskUnits="userSpaceOnUse" x="3" y="7" width="180" height="29">
<path d="M3.53125 35.4062H182.511V7.60357H3.53125V35.4062Z" fill="white"/>
</mask>
<g mask="url(#mask6_3306_795)">
<path d="M70.0078 35.4062H112.465V4.17681H70.0078V35.4062Z" fill="black"/>
</g>
</g>
<mask id="mask7_3306_795" style="mask-type:luminance" maskUnits="userSpaceOnUse" x="111" y="8" width="32" height="27">
<path d="M111.268 24.2442V8.51905H118.959V24.1051C118.959 26.2958 119.395 27.8417 120.271 28.7622C121.476 29.9799 123.803 30.6054 127.209 30.6054C130.111 30.6054 132.156 30.1883 133.308 29.3374C134.67 28.381 135.336 26.6268 135.336 24.1078V8.52174H142.956V24.2469C142.956 27.8611 142.031 30.3967 140.16 31.8927C137.835 33.7858 133.518 34.7422 127.19 34.7422C120.984 34.7422 116.702 33.8387 114.342 31.9982C112.298 30.469 111.266 27.8808 111.266 24.2469L111.268 24.2442Z" fill="white"/>
</mask>
<g mask="url(#mask7_3306_795)">
<mask id="mask8_3306_795" style="mask-type:luminance" maskUnits="userSpaceOnUse" x="3" y="7" width="180" height="29">
<path d="M3.53125 35.4062H182.511V7.60357H3.53125V35.4062Z" fill="white"/>
</mask>
<g mask="url(#mask8_3306_795)">
<path d="M106.922 35.4062H147.301V4.17985H106.922V35.4062Z" fill="black"/>
</g>
</g>
<mask id="mask9_3306_795" style="mask-type:luminance" maskUnits="userSpaceOnUse" x="144" y="8" width="31" height="27">
<path d="M174.575 8.51747V13.0354H161.974C156.573 13.0354 153.69 15.051 153.321 19.0989H174.575V23.6168H153.338C153.338 25.8941 154.021 27.5259 155.399 28.4989C156.777 29.4723 158.964 29.9586 161.97 29.9586H174.572V34.4766H161.639C150.259 34.4766 144.562 30.3062 144.562 21.982C144.562 17.7061 145.768 14.4588 148.198 12.268C151.011 9.76572 155.556 8.51442 161.848 8.51442H174.572L174.575 8.51747Z" fill="white"/>
</mask>
<g mask="url(#mask9_3306_795)">
<mask id="mask10_3306_795" style="mask-type:luminance" maskUnits="userSpaceOnUse" x="3" y="7" width="180" height="29">
<path d="M3.53125 35.4062H182.511V7.60357H3.53125V35.4062Z" fill="white"/>
</mask>
<g mask="url(#mask10_3306_795)">
<path d="M140.219 35.4062H178.92V4.17681H140.219V35.4062Z" fill="black"/>
</g>
</g>
<mask id="mask11_3306_795" style="mask-type:luminance" maskUnits="userSpaceOnUse" x="177" y="8" width="6" height="6">
<path d="M179.801 10.6061C180.167 10.6061 180.587 10.6227 180.587 10.136C180.587 9.73551 180.273 9.68294 179.974 9.68294H179.362V10.603H179.798L179.801 10.6061ZM179.365 12.1713H178.979V9.37407H180.064C180.693 9.37407 180.973 9.65236 180.973 10.1553C180.973 10.6586 180.639 10.8674 180.326 10.9366L181.113 12.188H180.676L179.908 10.9366H179.365V12.1713ZM181.848 10.7615C181.848 9.61335 180.992 8.70993 179.856 8.70993C178.722 8.70993 177.866 9.61335 177.866 10.7615C177.866 11.91 178.722 12.7941 179.856 12.7941C180.992 12.7941 181.848 11.8903 181.848 10.7615ZM182.231 10.7615C182.231 12.0655 181.166 13.125 179.854 13.125C178.542 13.125 177.477 12.0655 177.477 10.7615C177.477 9.45757 178.542 8.39837 179.854 8.39837C181.166 8.39837 182.231 9.45757 182.231 10.7615Z" fill="white"/>
</mask>
<g mask="url(#mask11_3306_795)">
<mask id="mask12_3306_795" style="mask-type:luminance" maskUnits="userSpaceOnUse" x="3" y="7" width="180" height="29">
<path d="M3.53125 35.4062H182.511V7.60357H3.53125V35.4062Z" fill="white"/>
</mask>
<g mask="url(#mask12_3306_795)">
<path d="M173.133 17.4688H186.575V4.05379H173.133V17.4688Z" fill="black"/>
</g>
</g>
</g>
<defs>
<clipPath id="clip0_3306_795">
<rect width="182" height="43" fill="white" transform="translate(0.363281)"/>
</clipPath>
</defs>
</svg>
