<svg width="218" height="57" viewBox="0 0 218 57" fill="none" xmlns="http://www.w3.org/2000/svg">
<g clip-path="url(#clip0_7132_2893)">
<path d="M153.961 5.00769L153.836 4.88281H153.659H20.8051H20.3789V5.30958V22.4461V22.623L20.5038 22.7481L27.3685 29.6166L27.4933 29.7415H27.6697H30.7105V39.9297V40.1065L30.8354 40.2316L37.0066 46.4063L37.1314 46.5312H37.3079H50.621H51.0472V46.1044V44.1028H79.6375L88.0418 52.4435L88.1662 52.5672H88.3418H162.258H162.511L162.632 52.3445L167.156 44.0335H197.205H197.631V43.6068V26.157C198.739 25.453 199.564 24.2834 199.709 22.8356L199.711 22.8144V22.793C199.711 21.6648 199.406 20.6628 198.641 19.7445L198.629 19.7297L198.615 19.716L191.009 12.1049C190.642 11.6272 190.116 11.2663 189.567 11.0243C189.008 10.7777 188.395 10.6412 187.844 10.6411L187.834 10.6414C186.194 10.6795 185.165 11.4506 184.555 12.2154C184.254 12.5935 184.056 12.9678 183.934 13.2479C183.907 13.3085 183.884 13.365 183.864 13.4164H162.365L153.961 5.00769Z" fill="white" stroke="black" stroke-width="0.461369"/>
<path d="M38.0016 37.2185H41.746V15.9193H132.997V12.2422H25.3125V15.9193H38.0016V37.2185Z" fill="#0D0D0D"/>
<path d="M48.5412 29.3755H55.1285V26.0453H48.5412V24.4496H58.9422V20.7031H44.7969V34.7871H59.1501V31.0406H48.5412V29.3755Z" fill="#0D0D0D"/>
<path d="M94.86 34.7871V20.7031H91.1157V25.9759H83.5577V20.7031H79.8828V34.7871H83.5577V29.3755H91.1157V34.7871H94.86Z" fill="#0D0D0D"/>
<path d="M109.146 34.7871H114.277V20.7031H110.533V30.6936L102.698 20.7031H97.5664V34.7871H101.311V24.8659L109.146 34.7871Z" fill="#0D0D0D"/>
<path d="M73.4314 29.4447V29.9305C73.4314 30.4856 72.946 30.9711 72.3912 30.9711H65.8734C65.3186 30.9711 64.8332 30.4856 64.8332 29.9305V25.4903C64.8332 24.9352 65.3186 24.4496 65.8734 24.4496H72.3218C72.8766 24.4496 73.362 24.9352 73.362 25.4903V25.9759H77.1063V24.9352C77.1063 22.6457 75.2342 20.7031 72.8766 20.7031H65.2492C62.9612 20.7031 61.0195 22.5764 61.0195 24.9352V30.5548C61.0195 32.8445 62.8918 34.7871 65.2492 34.7871H72.8766C75.1648 34.7871 77.1063 32.9137 77.1063 30.5548V29.4447H73.4314Z" fill="#0D0D0D"/>
<path d="M140.345 34.791H153.173V24.4536H145.753V28.2H149.428V31.0447H140.622C139.998 31.0447 139.513 30.4896 139.513 29.7263V20.8459C139.513 20.1521 139.998 19.5277 140.692 19.5277H152.479V15.7812H140.414C137.918 15.7812 135.838 18.1401 135.838 20.9847V29.5183C135.769 32.4323 137.779 34.791 140.345 34.791Z" fill="#0D0D0D"/>
<path d="M175.291 34.7871V26.1841L179.452 34.7871H182.78L186.94 26.1841V34.7871H190.685V20.7031H185.415L181.116 29.4447L176.817 20.7031H171.547V34.7871H175.291Z" fill="#0D0D0D"/>
<path d="M91.1133 39.5742V43.39H157.471L169.536 20.7031H165.307L161.84 27.1553L158.373 20.7031H154.143L159.759 30.9711L155.044 39.5742H91.1133Z" fill="#0D0D0D"/>
<path d="M187.152 14.1888H187.984C188.401 14.1888 188.47 14.2582 188.47 14.6744C188.47 15.0907 188.331 15.2295 187.915 15.2295H187.152V14.1888ZM187.152 15.7151H188.054C188.331 15.7151 188.401 15.9233 188.401 16.1314V16.6864H188.955V16.1314C188.955 15.7151 188.886 15.507 188.47 15.4376C188.955 15.3682 189.024 15.0213 189.024 14.6051C189.024 13.9113 188.747 13.7031 188.123 13.7031H186.598V16.6864H187.152V15.7151Z" fill="#0D0D0D"/>
<path d="M129.253 29.9998C129.253 30.1385 129.253 30.2773 129.183 30.4161C129.045 30.7631 128.629 31.0406 128.213 31.0406H124.746H121.695C121.14 31.0406 120.655 30.5548 120.655 29.9998V27.086V25.4903C120.655 25.2128 120.793 24.9352 120.932 24.7271C121.14 24.519 121.417 24.4496 121.695 24.4496H128.213C128.767 24.4496 129.253 24.9352 129.253 25.4903V29.9998ZM132.997 24.9352C132.997 23.8252 132.581 22.8539 131.888 22.0907C131.125 21.2582 130.015 20.7031 128.767 20.7031H121.14C120.1 20.7031 119.129 21.1194 118.366 21.7438C117.465 22.507 116.91 23.617 116.91 24.8659V30.5548C116.91 31.5956 117.326 32.4975 117.95 33.2608C118.713 34.1626 119.892 34.7871 121.14 34.7871H128.767C130.015 34.7871 131.055 34.2321 131.888 33.3995C132.581 32.6362 132.997 31.6649 132.997 30.5548V24.9352Z" fill="#0D0D0D"/>
<path d="M187.811 17.9491C189.333 17.9491 190.566 16.7135 190.566 15.1894C190.566 13.6652 189.333 12.4297 187.811 12.4297C186.289 12.4297 185.055 13.6652 185.055 15.1894C185.055 16.7135 186.289 17.9491 187.811 17.9491Z" stroke="black" stroke-width="0.13182"/>
</g>
<defs>
<clipPath id="clip0_7132_2893">
<rect width="218" height="57" fill="white"/>
</clipPath>
</defs>
</svg>
