<svg width="10" height="10" viewBox="0 0 10 10" fill="none" xmlns="http://www.w3.org/2000/svg">
<path d="M3.08073 2.91602H1.91406C1.84776 2.91602 1.78417 2.94235 1.73729 2.98924C1.6904 3.03612 1.66406 3.09971 1.66406 3.16602V6.83268C1.66406 6.86551 1.67053 6.89802 1.68309 6.92835C1.69566 6.95868 1.71407 6.98624 1.73729 7.00946C1.7605 7.03267 1.78806 7.05109 1.81839 7.06365C1.84872 7.07622 1.88123 7.08268 1.91406 7.08268H3.08073C3.11356 7.08268 3.14607 7.07622 3.1764 7.06365C3.20673 7.05109 3.23429 7.03267 3.25751 7.00946C3.28072 6.98624 3.29914 6.95868 3.3117 6.92835C3.32426 6.89802 3.33073 6.86551 3.33073 6.83268V3.16602C3.33073 3.09971 3.30439 3.03612 3.25751 2.98924C3.21062 2.94235 3.14703 2.91602 3.08073 2.91602ZM8.08073 2.91602H6.91406C6.84776 2.91602 6.78417 2.94235 6.73729 2.98924C6.6904 3.03612 6.66406 3.09971 6.66406 3.16602V6.83268C6.66406 6.86551 6.67053 6.89802 6.68309 6.92835C6.69566 6.95868 6.71407 6.98624 6.73729 7.00946C6.7605 7.03267 6.78806 7.05109 6.81839 7.06365C6.84872 7.07622 6.88123 7.08268 6.91406 7.08268H8.08073C8.11356 7.08268 8.14607 7.07622 8.1764 7.06365C8.20673 7.05109 8.23429 7.03267 8.25751 7.00946C8.28072 6.98624 8.29914 6.95868 8.3117 6.92835C8.32426 6.89802 8.33073 6.86551 8.33073 6.83268V3.16602C8.33073 3.09971 8.30439 3.03612 8.25751 2.98924C8.21062 2.94235 8.14703 2.91602 8.08073 2.91602Z" stroke="black" stroke-width="0.75" stroke-linecap="round" stroke-linejoin="round"/>
<path d="M3.33073 5H6.66406M0.414062 6V4C0.414062 3.9337 0.440402 3.87011 0.487286 3.82322C0.53417 3.77634 0.597758 3.75 0.664062 3.75H1.41406C1.48037 3.75 1.54395 3.77634 1.59084 3.82322C1.63772 3.87011 1.66406 3.9337 1.66406 4V6C1.66406 6.0663 1.63772 6.12989 1.59084 6.17678C1.54395 6.22366 1.48037 6.25 1.41406 6.25H0.664062C0.597758 6.25 0.53417 6.22366 0.487286 6.17678C0.440402 6.12989 0.414062 6.0663 0.414062 6ZM9.58073 6V4C9.58073 3.9337 9.55439 3.87011 9.50751 3.82322C9.46062 3.77634 9.39703 3.75 9.33073 3.75H8.58073C8.51442 3.75 8.45084 3.77634 8.40395 3.82322C8.35707 3.87011 8.33073 3.9337 8.33073 4V6C8.33073 6.0663 8.35707 6.12989 8.40395 6.17678C8.45084 6.22366 8.51442 6.25 8.58073 6.25H9.33073C9.39703 6.25 9.46062 6.22366 9.50751 6.17678C9.55439 6.12989 9.58073 6.0663 9.58073 6Z" stroke="black" stroke-width="0.75" stroke-linecap="round" stroke-linejoin="round"/>
</svg>
