<svg width="40" height="40" viewBox="0 0 40 40" fill="none" xmlns="http://www.w3.org/2000/svg">
<path d="M36.9152 8.99294C36.6375 7.43062 35.5416 3.95124 33.9282 3.16842C33.7006 3.0529 33.4481 2.99517 33.1929 3.00032C32.9377 3.00546 32.6877 3.07333 32.4649 3.19794C32.3665 3.25035 32.2393 3.31544 32.0945 3.38964C31.2195 3.83787 30.3995 4.27231 29.9835 4.67007C28.9114 5.69231 28.4433 6.55926 28.4664 7.48054C28.4707 7.62297 28.4971 7.76386 28.5448 7.89816C28.2359 8.07287 28.0051 8.35872 27.8995 8.69754C27.7939 9.03635 27.8214 9.40268 27.9763 9.72197C28.0538 9.89094 28.1674 10.0409 28.3091 10.1612C28.4508 10.2816 28.6171 10.3695 28.7963 10.4187C28.948 10.4614 29.1049 10.4824 29.2625 10.4811C29.7868 10.4597 30.2975 10.3074 30.7479 10.0381C31.1263 10.3167 31.5125 10.6063 31.8918 10.9293C32.0311 11.0638 32.1522 11.216 32.252 11.3819C32.3764 11.5801 32.5215 11.7644 32.6848 11.932C31.4546 14.8834 28.8783 17.4291 26.593 19.6829C25.6976 20.5656 24.8707 21.3815 24.1916 22.1533C23.4598 20.3157 21.5538 15.8463 14.9461 13.8349C14.859 13.5776 14.7715 13.3009 14.6802 13.0094C13.6925 9.85741 12.0386 4.58566 3.77181 5.29731C3.46295 5.32615 3.17586 5.46886 2.96642 5.69768C2.75697 5.9265 2.64015 6.22506 2.63868 6.53526V20.3846C2.63807 20.5382 2.66613 20.6905 2.72143 20.8337C3.2549 22.2005 6.39582 29.1826 15.9474 32.3958C16.8124 32.6866 17.8749 33.2945 18.9998 33.938C20.638 34.8759 22.3319 35.8443 23.6473 35.9381C23.8263 35.951 23.9953 35.9573 24.1543 35.9571C25.9453 35.9571 26.5458 35.1751 27.2892 34.2061C27.6838 33.6642 28.1306 33.1623 28.6231 32.7075C34.9323 27.0413 35.8119 19.1028 36.2855 14.8379C36.3597 14.1706 36.6651 12.1946 36.7467 11.8158C36.9522 10.8637 37.1144 10.1104 36.9152 8.99294ZM29.0264 9.62378C28.9601 9.60698 28.8985 9.57527 28.8463 9.53105C28.7941 9.48684 28.7526 9.43128 28.7252 9.36863C28.6876 9.28868 28.6681 9.20142 28.6681 9.11307C28.6681 9.02472 28.6876 8.93746 28.7252 8.85751C28.7836 8.74781 28.8737 8.65816 28.9836 8.60016C29.293 8.92533 29.6321 9.22084 29.9965 9.48283C29.6964 9.63188 29.3565 9.68126 29.0264 9.62378ZM3.46619 7.88464C7.48537 8.11386 11.5799 11.6285 12.4634 15.5305C11.0879 14.8662 9.65291 14.333 8.17744 13.9378C6.74062 11.6183 5.11568 9.35898 3.46619 8.75573V7.88464ZM15.5524 24.7988C16.4301 27.2262 17.734 28.976 19.5035 30.0885C12.7731 28.4583 8.58705 22.6316 6.73041 16.9737C7.51819 17.3215 8.19233 17.6787 8.67173 17.9507C8.80523 18.0273 8.95639 18.0678 9.11031 18.0682C9.20903 18.0671 9.30682 18.049 9.39938 18.0147C10.0288 18.6474 10.8754 19.5135 11.7674 20.4266C13.2404 21.9337 14.7561 23.4842 15.5265 24.2234C15.477 24.4135 15.4861 24.614 15.5524 24.7988ZM16.3306 24.5175C16.3207 24.4917 16.3182 24.4636 16.3235 24.4365C16.3288 24.4094 16.3415 24.3843 16.3603 24.3641C16.3737 24.3486 16.3902 24.3361 16.4087 24.3275C16.4273 24.3189 16.4475 24.3144 16.4679 24.3142C16.4803 24.3143 16.4926 24.3157 16.5046 24.3186C18.3077 24.7505 21.5733 25.9518 23.1878 29.1424C23.4506 29.678 23.8366 30.1438 24.314 30.5017L24.7173 30.799C24.7563 30.8313 24.7884 30.8711 24.8118 30.916C24.8352 30.9609 24.8493 31.0101 24.8534 31.0606C24.8575 31.111 24.8514 31.1618 24.8355 31.2099C24.8196 31.258 24.7942 31.3024 24.7609 31.3405C24.6891 31.4127 24.5929 31.4555 24.4912 31.4606C24.3895 31.4657 24.2896 31.4327 24.2109 31.3681L23.8098 31.0647C23.4048 30.7574 22.9401 30.538 22.4455 30.4203C19.5101 29.7131 17.5108 27.7822 16.3306 24.5175ZM16.6966 23.5137C16.48 23.4617 16.2522 23.4856 16.0511 23.5813C15.2807 22.8385 13.7987 21.3222 12.3583 19.8481C11.4508 18.9197 10.5913 18.0403 9.95629 17.402C9.9838 17.2913 9.98919 17.1763 9.97215 17.0635C9.95511 16.9507 9.91598 16.8424 9.85699 16.7447C9.70197 16.486 9.00191 15.3016 8.80882 14.9808C14.651 16.7775 20.8984 21.3525 22.8811 27.1726C21.0029 24.8656 18.3083 23.8999 16.6966 23.5137ZM3.46619 9.64667C5.24339 10.5779 8.99253 16.9097 9.14837 17.1695C9.15204 17.1733 9.15485 17.1778 9.15659 17.1828C9.15834 17.1878 9.15898 17.1931 9.15848 17.1983C9.15799 17.2035 9.15636 17.2086 9.15371 17.2132C9.15106 17.2177 9.14745 17.2216 9.14313 17.2247C9.13959 17.2293 9.13516 17.2332 9.13008 17.2362C9.12501 17.2391 9.1194 17.241 9.11359 17.2417C9.10778 17.2424 9.10189 17.2419 9.09626 17.2404C9.09062 17.2388 9.08537 17.2361 9.0808 17.2324C7.94601 16.5878 5.7432 15.477 3.46674 15.069L3.46619 9.64667ZM3.46619 15.9117C4.23934 16.0661 4.99817 16.2851 5.73465 16.5665C6.11643 17.8493 6.5987 19.0999 7.17699 20.3068C5.85103 19.9319 4.59689 19.3384 3.46619 18.5509V15.9117ZM35.9377 11.6412C35.8549 12.0313 35.538 14.0702 35.4633 14.7469C35.0023 18.902 34.1445 26.6353 28.0709 32.0919C27.5397 32.58 27.0582 33.1195 26.6332 33.7025C25.8736 34.6924 25.4571 35.238 23.7066 35.1128C22.5796 35.0323 20.969 34.111 19.4113 33.2198C18.2501 32.5555 17.1536 31.928 16.2117 31.6114C7.00873 28.5171 4.00241 21.8402 3.49349 20.5336C3.47497 20.4861 3.46561 20.4356 3.46591 20.3846V19.5571C4.77007 20.3596 6.1943 20.948 7.68452 21.3001C10.5099 26.5603 15.4355 31.0859 22.6516 31.3551C22.8863 31.4471 23.1075 31.5704 23.3092 31.7217L23.7105 32.0251C23.9325 32.1942 24.2038 32.286 24.4828 32.2866C24.6539 32.288 24.8233 32.2524 24.9793 32.1821C25.1354 32.1119 25.2743 32.0088 25.3867 31.8798C25.4932 31.757 25.5738 31.614 25.6236 31.4593C25.6735 31.3046 25.6916 31.1415 25.6768 30.9796C25.662 30.8178 25.6146 30.6606 25.5376 30.5175C25.4606 30.3744 25.3554 30.2484 25.2284 30.147C25.2246 30.1437 25.2201 30.1403 25.2155 30.137L24.8045 29.8336C24.5886 29.6715 24.3975 29.4789 24.2371 29.2618C23.4385 23.5898 18.6994 18.7978 13.3913 15.9942C12.7502 11.4981 8.05662 7.29822 3.46619 7.05714V6.53581C3.4664 6.43237 3.5051 6.33271 3.57474 6.25623C3.64439 6.17975 3.74001 6.13192 3.84297 6.12206C11.4477 5.46613 12.9179 10.1539 13.8902 13.2557C14.2356 14.3574 14.5084 15.2276 14.9842 15.7159C15.0215 15.7573 15.0667 15.7907 15.1172 15.8142C15.1677 15.8377 15.2224 15.8508 15.2781 15.8526C15.3338 15.8545 15.3892 15.845 15.4412 15.8249C15.4931 15.8048 15.5405 15.7744 15.5804 15.7356C15.6203 15.6967 15.6519 15.6502 15.6734 15.5988C15.6949 15.5474 15.7058 15.4922 15.7055 15.4365C15.7052 15.3808 15.6936 15.3258 15.6714 15.2747C15.6493 15.2236 15.6171 15.1774 15.5767 15.1391C15.4941 15.0489 15.4229 14.9488 15.3649 14.8412C21.1963 16.8603 22.779 20.8359 23.4711 22.5797C23.5149 22.6901 23.5538 22.7891 23.5905 22.8779C23.3255 23.2142 23.0881 23.5714 22.8805 23.9459C22.8284 24.0425 22.8167 24.1558 22.8481 24.261C22.8795 24.3662 22.9514 24.4545 23.0479 24.5067C23.1445 24.5589 23.2578 24.5705 23.363 24.5391C23.4682 24.5077 23.5566 24.4358 23.6087 24.3393C24.2481 23.1551 25.6038 21.8184 27.1736 20.271C29.4906 17.9863 32.0992 15.4066 33.4075 12.3435C33.6683 12.4079 33.9389 12.4236 34.2055 12.3898C34.3146 12.3779 34.4145 12.3231 34.4832 12.2376C34.5519 12.152 34.5838 12.0426 34.5719 11.9335C34.56 11.8244 34.5052 11.7245 34.4196 11.6557C34.334 11.587 34.2246 11.5551 34.1155 11.567C33.4221 11.6426 33.2312 11.356 32.9399 10.9213C32.8701 10.8168 32.7948 10.7053 32.709 10.5961C33.1512 10.0193 33.6573 9.49446 34.2176 9.03156C34.3075 8.96865 34.3687 8.87259 34.3878 8.76453C34.4069 8.65647 34.3823 8.54525 34.3194 8.45534C34.2565 8.36543 34.1604 8.3042 34.0523 8.28511C33.9443 8.26603 33.8331 8.29065 33.7432 8.35356C33.1321 8.84648 32.5812 9.40956 32.1017 10.0312C31.9006 9.86982 31.7003 9.71701 31.5039 9.56999C31.561 9.49386 32.7984 7.79224 33.4397 7.48689C33.4888 7.46354 33.5328 7.43076 33.5692 7.39042C33.6056 7.35007 33.6337 7.30295 33.6519 7.25175C33.67 7.20055 33.678 7.14627 33.6752 7.09201C33.6724 7.03774 33.6589 6.98456 33.6356 6.9355C33.6122 6.88643 33.5795 6.84245 33.5391 6.80605C33.4988 6.76966 33.4516 6.74156 33.4004 6.72338C33.3492 6.70519 33.295 6.69727 33.2407 6.70006C33.1864 6.70285 33.1332 6.71631 33.0842 6.73965C32.2525 7.13575 30.8943 9.00453 30.8392 9.07928C30.6337 8.92812 30.434 8.77945 30.25 8.63408C30.5622 7.93015 30.9767 7.27617 31.4799 6.69331C31.7964 6.36836 32.174 6.10917 32.591 5.93063C32.7289 5.86498 32.8696 5.79768 33.0229 5.71272C33.0705 5.68637 33.1124 5.65091 33.1463 5.60836C33.1801 5.56581 33.2053 5.51701 33.2203 5.46475C33.2353 5.41248 33.2398 5.35778 33.2337 5.30375C33.2275 5.24973 33.2108 5.19744 33.1844 5.14988C33.1581 5.10232 33.1226 5.06042 33.0801 5.02656C33.0375 4.9927 32.9887 4.96756 32.9365 4.95256C32.8842 4.93757 32.8295 4.93301 32.7755 4.93916C32.7215 4.9453 32.6692 4.96203 32.6216 4.98838C32.4837 5.06451 32.3587 5.12409 32.2354 5.18146C31.7347 5.39938 31.2809 5.71213 30.899 6.10248C30.3825 6.69082 29.9466 7.34523 29.6026 8.04849C29.4354 7.89319 29.3267 7.6852 29.2945 7.4593C29.2777 6.78213 29.6547 6.12675 30.5556 5.2678C30.9194 4.9208 31.892 4.42264 32.4727 4.12502C32.6227 4.04834 32.7543 3.98076 32.8561 3.92642C32.9636 3.86334 33.0856 3.82888 33.2103 3.82632C33.3349 3.82376 33.4582 3.85319 33.5683 3.9118C34.6992 4.46043 35.7838 7.34952 36.1018 9.13693C36.2712 10.0949 36.1316 10.7437 35.9377 11.6412Z" fill="#4AB04A"/>
</svg>
