<svg width="40" height="40" viewBox="0 0 40 40" fill="none" xmlns="http://www.w3.org/2000/svg">
<path d="M22.2861 21.7994C22.9661 21.548 23.1883 20.7224 22.7906 20.1671C22.6622 19.9877 22.4117 19.9463 22.2325 20.0747C22.0528 20.2033 22.0114 20.4533 22.14 20.6328C22.244 20.7774 22.1742 21.012 21.9749 21.0593C21.7137 21.1213 21.5244 21.3364 21.5041 21.5947C21.4395 22.4119 20.7822 23.326 19.9989 23.326C19.2169 23.326 18.5606 22.4122 18.4966 21.5947C18.4762 21.3364 18.2869 21.1213 18.0255 21.0593C17.8235 21.0115 17.7505 20.7709 17.8713 20.6177C18.0083 20.4445 17.9788 20.1929 17.8054 20.0559C17.632 19.9184 17.3801 19.9486 17.2437 20.1218C16.7968 20.6875 17.0222 21.5438 17.7143 21.7997C17.8682 22.9489 18.789 24.126 19.9989 24.126C21.1908 24.126 22.1309 22.9281 22.2861 21.7994Z" fill="#4AB04A"/>
<path d="M17.2974 19.4547C17.2991 19.4789 17.295 19.5025 17.3014 19.5268C17.3483 19.7068 17.5105 19.8261 17.6881 19.8261C17.6903 19.8261 17.6926 19.8252 17.6948 19.8252C17.6965 19.8252 17.6981 19.8261 17.6998 19.8261C17.7285 19.8261 17.7574 19.8229 17.7865 19.8167C17.7928 19.8153 17.7972 19.8109 17.8032 19.8093C18.3379 19.6697 19.9888 19.2146 20.8428 18.707C21.3968 19.5164 22.2157 19.7776 22.1618 19.744C22.162 19.7441 22.1622 19.744 22.1624 19.7441C22.1623 19.7441 22.1626 19.7441 22.1624 19.7441C22.3867 19.8171 22.6044 19.6758 22.6657 19.487C22.9436 18.631 22.8045 17.9188 22.6389 17.4719C22.5517 17.2365 22.403 17.0305 22.2089 16.8763C21.9345 16.6576 21.5303 16.2479 21.5261 16.2438C21.5123 16.2297 21.4972 16.2167 21.4813 16.2047C20.3056 15.3214 18.7938 16.2422 18.3595 16.5451C18.3082 16.5807 18.2569 16.6052 18.2074 16.6175C16.8604 16.9493 17.2095 19.0233 17.2974 19.4547ZM18.3988 17.394C18.5438 17.3583 18.6845 17.2935 18.8165 17.2016C19.1373 16.9787 20.2332 16.2966 20.9793 16.8284C21.7212 17.5744 21.7949 17.4977 21.8889 17.75C21.9785 17.9923 22.0556 18.3431 22.0072 18.7664C21.7363 18.5676 21.5156 18.3025 21.4397 18.1505C21.2746 17.8203 20.8562 17.727 20.5605 17.9375C20.1006 18.2662 18.9897 18.6475 18.0252 18.9199C17.9569 18.3099 17.9821 17.4969 18.3988 17.394Z" fill="#4AB04A"/>
<path d="M14.9249 23.4774C14.7697 22.5599 13.9817 21.894 13.0473 21.894C11.7995 21.894 10.8902 23.0747 11.2101 24.2821L12.2106 28.0555C12.6025 29.5309 14.2412 30.2515 15.5809 29.5964L16.3424 29.225V31.8552L14.3908 32.9284C12.9924 33.5537 12.089 34.9477 12.089 36.4795C12.089 36.7003 12.2681 36.8795 12.489 36.8795C12.7098 36.8795 12.889 36.7003 12.889 36.4795C12.889 35.2628 13.6067 34.1555 14.7465 33.644C14.8002 33.6145 17.0885 32.3544 16.9425 32.4347C18.7833 33.04 21.0108 33.1164 23.0498 32.428C23.2048 32.5232 24.7388 33.3592 25.2822 33.6586C26.3929 34.1555 27.1106 35.2628 27.1106 36.4795C27.1106 36.7003 27.2897 36.8795 27.5106 36.8795C27.7314 36.8795 27.9106 36.7003 27.9106 36.4795C27.9106 34.9477 27.0072 33.5539 25.6379 32.943L23.6569 31.855V29.225L24.4184 29.5964C25.7576 30.251 27.3967 29.5321 27.7887 28.0555L28.7895 24.2821C29.1085 23.0778 28.205 21.894 26.9483 21.894C26.0179 21.894 25.2299 22.5599 25.0744 23.4771L24.7723 25.2599L21.9658 24.1771C21.7598 24.0977 21.528 24.1998 21.4486 24.4063C21.3692 24.6123 21.4718 24.844 21.6778 24.9235L24.9408 26.1826C25.1753 26.2738 25.4367 26.1262 25.4791 25.8763L25.8629 23.611C25.953 23.0797 26.4095 22.694 26.952 22.694C27.6743 22.694 28.2015 23.3776 28.0161 24.0769L27.0153 27.8503C26.753 28.8405 25.6564 29.3108 24.7692 28.8774L23.4322 28.2253C23.1672 28.0953 22.8569 28.2895 22.8569 28.5849V31.6532C20.2456 32.559 17.7702 31.8653 17.1424 31.657V28.5849C17.1424 28.2914 16.8348 28.0954 16.5671 28.2256L15.2304 28.8776C14.3331 29.3149 13.2437 28.8301 12.984 27.8503L11.9835 24.0769C11.8 23.3849 12.316 22.694 13.0509 22.694C13.59 22.694 14.0463 23.0795 14.1364 23.611L14.5205 25.8763C14.5627 26.1252 14.8227 26.2737 15.0588 26.1826L18.3215 24.9235C18.5275 24.844 18.6301 24.6123 18.5507 24.4063C18.4713 24.2 18.2397 24.0979 18.0335 24.1771L15.2273 25.2599L14.9249 23.4774Z" fill="#4AB04A"/>
<path d="M16.4094 37.0659C16.4094 37.0315 16.4268 37.0003 16.4776 36.9675L19.7034 34.6406C19.7328 34.6245 19.7682 34.6232 19.781 34.6305C23.7164 37.1112 23.5909 36.9613 23.5909 37.0659C23.5909 37.2867 23.7701 37.4659 23.9909 37.4659C24.2117 37.4659 24.3909 37.2867 24.3909 37.0659C24.3909 36.7542 24.2331 36.4695 23.9685 36.3037L20.1875 33.9417C19.9135 33.7896 19.5875 33.7896 19.2747 33.9667L16.0318 36.3037C15.7672 36.469 15.6094 36.7539 15.6094 37.0659C15.6094 37.2867 15.7885 37.4659 16.0094 37.4659C16.2302 37.4659 16.4094 37.2867 16.4094 37.0659Z" fill="#4AB04A"/>
<path d="M18.8901 25.4548C18.7523 25.2967 18.514 25.2712 18.3458 25.3996C18.1703 25.5337 18.1364 25.7847 18.2705 25.9602C18.7545 26.5938 20.3908 27.0021 21.6544 26.0352C21.8297 25.9009 21.863 25.6498 21.7289 25.4743C21.5945 25.2993 21.3435 25.2654 21.1679 25.3998C20.0255 26.2748 18.9554 25.5045 18.8901 25.4548Z" fill="#4AB04A"/>
<path d="M4.00391 19.8133V21.7011C4.00391 22.2149 4.42188 22.6328 4.93568 22.6328H5.6474V23.7638C5.6474 24.2784 6.06615 24.6972 6.58073 24.6972H7.91276C8.42734 24.6972 8.84609 24.2784 8.84609 23.7638V20.9651H15.0789C15.2997 20.9651 15.4789 20.786 15.4789 20.5651C15.4789 20.3443 15.2997 20.1651 15.0789 20.1651H8.84609V17.7495C8.84609 17.2349 8.42734 16.8162 7.91276 16.8162H6.58073C6.06615 16.8162 5.6474 17.2349 5.6474 17.7495V18.8815H4.93568C4.42188 18.8815 4.00391 19.2995 4.00391 19.8133ZM6.4474 17.7495C6.4474 17.6761 6.50729 17.6162 6.58073 17.6162H7.91276C7.9862 17.6162 8.04609 17.6761 8.04609 17.7495V23.7638C8.04609 23.8373 7.9862 23.8972 7.91276 23.8972H6.58073C6.50729 23.8972 6.4474 23.8373 6.4474 23.7638V17.7495ZM4.80391 19.8133C4.80391 19.7393 4.86172 19.6815 4.93568 19.6815H5.6474V21.8328H4.93568C4.86432 21.8328 4.80391 21.7724 4.80391 21.7011V19.8133Z" fill="#4AB04A"/>
<path d="M33.4194 16.8162H32.0874C31.5728 16.8162 31.154 17.2349 31.154 17.7495V20.1651H24.9215C24.7007 20.1651 24.5215 20.3443 24.5215 20.5651C24.5215 20.786 24.7007 20.9651 24.9215 20.9651H31.154V23.7638C31.154 24.2784 31.5728 24.6972 32.0874 24.6972H33.4194C33.934 24.6972 34.3527 24.2784 34.3527 23.7638V22.6328H35.0647C35.5785 22.6328 35.9965 22.2149 35.9965 21.7011V19.8133C35.9965 19.2995 35.5785 18.8815 35.0647 18.8815H34.3527V17.7495C34.3527 17.2349 33.934 16.8162 33.4194 16.8162ZM33.5527 23.7638C33.5527 23.8373 33.4928 23.8972 33.4194 23.8972H32.0874C32.0139 23.8972 31.954 23.8373 31.954 23.7638V17.7495C31.954 17.6761 32.0139 17.6162 32.0874 17.6162H33.4194C33.4928 17.6162 33.5527 17.6761 33.5527 17.7495V23.7638ZM35.0647 19.6815C35.1387 19.6815 35.1965 19.7393 35.1965 19.8133V21.7011C35.1965 21.7724 35.1361 21.8328 35.0647 21.8328H34.3527V19.6815H35.0647Z" fill="#4AB04A"/>
<path d="M27.4085 19.2162C27.4902 19.2162 27.5725 19.1912 27.6436 19.1396C27.8223 19.0094 27.8616 18.7591 27.7316 18.5807L24.0965 13.5901C23.9944 13.4498 23.8134 13.3927 23.6491 13.4451C23.4845 13.4987 23.373 13.6524 23.373 13.8255V15.7641C23.373 15.9849 23.5522 16.1641 23.773 16.1641C23.9939 16.1641 24.173 15.9849 24.173 15.7641V15.0542L27.0848 19.0516C27.1632 19.1591 27.285 19.2162 27.4085 19.2162Z" fill="#4AB04A"/>
<path d="M25.2252 10.9852C24.8505 10.5414 24.3023 10.287 23.7213 10.287C23.5005 10.287 23.3213 10.4662 23.3213 10.687C23.3213 10.9078 23.5005 11.087 23.7213 11.087C24.0663 11.087 24.3916 11.238 24.6057 11.4914L29.0346 17.0893C29.1137 17.1891 29.2307 17.2412 29.3486 17.2412C29.6804 17.2412 29.8698 16.8554 29.6622 16.593L25.2252 10.9852Z" fill="#4AB04A"/>
<path d="M16.2272 16.164C16.448 16.164 16.6272 15.9849 16.6272 15.764V13.8255C16.6272 13.4373 16.1299 13.2791 15.9038 13.5901L12.2686 18.5807C12.0749 18.8465 12.269 19.2161 12.5918 19.2161C12.7152 19.2161 12.8371 19.1591 12.9155 19.0515L15.8272 15.0541V15.764C15.8272 15.9849 16.0064 16.164 16.2272 16.164Z" fill="#4AB04A"/>
<path d="M16.2793 10.287C15.6983 10.287 15.1503 10.5414 14.7675 10.9951L10.3386 16.593C10.131 16.8555 10.3205 17.2412 10.6522 17.2412C10.7701 17.2412 10.8871 17.1891 10.9662 17.0893L15.3871 11.5013C15.6092 11.238 15.9345 11.087 16.2793 11.087C16.5001 11.087 16.6793 10.9078 16.6793 10.687C16.6793 10.4662 16.5001 10.287 16.2793 10.287Z" fill="#4AB04A"/>
<path d="M22.8902 7.49216C22.8889 7.27107 22.7106 7.08851 22.4879 7.0945C22.2668 7.09581 22.0889 7.27601 22.0902 7.49685C22.091 7.60492 22.0189 7.69789 21.9147 7.72341C21.6603 7.78565 21.477 7.99685 21.4587 8.24919C21.4056 8.98252 20.7988 9.83851 20.096 9.84294C20.0942 9.84297 20.0925 9.8431 20.0908 9.84294C19.3913 9.84294 18.778 8.99711 18.716 8.26638C18.6947 8.0143 18.509 7.80518 18.2533 7.74607C18.1494 7.72211 18.0762 7.63018 18.0754 7.52237C18.0741 7.30206 17.8952 7.12471 17.6754 7.12471C17.6746 7.12471 17.6738 7.12471 17.6731 7.12471C17.452 7.12601 17.2741 7.30622 17.2754 7.52706C17.278 7.95883 17.5436 8.33435 17.9363 8.48409C18.0939 9.5557 18.9606 10.6429 20.0902 10.6429H20.0986H20.1012C21.2371 10.6356 22.096 9.53409 22.241 8.45726C22.6319 8.30258 22.8928 7.92367 22.8902 7.49216Z" fill="#4AB04A"/>
<path d="M17.4627 6.53857C17.4651 6.54325 17.4703 6.54488 17.473 6.54944C17.5504 6.68487 17.7048 6.75263 17.8166 6.75263C17.8708 6.74919 17.8636 6.75381 17.9179 6.73961C18.5947 6.56305 20.1759 6.11851 21.0124 5.61825C21.2713 5.9982 21.7733 6.48492 22.3489 6.67008C22.559 6.73909 22.7845 6.62216 22.852 6.41174C22.8614 6.38251 22.8593 6.35331 22.8619 6.32395C22.862 6.32349 22.8623 6.32314 22.8624 6.32268C23.1205 4.90393 23.0015 3.98362 22.4989 3.50836C22.2684 3.29091 22.0155 3.22398 21.8249 3.20992C21.0666 2.24156 19.7429 2.43962 18.6577 3.01903L17.9801 2.81435C17.6086 2.70122 17.2439 3.01467 17.3007 3.39924L17.3348 3.63466C16.5457 4.76174 17.4233 6.46357 17.4627 6.53857ZM18.0543 4.01226C18.1299 3.92737 18.1655 3.81461 18.1528 3.70211L18.5903 3.83414C18.6999 3.86773 18.82 3.85185 18.9174 3.79091C19.19 3.62164 20.0343 3.21617 20.67 3.36565C20.9296 3.42763 21.1288 3.57815 21.2793 3.82581C21.365 3.96695 21.541 4.03778 21.7043 4.0094C21.727 4.00549 21.8496 3.98987 21.9575 4.09768C22.0677 4.20865 22.2839 4.57222 22.1538 5.66474C21.8937 5.46584 21.6844 5.21142 21.6103 5.06305C21.533 4.90836 21.3921 4.79586 21.2241 4.75419C21.0528 4.71096 20.8718 4.74638 20.7278 4.84976C20.243 5.19618 19.0793 5.59094 18.0447 5.87659C17.8649 5.41689 17.6035 4.51965 18.0543 4.01226Z" fill="#4AB04A"/>
<path d="M21.1634 10.9373C20.1803 11.8342 18.8498 10.942 18.7941 10.9035C18.6121 10.7792 18.3642 10.8235 18.2384 11.005C18.1123 11.1865 18.1577 11.4358 18.3392 11.5615C19.3391 12.2549 20.7516 12.396 21.7024 11.5285C21.8657 11.3795 21.8772 11.1264 21.7285 10.9634C21.5793 10.8003 21.3261 10.7891 21.1634 10.9373Z" fill="#4AB04A"/>
</svg>
