<svg width="40" height="40" viewBox="0 0 40 40" fill="none" xmlns="http://www.w3.org/2000/svg">
<path fill-rule="evenodd" clip-rule="evenodd" d="M28.2674 33.0385L26.226 34.9005C26.1855 34.9393 26.1398 34.9436 26.0898 34.9177C26.0394 34.8962 26.0166 34.8531 26.023 34.8013C26.0868 34.2065 26.3299 33.6849 26.7657 33.2022C26.9195 33.0298 26.9402 32.7798 26.8161 32.5858L22.8149 26.3489C22.9416 26.1161 23.1214 25.8575 23.3735 25.5343C23.6438 25.1851 23.9653 24.8575 24.3304 24.5559L28.4428 31.6979C28.7083 32.1592 28.6385 32.698 28.2674 33.0385ZM21.2994 35.0859C21.7926 34.9479 22.1068 34.4996 22.0632 33.9867L21.6309 28.8877C21.617 28.7283 21.6038 28.5774 21.5908 28.4395C21.4606 27.043 21.4016 26.4093 22.5666 24.9051C23.0295 24.3103 23.611 23.7715 24.2959 23.3059C25.2515 22.6034 26.0058 21.7715 26.5398 20.8275C26.6514 20.6293 26.7514 20.4353 26.842 20.2371C24.5154 20.862 22.2348 20.7371 20.0443 19.8664C19.506 20.6336 19.2771 21.4612 19.3474 22.3965L20.212 34.0385C20.2284 34.2626 20.0961 34.4738 19.8857 34.5514C19.2784 34.7841 18.825 35.1419 18.4999 35.6419C18.4694 35.685 18.4706 35.7324 18.5042 35.7798C18.537 35.8229 18.5806 35.8401 18.634 35.8229L21.2994 35.0859ZM23.0563 13.6984C23.471 12.9743 23.7249 12.1899 23.8106 11.3623C23.921 10.3063 23.2542 9.33649 22.2254 9.06489L22.1443 9.04337C21.2818 8.81497 20.3849 9.13385 19.8608 9.85801L18.8333 11.2718L18.1367 9.44425C18.863 9.10801 19.4474 8.51321 19.7729 7.78049C23.6685 8.12529 26.0469 10.2201 27.0378 14.1812C27.3636 15.4872 27.2636 17.9828 27.1998 19.0647C24.9559 19.8018 22.7594 19.7803 20.656 19.0044C21.1098 18.3191 21.2034 17.4872 20.9073 16.7114L20.7349 16.2588C21.7111 15.4959 22.5391 14.5993 23.0563 13.6984ZM16.8173 17.2027C17.7056 16.944 18.6314 16.4828 19.478 15.9096C18.8349 15.4398 18.2603 14.9139 17.7604 14.345C16.9815 15.0993 16.091 15.4786 14.9553 15.9699C14.3798 16.2156 13.7273 16.4958 12.9859 16.8708C12.9157 16.9053 12.8394 16.9441 12.7596 16.9829C12.4058 17.1553 11.9204 17.3923 11.7307 17.6165C11.4872 17.9096 11.3609 18.3363 11.4101 18.7027C11.4346 18.8837 11.5153 19.1423 11.7601 19.3104C11.876 19.3923 11.9924 19.4225 12.1002 19.4268H12.1402H12.1639C12.2566 19.4225 12.3402 19.3967 12.4096 19.3665C12.7695 19.2156 13.0497 18.8363 13.1246 18.3967C13.1587 18.1984 13.3091 18.039 13.507 17.9872C14.0642 17.8536 14.5794 17.7372 15.0328 17.6381C15.7022 17.4871 16.2794 17.3579 16.8173 17.2027ZM20.3357 15.2674C21.1085 14.6251 21.7602 13.9054 22.1701 13.1899C22.5183 12.5821 22.7222 11.9528 22.7946 11.2589C22.8524 10.7029 22.5033 10.1943 21.9641 10.052L21.8834 10.0305C21.7826 10.0047 21.6826 9.99169 21.5847 9.99169C21.2326 9.99169 20.9046 10.1598 20.6865 10.4572L18.4318 13.5606C18.9672 14.1899 19.6051 14.7631 20.3357 15.2674ZM14.4738 6.44865C14.4738 7.70289 15.4966 8.72881 16.7543 8.72881C18.0121 8.72881 19.0345 7.70297 19.0345 6.44865C19.0345 5.19001 18.0121 4.16849 16.7543 4.16849C15.4966 4.16849 14.4738 5.19001 14.4738 6.44865ZM29.3277 31.1894L25.1519 23.9353C26.1066 23.1896 26.8722 22.3147 27.429 21.3319C27.7506 20.763 28.0031 20.1725 28.1773 19.582C28.1898 19.5432 28.1958 19.5044 28.1971 19.4613H28.198L28.201 19.4139C28.2774 18.2803 28.4131 15.47 28.0282 13.9355C26.9485 9.61665 24.2614 7.21153 20.0391 6.78489C20.0499 6.67281 20.0559 6.56073 20.0559 6.44865C20.0559 4.62537 18.575 3.14697 16.7542 3.14697C14.9332 3.14697 13.4522 4.62537 13.4522 6.44865C13.4522 8.26761 14.9331 9.75025 16.7542 9.75025C16.8883 9.75025 17.0202 9.74161 17.1503 9.72441L18.1158 12.2588L17.5719 13.0045C16.8038 14.0605 15.9082 14.4484 14.5522 15.0303C13.963 15.2847 13.2949 15.5691 12.5246 15.9571C12.4587 15.9915 12.3867 16.026 12.3109 16.0648C11.8506 16.289 11.2769 16.5691 10.948 16.9614C10.5162 17.4786 10.3105 18.1769 10.3976 18.8363C10.4705 19.3837 10.7467 19.8492 11.176 20.151C11.3182 20.2501 11.4708 20.3234 11.6294 20.3751V36.3403C11.6294 36.6204 11.8574 36.8531 12.1402 36.8531C12.4221 36.8531 12.651 36.6204 12.651 36.3403V20.3664C12.7018 20.3491 12.7531 20.3319 12.804 20.3104C13.3885 20.0647 13.8445 19.5432 14.0488 18.9096C14.4773 18.8062 14.8712 18.7199 15.2548 18.6338C15.9406 18.483 16.5328 18.3493 17.1022 18.1855C18.0349 17.914 18.9922 17.4528 19.8762 16.8752L19.953 17.0778C20.1418 17.5735 20.0784 18.0605 19.7706 18.4915L19.4499 18.9398L19.2314 19.2458C18.5348 20.2242 18.2391 21.2802 18.3284 22.4742L19.1667 33.7541C18.5292 34.0644 18.018 34.5084 17.6439 35.0817C17.3818 35.4826 17.3961 35.9955 17.6793 36.3834C17.8995 36.6851 18.24 36.8532 18.5974 36.8532C18.6995 36.8532 18.8038 36.836 18.9073 36.8101L21.5723 36.0687C22.5305 35.8058 23.165 34.892 23.0814 33.9007L22.649 28.8016C22.6352 28.6379 22.621 28.487 22.6077 28.3447C22.5905 28.1637 22.5754 27.9999 22.5646 27.8491L25.7554 32.8231C25.3318 33.3877 25.0805 34.0127 25.0076 34.6894C24.9559 35.1679 25.1998 35.6161 25.6278 35.8316C25.795 35.9135 25.9726 35.9566 26.149 35.9566C26.4261 35.9566 26.6994 35.8531 26.9149 35.6548L28.9562 33.7885C29.6782 33.129 29.8307 32.0601 29.3277 31.1894Z" fill="#4AB04A"/>
</svg>
