<svg width="40" height="40" viewBox="0 0 40 40" fill="none" xmlns="http://www.w3.org/2000/svg">
<g clip-path="url(#clip0_10986_2313)">
<path d="M11.7911 34.022C11.0898 35.7073 10.7086 37.5084 10.6671 39.3333C10.6671 39.7015 10.9656 40 11.3338 40H31.3338C31.5298 40 31.7158 39.9136 31.8425 39.764C31.9691 39.6144 32.0235 39.4167 31.9911 39.2233C31.9365 38.89 30.6111 31.0633 27.9305 25.7027C27.3174 24.344 27.0058 22.8686 27.0171 21.378C28.4275 21.6591 29.8517 21.866 31.2838 21.998L31.3338 22C31.6396 22 31.9061 21.792 31.9805 21.4953C33.0545 17.2013 32.8598 11.256 32.7311 7.32201C32.6971 6.27534 32.6644 5.36734 32.6644 4.68201C32.6626 3.3677 32.1501 2.10554 31.2351 1.16201C30.5643 0.434025 29.6236 0.0138514 28.6338 8.27189e-06H20.7784C20.0773 -0.00201044 19.427 0.365587 19.0671 0.967342C18.1823 2.48255 16.9801 3.78841 15.5431 4.79534C15.19 5.0287 14.8138 5.22507 14.4204 5.38134C12.8345 5.99982 11.8251 7.56691 11.9178 9.26667C11.963 10.5267 12.5129 11.7156 13.4438 12.566C13.3044 12.6157 13.1681 12.6738 13.0358 12.74C12.2179 13.1347 11.6223 13.8778 11.4151 14.762C8.32479 16.7982 6.52399 20.3019 6.66712 24C6.66712 29.5333 9.33712 32.4807 11.7911 34.022ZM20.2071 1.65734C20.3275 1.45651 20.5443 1.33353 20.7784 1.33334H23.9558C23.8171 2.62468 23.2225 5.33334 20.6671 5.33334C19.5803 5.33281 18.496 5.22991 17.4284 5.02601C18.5161 4.04669 19.4526 2.91145 20.2071 1.65734ZM13.2504 9.22134C13.1745 8.08441 13.8476 7.03048 14.9111 6.62134C15.2899 6.4667 15.6554 6.28119 16.0038 6.06668C17.5274 6.46504 19.0957 6.66668 20.6704 6.66668C23.9978 6.66668 25.1151 3.48201 25.3038 1.33334H26.4978C25.4325 5.73001 25.2166 10.2897 25.8618 14.7673C24.83 14.5683 23.7858 14.4397 22.7365 14.3827C21.8857 14.3575 21.0401 14.2406 20.2144 14.034C19.6544 13.8473 19.0811 13.612 18.5318 13.3847C17.6652 12.994 16.7642 12.6847 15.8404 12.4607C14.3801 12.0356 13.3437 10.7395 13.2504 9.22134ZM13.6318 13.93C14.207 13.6645 14.8544 13.599 15.4711 13.744C15.5257 13.7622 15.5824 13.7736 15.6398 13.778C16.4553 13.9904 17.2514 14.2712 18.0198 14.6173C18.5931 14.8533 19.1858 15.098 19.7898 15.2993C20.7189 15.5451 21.6731 15.6836 22.6338 15.712C24.5331 15.854 26.6871 16.0147 28.2671 17.2C28.4577 17.3429 28.71 17.3733 28.929 17.2798C29.148 17.1862 29.3005 16.9829 29.329 16.7464C29.3575 16.51 29.2577 16.2762 29.0671 16.1333C28.5214 15.7333 27.9211 15.4138 27.2845 15.1847C26.5153 10.5774 26.7124 5.86045 27.8631 1.33334H28.6338C29.2642 1.35338 29.8597 1.62777 30.2845 2.09401C30.9464 2.78836 31.3213 3.70741 31.3338 4.66668C31.3338 5.37867 31.3638 6.30201 31.4004 7.36534C31.5211 11.0533 31.7005 16.542 30.8198 20.6113C28.8005 20.3853 21.7744 19.4 15.7271 16.122C14.9075 15.3986 13.9026 14.9178 12.8251 14.7333C12.9953 14.3828 13.2798 14.1006 13.6318 13.9333V13.93ZM11.9904 16H12.0004C13.059 16.0289 14.0731 16.4321 14.8624 17.138C14.9076 17.1829 14.9587 17.2212 15.0144 17.252C18.3719 19.0169 21.9565 20.3109 25.6671 21.0973C25.6238 22.8891 25.9886 24.6673 26.7338 26.2973C28.8491 30.5213 30.1264 36.5433 30.5338 38.6667H12.0344C12.137 37.2931 12.4519 35.9438 12.9678 34.6667C15.0331 35.6271 17.2861 36.1167 19.5638 36.1C20.1808 36.1 20.7973 36.0658 21.4104 35.9973C21.6472 35.9709 21.8519 35.8202 21.9473 35.6019C22.0428 35.3837 22.0146 35.1311 21.8733 34.9393C21.7321 34.7474 21.4992 34.6456 21.2624 34.672C18.4146 35.0236 15.527 34.5032 12.9811 33.1793C10.7078 31.9127 8.00045 29.294 8.00045 24C8.00045 20.5287 9.35312 17.846 11.9904 16Z" fill="#4AB04A"/>
<path d="M13.6949 29.4907C14.0736 29.8067 14.4762 30.1434 14.8996 30.506C15.1491 30.7194 15.5168 30.7194 15.7662 30.506C16.1896 30.1434 16.5922 29.8067 16.9709 29.4907C19.2002 27.6334 20.6669 26.4067 20.6669 24.5054C20.698 23.6846 20.3976 22.8859 19.8332 22.2892C19.2688 21.6925 18.4881 21.348 17.6669 21.3334C16.7841 21.3322 15.94 21.6952 15.3336 22.3367C14.7272 21.6952 13.883 21.3322 13.0002 21.3334C12.1791 21.348 11.3983 21.6925 10.834 22.2892C10.2696 22.8859 9.96912 23.6846 10.0002 24.5054C10.0002 26.4067 11.4669 27.6334 13.6949 29.4907ZM13.0002 22.6667C13.7291 22.6921 14.3903 23.1008 14.7389 23.7414C14.8524 23.9634 15.0802 24.1036 15.3296 24.1047H15.3336C15.5836 24.1037 15.8123 23.9636 15.9269 23.7414C16.2757 23.1003 16.9375 22.6915 17.6669 22.6667C18.135 22.6803 18.5774 22.8841 18.8919 23.231C19.2064 23.578 19.3659 24.0382 19.3336 24.5054C19.3336 25.7827 18.1236 26.7934 16.1182 28.4674C15.8669 28.6774 15.6049 28.8954 15.3336 29.1247C15.0622 28.8954 14.8002 28.6774 14.5489 28.4674C12.5436 26.7934 11.3336 25.7827 11.3336 24.5054C11.3013 24.0382 11.4608 23.578 11.7753 23.231C12.0898 22.8841 12.5321 22.6803 13.0002 22.6667Z" fill="#4AB04A"/>
</g>
<defs>
<clipPath id="clip0_10986_2313">
<rect width="40" height="40" fill="white"/>
</clipPath>
</defs>
</svg>
