<svg width="40" height="40" viewBox="0 0 40 40" fill="none" xmlns="http://www.w3.org/2000/svg">
<path d="M13.2598 15.6326C13.363 15.7582 13.4928 15.8592 13.6398 15.9285C13.7868 15.9978 13.9473 16.0336 14.1098 16.0332H21.3547C21.5156 16.0344 21.6748 16 21.8209 15.9324C21.967 15.8648 22.0963 15.7657 22.1996 15.6422L25.2516 12.0666C25.5355 11.7374 25.6839 11.3128 25.667 10.8784C25.65 10.4441 25.469 10.0323 25.1604 9.72622C23.8633 8.46765 21.5224 6.96655 17.7337 6.96655C13.9449 6.96655 11.604 8.46765 10.3035 9.73075C9.99635 10.0368 9.81633 10.4477 9.79962 10.881C9.7829 11.3142 9.93073 11.7378 10.2134 12.0666L13.2598 15.6326ZM11.0957 10.5405C12.2432 9.42702 14.3252 8.09989 17.7337 8.09989C21.1422 8.09989 23.2241 9.42702 24.3682 10.5366C24.4703 10.6421 24.5293 10.7819 24.5336 10.9287C24.5379 11.0755 24.4872 11.2186 24.3914 11.3299L21.3428 14.8999H18.7928L20.4735 12.3788C20.5148 12.3169 20.5435 12.2474 20.558 12.1744C20.5724 12.1014 20.5724 12.0263 20.5578 11.9533C20.5432 11.8803 20.5144 11.8109 20.473 11.7491C20.4316 11.6872 20.3784 11.6341 20.3165 11.5928C20.2546 11.5515 20.1852 11.5228 20.1122 11.5084C20.0392 11.4939 19.964 11.4939 19.891 11.5085C19.818 11.5231 19.7486 11.5519 19.6868 11.5933C19.6249 11.6347 19.5719 11.6879 19.5306 11.7498L17.4299 14.901H14.1319L11.0736 11.3299C10.9787 11.219 10.9284 11.0768 10.9325 10.9309C10.9366 10.7851 10.9948 10.6459 11.0957 10.5405Z" fill="#4AB04A"/>
<path d="M7.53301 9.2335C7.86924 9.2335 8.19791 9.13379 8.47748 8.947C8.75704 8.7602 8.97493 8.49469 9.1036 8.18406C9.23227 7.87342 9.26594 7.53161 9.20034 7.20184C9.13475 6.87208 8.97284 6.56916 8.73509 6.33142C8.49734 6.09367 8.19443 5.93176 7.86466 5.86616C7.53489 5.80057 7.19308 5.83423 6.88245 5.9629C6.57181 6.09157 6.30631 6.30946 6.11951 6.58903C5.93271 6.86859 5.83301 7.19727 5.83301 7.5335C5.83301 7.98436 6.01211 8.41677 6.33093 8.73558C6.64974 9.05439 7.08214 9.2335 7.53301 9.2335ZM7.53301 6.96683C7.64508 6.96683 7.75464 7.00006 7.84783 7.06233C7.94102 7.1246 8.01365 7.2131 8.05654 7.31664C8.09943 7.42019 8.11065 7.53413 8.08879 7.64405C8.06692 7.75397 8.01295 7.85494 7.9337 7.93419C7.85445 8.01344 7.75348 8.06741 7.64356 8.08928C7.53364 8.11114 7.4197 8.09992 7.31615 8.05703C7.21261 8.01414 7.12411 7.94151 7.06184 7.84832C6.99958 7.75513 6.96634 7.64557 6.96634 7.5335C6.96634 7.38321 7.02604 7.23907 7.13231 7.1328C7.23858 7.02653 7.38272 6.96683 7.53301 6.96683Z" fill="#4AB04A"/>
<path d="M27.9329 9.2335C28.2691 9.2335 28.5978 9.13379 28.8774 8.947C29.1569 8.7602 29.3748 8.49469 29.5035 8.18406C29.6322 7.87342 29.6658 7.53161 29.6002 7.20184C29.5347 6.87208 29.3727 6.56916 29.135 6.33142C28.8972 6.09367 28.5943 5.93176 28.2646 5.86616C27.9348 5.80057 27.593 5.83423 27.2823 5.9629C26.9717 6.09157 26.7062 6.30946 26.5194 6.58903C26.3326 6.86859 26.2329 7.19727 26.2329 7.5335C26.2329 7.98436 26.412 8.41677 26.7308 8.73558C27.0496 9.05439 27.482 9.2335 27.9329 9.2335ZM27.9329 6.96683C28.045 6.96683 28.1545 7.00006 28.2477 7.06233C28.3409 7.1246 28.4136 7.2131 28.4564 7.31664C28.4993 7.42019 28.5106 7.53413 28.4887 7.64405C28.4668 7.75397 28.4129 7.85494 28.3336 7.93419C28.2544 8.01344 28.1534 8.06741 28.0435 8.08928C27.9335 8.11114 27.8196 8.09992 27.7161 8.05703C27.6125 8.01414 27.524 7.94151 27.4617 7.84832C27.3995 7.75513 27.3662 7.64557 27.3662 7.5335C27.3662 7.38321 27.4259 7.23907 27.5322 7.1328C27.6385 7.02653 27.7826 6.96683 27.9329 6.96683Z" fill="#4AB04A"/>
<path d="M27.9329 30.7665C27.5967 30.7665 27.268 30.8662 26.9884 31.053C26.7089 31.2398 26.491 31.5053 26.3623 31.8159C26.2336 32.1266 26.2 32.4684 26.2656 32.7981C26.3312 33.1279 26.4931 33.4308 26.7308 33.6686C26.9686 33.9063 27.2715 34.0682 27.6013 34.1338C27.931 34.1994 28.2728 34.1657 28.5835 34.0371C28.8941 33.9084 29.1596 33.6905 29.3464 33.4109C29.5332 33.1314 29.6329 32.8027 29.6329 32.4665C29.6329 32.0156 29.4538 31.5832 29.135 31.2644C28.8162 30.9456 28.3838 30.7665 27.9329 30.7665ZM27.9329 33.0331C27.8208 33.0331 27.7113 32.9999 27.6181 32.9376C27.5249 32.8754 27.4523 32.7869 27.4094 32.6833C27.3665 32.5798 27.3553 32.4659 27.3771 32.3559C27.399 32.246 27.453 32.145 27.5322 32.0658C27.6115 31.9865 27.7124 31.9326 27.8224 31.9107C27.9323 31.8888 28.0462 31.9001 28.1498 31.9429C28.2533 31.9858 28.3418 32.0585 28.4041 32.1517C28.4663 32.2448 28.4996 32.3544 28.4996 32.4665C28.4996 32.6168 28.4399 32.7609 28.3336 32.8672C28.2273 32.9734 28.0832 33.0331 27.9329 33.0331Z" fill="#4AB04A"/>
<path d="M7.53301 30.7665C7.19678 30.7665 6.8681 30.8662 6.58854 31.053C6.30898 31.2398 6.09108 31.5053 5.96241 31.8159C5.83374 32.1266 5.80008 32.4684 5.86567 32.7981C5.93127 33.1279 6.09318 33.4308 6.33093 33.6686C6.56868 33.9063 6.87159 34.0682 7.20136 34.1338C7.53112 34.1994 7.87294 34.1657 8.18357 34.0371C8.4942 33.9084 8.75971 33.6905 8.94651 33.4109C9.13331 33.1314 9.23301 32.8027 9.23301 32.4665C9.23301 32.0156 9.0539 31.5832 8.73509 31.2644C8.41628 30.9456 7.98388 30.7665 7.53301 30.7665ZM7.53301 33.0331C7.42093 33.0331 7.31137 32.9999 7.21819 32.9376C7.125 32.8754 7.05237 32.7869 7.00948 32.6833C6.96659 32.5798 6.95537 32.4659 6.97723 32.3559C6.9991 32.246 7.05307 32.145 7.13231 32.0658C7.21156 31.9865 7.31253 31.9326 7.42246 31.9107C7.53238 31.8888 7.64632 31.9001 7.74986 31.9429C7.85341 31.9858 7.94191 32.0585 8.00417 32.1517C8.06644 32.2448 8.09968 32.3544 8.09968 32.4665C8.09968 32.6168 8.03997 32.7609 7.9337 32.8672C7.82743 32.9734 7.6833 33.0331 7.53301 33.0331Z" fill="#4AB04A"/>
<path d="M35.5012 16.4986C34.4041 16.3637 33.4045 16.2617 32.4667 16.1858V8.66667C32.465 7.16428 31.8675 5.7239 30.8051 4.66155C29.7428 3.5992 28.3024 3.00165 26.8 3L8.66667 3C7.16428 3.00165 5.7239 3.5992 4.66155 4.66155C3.5992 5.7239 3.00165 7.16428 3 8.66667L3 31.3333C3.00165 32.8357 3.5992 34.2761 4.66155 35.3384C5.7239 36.4008 7.16428 36.9983 8.66667 37H26.8C28.3024 36.9983 29.7428 36.4008 30.8051 35.3384C31.8675 34.2761 32.465 32.8357 32.4667 31.3333V28.4059C34.0499 28.3493 35.2615 27.9288 36.0616 27.1428C36.618 26.6122 36.9532 25.8907 37 25.1232V18.1867C36.9987 17.771 36.8456 17.3701 36.5697 17.0593C36.2937 16.7485 35.9137 16.5491 35.5012 16.4986ZM35.8667 18.1867V24.4806C35.1198 24.386 34.3673 24.2919 33.6 24.2109V22.2899C33.6 22.1396 33.5403 21.9955 33.434 21.8892C33.3278 21.7829 33.1836 21.7232 33.0333 21.7232C32.883 21.7232 32.7389 21.7829 32.6326 21.8892C32.5264 21.9955 32.4667 22.1396 32.4667 22.2899V24.1032C31.734 24.0466 30.9797 24.0058 30.2 23.9944V22.2899C30.2 22.1396 30.1403 21.9955 30.034 21.8892C29.9278 21.7829 29.7836 21.7232 29.6333 21.7232C29.483 21.7232 29.3389 21.7829 29.2326 21.8892C29.1264 21.9955 29.0667 22.1396 29.0667 22.2899V24.0007C28.3396 24.0182 27.5871 24.0636 26.8 24.1474V22.8566C26.8 22.7063 26.7403 22.5621 26.634 22.4559C26.5278 22.3496 26.3836 22.2899 26.2333 22.2899C26.083 22.2899 25.9389 22.3496 25.8326 22.4559C25.7264 22.5621 25.6667 22.7063 25.6667 22.8566V24.2931C24.9413 24.3996 24.1871 24.539 23.4 24.7164V23.4232C23.4 23.2729 23.3403 23.1288 23.234 23.0225C23.1278 22.9163 22.9836 22.8566 22.8333 22.8566C22.683 22.8566 22.5389 22.9163 22.4326 23.0225C22.3264 23.1288 22.2667 23.2729 22.2667 23.4232V24.9912C21.541 25.1801 20.7854 25.4037 20 25.6621V24.5566C20 24.4063 19.9403 24.2621 19.834 24.1559C19.7278 24.0496 19.5836 23.9899 19.4333 23.9899C19.283 23.9899 19.1389 24.0496 19.0326 24.1559C18.9264 24.2621 18.8667 24.4063 18.8667 24.5566V26.0112C18.1219 26.2209 17.3649 26.3844 16.6 26.5008V25.1232C16.6 24.9729 16.5403 24.8288 16.434 24.7225C16.3278 24.6163 16.1836 24.5566 16.0333 24.5566C15.883 24.5566 15.7389 24.6163 15.6326 24.7225C15.5264 24.8288 15.4667 24.9729 15.4667 25.1232V26.6351C14.7127 26.6991 13.9549 26.7055 13.2 26.6544V25.1244C13.2 24.9741 13.1403 24.8299 13.034 24.7237C12.9278 24.6174 12.7836 24.5577 12.6333 24.5577C12.483 24.5577 12.3389 24.6174 12.2326 24.7237C12.1264 24.8299 12.0667 24.9741 12.0667 25.1244V26.528C11.4252 26.4303 10.7945 26.2718 10.1831 26.0548C10.0714 26.0159 9.97458 25.9432 9.90596 25.8469C9.83735 25.7506 9.80032 25.6353 9.8 25.5171V19.2837C9.7996 19.196 9.81956 19.1095 9.8583 19.0308C9.89704 18.9521 9.95351 18.8835 10.0233 18.8304C10.1203 18.7546 10.2401 18.7136 10.3633 18.7142C10.4115 18.7143 10.4595 18.7206 10.5061 18.7329C12.6934 19.316 16.8612 20.1065 20.2023 18.8531C24.5016 17.2403 27.7123 16.6793 35.3657 17.6234C35.5034 17.6403 35.6302 17.7069 35.7224 17.8105C35.8146 17.9142 35.8659 18.0479 35.8667 18.1867ZM26.8 35.8667H8.66667C7.46477 35.8653 6.31248 35.3873 5.46261 34.5374C4.61273 33.6875 4.13468 32.5352 4.13333 31.3333V8.66667C4.13468 7.46477 4.61273 6.31248 5.46261 5.46261C6.31248 4.61273 7.46477 4.13468 8.66667 4.13333H26.8C28.0019 4.13468 29.1542 4.61273 30.0041 5.46261C30.8539 6.31248 31.332 7.46477 31.3333 8.66667V16.1047C26.2611 15.8021 23.4 16.4447 19.8005 17.7923C16.7558 18.9341 12.8526 18.1889 10.7956 17.6387C10.5457 17.571 10.2834 17.5623 10.0295 17.6133C9.77562 17.6642 9.53702 17.7734 9.3325 17.9322C9.12471 18.0907 8.95645 18.2951 8.84093 18.5295C8.72541 18.7639 8.66576 19.0219 8.66667 19.2832V25.5165C8.66876 25.8664 8.7778 26.2073 8.97916 26.4934C9.18052 26.7795 9.46457 26.9972 9.7932 27.1173C11.2028 27.611 12.688 27.854 14.1815 27.8353C16.2238 27.8136 18.2491 27.4616 20.1791 26.7932C23.7558 25.53 27.5449 24.9781 31.3333 25.1686V31.3333C31.332 32.5352 30.8539 33.6875 30.0041 34.5374C29.1542 35.3873 28.0019 35.8653 26.8 35.8667ZM32.4667 27.2743V25.2422C33.5949 25.3352 34.6767 25.4723 35.7533 25.6083C35.5176 26.2197 34.7764 27.1876 32.4667 27.2743Z" fill="#4AB04A"/>
</svg>
