<svg width="40" height="40" viewBox="0 0 40 40" fill="none" xmlns="http://www.w3.org/2000/svg">
<path fill-rule="evenodd" clip-rule="evenodd" d="M19.8621 21.1273C15.8369 19.0508 13.5226 16.0354 12.6009 13.2345C12.1816 11.9613 12.0521 10.7383 12.1816 9.67646C12.3071 8.65206 12.6717 7.78582 13.2477 7.18382C13.8453 6.56158 14.6852 6.21454 15.7365 6.26694C16.2693 6.29334 16.8657 6.47086 17.5201 6.77118C18.2026 7.0843 18.9434 7.52958 19.7374 8.07694C19.9193 8.20246 20.1532 8.19582 20.3262 8.0787C21.1137 7.56918 21.8535 7.15118 22.5405 6.85614C23.1989 6.57342 23.7944 6.40918 24.3206 6.39062C24.6668 6.37958 24.9905 6.41046 25.2899 6.4787C25.4885 6.52406 25.6753 6.5879 25.8514 6.6659V7.65814H23.9458C23.6578 7.65814 23.424 7.89246 23.424 8.18046V11.2324C23.424 11.5213 23.6578 11.7547 23.9458 11.7547H25.8514V13.6598C25.8514 13.9492 26.0853 14.1821 26.3737 14.1821H27.029C26.4657 15.4469 25.6118 16.7277 24.4381 17.9158C23.2497 19.12 21.7338 20.2271 19.8621 21.1273ZM26.8961 6.27534V8.18046C26.8961 8.46894 26.6623 8.70278 26.3738 8.70278H24.4682V10.7101H26.3738C26.6623 10.7101 26.8961 10.944 26.8961 11.2325V13.1381H28.9039V11.2325C28.9039 10.944 29.1373 10.7101 29.4262 10.7101H31.3314V8.70278H29.4262C29.1373 8.70278 28.9039 8.46894 28.9039 8.18046V6.27534H26.8961ZM28.1601 14.1822H29.4262C29.7147 14.1822 29.9485 13.9493 29.9485 13.6599V11.7548H31.8537C32.1421 11.7548 32.376 11.5213 32.376 11.2325V8.18054C32.376 7.89254 32.1421 7.65822 31.8537 7.65822H29.9485V5.75302C29.9485 5.46454 29.7147 5.2307 29.4262 5.2307H26.3738C26.1523 5.2307 25.9629 5.36942 25.8868 5.56406C25.7688 5.52534 25.6472 5.49094 25.523 5.4623C25.1399 5.37462 24.7281 5.3359 24.2881 5.35046C23.6188 5.37294 22.8978 5.5663 22.1285 5.89702C21.4767 6.17798 20.7795 6.5607 20.0419 7.02446C19.3082 6.53342 18.611 6.12694 17.9526 5.82486C17.1806 5.4703 16.4584 5.25982 15.7854 5.22638C14.4114 5.15766 13.3003 5.62494 12.4969 6.46214C11.7601 7.2315 11.2973 8.30478 11.1453 9.55062C10.9978 10.7595 11.1409 12.1384 11.6091 13.5613C12.6247 16.6441 15.1777 19.9572 19.6208 22.175C19.7573 22.2429 19.9221 22.2503 20.0713 22.1812C22.1677 21.2079 23.8597 19.9841 25.1808 18.6465C26.5764 17.2341 27.5563 15.6937 28.1601 14.1822ZM36.1916 13.1231C36.1968 13.0676 36.1898 13.0143 36.1709 12.9659C36.1493 12.913 36.1123 12.8606 36.0594 12.8113C35.9898 12.7449 35.9202 12.703 35.8463 12.6783C35.7622 12.6505 35.6561 12.6391 35.5279 12.6391C35.3707 12.6391 35.2315 12.6801 35.1262 12.7518C35.0337 12.8148 34.9659 12.8998 34.9377 12.998L33.3281 18.5809C33.2259 18.9354 33.0911 19.2604 32.9198 19.5633C32.8203 19.7395 32.7053 19.9095 32.5781 20.0742C32.7697 20.3886 32.856 20.7397 32.8366 21.0885C32.8129 21.5046 32.6415 21.912 32.3253 22.2414C32.2633 22.3061 32.1924 22.37 32.1144 22.4313L27.9434 25.699C27.7171 25.8756 27.3898 25.8356 27.2128 25.6092C27.0362 25.3828 27.0762 25.0552 27.3026 24.8785L31.4736 21.6108C31.5075 21.5839 31.5418 21.5531 31.5744 21.5192C31.7118 21.3756 31.7862 21.2034 31.7959 21.0317C31.8056 20.8595 31.7518 20.6842 31.6338 20.5327C31.6101 20.5023 31.5805 20.471 31.5466 20.4381C31.3467 20.2461 31.0675 20.1421 30.7799 20.1297C30.4888 20.1165 30.195 20.1971 29.97 20.3733L24.0317 25.0261L24.0286 25.0291C23.8806 25.1613 23.6904 25.3241 23.5081 25.4809C22.5176 26.3301 21.7773 26.9651 21.7773 28.3752V33.7353H27.1801V33.7375H27.1894C27.4009 33.7353 27.6017 33.6644 27.747 33.5433C27.8668 33.4429 27.9448 33.3037 27.9448 33.1429H27.947V33.1372C27.9373 32.0419 28.0166 30.9761 28.3398 29.9518C28.6701 28.9063 29.2479 27.9128 30.23 26.9866C30.821 26.4295 31.4081 25.994 31.9749 25.5734C32.8957 24.8908 33.762 24.2483 34.4494 23.1829C35.6557 21.3125 35.8689 17.9171 36.0419 15.1607C36.0881 14.4377 36.1304 13.7581 36.1916 13.1231ZM37.1416 12.5827C37.0653 12.3877 36.9417 12.2101 36.7743 12.0521C36.5902 11.8785 36.3942 11.7636 36.1771 11.6905C35.9697 11.6217 35.7578 11.5945 35.528 11.5945C35.1625 11.5945 34.8198 11.7024 34.5428 11.8904C34.253 12.0868 34.0363 12.3709 33.9381 12.7121L32.328 18.295C32.2509 18.565 32.1469 18.8147 32.014 19.0494C31.9541 19.156 31.888 19.2586 31.8162 19.3585C31.5119 19.1943 31.1701 19.1036 30.8245 19.089C30.2973 19.0657 29.7561 19.2185 29.3293 19.5537L23.391 24.2065C23.3717 24.2197 23.3536 24.2337 23.3351 24.2496C23.1321 24.4306 22.9788 24.5623 22.8304 24.6891C21.6303 25.7183 20.7328 26.4881 20.7328 28.3752V34.2576C20.7328 34.5465 20.9662 34.7803 21.2551 34.7803H27.1802V34.7777H27.1978C27.6497 34.7737 28.0861 34.6143 28.412 34.3434C28.7625 34.051 28.9893 33.6353 28.9893 33.1429H28.9876V33.1288C28.9783 32.1348 29.0488 31.1747 29.3355 30.2666C29.6156 29.3793 30.1071 28.5345 30.9442 27.7453C31.4956 27.2261 32.0549 26.8108 32.5953 26.4097C33.5963 25.668 34.5365 24.9696 35.3266 23.7453C36.6786 21.6498 36.9019 18.1037 37.0825 15.2253C37.1292 14.4885 37.1727 13.7958 37.2278 13.2211C37.2499 12.9958 37.2204 12.7817 37.1416 12.5827ZM18.223 33.7354V28.3753C18.223 26.9652 17.4827 26.3301 16.4923 25.4811C16.31 25.3243 16.1206 25.1623 15.9717 25.0293L15.9687 25.0262L10.0304 20.3734C9.80533 20.1973 9.51157 20.1167 9.22045 20.1299C8.93285 20.1422 8.65365 20.2461 8.45373 20.4382C8.41981 20.4713 8.39117 20.5025 8.36653 20.5329C8.24853 20.6844 8.19477 20.8597 8.20445 21.0318C8.21413 21.2036 8.28853 21.3757 8.42597 21.5193C8.45853 21.5533 8.49293 21.5841 8.52685 21.6109L12.6978 24.8787C12.9242 25.0553 12.9647 25.3829 12.7877 25.6093C12.6106 25.8357 12.2834 25.8758 12.057 25.6992L7.88597 22.4313C7.80805 22.3701 7.73797 22.3062 7.67501 22.2414C7.35877 21.912 7.18749 21.5046 7.16373 21.0885C7.14437 20.7397 7.23069 20.3887 7.42221 20.0742C7.29493 19.9095 7.17997 19.7395 7.08045 19.5633C6.90909 19.2604 6.77437 18.9353 6.67221 18.5809L5.06301 12.998C5.03437 12.8997 4.96661 12.8148 4.87405 12.7513C4.76877 12.68 4.62965 12.639 4.47237 12.639C4.34421 12.639 4.23813 12.6505 4.15397 12.6782C4.07997 12.7029 4.01037 12.7447 3.94085 12.8113C3.88797 12.8605 3.85101 12.913 3.82941 12.9658C3.81045 13.0143 3.80341 13.0676 3.80869 13.123C3.86989 13.7581 3.91221 14.4377 3.95845 15.1608C4.13149 17.9172 4.34469 21.3127 5.55093 23.183C6.23885 24.2484 7.10469 24.8905 8.02549 25.5735C8.59229 25.9941 9.17933 26.4297 9.77029 26.9867C10.7524 27.9129 11.3302 28.9064 11.6605 29.9519C11.9837 30.9763 12.063 32.0421 12.0533 33.1373V33.143H12.0555C12.0555 33.3037 12.1334 33.4429 12.2532 33.5433C12.3985 33.6645 12.5993 33.7353 12.8107 33.7376H12.82V33.7353L18.223 33.7354ZM17.17 24.6892C17.0216 24.5624 16.8679 24.4302 16.6653 24.2497C16.6477 24.2338 16.6287 24.2193 16.6093 24.2065L10.671 19.5537C10.2443 19.2186 9.70301 19.0658 9.17589 19.0887C8.83021 19.1037 8.48845 19.1944 8.18413 19.3586C8.11237 19.2586 8.04629 19.1561 7.98637 19.0495C7.85341 18.8148 7.74989 18.5651 7.67237 18.2951L6.06229 12.7122C5.96405 12.3709 5.74829 12.0869 5.45765 11.8905C5.18069 11.7024 4.83805 11.5945 4.47245 11.5945C4.24261 11.5945 4.03077 11.6218 3.82333 11.6905C3.60621 11.7637 3.41021 11.8786 3.22613 12.0521C3.05877 12.2102 2.93501 12.3877 2.85885 12.5828C2.78005 12.7818 2.75093 12.9959 2.77253 13.2213C2.82757 13.7961 2.87117 14.4888 2.91789 15.2256C3.09893 18.104 3.32173 21.6501 4.67373 23.7455C5.46381 24.9698 6.40493 25.6682 7.40509 26.4099C7.94549 26.8111 8.50477 27.2264 9.05613 27.7456C9.89333 28.5348 10.3848 29.3794 10.6649 30.2669C10.9517 31.1749 11.0221 32.135 11.0129 33.129V33.1431H11.0111C11.0111 33.6354 11.2379 34.0512 11.5885 34.3437C11.9144 34.6145 12.3508 34.7739 12.8026 34.7779H12.8202V34.7805H18.7453C19.0342 34.7805 19.2677 34.5467 19.2677 34.2578V28.3754C19.2676 26.4882 18.3701 25.7184 17.17 24.6892Z" fill="#4AB04A"/>
</svg>
