<svg width="40" height="40" viewBox="0 0 40 40" fill="none" xmlns="http://www.w3.org/2000/svg">
<path d="M20.1496 9.88125C22.7027 9.88125 24.7777 7.80625 24.7777 5.25312C24.7777 2.7 22.7027 0.625 20.1496 0.625C17.5965 0.625 15.5215 2.7 15.5215 5.25312C15.5215 7.80312 17.5996 9.88125 20.1496 9.88125ZM20.1496 1.875C22.0121 1.875 23.5277 3.39062 23.5277 5.25312C23.5277 7.11562 22.0121 8.63125 20.1496 8.63125C18.2871 8.63125 16.7715 7.11562 16.7715 5.25312C16.7715 3.39062 18.2871 1.875 20.1496 1.875Z" fill="#4AB04A"/>
<path d="M36.9436 35.2875L33.1029 25.8719C32.5217 24.4469 31.1498 23.5281 29.6154 23.5281H28.2748C27.3467 20.7906 25.4217 18.4437 22.9092 16.9906V13.3562C22.9092 11.9406 21.7561 10.7875 20.3404 10.7875H17.7029C14.5404 10.7875 11.9592 13.3312 11.8998 16.4781C11.2779 16.7656 10.6873 17.1031 10.1342 17.4875L9.59668 13.3687C9.40605 11.8969 8.14043 10.7875 6.65605 10.7875H3.45605C3.1123 10.7875 2.83105 11.0687 2.83105 11.4125C2.83105 11.7562 3.1123 12.0375 3.45605 12.0375H6.65918C7.51855 12.0375 8.24668 12.6781 8.35918 13.5312L8.99043 18.3812C6.2998 20.7625 4.74668 24.2937 4.9373 28.0093C5.24668 34.0469 10.0248 38.9219 16.0529 39.3437C16.3373 39.3625 16.6154 39.3719 16.8967 39.3719C22.3186 39.3719 27.0873 35.6937 28.4904 30.5219L31.3654 37.5656C31.8436 38.7312 32.9717 39.4375 34.1592 39.4375C34.5373 39.4375 34.9217 39.3656 35.2904 39.2156C36.4311 38.7531 37.1686 37.6594 37.1686 36.4281C37.1686 36.0344 37.0936 35.6531 36.9436 35.2875ZM16.8967 38.125C16.6467 38.125 16.3936 38.1156 16.1404 38.1C10.7436 37.7187 6.4623 33.3562 6.1873 27.9468C5.97168 23.75 8.24043 19.8218 11.9029 17.8781V25.1062C11.9029 26.6218 13.0498 27.8906 14.5123 27.9968C14.5811 28.0031 14.6498 28.0031 14.7186 28.0031C15.4654 28.0031 16.1842 27.7094 16.7154 27.1781C17.2498 26.6469 17.5436 25.9406 17.5436 25.1843V19.8312C19.1061 19.9594 20.5998 20.5718 21.8061 21.5906C23.5154 23.0343 24.4967 25.1468 24.4967 27.3843C24.4967 31.5625 21.0967 34.9625 16.9186 34.9625C12.7404 34.9625 9.34043 31.5625 9.34043 27.3843C9.34043 27.0406 9.05918 26.7593 8.71543 26.7593C8.37168 26.7593 8.09043 27.0406 8.09043 27.3843C8.09043 32.2531 12.0498 36.2125 16.9186 36.2125C21.7873 36.2125 25.7467 32.2531 25.7467 27.3843C25.7467 24.7781 24.6029 22.3187 22.6123 20.6375C21.1842 19.4312 19.4029 18.7156 17.5436 18.5844V16.0156C17.5436 15.6719 17.2623 15.3906 16.9186 15.3906C16.5748 15.3906 16.2936 15.6719 16.2936 16.0156V25.1875C16.2936 25.6062 16.1311 26 15.8342 26.2969C15.5123 26.6187 15.0623 26.7844 14.6029 26.7531C13.7904 26.6937 13.1529 25.9719 13.1529 25.1094V16.5875C13.1529 16.5844 13.1529 16.5812 13.1529 16.5812C13.1592 14.0781 15.1967 12.0406 17.7061 12.0406H20.3436C21.0717 12.0406 21.6623 12.6312 21.6623 13.3594V17.3594C21.6623 17.5906 21.7904 17.8 21.9904 17.9094C24.5092 19.2625 26.4154 21.6031 27.2248 24.3437C27.2686 24.4812 27.3061 24.6187 27.3404 24.7625C27.5561 25.6156 27.6654 26.4969 27.6654 27.3843C27.6654 27.8875 27.6311 28.3812 27.5654 28.8468L27.5561 28.9125C26.7998 34.2062 22.1936 38.125 16.8967 38.125ZM34.8186 38.0594C33.9186 38.425 32.8873 37.9937 32.5217 37.0969L29.0936 28.6937C29.0467 28.575 28.9654 28.4781 28.8623 28.4094C28.8904 28.0719 28.9123 27.7281 28.9123 27.3781C28.9123 26.5 28.8092 25.625 28.6217 24.775H29.6154C30.6436 24.775 31.5561 25.3906 31.9467 26.3437L35.7873 35.7594C35.8748 35.9719 35.9186 36.1968 35.9186 36.425C35.9186 37.1468 35.4873 37.7875 34.8186 38.0594Z" fill="#4AB04A"/>
</svg>
