<svg width="40" height="40" viewBox="0 0 40 40" fill="none" xmlns="http://www.w3.org/2000/svg">
<path d="M36.791 12.8059C35.436 9.4905 34.5908 10.1541 31.5309 10.0973C30.3265 10.0973 29.7873 10.8129 29.7873 11.5224V13.3036C29.7901 13.5964 29.8631 13.8843 30.0002 14.1431C30.1372 14.4018 30.3343 14.624 30.5749 14.7909C30.8155 14.9578 31.0926 15.0646 31.383 15.1023C31.6734 15.14 31.9686 15.1075 32.2439 15.0076L32.8801 14.7693C32.7075 16.4366 32.31 18.0729 31.6985 19.6336C30.9262 18.714 29.8655 18.0828 28.6889 17.8426C28.2777 17.1061 27.7095 16.4691 27.0246 15.9767C26.3397 15.4843 25.5548 15.1486 24.7257 14.9933C23.8966 14.8381 23.0435 14.8672 22.2268 15.0784C21.4102 15.2897 20.65 15.678 20.0002 16.2159C19.3503 15.6781 18.5902 15.2898 17.7735 15.0786C16.9569 14.8674 16.1038 14.8383 15.2747 14.9936C14.4456 15.1488 13.6608 15.4845 12.9759 15.9769C12.291 16.4693 11.7228 17.1063 11.3116 17.8428C10.135 18.083 9.07428 18.7141 8.30188 19.6336C7.69137 18.0727 7.29405 16.4367 7.12063 14.7696C7.86001 15.1014 8.72001 15.3278 9.42856 14.8001C10.5131 14.1228 10.1596 12.579 10.2131 11.5224C10.2131 10.8129 9.67391 10.0973 8.46944 10.0973H5.88807C4.36856 10.0822 3.78109 11.5411 3.21094 12.802C2.56176 14.4137 2.35259 16.169 2.60485 17.8881C2.80575 20.2197 3.29805 22.5169 4.07025 24.7261C4.22387 25.1833 4.54889 25.5632 4.97692 25.7856C5.40495 26.008 5.90258 26.0557 6.36506 25.9186C6.63552 25.8427 6.91093 25.7856 7.1893 25.7477C10.3156 25.359 12.3047 28.0025 15.3504 27.3083C17.7629 28.9624 19.4191 29.8005 20.0002 29.9218C20.5637 29.8061 22.2516 28.9589 24.6501 27.3085C25.5683 27.4654 26.5101 27.4145 27.4061 27.1594C29.2282 26.5958 30.6175 25.4527 32.8114 25.7477C33.0862 25.785 33.3581 25.8411 33.6253 25.9156C34.0877 26.0552 34.5864 26.0098 35.016 25.7889C35.4457 25.568 35.7727 25.1889 35.9283 24.7316C36.7014 22.5207 37.1943 20.2216 37.3955 17.888C37.6478 16.1704 37.4392 14.4165 36.791 12.8059ZM12.944 25.9595C10.8521 25.1843 8.68512 23.8673 6.02598 24.7158C5.8718 24.7636 5.70505 24.7496 5.56102 24.6767C5.41698 24.6038 5.30697 24.4777 5.25425 24.3251C4.50642 22.1822 4.03111 19.9537 3.83953 17.6921C3.62733 16.1994 3.80922 14.6772 4.36715 13.2765C4.56403 12.7743 4.80135 12.4575 4.98174 12.04C5.04569 11.8468 5.16637 11.6774 5.32804 11.5538C5.48972 11.4302 5.68488 11.3582 5.88807 11.3472H8.46942C8.6403 11.3472 8.96317 11.3839 8.96317 11.5224V13.3036C8.96248 13.3953 8.93978 13.4855 8.89698 13.5665C8.85418 13.6476 8.79253 13.7172 8.71722 13.7695C8.64191 13.8218 8.55515 13.8552 8.46423 13.8669C8.37331 13.8787 8.2809 13.8684 8.19477 13.837L6.62595 13.2496C6.52881 13.2144 6.42451 13.2037 6.32225 13.2184C6.21999 13.2331 6.12292 13.2727 6.0396 13.3338C5.95627 13.3948 5.88926 13.4755 5.84448 13.5686C5.7997 13.6617 5.77852 13.7643 5.78282 13.8676C5.79157 14.0372 6.01188 17.8893 7.43 20.7135C7.30843 20.8779 7.18869 21.0406 7.07608 21.2015C7.01205 21.2954 6.97468 21.405 6.96794 21.5185C6.9612 21.632 6.98535 21.7452 7.03782 21.846C7.0903 21.9469 7.16912 22.0316 7.26593 22.0913C7.36273 22.1509 7.47389 22.1832 7.58757 22.1847C8.13557 22.172 8.32705 21.5016 8.66007 21.1507C9.20095 20.3731 9.92472 19.7404 10.7677 19.3082C10.1162 21.944 11.7423 24.287 13.8438 26.1185C13.5394 26.095 13.238 26.0418 12.944 25.9595ZM20.0002 28.6059C17.7189 27.5719 11.6821 23.9164 11.8754 20.5468C11.8606 19.712 12.0897 18.891 12.5344 18.1844C12.9792 17.4778 13.6204 16.9162 14.3794 16.5685C15.1368 16.2027 15.9822 16.0584 16.818 16.1523C17.6538 16.2463 18.4461 16.5746 19.1033 17.0995C19.4563 17.377 19.9258 17.8885 20.3889 17.5032C23.2018 14.7018 28.1447 16.4778 28.1251 20.547C28.3205 23.9109 22.2805 27.5795 20.0002 28.6059ZM36.1609 17.6909C35.9691 19.9548 35.4932 22.1856 34.7443 24.3306C34.6897 24.4834 34.5776 24.6088 34.4319 24.6802C34.2863 24.7515 34.1185 24.7632 33.9643 24.7126C31.9852 24.0699 29.7989 24.7338 28.3951 25.4323C27.6977 25.7967 26.939 26.0292 26.1572 26.1181C27.9118 24.581 29.375 22.665 29.375 20.5469C29.3743 20.13 29.3266 19.7145 29.2328 19.3083C30.0757 19.7404 30.7995 20.3731 31.3404 21.1507C31.6734 21.5031 31.865 22.1713 32.4128 22.1848C32.5265 22.1832 32.6377 22.151 32.7345 22.0913C32.8313 22.0317 32.9101 21.9469 32.9625 21.846C33.015 21.7452 33.0392 21.632 33.0324 21.5185C33.0257 21.405 32.9883 21.2954 32.9243 21.2015C32.8121 21.0411 32.6924 20.8784 32.5705 20.7135C33.9885 17.8893 34.2088 14.0373 34.2176 13.8676C34.2219 13.7644 34.2007 13.6617 34.1559 13.5686C34.1111 13.4755 34.0441 13.3949 33.9608 13.3338C33.8775 13.2727 33.7804 13.2331 33.6782 13.2184C33.5759 13.2037 33.4716 13.2145 33.3745 13.2496L31.805 13.8374C31.7189 13.8687 31.6265 13.8789 31.5356 13.8671C31.4447 13.8553 31.358 13.8218 31.2828 13.7695C31.2075 13.7172 31.1459 13.6476 31.1032 13.5665C31.0605 13.4854 31.0379 13.3953 31.0372 13.3036V11.5224C31.0372 11.3839 31.3601 11.3472 31.531 11.3472H34.1123C34.3167 11.3587 34.5128 11.4316 34.675 11.5564C34.8372 11.6812 34.958 11.8521 35.0214 12.0467C35.2 12.4607 35.4381 12.7775 35.6348 13.2804C36.1918 14.6795 36.3732 16.2 36.1609 17.6909Z" fill="#4AB04A"/>
</svg>
