<svg width="40" height="40" viewBox="0 0 40 40" fill="none" xmlns="http://www.w3.org/2000/svg">
<path d="M19.4476 17.944C19.9071 17.8103 20.3434 17.6071 20.7413 17.3414L20.9718 17.1878L20.2786 16.1476L20.048 16.3013C19.6158 16.5914 19.1227 16.7782 18.6068 16.8473C18.0909 16.9163 17.5661 16.8659 17.0728 16.6997L16.6776 17.8856C17.1558 18.0456 17.6567 18.1274 18.161 18.1279C18.1743 18.1279 18.1875 18.1273 18.2007 18.1271C18.1976 18.8441 17.9962 19.5463 17.619 20.1561C17.2418 20.7658 16.7033 21.2594 16.0631 21.5823L15.3457 21.941L15.9047 23.0591L16.6221 22.7003C17.4972 22.259 18.228 21.5769 18.7286 20.7343C19.2291 19.8916 19.4786 18.9236 19.4476 17.944Z" fill="#4AB04A"/>
<path d="M38.2753 11.5987C36.8262 9.42195 34.9922 7.52777 32.8632 6.00922L31.6133 5.11642C31.5626 5.08021 31.5068 5.05177 31.4477 5.03204L27.6977 3.78204C27.616 3.75482 27.5296 3.74478 27.4438 3.75254C27.358 3.7603 27.2748 3.78569 27.1993 3.82713C27.1238 3.86857 27.0577 3.92516 27.0051 3.99335C26.9525 4.06154 26.9146 4.13986 26.8937 4.2234L26.2687 6.7234C26.2425 6.82812 26.2439 6.93783 26.2727 7.04185C26.3015 7.14587 26.3568 7.24065 26.4331 7.31697L27.6831 8.56697C27.7652 8.64904 27.8685 8.70663 27.9815 8.7333C28.0944 8.75996 28.2126 8.75465 28.3227 8.71796L29.8763 8.20007C30.8844 9.05531 31.5615 10.2363 31.7902 11.5384C30.8782 11.519 29.967 11.6022 29.0736 11.7864L28.7145 11.5812C28.1544 11.2609 27.5128 11.1116 26.8689 11.1517C26.225 11.1918 25.6069 11.4195 25.0909 11.8068L24.7906 12.032L24.7655 12.0119L24.6876 12.1093L24.4337 12.2997L23.125 10.9911V1.875C23.125 1.70924 23.0592 1.55027 22.942 1.43306C22.8248 1.31585 22.6658 1.25 22.5 1.25H13.75C13.5843 1.25 13.4253 1.31585 13.3081 1.43306C13.1909 1.55027 13.1251 1.70924 13.125 1.875V2.5C13.1258 3.05409 13.3102 3.5923 13.6495 4.03037C13.9888 4.46844 14.4637 4.78162 15 4.92088V5.47745L13.816 7.84546C13.7793 7.91887 13.7574 7.99879 13.7516 8.08066C13.7458 8.16254 13.7562 8.24475 13.7821 8.32262C13.8081 8.40048 13.8491 8.47248 13.9029 8.53448C13.9567 8.59649 14.0221 8.6473 14.0955 8.684L15.114 9.19327L15.6571 10.8227C15.6986 10.9471 15.7782 11.0553 15.8846 11.132C15.991 11.2087 16.1189 11.25 16.25 11.25H16.875V11.8736C16.6666 11.9906 16.4669 12.1227 16.2778 12.2689L15.9051 11.8962L15.9043 11.8954L15.7008 11.6919C15.057 11.0482 14.1955 10.6688 13.2859 10.6286C12.3764 10.5883 11.4847 10.89 10.7865 11.4743C10.4743 11.0078 10.0296 10.6454 9.50963 10.4338C8.98967 10.2223 8.41829 10.1713 7.86907 10.2873L7.53744 8.2975L8.67544 6.875H9.37505C10.0381 6.875 10.674 6.61161 11.1428 6.14277C11.6117 5.67393 11.875 5.03804 11.875 4.375C11.875 3.71196 11.6117 3.07607 11.1428 2.60723C10.674 2.13839 10.0381 1.875 9.37505 1.875H8.33902C7.78132 1.87436 7.23947 2.06048 6.79988 2.40369C6.36029 2.7469 6.04829 3.22742 5.91363 3.76862L5.68517 4.68254C3.23399 7.18467 1.86542 10.5506 1.87505 14.0533V14.375C1.87504 14.481 1.90201 14.5853 1.9534 14.678C2.00479 14.7707 2.07892 14.8488 2.16882 14.905L4.46634 16.3409C6.28663 17.4824 8.46768 17.9027 10.5818 17.5194L10.9134 17.6299L11.1196 19.4856C11.2234 20.4086 11.637 21.2691 12.2929 21.9267C12.5575 22.1899 12.7674 22.503 12.9102 22.8479C13.0531 23.1927 13.1261 23.5625 13.125 23.9358C13.1255 25.9193 13.2489 27.9008 13.4945 29.8691L13.75 31.9141V33.6731L12.5187 38.5984L13.7314 38.9016L14.9814 33.9016C14.9938 33.852 15.0001 33.8011 15 33.75V32.5H23.4489C24.8555 34.2799 25.6221 36.4814 25.625 38.75H26.875C26.8718 36.1812 25.9977 33.6893 24.3955 31.6814L24.2843 31.5423C23.9444 30.8457 23.7587 30.084 23.74 29.3091C23.7212 28.5342 23.8698 27.7644 24.1755 27.0522L24.298 26.7665C24.6883 25.8583 25.2871 25.0549 26.0458 24.4212C26.8933 23.7168 27.575 22.8342 28.0424 21.8363C28.5098 20.8383 28.7514 19.7496 28.75 18.6476V17.8802C29.7084 18.2651 30.7449 18.4151 31.773 18.3178C32.8012 18.2205 33.7911 17.8786 34.6602 17.3207L37.4411 15.5511C37.7585 15.3491 38.0324 15.0857 38.2467 14.7765C38.461 14.4673 38.6114 14.1184 38.6891 13.7503C38.7668 13.3822 38.7702 13.0022 38.6992 12.6328C38.6281 12.2633 38.484 11.9118 38.2753 11.5987ZM14.375 2.5H21.875V8.3638C21.4026 8.12685 20.9643 7.82723 20.572 7.47303C20.6067 7.33741 20.6245 7.19802 20.625 7.05803V6.50887C20.6246 6.10883 20.4655 5.72531 20.1826 5.44244C19.8997 5.15957 19.5162 5.00045 19.1162 5C19.0585 5.00029 19.0009 5.00385 18.9436 5.01066C18.8582 4.76278 18.7895 4.50949 18.7379 4.25247C18.7096 4.11078 18.6331 3.98329 18.5213 3.89167C18.4096 3.80006 18.2695 3.75 18.125 3.75H15.625C15.2936 3.74962 14.9759 3.6178 14.7416 3.38346C14.5072 3.14913 14.3754 2.8314 14.375 2.5ZM36.77 14.4965L33.9891 16.2662C33.2141 16.7632 32.3217 17.0472 31.402 17.0895C30.4822 17.1319 29.5675 16.9312 28.75 16.5076V15.625H27.5V18.6476C27.5012 19.5663 27.2998 20.474 26.9101 21.306C26.5204 22.1379 25.9521 22.8737 25.2456 23.461C24.3355 24.2211 23.6173 25.1847 23.149 26.274L23.0266 26.5597C22.3883 28.0456 22.3143 29.7134 22.8187 31.25H14.9268L14.7348 29.7141C14.4956 27.7972 14.3755 25.8674 14.375 23.9358C14.3765 23.3983 14.2714 22.8659 14.0657 22.3693C13.86 21.8727 13.5579 21.4219 13.1768 21.0429C12.7213 20.5862 12.434 19.9885 12.362 19.3475L12.2173 18.0454C12.4534 18.0982 12.6945 18.1248 12.9365 18.125H13.5608C14.1889 18.1253 14.8041 17.9468 15.3345 17.6104L14.6656 16.5545C14.3352 16.764 13.952 16.8751 13.5608 16.875H12.9365C12.7146 16.8751 12.4941 16.8393 12.2837 16.769L10.8227 16.282C10.7195 16.2477 10.6091 16.2408 10.5025 16.2621C8.6517 16.6352 6.72829 16.284 5.1288 15.2809L3.12509 14.0286C3.12392 12.4329 3.43847 10.8526 4.05064 9.37893C4.66281 7.90524 5.56049 6.56724 6.69198 5.44197C6.77209 5.36186 6.82891 5.2615 6.8564 5.1516L7.12632 4.07181C7.19365 3.80121 7.34965 3.56095 7.56945 3.38934C7.78924 3.21774 8.06017 3.12468 8.33902 3.125H9.37505C9.67708 3.12502 9.96889 3.23439 10.1965 3.43289C10.4242 3.63138 10.5723 3.90559 10.6134 4.2048C10.6545 4.50401 10.586 4.80801 10.4204 5.06058C10.2547 5.31315 10.0033 5.49722 9.71246 5.57877L9.8631 5.3904C9.91445 5.32631 9.95267 5.25274 9.97558 5.17388C9.99848 5.09502 10.0056 5.01241 9.99658 4.93079C9.98754 4.84917 9.9625 4.77013 9.9229 4.69819C9.8833 4.62625 9.82991 4.56282 9.76578 4.51153C9.70166 4.46023 9.62805 4.42207 9.54917 4.39924C9.47029 4.37641 9.38768 4.36934 9.30607 4.37845C9.22445 4.38756 9.14544 4.41266 9.07353 4.45232C9.00162 4.49199 8.93824 4.54543 8.887 4.6096L6.387 7.7346C6.33215 7.80317 6.29236 7.88253 6.27023 7.9675C6.2481 8.05247 6.24413 8.14116 6.25856 8.22777L6.80437 11.5025C6.82482 11.6252 6.81829 11.7509 6.78524 11.8708C6.75219 11.9908 6.69342 12.1021 6.613 12.197C6.53258 12.292 6.43244 12.3682 6.31956 12.4206C6.20668 12.4729 6.08375 12.5 5.95933 12.5H5.00005V13.75H5.95933C6.24578 13.7503 6.52927 13.692 6.79241 13.5788C7.05555 13.4656 7.29281 13.2999 7.48963 13.0918C7.68645 12.8836 7.8387 12.6375 7.93703 12.3685C8.03536 12.0994 8.07771 11.8131 8.06147 11.5271C8.4071 11.4375 8.77305 11.4693 9.098 11.6173C9.42294 11.7654 9.68715 12.0206 9.84636 12.3402L10.0001 12.6476V12.8661C10 13.2284 10.0714 13.5872 10.2101 13.9219C10.3487 14.2566 10.5519 14.5608 10.8081 14.817C11.0643 15.0731 11.3684 15.2764 11.7031 15.415C12.0379 15.5536 12.3966 15.625 12.7589 15.625H13.75V14.375H12.7589C12.3587 14.375 11.975 14.216 11.692 13.933C11.409 13.6501 11.2501 13.2663 11.2501 12.8661V12.7589L11.4332 12.5758C11.8819 12.1271 12.4905 11.875 13.1251 11.875C13.7597 11.875 14.3683 12.1271 14.817 12.5758L15.0205 12.7793C15.2127 12.9705 15.3652 13.198 15.469 13.4485C15.5727 13.6991 15.6258 13.9677 15.625 14.2389V14.375H16.875V14.2389C16.875 13.9823 16.8453 13.7266 16.7867 13.4768C17.4591 12.847 18.3465 12.4976 19.2678 12.5H19.375V11.25H19.2678C18.883 11.25 18.4994 11.2951 18.125 11.3843V11.0754L19.5727 10.593C19.73 10.5405 19.8599 10.4278 19.9341 10.2795C20.0082 10.1313 20.0204 9.95962 19.968 9.80236C19.9156 9.6451 19.8028 9.5151 19.6546 9.44096C19.5063 9.36683 19.3347 9.35463 19.1774 9.40704L17.3986 10H16.7005L16.218 8.55232C16.192 8.47446 16.151 8.40247 16.0972 8.34048C16.0434 8.27848 15.978 8.22768 15.9046 8.19099L15.2136 7.84546L16.1841 5.90454C16.2275 5.81775 16.2501 5.72204 16.25 5.625V5H17.6317C17.6922 5.2187 17.7643 5.434 17.8453 5.64587L17.6831 5.80803L18.567 6.69197L18.9331 6.32584C18.9693 6.28963 19.0154 6.26497 19.0656 6.25498C19.1158 6.24498 19.1679 6.25011 19.2152 6.2697C19.2625 6.28929 19.303 6.32247 19.3314 6.36504C19.3599 6.40761 19.375 6.45766 19.375 6.50887V7.05803C19.3751 7.11607 19.3636 7.17354 19.3414 7.22716C19.3192 7.28079 19.2867 7.32951 19.2456 7.37055C19.2046 7.4116 19.1559 7.44415 19.1023 7.46636C19.0486 7.48857 18.9912 7.5 18.9331 7.5H18.75V8.75H18.9331C19.2519 8.75035 19.5642 8.65994 19.8336 8.48934C20.2856 8.88221 20.7853 9.21648 21.321 9.48425L21.875 9.76128V11.25C21.8751 11.4158 21.9409 11.5748 22.0581 11.692L23.9331 13.567C24.0351 13.6688 24.1691 13.7323 24.3126 13.7466C24.456 13.7609 24.5999 13.7252 24.72 13.6455C25.1225 14.1324 25.329 14.752 25.2991 15.3831C25.2691 16.0141 25.0049 16.6114 24.5581 17.058L25.442 17.942C26.1015 17.2829 26.4946 16.4036 26.5462 15.4727C26.5977 14.5417 26.304 13.6245 25.7213 12.8966L25.8409 12.8069C26.1618 12.566 26.5462 12.4243 26.9466 12.3994C27.347 12.3745 27.746 12.4673 28.0943 12.6665L28.7382 13.0345C29.1444 13.2686 29.4589 13.634 29.63 14.0705C29.8011 14.507 29.8185 14.9888 29.6795 15.4366L30.8713 15.8134C31.0268 15.3141 31.0621 14.7852 30.9744 14.2696C30.8866 13.7541 30.6783 13.2665 30.3664 12.8468C31.4635 12.7288 32.5721 12.7782 33.6544 12.9932L34.2525 13.1129L34.4976 11.8871L33.8995 11.7675C33.6246 11.7125 33.3473 11.6685 33.0687 11.633C32.9507 10.7203 32.6517 9.84038 32.1891 9.04482C31.7265 8.24925 31.1098 7.55404 30.375 6.99997C30.2942 6.93935 30.1999 6.89923 30.1002 6.88305C30.0004 6.86686 29.8983 6.8751 29.8024 6.90704L28.2938 7.4099L27.5672 6.68327L27.9427 5.18135L30.9633 6.1882L32.1367 7.02637C34.1423 8.45697 35.8701 10.2414 37.2353 12.2921C37.3517 12.4667 37.4321 12.6628 37.4717 12.8689C37.5113 13.0749 37.5094 13.2868 37.4661 13.4921C37.4227 13.6975 37.3388 13.8921 37.2193 14.0645C37.0998 14.237 36.947 14.3839 36.77 14.4965Z" fill="#4AB04A"/>
<path d="M23.1245 15V13.75C22.7593 13.7488 22.3979 13.8236 22.0632 13.9697C21.7285 14.1158 21.4278 14.33 21.1803 14.5986C20.6876 14.2484 20.1456 13.9733 19.5722 13.7821L19.1769 14.968C20.145 15.2897 20.987 15.9082 21.5835 16.7358C22.18 17.5633 22.5005 18.5578 22.4995 19.5779V22.1034C22.5013 22.7417 22.3764 23.3741 22.1321 23.9639C21.8878 24.5537 21.529 25.0892 21.0763 25.5393L18.9326 27.683L19.8165 28.567L21.9602 26.4233C22.5293 25.8573 22.9804 25.1841 23.2876 24.4425C23.5947 23.701 23.7517 22.906 23.7495 22.1034V19.5779C23.7509 18.0374 23.1693 16.5535 22.1216 15.4241C22.2516 15.2895 22.4075 15.1826 22.5798 15.1097C22.7521 15.0368 22.9374 14.9995 23.1245 15Z" fill="#4AB04A"/>
<path d="M21.875 36.25H20.625V38.75H21.875V36.25Z" fill="#4AB04A"/>
</svg>
