<svg width="40" height="40" viewBox="0 0 40 40" fill="none" xmlns="http://www.w3.org/2000/svg">
<path d="M38.125 9.375H34.375C34.2092 9.375 34.0503 9.44085 33.9331 9.55806C33.8158 9.67527 33.75 9.83424 33.75 10V13.75H32.5C32.4998 13.3882 32.3948 13.0341 32.1978 12.7306C32.0008 12.4271 31.7202 12.187 31.3899 12.0394C31.0595 11.8918 30.6935 11.8429 30.336 11.8987C29.9784 11.9545 29.6447 12.1125 29.375 12.3538C29.0836 12.0922 28.7174 11.9286 28.3281 11.8861C27.9388 11.8436 27.546 11.9243 27.205 12.1169C26.9867 11.7752 26.6636 11.5136 26.284 11.3711C25.9045 11.2286 25.489 11.2129 25.0998 11.3265C24.7106 11.4401 24.3687 11.6767 24.1254 12.0009C23.882 12.3252 23.7503 12.7196 23.75 13.125V13.75H16.25V13.125C16.2497 12.7196 16.118 12.3252 15.8746 12.0009C15.6313 11.6767 15.2894 11.4401 14.9002 11.3265C14.511 11.2129 14.0955 11.2286 13.716 11.3711C13.3364 11.5136 13.0133 11.7752 12.795 12.1169C12.454 11.9243 12.0612 11.8436 11.6719 11.8861C11.2826 11.9286 10.9164 12.0922 10.625 12.3538C10.3553 12.1125 10.0216 11.9545 9.66403 11.8987C9.30651 11.8429 8.94049 11.8918 8.61012 12.0394C8.27976 12.187 7.99916 12.4271 7.80218 12.7306C7.6052 13.0341 7.50025 13.3882 7.5 13.75H6.25V10C6.25 9.83424 6.18415 9.67527 6.06694 9.55806C5.94973 9.44085 5.79076 9.375 5.625 9.375H1.875C1.70924 9.375 1.55027 9.44085 1.43306 9.55806C1.31585 9.67527 1.25 9.83424 1.25 10V21.25C1.25 21.4158 1.31585 21.5747 1.43306 21.6919C1.55027 21.8092 1.70924 21.875 1.875 21.875H5.625C5.79076 21.875 5.94973 21.8092 6.06694 21.6919C6.18415 21.5747 6.25 21.4158 6.25 21.25V17.5H7.5V19.375C7.49991 19.472 7.52238 19.5676 7.56562 19.6544L8.7925 22.1081L11.2775 30.1838C11.3168 30.3115 11.396 30.4233 11.5036 30.5028C11.6111 30.5822 11.7413 30.625 11.875 30.625H16.875C16.9728 30.625 17.0693 30.6021 17.1566 30.558C17.2439 30.514 17.3197 30.4501 17.3778 30.3714C17.4359 30.2927 17.4748 30.2015 17.4912 30.1051C17.5077 30.0087 17.5013 29.9097 17.4725 29.8162L15.0456 21.9306L16.0681 19.8856L17.6975 19.3425C17.8219 19.3011 17.9301 19.2216 18.0068 19.1152C18.0836 19.0089 18.1249 18.8811 18.125 18.75V17.5H21.875V18.75C21.8751 18.8811 21.9164 19.0089 21.9932 19.1152C22.0699 19.2216 22.1781 19.3011 22.3025 19.3425L23.9319 19.8856L24.965 21.9537L23.1406 29.8594C23.1195 29.951 23.1193 30.0463 23.14 30.138C23.1608 30.2298 23.202 30.3156 23.2606 30.3892C23.3192 30.4628 23.3936 30.5222 23.4783 30.5631C23.5631 30.6039 23.6559 30.6251 23.75 30.625H28.75C28.8914 30.6251 29.0286 30.5772 29.1393 30.4893C29.25 30.4013 29.3276 30.2784 29.3594 30.1406L31.2169 22.0881L32.4375 19.6544C32.4797 19.5673 32.5011 19.4717 32.5 19.375V17.5H33.75V21.25C33.75 21.4158 33.8158 21.5747 33.9331 21.6919C34.0503 21.8092 34.2092 21.875 34.375 21.875H38.125C38.2908 21.875 38.4497 21.8092 38.5669 21.6919C38.6842 21.5747 38.75 21.4158 38.75 21.25V10C38.75 9.83424 38.6842 9.67527 38.5669 9.55806C38.4497 9.44085 38.2908 9.375 38.125 9.375ZM5 20.625H2.5V10.625H5V20.625ZM7.5 16.25H6.25V15H7.5V16.25ZM16.875 18.2994L15.4275 18.7825C15.2702 18.8346 15.1401 18.947 15.0656 19.095L13.8156 21.595C13.7439 21.7387 13.7302 21.9046 13.7775 22.0581L16.0287 29.375H12.3363L9.9725 21.6913C9.96213 21.6585 9.94938 21.6265 9.93438 21.5956L8.75 19.2275V13.75C8.75 13.5842 8.81585 13.4253 8.93306 13.3081C9.05027 13.1908 9.20924 13.125 9.375 13.125C9.54076 13.125 9.69973 13.1908 9.81694 13.3081C9.93415 13.4253 10 13.5842 10 13.75V17.5H11.25V13.75C11.25 13.5842 11.3158 13.4253 11.4331 13.3081C11.5503 13.1908 11.7092 13.125 11.875 13.125C12.0408 13.125 12.1997 13.1908 12.3169 13.3081C12.4342 13.4253 12.5 13.5842 12.5 13.75V17.5H13.75V13.125C13.75 12.9592 13.8158 12.8003 13.9331 12.6831C14.0503 12.5658 14.2092 12.5 14.375 12.5C14.5408 12.5 14.6997 12.5658 14.8169 12.6831C14.9342 12.8003 15 12.9592 15 13.125V16.875C15 17.0408 15.0658 17.1997 15.1831 17.3169C15.3003 17.4342 15.4592 17.5 15.625 17.5H16.875V18.2994ZM16.25 16.25V15H23.75V16.25H16.25ZM31.25 19.2275L30.0625 21.5956C30.0405 21.6398 30.0237 21.6863 30.0125 21.7344L28.25 29.375H24.5356L26.2344 22.0156C26.2663 21.874 26.2487 21.7258 26.1844 21.5956L24.9344 19.0956C24.8599 18.9476 24.7298 18.8352 24.5725 18.7831L23.125 18.2994V17.5H24.375C24.5408 17.5 24.6997 17.4342 24.8169 17.3169C24.9342 17.1997 25 17.0408 25 16.875V13.125C25 12.9592 25.0658 12.8003 25.1831 12.6831C25.3003 12.5658 25.4592 12.5 25.625 12.5C25.7908 12.5 25.9497 12.5658 26.0669 12.6831C26.1842 12.8003 26.25 12.9592 26.25 13.125V17.5H27.5V13.75C27.5 13.5842 27.5658 13.4253 27.6831 13.3081C27.8003 13.1908 27.9592 13.125 28.125 13.125C28.2908 13.125 28.4497 13.1908 28.5669 13.3081C28.6842 13.4253 28.75 13.5842 28.75 13.75V17.5H30V13.75C30 13.5842 30.0658 13.4253 30.1831 13.3081C30.3003 13.1908 30.4592 13.125 30.625 13.125C30.7908 13.125 30.9497 13.1908 31.0669 13.3081C31.1842 13.4253 31.25 13.5842 31.25 13.75V19.2275ZM33.75 16.25H32.5V15H33.75V16.25ZM37.5 20.625H35V10.625H37.5V20.625Z" fill="#4AB04A"/>
<path d="M19.375 7.5H20.625V10.625H19.375V7.5Z" fill="#4AB04A"/>
<path d="M21.9854 10.2822L23.236 8.40734L24.2759 9.101L23.0252 10.9759L21.9854 10.2822Z" fill="#4AB04A"/>
<path d="M15.7314 9.09131L16.7713 8.39764L18.022 10.2725L16.9821 10.9662L15.7314 9.09131Z" fill="#4AB04A"/>
</svg>
