<svg width="40" height="40" viewBox="0 0 40 40" fill="none" xmlns="http://www.w3.org/2000/svg">
<path d="M3.17263 38.9188C2.7729 38.9262 2.38628 38.7761 2.09609 38.5011C1.80591 38.2261 1.63539 37.8481 1.62128 37.4485L1.42128 32.335C1.40735 32.0157 1.50099 31.701 1.68721 31.4413C1.87343 31.1816 2.14144 30.9919 2.44831 30.9026L2.87533 30.8107C3.21811 30.7086 3.58675 30.7395 3.90777 30.8972C3.95225 30.9159 4.00004 30.9256 4.04831 30.9256C4.09658 30.9256 4.14436 30.9159 4.18885 30.8972C4.23147 30.8834 4.27077 30.8609 4.30426 30.8311C4.33776 30.8013 4.36472 30.7649 4.38344 30.7242C4.84596 29.775 5.41153 28.8795 6.06993 28.054L6.91858 28.7242C6.30957 29.4864 5.78574 30.313 5.35641 31.1891C5.27325 31.3541 5.15835 31.5012 5.01829 31.6217C4.87823 31.7423 4.71577 31.8341 4.5402 31.8918C4.36041 31.9549 4.16986 31.9817 3.97963 31.9706C3.7894 31.9595 3.60328 31.9106 3.43209 31.8269C3.35047 31.7947 3.25966 31.7947 3.17804 31.8269L2.77263 31.9458C2.69702 31.9656 2.6305 32.0108 2.58424 32.0738C2.53798 32.1367 2.5148 32.2137 2.51858 32.2918L2.70236 37.4053C2.70536 37.5111 2.74569 37.6125 2.81622 37.6915C2.88676 37.7704 2.98294 37.8219 3.08776 37.8368C3.19259 37.8517 3.2993 37.829 3.38902 37.7728C3.47874 37.7166 3.5457 37.6304 3.57804 37.5296C3.78885 36.8702 4.11858 35.8161 4.59966 34.5567C5.27533 32.7134 9.26452 28.8485 10.9456 27.2756C11.2876 26.9533 11.7406 26.7752 12.2105 26.7783C12.356 26.7778 12.4985 26.7365 12.6217 26.6591C12.745 26.5817 12.8441 26.4713 12.9078 26.3404L13.1726 25.7999C13.2733 25.5963 13.4108 25.413 13.578 25.2594L18.6916 20.5404C18.7631 20.4747 18.8511 20.4294 18.9462 20.4094C19.0414 20.3895 19.1401 20.3955 19.2321 20.4269L23.0159 21.7891C23.1202 21.827 23.2104 21.896 23.2741 21.987C23.3378 22.0779 23.372 22.1862 23.372 22.2972C23.372 22.4082 23.3378 22.5165 23.2741 22.6074C23.2104 22.6983 23.1202 22.7674 23.0159 22.8053C21.4429 23.3675 19.6213 25.5675 18.9186 26.4864C18.7313 26.7252 18.4764 26.902 18.1871 26.9936C17.8978 27.0852 17.5875 27.0874 17.297 26.9999C17.2192 26.9732 17.1351 26.9708 17.056 26.993C16.9768 27.0152 16.9063 27.061 16.8537 27.1242L16.5888 27.4323C16.5336 27.5055 16.5037 27.5947 16.5037 27.6864C16.5037 27.7781 16.5336 27.8673 16.5888 27.9404L18.9186 31.2594C18.9281 31.269 18.9395 31.2767 18.952 31.2819C18.9645 31.2871 18.978 31.2898 18.9916 31.2898C19.0051 31.2898 19.0186 31.2871 19.0311 31.2819C19.0436 31.2767 19.055 31.269 19.0645 31.2594C19.0819 31.2487 19.0962 31.2335 19.1057 31.2154C19.1152 31.1974 19.1196 31.1771 19.1186 31.1567L18.8807 28.3675C18.8722 28.2689 18.8909 28.17 18.9348 28.0813C18.9786 27.9927 19.0459 27.9178 19.1294 27.8648L25.6159 23.7404C25.8675 23.5813 26.0801 23.3675 26.2378 23.115C26.3956 22.8625 26.4945 22.5777 26.5272 22.2818C26.5599 21.9859 26.5256 21.6864 26.4268 21.4055C26.328 21.1246 26.1672 20.8696 25.9564 20.6594L21.7726 16.481C21.7185 16.4245 21.6766 16.3573 21.6496 16.2839C21.6226 16.2104 21.6111 16.1321 21.6159 16.054C21.6227 15.9756 21.6466 15.8997 21.6858 15.8316C21.725 15.7634 21.7786 15.7047 21.8429 15.6594L26.6051 12.2485C26.7186 12.1675 26.8591 12.1336 26.9971 12.1537C27.1351 12.1739 27.26 12.2466 27.3456 12.3567L28.8483 14.2864C29.052 14.5307 29.342 14.6872 29.658 14.7234C29.974 14.7597 30.2919 14.6728 30.5456 14.481L35.4483 10.5458C35.5018 10.5079 35.5599 10.477 35.6213 10.4539L37.4321 9.87557C37.4335 9.85217 37.4335 9.8287 37.4321 9.8053C37.3289 9.56479 37.1601 9.35816 36.9451 9.20904C36.73 9.05992 36.4773 8.97433 36.2159 8.96206C35.9391 8.92895 35.6585 8.97183 35.4042 9.08611C35.15 9.20039 34.9316 9.38174 34.7726 9.61071C34.7322 9.66879 34.6808 9.71838 34.6213 9.75665L30.297 12.5188C30.2148 12.5663 30.1216 12.5912 30.0267 12.5912C29.9318 12.5912 29.8386 12.5663 29.7564 12.5188C29.6711 12.4721 29.6 12.4033 29.5505 12.3196C29.501 12.2359 29.4751 12.1404 29.4753 12.0431C29.4753 10.5567 27.5672 8.17287 26.8267 7.37827C23.4159 3.99989 18.4916 4.32422 17.5348 4.41071L13.2537 8.52962C13.1954 8.58594 13.1252 8.62843 13.0483 8.65395L11.3943 9.19449V10.3458L12.297 11.135L12.6645 11.0431L13.2321 9.87017C13.2648 9.7978 13.315 9.73466 13.378 9.68638L17.7024 6.14044C17.8063 6.05582 17.938 6.01284 18.0718 6.01983C18.2057 6.02683 18.3321 6.08329 18.4267 6.17827C19.3255 6.96936 20.473 7.4207 21.6699 7.45395C21.7745 7.45463 21.8766 7.48563 21.9639 7.5432C22.0513 7.60077 22.12 7.68242 22.1618 7.77827C22.2037 7.87332 22.2173 7.97841 22.201 8.08099C22.1847 8.18356 22.1392 8.27926 22.0699 8.35665L15.5834 15.4161L12.4699 24.3242C12.4452 24.3921 12.4071 24.4544 12.3579 24.5073C12.3087 24.5602 12.2494 24.6027 12.1834 24.6323C10.7674 25.2799 9.46434 26.1504 8.32398 27.2107L7.56723 26.4053C8.7318 25.307 10.0592 24.3953 11.5024 23.7026L14.6213 14.935C14.6448 14.8672 14.6815 14.8047 14.7294 14.7512L20.5834 8.42152C19.6607 8.25039 18.7929 7.85914 18.0537 7.28098L14.151 10.4594L13.5132 11.7567C13.4783 11.8292 13.4277 11.893 13.3651 11.9435C13.3024 11.994 13.2293 12.0299 13.151 12.0485L12.2591 12.2648C12.1753 12.2847 12.0878 12.2844 12.0041 12.2637C11.9205 12.243 11.8429 12.2026 11.778 12.1458L10.4807 11.0107C10.4224 10.9595 10.3758 10.8962 10.3441 10.8253C10.3123 10.7544 10.2963 10.6776 10.297 10.5999V8.81611C10.2967 8.70279 10.332 8.59224 10.398 8.5001C10.4639 8.40795 10.5572 8.33886 10.6645 8.3026L12.578 7.66476L16.9024 3.5026C16.9856 3.42677 17.0887 3.37616 17.1997 3.35665C17.4483 3.31881 23.4159 2.48098 27.578 6.64314C27.8537 6.93503 29.8699 9.15665 30.3997 11.1567L33.9402 8.9026C34.2147 8.54038 34.579 8.2561 34.9971 8.07787C35.4152 7.89964 35.8726 7.83363 36.324 7.88638C36.7749 7.92965 37.2051 8.09632 37.5674 8.36808C37.9298 8.63985 38.2103 9.0062 38.378 9.42692C38.493 9.69354 38.5554 9.97987 38.5618 10.2702C38.5614 10.3848 38.5245 10.4964 38.4565 10.5887C38.3884 10.681 38.2928 10.7493 38.1834 10.7837L36.0213 11.4756L31.1943 15.3458C30.9583 15.5378 30.6863 15.6807 30.3943 15.766C30.1024 15.8513 29.7963 15.8773 29.4941 15.8425C29.1919 15.8078 28.8997 15.7129 28.6347 15.5636C28.3697 15.4142 28.1372 15.2134 27.951 14.9729L26.7672 13.4539L22.9618 16.2161L26.6916 19.9458C27.0159 20.2717 27.2628 20.6663 27.414 21.1005C27.5651 21.5347 27.6166 21.9973 27.5647 22.4542C27.5128 22.911 27.3588 23.3503 27.1141 23.7395C26.8694 24.1287 26.5402 24.4579 26.151 24.7026L19.9348 28.6485L20.1456 31.108C20.1661 31.3682 20.1008 31.6279 19.9597 31.8475C19.8186 32.0671 19.6095 32.2344 19.3643 32.3239C19.1191 32.4134 18.8514 32.4201 18.602 32.343C18.3527 32.266 18.1354 32.1094 17.9834 31.8972L15.6753 28.5567C15.4849 28.2857 15.3901 27.9591 15.4057 27.6283C15.4214 27.2975 15.5467 26.9814 15.7618 26.7296L16.0267 26.4161C16.2203 26.1865 16.4784 26.0205 16.7676 25.9395C17.0568 25.8585 17.3636 25.8664 17.6483 25.9621C17.7292 25.9894 17.8166 25.9905 17.8981 25.9653C17.9796 25.9401 18.0511 25.8898 18.1024 25.8215C19.0774 24.5077 20.2435 23.3472 21.5618 22.3783L19.2375 21.5458L14.3726 26.0431C14.3003 26.1086 14.2416 26.1875 14.1997 26.2756L13.9402 26.8161C13.7876 27.1295 13.5503 27.3939 13.255 27.5793C12.9598 27.7647 12.6185 27.8635 12.2699 27.8648C12.1707 27.8616 12.0719 27.8781 11.9791 27.9134C11.8863 27.9486 11.8015 28.0019 11.7294 28.0702C9.11317 30.5188 6.1456 33.6053 5.65912 34.9296C5.18344 36.1675 4.86452 37.2107 4.62669 37.8377C4.53261 38.1502 4.3404 38.4241 4.07851 38.6188C3.81662 38.8135 3.49898 38.9187 3.17263 38.9188Z" fill="#4AB04A"/>
<path d="M15.0693 15.6846L15.2185 14.6143L22.1913 15.5863L22.0421 16.6565L15.0693 15.6846Z" fill="#4AB04A"/>
<path d="M31.7192 7.94051C31.0396 7.94372 30.3744 7.74515 29.8078 7.36994C29.2412 6.99474 28.7987 6.45979 28.5365 5.83289C28.2742 5.20598 28.2039 4.51533 28.3345 3.84844C28.4651 3.18155 28.7907 2.56843 29.2701 2.08678C29.7495 1.60512 30.3611 1.2766 31.0273 1.14283C31.6936 1.00907 32.3846 1.07609 33.0127 1.3354C33.6408 1.59471 34.1779 2.03464 34.5558 2.59945C34.9336 3.16425 35.1354 3.82852 35.1354 4.50808C35.1354 5.41561 34.776 6.28622 34.1358 6.92946C33.4956 7.5727 32.6267 7.93622 31.7192 7.94051ZM31.7192 2.16213C31.2532 2.15892 30.7968 2.29423 30.4079 2.55088C30.0189 2.80752 29.715 3.17394 29.5347 3.60362C29.3544 4.0333 29.3059 4.50685 29.3952 4.96418C29.4845 5.42151 29.7077 5.84199 30.0365 6.17224C30.3652 6.50249 30.7846 6.72763 31.2415 6.81906C31.6985 6.9105 32.1722 6.86412 32.6027 6.68581C33.0332 6.5075 33.4011 6.2053 33.6595 5.81756C33.9179 5.42983 34.0554 4.97405 34.0543 4.50808C34.0529 3.8882 33.8067 3.29395 33.3694 2.85462C32.9321 2.41528 32.339 2.16641 31.7192 2.16213Z" fill="#4AB04A"/>
</svg>
