<svg width="40" height="40" viewBox="0 0 40 40" fill="none" xmlns="http://www.w3.org/2000/svg">
<path d="M37.308 28.1398H36.8471V26.0258C36.8471 25.1875 36.165 24.5055 35.3268 24.5055H33.7908V24.0438C33.7908 23.2055 33.1088 22.5234 32.2705 22.5234H30.3111C29.4729 22.5234 28.7908 23.2055 28.7908 24.0438V28.1703H11.2111V24.0438C11.2111 23.2055 10.5291 22.5234 9.69082 22.5234H7.73066C6.89238 22.5234 6.21035 23.2055 6.21035 24.0438V24.5055H4.67441C3.83613 24.5055 3.1541 25.1875 3.1541 26.0258V28.1398H2.69316C1.85488 28.1398 1.17285 28.8219 1.17285 29.6602V31.6898C1.17285 32.5281 1.85488 33.2102 2.69316 33.2102H3.1541V35.3242C3.1541 36.1625 3.83613 36.8445 4.67441 36.8445H6.21035V37.3062C6.21035 38.1445 6.89238 38.8266 7.73066 38.8266H9.69004C10.5283 38.8266 11.2104 38.1445 11.2104 37.3062V33.1797H28.7893V37.3062C28.7893 38.1445 29.4713 38.8266 30.3096 38.8266H32.2689C33.1072 38.8266 33.7893 38.1445 33.7893 37.3062V36.8445H35.3252C36.1635 36.8445 36.8455 36.1625 36.8455 35.3242V33.2109H37.3064C38.1447 33.2109 38.8268 32.5289 38.8268 31.6906V29.6609C38.8283 28.8219 38.1463 28.1398 37.308 28.1398ZM2.69238 32.2734C2.37051 32.2734 2.10957 32.0117 2.10957 31.6906V29.6609C2.10957 29.3391 2.37129 29.0781 2.69238 29.0781H3.15332V32.2742H2.69238V32.2734ZM4.67441 35.9078C4.35254 35.9078 4.0916 35.6461 4.0916 35.325V26.025C4.0916 25.7031 4.35332 25.4422 4.67441 25.4422H6.21035V35.9078H4.67441ZM10.2736 37.3078C10.2736 37.6297 10.0119 37.8906 9.69082 37.8906H7.73066C7.40879 37.8906 7.14785 37.6289 7.14785 37.3078V24.043C7.14785 23.7211 7.40957 23.4602 7.73066 23.4602H9.69004C10.0119 23.4602 10.2729 23.7219 10.2729 24.043V37.3078H10.2736ZM11.2111 32.243V29.107H28.7893V32.243H11.2111ZM32.8525 37.3078C32.8525 37.6297 32.5908 37.8906 32.2697 37.8906H30.3104C29.9885 37.8906 29.7275 37.6289 29.7275 37.3078V24.043C29.7275 23.7211 29.9893 23.4602 30.3104 23.4602H32.2697C32.5916 23.4602 32.8525 23.7219 32.8525 24.043V37.3078ZM35.9088 35.325C35.9088 35.6469 35.6471 35.9078 35.326 35.9078H33.79V25.4422H35.326C35.6479 25.4422 35.9088 25.7039 35.9088 26.025V35.325ZM37.8908 31.6898C37.8908 32.0117 37.6291 32.2727 37.308 32.2727H36.8471V29.0766H37.308C37.6299 29.0766 37.8908 29.3383 37.8908 29.6594V31.6898ZM6.2752 18.9344C8.20879 20.0898 10.2768 20.7133 12.4236 20.7867C12.5666 20.7914 12.7096 20.7938 12.8518 20.7938C14.1955 20.7938 15.5275 20.5758 16.8338 20.1445C15.8354 21.2094 14.8752 22.0406 14.1072 22.5938L13.2564 23.1539C13.1057 23.2531 13.0252 23.4305 13.0502 23.6094L13.2822 25.2875C13.3064 25.4625 13.4268 25.6086 13.5939 25.6664C14.2729 25.9 14.9721 26.0602 15.6697 26.1406C16.0408 26.1836 16.4135 26.2047 16.7869 26.2047C19.5252 26.2047 22.2775 25.0578 24.6416 22.907C26.9768 20.7836 28.6353 17.9422 29.2619 15.025C29.8393 15.2984 30.483 15.4516 31.1635 15.4516C33.6221 15.4516 35.6221 13.4516 35.6221 10.993C35.6221 8.53438 33.6221 6.53438 31.1635 6.53438C30.0252 6.53438 28.9854 6.96406 28.1963 7.66875C27.9564 7.19453 27.6893 6.74922 27.3955 6.33516H27.4314C28.5439 6.33516 29.4494 5.42969 29.4494 4.31719V3.18984C29.4494 2.07734 28.5439 1.17188 27.4314 1.17188H21.5354C20.4228 1.17188 19.5174 2.07734 19.5174 3.18984V4.31953C19.5174 5.19297 20.0752 5.93828 20.8525 6.21875C18.4994 10.5117 13.24 13.743 6.94629 14.7164V14.7172C6.94316 14.718 6.94082 14.7172 6.9377 14.718L5.47051 14.9719C5.31113 14.9992 5.17754 15.107 5.1166 15.257L4.4127 16.9875C4.34785 17.1461 4.3752 17.3273 4.48301 17.4594C4.90723 17.9812 5.50957 18.4773 6.2752 18.9344ZM15.2908 25.1406C14.915 25.0758 14.54 24.9852 14.1705 24.8703L14.0189 23.775L14.7486 23.2945L15.3729 23.9438L15.2908 25.1406ZM15.4885 22.7125C17.265 21.2539 19.0143 19.2523 20.39 17.0836C22.3861 13.9391 23.5236 10.5742 23.6799 7.35234C23.6869 7.20234 23.7705 7.01641 23.8596 6.81953C23.9268 6.67031 23.9986 6.50938 24.0494 6.3375H24.3502C25.9393 13.8305 22.7533 20.2453 15.9674 23.2102L15.4885 22.7125ZM31.1635 7.47422C33.1049 7.47422 34.6846 9.05391 34.6846 10.9953C34.6846 12.9367 33.1049 14.5164 31.1635 14.5164C29.2221 14.5164 27.6424 12.9367 27.6424 10.9953C27.6424 9.05391 29.2221 7.47422 31.1635 7.47422ZM27.5213 8.42891C27.008 9.15547 26.7049 10.0406 26.7049 10.9953C26.7049 12.4156 27.3736 13.6828 28.4119 14.4992C27.3791 20.0414 22.083 25.6242 16.2229 25.2492L16.3025 24.0867C19.9518 22.5039 22.6939 19.968 24.2416 16.7375C25.7041 13.6852 26.0689 10.1008 25.3072 6.3375H26.2127C26.7213 6.94531 27.1604 7.64609 27.5213 8.42891ZM20.4557 4.31953V3.18984C20.4557 2.59375 20.94 2.10938 21.5361 2.10938H27.4322C28.0283 2.10938 28.5127 2.59375 28.5127 3.18984V4.31953C28.5127 4.91563 28.0283 5.4 27.4322 5.4H27.3104C27.3104 5.4 27.3096 5.4 27.3088 5.4C26.7213 5.39219 26.2432 4.90703 26.2432 4.31953V3.48516C26.2432 3.22656 26.033 3.01641 25.7744 3.01641C25.5158 3.01641 25.3057 3.22656 25.3057 3.48516V4.31953C25.3057 4.71563 25.4229 5.08672 25.6229 5.4H21.5361C20.94 5.4 20.4557 4.91563 20.4557 4.31953ZM21.851 6.3375H23.0486C23.0346 6.36953 23.0205 6.40156 23.0057 6.43437C22.8908 6.68984 22.7604 6.97891 22.7439 7.30703C22.5244 11.8273 20.4252 15.7484 18.1768 18.5867C14.5377 20.3617 10.6518 20.2812 7.17285 18.368L7.8252 17.3312C8.37988 17.5555 9.01426 17.657 9.7002 17.657C13.6041 17.657 19.1729 14.3898 21.0705 11.9984C21.2314 11.7953 21.1971 11.5008 20.9947 11.3398C20.7924 11.1789 20.4971 11.2125 20.3361 11.4156C19.2775 12.75 16.8416 14.4352 14.4119 15.5148C11.6807 16.7289 9.3666 17.0438 8.02051 16.3922L7.67441 15.5445C10.8416 14.9812 13.7979 13.8562 16.2564 12.2727C18.7627 10.6594 20.6908 8.61172 21.851 6.3375ZM5.8877 15.8516L6.72676 15.7062L7.12598 16.6836L6.36973 17.8852C5.9791 17.6219 5.65098 17.3508 5.39082 17.0734L5.8877 15.8516ZM28.8713 11.3266C28.6885 11.1437 28.6885 10.8469 28.8713 10.6641C29.0541 10.4812 29.351 10.4812 29.5338 10.6641L30.5088 11.6391L32.7908 9.35703C32.9736 9.17422 33.2705 9.17422 33.4533 9.35703C33.6361 9.53984 33.6361 9.83672 33.4533 10.0195L30.84 12.6328C30.7486 12.7242 30.6283 12.7703 30.5088 12.7703C30.3885 12.7703 30.2689 12.7242 30.1775 12.6328L28.8713 11.3266Z" fill="#4AB04A"/>
</svg>
