<svg width="40" height="40" viewBox="0 0 40 40" fill="none" xmlns="http://www.w3.org/2000/svg">
<path d="M31.3825 24.2127C30.9598 24.2126 30.5429 24.311 30.1648 24.5C29.7867 24.689 29.4579 24.9634 29.2042 25.3015C28.9506 24.9629 28.6217 24.6881 28.2435 24.4988C27.8653 24.3095 27.4481 24.211 27.0252 24.2109C26.1189 24.2109 25.3807 24.5846 24.89 25.2913C24.5094 25.8394 24.2998 26.5709 24.2998 27.3511C24.2998 30.7093 28.7186 33.6081 28.9067 33.7298C28.9954 33.7872 29.0989 33.8177 29.2047 33.8176C29.3104 33.8174 29.4138 33.7866 29.5024 33.7289C29.6904 33.6063 34.108 30.6898 34.108 27.3506C34.108 25.8294 33.1527 24.2127 31.3825 24.2127ZM31.0086 31.0664C30.4482 31.6262 29.8445 32.1406 29.2029 32.605C28.2579 31.926 25.3936 29.6759 25.3936 27.3511C25.3936 27.0094 25.4722 25.3047 27.0252 25.3047C27.4579 25.3053 27.8728 25.4776 28.1787 25.7837C28.4846 26.0898 28.6566 26.5047 28.657 26.9375C28.657 27.0825 28.7146 27.2216 28.8172 27.3242C28.9197 27.4268 29.0588 27.4844 29.2039 27.4844C29.3489 27.4844 29.488 27.4268 29.5906 27.3242C29.6931 27.2216 29.7507 27.0825 29.7507 26.9375C29.7513 26.5049 29.9234 26.0903 30.2293 25.7844C30.5352 25.4786 30.9499 25.3066 31.3825 25.3062C32.0133 25.3062 33.0143 25.8609 33.0143 27.3504C33.0143 28.7504 31.9236 30.1439 31.0086 31.0664Z" fill="#4AB04A"/>
<path d="M29.2038 19.6456C28.2036 19.6449 27.2099 19.8049 26.2605 20.1196C26.1497 19.1997 26.0658 18.1764 25.9783 17.1024C25.4483 10.5953 24.7237 1.69409 16.3015 1.69409C16.2653 1.69409 16.2286 1.69409 16.1921 1.69456C13.8687 1.71581 11.8912 2.59573 10.3145 4.30995C9.00461 5.73417 7.99664 7.74519 7.39961 10.1254C6.88692 12.1924 6.70014 14.3269 6.84602 16.4515C7.11016 19.9935 6.67789 23.5805 5.63102 26.575C4.21016 27.6562 3.25203 28.964 2.81523 30.4425C2.16852 32.6289 1.46891 35.9687 1.4393 36.1093C1.43159 36.1461 1.42771 36.1836 1.42773 36.2212C1.42773 37.2305 2.24539 38.3593 3.33961 38.3593H28.4377C28.4567 38.3593 28.4756 38.3583 28.4945 38.3564C28.7289 38.374 28.9653 38.3829 29.2038 38.3831C31.6885 38.3831 34.0715 37.396 35.8285 35.639C37.5854 33.882 38.5725 31.4991 38.5725 29.0143C38.5725 26.5296 37.5854 24.1466 35.8285 22.3896C34.0715 20.6326 31.6885 19.6456 29.2038 19.6456ZM7.93672 16.3702C7.66688 12.7517 8.54609 7.84808 11.1196 5.05042C12.4832 3.56769 14.1932 2.80667 16.2021 2.78831C17.9912 2.7723 19.4374 3.18831 20.623 4.06112C21.6642 4.82808 22.4805 5.92964 23.1183 7.43011C24.3241 10.2673 24.6238 13.9457 24.8881 17.1912C24.9857 18.3889 25.0788 19.5249 25.2109 20.5403C23.6481 21.2811 22.3191 22.4374 21.3693 23.8828L21.2422 23.8442C21.2318 23.8407 21.2213 23.8375 21.2109 23.8346C20.6866 23.6763 20.2606 23.5541 19.9557 23.4667L19.8463 23.4354L19.8272 21.9262C21.4275 20.7611 21.8926 18.9019 22.0263 17.9987C23.0826 17.7053 24.0504 16.4659 24.4381 14.8255C24.634 13.9956 24.3522 13.2292 23.7212 12.8729C23.143 12.5469 22.4448 12.6542 21.9421 13.1472C21.8938 13.1941 21.8455 13.2464 21.7973 13.3023C21.9052 11.9628 21.8691 10.92 21.6899 10.1475C21.414 8.95737 20.8352 8.62659 20.5241 8.44886C20.4941 8.43159 20.4662 8.4162 20.442 8.40011C20.0896 8.15659 19.6664 8.03682 19.2386 8.05955C18.8109 8.08228 18.4027 8.24623 18.0781 8.52573C18.0506 8.55051 18.0257 8.57802 18.0038 8.60784C17.1444 9.77355 15.6688 9.98175 15.4892 10.003C12.9373 9.98675 12.4525 7.69362 12.4335 7.59808C12.4157 7.50385 12.3734 7.41598 12.3109 7.34326C12.2483 7.27055 12.1678 7.21555 12.0773 7.18379C11.9868 7.15203 11.8896 7.14462 11.7953 7.16231C11.7011 7.18 11.6131 7.22216 11.5403 7.28456C9.87078 8.7155 9.78031 11.1937 9.88617 12.6C9.654 12.5868 9.42262 12.637 9.21672 12.7451C8.54313 13.0922 8.23234 13.9282 8.44375 14.8257C8.83055 16.4625 9.79531 17.7003 10.8488 17.9968C10.9711 18.9082 11.4215 20.7916 13.0691 21.9583L13.05 23.4349L12.9446 23.4657C12.6357 23.5562 12.2268 23.676 11.7637 23.818C11.6889 23.8249 11.6165 23.8473 11.5508 23.8836C10.4992 24.21 9.21719 24.6386 8.18359 25.096C7.79297 25.2686 7.4213 25.4522 7.06859 25.647C7.86625 22.8009 8.175 19.565 7.93672 16.3702ZM11.0921 13.4287C11.0855 13.3963 10.521 10.5448 11.688 8.76144C12.2246 9.85753 13.3963 11.0969 15.5161 11.0969C15.5313 11.0969 15.5464 11.0963 15.5615 11.095C15.6461 11.088 17.6235 10.906 18.8397 9.31519C18.9827 9.20696 19.157 9.14799 19.3363 9.14711C19.5157 9.14622 19.6905 9.20346 19.8346 9.31026C19.8839 9.34308 19.9331 9.3712 19.9808 9.39847C20.2034 9.52573 20.4558 9.66995 20.6238 10.3946C20.8738 11.4723 20.7878 13.3087 20.3688 15.8532C20.3473 15.9837 20.3736 16.1176 20.4428 16.2302C20.512 16.3429 20.6195 16.4268 20.7456 16.4666C20.7917 16.4813 21.2027 16.5942 21.4245 16.1392C21.4396 16.108 21.4612 16.0627 21.4882 16.0053C22.0033 14.915 22.4133 14.2163 22.707 13.9284C22.8575 13.781 23.0351 13.7425 23.183 13.8257C23.3393 13.9139 23.4714 14.1569 23.3729 14.5742C23.0307 16.0221 22.1511 16.9848 21.5395 16.9711C21.3967 16.9691 21.2588 17.0227 21.1549 17.1205C21.0509 17.2183 20.9891 17.3527 20.9824 17.4953C20.9534 17.9179 20.7203 20.0822 18.9804 21.1804C18.3945 21.5508 16.8364 22.1592 16.4397 22.2639C16.0695 22.1671 14.6778 21.6344 14.0162 21.2664C13.9511 21.1976 13.8692 21.147 13.7787 21.1194C12.0769 19.9756 11.9115 17.7561 11.898 17.5017C11.8937 17.3595 11.8342 17.2246 11.7321 17.1256C11.63 17.0265 11.4934 16.9711 11.3512 16.971C11.3442 16.971 11.3372 16.971 11.3301 16.971C10.7214 16.971 9.84766 16.0134 9.50758 14.5744C9.40539 14.1404 9.53922 13.8088 9.71703 13.7171C9.87789 13.6344 10.0545 13.7953 10.1453 13.899C10.2249 13.9897 10.3322 14.0515 10.4506 14.0748C10.5689 14.0981 10.6917 14.0816 10.7997 14.0279C10.9077 13.9742 10.9949 13.8863 11.0478 13.7779C11.1007 13.6695 11.1162 13.5466 11.092 13.4285L11.0921 13.4287ZM13.7602 24.363C13.8688 24.3277 13.9637 24.2592 14.0315 24.1672C14.0992 24.0751 14.1364 23.9642 14.1379 23.85L14.1547 22.5484C15.0141 22.9379 16.1458 23.3664 16.4402 23.3664C16.7405 23.3664 17.8813 22.9278 18.7404 22.531L18.7572 23.8513C18.7586 23.9641 18.7949 24.0738 18.8611 24.1651C18.9273 24.2565 19.0202 24.3252 19.127 24.3617C19.2198 24.3935 19.3832 24.4403 19.6539 24.518C19.8674 24.5792 20.1411 24.6578 20.4664 24.7538C20.3509 25.2318 20.0434 25.8566 19.5147 26.41C18.9557 26.9951 17.9687 27.6925 16.4407 27.6925C14.9127 27.6925 13.9257 26.9951 13.3667 26.41C12.8411 25.86 12.5339 25.2391 12.4168 24.7621C12.7379 24.6655 13.023 24.582 13.2517 24.5149C13.4909 24.4453 13.6638 24.3943 13.7602 24.363ZM3.33961 37.2656C2.95516 37.2656 2.5493 36.7637 2.52289 36.2717C2.62242 35.8007 3.27719 32.7368 3.86406 30.7526C4.4318 28.8313 6.07805 27.2214 8.62531 26.0964C9.52279 25.714 10.439 25.3772 11.3704 25.0872C11.5574 25.7933 11.9896 26.5528 12.5756 27.1661C13.282 27.9054 14.526 28.7867 16.4405 28.7867C18.0738 28.7867 19.2188 28.1453 19.9585 27.4977C19.6426 29.4242 19.9366 31.4013 20.7992 33.1526C21.6619 34.9039 23.0502 36.3419 24.7701 37.2656H3.33961ZM29.2038 37.289C27.5671 37.289 25.9672 36.8037 24.6064 35.8944C23.2456 34.9851 22.185 33.6927 21.5587 32.1806C20.9324 30.6685 20.7685 29.0047 21.0879 27.3995C21.4072 25.7943 22.1954 24.3198 23.3527 23.1625C24.51 22.0053 25.9845 21.2172 27.5897 20.898C29.1949 20.5787 30.8588 20.7427 32.3708 21.369C33.8829 21.9954 35.1752 23.0561 36.0844 24.417C36.9937 25.7778 37.4789 27.3778 37.4788 29.0144C37.4763 31.2083 36.6036 33.3115 35.0523 34.8628C33.5009 36.414 31.3976 37.2866 29.2038 37.289Z" fill="#4AB04A"/>
</svg>
