<svg width="40" height="40" viewBox="0 0 40 40" fill="none" xmlns="http://www.w3.org/2000/svg">
<g clip-path="url(#clip0_10986_2272)">
<path d="M39.1989 23.1682L34.5165 19.1516C34.3545 19.0126 34.1263 18.9805 33.932 19.0697C33.738 19.159 33.6136 19.353 33.6136 19.5666V21.3324H29.43C29.2346 21.3324 29.0541 21.4366 28.9564 21.6059L26.4069 26.0218H26.2991V25.0971C26.2991 23.8643 25.2962 22.8613 24.0634 22.8613H15.7491C14.5163 22.8613 13.5134 23.8643 13.5134 25.0971V25.8852L11.0428 21.6059C10.9451 21.4366 10.7645 21.3324 10.5692 21.3324H6.38547V19.5666C6.38547 19.353 6.26109 19.1589 6.06703 19.0697C5.87297 18.9805 5.64477 19.0124 5.48258 19.1516L0.800156 23.1682C0.679063 23.272 0.609375 23.4237 0.609375 23.5832C0.609375 23.7428 0.679141 23.8944 0.800156 23.9982L5.48258 28.0148C5.64469 28.1539 5.8732 28.1859 6.06703 28.0966C6.26109 28.0073 6.38547 27.8134 6.38547 27.5998V25.834H8.28578L10.8353 30.2499C10.933 30.4191 11.1136 30.5234 11.3089 30.5234H13.5133V33.1684C13.5133 34.4012 14.5162 35.4041 15.7491 35.4041H15.8607V38.75C15.8607 39.052 16.1055 39.2969 16.4076 39.2969H23.4048C23.7068 39.2969 23.9516 39.052 23.9516 38.75V35.4043H24.0633C25.2961 35.4043 26.2991 34.4013 26.2991 33.1685V30.5234H28.69C28.8854 30.5234 29.0659 30.4192 29.1636 30.25L31.7131 25.8341H33.6134V27.5998C33.6134 27.8134 33.7378 28.0075 33.9319 28.0967C34.1259 28.1859 34.3542 28.154 34.5163 28.0148L39.1987 23.9983C39.3198 23.8945 39.3895 23.7428 39.3895 23.5833C39.3897 23.4237 39.32 23.272 39.1989 23.1682ZM11.6247 29.4297L9.07516 25.0138C8.97742 24.8445 8.79688 24.7403 8.60156 24.7403H5.83859C5.53656 24.7403 5.29172 24.9852 5.29172 25.2872V26.4102L1.99609 23.5832L5.29172 20.7562V21.8793C5.29172 22.1813 5.53656 22.4262 5.83859 22.4262H10.2534L12.8029 26.8421C12.9006 27.0113 13.0812 27.1155 13.2765 27.1155H13.5133V29.4297H11.6247ZM25.2054 33.1685C25.2054 33.7983 24.693 34.3105 24.0634 34.3105H23.9517V26.5687C23.9517 26.2666 23.7069 26.0218 23.4048 26.0218C23.1028 26.0218 22.858 26.2666 22.858 26.5687V38.2031H20.4531V34.913C20.4531 34.6109 20.2083 34.3661 19.9062 34.3661C19.6042 34.3661 19.3594 34.6109 19.3594 34.913V38.2031H16.9545V26.5687C16.9545 26.2666 16.7097 26.0218 16.4077 26.0218C16.1056 26.0218 15.8608 26.2666 15.8608 26.5687V34.3105H15.7491C15.1194 34.3105 14.6071 33.7982 14.6071 33.1685V25.0971C14.6071 24.4673 15.1195 23.9551 15.7491 23.9551H24.0634C24.6931 23.9551 25.2054 24.4674 25.2054 25.0971V33.1685ZM34.7073 26.4102V25.2872C34.7073 24.9852 34.4625 24.7403 34.1605 24.7403H31.3976C31.2022 24.7403 31.0216 24.8445 30.924 25.0138L28.3744 29.4297H26.2991V27.1155H26.7226C26.918 27.1155 27.0985 27.0113 27.1962 26.8421L29.7457 22.4262H34.1605C34.4625 22.4262 34.7073 22.1813 34.7073 21.8793V20.7562L38.003 23.5833L34.7073 26.4102ZM15.8896 6.4793H17.6555V14.6165C17.6555 14.9185 17.9003 15.1634 18.2023 15.1634H21.6102C21.9123 15.1634 22.1571 14.9185 22.1571 14.6165V6.4793H23.9229C24.1365 6.4793 24.3305 6.35492 24.4198 6.16086C24.509 5.9668 24.477 5.73852 24.3379 5.57641L20.3213 0.893984C20.2174 0.772891 20.0659 0.703125 19.9062 0.703125C19.7467 0.703125 19.5951 0.772891 19.4913 0.893906L15.4745 5.57633C15.3355 5.73844 15.3035 5.96672 15.3927 6.16078C15.482 6.35492 15.6759 6.4793 15.8896 6.4793ZM19.9062 2.08992L22.7333 5.38555H21.6102C21.3082 5.38555 21.0634 5.63039 21.0634 5.93242V14.0696H18.7492V5.93242C18.7492 5.63039 18.5044 5.38555 18.2023 5.38555H17.0792L19.9062 2.08992ZM16.6101 18.8699C16.6101 20.6874 18.0887 22.166 19.9062 22.166C21.7236 22.166 23.2023 20.6873 23.2023 18.8699C23.2023 17.0525 21.7236 15.5738 19.9062 15.5738C18.0887 15.5738 16.6101 17.0524 16.6101 18.8699ZM22.1086 18.8699C22.1086 20.0843 21.1206 21.0723 19.9062 21.0723C18.6919 21.0723 17.7039 20.0843 17.7039 18.8699C17.7039 17.6555 18.6919 16.6676 19.9062 16.6676C21.1206 16.6676 22.1086 17.6555 22.1086 18.8699Z" fill="#4AB04A"/>
</g>
<defs>
<clipPath id="clip0_10986_2272">
<rect width="40" height="40" fill="white"/>
</clipPath>
</defs>
</svg>
