<svg width="40" height="40" viewBox="0 0 40 40" fill="none" xmlns="http://www.w3.org/2000/svg">
<path d="M38.0841 37.5H20.9617L23.0037 32.9054C23.0839 32.7257 23.1253 32.531 23.125 32.3342V29.8255L23.3869 29.7382C23.8313 29.5905 24.2216 29.3137 24.508 28.9432C24.7944 28.5727 24.9638 28.1252 24.9948 27.6579L25.4252 26.7968C26.3809 24.8847 26.8049 22.7509 26.6529 20.6186L26.4609 17.934C26.4025 17.1229 26.2295 16.3241 25.9473 15.5615L30.4418 11.0669C30.4709 11.0378 30.4971 11.0059 30.5199 10.9717L34.1779 5.48474L36.5295 4.30896C36.6296 4.25886 36.7145 4.18278 36.7752 4.08866C36.8359 3.99454 36.8702 3.88584 36.8744 3.77393C36.8787 3.66202 36.8529 3.55101 36.7996 3.45252C36.7463 3.35402 36.6675 3.27166 36.5715 3.21403L34.0854 1.72239C33.7756 1.536 33.4059 1.47626 33.0532 1.55561C32.7004 1.63497 32.3919 1.8473 32.1918 2.14841L31.3893 3.35153L27.12 7.62114L21.9837 10.4747L19.3594 7.85021C19.1632 7.6537 18.913 7.51989 18.6406 7.46575L15.7475 6.88708C15.7228 6.8822 15.6979 6.87875 15.6728 6.87677L7.64328 6.25911L4.60711 5.04466C4.49353 4.9992 4.3691 4.98807 4.24926 5.01265C4.12941 5.03723 4.01942 5.09645 3.93291 5.18296C3.8464 5.26947 3.78719 5.37946 3.7626 5.49931C3.73802 5.61915 3.74915 5.74358 3.79461 5.85716L4.8482 8.49107C4.95182 8.75256 5.13183 8.97676 5.36475 9.13443C5.59768 9.2921 5.87271 9.37593 6.15398 9.37497H6.72742L8.41781 10.2201C9.75452 10.8889 11.1905 11.3374 12.6702 11.5483L14.6553 11.8318L18.125 16.4583V17.3524C18.1263 18.3046 18.3342 19.2453 18.7344 20.1093L18.384 23.2632C18.1336 22.9228 17.7756 22.677 17.368 22.5656C16.9605 22.4543 16.5272 22.4839 16.1386 22.6498C15.75 22.8156 15.4288 23.1079 15.2271 23.4792C15.0255 23.8505 14.9552 24.279 15.0277 24.6953C14.5452 24.9655 14.166 25.3882 13.9494 25.8971C13.7329 26.4059 13.6912 26.9722 13.831 27.5073C13.9707 28.0424 14.284 28.516 14.7217 28.854C15.1595 29.1919 15.697 29.3752 16.25 29.375H17.5C17.8246 29.3746 18.1461 29.3109 18.4463 29.1875L18.7437 32.4593L17.6237 37.5H1.875C1.70924 37.5 1.55027 37.5658 1.43306 37.683C1.31585 37.8002 1.25 37.9592 1.25 38.125C1.25 38.2907 1.31585 38.4497 1.43306 38.5669C1.55027 38.6841 1.70924 38.75 1.875 38.75H38.0841C38.2498 38.75 38.4088 38.6841 38.526 38.5669C38.6432 38.4497 38.7091 38.2907 38.7091 38.125C38.7091 37.9592 38.6432 37.8002 38.526 37.683C38.4088 37.5658 38.2498 37.5 38.0841 37.5ZM16.875 23.75C17.0407 23.7502 17.1996 23.8161 17.3167 23.9332C17.4339 24.0504 17.4998 24.2093 17.5 24.375H16.25C16.2502 24.2093 16.3161 24.0504 16.4333 23.9332C16.5504 23.8161 16.7093 23.7502 16.875 23.75ZM15.73 26.5283C15.6616 26.6309 15.625 26.7516 15.625 26.875V27.9558C15.3867 27.8184 15.2004 27.6062 15.0951 27.352C14.9897 27.0979 14.9713 26.8161 15.0425 26.5504C15.1138 26.2847 15.2707 26.05 15.4891 25.8826C15.7074 25.7153 15.9749 25.6247 16.25 25.625H16.3322L15.73 26.5283ZM17.5 28.125H16.875V27.0642L17.8089 25.6632C17.9249 25.6928 18.0359 25.7391 18.1384 25.8008L18.3216 27.8157C18.094 28.0146 17.8022 28.1245 17.5 28.125ZM24.3072 26.2381L23.816 27.2204C23.7726 27.3072 23.75 27.4029 23.75 27.5C23.7502 27.7328 23.677 27.9599 23.5409 28.1488C23.4047 28.3377 23.2125 28.4789 22.9915 28.5523L22.7655 28.6276C22.497 28.2758 22.1508 27.991 21.7538 27.7953C21.3568 27.5997 20.92 27.4986 20.4774 27.5H19.5477L19.3778 25.6312L19.9959 20.0687C20.0091 19.949 19.9874 19.8279 19.9334 19.7202C19.567 18.9846 19.3759 18.1742 19.375 17.3524V16.839C20.2626 16.7361 21.1133 16.4249 21.8577 15.9307C22.6021 15.4365 23.2191 14.7733 23.6585 13.9953C24.5671 15.1528 25.1089 16.5555 25.2143 18.0233L25.4061 20.7083C25.5421 22.6168 25.1625 24.5267 24.3072 26.2381ZM27.8035 8.6713C27.8543 8.64312 27.9009 8.60799 27.942 8.56692L32.317 4.19192C32.346 4.16281 32.3722 4.13091 32.3951 4.09669L33.2319 2.84146C33.2542 2.8081 33.2885 2.78462 33.3277 2.7759C33.3669 2.76717 33.408 2.77386 33.4423 2.79458L34.9523 3.70083L33.4705 4.44169C33.3733 4.4903 33.2904 4.56347 33.2301 4.65396L29.5143 10.2265L25.3911 14.3497C25.003 13.6518 24.5199 13.0112 23.9555 12.4463L22.9029 11.3936L27.8035 8.6713ZM15.5 10.875C15.4005 10.7424 15.2524 10.6547 15.0884 10.6312L12.8469 10.3109C11.5001 10.119 10.1932 9.71084 8.97656 9.10216L7.15453 8.19099C7.06775 8.14756 6.97204 8.12496 6.875 8.12497H6.15398C6.12272 8.1251 6.09214 8.11579 6.06625 8.09827C6.04036 8.08075 6.02034 8.05583 6.00883 8.02677L5.49687 6.74685L7.26789 7.45528C7.32678 7.47881 7.38889 7.49327 7.45211 7.49817L15.5391 8.12021L18.3953 8.69146C18.4255 8.69747 18.4532 8.71235 18.4749 8.73419L22.7562 13.0154L22.6823 13.1672C22.3432 13.8557 21.8301 14.4438 21.1938 14.8729C20.5575 15.3021 19.8201 15.5576 19.0547 15.614L15.5 10.875ZM19.5938 37.5H18.9041L19.1818 36.25H20.1493L19.5938 37.5ZM20.625 35H19.4597L19.9852 32.6355C19.9991 32.5725 20.0032 32.5076 19.9974 32.4433L19.6616 28.75H20.4774C20.7584 28.7491 21.0349 28.821 21.2798 28.9588C21.5248 29.0965 21.7298 29.2954 21.875 29.5361V32.3342C21.875 32.3561 21.8704 32.3777 21.8615 32.3976L20.7026 35.0053C20.6769 35.0019 20.6509 35.0002 20.625 35Z" fill="#4AB04A"/>
</svg>
