<svg width="40" height="40" viewBox="0 0 40 40" fill="none" xmlns="http://www.w3.org/2000/svg">
<path d="M31.5902 11.71L32.4239 12.1615C32.6191 12.2672 32.8572 12.2535 33.0389 12.1262L33.9989 11.454C34.264 11.2684 34.3284 10.903 34.1428 10.638C33.9572 10.3729 33.5918 10.3085 33.3268 10.4941L32.6635 10.9585L31.8298 10.5071C31.6346 10.4014 31.3965 10.415 31.2147 10.5423L30.2548 11.2145C29.9897 11.4001 29.9253 11.7655 30.1109 12.0306C30.2965 12.2956 30.6619 12.36 30.9269 12.1745L31.5902 11.71Z" fill="#4AB04A"/>
<path d="M30.4543 9.35676L30.9496 8.29469C31.0864 8.00143 30.9595 7.65279 30.6662 7.51598C30.3729 7.37922 30.0243 7.50608 29.8875 7.7994L29.5453 8.53328L28.5976 8.55918C28.3758 8.56522 28.1764 8.69611 28.0826 8.89727L27.5873 9.95934C27.4505 10.2526 27.5774 10.6012 27.8707 10.738C28.1639 10.8748 28.5126 10.748 28.6494 10.4546L28.9916 9.72074L29.9393 9.69484C30.1611 9.68875 30.3605 9.55785 30.4543 9.35676Z" fill="#4AB04A"/>
<path d="M34.9805 14.9457C34.8968 14.6331 34.5755 14.4476 34.2629 14.5314L33.4807 14.741L32.8517 14.0317C32.7045 13.8656 32.4761 13.797 32.2617 13.8545L31.1298 14.1578C30.8172 14.2415 30.6316 14.5628 30.7154 14.8754C30.7992 15.188 31.1205 15.3735 31.4331 15.2897L32.2153 15.0801L32.8443 15.7895C32.9915 15.9555 33.22 16.0241 33.4343 15.9667L34.5662 15.6634C34.8788 15.5796 35.0643 15.2583 34.9805 14.9457Z" fill="#4AB04A"/>
<path d="M14.6113 15.0791C14.9349 15.0791 15.1973 14.8168 15.1973 14.4932C15.1973 14.1696 14.9349 13.9072 14.6113 13.9072C14.2877 13.9072 14.0254 14.1696 14.0254 14.4932C14.0254 14.8168 14.2877 15.0791 14.6113 15.0791Z" fill="#4AB04A"/>
<path d="M25.9247 10.8318L19.2513 7.61432C18.9912 7.48893 18.6787 7.57166 18.5146 7.8092L18.4965 7.83545L12.8472 5.0601C12.5795 4.92861 12.2558 5.01914 12.0951 5.27045L5.09227 16.2275C4.9316 16.4788 4.98545 16.8107 5.2173 16.9985C6.71859 18.2138 8.38213 19.1948 10.1705 19.922C10.0558 20.2176 10.1996 20.5652 10.5129 20.682C12.7866 21.5289 15.1616 21.9583 17.5718 21.9583C17.7744 21.9583 17.9783 21.9552 18.1826 21.949C17.4671 24.4867 17.6177 27.1885 18.6257 29.6464C18.7233 29.8844 18.9647 30.0309 19.2209 30.0076L19.4081 29.9905C19.8124 30.9841 20.0525 32.0296 20.121 33.1032L20.2072 34.4514C20.2269 34.7599 20.4828 35 20.7919 35H27.5302C27.8378 35 28.093 34.7621 28.1146 34.4552L28.4872 29.1652L28.582 29.1565C28.8682 29.1305 29.0933 28.9008 29.1135 28.6142L29.8849 17.6595C30.0884 14.77 28.5339 12.09 25.9247 10.8318ZM11.6359 19.834L13.5953 16.9961C13.7792 16.7298 13.7124 16.3649 13.4461 16.1811C13.1798 15.9972 12.8149 16.064 12.631 16.3303L10.8383 18.9267C9.23314 18.2984 7.73221 17.4547 6.3658 16.411L12.8006 6.34289L17.8233 8.81045L15.6274 11.9908C15.4436 12.2571 15.5104 12.622 15.7767 12.8058C16.0429 12.9897 16.4078 12.9229 16.5917 12.6566L19.194 8.88773L21.6496 10.0716L13.9431 20.4354C13.165 20.2836 12.395 20.0835 11.6359 19.834ZM17.2266 20.783C16.5637 20.771 15.904 20.7243 15.2488 20.6434L22.7245 10.5899L25.4157 11.8874C25.6329 11.9921 25.841 12.1092 26.0401 12.2366L17.2266 20.783ZM26.9842 33.8281H21.3417L21.2906 33.0285C21.2215 31.9471 20.997 30.8911 20.6225 29.8801L27.305 29.2726L26.9842 33.8281ZM27.9796 28.0346L19.5547 28.8005C19.3098 28.1279 19.135 27.4374 19.0297 26.7391L28.142 25.7266L27.9796 28.0346ZM28.2258 24.5381L18.9193 25.5722C18.8885 24.7855 18.9452 23.996 19.0896 23.2173L28.3909 22.194L28.2258 24.5381ZM28.716 17.5771L28.4745 21.0059L24.214 21.4746L28.706 16.6232C28.7343 16.9365 28.7386 17.2552 28.716 17.5771ZM22.4358 21.6703L19.3882 22.0055C19.4385 21.8429 19.4926 21.6809 19.5509 21.52C19.6955 21.1212 19.3815 20.7059 18.9585 20.7359L26.9664 12.9707C27.6163 13.6021 28.1076 14.3732 28.4044 15.2241L22.4358 21.6703Z" fill="#4AB04A"/>
</svg>
