<svg width="40" height="40" viewBox="0 0 40 40" fill="none" xmlns="http://www.w3.org/2000/svg">
<path d="M38.3614 8.747H36.4851V7.18782C36.4851 5.9517 35.4795 4.94604 34.2434 4.94604H32.4552C31.219 4.94604 30.2135 5.9517 30.2135 7.18782V13.6063H27.2168V11.8831C27.2168 10.6324 26.1994 9.61509 24.9488 9.61509C24.4574 9.61509 24.0026 9.77271 23.631 10.0393C23.2656 9.27578 22.4854 8.747 21.5839 8.747C20.7317 8.747 19.9879 9.21949 19.6005 9.91629C19.2176 9.6211 18.7387 9.44458 18.2189 9.44458C17.4301 9.44458 16.7347 9.84985 16.3283 10.4627C15.9315 10.1223 15.4165 9.91606 14.854 9.91606C13.6033 9.91606 12.586 10.9334 12.586 12.1841V13.6065H9.78677V11.9535C9.78677 11.6301 9.5246 11.368 9.20122 11.368C8.87785 11.368 8.61568 11.6301 8.61568 11.9535V25.5562C8.61568 26.1466 8.13538 26.6268 7.54507 26.6268H5.75659C5.16621 26.6268 4.68598 26.1466 4.68598 25.5562V7.18782C4.68598 6.59743 5.16628 6.11713 5.75659 6.11713H7.54484C8.13522 6.11713 8.61544 6.59743 8.61544 7.18782V9.458C8.61544 9.78146 8.87761 10.0435 9.20099 10.0435C9.52436 10.0435 9.78653 9.78146 9.78653 9.458V7.18782C9.78653 5.9517 8.78088 4.94604 7.54484 4.94604H5.75659C4.52047 4.94604 3.5149 5.9517 3.5149 7.18782V8.747H1.63858C0.735052 8.747 0 9.48205 0 10.3855V22.3584C0 23.2619 0.735052 23.997 1.63858 23.997H3.5149V25.5561C3.5149 26.7922 4.52055 27.7978 5.75659 27.7978H7.54484C8.78096 27.7978 9.78653 26.7922 9.78653 25.5561V19.1377H11.7931V20.2069C11.7931 20.7563 11.9854 21.2927 12.3345 21.7172L14.153 23.928V34.4683C14.153 34.7918 14.4151 35.0539 14.7385 35.0539C15.0619 35.0539 15.324 34.7918 15.324 34.4683V23.7182C15.324 23.5825 15.2769 23.451 15.1907 23.3461L13.2389 20.9731C13.0617 20.7578 12.9642 20.4857 12.9642 20.2069V19.1377L24.0378 19.2053C24.3612 19.2053 24.6233 18.9433 24.6233 18.6198C24.6233 18.2963 24.3612 18.0343 24.0378 18.0343H21.3736C20.8239 18.0343 20.3767 17.5871 20.3767 17.0375C20.3767 16.4879 20.8239 16.0407 21.3736 16.0407H26.4082C26.7542 16.0407 27.0356 16.3221 27.0356 16.668V20.2068C27.0356 20.4856 26.938 20.7578 26.7609 20.9731L24.8091 23.3461C24.7229 23.4509 24.6757 23.5823 24.6757 23.7181V25.2624C24.6757 25.5859 24.9379 25.848 25.2613 25.848C25.5846 25.848 25.8468 25.5859 25.8468 25.2624V23.9279L27.6653 21.7171C28.0143 21.2926 28.2066 20.7563 28.2066 20.2068V19.1376H30.2132V25.5561C30.2132 26.7921 31.2189 27.7978 32.4549 27.7978H34.2432C35.4793 27.7978 36.4849 26.7921 36.4849 25.5561V23.9969H38.3612C39.2647 23.9969 39.9998 23.2618 39.9998 22.3583V10.3855C40 9.48205 39.2649 8.747 38.3614 8.747ZM1.63858 22.8259C1.38079 22.8259 1.17109 22.6161 1.17109 22.3584V10.3855C1.17109 10.1277 1.38079 9.91809 1.63858 9.91809H3.5149V22.8259H1.63858ZM24.9487 10.7862C25.5536 10.7862 26.0457 11.2783 26.0457 11.8831V14.0631C26.0457 14.3723 25.9145 14.6632 25.69 14.8697H24.2074C23.9829 14.6632 23.8517 14.3723 23.8517 14.0631V11.8831C23.8517 11.2783 24.3438 10.7862 24.9487 10.7862ZM20.4868 11.015C20.4868 10.4102 20.9789 9.91809 21.5837 9.91809C22.1886 9.91809 22.6807 10.4102 22.6807 11.015V14.0631C22.6807 14.3723 22.5495 14.6632 22.325 14.8697H21.3736C21.212 14.8697 21.0546 14.888 20.903 14.9217C20.6423 14.7159 20.4867 14.4027 20.4867 14.0631L20.4868 11.015ZM17.1218 11.7125C17.1218 11.1077 17.6139 10.6156 18.2187 10.6156C18.8236 10.6156 19.3157 11.1077 19.3157 11.7125V14.063C19.3157 14.6679 18.8236 15.16 18.2187 15.16C17.6138 15.16 17.1218 14.6679 17.1218 14.063V11.7125ZM13.7568 12.184C13.7568 11.5792 14.2489 11.0871 14.8537 11.0871C15.4586 11.0871 15.9507 11.5792 15.9507 12.184V14.0631C15.9507 14.668 15.4586 15.1601 14.8537 15.1601C14.2489 15.1601 13.7568 14.668 13.7568 14.0631V12.184ZM9.78661 14.7774H12.7017C13.0017 15.679 13.8528 16.3311 14.8538 16.3311C15.5207 16.3311 16.1212 16.0416 16.5366 15.5819C16.9519 16.0415 17.552 16.3311 18.2188 16.3311C18.7019 16.3311 19.149 16.1779 19.5172 15.9194C19.3197 16.2461 19.2059 16.6287 19.2059 17.0375C19.2059 17.3698 19.2812 17.6848 19.4154 17.9665H9.78661V14.7774ZM28.2069 17.9666V16.6681C28.2069 15.8923 27.7131 15.2298 27.0234 14.978C27.0523 14.9125 27.078 14.8455 27.1006 14.7774H30.2135V17.9666H28.2069ZM38.8289 22.3584C38.8289 22.6162 38.6192 22.8259 38.3614 22.8259H36.4851V21.1337C36.4851 20.8103 36.2229 20.5482 35.8996 20.5482C35.5762 20.5482 35.314 20.8103 35.314 21.1337V25.5561C35.314 26.1465 34.8337 26.6267 34.2434 26.6267H32.4552C31.8648 26.6267 31.3846 26.1465 31.3846 25.5561V7.18782C31.3846 6.59743 31.8649 6.11713 32.4552 6.11713H34.2434C34.8338 6.11713 35.314 6.59743 35.314 7.18782V18.6383C35.314 18.9618 35.5762 19.2238 35.8996 19.2238C36.2229 19.2238 36.4851 18.9618 36.4851 18.6383V9.91809H38.3614C38.6192 9.91809 38.8289 10.1278 38.8289 10.3855V22.3584Z" fill="#4AB04A"/>
<path d="M25.2613 27.1724C24.9379 27.1724 24.6758 27.4345 24.6758 27.7579V34.4683C24.6758 34.7918 24.9379 35.0538 25.2613 35.0538C25.5847 35.0538 25.8469 34.7918 25.8469 34.4683V27.7579C25.8469 27.4345 25.5848 27.1724 25.2613 27.1724Z" fill="#4AB04A"/>
</svg>
