<svg width="40" height="40" viewBox="0 0 40 40" fill="none" xmlns="http://www.w3.org/2000/svg">
<path d="M37.3981 29.1249C37.1012 28.8827 35.4215 27.0156 34.8043 26.3124L34.1324 24.8359L34.5152 24.1327C34.5543 24.0624 34.5777 23.9765 34.5699 23.8984C34.4684 20.664 33.4606 18.7421 31.7496 16.3202L32.0621 13.5624C32.1637 12.6718 31.5777 11.8437 30.7106 11.6249L28.6402 11.1249C29.6324 10.5546 30.2574 9.37494 30.2184 8.26556C30.1481 6.2265 28.8668 5.76556 27.6246 5.58587C26.1871 5.37494 25.2809 6.2265 24.9137 8.11712C24.7418 8.99994 24.6949 9.69525 24.8981 10.2265L20.8434 9.24212C19.8824 8.73431 18.9684 8.26556 17.8824 8.8515C17.6715 8.96869 17.4918 9.13275 17.3434 9.33587C17.3277 8.8515 17.1559 8.30462 16.9059 7.67962C16.1871 5.89056 15.1324 5.23431 13.7652 5.71087C12.5777 6.13275 11.4137 6.82806 11.734 8.83587C11.8199 9.39837 12.0856 9.93744 12.4606 10.3827C12.4293 10.5546 12.3434 10.7109 12.1793 10.9843C11.7262 11.6874 10.8434 13.4452 10.5621 17.5859C10.5309 18.0234 10.5074 18.2734 10.3121 18.4296C9.71836 18.914 9.37461 19.9531 9.27305 21.5937C9.0543 25.0624 9.27305 27.1406 9.28868 27.2343C9.28868 27.2734 9.3043 27.3046 9.31211 27.3359C7.81211 28.3827 5.42149 30.0312 4.9918 30.2577C4.8043 30.3593 4.6793 30.5234 4.64024 30.7421C4.58555 30.9999 4.44493 31.6718 6.76524 34.6249C7.99961 35.8515 8.8043 32.6718 8.81993 31.9609C9.13243 31.6015 11.3356 30.3827 12.6402 29.9843C13.7184 29.6562 13.8824 27.4531 13.9059 26.7421L14.1324 25.1874L15.4527 25.8281C15.9606 26.9765 18.3121 32.289 18.648 32.8359C19.1871 33.7812 22.1481 33.2343 22.9762 33.0468C23.3434 32.9531 23.5856 32.6874 23.609 32.3515C23.6793 31.539 22.4527 30.5312 21.5777 30.1406C20.6871 29.6327 20.3121 26.7343 19.9137 25.5859C19.6012 24.7265 19.0934 23.5234 18.9684 23.2265C18.9293 23.0156 18.7184 22.5624 17.4371 21.1093C16.8668 20.4921 15.9293 19.3827 15.4059 19.1249L15.6871 17.9843L16.4293 18.7499C16.5231 18.8437 16.6402 18.8906 16.7652 18.8906C16.8199 18.8906 16.8824 18.8827 16.9371 18.8593L19.9059 17.6874C20.4762 17.7968 22.3356 18.039 23.0152 16.8671C23.5074 16.0234 23.3981 14.6562 22.7809 13.8906C21.609 12.3827 19.4684 14.2734 19.023 14.9765C18.4527 15.0546 17.8199 15.1718 17.4215 15.3046C17.3434 15.2343 16.8434 14.3906 16.4371 13.5702C16.359 13.414 16.0309 12.3515 15.7184 11.289C16.2809 11.0624 16.6793 10.8124 16.9371 10.5234C16.859 11.3827 17.0934 12.5156 17.9605 12.5312C18.5152 12.5156 18.9527 12.1562 19.3668 11.9296C19.6715 12.039 20.1402 12.1249 20.3434 12.164L25.0465 13.7265C25.2731 15.8281 26.0856 17.7734 27.4684 19.5156C27.5465 21.4999 28.1715 23.4296 29.3121 25.2577C29.6012 27.9218 29.8512 30.8671 29.7809 31.4843C29.1012 31.9687 27.8668 32.4921 28.1324 33.5546C28.1793 33.7187 28.3043 33.9452 28.6246 34.1015C29.5699 34.5702 32.2027 34.0468 32.609 33.8593C32.9606 33.7031 33.0231 33.2968 33.0543 32.3749C33.0777 31.664 33.0465 30.2109 32.9996 29.2421C34.0621 30.039 34.9684 31.1015 34.9762 31.6015C35.1402 33.0468 35.734 33.8437 36.3824 33.8827C36.6402 33.8827 36.9371 33.7421 37.0856 33.3359C37.3356 32.5781 38.1246 29.4921 37.3981 29.1249ZM25.8356 8.29681C26.1168 6.81244 26.6402 6.49212 27.2027 6.49212C28.3902 6.57806 29.2652 6.914 29.2809 8.30462C29.3043 9.44525 28.359 10.7656 26.984 10.5234C26.1168 10.3593 25.8981 10.1249 25.8043 9.93744C25.6559 9.64837 25.6637 9.164 25.8356 8.29681ZM7.8668 31.9296C7.87461 32.0312 7.81211 32.4531 7.6168 33.0234C7.4918 33.3984 7.37461 33.6484 7.28868 33.7968C6.10899 32.2656 5.62461 31.3437 5.54649 31.0077C5.99961 30.7343 7.07774 29.9999 8.13243 29.2812L8.98399 30.6718C8.03868 31.2421 7.84336 31.5937 7.8668 31.9296ZM12.3512 29.0937C11.8981 29.2265 10.7731 29.7109 9.8043 30.2187L8.90586 28.7499C9.78086 28.1406 10.4215 27.7031 10.6481 27.539L12.9137 27.2421C12.8668 27.9062 12.609 28.9921 12.3512 29.0937ZM21.1793 30.9999C21.8668 31.3046 22.4449 31.8749 22.609 32.1718C21.5621 32.4218 19.7574 32.539 19.4059 32.3281C19.2496 32.0546 18.6949 30.8437 18.0387 29.3827L19.7574 28.7421C20.1012 29.8593 20.5231 30.7031 21.1793 30.9999ZM19.3043 26.9999C19.3746 27.2812 19.4371 27.5624 19.5074 27.8281L17.6559 28.5156C17.2652 27.6406 16.859 26.7265 16.4918 25.9062C17.0465 25.6796 17.8981 25.0859 18.4449 24.4374C18.8199 25.3827 19.0777 25.9296 19.3043 26.9999ZM18.0152 23.3906C17.8668 23.8906 16.5465 24.9609 16.0231 25.0781C16.0152 25.0702 15.9996 25.0702 15.9918 25.0624L13.9996 24.0859L11.9527 22.2968C11.7574 22.1249 11.4606 22.1484 11.2887 22.3437C11.1168 22.539 11.1402 22.8359 11.3356 23.0077L13.234 24.6718L12.9996 26.289L10.1559 26.6562C10.1012 25.8593 10.0309 24.0937 10.1871 21.6562C10.3512 19.6484 10.648 19.3827 10.9918 19.0624C12.5621 19.3827 14.734 19.789 14.9996 19.9843C15.4605 20.2734 17.7496 22.8202 18.0152 23.3906ZM21.4293 14.289C21.5934 14.2343 21.8121 14.2109 22.0309 14.4765C22.4059 14.9374 22.4762 15.8906 22.1871 16.3906C21.8356 16.9374 20.7574 16.8515 20.2106 16.7812L19.7965 15.4765C20.0074 15.1874 20.5543 14.5702 21.4293 14.289ZM17.1949 16.289C17.3512 16.3281 17.5074 16.3046 17.6324 16.2187C17.7809 16.1484 18.3668 16.0234 18.9527 15.9374L19.2652 16.9296L16.8668 17.8749L13.5934 14.5234C13.4137 14.3359 13.1168 14.3359 12.9293 14.5156C12.7418 14.6952 12.7418 14.9921 12.9215 15.1796L14.8902 17.2031L14.4918 18.8437C13.4918 18.5859 12.0855 18.3202 11.4215 18.2109C11.4684 17.9765 11.4762 17.7577 11.4918 17.5312C11.9137 12.9374 12.4684 12.4452 13.2027 11.0546C13.6871 11.3593 14.2418 11.5234 14.7809 11.4999C15.0387 12.3671 15.4684 13.789 15.5934 14.0156C16.3512 15.5546 16.8902 16.289 17.1949 16.289ZM16.3512 9.70306C16.2418 9.96087 15.9215 10.1874 15.3356 10.4218C14.6949 10.6796 14.1481 10.4999 13.8043 10.3046C13.2184 9.9765 12.7574 9.33587 12.6559 8.68744C12.4527 7.414 12.9762 6.98431 14.0777 6.59369C14.7027 6.37494 15.3824 6.39056 16.0387 8.03119C16.3902 8.914 16.484 9.39837 16.3512 9.70306ZM31.9918 26.8281C31.9527 26.9062 31.9293 26.9921 31.9371 27.0781C31.9606 27.4921 31.984 27.8827 32.0074 28.2656C32.0231 28.6015 32.0387 28.9452 32.0543 29.2577H30.6168C30.5387 28.1562 30.3512 26.2812 30.2652 25.5156C31.3434 25.4062 32.2496 25.2187 33.0074 24.9609L31.9918 26.8281ZM32.234 18.7812C33.0543 20.1874 33.5231 21.8202 33.6246 23.664C32.8668 24.1015 31.8043 24.3984 30.4059 24.5624L31.4606 21.1796C31.5387 20.9296 31.3981 20.6718 31.1559 20.5937C30.9059 20.5156 30.6481 20.6562 30.5699 20.8984L29.6246 23.9374C28.9137 22.5859 28.5152 21.2109 28.4137 19.7734C29.9137 19.6406 31.1793 19.3124 32.234 18.7812ZM18.609 11.2812C18.4527 11.3749 18.148 11.5702 17.9996 11.5937C17.8824 11.414 17.7887 10.9374 17.8824 10.4374C17.9215 10.2187 18.0387 9.83587 18.3277 9.67962C18.8981 9.36712 19.3668 9.53119 20.1793 9.95306L20.0465 11.1484C19.8512 11.1015 19.6871 11.0624 19.6168 11.0234C19.2887 10.8593 18.9684 11.0546 18.609 11.2812ZM25.6168 12.9218L20.9605 11.3749L21.0777 10.2656L30.484 12.539C30.8981 12.6406 31.1715 13.039 31.1246 13.4609L30.7965 16.3671C30.7965 16.4374 30.7418 16.5156 30.7106 16.539C30.6871 16.5624 30.6246 16.5937 30.5465 16.5859C30.5152 16.5859 30.484 16.5702 30.4527 16.5546L29.1324 15.6952C29.5387 15.1406 29.7027 14.5937 30.1246 13.9687C30.2809 13.7343 30.2887 13.4452 30.1481 13.1874C29.6246 12.2577 27.0699 11.7031 26.5699 12.7421C25.8746 14.039 26.3746 15.1952 27.0152 15.7812C27.4371 16.1562 27.859 16.3359 28.3121 16.2656L29.9449 17.3281C30.3356 17.5937 30.8902 17.5781 31.2652 17.289L31.7262 17.9765C30.7496 18.4531 29.5621 18.7343 28.1246 18.8437C26.8356 17.1874 26.0934 15.3281 25.9371 13.3281C25.9215 13.1484 25.7965 12.9843 25.6168 12.9218ZM28.1481 15.3593C28.0543 15.3671 27.7496 15.2577 27.484 14.9062C27.2652 14.6171 26.9684 14.0156 27.4059 13.1952C27.4371 13.1718 27.609 13.0859 28.0309 13.1327C28.5934 13.1952 29.1012 13.4218 29.2809 13.5702C29.0621 13.9218 28.9059 14.2265 28.7731 14.4843C28.5309 14.9531 28.4059 15.1874 28.1481 15.3593ZM32.0543 33.039C31.7809 33.1093 31.2106 33.2265 30.5856 33.289C29.6012 33.3906 29.1559 33.3046 29.0231 33.2421C29.2184 32.7734 30.2809 32.3906 30.5621 31.9921C30.6637 31.8515 30.7652 31.7187 30.6793 30.1874H32.0856C32.1246 31.6406 32.109 32.6562 32.0543 33.039ZM32.8746 27.1562L33.5699 25.8671C33.6168 25.9452 33.9918 26.8437 34.0543 26.8749C34.1715 27.0077 34.4215 27.289 34.734 27.6327L33.8356 28.6952C33.4684 28.3906 33.1324 28.1562 32.9293 28.0156C32.9059 27.6327 32.8902 27.3202 32.8746 27.1562ZM36.2731 32.7499C36.1246 32.5156 35.9527 32.0859 35.8902 31.4921C35.8121 30.7499 35.2027 29.9687 34.5387 29.3202L35.3668 28.3437C35.9293 28.9609 36.4996 29.5781 36.7574 29.8046C36.8512 30.2343 36.5387 31.8984 36.2731 32.7499Z" fill="#4AB04A"/>
</svg>
