<svg width="40" height="40" viewBox="0 0 40 40" fill="none" xmlns="http://www.w3.org/2000/svg">
<path fill-rule="evenodd" clip-rule="evenodd" d="M33.464 8.66787L34.6212 8.97843L33.0144 14.9889L31.853 14.6779L33.464 8.66787ZM34.0717 15.2719L35.2289 15.5828L36.8399 9.57235L35.6785 9.26139L34.0717 15.2719ZM29.1015 12.9179C29.0765 12.9775 29.0599 13.042 29.0599 13.1073L28.8851 16.8242C28.7976 17.906 28.5396 18.3365 28.3356 18.5079C28.2524 18.5779 28.1067 18.6683 27.8153 18.6415C25.7007 18.4584 24.5185 17.6829 24.2021 16.2722C24.1396 15.992 23.8691 15.808 23.586 15.8509C23.303 15.8942 23.099 16.1494 23.124 16.4362C23.1781 17.1284 22.9991 17.3545 22.6994 17.7303C22.3456 18.1733 21.9168 18.7144 21.8668 19.9457C20.6472 20.4673 19.3027 20.4885 18.0955 20.0069C18.0497 18.7298 17.6043 18.1774 17.2421 17.7275C16.9382 17.3524 16.7551 17.1255 16.8092 16.4362C16.83 16.1494 16.6302 15.8942 16.3471 15.8509C16.0599 15.8088 15.7934 15.992 15.731 16.2722C15.4105 17.6829 14.2283 18.4584 12.1136 18.6424C11.8223 18.6683 11.6808 18.5779 11.5975 18.5079C11.3935 18.3364 11.1312 17.906 11.048 16.8242L10.8732 13.1073C10.8691 13.0419 10.8566 12.9775 10.8316 12.9179C10.4362 11.998 10.3321 11.2991 10.5361 10.8987C10.6485 10.6739 10.8732 10.5178 11.2271 10.4224C11.685 10.4441 12.0763 10.7717 12.1762 11.2204C12.2803 11.682 12.2595 12.286 11.864 12.4663C11.5795 12.5954 11.4585 12.935 11.6059 13.216C12.3302 14.6155 12.1678 15.4814 11.9805 16.0108C11.8848 16.2843 12.018 16.5857 12.2844 16.6981C12.5508 16.8097 12.8588 16.6939 12.9879 16.4334C13.7496 14.8687 14.5031 14.0332 15.115 14.0786C15.3772 14.0982 15.6187 13.9275 15.6853 13.6731C15.8227 13.1479 16.572 12.6953 17.7042 12.4393C18.9196 13.7289 20.9642 13.7403 22.1999 12.4701C23.3446 12.7369 24.1188 13.1877 24.2479 13.6731C24.3145 13.9274 24.5517 14.0981 24.8181 14.0785C25.4259 14.0339 26.1835 14.8686 26.9452 16.4333C27.0701 16.6939 27.3781 16.8096 27.6488 16.698C27.9152 16.5856 28.0484 16.2843 27.9526 16.0107C27.6612 15.1911 27.7944 14.2675 28.3564 13.1876C28.4978 12.9108 28.3772 12.5666 28.0941 12.4375C27.6862 12.2511 27.657 11.6654 27.7569 11.2203C27.8568 10.7716 28.2481 10.444 28.7018 10.4223C29.0556 10.5177 29.2846 10.6738 29.397 10.8986C29.5968 11.2991 29.4969 11.9979 29.1015 12.9179ZM25.5216 27.9709C25.1428 27.9826 24.764 27.9667 24.3852 27.9251C25.0179 26.6476 25.0304 26.3034 24.9804 25.6265C24.9555 25.3289 24.9263 24.9617 24.9846 24.2978C25.38 23.1447 25.9129 22.3284 26.5581 21.8693C27.2173 21.4023 27.5473 21.3396 27.6071 21.3739C27.632 21.3951 27.7902 21.5608 27.8527 22.3567C27.9942 24.1675 27.2075 26.0552 25.5216 27.9709ZM28.0525 30.9393C28.1108 31.065 28.1358 31.2739 28.1274 31.5937L23.8024 30.5251C23.6261 30.4805 23.524 30.3067 23.5776 30.1222L23.9356 28.9703C24.4726 29.0499 25.018 29.0819 25.5632 29.0652L25.9337 29.4049C26.4315 29.8395 26.7527 30.052 27.2991 30.3906C27.5882 30.5699 27.9587 30.7423 28.0525 30.9393ZM20.2017 24.3207C21.4464 24.9139 22.6619 24.8502 23.9024 24.1242C23.9065 24.0851 23.9148 24.0471 23.9273 24.0097C24.3768 22.671 25.0096 21.684 25.8005 21.0713C24.8514 20.9606 23.7484 20.889 22.5037 20.859C21.6712 21.2523 20.7846 21.4484 19.8979 21.4484C19.0528 21.4484 18.212 21.2707 17.4252 20.9131C17.4128 20.9131 17.4003 20.9131 17.3878 20.9131C16.1806 20.9131 15.0942 20.9672 14.1368 21.0742C14.9276 21.6869 15.5562 22.6735 16.0058 24.0097C16.0183 24.0471 16.0266 24.0851 16.0308 24.1242C17.2712 24.8502 18.4867 24.9139 19.7313 24.3207C19.8812 24.2491 20.0519 24.2491 20.2017 24.3207ZM16.3263 30.3723C16.2805 30.4564 16.2222 30.5014 16.1264 30.5251L11.8056 31.5936C11.7861 30.8483 11.8812 30.8207 12.5632 30.4335C13.1416 30.105 13.7241 29.6614 14.2116 29.2109C14.2656 29.1635 14.3156 29.1156 14.3697 29.0652C14.9108 29.0819 15.4562 29.0498 15.9973 28.9703L16.3553 30.1222C16.3846 30.2142 16.3763 30.2887 16.3263 30.3723ZM12.0804 22.3567C12.1428 21.5608 12.3011 21.3952 12.326 21.3739C12.4018 21.335 12.7447 21.4265 13.3708 21.8701C14.0202 22.3284 14.5488 23.1447 14.9484 24.2978C15.0026 24.9617 14.9734 25.3288 14.9526 25.6265C14.8985 26.3034 14.9152 26.6476 15.5479 27.9251C15.1691 27.9672 14.7903 27.9826 14.4115 27.9709C12.7214 26.0552 11.9389 24.1675 12.0804 22.3567ZM17.0756 11.4706C16.9066 11.0608 16.8466 10.7121 16.8466 10.253C15.6352 10.3433 14.4156 10.4936 13.1626 10.7067C13.1959 10.7959 13.2251 10.8879 13.2459 10.9823C13.4416 11.8719 13.2625 12.662 12.7796 13.1403C12.9295 13.4787 13.0419 13.8083 13.1168 14.131C13.6538 13.4687 14.2033 13.0958 14.7777 13.0042C15.1358 12.321 15.9267 11.7927 17.0756 11.4706ZM19.9644 8.26579C18.8488 8.26579 17.9372 9.17571 17.9372 10.2934C17.9372 11.4107 18.8488 12.3202 19.9644 12.3202C21.0842 12.3202 21.9916 11.4107 21.9916 10.2934C21.9916 9.17571 21.0842 8.26579 19.9644 8.26579ZM27.1742 13.1165C26.683 12.6382 26.4916 11.8573 26.6872 10.9823C26.6996 10.9178 26.7204 10.8532 26.7413 10.7903C25.4717 10.5731 24.2645 10.414 23.0865 10.3075C23.0865 10.7329 22.9991 11.1379 22.8409 11.5063C23.994 11.836 24.7932 12.351 25.147 13.0032C25.7256 13.0943 26.2834 13.4715 26.8245 14.1425C26.9036 13.8099 27.0201 13.4678 27.1742 13.1165ZM6.98948 14.9888L5.37852 8.97835L6.53572 8.66779L8.14668 14.6778L6.98948 14.9888ZM4.32124 9.26147L3.16404 9.57243L4.775 15.5829L5.9322 15.2719L4.32124 9.26147ZM37.6516 8.65707L33.2184 7.46947C32.931 7.39131 32.6273 7.56051 32.5482 7.85579L31.774 10.7426C31.2952 10.6235 30.829 10.5128 30.3753 10.4083V10.4079C30.1048 9.87139 29.6052 9.51339 28.8934 9.34187L28.7519 9.32731C28.2565 9.32731 27.7903 9.50299 27.424 9.80059C25.8338 9.51339 24.3436 9.31355 22.8867 9.19323C22.4412 8.01355 21.3007 7.17139 19.9645 7.17139C18.6492 7.17139 17.5252 7.98851 17.0632 9.14115C15.5396 9.24355 14.0078 9.43587 12.4135 9.72763C12.0468 9.46619 11.6288 9.32715 11.1605 9.32715C11.1189 9.32715 11.0772 9.33211 11.0356 9.34171C10.3613 9.50443 9.87844 9.83579 9.59956 10.3266C9.1458 10.4365 8.67964 10.5547 8.20924 10.6816L7.45164 7.85563C7.37348 7.56403 7.075 7.39067 6.78148 7.46931L2.29828 8.67355L2.20668 8.71851C2.20668 8.71939 2.20252 8.72019 2.20252 8.72099C2.19004 8.72971 2.17756 8.73931 2.16092 8.74931V8.75051C2.14844 8.76091 2.13596 8.77131 2.12348 8.78131C2.12348 8.78299 2.11932 8.78419 2.11932 8.78587C2.04748 8.84331 1.95284 9.01155 1.95284 9.11267C1.93164 9.13171 1.95556 9.28763 1.96532 9.32619L3.85932 16.3943C3.94516 16.6926 4.23708 16.8568 4.52948 16.7811L8.95852 15.5935C9.25332 15.5149 9.42412 15.2166 9.34564 14.9237L8.49228 11.7388C8.77948 11.6614 9.06252 11.5886 9.34148 11.517C9.36644 12.019 9.51212 12.5951 9.78268 13.2553L9.9534 16.9014C10.0492 18.0948 10.3572 18.8936 10.89 19.3453C11.2521 19.6492 11.7016 19.7795 12.2095 19.732C14.0285 19.5735 15.3273 19.0015 16.0974 18.0262C16.4752 18.6099 16.8977 18.8049 16.9882 19.8211C15.0734 19.8399 13.4541 19.9972 12.1596 20.2895C11.2479 20.4638 11.0564 21.4123 10.9899 22.2713C10.8276 24.3151 11.6392 26.4003 13.3959 28.4736C13.0059 28.8643 12.3784 29.2632 11.9015 29.553C10.9108 30.1345 10.5777 30.5012 10.7609 32.3345C10.7952 32.6688 11.1178 32.8924 11.4352 32.8119L16.3888 31.5869C17.1832 31.3909 17.6393 30.5735 17.4004 29.7982L16.8634 28.094C16.8592 28.0927 16.8592 28.0919 16.8592 28.0907C15.9892 26.4285 16.0017 26.2616 16.0434 25.71C16.0517 25.611 16.06 25.5003 16.0642 25.3724C17.3546 25.9511 18.6617 25.966 19.9646 25.414C21.2678 25.9643 22.5758 25.9525 23.865 25.3724C23.8733 25.5002 23.8816 25.6109 23.89 25.71C23.9316 26.2615 23.944 26.4285 23.0741 28.0898C22.9966 28.2521 22.6194 29.5206 22.5329 29.7973C22.2903 30.5679 22.7424 31.3899 23.5403 31.5868L28.4938 32.8119C28.8191 32.8905 29.1384 32.6683 29.1723 32.3344C29.4578 29.5155 28.3925 30.1547 26.5748 28.5106C26.5623 28.4989 26.5498 28.486 26.5332 28.4735C28.294 26.4001 29.1015 24.3151 28.9433 22.2712C28.8819 21.4975 28.7165 20.6059 27.9526 20.3343L27.7694 20.2886C26.5497 20.0134 24.9347 19.8419 22.9699 19.7779C23.0588 18.8228 23.4564 18.614 23.8399 18.0299C24.6058 19.004 25.9046 19.5735 27.7195 19.7312C28.2315 19.7799 28.6769 19.6492 29.0391 19.3453C29.576 18.8937 29.8841 18.0948 29.9756 16.9014C29.9798 16.8955 29.9798 16.8897 29.9798 16.8839L30.1463 13.2554C30.4085 12.6223 30.5542 12.0669 30.5834 11.5803C30.8831 11.6507 31.1828 11.7235 31.4908 11.7993L30.6542 14.9238C30.5751 15.2156 30.75 15.5153 31.0413 15.5935L35.4745 16.7811C35.768 16.8618 36.0115 16.6513 36.0115 16.6279C36.0677 16.5786 36.124 16.4666 36.1447 16.3944L38.0387 9.32627C38.1095 9.04163 37.9532 8.73747 37.6516 8.65707Z" fill="#4AB04A"/>
</svg>
