<svg width="40" height="40" viewBox="0 0 40 40" fill="none" xmlns="http://www.w3.org/2000/svg">
<path d="M36.8976 22.6702L35.6274 22.3135C35.8057 20.0594 35.2544 18.3297 34.1895 17.7243C33.8274 15.3081 32.8111 13.7513 31.3625 13.4324L28.1841 12.7243C25.4328 12.1459 23.0976 15.9783 22.2057 18.6432L16.7409 17.1459C17.2436 12.7783 16.103 9.43238 13.8868 8.93508L10.7084 8.22697C8.58951 7.7513 6.23276 10.1297 4.82735 13.8756L4.07059 13.6702C2.34627 13.1945 1.31384 16.8054 3.10303 17.5243L3.83276 17.7297C3.13546 22.3081 4.25978 26.0972 6.60573 26.6162L9.76789 27.3243C12.3192 27.7351 14.4436 25.0756 15.8814 21.0378L21.2652 22.5135C20.8328 25.5135 21.103 30.3189 24.0814 31.1135C27.5246 31.8486 29.0382 32.9189 31.6544 29.1243C32.7409 29.027 33.8544 27.9405 34.649 26.1675C34.649 26.1675 36.1463 26.5675 36.2328 26.5675C37.8057 26.5675 38.5625 23.3513 36.8976 22.6702ZM4.02735 16.6648L3.53546 16.5297C2.89221 16.1945 3.4814 14.7459 3.75708 14.7027L4.4814 14.9026C4.30843 15.4648 4.14086 16.0648 4.02735 16.6648ZM6.83816 25.5621C2.38411 24.054 5.58951 9.42157 10.1625 9.2486C10.3949 9.21616 11.249 9.48103 11.4814 9.50806C7.29762 12.6972 5.48681 21.3081 7.84357 25.7891L6.83816 25.5621ZM10.0165 26.2756V26.2702C5.50303 24.4486 8.7733 9.72427 13.649 9.99454C14.9571 10.2864 15.7733 12.4378 15.7733 15.2486C15.7733 15.7675 15.7463 16.3027 15.6868 16.8594L13.6814 16.3135C11.9679 15.8702 10.9463 19.454 12.7301 20.1729L14.8382 20.7513C13.6652 24.2324 11.6003 26.627 10.0165 26.2756ZM21.4436 21.4432L13.1625 19.1783C12.5246 18.827 13.0868 17.4432 13.3787 17.3513L21.8706 19.6702C21.703 20.254 21.5571 20.8432 21.4436 21.4432ZM24.3138 30.0594C19.6436 28.3999 23.3138 11.627 28.9517 13.9999C24.8652 17.1135 22.9192 25.6702 25.3192 30.281L24.3138 30.0594ZM27.4976 30.7675C25.9084 30.0216 25.3355 28.0378 25.3355 25.7729C25.3355 22.7081 26.3895 19.1297 27.4057 17.4702C29.076 14.2918 32.1301 12.8054 33.0328 17.3837L31.7625 17.0972C30.0598 16.7189 28.2165 18.9189 27.4814 22.2216C27.0003 24.4648 26.9138 27.9621 29.1787 28.6702L30.4598 28.9567C29.4598 30.2972 28.3841 30.9675 27.4976 30.7675ZM29.5787 27.654C28.9895 27.5783 28.6598 27.054 28.4274 26.0972C27.6868 23.8972 29.5355 17.5783 31.6868 18.1891C31.0382 18.7621 30.4328 19.6918 29.9841 20.8108C29.1679 22.8972 28.7571 25.5567 29.5787 27.654ZM31.3463 28.0486C30.5463 27.6594 30.2057 26.5189 30.2057 25.1567C30.2057 22.3513 31.6382 18.6108 33.4544 18.5837C34.0652 18.7189 34.5787 19.8162 34.5787 21.5243C34.5787 21.681 34.5733 21.8486 34.5625 22.0162L34.3355 21.9513C33.6436 19.3027 31.5192 21.1405 31.0706 23.1459C30.6868 24.8594 31.5084 27.5837 33.3517 25.8054L33.6003 25.8756C32.849 27.4486 31.9084 28.1783 31.3463 28.0486ZM34.6057 25.0324L32.3949 24.4324C32.3679 23.8864 32.5301 23.1135 32.7625 22.6432L34.903 23.2378L35.1138 23.2972C34.7246 23.7783 34.5192 24.4216 34.6057 25.0324ZM36.7517 24.4432C36.6976 25.027 36.3679 25.4648 36.249 25.4918C35.1463 25.1999 35.7895 23.6648 36.4814 23.681C36.7409 23.8432 36.7733 24.1783 36.7517 24.4432Z" fill="#4AB04A"/>
</svg>
