<svg width="40" height="40" viewBox="0 0 40 40" fill="none" xmlns="http://www.w3.org/2000/svg">
<path d="M15.156 23.2653L17.3801 21.0699C17.6261 20.8273 17.6286 20.4315 17.3862 20.1858C17.1427 19.9398 16.7472 19.9383 16.5025 20.18L14.2783 22.3754C13.6991 22.9517 14.5717 23.837 15.156 23.2653Z" fill="#4AB04A"/>
<path d="M14.375 26.2894C14.3616 25.469 13.1388 25.467 13.125 26.2894V30.0195C13.125 30.3647 13.4045 30.6445 13.75 30.6445C14.0955 30.6445 14.375 30.3647 14.375 30.0195V26.2894Z" fill="#4AB04A"/>
<path d="M13.75 33.125C13.4045 33.125 13.125 33.4048 13.125 33.75V36.875C13.125 37.2202 13.4045 37.5 13.75 37.5C14.0955 37.5 14.375 37.2202 14.375 36.875V33.75C14.375 33.4048 14.0955 33.125 13.75 33.125Z" fill="#4AB04A"/>
<path d="M10.625 37.4999C10.9704 37.4999 11.25 37.2201 11.25 36.8749V25.0811C11.25 23.587 11.8597 22.1279 12.923 21.0781L17.085 16.9689C17.8579 16.241 17.8034 14.9165 17.0019 14.2281C13.0129 10.6956 15.4019 4.00463 20.7185 3.75637C24.0437 3.53418 27.0871 6.41476 27.0104 9.75463C26.8848 9.89308 28.4369 12.1594 28.5803 12.445C28.5803 12.445 27.6355 12.445 27.6355 12.445C27.29 12.445 27.0105 12.7248 27.0105 13.07V15.9707C27.0105 16.3116 26.7334 16.589 26.3922 16.589H24.3201C24.1412 16.589 23.9709 16.6656 23.8525 16.7992L22.085 18.7908C21.4966 19.4543 21.4551 20.4507 21.9873 21.1605L23.54 23.2308C24.4464 24.4393 24.8315 25.9884 24.5966 27.4807L23.1323 36.7776C23.0786 37.1188 23.3118 37.4386 23.653 37.4923C23.9865 37.5459 24.3154 37.3155 24.3677 36.9723L25.8319 27.6751C26.1188 25.8511 25.6476 23.9577 24.5398 22.4807L22.9871 20.4107C22.8101 20.1739 22.8235 19.8415 23.02 19.6203L24.6008 17.839H26.3922C27.4225 17.839 28.2605 17.001 28.2605 15.9707V13.695H28.96C29.7495 13.7207 30.2825 12.762 29.8413 12.1044C29.8413 12.1044 28.2581 9.57175 28.2581 9.57175C28.2461 5.61488 24.6141 2.23847 20.661 2.50761C14.2389 2.81161 11.3455 10.8855 16.1689 15.1602C16.4407 15.3916 16.4671 15.8319 16.2073 16.0793C16.2073 16.0793 12.0453 20.1888 12.0453 20.1888C10.7452 21.4718 10 23.2549 10 25.0811V36.8749C10 37.2201 10.2795 37.4999 10.625 37.4999Z" fill="#4AB04A"/>
</svg>
