<svg width="40" height="40" viewBox="0 0 40 40" fill="none" xmlns="http://www.w3.org/2000/svg">
<path d="M37.8526 38.8446H37.8552C38.1924 38.8446 38.4996 38.6463 38.6383 38.3388C38.7774 38.0305 38.7222 37.6679 38.4977 37.415L36.1926 34.8189C35.5857 34.1057 34.5718 33.8856 33.7236 34.2838C33.424 34.4244 33.1591 34.6374 32.9576 34.8998L32.7743 35.1384L31.6243 35.3438L27.7811 34.2609C26.4118 33.875 24.9604 33.8608 23.5836 34.2202L23.2695 34.3021L19.714 30.5634C19.5813 29.3781 19.0452 28.2755 18.1895 27.4374L17.6371 26.8963C17.2613 24.9491 17.7935 22.9012 19.0781 21.3841L19.4326 20.9655C19.9896 20.3562 20.342 19.5753 20.4253 18.7481L21.0183 18.8373L20.9672 19.0338C20.8062 19.6529 20.7858 20.312 20.9084 20.94C21.1982 22.4248 22.2638 23.6617 23.6894 24.1682L24.0087 24.2815C24.077 24.3057 24.1476 24.3175 24.2178 24.3175C24.3736 24.3175 24.5268 24.2592 24.6445 24.1493C24.8151 23.9899 24.8826 23.7488 24.8197 23.524L24.4547 22.2205C24.2505 21.4912 24.3784 20.7143 24.8054 20.0889C25.3678 19.2654 25.4146 18.2133 24.9275 17.3431L24.7898 17.0971C24.9059 16.7919 24.9679 16.4651 24.9679 16.1309C24.9679 15.1018 24.3709 14.1441 23.447 13.691L23.0493 13.4959L22.3644 13.0913L21.5492 12.2389L22.1933 11.4281C22.541 10.9903 22.795 10.4727 22.9289 9.92979L24.2067 5.95343L25.4522 5.05156C25.5702 4.96619 25.6545 4.84236 25.6909 4.70137L26.2868 2.39035C26.3294 2.22486 26.3025 2.04916 26.2122 1.90413C26.1219 1.75902 25.9761 1.65724 25.8089 1.62245L23.1677 1.07306C22.8851 1.01363 22.5989 1.1566 22.4755 1.41768L21.1937 4.12779L17.8213 10.1098C17.5619 10.5698 17.3814 11.0665 17.2849 11.5858L16.5192 15.7053L13.7469 16.5241C12.4704 16.9011 11.6276 18.1371 11.743 19.4631L11.8313 20.4796L11.7511 20.8712C11.3748 22.7086 11.3693 24.6329 11.729 26.4761L7.21949 24.9913C6.58221 24.7816 5.88683 24.8001 5.26229 25.0432L5.22827 25.0564C3.84337 25.5955 3.0653 27.0394 3.37821 28.4894C3.84795 30.666 4.56649 34.0147 4.8257 35.2234L3.37188 36.0222C2.76934 36.3533 2.49766 37.0642 2.72566 37.7122L2.73097 37.7273C2.93101 38.2957 3.4677 38.6767 4.0676 38.6767H4.07302C4.68355 38.6745 5.67397 38.6738 6.43168 38.6737C7.3057 38.6735 8.1143 38.2374 8.59515 37.5065L8.60678 37.4888C8.94457 36.9753 9.09415 36.3577 9.02796 35.7499C8.90974 34.6646 8.68437 32.5909 8.53705 31.2352C9.62316 31.9074 10.7508 32.5222 11.901 33.0688L12.5126 33.3594L20.3187 38.0335C21.0804 38.4896 21.9522 38.7351 22.8398 38.7436L37.8526 38.8446ZM33.2324 36.3264C33.3857 36.299 33.5233 36.2153 33.6182 36.0919L33.9489 35.6613C34.0294 35.5566 34.1351 35.4715 34.2548 35.4153C34.5944 35.256 35.0008 35.3448 35.2429 35.6317C35.2463 35.6357 35.2497 35.6396 35.2531 35.6435L36.9832 37.592L32.1401 37.5775L32.1926 36.5121L33.2324 36.3264ZM12.9008 21.5235L16.503 23.7562C16.2723 24.6859 16.2094 25.6572 16.3281 26.6177L13.0701 26.7677C12.6604 25.0596 12.6034 23.2562 12.9008 21.5235ZM23.7732 19.384C23.1472 20.3007 22.953 21.436 23.2372 22.5071C22.675 22.0607 22.276 21.4218 22.1352 20.7004C22.0483 20.2551 22.0627 19.7877 22.1769 19.3485L22.2766 18.9653C22.8673 18.9291 23.4349 18.7011 23.8905 18.3057L23.9583 18.2468C24.0681 18.6298 24.0052 19.0442 23.7732 19.384ZM22.4878 16.1818L23.0549 14.9046C23.4624 15.1732 23.7179 15.6365 23.7179 16.1309C23.7179 16.5564 23.5336 16.9604 23.2122 17.2393L23.0712 17.3617C22.7464 17.6436 22.3164 17.7685 21.891 17.7045L20.5281 17.4995L20.5818 16.8335L22.0395 16.541C22.2384 16.5011 22.4055 16.3672 22.4878 16.1818ZM21.9551 14.3013L21.4766 15.379L20.6864 15.5376L20.8645 13.3315L21.5207 14.0176C21.5602 14.0588 21.6051 14.0945 21.6544 14.1236L21.9551 14.3013ZM18.5138 11.8143C18.5852 11.4306 18.7185 11.0636 18.9102 10.7236L22.2935 4.7222C22.3009 4.70923 22.3077 4.69596 22.3141 4.68253L23.395 2.39707L24.9128 2.71277L24.5367 4.17121L23.3078 5.0611C23.2001 5.13907 23.1201 5.24947 23.0794 5.37611C23.0794 5.37611 21.7228 9.59906 21.7191 9.6144C21.6291 9.98991 21.4546 10.3483 21.2144 10.6506L19.7881 12.4465C19.711 12.5436 19.6645 12.6613 19.6545 12.7849L19.1874 18.5726C19.1424 19.1304 18.9148 19.6595 18.55 20.0771C18.539 20.0882 18.3266 20.308 18.2323 20.3843C17.7978 20.7366 17.1803 20.7853 16.6959 20.5059C16.2754 20.2633 16.0145 19.811 16.0149 19.3255L16.0151 19.0272C16.0152 18.7262 16.1172 18.4295 16.3022 18.1919C16.3022 18.1919 17.562 16.5722 17.5648 16.5684C17.5744 16.5556 18.5138 11.8143 18.5138 11.8143ZM14.101 17.7228L15.4455 17.1928C15.0907 17.6486 14.7654 18.449 14.7651 19.0263L14.7649 19.3245C14.7641 20.2557 15.2647 21.1233 16.0712 21.5887C16.4236 21.7919 16.8125 21.9046 17.2051 21.9295C17.0985 22.1286 17.0011 22.3322 16.9123 22.5392L13.0574 20.1498L12.9882 19.3548C12.9242 18.6185 13.3922 17.9322 14.101 17.7228ZM7.55047 36.8201C7.30191 37.1979 6.88355 37.4236 6.43143 37.4237C5.67238 37.4238 4.68014 37.4245 4.06838 37.4267H4.06773C3.99639 37.4267 3.93455 37.3819 3.9103 37.3129L3.90499 37.2978C3.8807 37.2288 3.90965 37.1531 3.97381 37.1178L5.70656 36.1658L7.79127 36.082C7.78231 36.336 7.70434 36.5862 7.56211 36.8023L7.55047 36.8201ZM20.9609 36.9611C20.9609 36.9611 13.0943 32.2519 13.0763 32.2433L12.4376 31.9398C11.0247 31.2683 9.64691 30.4901 8.34255 29.6266L8.11912 29.4787C8.01471 29.4097 7.89451 29.375 7.77416 29.375C7.66166 29.375 7.54902 29.4053 7.44899 29.4662C7.24209 29.5923 7.12669 29.8266 7.15286 30.0675C7.15286 30.0675 7.46055 32.9 7.6711 34.8358L6.03511 34.9016C5.7657 33.6455 5.06243 30.3681 4.60005 28.2258C4.41745 27.3794 4.87235 26.5363 5.68114 26.2215L5.7152 26.2083C6.0707 26.0698 6.46616 26.0593 6.8286 26.1786C6.8286 26.1786 12.4793 28.0316 12.4904 28.0333C12.498 28.0345 16.8207 27.8464 16.8207 27.8464L17.3149 28.3305C18.0063 29.0076 18.4228 29.9124 18.4875 30.8781C18.4972 31.0237 18.5576 31.1613 18.6582 31.267L22.6177 35.4307C22.7744 35.5955 23.0084 35.6622 23.2284 35.6047L23.8992 35.4297C25.0613 35.1266 26.2864 35.1383 27.442 35.464L30.9441 36.4509L30.8889 37.5699L22.8517 37.4936C22.186 37.4872 21.5321 37.3031 20.9609 36.9611Z" fill="#4AB04A"/>
</svg>
