<svg width="40" height="40" viewBox="0 0 40 40" fill="none" xmlns="http://www.w3.org/2000/svg">
<path d="M27.0809 22.4998C27.4124 22.4998 27.7303 22.3681 27.9647 22.1337C28.1992 21.8993 28.3309 21.5814 28.3309 21.2498C28.3309 20.9183 28.1992 20.6004 27.9647 20.366C27.7303 20.1315 27.4124 19.9998 27.0809 19.9998C26.7493 19.9998 26.4314 20.1315 26.197 20.366C25.9626 20.6004 25.8309 20.9183 25.8309 21.2498C25.8309 21.5814 25.9626 21.8993 26.197 22.1337C26.4314 22.3681 26.7493 22.4998 27.0809 22.4998ZM19.0309 10.1748C20.0834 9.86401 21.2784 9.92901 22.3475 10.6857H17.8809C18.2412 10.4676 18.6275 10.296 19.0309 10.1748Z" fill="#4AB04A"/>
<path fill-rule="evenodd" clip-rule="evenodd" d="M17.883 10.6844H22.3496C23.4555 11.4636 24.1171 12.7644 24.163 14.1061C24.2363 16.2044 23.113 17.9811 21.7921 19.4261C20.768 20.5453 19.5305 21.5611 18.4755 22.4278C18.1721 22.6761 17.8838 22.9119 17.6213 23.1353L17.0788 23.5936L16.5396 23.1303C16.2496 22.8811 15.928 22.6153 15.5896 22.3344C14.5613 21.4844 13.3696 20.4986 12.3813 19.4228C11.0605 17.9828 9.93462 16.2119 10.003 14.1078V14.1061C10.0488 12.7644 10.7105 11.4628 11.8171 10.6836H16.2805C16.5671 10.8564 16.8346 11.0508 17.083 11.2669C17.3326 11.0502 17.6002 10.855 17.883 10.6836M17.7246 12.9853C18.1838 12.4303 18.833 11.9703 19.5055 11.7711C20.1588 11.5778 20.8055 11.6328 21.3863 12.0444L21.3888 12.0461C22.043 12.5061 22.468 13.3103 22.4971 14.1628C22.5471 15.6069 21.7788 16.9703 20.5621 18.3003C19.6271 19.3228 18.5205 20.2319 17.478 21.0878L17.0863 21.4094C16.9191 21.2694 16.7493 21.1286 16.5771 20.9869C15.5696 20.1536 14.513 19.2786 13.6105 18.2953C12.393 16.9694 11.6213 15.6119 11.6688 14.1619C11.698 13.3094 12.1221 12.5061 12.7771 12.0453C13.358 11.6369 14.0071 11.5811 14.6605 11.7744C15.3338 11.9728 15.9821 12.4303 16.4405 12.9853L17.0821 13.7619L17.7246 12.9853Z" fill="#4AB04A"/>
<path d="M16.2806 10.6874H11.8164C12.8847 9.93489 14.0797 9.86906 15.1314 10.1791C15.5339 10.2982 15.9206 10.4724 16.2797 10.6874" fill="#4AB04A"/>
<path fill-rule="evenodd" clip-rule="evenodd" d="M34.9742 24.6467C35.2592 23.085 33.0958 21.1384 33.0958 21.1384C32.3633 19.6217 32.3825 18.3384 32.4042 16.8825C32.41 16.47 32.4167 16.0434 32.4058 15.5934C32.3526 13.6245 31.7109 11.7166 30.5633 10.1159C29.2785 8.56016 27.6222 7.35352 25.7475 6.60754C23.3316 5.54242 20.7195 4.99485 18.0792 5.00004C14.61 5.00004 11.2833 6.3117 8.83083 8.6467C6.37833 10.9817 5 14.1484 5 17.45C5 21.4225 7.345 24.4867 10.3892 26.7617V32.1359C11.2525 33.8925 14.5108 35.1384 16.4142 34.9875C19.2592 34.9875 20.4558 33.8667 20.9142 33.2025C21.1075 32.9225 21.17 32.7242 21.17 32.7242V31.5384C21.17 31.5384 21.8367 31.7567 22.8367 31.9542C25.845 32.5475 31.8708 32.9492 31.8708 26.6392C31.8708 26.6392 34.6892 26.2075 34.9742 24.6467ZM31.5942 21.8634L31.7367 22.1592L31.9783 22.3759L31.98 22.3775L31.9858 22.3834L32.0333 22.4275C32.0775 22.4709 32.145 22.5359 32.2258 22.6209C32.3917 22.7934 32.6033 23.0317 32.8025 23.3C33.0067 23.575 33.1642 23.8392 33.2558 24.0659C33.305 24.1867 33.3225 24.2659 33.3292 24.3109L33.2867 24.3509C33.1658 24.4534 32.9633 24.5725 32.6842 24.6867C32.3416 24.8243 31.9859 24.9265 31.6225 24.9917L31.6142 24.9934L30.2042 25.2084V26.64C30.2042 28.3592 29.6758 29.2092 29.1192 29.6834C28.4992 30.2109 27.5692 30.5042 26.4125 30.5792C25.2733 30.6542 24.0917 30.5042 23.1642 30.3209C22.6954 30.2286 22.231 30.1151 21.7725 29.9809L21.7017 29.9592L21.6892 29.955H21.6867L19.5033 29.2384V32.31C19.4272 32.4068 19.3405 32.4949 19.245 32.5725C18.9017 32.8575 18.1042 33.3225 16.4142 33.3225H16.3475L16.2825 33.3267C15.6875 33.3742 14.6792 33.1917 13.685 32.7534C12.8733 32.395 12.3342 31.9834 12.0558 31.6534V25.9284L11.3867 25.4284C8.55917 23.3134 6.66667 20.685 6.66667 17.45C6.66667 14.6167 7.84833 11.8834 9.98 9.85337C12.1142 7.8217 15.0267 6.6667 18.0792 6.6667H18.0808C20.4886 6.66161 22.8708 7.16065 25.0742 8.1317L25.1008 8.14337L25.1275 8.1542C26.7483 8.8042 28.1608 9.83004 29.2383 11.1292C30.1741 12.449 30.6967 14.0169 30.74 15.6342C30.7475 15.9659 30.7408 16.315 30.7342 16.6809C30.7058 18.1817 30.6733 19.9542 31.5942 21.8634Z" fill="#4AB04A"/>
</svg>
