<svg width="40" height="40" viewBox="0 0 40 40" fill="none" xmlns="http://www.w3.org/2000/svg">
<mask id="mask0_10984_264" style="mask-type:luminance" maskUnits="userSpaceOnUse" x="1" y="20" width="38" height="11">
<path d="M1.32129 20.6543H38.4753V30.4927H1.32129V20.6543Z" fill="white"/>
</mask>
<g mask="url(#mask0_10984_264)">
<path d="M37.8881 30.4873H33.5579C33.3234 30.4873 33.1335 30.2983 33.1335 30.0646V26.1318H6.50036V30.0646C6.50036 30.2983 6.30958 30.4873 6.07592 30.4873H1.74573C1.51207 30.4873 1.32129 30.2983 1.32129 30.0646V21.1356C1.32129 20.9019 1.51207 20.7129 1.74573 20.7129H37.8881C38.1217 20.7129 38.3117 20.9019 38.3117 21.1356V30.0646C38.3117 30.2983 38.1217 30.4873 37.8881 30.4873ZM33.9823 29.6419H37.4636V21.5583H2.17017V29.6419H5.65148V25.7091C5.65148 25.4754 5.84138 25.2864 6.07592 25.2864H33.5579C33.7924 25.2864 33.9823 25.4754 33.9823 25.7091V29.6419Z" fill="#4AB04A"/>
</g>
<path d="M33.5511 28.1552H30.5582C30.3875 28.1552 30.2335 28.0528 30.167 27.8953L29.3198 25.8789C29.2297 25.6636 29.3321 25.4151 29.5482 25.3259C29.7636 25.2357 30.0129 25.3372 30.1031 25.5525L30.8408 27.3098H33.5511C33.7857 27.3098 33.9756 27.4989 33.9756 27.7325C33.9756 27.9653 33.7857 28.1552 33.5511 28.1552Z" fill="#4AB04A"/>
<path d="M9.06197 28.1552H6.06897C5.83443 28.1552 5.64453 27.9653 5.64453 27.7325C5.64453 27.4989 5.83443 27.3098 6.06897 27.3098H8.77929L9.51699 25.5525C9.60715 25.3372 9.85568 25.2357 10.0719 25.3259C10.288 25.4151 10.3904 25.6636 10.2994 25.8789L9.45312 27.8953C9.38663 28.0528 9.2326 28.1552 9.06197 28.1552Z" fill="#4AB04A"/>
<path d="M23.7766 21.5722C23.543 21.5722 23.3531 21.3823 23.3531 21.1495V20.2761C23.3531 19.6582 22.8551 19.1559 22.2434 19.1559H10.864C10.2522 19.1559 9.75432 19.6582 9.75432 20.2761V21.1495C9.75432 21.3823 9.56435 21.5722 9.33071 21.5722C9.09615 21.5722 8.90625 21.3823 8.90625 21.1495V20.2761C8.90625 19.1918 9.78494 18.3105 10.864 18.3105H22.2434C23.3233 18.3105 24.2011 19.1918 24.2011 20.2761V21.1495C24.2011 21.3823 24.0112 21.5722 23.7766 21.5722Z" fill="#4AB04A"/>
<path d="M27.0255 21.5675C26.931 21.5675 26.8356 21.5359 26.7568 21.4712C26.5756 21.3233 26.5494 21.0572 26.6973 20.8761L34.1876 11.7755C34.3355 11.5953 34.6033 11.569 34.7844 11.7169C34.9656 11.8648 34.9918 12.1317 34.8431 12.312L27.3537 21.4126C27.2696 21.5141 27.148 21.5675 27.0255 21.5675Z" fill="#4AB04A"/>
<path d="M30.3847 21.5642C30.2902 21.5642 30.1948 21.5327 30.116 21.4679C29.9349 21.3201 29.9086 21.054 30.0574 20.8728L36.186 13.4263C36.3348 13.246 36.6017 13.2189 36.7828 13.3677C36.964 13.5156 36.9911 13.7816 36.8424 13.9627L30.7129 21.4093C30.6297 21.5108 30.5081 21.5642 30.3847 21.5642Z" fill="#4AB04A"/>
<mask id="mask1_10984_264" style="mask-type:luminance" maskUnits="userSpaceOnUse" x="33" y="9" width="6" height="6">
<path d="M33.9844 9.50195H38.6891V14.1594H33.9844V9.50195Z" fill="white"/>
</mask>
<g mask="url(#mask1_10984_264)">
<path d="M36.3489 14.1194C35.8194 14.1194 35.311 13.9356 34.8979 13.5917C33.9326 12.7874 33.797 11.3435 34.596 10.3721C34.9845 9.89947 35.5333 9.60806 36.1406 9.55115C36.748 9.49429 37.3396 9.6781 37.8078 10.0684C38.7739 10.8727 38.9095 12.3166 38.1097 13.288C37.7211 13.7606 37.1724 14.052 36.5651 14.1089C36.4924 14.1159 36.4207 14.1194 36.3489 14.1194ZM36.3559 10.3869C36.3104 10.3869 36.2657 10.3887 36.2202 10.393C35.8404 10.4289 35.4965 10.6119 35.2524 10.9085C34.7465 11.522 34.8323 12.4348 35.4423 12.9432C35.7354 13.1873 36.1065 13.3029 36.4854 13.267C36.8661 13.2311 37.2101 13.0482 37.4542 12.7515C37.9592 12.1381 37.8743 11.2253 37.2643 10.7169C37.0053 10.5016 36.6867 10.3869 36.3559 10.3869Z" fill="#4AB04A"/>
</g>
<path d="M36.0439 12.2367C35.8269 12.0556 35.7972 11.7318 35.9766 11.5139C36.156 11.296 36.478 11.2653 36.6951 11.4456C36.9112 11.6259 36.9418 11.9506 36.7624 12.1685C36.583 12.3864 36.261 12.417 36.0439 12.2367Z" fill="#4AB04A"/>
<path d="M37.8792 21.565C37.6446 21.565 37.4547 21.3751 37.4547 21.1423V18.649H32.7779C32.5434 18.649 32.3535 18.4591 32.3535 18.2254C32.3535 17.9926 32.5434 17.8027 32.7779 17.8027H37.8792C38.1128 17.8027 38.3027 17.9926 38.3027 18.2254V21.1423C38.3027 21.3751 38.1128 21.565 37.8792 21.565Z" fill="#4AB04A"/>
<path d="M6.06813 21.57C5.83359 21.57 5.64369 21.3801 5.64369 21.1473V16.1923C5.64369 15.7101 5.256 15.318 4.77905 15.318C4.3021 15.318 3.91441 15.7101 3.91441 16.1923V21.1473C3.91441 21.3801 3.72451 21.57 3.48997 21.57C3.25631 21.57 3.06641 21.3801 3.06641 21.1473V16.1923C3.06641 15.2437 3.83478 14.4727 4.77905 14.4727C5.72332 14.4727 6.49257 15.2437 6.49257 16.1923V21.1473C6.49257 21.3801 6.30179 21.57 6.06813 21.57Z" fill="#4AB04A"/>
</svg>
