<svg width="40" height="40" viewBox="0 0 40 40" fill="none" xmlns="http://www.w3.org/2000/svg">
<mask id="mask0_10984_189" style="mask-type:luminance" maskUnits="userSpaceOnUse" x="5" y="5" width="30" height="30">
<path d="M34.7455 5.89844H5.2373V34.0952H34.7455V5.89844Z" fill="white"/>
</mask>
<g mask="url(#mask0_10984_189)">
<path d="M23.4855 9.17387L23.6517 9.33911L23.8618 9.23537C24.8849 8.73039 26.0276 8.51813 27.1638 8.62193C28.3 8.72567 29.3853 9.14154 30.3 9.82357C31.2146 10.5055 31.923 11.427 32.3467 12.4864C32.7704 13.5457 32.8931 14.7015 32.7011 15.8261L32.6415 16.1751L32.994 16.2078C33.2463 16.2312 33.4912 16.3064 33.7131 16.4287C33.9352 16.5509 34.1296 16.7176 34.2843 16.9183C34.439 17.1191 34.5507 17.3496 34.6123 17.5954C34.6741 17.8412 34.6843 18.0971 34.6427 18.3471C33.6708 24.1939 31.2851 27.8014 27.5618 29.3141L27.3573 29.3972V29.6179V31.0775C27.3573 31.8547 27.0485 32.6001 26.499 33.1496C25.9495 33.6992 25.2041 34.0079 24.427 34.0079H15.7384C14.9613 34.0079 14.216 33.6992 13.6664 33.1496C13.1169 32.6001 12.8081 31.8547 12.8081 31.0775V29.6179V29.3972L12.6037 29.3141C8.88028 27.8014 6.49464 24.194 5.52269 18.3472C5.48252 18.104 5.49153 17.8551 5.5492 17.6154C5.60689 17.3756 5.7121 17.1497 5.85861 16.9513C6.00512 16.7529 6.18995 16.5858 6.40216 16.4601C6.61438 16.3343 6.84966 16.2524 7.09405 16.2192L7.37779 16.1807V15.8944V15.8922V15.8726C7.37779 14.0065 7.93045 12.1822 8.96612 10.6298C10.0017 9.07741 11.474 7.86659 13.1971 7.15C14.9201 6.43341 16.8168 6.24322 18.6479 6.60344C20.4789 6.96357 22.1622 7.858 23.4855 9.17387ZM8.89418 15.8726V16.2005H9.22205H11.3942H11.7221V15.8726C11.7221 14.5194 12.2596 13.2215 13.2165 12.2647C14.1734 11.3078 15.4712 10.7702 16.8245 10.7702C18.1778 10.7702 19.4756 11.3078 20.4325 12.2647C21.3894 13.2215 21.927 14.5194 21.927 15.8726V16.2005H22.2548H24.427H24.7548V15.8726C24.7548 13.7694 23.9193 11.7523 22.4321 10.2651C20.9449 8.7778 18.9278 7.94233 16.8245 7.94233C14.7213 7.94233 12.7041 8.7778 11.2169 10.2651C9.72972 11.7523 8.89418 13.7694 8.89418 15.8726ZM13.2384 15.8726V16.2005H13.5663H20.0827H20.4106V15.8726C20.4106 14.9215 20.0327 14.0094 19.3602 13.3369C18.6878 12.6644 17.7756 12.2866 16.8245 12.2866C15.8734 12.2866 14.9613 12.6644 14.2888 13.3369C13.6163 14.0094 13.2384 14.9215 13.2384 15.8726ZM28.1956 15.7099L27.915 16.2005H28.4802H30.8065H31.0611L31.1242 15.9538C31.3005 15.2635 31.3169 14.5421 31.1723 13.8445C31.0276 13.1469 30.7255 12.4916 30.2891 11.9284C29.8528 11.3652 29.2937 10.9091 28.6543 10.5947C28.015 10.2804 27.3123 10.1161 26.5999 10.1145H26.5991C26.039 10.1145 25.5059 10.2126 25.0101 10.3926L24.6297 10.5308L24.8438 10.8742C25.2152 11.4701 25.5219 12.1128 25.7574 12.7876L25.8558 13.0698L26.1459 12.9978C26.4973 12.9107 26.8665 12.9286 27.2078 13.0495C27.5491 13.1703 27.8474 13.3886 28.0657 13.6775C28.284 13.9663 28.4126 14.3129 28.4357 14.6741C28.4588 15.0354 28.3753 15.3956 28.1956 15.7099ZM25.8409 29.9915V29.6636H25.5131H14.6524H14.3245V29.9915V31.0775C14.3245 31.4526 14.4735 31.8122 14.7386 32.0773C15.0038 32.3425 15.3634 32.4915 15.7384 32.4915H24.427C24.802 32.4915 25.1616 32.3425 25.4268 32.0773C25.692 31.8122 25.8409 31.4526 25.8409 31.0775V29.9915ZM13.7874 28.1315L13.8363 28.1472H13.8878H26.2777H26.3291L26.378 28.1315C29.9916 26.9695 32.2175 23.6892 33.1478 18.0986L33.2114 17.7169H32.8244H7.341H6.95405L7.01759 18.0986C7.94789 23.6892 10.1739 26.9695 13.7874 28.1315Z" fill="#4AB04A"/>
</g>
</svg>
