<svg width="40" height="40" viewBox="0 0 40 40" fill="none" xmlns="http://www.w3.org/2000/svg">
<mask id="mask0_10984_218" style="mask-type:luminance" maskUnits="userSpaceOnUse" x="0" y="9" width="41" height="22">
<path d="M0 9.375H40.001V30.6209H0V9.375Z" fill="white"/>
</mask>
<g mask="url(#mask0_10984_218)">
<path fill-rule="evenodd" clip-rule="evenodd" d="M12.137 25.7703H37.0963C37.297 25.7703 37.4611 25.6062 37.4611 25.4045C37.4611 25.2029 37.297 25.0388 37.0963 25.0388H34.2939V21.5937C34.2939 21.392 34.1308 21.2279 33.9291 21.2279H9.86346C9.70714 21.2279 9.56723 21.3293 9.51797 21.4788L8.33484 25.0388H3.89578V24.2581H7.96433C8.16505 24.2581 8.32814 24.095 8.32814 23.8924C8.32814 23.6907 8.16505 23.5276 7.96433 23.5276H7.09772C8.18725 23.1088 8.9621 22.0501 8.9621 20.812C8.9621 19.2072 7.66324 17.9054 6.06421 17.9054C4.46515 17.9054 3.16623 19.2072 3.16623 20.812C3.16623 22.0501 3.94114 23.1088 5.03064 23.5276H3.531C3.32932 23.5276 3.16623 23.6907 3.16623 23.8924V25.0388H0.364779C0.163089 25.0388 0 25.2029 0 25.4045C0 25.6062 0.163089 25.7703 0.364779 25.7703H8.09168L7.27145 28.2368C7.04944 28.9046 7.35053 29.6342 7.97779 29.9488C8.20269 30.0617 8.45071 30.1852 8.68519 30.3029C9.03737 30.4805 9.44848 30.5008 9.81715 30.3599C10.1848 30.22 10.4782 29.9314 10.6239 29.5638L12.137 25.7703ZM8.94575 25.5136C8.94378 25.5184 8.94286 25.5223 8.94089 25.5271L7.96334 28.4684C7.85621 28.7908 8.00196 29.143 8.30397 29.2945L9.01137 29.6497C9.18122 29.7346 9.37906 29.7443 9.55758 29.6767C9.73512 29.6091 9.87699 29.4692 9.9474 29.2916C10.6673 27.4861 12.0589 23.9985 12.0589 23.9985C12.1332 23.8113 12.3455 23.7196 12.5327 23.7949C12.7199 23.8702 12.8106 24.0825 12.7353 24.2706L12.4295 25.0388H33.5643V21.9594C30.5689 21.9594 10.1269 21.9594 10.1269 21.9594L8.94575 25.5136ZM6.06421 18.6368C7.26081 18.6368 8.23257 19.6115 8.23257 20.812C8.23257 22.0125 7.26081 22.9862 6.06421 22.9862C4.86755 22.9862 3.89578 22.0125 3.89578 20.812C3.89578 19.6115 4.86755 18.6368 6.06421 18.6368ZM26.6867 20.2475L26.2524 18.2142C26.2437 18.1727 26.2283 18.1341 26.2061 18.0984C26.2061 18.0984 25.1194 16.3411 24.333 15.0682C24.0705 14.6446 23.6507 14.3415 23.1662 14.2276C22.6818 14.1138 22.1723 14.1978 21.7496 14.4612C20.8483 15.021 19.8051 15.6694 19.8051 15.6694C19.7684 15.6926 19.7366 15.7205 19.7105 15.7544C19.7105 15.7544 18.2505 17.613 17.2411 18.8984C16.9805 19.2313 16.9312 19.6848 17.1165 20.0661C17.2999 20.4472 17.6859 20.6895 18.1076 20.6895C18.2099 20.6895 18.3054 20.6895 18.3885 20.6895C18.7127 20.6895 19.0195 20.5467 19.229 20.2996L21.1899 17.9893L22.4888 20.4926C22.5824 20.6711 22.8024 20.7406 22.981 20.6479C23.1595 20.5543 23.229 20.3334 23.1364 20.1548L21.5865 17.17C21.5306 17.062 21.4253 16.9886 21.3048 16.9751C21.1841 16.9616 21.0644 17.0089 20.9863 17.1015C20.9863 17.1015 19.2907 19.0991 18.6741 19.8267C18.6027 19.9097 18.4985 19.958 18.3885 19.958H18.1076C17.9648 19.958 17.8345 19.8759 17.7718 19.7467C17.7091 19.6173 17.7255 19.4639 17.8143 19.3519L20.2442 16.2571L22.1337 15.0817C22.3923 14.9206 22.704 14.8704 23.0003 14.9398C23.2966 15.0093 23.5532 15.1946 23.7134 15.4533L25.5527 18.4294L25.9735 20.3999C26.015 20.5978 26.209 20.7232 26.4058 20.6817C26.6027 20.6393 26.7291 20.4443 26.6867 20.2475ZM18.3007 9.50195C16.7016 9.50195 15.4027 10.8038 15.4027 12.4077C15.4027 14.0115 16.7016 15.3133 18.3007 15.3133C19.8997 15.3133 21.1986 14.0115 21.1986 12.4077C21.1986 10.8038 19.8997 9.50195 18.3007 9.50195ZM18.3007 10.2325C19.4982 10.2325 20.469 11.2072 20.469 12.4077C20.469 13.6081 19.4982 14.5828 18.3007 14.5828C17.104 14.5828 16.1322 13.6081 16.1322 12.4077C16.1322 11.2072 17.104 10.2325 18.3007 10.2325Z" fill="#4AB04A"/>
</g>
</svg>
