<svg width="40" height="40" viewBox="0 0 40 40" fill="none" xmlns="http://www.w3.org/2000/svg">
<path d="M6.48143 16.1049C7.32218 16.6667 8.49257 16.6667 10.8333 16.6667C13.1741 16.6667 14.3445 16.6667 15.1853 16.1049C15.5492 15.8617 15.8617 15.5492 16.1049 15.1852C16.6667 14.3445 16.6667 13.1741 16.6667 10.8333C16.6667 8.49257 16.6667 7.32218 16.1049 6.48143C15.8617 6.11747 15.5492 5.80497 15.1853 5.56177C14.3445 5 13.1741 5 10.8333 5C8.49257 5 7.32218 5 6.48143 5.56177C6.11747 5.80497 5.80497 6.11747 5.56178 6.48143C5 7.32218 5 8.49257 5 10.8333C5 13.1741 5 14.3445 5.56178 15.1852C5.80497 15.5492 6.11747 15.8617 6.48143 16.1049Z" stroke="#4AB04A" stroke-width="1.5" stroke-linejoin="round"/>
<path d="M24.1478 16.1049C24.9887 16.6667 26.159 16.6667 28.4998 16.6667C30.8405 16.6667 32.011 16.6667 32.8517 16.1049C33.2157 15.8617 33.5282 15.5492 33.7713 15.1852C34.3332 14.3445 34.3332 13.1741 34.3332 10.8333C34.3332 8.49257 34.3332 7.32218 33.7713 6.48143C33.5282 6.11747 33.2157 5.80497 32.8517 5.56177C32.011 5 30.8405 5 28.4998 5C26.159 5 24.9887 5 24.1478 5.56177C23.784 5.80497 23.4715 6.11747 23.2282 6.48143C22.6665 7.32218 22.6665 8.49257 22.6665 10.8333C22.6665 13.1741 22.6665 14.3445 23.2282 15.1852C23.4715 15.5492 23.784 15.8617 24.1478 16.1049Z" stroke="#4AB04A" stroke-width="1.5" stroke-linejoin="round"/>
<path d="M6.48143 33.7713C7.32218 34.3332 8.49257 34.3332 10.8333 34.3332C13.1741 34.3332 14.3445 34.3332 15.1853 33.7713C15.5492 33.5282 15.8617 33.2157 16.1049 32.8517C16.6667 32.011 16.6667 30.8407 16.6667 28.4998C16.6667 26.159 16.6667 24.9887 16.1049 24.148C15.8617 23.784 15.5492 23.4715 15.1853 23.2283C14.3445 22.6665 13.1741 22.6665 10.8333 22.6665C8.49257 22.6665 7.32218 22.6665 6.48143 23.2283C6.11747 23.4715 5.80497 23.784 5.56178 24.148C5 24.9887 5 26.159 5 28.4998C5 30.8407 5 32.011 5.56178 32.8517C5.80497 33.2157 6.11747 33.5282 6.48143 33.7713Z" stroke="#4AB04A" stroke-width="1.5" stroke-linejoin="round"/>
<path d="M24.1478 33.7713C24.9887 34.3332 26.159 34.3332 28.4998 34.3332C30.8405 34.3332 32.011 34.3332 32.8517 33.7713C33.2157 33.5282 33.5282 33.2157 33.7713 32.8517C34.3332 32.011 34.3332 30.8407 34.3332 28.4998C34.3332 26.159 34.3332 24.9887 33.7713 24.148C33.5282 23.784 33.2157 23.4715 32.8517 23.2283C32.011 22.6665 30.8405 22.6665 28.4998 22.6665C26.159 22.6665 24.9887 22.6665 24.1478 23.2283C23.784 23.4715 23.4715 23.784 23.2282 24.148C22.6665 24.9887 22.6665 26.159 22.6665 28.4998C22.6665 30.8407 22.6665 32.011 23.2282 32.8517C23.4715 33.2157 23.784 33.5282 24.1478 33.7713Z" stroke="#4AB04A" stroke-width="1.5" stroke-linejoin="round"/>
</svg>
