<svg width="40" height="40" viewBox="0 0 40 40" fill="none" xmlns="http://www.w3.org/2000/svg">
<g clip-path="url(#clip0_10984_2123)">
<path d="M4.48276 32.7478C5.85395 32.7478 6.96552 31.6176 6.96552 30.2235C6.96552 28.8294 5.85395 27.6992 4.48276 27.6992C3.11157 27.6992 2 28.8294 2 30.2235C2 31.6176 3.11157 32.7478 4.48276 32.7478Z" stroke="#4AB04A" stroke-width="0.8" stroke-linejoin="round"/>
<path d="M24.8412 19.8738C24.8412 19.8738 18.3861 19.8738 16.3998 19.8738C15.9033 19.8738 13.6688 19.8738 14.4126 22.3981C14.8607 23.9187 15.9033 25.4272 16.3998 27.4466H9.44812C8.20674 27.4466 7.46191 27.9514 7.46191 28.9612V31.4854C7.46191 32.2427 8.20674 33 8.95157 33H21.3654C22.3585 33 23.3516 31.9903 22.3585 29.9709C21.2455 27.7397 17.8895 22.3981 17.8895 22.3981L28.3171 21.3883" stroke="#4AB04A" stroke-width="0.8" stroke-linecap="round" stroke-linejoin="round"/>
<path d="M24.3447 31.9902L29.3102 30.9805L37.7516 31.4853" stroke="#4AB04A" stroke-width="0.8" stroke-linecap="round" stroke-linejoin="round"/>
<path d="M22.8545 27.9517L37.751 29.4662" stroke="#4AB04A" stroke-width="0.8" stroke-linecap="round" stroke-linejoin="round"/>
<path d="M18.1377 18.8642C18.1377 18.8642 18.8825 15.3302 19.3791 14.8253C20.2431 13.9468 25.3004 12.029 26.3308 11.7962C27.3612 11.5634 27.8205 12.301 28.317 12.8059C28.7486 13.3013 30.4555 15.6398 30.7998 16.3399C31.1441 17.04 31.2963 17.3496 30.7998 17.8544C30.3906 18.2652 27.8205 20.3787 27.8205 20.3787" stroke="#4AB04A" stroke-width="0.8" stroke-linecap="round" stroke-linejoin="round"/>
<path d="M19.875 18.8639L20.3716 16.3396L21.3647 18.8639" stroke="#4AB04A" stroke-width="0.8" stroke-linecap="round" stroke-linejoin="round"/>
<path d="M25.834 19.874L29.3098 16.8449L27.3236 14.8254V17.3497" stroke="#4AB04A" stroke-width="0.8" stroke-linecap="round" stroke-linejoin="round"/>
<path d="M23.1039 12.0485C24.475 12.0485 25.5866 10.9184 25.5866 9.52427C25.5866 8.13015 24.475 7 23.1039 7C21.7327 7 20.6211 8.13015 20.6211 9.52427C20.6211 10.9184 21.7327 12.0485 23.1039 12.0485Z" stroke="#4AB04A" stroke-width="0.8" stroke-linejoin="round"/>
<path d="M22 22.9028V26.9417" stroke="#4AB04A" stroke-width="0.8" stroke-linecap="round" stroke-linejoin="round"/>
<path d="M28.3174 22.3979L29.3105 25.4271V27.4465" stroke="#4AB04A" stroke-width="0.8" stroke-linecap="round" stroke-linejoin="round"/>
<path d="M25.3379 27.2314L25.8344 24.9224L26.331 27.1942" stroke="#4AB04A" stroke-width="0.8" stroke-linecap="round" stroke-linejoin="round"/>
</g>
<defs>
<clipPath id="clip0_10984_2123">
<rect width="40" height="40" fill="white"/>
</clipPath>
</defs>
</svg>
