<svg width="40" height="40" viewBox="0 0 40 40" fill="none" xmlns="http://www.w3.org/2000/svg">
<mask id="mask0_10984_205" style="mask-type:luminance" maskUnits="userSpaceOnUse" x="4" y="3" width="32" height="34">
<path d="M35.9334 3.76953H4.0625V36.2306H35.9334V3.76953Z" fill="white"/>
</mask>
<g mask="url(#mask0_10984_205)">
<mask id="mask1_10984_205" style="mask-type:luminance" maskUnits="userSpaceOnUse" x="4" y="4" width="32" height="33">
<path d="M4.29688 4.88281H35.7158V36.3017H4.29688V4.88281Z" fill="white"/>
</mask>
<g mask="url(#mask1_10984_205)">
<path d="M22.727 36.218C22.6345 36.116 22.642 35.9586 22.744 35.8661C24.8597 33.9493 26.5447 31.8634 27.7525 29.668C28.8805 27.6172 29.6235 25.4133 29.9627 23.1159C29.9818 22.9798 30.1094 22.8852 30.2445 22.9054C30.3805 22.9256 30.4741 23.0521 30.4549 23.1882C30.321 24.0971 30.1243 24.9912 29.8692 25.8673C30.9461 26.0874 31.9625 26.4701 32.8927 27.007C33.8772 27.5747 34.7936 28.3306 35.6154 29.2534C35.7079 29.3565 35.6984 29.5139 35.5963 29.6053C35.5485 29.6478 35.4889 29.6691 35.4304 29.6691C35.3624 29.6691 35.2944 29.6404 35.2444 29.5851C34.4576 28.7026 33.5827 27.9798 32.6439 27.4386C31.7466 26.9209 30.7643 26.5541 29.7224 26.3457C29.3302 27.5736 28.8177 28.7644 28.1894 29.9083C26.954 32.1525 25.2349 34.282 23.0778 36.2361C23.03 36.2786 22.9705 36.2998 22.9109 36.2998C22.8429 36.2998 22.7759 36.2722 22.727 36.218ZM22.7961 16.5925C24.3631 16.3437 25.6655 16.5914 26.667 17.3314C26.7116 17.3644 26.7637 17.3803 26.8148 17.3803C26.8913 17.3803 26.9668 17.3452 27.0157 17.2782C27.0965 17.1676 27.0731 17.0124 26.9626 16.9306C25.8494 16.1087 24.4206 15.8291 22.7185 16.1002C22.5824 16.1226 22.4899 16.2501 22.5123 16.3863C22.5335 16.5213 22.6611 16.6148 22.7961 16.5925ZM4.34643 7.29006C4.29646 7.1614 4.35812 7.01681 4.4857 6.9658C4.61327 6.91478 4.75893 6.97747 4.80889 7.10612L6.5333 11.448C6.59816 11.6095 6.72039 11.7361 6.87986 11.8052C7.03934 11.8743 7.21586 11.8764 7.37744 11.8126C7.71016 11.6798 7.87285 11.3013 7.74104 10.9674L5.47229 5.25307C5.42126 5.12549 5.48398 4.98091 5.61156 4.92987C5.73914 4.87884 5.88372 4.94157 5.93369 5.06915L7.52734 9.08035L8.21304 8.89537L6.76721 5.25307C6.71613 5.12549 6.77888 4.98091 6.90649 4.92987C7.03403 4.87884 7.17862 4.94157 7.22963 5.06915L9.15816 9.92875C9.44419 10.6474 10.2607 10.9993 10.9783 10.7133C11.697 10.4284 12.0488 9.61084 11.7629 8.89216L10.3181 5.25307C10.2681 5.12549 10.3298 4.98091 10.4573 4.92987C10.5849 4.87884 10.7306 4.94157 10.7805 5.06915L11.9053 7.90029C13.0057 7.62494 14.1656 8.15543 14.6748 9.17602L18.1715 16.1821C20.7677 13.1288 22.9045 11.2705 24.5248 10.657C27.1475 9.66402 30.0042 9.9915 31.9391 10.4412C34.0271 10.926 35.4793 11.6329 35.5399 11.6627C35.6633 11.7233 35.7143 11.8722 35.6537 11.9955C35.5931 12.1188 35.4443 12.1699 35.3209 12.1103C35.2635 12.0816 29.5034 9.30468 24.7012 11.1226C23.131 11.7169 21.0164 13.5827 18.4138 16.6669L19.478 18.7985C19.8246 19.4948 19.9246 20.2656 19.7991 20.9971L21.6522 23.9196C22.0083 24.4821 22.1242 25.1486 21.9796 25.7982C21.835 26.4478 21.4459 27.0017 20.8846 27.3588C20.4721 27.6204 20.0107 27.7459 19.5546 27.7459C18.7307 27.7459 17.9237 27.3366 17.4496 26.5903L15.757 23.9196C14.9757 23.8016 14.2633 23.4306 13.7137 22.8522C10.8209 26.9931 7.83567 31.8305 5.49781 36.1691C5.45315 36.2531 5.3681 36.3009 5.2788 36.3009C5.23946 36.3009 5.19906 36.2903 5.16079 36.2701C5.04066 36.2052 4.99494 36.0543 5.06085 35.9331C7.42419 31.5455 10.4467 26.6519 13.3704 22.4748L5.47548 13.7178C5.42763 13.6636 5.40531 13.5923 5.41382 13.52L5.74552 10.8122L4.34643 7.29006ZM18.3447 22.6704C19.0698 22.0156 19.4217 21.0651 19.343 20.1285L19.1357 20.2539C18.8285 20.44 18.484 20.5356 18.1332 20.5356C17.9737 20.5356 17.8121 20.5165 17.6527 20.475C17.1445 20.3465 16.7182 20.0264 16.4534 19.5735L15.6391 18.1819C15.1266 17.3069 15.3616 16.2034 16.1866 15.6144L17.0307 15.0105L16.6427 14.2324L15.5328 15.2348C15.1745 15.5591 14.7184 15.7345 14.2389 15.7345C14.2049 15.7345 14.1709 15.7335 14.1368 15.7324C13.6212 15.7059 13.146 15.4794 12.7994 15.0956C12.1924 14.4215 12.1467 13.435 12.6315 12.7142L6.15376 13.7263L14.0167 22.4482C15.149 23.7049 17.0902 23.8038 18.3447 22.6704ZM14.6599 11.3853C14.4154 11.8594 14.0369 12.2283 13.5766 12.4548L13.2736 12.7291C12.9887 12.9863 12.8207 13.3393 12.8005 13.7231C12.7814 14.1068 12.9121 14.4758 13.1694 14.7618C13.4267 15.0467 13.7797 15.2146 14.1624 15.2338C14.5462 15.2529 14.914 15.1232 15.1989 14.8649L16.4109 13.7699L14.8906 10.7229C14.846 10.9493 14.7705 11.1726 14.6599 11.3853ZM18.7115 25.2698L18.8253 25.4484C19.0368 25.7823 19.4802 25.8822 19.814 25.6695C20.1478 25.458 20.2467 25.0136 20.0351 24.6798L19.9214 24.5001C19.8182 24.3385 19.6599 24.2268 19.4727 24.1854C19.2856 24.1429 19.0943 24.1769 18.9327 24.28C18.7711 24.3821 18.6594 24.5415 18.618 24.7287C18.5755 24.9158 18.6094 25.1082 18.7115 25.2698ZM19.3972 23.6741L18.8742 22.8491C18.8115 22.915 18.7466 22.9788 18.6775 23.0404C18.383 23.3072 18.0524 23.5177 17.6984 23.6708L18.1874 24.4427C18.281 24.2024 18.4458 23.9994 18.6658 23.859C18.8869 23.7187 19.141 23.656 19.3972 23.6741ZM19.6226 21.6487C19.5184 21.9273 19.3781 22.1941 19.2048 22.4419L20.3413 24.2333L20.4551 24.4129C20.8134 24.9785 20.6454 25.7312 20.0808 26.0906C19.8799 26.2181 19.6546 26.2798 19.4323 26.2798C19.0305 26.2798 18.6361 26.0799 18.4054 25.7152L17.2146 23.8388C16.9414 23.9111 16.6586 23.9515 16.3705 23.9579L17.8706 26.3234C18.4585 27.2515 19.6907 27.5268 20.6178 26.9379C21.0664 26.6529 21.3779 26.2096 21.4938 25.6897C21.6096 25.1699 21.5172 24.6362 21.2323 24.1864L19.6226 21.6487ZM19.0326 19.0217L17.8972 16.7456L17.8961 16.7445L17.2561 15.4624L16.4747 16.0194C15.8624 16.4585 15.6869 17.2793 16.0675 17.9299L16.8829 19.3215C17.0796 19.6586 17.3965 19.8967 17.7749 19.9924C18.1523 20.0881 18.5446 20.0296 18.8784 19.8276L19.2516 19.6011C19.1995 19.4034 19.1262 19.2089 19.0326 19.0217ZM6.13143 11.7584L5.94751 13.2543L12.7941 12.1847C13.4118 12.088 13.9317 11.7137 14.2176 11.1567C14.5047 10.5996 14.509 9.95957 14.2294 9.39825C13.8338 8.60724 12.9472 8.1852 12.0903 8.36809L12.2253 8.70717C12.6123 9.68212 12.1361 10.7899 11.1622 11.1769C10.9336 11.2683 10.6965 11.3119 10.4637 11.3119C9.7078 11.3119 8.99232 10.8569 8.69678 10.1127L8.39803 9.36101L7.71232 9.54599L8.20347 10.7835C8.43737 11.3725 8.14924 12.0412 7.56137 12.2751C7.42209 12.3304 7.2796 12.3569 7.13927 12.3569C6.72681 12.3569 6.33449 12.1326 6.13143 11.7584ZM24.9383 28.1488C25.0372 28.1743 25.1414 28.136 25.2009 28.0531C25.2605 27.9702 25.2637 27.8596 25.2094 27.7724C25.202 27.7618 24.5109 26.6646 24.7278 25.8312C24.9043 25.155 25.9898 24.616 26.3927 24.465C26.4873 24.4299 26.5511 24.3417 26.5553 24.2417C26.5586 24.1407 26.5022 24.0483 26.4118 24.0057C26.397 23.9994 24.9224 23.3062 24.3993 22.5514C23.872 21.7902 23.6201 19.8425 23.6179 19.8234C23.602 19.699 23.4967 19.6054 23.3713 19.6054C23.2458 19.6054 23.1395 19.699 23.1235 19.8234C22.9673 21.0428 22.5845 21.9358 21.953 22.5524C21.8542 22.6492 21.8521 22.8065 21.9488 22.9054C22.0445 23.0032 22.2018 23.0053 22.3006 22.9097C22.7717 22.4482 23.1204 21.8614 23.3521 21.131C23.4925 21.7349 23.7019 22.4184 23.9911 22.8352C24.3919 23.4136 25.2137 23.9292 25.7346 24.2173C25.2115 24.4863 24.4302 24.9966 24.2462 25.7046C24.074 26.3638 24.3217 27.0994 24.5365 27.5662C23.8592 27.4705 22.6951 27.4173 22.0477 28.035C21.414 28.641 21.2652 29.8222 21.2344 30.5164C20.7251 30.1273 19.8151 29.5489 18.8572 29.5106C17.9153 29.4735 16.9021 29.9678 16.3109 30.3165C16.3896 29.8487 16.462 29.2034 16.362 28.7665C16.1877 27.9957 15.4711 27.4322 15.4403 27.4078C15.3318 27.3238 15.1755 27.344 15.0915 27.4524C15.0075 27.5609 15.0267 27.7171 15.1351 27.8022C15.1415 27.8065 15.7422 28.2817 15.8772 28.877C15.9952 29.3969 15.7964 30.4324 15.7092 30.7875C15.6848 30.8885 15.7262 30.9948 15.8134 31.0533C15.9006 31.1118 16.0144 31.1085 16.0984 31.0469C16.1132 31.0363 17.5942 29.955 18.838 30.0082C20.0692 30.0571 21.2971 31.216 21.3088 31.2276C21.3555 31.2723 21.4183 31.2967 21.481 31.2967C21.5161 31.2967 21.5511 31.2893 21.5841 31.2744C21.6766 31.2319 21.734 31.1373 21.7298 31.0352C21.7287 31.0161 21.6437 29.1099 22.3911 28.3954C22.9981 27.8171 24.4355 28.0212 24.9383 28.1488Z" fill="#4AB04A" stroke="#4AB04A" stroke-width="0.248991"/>
</g>
</g>
</svg>
