<svg width="40" height="40" viewBox="0 0 40 40" fill="none" xmlns="http://www.w3.org/2000/svg">
<path d="M16.0621 15.0251C16.1225 15.0251 16.1809 15.0139 16.2366 14.9908C16.2923 14.9676 16.3425 14.9341 16.3851 14.8914C16.4278 14.8487 16.4613 14.7986 16.4845 14.7429C16.5077 14.6863 16.5188 14.6278 16.5188 14.5675V13.4935C16.8826 13.3432 18.0847 13.1232 20.0015 13.1232C21.9173 13.1232 23.1185 13.3432 23.4832 13.4935V14.5675C23.4832 14.6278 23.4953 14.6863 23.5185 14.7429C23.5417 14.7986 23.5742 14.8487 23.6179 14.8914C23.6606 14.9341 23.7097 14.9676 23.7654 14.9908C23.8221 15.0139 23.8796 15.0251 23.9409 15.0251C24.0012 15.0251 24.0597 15.0139 24.1154 14.9908C24.171 14.9676 24.2203 14.9341 24.2639 14.8914C24.3066 14.8487 24.339 14.7986 24.3623 14.7429C24.3855 14.6863 24.3975 14.6278 24.3975 14.5675V13.3153C24.3975 12.5801 22.9189 12.207 20.0015 12.207C17.0841 12.207 15.6055 12.5801 15.6055 13.3153V14.5675C15.6055 14.6278 15.6166 14.6863 15.6398 14.7429C15.663 14.7986 15.6964 14.8487 15.7391 14.8914C15.7818 14.9341 15.831 14.9676 15.8876 14.9908C15.9433 15.0139 16.0018 15.0251 16.0621 15.0251Z" fill="#4AB04A"/>
<path d="M23.5445 18.2874C23.1537 18.0887 21.8171 17.8874 20.0015 17.8874C18.1859 17.8874 16.8437 18.0887 16.4575 18.2874C16.413 18.3116 16.3666 18.3291 16.3183 18.3403C16.2691 18.3514 16.2199 18.3561 16.1698 18.3552C16.1197 18.3533 16.0705 18.3459 16.0222 18.332C15.9739 18.3181 15.9285 18.2976 15.8857 18.2716C15.843 18.2457 15.8041 18.215 15.7688 18.1788C15.7345 18.1426 15.7047 18.1027 15.6797 18.059C15.6556 18.0154 15.637 17.969 15.624 17.9207C15.611 17.8716 15.6055 17.8224 15.6055 17.7722V16.4644C15.6055 16.4031 15.6166 16.3446 15.6398 16.2889C15.663 16.2323 15.6964 16.1831 15.7391 16.1404C15.7818 16.0968 15.831 16.0643 15.8876 16.0411C15.9433 16.0179 16.0018 16.0059 16.0621 16.0059C16.1225 16.0059 16.1809 16.0179 16.2366 16.0411C16.2923 16.0643 16.3425 16.0968 16.3851 16.1404C16.4278 16.1831 16.4613 16.2323 16.4845 16.2889C16.5077 16.3446 16.5188 16.4031 16.5188 16.4644V17.297C17.4025 17.0594 18.8682 16.9693 20.0015 16.9693C21.1339 16.9693 22.5996 17.0594 23.4832 17.297V16.5228C23.4832 16.4625 23.4953 16.404 23.5185 16.3474C23.5417 16.2917 23.5742 16.2416 23.6179 16.1989C23.6606 16.1562 23.7097 16.1228 23.7654 16.0996C23.8221 16.0764 23.8796 16.0653 23.9409 16.0653C24.0012 16.0653 24.0597 16.0764 24.1154 16.0996C24.171 16.1228 24.2203 16.1562 24.2639 16.1989C24.3066 16.2416 24.339 16.2917 24.3623 16.3474C24.3855 16.404 24.3975 16.4625 24.3975 16.5228V17.7722C24.3975 17.8734 24.3734 17.969 24.3233 18.0572C24.2741 18.1463 24.2054 18.2169 24.1191 18.2698C24.0318 18.3226 23.9371 18.3505 23.8341 18.3543C23.732 18.3579 23.6355 18.3357 23.5445 18.2874Z" fill="#4AB04A"/>
<path d="M20.0042 19.8825C20.8861 19.8881 21.7632 19.8343 22.6376 19.7201C22.6979 19.7118 22.7536 19.6922 22.8065 19.6607C22.8585 19.6301 22.903 19.5902 22.9392 19.541C22.9755 19.4927 23.0015 19.4389 23.0163 19.3804C23.0312 19.321 23.0339 19.2616 23.0256 19.2012C23.0173 19.1409 22.9968 19.0852 22.9662 19.0332C22.9347 18.9803 22.8956 18.9367 22.8465 18.8996C22.7982 18.8634 22.7444 18.8383 22.6859 18.8225C22.6265 18.8077 22.567 18.8049 22.5076 18.8132C20.8369 19.0109 19.1661 19.0109 17.4952 18.8132C17.4349 18.8049 17.3755 18.8077 17.317 18.8225C17.2586 18.8383 17.2048 18.8634 17.1564 18.8996C17.1072 18.9367 17.0674 18.9803 17.0367 19.0332C17.0061 19.0852 16.9857 19.1409 16.9773 19.2012C16.969 19.2616 16.9718 19.321 16.9866 19.3804C17.0015 19.4389 17.0274 19.4927 17.0636 19.541C17.0998 19.5902 17.1444 19.6301 17.1964 19.6607C17.2484 19.6922 17.305 19.7118 17.3644 19.7201C18.2406 19.8343 19.1206 19.8881 20.0042 19.8825Z" fill="#4AB04A"/>
<path d="M26.6187 16.9282C26.6883 16.9291 26.757 16.9245 26.8257 16.9161C26.8944 16.9078 26.9631 16.8948 27.0299 16.8781C27.0968 16.8604 27.1627 16.839 27.2276 16.814C27.2916 16.788 27.3548 16.7583 27.4151 16.7249C27.4754 16.6915 27.5339 16.6544 27.5905 16.6135C27.6463 16.5727 27.6992 16.5281 27.7502 16.4798C27.8004 16.4325 27.8476 16.3815 27.8913 16.3276C27.9349 16.2738 27.9758 16.2181 28.012 16.1587C28.0491 16.1002 28.0816 16.0389 28.1113 15.9758C28.14 15.9127 28.1652 15.8477 28.1855 15.7818C28.2069 15.715 28.2227 15.6482 28.2347 15.5795C28.2477 15.5108 28.2552 15.4421 28.2589 15.3725C28.2626 15.3028 28.2617 15.2342 28.2561 15.1646C28.2505 15.0949 28.2412 15.0263 28.2273 14.9585C28.2125 14.8907 28.1949 14.8239 28.1716 14.758C28.1493 14.6921 28.1224 14.628 28.0918 14.5659C28.0612 14.5036 28.0268 14.4433 27.9888 14.3858C27.9507 14.3273 27.909 14.2726 27.8634 14.2196C27.8179 14.1667 27.7697 14.1175 27.7177 14.0711C27.6667 14.0247 27.6119 13.982 27.5543 13.9421C27.4977 13.9031 27.4383 13.8669 27.3771 13.8354C27.3149 13.8028 27.2518 13.775 27.1868 13.7518C27.1218 13.7277 27.055 13.7082 26.9872 13.6924C26.9194 13.6775 26.8517 13.6664 26.7821 13.6599C26.7134 13.6534 26.6447 13.6507 26.5751 13.6534C26.5055 13.6552 26.4368 13.6618 26.3681 13.6729C26.3003 13.684 26.2326 13.6989 26.1657 13.7184C26.0989 13.7388 26.0339 13.762 25.9708 13.7899C25.9077 13.8177 25.8455 13.8502 25.7861 13.8855C25.7267 13.9217 25.6701 13.9607 25.6153 14.0034C25.5606 14.047 25.5095 14.0934 25.4612 14.1426C25.412 14.1918 25.3665 14.2447 25.3248 14.3004C25.2886 14.3487 25.2617 14.4015 25.2468 14.4609C25.231 14.5194 25.2273 14.5788 25.2356 14.6392C25.2431 14.6995 25.2626 14.7562 25.2932 14.8081C25.3238 14.861 25.3629 14.9056 25.4111 14.9427C25.4594 14.9789 25.5123 15.0059 25.5716 15.0207C25.6301 15.0365 25.6895 15.0402 25.7499 15.0328C25.8093 15.0244 25.8659 15.0049 25.9179 14.9743C25.9708 14.9436 26.0154 14.9047 26.0525 14.8564C26.0831 14.8156 26.1175 14.7794 26.1555 14.7459C26.1936 14.7125 26.2354 14.6838 26.2799 14.6596C26.3235 14.6355 26.3699 14.616 26.4191 14.6011C26.4674 14.5872 26.5166 14.5779 26.5667 14.5733C26.6178 14.5696 26.6679 14.5705 26.718 14.577C26.7682 14.5835 26.8173 14.5956 26.8647 14.6123C26.912 14.6289 26.9575 14.6503 27.0012 14.6773C27.0438 14.7032 27.0838 14.7339 27.1209 14.7691C27.1571 14.8035 27.1905 14.8425 27.2193 14.8842C27.2471 14.926 27.2712 14.9696 27.2907 15.0169C27.3103 15.0634 27.3242 15.1116 27.3334 15.1618C27.3427 15.2119 27.3474 15.262 27.3455 15.3122C27.3446 15.3632 27.3381 15.4133 27.326 15.4625C27.3139 15.5117 27.2972 15.559 27.2759 15.6046C27.2536 15.651 27.2276 15.6937 27.196 15.7335C27.1654 15.7735 27.1311 15.8106 27.0921 15.8431C27.0541 15.8765 27.0123 15.9044 26.9677 15.9285C26.9232 15.9526 26.8768 15.9721 26.8285 15.9861C26.7802 16.0009 26.7301 16.0093 26.68 16.0139C26.6299 16.0176 26.5797 16.0158 26.5296 16.0093C26.4794 16.0027 26.4303 15.9907 26.3829 15.973C26.3347 15.9564 26.2901 15.9341 26.2465 15.9081C26.2038 15.8811 26.1639 15.8505 26.1277 15.8152C26.0905 15.78 26.0581 15.7419 26.0302 15.7002C25.9949 15.65 25.9522 15.6082 25.9012 15.5758C25.8501 15.5423 25.7945 15.521 25.7351 15.5099C25.6756 15.4987 25.6153 15.4996 25.5559 15.5126C25.4965 15.5257 25.4427 15.5498 25.3925 15.5841C25.3424 15.6185 25.3006 15.6621 25.2682 15.7131C25.2356 15.7642 25.2134 15.8199 25.2023 15.8793C25.192 15.9396 25.193 15.999 25.2059 16.0585C25.218 16.1188 25.2421 16.1735 25.2765 16.2236C25.4288 16.4436 25.6236 16.6163 25.8613 16.7416C26.098 16.866 26.3505 16.9282 26.6187 16.9282Z" fill="#4AB04A"/>
<path d="M23.944 15.0265H25.6825C25.7429 15.0265 25.8013 15.0154 25.857 14.9922C25.9128 14.969 25.9619 14.9356 26.0055 14.8929C26.0482 14.8502 26.0808 14.8 26.104 14.7444C26.1272 14.6878 26.1392 14.6293 26.1392 14.569C26.1392 14.5086 26.1272 14.4501 26.104 14.3935C26.0808 14.3378 26.0482 14.2877 26.0055 14.245C25.9619 14.2023 25.9128 14.1689 25.857 14.1457C25.8013 14.1225 25.7429 14.1113 25.6825 14.1113H23.944C23.8827 14.1113 23.8251 14.1225 23.7686 14.1457C23.7128 14.1689 23.6636 14.2023 23.621 14.245C23.5773 14.2877 23.5448 14.3378 23.5216 14.3935C23.4984 14.4501 23.4863 14.5086 23.4863 14.569C23.4863 14.6293 23.4984 14.6878 23.5216 14.7444C23.5448 14.8 23.5773 14.8502 23.621 14.8929C23.6636 14.9356 23.7128 14.969 23.7686 14.9922C23.8251 15.0154 23.8827 15.0265 23.944 15.0265Z" fill="#4AB04A"/>
<path d="M13.3921 16.9254C13.665 16.9272 13.9221 16.8642 14.1625 16.736C14.4038 16.608 14.6006 16.4307 14.7529 16.2032C14.7872 16.1531 14.8095 16.0984 14.8215 16.039C14.8336 15.9787 14.8345 15.9192 14.8225 15.8598C14.8113 15.8004 14.7881 15.7447 14.7547 15.6946C14.7213 15.6435 14.6795 15.6017 14.6294 15.5674C14.5793 15.5331 14.5245 15.5099 14.4651 15.4978C14.4057 15.4857 14.3463 15.4857 14.2869 15.4969C14.2275 15.5089 14.1718 15.5312 14.1217 15.5646C14.0706 15.5981 14.0288 15.6398 13.9945 15.6908C13.9667 15.7326 13.9342 15.7707 13.8979 15.806C13.8617 15.8413 13.8219 15.8728 13.7792 15.8997C13.7364 15.9267 13.691 15.948 13.6436 15.9656C13.5963 15.9832 13.5471 15.9953 13.497 16.0018C13.4478 16.0093 13.3968 16.0102 13.3466 16.0074C13.2965 16.0037 13.2473 15.9944 13.1981 15.9805C13.1498 15.9666 13.1034 15.947 13.0589 15.9238C13.0143 15.8997 12.9726 15.871 12.9345 15.8385C12.8955 15.806 12.8611 15.7698 12.8296 15.7299C12.7989 15.6899 12.772 15.6463 12.7507 15.6008C12.7284 15.5554 12.7117 15.508 12.6996 15.4588C12.6876 15.4096 12.6811 15.3595 12.6792 15.3094C12.6773 15.2583 12.682 15.2082 12.6903 15.159C12.6996 15.1089 12.7135 15.0606 12.733 15.0133C12.7526 14.9668 12.7758 14.9223 12.8045 14.8806C12.8333 14.8388 12.8658 14.8007 12.902 14.7654C12.9391 14.7311 12.9791 14.7005 13.0217 14.6735C13.0653 14.6467 13.1099 14.6253 13.1582 14.6086C13.2055 14.5918 13.2547 14.5798 13.3048 14.5733C13.354 14.5668 13.4051 14.5649 13.4552 14.5696C13.5053 14.5733 13.5545 14.5826 13.6028 14.5965C13.652 14.6114 13.6984 14.6308 13.742 14.655C13.7866 14.6791 13.8284 14.7079 13.8664 14.7404C13.9045 14.7738 13.9397 14.81 13.9704 14.8508C14.0084 14.8917 14.0539 14.9242 14.104 14.9492C14.1551 14.9733 14.209 14.9882 14.2655 14.9929C14.3212 14.9975 14.377 14.9919 14.4308 14.9752C14.4855 14.9594 14.5347 14.9344 14.5793 14.9C14.6248 14.8657 14.6619 14.8239 14.6916 14.7756C14.7213 14.7274 14.7408 14.6754 14.751 14.6197C14.7612 14.564 14.7612 14.5093 14.751 14.4535C14.7408 14.3979 14.7213 14.3459 14.6916 14.2976C14.6498 14.2419 14.6044 14.1899 14.5561 14.1408C14.5078 14.0907 14.4558 14.0451 14.402 14.0025C14.3472 13.9588 14.2906 13.9198 14.2312 13.8846C14.1718 13.8493 14.1105 13.8168 14.0465 13.7889C13.9834 13.7621 13.9184 13.7379 13.8525 13.7184C13.7857 13.6989 13.7188 13.684 13.6501 13.6729C13.5824 13.6618 13.5137 13.6553 13.444 13.6534C13.3754 13.6507 13.3057 13.6534 13.2371 13.6599C13.1684 13.6665 13.1006 13.6766 13.0329 13.6924C12.9651 13.7072 12.8992 13.7268 12.8342 13.7509C12.7693 13.7741 12.7061 13.8019 12.644 13.8335C12.5827 13.8651 12.5232 13.9013 12.4667 13.9402C12.4091 13.9792 12.3552 14.0219 12.3033 14.0684C12.2522 14.1148 12.204 14.164 12.1585 14.216C12.113 14.2688 12.0712 14.3236 12.0322 14.3811C11.9942 14.4387 11.9598 14.499 11.9292 14.5612C11.8977 14.6225 11.8716 14.6865 11.8484 14.7524C11.8262 14.8174 11.8076 14.8842 11.7928 14.952C11.7789 15.0198 11.7686 15.0885 11.7631 15.1571C11.7575 15.2268 11.7566 15.2954 11.7593 15.3651C11.7631 15.4347 11.7705 15.5034 11.7825 15.5711C11.7937 15.6398 11.8104 15.7067 11.8308 15.7735C11.8512 15.8394 11.8754 15.9044 11.9042 15.9675C11.933 16.0306 11.9654 16.0919 12.0016 16.1503C12.0378 16.2097 12.0777 16.2664 12.1213 16.3202C12.165 16.3741 12.2114 16.4251 12.2615 16.4724C12.3116 16.5207 12.3636 16.5653 12.4193 16.607C12.475 16.6479 12.5335 16.685 12.5938 16.7194C12.6541 16.7528 12.7164 16.7834 12.7804 16.8094C12.8444 16.8354 12.9094 16.8568 12.9762 16.8744C13.044 16.892 13.1109 16.905 13.1795 16.9143C13.2482 16.9236 13.3169 16.9282 13.3865 16.9282L13.3921 16.9254Z" fill="#4AB04A"/>
<path d="M14.3238 15.0265H16.0624C16.1227 15.0265 16.1812 15.0154 16.237 14.9922C16.2926 14.969 16.3427 14.9356 16.3854 14.8929C16.4282 14.8502 16.4615 14.8 16.4848 14.7444C16.508 14.6878 16.5191 14.6293 16.5191 14.569C16.5191 14.5086 16.508 14.4501 16.4848 14.3935C16.4615 14.3378 16.4282 14.2877 16.3854 14.245C16.3427 14.2023 16.2926 14.1689 16.237 14.1457C16.1812 14.1225 16.1227 14.1113 16.0624 14.1113H14.3238C14.2635 14.1113 14.205 14.1225 14.1484 14.1457C14.0928 14.1689 14.0435 14.2023 14.0008 14.245C13.9581 14.2877 13.9247 14.3378 13.9015 14.3935C13.8783 14.4501 13.8672 14.5086 13.8672 14.569C13.8672 14.6293 13.8783 14.6878 13.9015 14.7444C13.9247 14.8 13.9581 14.8502 14.0008 14.8929C14.0435 14.9356 14.0928 14.969 14.1484 14.9922C14.205 15.0154 14.2635 15.0265 14.3238 15.0265Z" fill="#4AB04A"/>
<path d="M17.4284 12.8426C17.4888 12.8426 17.5472 12.8306 17.603 12.8073C17.6586 12.7841 17.7087 12.7517 17.7515 12.709C17.7942 12.6653 17.8275 12.6161 17.8508 12.5605C17.874 12.5038 17.886 12.4454 17.886 12.385V11.3528C17.8814 11.2944 17.8675 11.2396 17.8424 11.1876C17.8164 11.1356 17.783 11.0892 17.7412 11.0502C17.6986 11.0112 17.6503 10.9806 17.5965 10.9593C17.5426 10.9379 17.4869 10.9277 17.4294 10.9277C17.3718 10.9277 17.3161 10.9379 17.2623 10.9593C17.2085 10.9806 17.1602 11.0112 17.1174 11.0502C17.0757 11.0892 17.0414 11.1356 17.0163 11.1876C16.9912 11.2396 16.9764 11.2944 16.9727 11.3528V12.385C16.9727 12.4454 16.9838 12.5038 17.007 12.5595C17.0302 12.6152 17.0627 12.6653 17.1054 12.7081C17.1481 12.7508 17.1973 12.7841 17.2539 12.8073C17.3096 12.8306 17.3671 12.8426 17.4284 12.8426Z" fill="#4AB04A"/>
<path d="M22.5642 12.8426C22.6254 12.8426 22.6839 12.8306 22.7396 12.8073C22.7953 12.7841 22.8454 12.7517 22.8881 12.709C22.9308 12.6653 22.9643 12.6161 22.9875 12.5605C23.0107 12.5038 23.0228 12.4454 23.0228 12.385V11.3528C23.0181 11.2944 23.0032 11.2396 22.9782 11.1876C22.9531 11.1356 22.9197 11.0892 22.877 11.0502C22.8352 11.0112 22.7869 10.9806 22.7331 10.9593C22.6793 10.9379 22.6236 10.9277 22.566 10.9277C22.5085 10.9277 22.4528 10.9379 22.3989 10.9593C22.3451 10.9806 22.2968 11.0112 22.2542 11.0502C22.2124 11.0892 22.178 11.1356 22.153 11.1876C22.1279 11.2396 22.113 11.2944 22.1094 11.3528V12.385C22.1094 12.4454 22.1205 12.5038 22.1437 12.5595C22.1669 12.6152 22.1994 12.6653 22.2421 12.7081C22.2848 12.7508 22.334 12.7841 22.3906 12.8073C22.4463 12.8306 22.5039 12.8426 22.5642 12.8426Z" fill="#4AB04A"/>
<mask id="mask0_10984_226" style="mask-type:luminance" maskUnits="userSpaceOnUse" x="15" y="5" width="10" height="4">
<path d="M15.4297 5.66406H24.4595V8.60469H15.4297V5.66406Z" fill="white"/>
</mask>
<g mask="url(#mask0_10984_226)">
<path d="M16.0691 8.48214C16.1294 8.48214 16.1879 8.47007 16.2436 8.44686C16.2992 8.42364 16.3494 8.39118 16.3921 8.34758C16.4348 8.30482 16.4682 8.25564 16.4914 8.19905C16.5146 8.14331 16.5257 8.08489 16.5257 8.02358V6.95151C16.8896 6.80115 18.0916 6.57932 20.0084 6.57932C21.9243 6.57932 23.1254 6.80115 23.4902 6.95151V8.01899C23.4902 8.07931 23.5023 8.13774 23.5255 8.1944C23.5487 8.25007 23.5811 8.29925 23.6248 8.34292C23.6675 8.38561 23.7167 8.41905 23.7724 8.4422C23.829 8.46541 23.8865 8.47656 23.9478 8.47656C24.0082 8.47656 24.0667 8.46541 24.1223 8.4422C24.178 8.41905 24.2272 8.38561 24.2709 8.34292C24.3135 8.29925 24.346 8.25007 24.3692 8.1944C24.3924 8.13774 24.4045 8.07931 24.4045 8.01899V6.77236C24.4045 6.03628 22.9259 5.66406 20.0084 5.66406C17.091 5.66406 15.6124 6.03628 15.6124 6.77236V8.01899C15.6114 8.08023 15.6226 8.13872 15.6449 8.19623C15.6681 8.25289 15.7006 8.30299 15.7432 8.34659C15.7869 8.39027 15.8361 8.42364 15.8927 8.44686C15.9493 8.47007 16.0078 8.48214 16.0691 8.48214Z" fill="#4AB04A"/>
</g>
<path d="M16.1866 11.815C16.2822 11.815 16.3722 11.7927 16.4567 11.7491C16.8484 11.5486 18.185 11.3472 20.0015 11.3472C21.819 11.3472 23.1594 11.5486 23.5455 11.7491C23.6365 11.7965 23.7339 11.8178 23.836 11.8141C23.939 11.8104 24.0337 11.7816 24.121 11.7277C24.2073 11.6748 24.2751 11.6053 24.3252 11.5161C24.3744 11.4279 24.3985 11.3333 24.3976 11.2321V9.98361C24.3976 9.92328 24.3865 9.86479 24.3632 9.8082C24.3401 9.75246 24.3067 9.70328 24.264 9.65968C24.2213 9.61699 24.172 9.58355 24.1154 9.56033C24.0598 9.53712 24.0013 9.52604 23.9409 9.52604C23.8806 9.52604 23.8221 9.53712 23.7665 9.56033C23.7107 9.58355 23.6606 9.61699 23.6179 9.65968C23.5752 9.70328 23.5418 9.75246 23.5186 9.8082C23.4954 9.86479 23.4842 9.92328 23.4842 9.98361V10.7596C22.6006 10.5211 21.1349 10.4329 20.0015 10.4329C18.8691 10.4329 17.4034 10.5211 16.5198 10.7596V9.92053C16.5198 9.86014 16.5077 9.80171 16.4846 9.74597C16.4613 9.68938 16.4288 9.6402 16.3852 9.59745C16.3425 9.55384 16.2933 9.52138 16.2376 9.49817C16.181 9.47496 16.1234 9.46289 16.0622 9.46289C16.0019 9.46289 15.9434 9.47496 15.8877 9.49817C15.832 9.52138 15.7828 9.55384 15.7392 9.59745C15.6965 9.6402 15.664 9.68938 15.6407 9.74597C15.6175 9.80171 15.6055 9.86014 15.6055 9.92053V11.2293C15.6055 11.3305 15.6296 11.4251 15.6788 11.5133C15.728 11.6024 15.7958 11.673 15.8821 11.725C15.9749 11.7844 16.077 11.8141 16.1866 11.815Z" fill="#4AB04A"/>
<path d="M26.6065 10.3733C26.7169 10.3798 26.8274 10.3743 26.9378 10.3585C27.0473 10.3418 27.155 10.3149 27.259 10.2768C27.3639 10.2378 27.4632 10.1895 27.5579 10.1311C27.6526 10.0726 27.7398 10.0048 27.8215 9.92869C27.9022 9.85171 27.9737 9.76817 28.0378 9.67623C28.1018 9.58528 28.1557 9.48876 28.1993 9.38574C28.2439 9.28364 28.2763 9.17781 28.2995 9.06922C28.3218 8.95964 28.333 8.84922 28.333 8.73781C28.333 8.6264 28.3218 8.51597 28.2995 8.40738C28.2763 8.29781 28.2439 8.19204 28.1993 8.08994C28.1557 7.98686 28.1018 7.89033 28.0378 7.79938C27.9737 7.70751 27.9022 7.62397 27.8215 7.54692C27.7398 7.47079 27.6526 7.40305 27.5579 7.34456C27.4632 7.28607 27.3639 7.23781 27.259 7.19886C27.155 7.16076 27.0473 7.13387 26.9378 7.11715C26.8274 7.10135 26.7169 7.09577 26.6065 7.10227C26.3503 7.10043 26.1071 7.1561 25.8769 7.26935C25.6476 7.38351 25.4555 7.54227 25.3014 7.74738C25.2643 7.79564 25.2383 7.84948 25.2225 7.90797C25.2076 7.96646 25.2039 8.02587 25.2123 8.0862C25.2197 8.14653 25.2392 8.20318 25.2698 8.25512C25.3005 8.30804 25.3394 8.35263 25.3877 8.38882C25.436 8.42594 25.4898 8.45191 25.5483 8.46771C25.6068 8.48351 25.6662 8.48718 25.7256 8.47886C25.7859 8.47046 25.8426 8.45099 25.8945 8.42036C25.9465 8.38974 25.9911 8.35073 26.0282 8.30246C26.0653 8.25328 26.1071 8.20876 26.1553 8.17066C26.2036 8.13263 26.2556 8.10109 26.3113 8.07597C26.367 8.05092 26.4254 8.03328 26.4858 8.02305C26.5471 8.01289 26.6074 8.01007 26.6687 8.01564C26.7299 8.02122 26.7893 8.0342 26.8469 8.05558C26.9054 8.07597 26.9592 8.10384 27.0102 8.1382C27.0604 8.17256 27.1058 8.21335 27.1467 8.25977C27.1875 8.3062 27.2209 8.3563 27.2488 8.41105C27.2767 8.46679 27.2961 8.5243 27.3091 8.58371C27.3221 8.64404 27.3268 8.70535 27.3249 8.76659C27.3221 8.82784 27.3119 8.88817 27.2934 8.94666C27.2757 9.00607 27.2506 9.06174 27.2182 9.11374C27.1856 9.16666 27.1476 9.214 27.104 9.25669C27.0594 9.29846 27.0102 9.33558 26.9564 9.36528C26.9035 9.39499 26.8469 9.4182 26.7875 9.434C26.7281 9.44974 26.6677 9.45722 26.6065 9.45722C26.4877 9.45722 26.3753 9.42935 26.2704 9.37368C26.1647 9.31794 26.0783 9.24187 26.0115 9.14345C25.9762 9.09335 25.9335 9.05158 25.8824 9.01905C25.8314 8.98568 25.7757 8.96338 25.7163 8.95315C25.6559 8.942 25.5965 8.94292 25.5372 8.95597C25.4778 8.96895 25.423 8.99217 25.3729 9.02745C25.3237 9.06174 25.2819 9.10541 25.2494 9.15643C25.216 9.20751 25.1946 9.26318 25.1835 9.32351C25.1723 9.38292 25.1733 9.44325 25.1863 9.50266C25.1993 9.56207 25.2234 9.61682 25.2578 9.66699C25.4109 9.88882 25.6068 10.0624 25.8453 10.1868C26.0839 10.3121 26.3372 10.3743 26.6065 10.3733Z" fill="#4AB04A"/>
<path d="M23.944 8.47472H25.6825C25.7429 8.47472 25.8013 8.46266 25.857 8.43951C25.9128 8.4163 25.9619 8.38377 26.0055 8.34017C26.0482 8.29748 26.0808 8.2483 26.104 8.19164C26.1272 8.13597 26.1392 8.07748 26.1392 8.01623C26.1392 7.95591 26.1272 7.89741 26.104 7.84168C26.0808 7.78509 26.0482 7.73591 26.0055 7.69322C25.9619 7.64954 25.9128 7.61709 25.857 7.59387C25.8013 7.57066 25.7429 7.55859 25.6825 7.55859H23.944C23.8827 7.55859 23.8251 7.57066 23.7686 7.59387C23.7128 7.61709 23.6636 7.64954 23.621 7.69322C23.5773 7.73591 23.5448 7.78509 23.5216 7.84168C23.4984 7.89741 23.4863 7.95591 23.4863 8.01623C23.4863 8.07748 23.4984 8.13597 23.5216 8.19164C23.5448 8.2483 23.5773 8.29748 23.621 8.34017C23.6636 8.38377 23.7128 8.4163 23.7686 8.43951C23.8251 8.46266 23.8827 8.47472 23.944 8.47472Z" fill="#4AB04A"/>
<path d="M13.3925 10.3694C13.6644 10.3703 13.9215 10.3081 14.162 10.181C14.4033 10.0537 14.6001 9.8765 14.7532 9.65092C14.7875 9.60083 14.8108 9.54601 14.8228 9.4866C14.8349 9.42725 14.8349 9.36686 14.8237 9.30751C14.8126 9.24811 14.7894 9.19237 14.756 9.14227C14.7226 9.09119 14.6808 9.0485 14.6307 9.01512C14.5806 8.98076 14.5258 8.95755 14.4664 8.94548C14.407 8.93342 14.3476 8.93342 14.2882 8.94456C14.2288 8.95663 14.174 8.97892 14.123 9.0123C14.0729 9.04574 14.0301 9.08751 13.9967 9.13853C13.9679 9.1803 13.9355 9.21932 13.8993 9.2546C13.8631 9.28988 13.8241 9.3205 13.7805 9.34738C13.7378 9.37433 13.6923 9.39656 13.6449 9.4142C13.5976 9.43184 13.5484 9.44391 13.4982 9.45138C13.4481 9.45788 13.398 9.45971 13.3479 9.45597C13.2969 9.4523 13.2476 9.44391 13.1993 9.43001C13.1502 9.41611 13.1037 9.39656 13.0592 9.37342C13.0146 9.34929 12.9729 9.3205 12.9339 9.28797C12.8949 9.25551 12.8606 9.21932 12.829 9.17938C12.7984 9.13945 12.7715 9.09584 12.7492 9.05033C12.7278 9.00489 12.7102 8.95755 12.6982 8.90837C12.686 8.85912 12.6795 8.80902 12.6777 8.75801C12.6768 8.70784 12.6805 8.65683 12.6889 8.60758C12.6982 8.55748 12.7121 8.50922 12.7315 8.46188C12.7501 8.41545 12.7742 8.37092 12.803 8.32915C12.8318 8.28647 12.8643 8.24837 12.9005 8.21309C12.9376 8.17781 12.9775 8.14719 13.0202 8.12122C13.063 8.09427 13.1084 8.07204 13.1567 8.05532C13.204 8.0386 13.2532 8.02653 13.3033 8.02004C13.3534 8.01355 13.4036 8.01171 13.4537 8.01538C13.5048 8.02004 13.554 8.02935 13.6022 8.04325C13.6514 8.05807 13.6978 8.07663 13.7424 8.10083C13.787 8.12588 13.8278 8.15368 13.8668 8.18712C13.9049 8.21958 13.9391 8.25676 13.9708 8.29663C14.007 8.34489 14.0515 8.38483 14.1035 8.41545C14.1564 8.44515 14.2121 8.46463 14.2724 8.47302C14.3327 8.48135 14.3912 8.47768 14.4506 8.46188C14.5091 8.44607 14.562 8.42011 14.6103 8.38391C14.6586 8.34679 14.6975 8.3022 14.7281 8.25027C14.7588 8.19735 14.7783 8.1407 14.7866 8.08129C14.794 8.02096 14.7904 7.96155 14.7755 7.90306C14.7597 7.84365 14.7337 7.79079 14.6975 7.74253C14.5945 7.60515 14.4719 7.48633 14.3318 7.38791C14.1917 7.28863 14.0394 7.21342 13.8751 7.16332C13.7117 7.11224 13.5437 7.08811 13.372 7.08994C13.2003 7.09184 13.0332 7.12056 12.8708 7.17538C12.7083 7.23014 12.558 7.30902 12.4197 7.41112C12.2823 7.51322 12.1635 7.63486 12.0632 7.77407C11.963 7.9142 11.8869 8.06647 11.8349 8.22981C11.7829 8.39414 11.7569 8.56214 11.7578 8.73381C11.7578 8.84155 11.769 8.94732 11.7904 9.05315C11.8117 9.15801 11.8423 9.26017 11.8841 9.35945C11.9249 9.45879 11.975 9.55256 12.0354 9.64161C12.0948 9.73171 12.1626 9.81427 12.2387 9.88948C12.3138 9.96561 12.3965 10.0334 12.4856 10.0928C12.5747 10.1531 12.6685 10.2032 12.7677 10.244C12.8671 10.2849 12.9683 10.3164 13.074 10.3378C13.179 10.3582 13.2848 10.3694 13.3925 10.3694Z" fill="#4AB04A"/>
<path d="M14.3238 8.47472H16.0624C16.1227 8.47472 16.1812 8.46266 16.237 8.43951C16.2926 8.4163 16.3427 8.38377 16.3854 8.34017C16.4282 8.29748 16.4615 8.2483 16.4848 8.19164C16.508 8.13597 16.5191 8.07748 16.5191 8.01623C16.5191 7.95591 16.508 7.89741 16.4848 7.84168C16.4615 7.78509 16.4282 7.73591 16.3854 7.69322C16.3427 7.64954 16.2926 7.61709 16.237 7.59387C16.1812 7.57066 16.1227 7.55859 16.0624 7.55859H14.3238C14.2635 7.55859 14.205 7.57066 14.1484 7.59387C14.0928 7.61709 14.0435 7.64954 14.0008 7.69322C13.9581 7.73591 13.9247 7.78509 13.9015 7.84168C13.8783 7.89741 13.8672 7.95591 13.8672 8.01623C13.8672 8.07748 13.8783 8.13597 13.9015 8.19164C13.9247 8.2483 13.9581 8.29748 14.0008 8.34017C14.0435 8.38377 14.0928 8.4163 14.1484 8.43951C14.205 8.46266 14.2635 8.47472 14.3238 8.47472Z" fill="#4AB04A"/>
<path d="M11.4961 23.8307C11.5602 23.8307 11.6214 23.8177 11.6799 23.7917C11.7356 23.7666 11.7838 23.7323 11.8256 23.6887C11.8674 23.6451 11.8989 23.5949 11.9212 23.5392C11.9426 23.4826 11.9528 23.4241 11.9518 23.3638C11.9509 23.3026 11.9379 23.245 11.9138 23.1893L10.4844 19.947C10.4565 19.8978 10.4203 19.8551 10.3767 19.8199C10.3321 19.7836 10.2829 19.7567 10.2291 19.7391C10.1753 19.7215 10.1205 19.714 10.0638 19.7177C10.0073 19.7205 9.95251 19.7335 9.90051 19.7567C9.84942 19.7799 9.80306 19.8115 9.76313 19.8514C9.72319 19.8913 9.69165 19.9377 9.66844 19.9897C9.64523 20.0417 9.63224 20.0965 9.62949 20.1531C9.62667 20.2097 9.63408 20.2654 9.65172 20.3192L11.0877 23.5569C11.1239 23.6386 11.1787 23.7045 11.252 23.7536C11.3263 23.8028 11.407 23.8289 11.4961 23.8307Z" fill="#4AB04A"/>
<path d="M17.4089 31.6291C17.512 31.6291 17.6048 31.5985 17.6865 31.5354C17.7691 31.4723 17.8229 31.3915 17.8498 31.2912C17.9742 30.8373 18.0522 30.3751 18.0838 29.9045C18.1162 29.4349 18.1014 28.9661 18.041 28.4992C17.9798 28.0323 17.8739 27.5756 17.7227 27.1301C17.5714 26.6836 17.3773 26.2575 17.1416 25.85L14.292 20.9323C14.1843 20.7467 14.0599 20.5731 13.9179 20.4125C13.7768 20.2519 13.6209 20.1062 13.451 19.9762C13.2802 19.8463 13.0992 19.734 12.907 19.6402C12.7149 19.5455 12.5163 19.4713 12.3093 19.4156C12.1023 19.3608 11.8925 19.3265 11.679 19.3135C11.4655 19.2996 11.252 19.307 11.0404 19.3348C10.8287 19.3636 10.6208 19.4128 10.4185 19.4815C10.2162 19.5511 10.0221 19.6393 9.83741 19.747C9.78449 19.7767 9.73996 19.8166 9.70377 19.8649C9.66665 19.9131 9.64062 19.9661 9.62488 20.0254C9.60908 20.0839 9.60534 20.1433 9.61373 20.2036C9.62114 20.264 9.64062 20.3197 9.67124 20.3726C9.70095 20.4255 9.74088 20.4701 9.78822 20.5072C9.83649 20.5434 9.89032 20.5703 9.94881 20.5861C10.0073 20.6009 10.0667 20.6056 10.127 20.5972C10.1865 20.5889 10.243 20.5703 10.295 20.5397C10.4287 20.4617 10.568 20.3986 10.7137 20.3485C10.8594 20.2992 11.0088 20.264 11.1611 20.2436C11.3142 20.2232 11.4674 20.2176 11.6206 20.2278C11.7746 20.2371 11.9259 20.2621 12.0745 20.3011C12.2239 20.341 12.3668 20.3948 12.5051 20.4627C12.6434 20.5304 12.7743 20.6112 12.8968 20.7049C13.0194 20.7987 13.1317 20.9035 13.2329 21.0187C13.335 21.1347 13.425 21.259 13.5021 21.3927L16.3508 26.3105C16.5559 26.665 16.7248 27.0372 16.8566 27.4252C16.9884 27.8132 17.0804 28.2114 17.1333 28.618C17.1871 29.0246 17.1992 29.4329 17.1713 29.8423C17.1434 30.2507 17.0757 30.6536 16.968 31.049C16.9522 31.1084 16.9476 31.1678 16.956 31.2282C16.9634 31.2876 16.9819 31.3442 17.0126 31.3971C17.0423 31.45 17.0813 31.4945 17.1295 31.5317C17.1769 31.5688 17.2307 31.5957 17.2892 31.6124C17.3282 31.6227 17.3681 31.6282 17.4089 31.6291Z" fill="#4AB04A"/>
<path d="M10.4158 31.2679L9.97028 31.1631L10.4195 31.2503C10.5263 30.8039 10.5894 30.3518 10.6089 29.8942C10.6293 29.4366 10.6061 28.9808 10.5393 28.5269C10.4715 28.074 10.362 27.6312 10.2107 27.1986C10.0585 26.7661 9.86727 26.3521 9.63612 25.9567L8.58261 24.1365C8.51205 24.0139 8.44425 23.8914 8.37933 23.767C7.49009 22.0563 7.21343 19.9966 7.59586 17.9675L8.76176 11.9396C8.76727 11.9146 8.76917 11.8885 8.76917 11.8626C8.77101 11.7874 8.78032 11.7131 8.79697 11.6398C8.81461 11.5664 8.83973 11.495 8.87219 11.4272C8.90464 11.3595 8.94458 11.2954 8.99101 11.236C9.03743 11.1766 9.08937 11.1228 9.14694 11.0745C9.20543 11.0262 9.2676 10.9854 9.33441 10.9501C9.4013 10.9158 9.47087 10.8889 9.54425 10.8694C9.61664 10.8498 9.69087 10.8388 9.76609 10.835C9.84123 10.8313 9.91553 10.8359 9.98976 10.8489C10.1132 10.874 10.2283 10.9195 10.3351 10.9845C10.4427 11.0495 10.5365 11.1312 10.6154 11.2277C10.6952 11.3251 10.7564 11.4328 10.7982 11.5516C10.841 11.6695 10.8623 11.792 10.8632 11.9173L9.61756 20.0717C9.61199 20.1302 9.61756 20.1878 9.6333 20.2444C9.65002 20.3001 9.67605 20.3521 9.71127 20.3985C9.74753 20.4449 9.79114 20.483 9.84124 20.5127C9.89232 20.5433 9.94615 20.5618 10.0046 20.5712C10.0622 20.5804 10.1197 20.5777 10.1772 20.5647C10.2348 20.5516 10.2868 20.5275 10.3351 20.4941C10.3833 20.4607 10.4242 20.4189 10.4557 20.3697C10.4883 20.3215 10.5105 20.2676 10.5225 20.21L11.7719 12.0185C11.7738 11.9962 11.7738 11.973 11.7719 11.9508C11.7729 11.8329 11.7645 11.7159 11.746 11.5999C11.7265 11.4839 11.6986 11.3706 11.6597 11.2592C11.6216 11.1488 11.5733 11.042 11.5167 10.939C11.4591 10.8369 11.3932 10.7394 11.3199 10.6485C11.2456 10.5575 11.164 10.473 11.0758 10.3959C10.9867 10.319 10.8929 10.2502 10.7917 10.1899C10.6915 10.1296 10.5866 10.0785 10.4771 10.0358C10.3675 9.99404 10.2553 9.96159 10.1401 9.93929C10.0027 9.91608 9.86445 9.90775 9.72524 9.91424C9.58694 9.92073 9.44956 9.94113 9.31494 9.97641C9.18038 10.0126 9.05133 10.0618 8.92694 10.1249C8.80255 10.1881 8.68655 10.2632 8.57887 10.3514C8.4712 10.4396 8.37376 10.538 8.28648 10.6466C8.1992 10.7552 8.12405 10.8721 8.06182 10.9965C7.99966 11.1218 7.9514 11.2518 7.91704 11.3873C7.88268 11.5219 7.86228 11.6593 7.85671 11.7985L6.71127 17.7948C6.2843 20.0188 6.59061 22.2967 7.57546 24.1903C7.64602 24.3277 7.72025 24.4622 7.79822 24.5969L8.85271 26.4171C9.05317 26.7605 9.21933 27.1207 9.35114 27.4966C9.48294 27.8725 9.57855 28.2568 9.63704 28.6513C9.69553 29.0449 9.71592 29.4413 9.6992 29.8385C9.68163 30.2367 9.62773 30.6293 9.53586 31.0173L9.97028 31.164L10.4158 31.2679Z" fill="#4AB04A"/>
<path d="M28.5036 23.8334C28.5945 23.8334 28.6772 23.8083 28.7533 23.7592C28.8294 23.7091 28.8851 23.6432 28.9213 23.5596L30.3507 20.322C30.3759 20.2662 30.3888 20.2078 30.3898 20.1474C30.3916 20.0871 30.3814 20.0277 30.3591 19.9711C30.3378 19.9144 30.3062 19.8643 30.2644 19.8207C30.2227 19.7762 30.1735 19.7419 30.1187 19.7177C30.063 19.6926 30.0055 19.6796 29.9442 19.6778C29.8839 19.6769 29.8254 19.687 29.7688 19.7084C29.7121 19.7307 29.662 19.7622 29.6184 19.804C29.5738 19.8458 29.5404 19.895 29.5153 19.9497L28.0859 23.192C28.0618 23.2477 28.0488 23.3062 28.0469 23.3665C28.046 23.4278 28.0553 23.4863 28.0776 23.5429C28.0989 23.5995 28.1314 23.6497 28.1732 23.6942C28.2149 23.7378 28.2632 23.7722 28.3189 23.7963C28.3783 23.8213 28.4395 23.8344 28.5036 23.8334Z" fill="#4AB04A"/>
<path d="M22.5857 31.6309C22.6266 31.6309 22.6664 31.6254 22.7064 31.6142C22.7649 31.5985 22.8178 31.5715 22.866 31.5344C22.9143 31.4973 22.9533 31.4527 22.983 31.3998C23.0127 31.3469 23.0321 31.2903 23.0396 31.23C23.047 31.1696 23.0433 31.1102 23.0276 31.0517C22.919 30.6554 22.8512 30.2535 22.8234 29.8441C22.7955 29.4348 22.8085 29.0264 22.8614 28.6198C22.9143 28.2123 23.0062 27.815 23.138 27.4261C23.2698 27.0381 23.4388 26.6659 23.6448 26.3113L26.4954 21.3936C26.5724 21.2599 26.6624 21.1355 26.7645 21.0195C26.8666 20.9045 26.978 20.7995 27.1006 20.7058C27.2231 20.613 27.354 20.5322 27.4914 20.4645C27.6297 20.3967 27.7735 20.3429 27.922 20.3029C28.0715 20.263 28.2219 20.2389 28.376 20.2287C28.5291 20.2194 28.6822 20.2241 28.8354 20.2445C28.9876 20.2649 29.1371 20.3001 29.2828 20.3503C29.4285 20.3995 29.5678 20.4635 29.7005 20.5406C29.7535 20.5712 29.81 20.5898 29.8695 20.5981C29.9298 20.6065 29.9892 20.6018 30.0477 20.5869C30.1062 20.5712 30.16 20.5452 30.2074 20.5081C30.2556 20.4709 30.2955 20.4264 30.3252 20.3735C30.3558 20.3215 30.3754 20.2649 30.3837 20.2045C30.3911 20.1442 30.3874 20.0848 30.3725 20.0264C30.3568 19.9679 30.3308 19.914 30.2937 19.8658C30.2575 19.8175 30.2129 19.7776 30.16 19.7479C29.9753 19.6402 29.7813 19.5511 29.5789 19.4824C29.3766 19.4128 29.1687 19.3645 28.957 19.3357C28.7445 19.3069 28.5319 19.2995 28.3184 19.3134C28.1049 19.3274 27.8942 19.3617 27.6881 19.4165C27.4811 19.4713 27.2816 19.5464 27.0895 19.6402C26.8973 19.7349 26.7163 19.8472 26.5455 19.9771C26.3756 20.1071 26.2197 20.2528 26.0777 20.4134C25.9366 20.574 25.8122 20.7475 25.7045 20.9332L22.854 25.8509C22.6173 26.2584 22.4242 26.6845 22.2729 27.1309C22.1216 27.5765 22.0148 28.0332 21.9545 28.5001C21.8933 28.9669 21.8793 29.4357 21.9109 29.9054C21.9434 30.376 22.0213 30.8382 22.1448 31.2921C22.1717 31.3924 22.2265 31.4732 22.3081 31.5363C22.3908 31.5994 22.4826 31.6309 22.5857 31.6309Z" fill="#4AB04A"/>
<path d="M30.0343 31.6003C30.0668 31.6003 30.0984 31.5965 30.1308 31.5891C30.1893 31.5771 30.2431 31.5548 30.2923 31.5214C30.3415 31.4879 30.3824 31.4462 30.4149 31.3961C30.4473 31.3459 30.4687 31.2921 30.4789 31.2327C30.4891 31.1742 30.4882 31.1157 30.4752 31.0573C30.3805 30.6674 30.323 30.271 30.3044 29.87C30.2849 29.4691 30.3044 29.069 30.362 28.6718C30.4195 28.2744 30.5142 27.8855 30.6469 27.5068C30.7787 27.1272 30.9458 26.7642 31.1472 26.4171L32.2017 24.5969C32.2788 24.466 32.3548 24.3277 32.4254 24.1903C33.4093 22.2967 33.7156 20.0253 33.2896 17.7948L32.1432 11.7985C32.1376 11.6593 32.1182 11.5219 32.0829 11.3873C32.0485 11.2518 32.0003 11.1218 31.9381 10.9965C31.8759 10.8721 31.8007 10.7552 31.7144 10.6466C31.6271 10.538 31.5296 10.4396 31.421 10.3514C31.3134 10.2632 31.1974 10.1881 31.073 10.1249C30.9495 10.0618 30.8195 10.0126 30.685 9.97641C30.5504 9.94113 30.4139 9.92073 30.2747 9.91424C30.1355 9.90775 29.9972 9.91608 29.8607 9.93929C29.7456 9.96159 29.6333 9.99313 29.5237 10.0349C29.4142 10.0767 29.3094 10.1278 29.2091 10.1872C29.1079 10.2475 29.0132 10.3152 28.925 10.3923C28.8359 10.4684 28.7543 10.5519 28.6809 10.6429C28.6067 10.7329 28.5408 10.8295 28.4832 10.9316C28.4257 11.0337 28.3774 11.1404 28.3384 11.2509C28.2994 11.3613 28.2707 11.4746 28.2511 11.5906C28.2317 11.7066 28.2224 11.8226 28.2233 11.9396C28.2224 11.9628 28.2224 11.9851 28.2233 12.0083L29.4736 20.1999C29.483 20.2593 29.5033 20.3159 29.5349 20.3679C29.5665 20.4198 29.6064 20.4635 29.6546 20.4997C29.7039 20.5359 29.7577 20.5609 29.8171 20.5758C29.8755 20.5897 29.935 20.5925 29.9953 20.5832C30.0547 20.5739 30.1104 20.5535 30.1624 20.522C30.2144 20.4913 30.258 20.4505 30.2942 20.4013C30.3304 20.353 30.3555 20.2982 30.3694 20.2398C30.3842 20.1803 30.3861 20.1209 30.3768 20.0606L29.133 11.9062C29.1339 11.7799 29.1553 11.6584 29.198 11.5396C29.2397 11.4217 29.301 11.314 29.3808 11.2165C29.4597 11.1191 29.5534 11.0383 29.6611 10.9733C29.7688 10.9083 29.8839 10.8638 30.0064 10.8388C30.0807 10.8257 30.155 10.8211 30.2311 10.8248C30.3062 10.8276 30.3796 10.8397 30.4529 10.8592C30.5253 10.8786 30.595 10.9056 30.6618 10.9399C30.7286 10.9742 30.7917 11.016 30.8492 11.0643C30.9068 11.1125 30.9597 11.1664 31.0062 11.2258C31.0516 11.2852 31.0915 11.3483 31.124 11.417C31.1565 11.4848 31.1816 11.5554 31.1992 11.6287C31.2159 11.702 31.2252 11.7772 31.2271 11.8523C31.2271 11.8784 31.2298 11.9043 31.2345 11.9294L32.3873 17.9619C32.779 19.9919 32.4997 22.0507 31.6104 23.7605C31.5454 23.8914 31.4805 24.0093 31.4071 24.1309L30.3527 25.9511C30.1225 26.3456 29.9322 26.7577 29.7809 27.1884C29.6296 27.6192 29.5201 28.06 29.4532 28.5121C29.3864 28.9632 29.3622 29.4171 29.3818 29.8729C29.4012 30.3295 29.4643 30.7798 29.5692 31.2234C29.5943 31.3329 29.65 31.422 29.7363 31.4926C29.8236 31.5632 29.9229 31.5984 30.0343 31.6003Z" fill="#4AB04A"/>
<mask id="mask1_10984_226" style="mask-type:luminance" maskUnits="userSpaceOnUse" x="20" y="30" width="12" height="5">
<path d="M20.8984 30.6934H31.3539V34.332H20.8984V30.6934Z" fill="white"/>
</mask>
<g mask="url(#mask1_10984_226)">
<path d="M21.9171 34.3418H30.3778C30.4865 34.3418 30.5913 34.3204 30.6925 34.2787C30.7928 34.2369 30.8819 34.1775 30.9589 34.1004C31.036 34.0225 31.0953 33.9334 31.1371 33.8331C31.1789 33.7319 31.2002 33.6271 31.2002 33.5176V31.5274C31.2002 31.4179 31.1789 31.313 31.1371 31.2128C31.0953 31.1116 31.036 31.0225 30.9589 30.9454C30.8819 30.8675 30.7928 30.808 30.6925 30.7663C30.5913 30.7245 30.4865 30.7031 30.3778 30.7031H26.082C26.0245 30.7078 25.9697 30.7227 25.9178 30.7477C25.8658 30.7728 25.8202 30.8062 25.7804 30.8489C25.7414 30.8916 25.7117 30.9398 25.6903 30.9937C25.669 31.0475 25.6587 31.1032 25.6587 31.1608C25.6587 31.2193 25.669 31.2749 25.6903 31.3288C25.7117 31.3826 25.7414 31.4309 25.7804 31.4736C25.8202 31.5163 25.8658 31.5497 25.9178 31.5747C25.9697 31.5998 26.0245 31.6147 26.082 31.6193H30.2878V33.4247H22.008V31.6193H24.376C24.4335 31.6147 24.4882 31.5998 24.5402 31.5747C24.5922 31.5497 24.6387 31.5163 24.6776 31.4736C24.7166 31.4309 24.7473 31.3826 24.7677 31.3288C24.789 31.2749 24.8002 31.2193 24.8002 31.1608C24.8002 31.1032 24.789 31.0475 24.7677 30.9937C24.7473 30.9398 24.7166 30.8916 24.6776 30.8489C24.6387 30.8062 24.5922 30.7728 24.5402 30.7477C24.4882 30.7227 24.4335 30.7078 24.376 30.7031H21.9171C21.8076 30.7031 21.7027 30.7245 21.6024 30.7663C21.5012 30.808 21.4122 30.8675 21.3351 30.9445C21.2581 31.0216 21.1987 31.1107 21.1569 31.2118C21.1142 31.313 21.0938 31.4179 21.0938 31.5274V33.5176C21.0938 33.6271 21.1142 33.7319 21.1569 33.8331C21.1987 33.9343 21.2581 34.0234 21.3351 34.1004C21.4122 34.1775 21.5012 34.2369 21.6024 34.2787C21.7027 34.3214 21.8076 34.3418 21.9171 34.3418Z" fill="#4AB04A"/>
</g>
<mask id="mask2_10984_226" style="mask-type:luminance" maskUnits="userSpaceOnUse" x="8" y="30" width="11" height="5">
<path d="M8.75684 30.6934H18.9747V34.332H8.75684V30.6934Z" fill="white"/>
</mask>
<g mask="url(#mask2_10984_226)">
<path d="M9.60747 34.3418H18.0673C18.1768 34.3418 18.2817 34.3204 18.382 34.2787C18.4831 34.2369 18.5713 34.1775 18.6483 34.1004C18.7254 34.0225 18.7857 33.9334 18.8275 33.8331C18.8692 33.7319 18.8897 33.6271 18.8897 33.5176V31.5274C18.8897 31.4179 18.8692 31.313 18.8275 31.2128C18.7857 31.1116 18.7254 31.0225 18.6483 30.9454C18.5713 30.8675 18.4831 30.808 18.382 30.7663C18.2817 30.7245 18.1768 30.7031 18.0673 30.7031H15.9648C15.9073 30.7078 15.8525 30.7227 15.8006 30.7477C15.7486 30.7728 15.7031 30.8062 15.6632 30.8489C15.6242 30.8916 15.5945 30.9398 15.5732 30.9937C15.5518 31.0475 15.5416 31.1032 15.5416 31.1608C15.5416 31.2193 15.5518 31.2749 15.5732 31.3288C15.5945 31.3826 15.6242 31.4309 15.6632 31.4736C15.7031 31.5163 15.7486 31.5497 15.8006 31.5747C15.8525 31.5998 15.9073 31.6147 15.9648 31.6193H17.9763V33.4247H9.69842V31.6193H14.0722C14.1298 31.6147 14.1845 31.5998 14.2365 31.5747C14.2885 31.5497 14.3349 31.5163 14.3739 31.4736C14.4128 31.4309 14.4435 31.3826 14.4639 31.3288C14.4853 31.2749 14.4955 31.2193 14.4955 31.1608C14.4955 31.1032 14.4853 31.0475 14.4639 30.9937C14.4435 30.9398 14.4128 30.8916 14.3739 30.8489C14.3349 30.8062 14.2885 30.7728 14.2365 30.7477C14.1845 30.7227 14.1298 30.7078 14.0722 30.7031H9.60747C9.49796 30.7031 9.39304 30.7245 9.29186 30.7663C9.1916 30.808 9.10255 30.8675 9.0255 30.9445C8.94753 31.0216 8.88812 31.1107 8.84635 31.2118C8.80458 31.313 8.7832 31.4179 8.7832 31.5274V33.5176C8.7832 33.6271 8.80458 33.7319 8.84635 33.8331C8.88812 33.9343 8.94753 34.0234 9.0255 34.1004C9.10255 34.1775 9.1916 34.2369 9.29186 34.2787C9.39304 34.3214 9.49796 34.3418 9.60747 34.3418Z" fill="#4AB04A"/>
</g>
</svg>
