<svg width="40" height="40" viewBox="0 0 40 40" fill="none" xmlns="http://www.w3.org/2000/svg">
<mask id="mask0_10984_197" style="mask-type:luminance" maskUnits="userSpaceOnUse" x="5" y="4" width="30" height="32">
<path d="M5.42676 4.58008H34.5831V35.4142H5.42676V4.58008Z" fill="white"/>
</mask>
<g mask="url(#mask0_10984_197)">
<path fill-rule="evenodd" clip-rule="evenodd" d="M7.24345 18.9028C7.80745 18.5617 8.27748 18.0798 8.60424 17.5081C8.93217 18.0798 9.4022 18.5617 9.9662 18.9028C9.4022 19.2438 8.93217 19.7269 8.60535 20.2986C8.27853 19.7269 7.80745 19.2438 7.24345 18.9028ZM8.60535 22.1425C8.83381 22.1425 9.02837 21.9752 9.06332 21.7479C9.24476 20.5751 10.1433 19.6143 11.2985 19.3575C11.7795 19.2493 11.7795 18.5563 11.2985 18.4492C10.1433 18.1923 9.24476 17.2305 9.06332 16.0577C8.98247 15.5373 8.22719 15.5363 8.14627 16.0577C7.96483 17.2305 7.0664 18.1923 5.91107 18.4492C5.43014 18.5552 5.43123 19.2504 5.91107 19.3575C7.0664 19.6143 7.96483 20.5751 8.14627 21.7479C8.18129 21.9752 8.37689 22.1425 8.60535 22.1425ZM31.4189 18.7935C31.092 18.2251 30.6254 17.7442 30.0646 17.4053C30.6254 17.0665 31.092 16.5867 31.4189 16.0183C31.7435 16.5867 32.2124 17.0665 32.772 17.4053C32.2124 17.7442 31.7435 18.2251 31.4189 18.7935ZM34.1023 16.9507C32.9524 16.6948 32.0572 15.7385 31.8768 14.5701C31.796 14.0487 31.0418 14.0487 30.9609 14.5701C30.7795 15.7385 29.8854 16.6948 28.7344 16.9507C28.2524 17.0577 28.2535 17.7518 28.7344 17.86C29.8854 18.1158 30.7795 19.0722 30.9609 20.2406C31.0418 20.7631 31.796 20.762 31.8768 20.2406C32.0572 19.0722 32.9524 18.1158 34.1023 17.86C34.5842 17.7518 34.5854 17.0589 34.1023 16.9507ZM26.5932 34.4838C26.3604 32.7863 26.0511 30.3412 26.3025 29.2854C26.7473 29.3827 27.1933 29.4461 27.6272 29.5084C28.718 29.6647 29.7488 29.8111 30.4614 30.4779C31.3161 31.2758 31.4167 33.3602 31.4244 34.4838H26.5932ZM9.35847 30.4779C10.0722 29.8111 11.1029 29.6647 12.1949 29.5084C12.6276 29.4461 13.0736 29.3827 13.5185 29.2854C13.7699 30.3412 13.4617 32.7863 13.2288 34.4838H8.39656C8.40312 33.3602 8.50588 31.2758 9.35847 30.4779ZM12.1336 25.1155C12.3927 26.8326 13.7338 27.0753 14.3459 28.811C14.7208 29.8712 14.4913 32.0682 14.1644 34.4838H16.533V30.9227C16.533 30.6473 16.5385 30.3937 16.5429 30.1686C16.5648 28.9531 16.5756 28.3432 15.8991 27.1365C15.4302 26.2971 14.7492 25.7888 14.3524 24.7679C13.7513 23.2191 14.6563 20.5576 15.0126 18.6984C15.0411 18.5497 14.9569 18.4076 14.8148 18.3596L14.6607 18.3082C14.5153 18.259 14.359 18.3289 14.2967 18.4689C14.2027 18.6809 14.1011 18.9061 13.9928 19.1421C13.1687 20.9642 11.9227 23.7175 12.1336 25.1155ZM14.1262 10.5947C14.0792 9.83944 14.0836 9.07872 14.1372 8.33328C14.1732 7.84141 14.3907 7.44134 14.7842 7.14514C15.7351 6.43033 16.803 5.94175 17.9671 5.67943C18.5169 5.55591 19.0437 5.70347 19.4503 6.09477C19.8974 6.52542 20.3094 6.99105 20.6723 7.48403C18.0326 7.16921 15.5657 8.48521 14.1316 10.6668C14.1295 10.6428 14.1273 10.6188 14.1262 10.5947ZM24.7919 10.9915C23.6354 9.35413 21.8342 8.36934 19.9116 8.36934C16.6773 8.36934 14.018 11.1008 13.7732 14.558C14.0672 14.1164 14.4071 13.7142 14.7918 13.3579C16.4139 11.8506 18.4644 11.3795 20.4395 11.0964C21.985 10.8735 23.3633 10.8385 24.7919 10.9915ZM25.3833 12.0058C25.8521 12.9961 26.085 14.088 26.0653 15.216C24.8881 13.9339 23.453 12.8332 21.7227 11.8867C22.9775 11.7817 24.1492 11.8222 25.3833 12.0058ZM16.9932 27.2371C17.3812 26.7583 17.6949 26.2053 17.9441 25.5625C19.2175 26.1473 20.598 26.1539 21.868 25.5418C22.1195 26.1932 22.4364 26.7529 22.8277 27.2371C22.1993 28.599 22.3599 29.5433 22.3599 30.9227V34.4838H17.461V30.9227C17.461 29.5444 17.6228 28.6023 16.9932 27.2371ZM15.1001 22.9754C15.7078 23.8782 16.3909 24.5909 17.1288 25.0969C16.956 25.5658 16.7484 25.979 16.5014 26.343C16.0631 25.6828 15.4968 25.1516 15.217 24.4302C15.0706 24.052 15.0498 23.5459 15.1001 22.9754ZM24.605 24.4302C24.7602 24.029 24.7744 23.4836 24.711 22.8716C24.0978 23.8017 23.4125 24.5362 22.6791 25.0598C22.8539 25.544 23.066 25.9691 23.3207 26.343C23.759 25.6806 24.323 25.1549 24.605 24.4302ZM13.9655 17.5212C13.9054 17.1354 13.8705 16.7703 13.8617 16.4337C14.2126 15.4816 14.7361 14.6771 15.4214 14.04C16.6697 12.8813 18.1944 12.3993 20.0755 12.0933C22.5862 13.2716 24.5132 14.7198 25.957 16.5134C25.9429 16.8206 25.9046 17.1572 25.8434 17.5135C25.5548 17.354 25.204 17.3135 24.8673 17.4261L24.7132 17.4775C24.1339 17.6709 23.7831 18.271 23.8989 18.8733C23.9819 19.3083 24.0913 19.775 24.2071 20.2691C24.2979 20.6549 24.3918 21.0549 24.4749 21.4517C23.7164 22.8682 22.1741 25.0696 19.9116 25.0696C17.5943 25.0696 16.0685 22.9295 15.3252 21.5501C15.4138 21.1216 15.5165 20.6877 15.6138 20.2691C15.7297 19.775 15.84 19.3083 15.9231 18.8733C16.0379 18.271 15.6871 17.6709 15.1088 17.4775L14.9547 17.4261C14.6126 17.3114 14.2574 17.355 13.9655 17.5212ZM27.6873 25.1155C27.8994 23.7175 26.6522 20.9642 25.827 19.1421C25.721 18.9061 25.6193 18.6809 25.5242 18.4689C25.4619 18.3289 25.3056 18.2601 25.1602 18.3082L25.0061 18.3596C24.864 18.4076 24.781 18.5497 24.8094 18.6984C25.1646 20.5576 26.0696 23.2202 25.4685 24.7679C25.0717 25.7888 24.3897 26.3004 23.9208 27.1365C23.2453 28.3432 23.2562 28.9531 23.2792 30.1686C23.2825 30.3937 23.2868 30.6473 23.2868 30.9227V34.4838H25.6575C25.3297 32.0693 25.1012 29.8712 25.4751 28.811C26.0871 27.0764 27.4282 26.8326 27.6873 25.1155ZM31.0943 29.798C29.8985 28.6798 28.2141 28.7149 26.7047 28.4186C27.3605 27.4448 28.3508 26.9365 28.6044 25.2554C28.8579 23.5842 27.5944 20.7937 26.673 18.7574C26.6391 18.6842 26.6063 18.612 26.5746 18.5421C26.767 17.7628 26.8752 17.0249 26.8883 16.3987C26.9583 15.9659 26.9943 15.5232 26.9943 15.0805C26.9943 13.5601 26.5735 12.0583 25.7724 10.7882H25.7713C24.8564 9.33773 23.5153 8.28082 21.9872 7.77472C21.7446 7.37905 21.4768 6.99321 21.1893 6.62928C20.8559 6.20954 20.4876 5.80293 20.0919 5.42256C19.4635 4.81812 18.6141 4.57985 17.7638 4.77222C16.4686 5.06406 15.2859 5.60619 14.2278 6.40082C13.6191 6.85878 13.2671 7.5037 13.2124 8.26554C13.1556 9.05249 13.1513 9.85478 13.2004 10.6516C13.231 11.1554 13.2846 11.6681 13.3589 12.1774C13.0168 13.0737 12.8277 14.0541 12.8277 15.0805C12.8277 15.5221 12.8638 15.9648 12.9326 16.3965C12.9446 17.0512 13.0474 17.8032 13.2288 18.5825C13.2026 18.6394 13.1764 18.6984 13.149 18.7574C12.2276 20.7937 10.9641 23.5842 11.2166 25.2554C11.4713 26.9376 12.4604 27.4448 13.1162 28.4175C11.609 28.7148 9.92352 28.6798 8.72778 29.798C7.58338 30.867 7.4544 33.1143 7.47079 34.9527C7.47302 35.2085 7.6807 35.4139 7.93427 35.4139H31.8867C32.1414 35.4139 32.348 35.2085 32.3501 34.9527C32.3665 33.1143 32.2387 30.867 31.0943 29.798Z" fill="#4AB04A"/>
</g>
</svg>
