<svg width="40" height="40" viewBox="0 0 40 40" fill="none" xmlns="http://www.w3.org/2000/svg">
<path d="M16.8557 27.5535C16.0659 27.4122 15.4894 27.2494 15.092 27.0602C15.0062 27.0185 14.9381 26.958 14.8876 26.8785C14.8358 26.7977 14.8107 26.7094 14.8107 26.6149V25.3999C14.8107 25.3494 14.7955 25.3053 14.7614 25.2674C14.7286 25.2283 14.687 25.2056 14.6378 25.1993L14.2278 25.1362C14.1811 25.1286 14.137 25.1375 14.0966 25.1615C13.988 25.2321 13.8745 25.2914 13.7534 25.3393C13.6335 25.3872 13.5099 25.4226 13.3825 25.4453C13.2551 25.468 13.1264 25.4781 12.9977 25.4756C12.8678 25.4731 12.7403 25.4579 12.6141 25.4289C12.488 25.4011 12.3656 25.3608 12.2471 25.3078C12.1297 25.2548 12.0174 25.1917 11.9115 25.116C11.8067 25.0416 11.7096 24.9571 11.6213 24.8625C11.5317 24.7678 11.4535 24.6656 11.3854 24.5559C11.2276 24.2998 11.1343 24.0222 11.104 23.7232C11.0737 23.4242 11.1103 23.1328 11.2138 22.8502C11.2415 22.772 11.2756 22.6962 11.3134 22.6218C11.3513 22.5474 11.3942 22.4754 11.4421 22.4074C11.4888 22.3379 11.5406 22.2724 11.596 22.2105C11.6516 22.1487 11.7121 22.0907 11.7752 22.0352C11.8383 21.9809 11.9039 21.9305 11.9745 21.885C12.0439 21.8396 12.1158 21.798 12.1915 21.7614C12.2659 21.7248 12.3429 21.6933 12.4224 21.6655C12.5006 21.639 12.5814 21.6176 12.6634 21.6011C12.7454 21.5848 12.8274 21.5734 12.9107 21.5684C12.9939 21.5621 13.0772 21.5621 13.1604 21.5671C13.2437 21.5709 13.3257 21.5823 13.4077 21.5974C13.4897 21.6126 13.5705 21.634 13.6499 21.6592C13.7294 21.6857 13.8064 21.716 13.8821 21.7526C13.9578 21.7879 14.0297 21.8283 14.1004 21.8737C14.1697 21.9191 14.2366 21.9683 14.301 22.0225C14.3653 22.0756 14.4246 22.1336 14.4814 22.1954C14.5091 22.2181 14.5406 22.232 14.5772 22.2358C14.6391 22.2459 14.6933 22.2307 14.74 22.1891C14.7879 22.1487 14.8119 22.097 14.8119 22.0339V20.8543C14.8119 20.8127 14.817 20.771 14.8283 20.7307C14.8384 20.6903 14.8535 20.6524 14.8737 20.6158C14.8939 20.5792 14.9179 20.5465 14.9456 20.5162C14.9747 20.4859 15.0062 20.4594 15.0415 20.4367C15.0768 20.4152 15.1134 20.3976 15.1538 20.3849C15.1929 20.3724 15.2333 20.3648 15.2749 20.3623C15.3166 20.3598 15.3582 20.3623 15.3985 20.3699C15.4389 20.3774 15.478 20.39 15.5158 20.4089C15.7303 20.5111 16.1669 20.6663 17.0298 20.8215C19.0004 21.1798 20.9711 21.1798 22.9417 20.8215C23.8047 20.6663 24.2412 20.5111 24.4556 20.4089C24.4935 20.3913 24.5326 20.3787 24.573 20.3699C24.6134 20.3623 24.655 20.3598 24.6966 20.3623C24.737 20.3648 24.7786 20.3724 24.8177 20.3863C24.8568 20.3989 24.8947 20.4165 24.9288 20.438C24.9641 20.4607 24.9956 20.4872 25.0246 20.5162C25.0537 20.5465 25.0776 20.5806 25.0978 20.6171C25.118 20.6524 25.1332 20.6916 25.1433 20.7319C25.1534 20.771 25.1596 20.8127 25.1596 20.8543V22.0339C25.1584 22.097 25.1823 22.1487 25.2303 22.1891C25.277 22.2307 25.3325 22.2459 25.3943 22.2358C25.4296 22.232 25.4612 22.2181 25.4889 22.1954C25.5457 22.1336 25.605 22.0756 25.6694 22.0213C25.7324 21.967 25.7993 21.9166 25.8699 21.8712C25.9406 21.8257 26.0125 21.7841 26.0882 21.7488C26.1639 21.7122 26.2408 21.6807 26.3203 21.6541C26.3998 21.6289 26.4806 21.6075 26.5638 21.5911C26.6458 21.576 26.7278 21.5659 26.8124 21.5608C26.8956 21.5558 26.9789 21.5558 27.0621 21.5608C27.1454 21.5671 27.2287 21.5772 27.3107 21.5936C27.3927 21.61 27.4734 21.6314 27.5529 21.6579C27.6324 21.6857 27.7094 21.7172 27.7838 21.7538C27.8595 21.7904 27.9326 21.832 28.0021 21.8775C28.0715 21.9242 28.1383 21.9746 28.2027 22.0289C28.2657 22.0831 28.325 22.1424 28.3805 22.2042C28.4373 22.2661 28.489 22.3316 28.5357 22.401C28.5836 22.4704 28.6265 22.5423 28.6644 22.6168C28.7035 22.6912 28.7363 22.7682 28.7654 22.8464C28.8145 22.9851 28.8486 23.1277 28.8675 23.2753C28.8852 23.4217 28.8865 23.568 28.8713 23.7156C28.8562 23.862 28.8246 24.0058 28.7767 24.1459C28.73 24.2859 28.6669 24.4183 28.5899 24.5445C28.5117 24.6694 28.4209 24.7855 28.3174 24.8902C28.214 24.9949 28.0992 25.0883 27.9756 25.1665C27.8507 25.246 27.7195 25.3103 27.5794 25.3595C27.4406 25.4087 27.2981 25.4428 27.1517 25.4592C26.6887 25.5122 26.2623 25.4112 25.8712 25.1577C25.8321 25.1324 25.7879 25.1236 25.7412 25.1324L25.3325 25.1943C25.282 25.2018 25.2416 25.2245 25.2076 25.2624C25.1748 25.3015 25.1584 25.3456 25.1596 25.3961V26.6098C25.1596 26.7057 25.1344 26.794 25.0827 26.8735C25.0322 26.9542 24.9641 27.0147 24.8783 27.0564C24.4821 27.2444 23.9056 27.4059 23.1158 27.5497C21.0278 27.9269 18.9399 27.9269 16.8519 27.5497L16.8557 27.5535ZM24.1768 25.3999C24.1756 25.2573 24.2008 25.1198 24.25 24.9848C24.2992 24.8511 24.3699 24.73 24.4619 24.6215C24.5553 24.5143 24.6638 24.4247 24.7887 24.3566C24.9136 24.2871 25.0461 24.2417 25.1874 24.2215L25.5974 24.1597C25.8914 24.113 26.1626 24.1724 26.4124 24.3338C26.6042 24.4613 26.8136 24.5105 27.0419 24.484C27.158 24.4701 27.269 24.436 27.3737 24.3817C27.4772 24.3275 27.5693 24.2556 27.6475 24.1686C27.727 24.0802 27.7876 23.9818 27.8305 23.8721C27.8734 23.7623 27.8948 23.6488 27.896 23.5314C27.8974 23.4128 27.8784 23.2993 27.838 23.1883C27.7989 23.0773 27.7396 22.9776 27.6639 22.888C27.587 22.7985 27.4974 22.7253 27.3952 22.6685C27.2918 22.6117 27.182 22.5739 27.0659 22.5575C26.9082 22.5348 26.7543 22.5499 26.6042 22.6054C26.4553 22.6596 26.3266 22.7455 26.2206 22.8653C26.039 23.0596 25.8156 23.1769 25.552 23.216C25.4675 23.2299 25.3817 23.2337 25.2959 23.2286C25.2101 23.2236 25.1255 23.2097 25.0436 23.1857C24.9603 23.1618 24.8808 23.1303 24.8052 23.0899C24.7294 23.0495 24.6588 23.0003 24.5932 22.9448C24.5276 22.8893 24.4696 22.8262 24.4166 22.7581C24.3648 22.6887 24.3207 22.6155 24.2854 22.5373C24.2488 22.459 24.2223 22.3783 24.2033 22.2938C24.1844 22.2093 24.1756 22.1248 24.1756 22.039V21.5608C23.8766 21.6453 23.5246 21.7248 23.1183 21.7992C21.0304 22.1765 18.9424 22.1765 16.8545 21.7992C16.4469 21.7236 16.0962 21.6453 15.796 21.5608V22.039C15.796 22.1248 15.7871 22.2093 15.7682 22.2938C15.7505 22.3783 15.7228 22.459 15.6875 22.5373C15.6509 22.6155 15.6067 22.6887 15.555 22.7581C15.5033 22.8262 15.4452 22.8893 15.3796 22.9448C15.314 23.0003 15.2434 23.0495 15.1676 23.0899C15.092 23.1303 15.0125 23.1618 14.9292 23.1857C14.8473 23.2097 14.7627 23.2236 14.6769 23.2286C14.5911 23.2337 14.5054 23.2299 14.4208 23.216C14.1558 23.1782 13.9313 23.0609 13.7484 22.8653C13.6916 22.8048 13.6297 22.7518 13.5604 22.7076C13.491 22.6622 13.4178 22.6269 13.3383 22.6016C13.2601 22.5764 13.1806 22.5613 13.0986 22.5562C13.0166 22.5512 12.9346 22.5562 12.8539 22.5726C12.7732 22.5878 12.6962 22.6143 12.6217 22.6496C12.5473 22.6861 12.4792 22.7303 12.4161 22.7833C12.353 22.8375 12.2988 22.8968 12.2508 22.9649C12.2042 23.0331 12.1663 23.105 12.1373 23.182C12.112 23.2514 12.0944 23.322 12.0843 23.3952C12.0755 23.4684 12.0742 23.5415 12.0805 23.6147C12.0881 23.6879 12.1032 23.7598 12.1259 23.8305C12.1499 23.8998 12.1802 23.9667 12.2193 24.0285C12.2572 24.0916 12.3025 24.1496 12.353 24.2026C12.4048 24.2556 12.4615 24.301 12.5233 24.3414C12.5852 24.3805 12.6507 24.4133 12.7202 24.4373C12.7895 24.4625 12.8614 24.4789 12.9346 24.4878C13.1617 24.5143 13.3711 24.465 13.5616 24.3389C13.8115 24.1774 14.0827 24.1181 14.3766 24.1635L14.7867 24.2253C14.928 24.2468 15.0604 24.2909 15.1854 24.3603C15.3102 24.4284 15.4187 24.518 15.5121 24.6253C15.6055 24.7337 15.6761 24.8548 15.7253 24.9899C15.7745 25.1236 15.7985 25.2624 15.7972 25.405V26.2843C16.201 26.4155 16.6122 26.5152 17.0311 26.5846C19.0017 26.9428 20.9724 26.9428 22.943 26.5846C23.3618 26.5152 23.7732 26.4155 24.1768 26.2855V25.3999Z" fill="#4AB04A"/>
<path d="M16.8545 19.5236C16.0647 19.3823 15.4881 19.2195 15.0907 19.029C15.0049 18.9874 14.9368 18.9269 14.8864 18.8461C14.8346 18.7666 14.8094 18.6784 14.8094 18.5837V17.37C14.8094 17.3196 14.793 17.2754 14.7602 17.2376C14.7274 17.1997 14.6858 17.177 14.6365 17.1682L14.2278 17.1051C14.1811 17.0988 14.1369 17.1076 14.0953 17.1316C13.9868 17.2022 13.8732 17.2616 13.7521 17.3095C13.6323 17.3574 13.5086 17.3927 13.3812 17.4155C13.2538 17.4382 13.1251 17.4483 12.9964 17.4458C12.8665 17.4432 12.7391 17.4268 12.6129 17.3991C12.4867 17.3713 12.3644 17.3309 12.2458 17.278C12.1285 17.225 12.0162 17.1619 11.9102 17.0862C11.8055 17.0117 11.7083 16.9272 11.6201 16.8326C11.5305 16.738 11.4523 16.6358 11.3841 16.526C11.2277 16.2699 11.1343 15.9911 11.1041 15.6921C11.0738 15.3931 11.1104 15.1016 11.2125 14.8191C11.2403 14.7408 11.2744 14.6651 11.3122 14.5907C11.35 14.5163 11.3929 14.4444 11.4409 14.3763C11.4875 14.3068 11.5393 14.2412 11.5961 14.1794C11.6516 14.1176 11.7109 14.0595 11.774 14.0053C11.837 13.9498 11.9039 13.9006 11.9733 13.8539C12.0427 13.8085 12.1159 13.7669 12.1903 13.7303C12.2647 13.6937 12.3417 13.6622 12.4212 13.6357C12.5006 13.6092 12.5801 13.5877 12.6621 13.5713C12.7441 13.5549 12.8262 13.5435 12.9094 13.5372C12.9926 13.5322 13.0759 13.5309 13.1592 13.536C13.2425 13.541 13.3257 13.5511 13.4077 13.5675C13.4884 13.5827 13.5692 13.6029 13.6487 13.6294C13.7282 13.6546 13.8051 13.6862 13.8808 13.7214C13.9565 13.758 14.0285 13.7984 14.0991 13.8439C14.1685 13.8892 14.2366 13.9384 14.2997 13.9927C14.3641 14.0457 14.4233 14.1037 14.4801 14.1656C14.5079 14.1883 14.5394 14.2022 14.576 14.2059C14.6365 14.2186 14.6908 14.2046 14.7387 14.1656C14.7867 14.1252 14.8106 14.0734 14.8106 14.0104V12.8269C14.8106 12.7854 14.8157 12.745 14.8271 12.7046C14.8371 12.6643 14.8523 12.6251 14.8724 12.5885C14.8926 12.5519 14.9166 12.5191 14.9444 12.4888C14.9734 12.4586 15.0049 12.4321 15.0403 12.4106C15.0756 12.3879 15.1122 12.3703 15.1525 12.3576C15.1917 12.345 15.232 12.3374 15.2736 12.3349C15.3153 12.3324 15.3569 12.3349 15.3973 12.3425C15.4377 12.3501 15.4768 12.3639 15.5146 12.3816C15.7291 12.4838 16.1656 12.6377 17.0286 12.7942C18.9992 13.1512 20.9698 13.1512 22.9405 12.7942C23.8046 12.6377 24.2412 12.4838 24.4544 12.3816C24.4923 12.3639 24.5313 12.3513 24.5717 12.3438C24.6121 12.3349 24.6538 12.3324 24.6954 12.3349C24.7357 12.3374 24.7774 12.3463 24.8165 12.3589C24.8556 12.3715 24.8934 12.3892 24.9275 12.4106C24.9628 12.4334 24.9944 12.4599 25.0234 12.4901C25.0524 12.5204 25.0764 12.5532 25.0966 12.5898C25.1168 12.6264 25.1319 12.6643 25.142 12.7046C25.1521 12.745 25.1584 12.7854 25.1584 12.8269V14.0079C25.1571 14.0696 25.1811 14.1214 25.229 14.1618C25.2757 14.2046 25.3312 14.2198 25.393 14.2085C25.4284 14.2047 25.4599 14.1907 25.4877 14.1681C25.5444 14.1062 25.6037 14.0482 25.6681 13.994C25.7311 13.9397 25.798 13.8892 25.8686 13.8439C25.9393 13.7984 26.0112 13.758 26.0869 13.7214C26.1626 13.6848 26.2396 13.6533 26.3191 13.6281C26.3985 13.6016 26.4793 13.5801 26.5625 13.565C26.6446 13.5486 26.7265 13.5386 26.8111 13.5335C26.8944 13.5285 26.9776 13.5285 27.0609 13.5335C27.1442 13.5398 27.2274 13.5511 27.3094 13.5675C27.3914 13.5827 27.4722 13.6054 27.5517 13.6319C27.6311 13.6584 27.7081 13.6899 27.7825 13.7265C27.8582 13.7631 27.9314 13.8047 28.0008 13.8502C28.0702 13.8968 28.137 13.9473 28.2014 14.0015C28.2645 14.0558 28.3238 14.1151 28.3793 14.1769C28.4361 14.24 28.4878 14.3056 28.5345 14.3737C28.5824 14.4431 28.6253 14.515 28.6631 14.5894C28.7022 14.6639 28.7351 14.7408 28.7641 14.8191C28.865 15.1029 28.8991 15.3931 28.8675 15.6921C28.836 15.9911 28.7414 16.2687 28.5837 16.5248C28.5143 16.6345 28.4361 16.7355 28.3477 16.8301C28.2594 16.9234 28.1623 17.0079 28.0563 17.0824C27.9503 17.1568 27.8393 17.2199 27.7207 17.2729C27.6034 17.3247 27.481 17.365 27.3549 17.394C27.2287 17.4218 27.1012 17.4369 26.9726 17.4394C26.8426 17.442 26.7152 17.4319 26.5878 17.4092C26.4616 17.3864 26.338 17.3511 26.2168 17.3031C26.097 17.2552 25.9835 17.1972 25.875 17.1266C25.8346 17.1013 25.7904 17.0925 25.7438 17.1001L25.3338 17.1631C25.2845 17.1707 25.2429 17.1934 25.2114 17.2325C25.1785 17.2704 25.1622 17.3146 25.1622 17.365V18.5774C25.1622 18.6733 25.1369 18.7603 25.0865 18.841C25.0347 18.9218 24.9666 18.9824 24.8808 19.0227C24.4847 19.2132 23.9081 19.3747 23.1184 19.5186C22.0825 19.7053 21.038 19.7999 19.9858 19.7999C18.9336 19.8012 17.8902 19.709 16.8545 19.5236ZM24.1756 17.37C24.1744 17.2275 24.1983 17.0887 24.2475 16.9549C24.2967 16.8212 24.3686 16.7001 24.4607 16.5916C24.5541 16.4831 24.6625 16.3948 24.7875 16.3254C24.9124 16.2573 25.0448 16.2119 25.1862 16.1917L25.5974 16.1299C25.8926 16.082 26.1652 16.14 26.4162 16.3014C26.608 16.4288 26.8174 16.4781 27.0458 16.4528C27.1631 16.4389 27.2728 16.4049 27.3776 16.3494C27.4823 16.2951 27.5731 16.2245 27.6526 16.1374C27.7308 16.0491 27.7913 15.9507 27.8343 15.841C27.8772 15.7312 27.8999 15.6176 27.9011 15.5003C27.9024 15.3818 27.8835 15.2682 27.8431 15.1572C27.8027 15.0462 27.7447 14.9465 27.6677 14.8569C27.5921 14.7673 27.5025 14.6942 27.399 14.6374C27.2955 14.5793 27.1858 14.5427 27.0697 14.5264C26.912 14.5037 26.7581 14.5188 26.6092 14.573C26.4591 14.6273 26.3317 14.7144 26.2257 14.8329C26.0427 15.0285 25.8207 15.1446 25.557 15.1837C25.4713 15.1963 25.3867 15.2013 25.301 15.1963C25.2151 15.1912 25.1306 15.1774 25.0473 15.1534C24.9641 15.1307 24.8859 15.0979 24.8089 15.0575C24.7332 15.0171 24.6625 14.9692 24.597 14.9137C24.5326 14.8569 24.4733 14.7951 24.4216 14.7269C24.3699 14.6576 24.3257 14.5844 24.2891 14.5062C24.2538 14.4279 24.226 14.3472 24.2071 14.2627C24.1894 14.1782 24.1794 14.0936 24.1794 14.0079V13.5297C23.8816 13.6142 23.5309 13.6925 23.1222 13.7656C21.0342 14.1454 18.9475 14.1454 16.8595 13.7656C16.4507 13.6925 16.1 13.6142 15.801 13.5297V14.0079C15.801 14.0936 15.7922 14.1782 15.7732 14.2627C15.7556 14.3472 15.7279 14.4279 15.6925 14.5062C15.6559 14.5844 15.6118 14.6576 15.5601 14.7269C15.5083 14.7951 15.4503 14.8582 15.3846 14.9137C15.3191 14.9692 15.2484 15.0184 15.1727 15.0587C15.097 15.0991 15.0176 15.1307 14.9343 15.1546C14.851 15.1774 14.7677 15.1912 14.6807 15.1963C14.5949 15.2013 14.5104 15.1976 14.4246 15.1837C14.1571 15.1471 13.9313 15.031 13.7471 14.8329C13.6904 14.7724 13.6285 14.7207 13.5591 14.6765C13.4898 14.6311 13.4153 14.5957 13.3371 14.5706C13.2589 14.5453 13.1781 14.5302 13.0961 14.5251C13.0141 14.5201 12.9321 14.5251 12.8513 14.5415C12.7706 14.5579 12.6936 14.5831 12.6192 14.6197C12.5448 14.6551 12.4766 14.7005 12.4136 14.7534C12.3505 14.8064 12.2963 14.867 12.2483 14.9351C12.2016 15.002 12.1638 15.0751 12.1347 15.1521C12.1095 15.2215 12.0919 15.2922 12.0818 15.3653C12.073 15.4385 12.0717 15.5117 12.0793 15.5848C12.0856 15.658 12.1007 15.73 12.1246 15.8006C12.1474 15.87 12.1789 15.9368 12.2168 15.9987C12.2559 16.0618 12.3013 16.1198 12.3518 16.1728C12.4035 16.2245 12.4603 16.2711 12.5221 16.3115C12.5839 16.3507 12.6495 16.3835 12.7189 16.4074C12.7883 16.4327 12.8602 16.449 12.9334 16.4579C13.1604 16.4844 13.3711 16.4339 13.5616 16.3077C13.8115 16.1463 14.0827 16.0883 14.3754 16.1336L14.7854 16.1955C14.9267 16.2169 15.0592 16.2611 15.1841 16.3305C15.309 16.3986 15.4175 16.4882 15.5108 16.5954C15.6042 16.7039 15.6749 16.825 15.7241 16.96C15.7732 17.0938 15.7972 17.2313 15.796 17.3751V18.2544C16.1997 18.3856 16.6109 18.4853 17.0298 18.5547C19.0005 18.913 20.9711 18.913 22.9418 18.5547C23.3606 18.4866 23.7719 18.3856 24.1756 18.2544V17.37Z" fill="#4AB04A"/>
<mask id="mask0_10984_154" style="mask-type:luminance" maskUnits="userSpaceOnUse" x="11" y="4" width="19" height="8">
<path d="M11.0547 4.25781H29.1411V11.7568H11.0547V4.25781Z" fill="white"/>
</mask>
<g mask="url(#mask0_10984_154)">
<path d="M16.8681 11.478C16.0771 11.3367 15.5005 11.1752 15.1044 10.9847C15.0186 10.9431 14.9504 10.8825 14.9 10.8018C14.8483 10.7223 14.823 10.634 14.823 10.5393V9.32065C14.823 9.27015 14.8066 9.22602 14.7738 9.18819C14.7411 9.14904 14.6994 9.1276 14.6502 9.12006L14.2401 9.05697C14.1935 9.04937 14.1493 9.05822 14.109 9.08347C14.0055 9.1516 13.8957 9.20832 13.7809 9.25501C13.6661 9.30045 13.5488 9.33579 13.4264 9.36097C13.3053 9.38497 13.183 9.39632 13.0593 9.39756C12.9357 9.39888 12.812 9.38747 12.6909 9.36478C12.5698 9.34209 12.4512 9.30799 12.3352 9.26261C12.2203 9.21717 12.1106 9.16163 12.0058 9.09606C11.9011 9.02917 11.8028 8.95474 11.7132 8.87022C11.6223 8.78445 11.5403 8.69232 11.4684 8.59265C11.3952 8.49173 11.3321 8.38576 11.2791 8.2735C11.2274 8.16117 11.1845 8.0451 11.1542 7.9253C11.124 7.80543 11.1051 7.68307 11.0975 7.5594C11.0899 7.43579 11.0937 7.31212 11.1101 7.18851C11.1252 7.06615 11.153 6.94504 11.1921 6.82766C11.23 6.71035 11.2804 6.59678 11.3397 6.48831C11.4003 6.37981 11.4696 6.27888 11.5504 6.18299C11.6299 6.08838 11.7169 6.00132 11.8129 5.92311C11.9087 5.84488 12.0109 5.77676 12.1207 5.71746C12.2292 5.65817 12.3427 5.61023 12.4613 5.57364C12.5786 5.53579 12.6997 5.51055 12.8221 5.49668C12.9458 5.48154 13.0681 5.47902 13.1917 5.48785C13.3154 5.49794 13.4365 5.51813 13.5564 5.55093C13.6762 5.58247 13.791 5.62663 13.9033 5.68088C14.0144 5.73513 14.119 5.79947 14.2187 5.8739C14.3171 5.94707 14.4092 6.03034 14.4925 6.12244C14.5203 6.14515 14.5518 6.15903 14.5884 6.16281C14.6502 6.17417 14.7045 6.16029 14.7524 6.11992C14.8003 6.07954 14.8243 6.02782 14.8243 5.96474V4.78008C14.8243 4.73845 14.8293 4.69682 14.8407 4.65645C14.8508 4.61608 14.8659 4.57823 14.8861 4.54164C14.9063 4.50505 14.9303 4.47225 14.958 4.44197C14.987 4.4117 15.0186 4.3852 15.0539 4.36249C15.0892 4.34105 15.1258 4.32338 15.1662 4.31076C15.2053 4.29815 15.2456 4.29058 15.2873 4.28806C15.3289 4.28553 15.3706 4.28806 15.411 4.29562C15.4513 4.3032 15.4904 4.31581 15.5283 4.33474C15.7428 4.43693 16.1793 4.59084 17.0422 4.74728C19.0129 5.10432 20.9835 5.10432 22.9541 4.74728C23.8171 4.59084 24.2536 4.43693 24.4681 4.33474C24.5059 4.31707 24.545 4.30446 24.5854 4.29562C24.6258 4.28806 24.6674 4.28553 24.709 4.28806C24.7494 4.29058 24.791 4.29815 24.8301 4.31203C24.8692 4.32464 24.9071 4.34231 24.9412 4.36375C24.9765 4.38646 25.008 4.41295 25.0371 4.44197C25.066 4.47225 25.09 4.50631 25.1102 4.5429C25.1304 4.57823 25.1455 4.61734 25.1556 4.65771C25.1657 4.69682 25.172 4.73845 25.172 4.78008V5.95969C25.172 5.98997 25.1784 6.01899 25.1897 6.04548C25.2023 6.07324 25.22 6.09594 25.2427 6.11487C25.2654 6.13505 25.2906 6.14767 25.3196 6.1565C25.3487 6.16408 25.3776 6.16533 25.4067 6.16029C25.4433 6.15776 25.4736 6.14389 25.5013 6.12118C25.5581 6.05936 25.6174 6.00132 25.6817 5.94707C25.7448 5.89282 25.8117 5.84236 25.8823 5.79694C25.953 5.75153 26.0249 5.70989 26.1006 5.67457C26.1763 5.63798 26.2533 5.60644 26.3327 5.57994C26.4122 5.55471 26.4929 5.53327 26.5762 5.51686C26.6582 5.50173 26.7402 5.49164 26.8247 5.48659C26.908 5.48154 26.9913 5.48154 27.0746 5.48659C27.1578 5.4929 27.2411 5.50299 27.3231 5.51939C27.4051 5.53579 27.4858 5.55724 27.5653 5.58499C27.6448 5.61149 27.7218 5.64303 27.7962 5.67962C27.8719 5.7162 27.9451 5.75783 28.0144 5.80325C28.0838 5.84993 28.1507 5.9004 28.215 5.95465C28.2781 6.0089 28.3374 6.06819 28.3929 6.13001C28.4497 6.19183 28.5014 6.25743 28.5481 6.32682C28.5961 6.39621 28.639 6.46812 28.6768 6.54255C28.7159 6.61697 28.7487 6.69396 28.7777 6.77219C28.8458 6.96393 28.885 7.16202 28.8913 7.36642C28.8988 7.57074 28.8749 7.77133 28.8193 7.96694C28.7639 8.16373 28.6793 8.34668 28.567 8.51697C28.4535 8.68727 28.3185 8.83619 28.1583 8.9636C27.9993 9.09101 27.8239 9.19068 27.6334 9.26261C27.443 9.33579 27.2461 9.37737 27.0417 9.38747C26.8386 9.39756 26.638 9.37737 26.4412 9.32438C26.2444 9.27271 26.0602 9.19068 25.8887 9.08091C25.8483 9.05566 25.8041 9.04556 25.7574 9.05442L25.3474 9.1175C25.2982 9.1251 25.2565 9.14655 25.2237 9.18563C25.1922 9.22347 25.1758 9.26766 25.1758 9.31809V10.5318C25.1758 10.6277 25.1506 10.7147 25.1001 10.7955C25.0484 10.8762 24.9803 10.9368 24.8945 10.9771C24.4983 11.1676 23.9218 11.3291 23.132 11.4704C22.0962 11.6584 21.0516 11.753 19.9994 11.753C18.9472 11.7543 17.9039 11.6635 16.8681 11.478ZM24.1892 9.32438C24.188 9.18183 24.2119 9.04432 24.2611 8.90937C24.3104 8.7756 24.3822 8.65448 24.4744 8.54602C24.5677 8.43874 24.6762 8.35042 24.8011 8.28104C24.926 8.21291 25.0585 8.16753 25.1998 8.14733L25.6098 8.0855C25.9051 8.03632 26.1788 8.09311 26.4298 8.25455C26.6216 8.38196 26.831 8.4312 27.0594 8.4034C27.1767 8.39081 27.2877 8.35678 27.3925 8.30248C27.4972 8.2495 27.5892 8.17763 27.6688 8.09055C27.7483 8.00222 27.8088 7.90386 27.8517 7.79409C27.8946 7.68432 27.9173 7.5695 27.9186 7.45219C27.9198 7.33356 27.9009 7.21881 27.8605 7.10904C27.8201 6.99802 27.7609 6.89704 27.6852 6.80747C27.6082 6.71789 27.5174 6.64478 27.4139 6.58799C27.3105 6.5312 27.2007 6.49588 27.0833 6.47947C26.9256 6.45551 26.7717 6.47065 26.6229 6.5249C26.4727 6.58038 26.3453 6.66747 26.2393 6.78602C26.0564 6.98156 25.8344 7.0977 25.5707 7.13678C25.4849 7.14937 25.4004 7.15442 25.3146 7.14937C25.2288 7.14432 25.1443 7.13048 25.061 7.10648C24.9778 7.08379 24.8995 7.05101 24.8226 7.01061C24.7469 6.97022 24.6762 6.92229 24.6106 6.8655C24.5463 6.81002 24.487 6.74819 24.4353 6.67881C24.3835 6.61068 24.3393 6.53751 24.3028 6.45929C24.2675 6.38107 24.2397 6.29907 24.2208 6.2158C24.2031 6.13127 24.1931 6.04674 24.1931 5.95969V5.48154C23.8953 5.56607 23.542 5.64555 23.1358 5.71873C21.0478 6.09847 18.9611 6.09847 16.8731 5.71873C16.4644 5.64555 16.1136 5.56607 15.8146 5.48154V5.95969C15.8146 6.04674 15.8058 6.13127 15.7869 6.2158C15.7692 6.30032 15.7415 6.38107 15.7062 6.45929C15.6696 6.53751 15.6254 6.61068 15.5737 6.68006C15.522 6.74819 15.4639 6.81127 15.3983 6.86681C15.3327 6.92229 15.2621 6.97022 15.1864 7.01186C15.1107 7.05225 15.0312 7.08379 14.9479 7.10648C14.8647 7.13048 14.7814 7.14432 14.6944 7.14937C14.6085 7.15442 14.524 7.14937 14.4382 7.13678C14.1708 7.10019 13.9449 6.98288 13.7607 6.78478C13.7077 6.72674 13.6485 6.67632 13.5829 6.63337C13.5172 6.59048 13.4479 6.5552 13.3747 6.52868C13.3015 6.50219 13.2258 6.48452 13.1476 6.47695C13.0694 6.46938 12.9925 6.47065 12.9142 6.48074C12.8372 6.49209 12.7616 6.51228 12.6896 6.5413C12.6165 6.57029 12.5483 6.60688 12.4852 6.65232C12.4209 6.69901 12.3641 6.75074 12.3137 6.81002C12.262 6.87055 12.2191 6.93494 12.1837 7.00432C12.1484 7.07494 12.1231 7.14812 12.1055 7.22379C12.0879 7.30078 12.079 7.37776 12.0816 7.45599C12.0828 7.53547 12.0929 7.61238 12.1131 7.68812C12.1332 7.76379 12.1611 7.83573 12.1989 7.90511C12.2367 7.97324 12.2822 8.03632 12.3338 8.09435C12.3869 8.15238 12.4462 8.20281 12.5117 8.24701C12.5761 8.28989 12.6455 8.32524 12.7199 8.35173C12.7931 8.37822 12.8688 8.39586 12.947 8.4034C13.1741 8.4312 13.3835 8.38196 13.574 8.25455C13.8238 8.09311 14.0963 8.03632 14.3891 8.08045L14.7991 8.14353C14.9403 8.16373 15.0729 8.20786 15.1977 8.2773C15.3226 8.34537 15.4311 8.4337 15.5245 8.54222C15.6178 8.65068 15.6885 8.77179 15.7377 8.90556C15.7869 9.03927 15.8109 9.17809 15.8096 9.32065V10.2088C16.2133 10.34 16.6246 10.4397 17.0435 10.509C19.0141 10.8661 20.9847 10.8661 22.9553 10.509C23.3742 10.4409 23.7855 10.34 24.1892 10.2088V9.32438Z" fill="#4AB04A"/>
</g>
<mask id="mask1_10984_154" style="mask-type:luminance" maskUnits="userSpaceOnUse" x="7" y="26" width="26" height="10">
<path d="M7.81934 26.9434H32.0422V35.7394H7.81934V26.9434Z" fill="white"/>
</mask>
<g mask="url(#mask1_10984_154)">
<path d="M11.3655 35.7087C11.474 35.7087 11.5724 35.676 11.6595 35.6104C11.7465 35.546 11.8058 35.4602 11.8373 35.3555C11.8676 35.2508 11.8651 35.1474 11.8272 35.0451C11.7894 34.943 11.725 34.8623 11.6342 34.8017C9.21318 33.2183 8.94065 31.6161 9.13875 30.5501C9.37718 29.2569 10.3612 28.3611 10.9517 28.2337C12.3104 27.9436 13.6616 28.375 14.5574 28.7876C16.1394 29.5181 18.0369 29.9028 20.0466 29.9028C22.0324 29.9028 23.8479 29.5282 25.4577 28.7876C26.3522 28.375 27.7096 27.9423 29.0634 28.2337C29.6513 28.3611 30.6353 29.2569 30.8751 30.5501C31.0731 31.6161 30.8006 33.2183 28.3783 34.8017C28.3241 34.8383 28.2787 34.8824 28.2408 34.9367C28.2042 34.9909 28.179 35.0502 28.1664 35.1146C28.1525 35.1777 28.1512 35.242 28.1639 35.3063C28.1765 35.3707 28.2005 35.4312 28.2357 35.4855C28.2711 35.5397 28.3165 35.5864 28.3707 35.623C28.4237 35.6596 28.483 35.6848 28.5474 35.6987C28.6117 35.7113 28.6748 35.7126 28.7391 35.7C28.8035 35.6886 28.8627 35.6646 28.9183 35.628C31.9462 33.6548 32.0521 31.4836 31.8452 30.3697C31.5399 28.7295 30.2707 27.483 29.2703 27.2673C27.9847 26.986 26.525 27.208 25.0464 27.8906C23.5678 28.5731 21.8898 28.9163 20.0492 28.9163C18.1807 28.9163 16.4233 28.5617 14.9711 27.8906C13.4913 27.2068 12.0304 26.9923 10.7473 27.2673C9.74432 27.483 8.47514 28.7295 8.17108 30.3697C7.96544 31.4836 8.07141 33.6498 11.0993 35.628C11.1801 35.6823 11.2683 35.7087 11.3655 35.7087Z" fill="#4AB04A"/>
</g>
<mask id="mask2_10984_154" style="mask-type:luminance" maskUnits="userSpaceOnUse" x="21" y="31" width="6" height="5">
<path d="M21.7119 31.1426H26.8795V35.7399H21.7119V31.1426Z" fill="white"/>
</mask>
<g mask="url(#mask2_10984_154)">
<path d="M22.2589 35.7029C22.3535 35.7029 22.4418 35.6777 22.5213 35.6272C22.602 35.5755 22.6626 35.5074 22.703 35.4215L23.9305 32.8832C23.9759 32.7873 24.0377 32.704 24.1147 32.6308C24.1917 32.5577 24.2787 32.5009 24.3771 32.4593C24.4742 32.4177 24.5765 32.395 24.6824 32.3912C24.7872 32.3874 24.8906 32.4013 24.9916 32.4341C25.0559 32.4555 25.1177 32.4846 25.1758 32.5211C25.2325 32.5564 25.2855 32.5993 25.3334 32.6472C25.3826 32.6965 25.4243 32.7495 25.4596 32.8075C25.4949 32.8655 25.524 32.9274 25.5441 32.9917C25.5656 33.0573 25.5794 33.1229 25.5845 33.191C25.5908 33.2592 25.5883 33.3273 25.5782 33.3954C25.5681 33.4623 25.5504 33.5279 25.5252 33.591C25.5 33.6541 25.4672 33.7133 25.428 33.7701L24.6168 34.9156C24.5853 34.9699 24.5651 35.0267 24.555 35.0885C24.5449 35.1503 24.5462 35.2108 24.5601 35.2714C24.5727 35.3333 24.5967 35.3887 24.6307 35.4405C24.6648 35.4922 24.7077 35.5364 24.7581 35.5717C24.8099 35.607 24.8654 35.6322 24.9259 35.6474C24.9865 35.6625 25.047 35.6651 25.1089 35.6562C25.1694 35.6474 25.2274 35.6285 25.2817 35.5982C25.336 35.5679 25.3826 35.5288 25.4217 35.4796L26.2329 34.3353C26.3099 34.2306 26.3742 34.1183 26.4272 33.9997C26.4802 33.8811 26.5206 33.7575 26.5471 33.6301C26.5748 33.5039 26.5887 33.3752 26.5887 33.2453C26.5887 33.1153 26.5761 32.9867 26.5496 32.8592C26.5231 32.7318 26.484 32.6082 26.431 32.4896C26.3793 32.3697 26.315 32.2574 26.2393 32.1527C26.1636 32.0467 26.0778 31.9508 25.9819 31.8625C25.886 31.7755 25.7813 31.6985 25.6702 31.6329C25.558 31.5673 25.4407 31.5131 25.317 31.4727C25.1946 31.4311 25.0685 31.4033 24.9386 31.3882C24.8099 31.3743 24.6812 31.3731 24.5512 31.3857C24.4226 31.397 24.2964 31.4235 24.1715 31.4627C24.0478 31.5017 23.9293 31.5522 23.817 31.6166C23.7034 31.6796 23.5987 31.7553 23.5003 31.8411C23.4032 31.9269 23.3161 32.0215 23.2379 32.1263C23.1609 32.2309 23.094 32.342 23.0398 32.4593L21.8123 34.9977C21.7946 35.0355 21.782 35.0746 21.7744 35.115C21.7656 35.1566 21.763 35.197 21.7656 35.2387C21.7681 35.2802 21.7757 35.3206 21.7883 35.361C21.8009 35.4001 21.8186 35.4379 21.8413 35.472C21.8627 35.5074 21.8892 35.5402 21.9195 35.5679C21.9498 35.5969 21.9826 35.6209 22.0192 35.6411C22.0558 35.6613 22.0936 35.6764 22.134 35.6865C22.1744 35.6979 22.2147 35.7029 22.2563 35.7029H22.2589Z" fill="#4AB04A"/>
</g>
<mask id="mask3_10984_154" style="mask-type:luminance" maskUnits="userSpaceOnUse" x="7" y="26" width="26" height="10">
<path d="M7.81934 26.9434H32.0422V35.7394H7.81934V26.9434Z" fill="white"/>
</mask>
<g mask="url(#mask3_10984_154)">
<path d="M11.3403 35.7087C11.4488 35.7087 11.5473 35.676 11.6343 35.6104C11.7214 35.546 11.7806 35.4602 11.8122 35.3555C11.8425 35.2508 11.8399 35.1474 11.8021 35.0451C11.7643 34.943 11.6999 34.8623 11.6091 34.8017C9.18805 33.2183 8.91553 31.6161 9.11363 30.5501C9.35206 29.2569 10.3361 28.3611 10.9265 28.2337C12.2853 27.9436 13.6365 28.375 14.5323 28.7876C16.137 29.5282 17.955 29.9028 19.9408 29.9028C21.9505 29.9028 23.8505 29.5181 25.4313 28.7876C26.3258 28.375 27.6833 27.9423 29.0357 28.2337C29.6249 28.3611 30.609 29.2569 30.8486 30.5501C31.0467 31.6161 30.773 33.2183 28.3519 34.8017C28.2977 34.8383 28.251 34.8824 28.2144 34.9367C28.1778 34.9909 28.1526 35.0502 28.1387 35.1146C28.1261 35.1777 28.1248 35.242 28.1374 35.3063C28.1488 35.3707 28.1728 35.4312 28.2094 35.4855C28.2447 35.541 28.2888 35.5864 28.3431 35.623C28.3974 35.6596 28.4566 35.6848 28.521 35.6987C28.5841 35.7126 28.6484 35.7126 28.7127 35.7012C28.7771 35.6886 28.8364 35.6646 28.8906 35.628C31.9198 33.6548 32.0244 31.4836 31.8176 30.3697C31.5135 28.7295 30.2443 27.483 29.2426 27.2673C27.9583 26.986 26.4986 27.208 25.02 27.8906C23.5654 28.5617 21.8105 28.9163 19.9408 28.9163C18.0988 28.9163 16.4208 28.5706 14.9448 27.8906C13.4674 27.2118 12.0027 26.9923 10.7209 27.2673C9.71789 27.483 8.44871 28.7295 8.14471 30.3697C7.93907 31.4836 8.04504 33.6498 11.0729 35.628C11.1536 35.6823 11.2432 35.7087 11.3403 35.7087Z" fill="#4AB04A"/>
</g>
<mask id="mask4_10984_154" style="mask-type:luminance" maskUnits="userSpaceOnUse" x="13" y="31" width="6" height="5">
<path d="M13.2881 31.1426H18.4556V35.7399H13.2881V31.1426Z" fill="white"/>
</mask>
<g mask="url(#mask4_10984_154)">
<path d="M17.7033 35.6981C17.7791 35.6981 17.8497 35.6817 17.9178 35.6489C17.9771 35.6199 18.0276 35.5821 18.0717 35.5329C18.1146 35.4836 18.1475 35.4282 18.1689 35.3663C18.1904 35.3045 18.1979 35.2402 18.1942 35.1758C18.1904 35.1102 18.174 35.0484 18.1462 34.9891L16.9199 32.4507C16.8203 32.2476 16.689 32.0697 16.525 31.9145C16.361 31.7594 16.1743 31.6383 15.9674 31.5512C15.7592 31.4642 15.5422 31.4162 15.3176 31.4074C15.0918 31.3998 14.8723 31.4301 14.6591 31.502C14.5216 31.5474 14.3904 31.6092 14.268 31.6862C14.1444 31.7632 14.0321 31.8528 13.9299 31.9562C13.8277 32.0596 13.7394 32.1732 13.6637 32.2968C13.588 32.4205 13.5274 32.5516 13.4833 32.6905C13.4378 32.828 13.4101 32.9693 13.3975 33.1143C13.3862 33.2594 13.3911 33.4032 13.4127 33.547C13.4341 33.6909 13.4719 33.8297 13.5262 33.9647C13.5804 34.0996 13.6498 34.2258 13.7344 34.3444L14.543 35.4899C14.5784 35.5493 14.6238 35.5985 14.6793 35.6389C14.7348 35.6792 14.7966 35.7057 14.8635 35.7208C14.9304 35.7347 14.9972 35.736 15.0641 35.7221C15.1322 35.7082 15.194 35.6817 15.2495 35.6426C15.3063 35.6035 15.3517 35.5543 15.387 35.4963C15.4236 35.4369 15.4464 35.3739 15.4551 35.3057C15.4652 35.2377 15.4602 35.1708 15.4413 35.1039C15.4224 35.0383 15.3921 34.979 15.3479 34.926L14.5392 33.7792C14.5001 33.7237 14.4673 33.6644 14.4421 33.6001C14.4168 33.537 14.3992 33.4714 14.3891 33.4045C14.379 33.3364 14.3765 33.2695 14.3816 33.2014C14.3879 33.1333 14.4017 33.0664 14.4219 33.0021C14.4433 32.9377 14.4724 32.8759 14.5077 32.8179C14.543 32.7598 14.5847 32.7069 14.6326 32.6577C14.6805 32.6097 14.7335 32.5668 14.7915 32.5315C14.8496 32.4949 14.9114 32.4671 14.9757 32.4457C15.0754 32.4116 15.1789 32.3977 15.2848 32.4015C15.3908 32.4053 15.4917 32.428 15.5902 32.4697C15.6873 32.5101 15.7744 32.5668 15.8513 32.64C15.9283 32.7131 15.9901 32.7964 16.0368 32.8923L17.2631 35.4307C17.306 35.5127 17.3665 35.5783 17.446 35.6262C17.5255 35.6741 17.6113 35.6981 17.7033 35.6981Z" fill="#4AB04A"/>
</g>
<mask id="mask5_10984_154" style="mask-type:luminance" maskUnits="userSpaceOnUse" x="6" y="34" width="28" height="2">
<path d="M6.67969 34.6875H33.3123V35.7321H6.67969V34.6875Z" fill="white"/>
</mask>
<g mask="url(#mask5_10984_154)">
<path d="M7.19937 35.7034H32.771C32.8353 35.7034 32.8984 35.6908 32.9589 35.6656C33.0195 35.6403 33.0725 35.605 33.1192 35.5595C33.1645 35.5129 33.2011 35.4599 33.2251 35.3994C33.2504 35.3388 33.263 35.2757 33.263 35.2101C33.263 35.1445 33.2504 35.0815 33.2251 35.0209C33.2011 34.9603 33.1645 34.9074 33.1192 34.8607C33.0725 34.8152 33.0195 34.7786 32.9589 34.7534C32.8984 34.7295 32.8353 34.7168 32.771 34.7168H7.19937C7.13373 34.7168 7.07064 34.7295 7.01012 34.7534C6.94953 34.7786 6.89655 34.8152 6.85114 34.8607C6.80446 34.9074 6.76914 34.9603 6.7439 35.0209C6.71867 35.0815 6.70605 35.1445 6.70605 35.2101C6.70605 35.2757 6.71867 35.3388 6.7439 35.3994C6.76914 35.4599 6.80446 35.5129 6.85114 35.5595C6.89655 35.605 6.94953 35.6403 7.01012 35.6656C7.07064 35.6908 7.13373 35.7034 7.19937 35.7034Z" fill="#4AB04A"/>
</g>
</svg>
