<svg width="40" height="40" viewBox="0 0 40 40" fill="none" xmlns="http://www.w3.org/2000/svg">
<mask id="mask0_10984_115" style="mask-type:luminance" maskUnits="userSpaceOnUse" x="4" y="22" width="25" height="12">
<path d="M4.06885 22.3242H28.5375V33.7022H4.06885V22.3242Z" fill="white"/>
</mask>
<g mask="url(#mask0_10984_115)">
<path d="M9.63127 33.7036C6.79153 33.7036 4.32146 31.8031 4.21754 31.7222C4.10863 31.6362 4.08864 31.4784 4.17458 31.3695C4.2605 31.2596 4.41838 31.2406 4.52829 31.3255C4.55228 31.3445 6.96838 33.201 9.63127 33.201C10.8033 33.201 14.1097 31.993 18.4762 29.9696C22.2163 28.236 25.6536 26.3894 26.301 25.7669C27.606 24.5099 28.0477 22.6833 28.0517 22.6654C28.0837 22.5295 28.2185 22.4455 28.3544 22.4775C28.4894 22.5095 28.5743 22.6444 28.5423 22.7793C28.5233 22.8592 28.0657 24.7667 26.6508 26.1286C25.8614 26.888 21.9595 28.9094 18.6881 30.4252C16.5608 31.4114 11.4208 33.7036 9.63127 33.7036Z" fill="#4AB04A" stroke="#4AB04A" stroke-width="0.274913"/>
</g>
<mask id="mask1_10984_115" style="mask-type:luminance" maskUnits="userSpaceOnUse" x="4" y="17" width="19" height="11">
<path d="M4.06885 17.7148H22.1425V27.1794H4.06885V17.7148Z" fill="white"/>
</mask>
<g mask="url(#mask1_10984_115)">
<path d="M8.86786 27.0923C8.619 27.0923 8.38222 26.9894 8.21133 26.8046C7.88858 26.4559 7.37599 25.9972 6.76648 25.7974C5.59942 25.4127 4.42635 25.6005 4.41436 25.6026C4.27746 25.6255 4.14757 25.5326 4.12459 25.3957C4.1016 25.2588 4.19453 25.1289 4.33142 25.1059C4.38438 25.0969 5.63439 24.8951 6.92438 25.3197C7.63579 25.5536 8.21835 26.0711 8.58209 26.4639C8.663 26.5518 8.77887 26.5967 8.89881 26.5877C9.01874 26.5788 9.12661 26.5168 9.19356 26.4179C9.59625 25.8243 10.2587 24.996 11.134 24.4225C11.6496 24.0837 12.2771 23.802 12.9976 23.5861C13.8938 23.3163 14.5973 22.6698 14.9281 21.8115C15.2627 20.9392 15.8813 19.7601 16.9235 19.0947C18.8389 17.8717 21.5458 17.9186 21.6607 17.9206C21.7996 17.9236 21.9095 18.0385 21.9065 18.1774C21.9035 18.3163 21.7886 18.4262 21.6487 18.4232C21.6227 18.4222 18.9799 18.3782 17.1953 19.5184C16.269 20.1099 15.7064 21.19 15.3977 21.9914C15.012 22.9966 14.1896 23.753 13.1425 24.0677C12.469 24.2696 11.8854 24.5304 11.4108 24.8421C10.6054 25.3707 9.98792 26.1441 9.61127 26.6997C9.45638 26.9265 9.21153 27.0684 8.93677 27.0894C8.91382 27.0913 8.89081 27.0923 8.86786 27.0923Z" fill="#4AB04A" stroke="#4AB04A" stroke-width="0.274913"/>
</g>
<mask id="mask2_10984_115" style="mask-type:luminance" maskUnits="userSpaceOnUse" x="4" y="12" width="32" height="6">
<path d="M4.06885 12.8516H35.8997V17.2002H4.06885V12.8516Z" fill="white"/>
</mask>
<g mask="url(#mask2_10984_115)">
<path d="M13.7389 16.9703C13.0265 16.9703 12.366 16.6146 11.9704 16.0191C11.4597 15.2497 10.3676 13.9178 8.79586 13.641C6.42173 13.2213 4.54222 14.5862 4.52324 14.6002C4.41132 14.6831 4.25345 14.6591 4.17051 14.5482C4.08758 14.4363 4.11156 14.2785 4.22347 14.1965C4.3064 14.1345 6.29783 12.6897 8.88379 13.1454C10.5524 13.4401 11.7125 14.7201 12.391 15.7413C12.6928 16.1959 13.1954 16.4667 13.737 16.4667C14.0587 16.4667 14.3694 16.3728 14.6382 16.193C15.6804 15.4975 18.4492 13.8518 21.6347 13.602C25.6335 13.2892 35.2859 16.2179 35.6945 16.3428C35.8275 16.3838 35.9024 16.5237 35.8624 16.6566C35.8215 16.7895 35.6806 16.8644 35.5477 16.8235C35.4478 16.7935 25.5776 13.7978 21.6747 14.1036C18.6071 14.3434 15.9272 15.9372 14.918 16.6116C14.5663 16.8464 14.1586 16.9703 13.7389 16.9703Z" fill="#4AB04A" stroke="#4AB04A" stroke-width="0.274913"/>
</g>
<path d="M29.2239 10.6272C29.169 10.6272 29.114 10.6222 29.0581 10.6132C28.7873 10.5702 28.5495 10.4233 28.3886 10.2015C28.2278 9.97971 28.1628 9.70791 28.2068 9.43709L28.4666 7.8264C28.5565 7.26686 29.0851 6.88614 29.6457 6.97604C29.9164 7.01905 30.1542 7.16594 30.3151 7.38771C30.4759 7.61053 30.5409 7.88135 30.4969 8.1521L30.2372 9.76384C30.1932 10.0347 30.0463 10.2714 29.8245 10.4323C29.6466 10.5602 29.4388 10.6272 29.2239 10.6272ZM29.4818 7.46568C29.2289 7.46568 29.0051 7.6485 28.9641 7.90535L28.7044 9.51702C28.6824 9.65492 28.7154 9.79381 28.7973 9.90673C28.8792 10.0206 29.0001 10.0946 29.139 10.1166C29.2769 10.1396 29.4158 10.1066 29.5287 10.0246C29.6426 9.94273 29.7176 9.82181 29.7396 9.68391L29.9994 8.07217C30.0453 7.78745 29.8504 7.51866 29.5657 7.47269C29.5367 7.46764 29.5087 7.46568 29.4818 7.46568Z" fill="#4AB04A" stroke="#4AB04A" stroke-width="0.274913"/>
<path d="M28.1445 14.6608L28.845 10.3223L29.3426 10.4022L28.6421 14.7408L28.1445 14.6608Z" fill="#4AB04A" stroke="#4AB04A" stroke-width="0.274913"/>
<path d="M33.0606 11.4465C33.0066 11.4465 32.9517 11.4425 32.8957 11.4335C32.3361 11.3435 31.9544 10.816 32.0444 10.2574L32.3042 8.64568C32.3941 8.08712 32.9237 7.7064 33.4832 7.79637C33.754 7.83932 33.9918 7.9862 34.1527 8.20804C34.3136 8.42981 34.3785 8.70161 34.3346 8.97243L34.0747 10.5842C33.9938 11.0877 33.5562 11.4465 33.0606 11.4465ZM32.9766 10.9368C33.2624 10.9828 33.5312 10.789 33.5772 10.5042L33.837 8.8925C33.8829 8.60771 33.6881 8.33893 33.4033 8.29296C33.2654 8.26994 33.1265 8.30292 33.0126 8.38489C32.8987 8.46679 32.8237 8.58771 32.8018 8.72561L32.542 10.3374C32.52 10.4753 32.553 10.6141 32.6349 10.7271C32.7168 10.8399 32.8378 10.9149 32.9766 10.9368Z" fill="#4AB04A" stroke="#4AB04A" stroke-width="0.274913"/>
<path d="M31.9727 15.5978L32.6901 11.1523L33.1877 11.2323L32.4702 15.6777L31.9727 15.5978Z" fill="#4AB04A" stroke="#4AB04A" stroke-width="0.274913"/>
<mask id="mask3_10984_115" style="mask-type:luminance" maskUnits="userSpaceOnUse" x="23" y="6" width="4" height="5">
<path d="M23.9453 6.29883H26.5033V10.5518H23.9453V6.29883Z" fill="white"/>
</mask>
<g mask="url(#mask3_10984_115)">
<path d="M25.2094 10.3806C25.1854 10.3806 25.1625 10.3797 25.1385 10.3776C24.8637 10.3597 24.6139 10.2357 24.433 10.0289C24.2522 9.82209 24.1632 9.55828 24.1822 9.28451L24.2931 7.65579C24.3321 7.09127 24.8227 6.6636 25.3893 6.70156C25.663 6.72051 25.9139 6.84445 26.0947 7.05127C26.2746 7.25809 26.3635 7.52189 26.3455 7.79566L26.2336 9.4234C26.2156 9.69717 26.0907 9.94701 25.8838 10.1268C25.695 10.2917 25.4582 10.3806 25.2094 10.3806ZM25.3183 7.20215C25.1914 7.20215 25.0705 7.24714 24.9746 7.33107C24.8687 7.42301 24.8057 7.55087 24.7957 7.68976L24.6848 9.31848C24.6758 9.45835 24.7208 9.59324 24.8127 9.69815C24.9046 9.80307 25.0326 9.86707 25.1724 9.87605C25.3123 9.88602 25.4472 9.84005 25.5531 9.74812C25.6581 9.65619 25.722 9.5293 25.731 9.38943L25.8429 7.76169C25.8519 7.62183 25.8069 7.48694 25.714 7.38202C25.6221 7.27612 25.4942 7.21317 25.3553 7.20412C25.3423 7.20314 25.3303 7.20215 25.3183 7.20215Z" fill="#4AB04A" stroke="#4AB04A" stroke-width="0.274913"/>
</g>
<path d="M24.6484 14.0471L24.9162 10.1172L25.4198 10.1512L25.151 14.0811L24.6484 14.0471Z" fill="#4AB04A" stroke="#4AB04A" stroke-width="0.274913"/>
<path d="M21.4615 10.4672C21.2156 10.4672 20.9798 10.3803 20.792 10.2184C20.5832 10.0396 20.4573 9.79075 20.4373 9.51698L20.3154 7.88924C20.2734 7.3257 20.699 6.83212 21.2646 6.79016C21.5384 6.76917 21.8042 6.85711 22.012 7.03593C22.2199 7.21481 22.3458 7.4636 22.3668 7.73639L22.4887 9.36412C22.5086 9.63789 22.4217 9.90268 22.2418 10.1105C22.063 10.3184 21.8132 10.4443 21.5394 10.4643C21.5134 10.4662 21.4874 10.4672 21.4615 10.4672ZM21.3415 7.28976C21.3285 7.28976 21.3156 7.29075 21.3016 7.29173C21.0138 7.31271 20.797 7.56452 20.818 7.85232L20.9399 9.47999C20.9498 9.61888 21.0148 9.74583 21.1207 9.8377C21.2266 9.92865 21.3615 9.97265 21.5014 9.96262C21.6413 9.95265 21.7682 9.88871 21.8601 9.78275C21.9511 9.67685 21.996 9.54098 21.986 9.40209L21.8641 7.77435C21.8531 7.63448 21.7892 7.5076 21.6833 7.41665C21.5874 7.33468 21.4674 7.28976 21.3415 7.28976Z" fill="#4AB04A" stroke="#4AB04A" stroke-width="0.274913"/>
<path d="M21.2598 10.2323L21.7624 10.1953L22.0341 13.8305L21.5316 13.8674L21.2598 10.2323Z" fill="#4AB04A" stroke="#4AB04A" stroke-width="0.274913"/>
<path d="M17.8374 11.1712C17.5916 11.1712 17.3568 11.0842 17.1679 10.9224C16.9601 10.7435 16.8342 10.4936 16.8142 10.2209L16.6923 8.59318C16.6503 8.02859 17.076 7.536 17.6416 7.49305C17.9153 7.47305 18.1801 7.56 18.389 7.73882C18.5968 7.91771 18.7227 8.16754 18.7427 8.44026L18.8646 10.068C18.8856 10.3418 18.7976 10.6066 18.6188 10.8144C18.4389 11.0212 18.1892 11.1472 17.9153 11.1681C17.8894 11.1702 17.8634 11.1712 17.8374 11.1712ZM17.7185 7.99364C17.7055 7.99364 17.6915 7.99364 17.6785 7.99463C17.5387 8.00564 17.4117 8.06958 17.3198 8.17548C17.2289 8.28145 17.1839 8.41633 17.1949 8.55522L17.3168 10.1829C17.3268 10.3228 17.3907 10.4497 17.4967 10.5407C17.6036 10.6326 17.7385 10.6765 17.8784 10.6666C18.0183 10.6555 18.1452 10.5916 18.2361 10.4857C18.328 10.3797 18.372 10.2449 18.362 10.106L18.2401 8.4783C18.2301 8.33836 18.1661 8.21148 18.0593 8.12053C17.9633 8.03764 17.8434 7.99364 17.7185 7.99364Z" fill="#4AB04A" stroke="#4AB04A" stroke-width="0.274913"/>
<path d="M17.6367 10.9354L18.1393 10.8984L18.4201 14.6455L17.9175 14.6824L17.6367 10.9354Z" fill="#4AB04A" stroke="#4AB04A" stroke-width="0.274913"/>
<mask id="mask4_10984_115" style="mask-type:luminance" maskUnits="userSpaceOnUse" x="22" y="27" width="14" height="2">
<path d="M22.6597 27.6855H35.9052V28.453H22.6597V27.6855Z" fill="white"/>
</mask>
<g mask="url(#mask4_10984_115)">
<path d="M35.6118 28.3259H22.9178C22.7789 28.3259 22.666 28.213 22.666 28.0741C22.666 27.9352 22.7789 27.8223 22.9178 27.8223H35.6118C35.7517 27.8223 35.8646 27.9352 35.8646 28.0741C35.8646 28.213 35.7517 28.3259 35.6118 28.3259Z" fill="#4AB04A" stroke="#4AB04A" stroke-width="0.274913"/>
</g>
<path d="M13.0721 23.9894C12.9392 23.9894 12.8283 23.8855 12.8203 23.7526C12.7434 22.3857 12.3287 21.3266 11.5533 20.5122C11.4574 20.4113 11.4624 20.2524 11.5633 20.1565C11.6632 20.0615 11.8231 20.0655 11.919 20.1664C12.7673 21.0578 13.24 22.2548 13.3239 23.7236C13.3319 23.8625 13.226 23.9814 13.0871 23.9894C13.0821 23.9894 13.0771 23.9894 13.0721 23.9894Z" fill="#4AB04A" stroke="#4AB04A" stroke-width="0.274913"/>
</svg>
