<svg width="32" height="32" viewBox="0 0 32 32" fill="none" xmlns="http://www.w3.org/2000/svg">
<path d="M20.3055 19.9578L18.9119 10.8694V7.54744C18.9119 7.31975 18.9868 7.13881 19.1478 6.97788L22.9319 3.19381C23.4979 2.62775 23.3659 1.88425 22.943 1.44237C22.5178 0.998125 21.777 0.8325 21.1839 1.37569L18.493 3.83981C18.289 4.02662 18.0388 4.09262 17.7691 4.03094C17.6588 4.00569 17.5469 3.98681 17.4341 3.97425C17.8463 3.57319 18.1031 3.01306 18.1031 2.39387C18.1031 1.17725 17.1133 0.1875 15.8968 0.1875C14.6802 0.1875 13.6904 1.17725 13.6904 2.39387C13.6904 3.01306 13.9471 3.57313 14.3594 3.97425C14.2466 3.98681 14.1346 4.00569 14.0245 4.03094C13.7545 4.09256 13.5045 4.02663 13.3005 3.83975L10.6097 1.37569C10.0164 0.832625 9.27571 0.998062 8.85058 1.44237C8.42765 1.88425 8.29565 2.62781 8.86165 3.19381L12.6458 6.97788C12.8068 7.13881 12.8817 7.31981 12.8817 7.54744V10.8694L11.4881 19.9578C11.3826 20.646 11.7886 21.239 12.4755 21.4C13.0685 21.5392 13.794 21.289 14.0319 20.5417L15.8968 14.6849L17.7616 20.5417C17.9581 21.1586 18.4866 21.4367 18.9988 21.4367C19.107 21.4367 19.2145 21.4243 19.318 21.4C20.0049 21.2391 20.411 20.646 20.3055 19.9578H20.3055ZM15.8968 1.18744C16.562 1.18744 17.1031 1.72862 17.1031 2.39381C17.1031 3.059 16.562 3.60013 15.8968 3.60013C15.2316 3.60013 14.6905 3.059 14.6905 2.39381C14.6905 1.72862 15.2316 1.18744 15.8968 1.18744ZM19.0899 20.4264C19.021 20.4426 18.7905 20.4767 18.7146 20.2383L16.3733 12.8853C16.3072 12.6779 16.1145 12.537 15.8968 12.537C15.6791 12.537 15.4865 12.6779 15.4204 12.8853L13.0791 20.2382C13.0032 20.4766 12.7726 20.4424 12.7038 20.4264C12.5823 20.3979 12.4443 20.3198 12.4765 20.1094L13.876 10.9833C13.8798 10.9582 13.8818 10.9328 13.8818 10.9074V7.54738C13.8818 7.05813 13.6989 6.61663 13.353 6.27063L9.56883 2.48662C9.42796 2.34575 9.4934 2.21694 9.57308 2.13369C9.64002 2.06362 9.77596 1.96813 9.9344 2.11313L12.6251 4.57713C13.0759 4.98987 13.6523 5.142 14.248 5.0055C14.3924 4.97238 14.5415 4.95556 14.6912 4.95556H17.1025C17.2521 4.95556 17.4012 4.97238 17.5458 5.0055C18.141 5.14194 18.7177 4.98994 19.1685 4.57713L21.8593 2.11306C22.0177 1.96794 22.1536 2.06356 22.2206 2.13363C22.3003 2.21688 22.3656 2.34569 22.2248 2.4865L18.4407 6.27056C18.0948 6.61656 17.9119 7.05806 17.9119 7.54731V10.9074C17.9119 10.9328 17.9138 10.9581 17.9177 10.9832L19.3171 20.1094C19.3494 20.3197 19.2114 20.3979 19.0899 20.4264V20.4264ZM31.3342 13.5814C31.9 13.0156 31.768 12.2724 31.3453 11.8306C30.9203 11.3866 30.1798 11.2211 29.587 11.764L26.898 14.2264C26.6941 14.4129 26.4441 14.4789 26.1748 14.4173C26.065 14.3921 25.9533 14.3733 25.8409 14.3607C26.2526 13.9599 26.509 13.4003 26.509 12.7817C26.509 11.5658 25.5198 10.5766 24.3038 10.5766C23.0879 10.5766 22.0987 11.5658 22.0987 12.7817C22.0987 13.4022 22.3567 13.9633 22.7706 14.3643C22.3762 14.4189 22.0504 14.5756 21.7996 14.8329C21.1802 15.4684 21.2076 16.5382 21.2298 17.3978C21.2344 17.5771 21.2388 17.7463 21.2373 17.9004C21.2291 18.7804 21.2526 19.6619 21.2716 20.3703C21.2811 20.7289 21.2895 21.0415 21.2905 21.2519L19.8979 30.3334C19.7924 31.0213 20.1983 31.6141 20.885 31.775C21.4778 31.9143 22.2027 31.6639 22.4406 30.917L24.3039 25.0654L26.1671 30.917C26.3635 31.5336 26.8918 31.8116 27.4038 31.8116C27.5119 31.8116 27.6193 31.7992 27.7228 31.7749C28.4094 31.6141 28.8153 31.0212 28.7098 30.3333L27.3172 21.2513V19.8803H28.1202C28.906 19.8803 29.3388 19.2664 29.3471 18.6887C29.3556 18.1003 28.9485 17.4926 28.1542 17.4698L27.4765 17.4504C27.4996 17.4205 27.5245 17.3911 27.553 17.3627L31.3344 13.5813L31.3342 13.5814ZM24.3038 11.5766C24.9683 11.5766 25.5089 12.1172 25.5089 12.7817C25.5089 13.4462 24.9683 13.9868 24.3038 13.9868C23.6393 13.9868 23.0986 13.4462 23.0986 12.7817C23.0986 12.1172 23.6393 11.5766 24.3038 11.5766ZM26.3229 21.3652L27.7213 30.4849C27.7535 30.6951 27.6158 30.773 27.4945 30.8014C27.426 30.8174 27.1958 30.8517 27.1199 30.6136L24.7802 23.2658C24.7141 23.0584 24.5215 22.9175 24.3038 22.9175C24.0861 22.9175 23.8934 23.0584 23.8273 23.2657L21.4876 30.6136C21.4118 30.8516 21.1816 30.8174 21.113 30.8014C20.9918 30.773 20.854 30.6951 20.8861 30.485L22.2846 21.3652C22.2885 21.3402 22.2904 21.3148 22.2904 21.2894C22.2904 21.0664 22.2818 20.7474 22.2711 20.3436C22.2651 20.1223 22.2588 19.8839 22.2531 19.6341C22.5353 19.7908 22.8598 19.8804 23.2049 19.8804H26.317V21.2894C26.317 21.3148 26.319 21.3402 26.3229 21.3652ZM28.3471 18.6744C28.3458 18.7684 28.3053 18.8804 28.1201 18.8804H23.205C22.6713 18.8804 22.2372 18.4463 22.2372 17.9127V17.9097C22.2388 17.7382 22.2342 17.5604 22.2294 17.3721C22.2121 16.7004 22.1906 15.8644 22.5157 15.5308C22.5612 15.4841 22.6996 15.3421 23.099 15.3421H25.5086C25.6581 15.3421 25.8071 15.3589 25.9515 15.3919C26.547 15.5283 27.1229 15.3763 27.5733 14.9638L30.2623 12.5014C30.4203 12.3568 30.556 12.4522 30.6229 12.522C30.7024 12.6051 30.7676 12.7336 30.6271 12.8742L26.8456 16.6556C26.6271 16.8742 26.4739 17.1309 26.3906 17.4136L24.2093 17.3235L24.019 16.9939C23.881 16.7549 23.5753 16.6727 23.336 16.8109C23.0969 16.949 23.0149 17.2548 23.153 17.4939L23.4808 18.0617C23.5665 18.2101 23.722 18.3042 23.8932 18.3113L26.7965 18.4312C26.7985 18.4312 26.8006 18.4314 26.8028 18.4315L28.1254 18.4694C28.181 18.471 28.35 18.4759 28.3471 18.6744V18.6744ZM10.5034 21.2519C10.5044 21.0416 10.5127 20.7292 10.5223 20.3706C10.5413 19.6622 10.5648 18.7805 10.5566 17.9004C10.5551 17.7463 10.5595 17.5771 10.5641 17.3978C10.5862 16.5382 10.6136 15.4684 9.99421 14.8329C9.74346 14.5756 9.41765 14.4189 9.02327 14.3643C9.43715 13.9633 9.69515 13.4022 9.69515 12.7817C9.69515 11.5658 8.70596 10.5766 7.49008 10.5766C6.27421 10.5766 5.28496 11.5658 5.28496 12.7817C5.28496 13.4003 5.54133 13.9599 5.95302 14.3607C5.84052 14.3733 5.72896 14.3921 5.61902 14.4173C5.34946 14.479 5.09958 14.4129 4.89583 14.2263L2.20696 11.7641C1.61402 11.2209 0.873584 11.3866 0.448584 11.8306C0.0257712 12.2723 -0.106104 13.0156 0.459646 13.5814L4.24108 17.3627C4.26958 17.3912 4.2944 17.4206 4.31752 17.4504L3.63983 17.4699C2.84552 17.4927 2.43846 18.1004 2.4469 18.6888C2.45521 19.2664 2.88802 19.8804 3.67383 19.8804H4.47683V21.2514L3.08427 30.3334C2.97877 31.0213 3.38465 31.6141 4.07127 31.775C4.66415 31.9143 5.38908 31.6639 5.62696 30.917L7.49021 25.0654L9.35346 30.917C9.54983 31.5336 10.0781 31.8116 10.5901 31.8116C10.6982 31.8116 10.8056 31.7992 10.9091 31.7749C11.5957 31.6141 12.0016 31.0212 11.8961 30.3333L10.5036 21.2518L10.5034 21.2519ZM7.49002 11.5765C8.15452 11.5765 8.69508 12.1171 8.69508 12.7816C8.69508 13.4461 8.15452 13.9868 7.49002 13.9868C6.82552 13.9868 6.2849 13.4461 6.2849 12.7816C6.2849 12.1171 6.82552 11.5765 7.49002 11.5765ZM3.44665 18.6744C3.44383 18.4758 3.61283 18.471 3.6684 18.4694L4.99102 18.4315C4.99308 18.4315 4.99521 18.4313 4.99733 18.4312L7.90058 18.3113C8.07171 18.3042 8.22733 18.2101 8.31296 18.0617L8.64077 17.4939C8.7789 17.2548 8.6969 16.949 8.45777 16.8109C8.21865 16.6728 7.91283 16.7547 7.77477 16.9939L7.58446 17.3235L5.40321 17.4136C5.3199 17.1309 5.16665 16.8741 4.94815 16.6556L1.16671 12.8742C1.02615 12.7336 1.0914 12.6051 1.1709 12.522C1.23777 12.4522 1.37346 12.3567 1.53152 12.5015L4.2204 14.9637C4.6709 15.3764 5.24652 15.5284 5.84233 15.3919C5.98677 15.3589 6.13571 15.3421 6.28521 15.3421H8.69483C9.09421 15.3421 9.23258 15.4841 9.27808 15.5308C9.60315 15.8644 9.58165 16.7004 9.5644 17.3721C9.55958 17.5604 9.55502 17.7381 9.55658 17.9097V17.9127C9.55658 18.4463 9.12246 18.8804 8.58883 18.8804H3.67365C3.48846 18.8804 3.44796 18.7684 3.44658 18.6744L3.44665 18.6744ZM10.6807 30.8014C10.6121 30.8174 10.382 30.8516 10.3061 30.6136L7.96646 23.2657C7.9004 23.0583 7.70771 22.9174 7.49002 22.9174C7.27233 22.9174 7.07965 23.0583 7.01358 23.2657L4.67383 30.6135C4.59808 30.8515 4.36802 30.8174 4.29927 30.8014C4.17802 30.7729 4.04021 30.695 4.07246 30.4849L5.47083 21.3652C5.47471 21.3401 5.47665 21.3147 5.47665 21.2894V19.8803H8.58877C8.93383 19.8803 9.25833 19.7907 9.54058 19.6341C9.5349 19.8839 9.52852 20.1225 9.52258 20.3439C9.51183 20.7475 9.50327 21.0664 9.50327 21.2894C9.50327 21.3147 9.50521 21.3401 9.50908 21.3652L10.9075 30.4849C10.9397 30.695 10.802 30.7729 10.6806 30.8014H10.6807Z" fill="white"/>
</svg>
