<svg width="33" height="33" viewBox="0 0 33 33" fill="none" xmlns="http://www.w3.org/2000/svg">
<g opacity="0.8">
<path fill-rule="evenodd" clip-rule="evenodd" d="M14.1341 3.21875C14.3109 3.21875 14.4805 3.28899 14.6055 3.41401C14.7305 3.53904 14.8008 3.70861 14.8008 3.88542V9.44742C14.8008 9.88523 14.7145 10.3188 14.5469 10.7232C14.3794 11.1277 14.1337 11.4952 13.8241 11.8048L13.4888 12.1407C13.2326 12.3967 13.0759 12.7355 13.0467 13.0965C13.0176 13.4574 13.1178 13.817 13.3296 14.1107C13.5413 14.4045 13.8507 14.6134 14.2023 14.6998C14.554 14.7863 14.9249 14.7448 15.2488 14.5828L15.4101 14.5021C15.8418 14.2861 16.3178 14.1736 16.8004 14.1736C17.2831 14.1736 17.7591 14.2861 18.1908 14.5021L18.3528 14.5821C18.6765 14.7437 19.0472 14.7849 19.3985 14.6984C19.7499 14.6118 20.059 14.4031 20.2706 14.1096C20.4822 13.8161 20.5825 13.4568 20.5536 13.0962C20.5247 12.7355 20.3684 12.3968 20.1128 12.1407L19.7774 11.8048C19.4678 11.4952 19.2222 11.1277 19.0546 10.7232C18.887 10.3188 18.8008 9.88523 18.8008 9.44742V3.88542C18.8008 3.70861 18.871 3.53904 18.996 3.41401C19.1211 3.28899 19.2906 3.21875 19.4674 3.21875C19.6443 3.21875 19.8138 3.28899 19.9389 3.41401C20.0639 3.53904 20.1341 3.70861 20.1341 3.88542V5.02142C25.1401 6.46542 28.8008 11.0814 28.8008 16.5521C28.8008 22.0228 25.1401 26.6388 20.1341 28.0834V29.2188C20.1341 29.3956 20.0639 29.5651 19.9389 29.6902C19.8138 29.8152 19.6443 29.8854 19.4674 29.8854C19.2906 29.8854 19.1211 29.8152 18.996 29.6902C18.871 29.5651 18.8008 29.3956 18.8008 29.2188V23.6568C18.8008 23.2189 18.887 22.7854 19.0546 22.3809C19.2222 21.9765 19.4678 21.609 19.7774 21.2994L20.1128 20.9634C20.369 20.7075 20.5257 20.3687 20.5548 20.0077C20.584 19.6468 20.4837 19.2872 20.272 18.9934C20.0603 18.6996 19.7509 18.4908 19.3992 18.4043C19.0476 18.3178 18.6766 18.3594 18.3528 18.5214L18.1914 18.6021C17.7598 18.8181 17.2838 18.9306 16.8011 18.9306C16.3184 18.9306 15.8424 18.8181 15.4108 18.6021L15.2488 18.5221C14.925 18.3605 14.5544 18.3193 14.203 18.4058C13.8517 18.4924 13.5426 18.7011 13.331 18.9946C13.1194 19.2881 13.0191 19.6473 13.048 20.008C13.0769 20.3687 13.2331 20.7073 13.4888 20.9634L13.8241 21.2994C14.1337 21.609 14.3794 21.9765 14.5469 22.3809C14.7145 22.7854 14.8008 23.2189 14.8008 23.6568V29.2188C14.8008 29.3956 14.7305 29.5651 14.6055 29.6902C14.4805 29.8152 14.3109 29.8854 14.1341 29.8854C13.9573 29.8854 13.7877 29.8152 13.6627 29.6902C13.5377 29.5651 13.4674 29.3956 13.4674 29.2188V28.0834C8.46145 26.6388 4.80078 22.0234 4.80078 16.5521C4.80078 11.0814 8.46145 6.46542 13.4674 5.02142V3.88542C13.4674 3.70861 13.5377 3.53904 13.6627 3.41401C13.7877 3.28899 13.9573 3.21875 14.1341 3.21875ZM13.4674 6.41675C9.20878 7.81675 6.13411 11.8254 6.13411 16.5521C6.13411 21.2788 9.20878 25.2881 13.4674 26.6874V23.6568C13.4673 23.1264 13.2565 22.6177 12.8814 22.2428L12.5454 21.9068C12.0656 21.4267 11.7722 20.7916 11.7177 20.1151C11.6632 19.4385 11.8513 18.7647 12.2482 18.2141C12.6451 17.6635 13.2249 17.2721 13.884 17.1099C14.5431 16.9476 15.2383 17.0252 15.8454 17.3288L16.0068 17.4094C16.5068 17.6594 17.0948 17.6594 17.5948 17.4094L17.7561 17.3294C18.3631 17.0264 19.0581 16.9491 19.7169 17.1113C20.3756 17.2736 20.9552 17.6649 21.3519 18.2152C21.7487 18.7656 21.9368 19.4391 21.8826 20.1154C21.8284 20.7917 21.5355 21.4266 21.0561 21.9068L20.7201 22.2428C20.3452 22.6176 20.1344 23.1259 20.1341 23.6561V26.6874C24.3928 25.2874 27.4674 21.2788 27.4674 16.5521C27.4674 11.8254 24.3928 7.81608 20.1341 6.41675V9.44742C20.1342 9.97781 20.345 10.4864 20.7201 10.8614L21.0561 11.1974C21.536 11.6774 21.8294 12.3125 21.8839 12.9891C21.9383 13.6656 21.7503 14.3395 21.3534 14.8901C20.9565 15.4407 20.3766 15.8321 19.7176 15.9943C19.0585 16.1565 18.3632 16.0789 17.7561 15.7754L17.5948 15.6948C17.3483 15.5713 17.0764 15.5071 16.8008 15.5071C16.5251 15.5071 16.2533 15.5713 16.0068 15.6948L15.8454 15.7747C15.2385 16.0778 14.5435 16.1551 13.8847 15.9928C13.2259 15.8305 12.6464 15.4393 12.2496 14.8889C11.8529 14.3386 11.6648 13.6651 11.7189 12.9888C11.7731 12.3125 12.0661 11.6775 12.5454 11.1974L12.8814 10.8614C13.2564 10.4866 13.4672 9.97824 13.4674 9.44808V6.41675Z" fill="white"/>
</g>
</svg>
