<svg width="33" height="33" viewBox="0 0 33 33" fill="none" xmlns="http://www.w3.org/2000/svg">
<g opacity="0.8" clip-path="url(#clip0_7502_133)">
<path d="M6.40339 15.8292C7.00454 15.8292 7.58108 15.5904 8.00616 15.1653C8.43124 14.7402 8.67005 14.1637 8.67005 13.5625C8.67005 12.9613 8.43124 12.3848 8.00616 11.9597C7.58108 11.5346 7.00454 11.2958 6.40339 11.2958C5.80223 11.2958 5.22569 11.5346 4.80061 11.9597C4.37553 12.3848 4.13672 12.9613 4.13672 13.5625C4.13672 14.1637 4.37553 14.7402 4.80061 15.1653C5.22569 15.5904 5.80223 15.8292 6.40339 15.8292ZM6.40339 15.8292V22.6292M14.4034 14.0958C15.0045 14.0958 15.5811 13.857 16.0062 13.4319C16.4312 13.0069 16.6701 12.4303 16.6701 11.8292C16.6701 11.228 16.4312 10.6515 16.0062 10.2264C15.5811 9.80131 15.0045 9.5625 14.4034 9.5625C13.8022 9.5625 13.2257 9.80131 12.8006 10.2264C12.3755 10.6515 12.1367 11.228 12.1367 11.8292C12.1367 12.4303 12.3755 13.0069 12.8006 13.4319C13.2257 13.857 13.8022 14.0958 14.4034 14.0958ZM14.4034 14.0958V20.8958M21.6034 14.3625L23.7367 8.09583M21.8701 22.6292C22.0034 20.6292 23.6034 19.1625 25.6034 19.1625C28.1367 19.1625 30.0034 21.5625 29.2034 24.2292M24.4034 8.09583C25.0045 8.09583 25.5811 7.85702 26.0062 7.43194C26.4312 7.00686 26.6701 6.43032 26.6701 5.82917C26.6701 5.22801 26.4312 4.65147 26.0062 4.22639C25.5811 3.80131 25.0045 3.5625 24.4034 3.5625C23.8022 3.5625 23.2257 3.80131 22.8006 4.22639C22.3755 4.65147 22.1367 5.22801 22.1367 5.82917C22.1367 6.43032 22.3755 7.00686 22.8006 7.43194C23.2257 7.85702 23.8022 8.09583 24.4034 8.09583Z" stroke="white" stroke-width="2" stroke-miterlimit="10" stroke-linecap="round" stroke-linejoin="round"/>
<path d="M1.60156 26.0984C1.60156 27.4318 2.66823 28.8984 4.00156 28.8984H29.3349C30.0016 28.8984 31.6016 28.2318 31.6016 26.6318C31.6016 25.0318 30.0016 24.2318 29.3349 24.2318H24.0016C22.6682 24.2318 22.6682 23.5651 21.3349 22.2318C20.0016 20.8984 18.0016 20.8984 15.3349 20.8984C11.8682 20.8984 7.86823 22.3651 3.7349 23.4318C2.5349 23.5651 1.60156 24.7651 1.60156 26.0984Z" stroke="white" stroke-width="2" stroke-miterlimit="10" stroke-linecap="round" stroke-linejoin="round"/>
<path d="M17.0664 25.5625L17.7331 26.2292C18.3997 26.8958 20.3997 28.8958 22.3997 28.8958" stroke="white" stroke-width="2" stroke-miterlimit="10" stroke-linecap="round" stroke-linejoin="round"/>
</g>
<defs>
<clipPath id="clip0_7502_133">
<rect width="32" height="32" fill="white" transform="translate(0.601562 0.226562)"/>
</clipPath>
</defs>
</svg>
