<svg width="49" height="46" viewBox="0 0 49 46" fill="none" xmlns="http://www.w3.org/2000/svg">
<g opacity="0.8">
<mask id="mask0_7499_72" style="mask-type:luminance" maskUnits="userSpaceOnUse" x="1" y="23" width="46" height="13">
<path d="M1.97656 23.5078H46.7482V35.3633H1.97656V23.5078Z" fill="white"/>
</mask>
<g mask="url(#mask0_7499_72)">
<path d="M46.0485 35.3644H40.8304C40.5479 35.3644 40.319 35.1367 40.319 34.8551V30.1159H8.22531V34.8551C8.22531 35.1367 7.99542 35.3644 7.71384 35.3644H2.49584C2.21427 35.3644 1.98438 35.1367 1.98438 34.8551V24.0953C1.98438 23.8137 2.21427 23.5859 2.49584 23.5859H46.0485C46.33 23.5859 46.5589 23.8137 46.5589 24.0953V34.8551C46.5589 35.1367 46.33 35.3644 46.0485 35.3644ZM41.3419 34.3457H45.537V24.6047H3.00731V34.3457H7.20238V29.6065C7.20238 29.325 7.43122 29.0971 7.71384 29.0971H40.8304C41.1131 29.0971 41.3419 29.325 41.3419 29.6065V34.3457Z" fill="white"/>
</g>
<path d="M40.8297 32.5428H37.2231C37.0174 32.5428 36.8318 32.4194 36.7517 32.2296L35.7308 29.7998C35.6223 29.5404 35.7456 29.2409 36.0061 29.1334C36.2656 29.0248 36.5661 29.1471 36.6747 29.4065L37.5637 31.5241H40.8297C41.1123 31.5241 41.3411 31.7519 41.3411 32.0335C41.3411 32.314 41.1123 32.5428 40.8297 32.5428Z" fill="white"/>
<path d="M11.3212 32.5428H7.71459C7.43196 32.5428 7.20312 32.314 7.20312 32.0335C7.20312 31.7519 7.43196 31.5241 7.71459 31.5241H10.9806L11.8696 29.4065C11.9782 29.1471 12.2777 29.0248 12.5382 29.1334C12.7986 29.2409 12.9221 29.5404 12.8124 29.7998L11.7926 32.2296C11.7125 32.4194 11.5268 32.5428 11.3212 32.5428Z" fill="white"/>
<path d="M29.0442 24.6022C28.7627 24.6022 28.5338 24.3734 28.5338 24.0929V23.0404C28.5338 22.2959 27.9338 21.6906 27.1966 21.6906H13.4841C12.7469 21.6906 12.1469 22.2959 12.1469 23.0404V24.0929C12.1469 24.3734 11.918 24.6022 11.6365 24.6022C11.3538 24.6022 11.125 24.3734 11.125 24.0929V23.0404C11.125 21.7338 12.1838 20.6719 13.4841 20.6719H27.1966C28.498 20.6719 29.5557 21.7338 29.5557 23.0404V24.0929C29.5557 24.3734 29.3269 24.6022 29.0442 24.6022Z" fill="white"/>
<path d="M32.9718 24.6029C32.8579 24.6029 32.7429 24.5648 32.648 24.4869C32.4297 24.3086 32.3981 23.988 32.5763 23.7698L41.6024 12.8033C41.7806 12.5861 42.1033 12.5544 42.3215 12.7326C42.5399 12.9108 42.5715 13.2325 42.3922 13.4497L33.3673 24.4162C33.2659 24.5385 33.1194 24.6029 32.9718 24.6029Z" fill="white"/>
<path d="M37.0067 24.6023C36.8928 24.6023 36.7779 24.5644 36.683 24.4863C36.4647 24.3081 36.433 23.9876 36.6123 23.7692L43.9974 14.7959C44.1767 14.5787 44.4984 14.546 44.7167 14.7253C44.935 14.9035 44.9676 15.2241 44.7884 15.4424L37.4022 24.4157C37.302 24.538 37.1554 24.6023 37.0067 24.6023Z" fill="white"/>
<mask id="mask1_7499_72" style="mask-type:luminance" maskUnits="userSpaceOnUse" x="41" y="10" width="7" height="6">
<path d="M41.3516 10.0703H47.0209V15.6827H41.3516V10.0703Z" fill="white"/>
</mask>
<g mask="url(#mask1_7499_72)">
<path d="M44.2164 15.6421C43.5784 15.6421 42.9657 15.4206 42.468 15.0062C41.3048 14.037 41.1413 12.297 42.1041 11.1264C42.5724 10.557 43.2336 10.2058 43.9655 10.1372C44.6973 10.0687 45.4102 10.2902 45.9744 10.7605C47.1387 11.7297 47.3021 13.4696 46.3382 14.6402C45.87 15.2097 45.2088 15.5609 44.4769 15.6295C44.3894 15.6378 44.3029 15.6421 44.2164 15.6421ZM44.2249 11.1444C44.17 11.1444 44.1162 11.1464 44.0614 11.1517C43.6037 11.1949 43.1893 11.4154 42.8951 11.7729C42.2855 12.5121 42.3889 13.612 43.1239 14.2247C43.4772 14.5189 43.9243 14.6582 44.3809 14.6149C44.8397 14.5717 45.2542 14.3513 45.5484 13.9938C46.1569 13.2546 46.0545 12.1546 45.3195 11.5419C45.0074 11.2825 44.6235 11.1444 44.2249 11.1444Z" fill="white"/>
</g>
<path d="M43.8279 13.3527C43.5664 13.1344 43.5305 12.7442 43.7467 12.4816C43.9629 12.2191 44.351 12.1822 44.6125 12.3994C44.8729 12.6166 44.9098 13.0079 44.6937 13.2705C44.4775 13.5331 44.0894 13.57 43.8279 13.3527Z" fill="white"/>
<path d="M46.0492 24.6039C45.7665 24.6039 45.5377 24.3751 45.5377 24.0946V21.0901H39.902C39.6195 21.0901 39.3906 20.8613 39.3906 20.5797C39.3906 20.2991 39.6195 20.0703 39.902 20.0703H46.0492C46.3307 20.0703 46.5596 20.2991 46.5596 20.5797V24.0946C46.5596 24.3751 46.3307 24.6039 46.0492 24.6039Z" fill="white"/>
<path d="M7.71092 24.6072C7.42829 24.6072 7.19945 24.3784 7.19945 24.0979V18.1269C7.19945 17.5458 6.73227 17.0734 6.15753 17.0734C5.58279 17.0734 5.11562 17.5458 5.11562 18.1269V24.0979C5.11562 24.3784 4.88679 24.6072 4.60416 24.6072C4.32259 24.6072 4.09375 24.3784 4.09375 24.0979V18.1269C4.09375 16.9838 5.01966 16.0547 6.15753 16.0547C7.29541 16.0547 8.22238 16.9838 8.22238 18.1269V24.0979C8.22238 24.3784 7.99248 24.6072 7.71092 24.6072Z" fill="white"/>
</g>
</svg>
