<svg width="33" height="33" viewBox="0 0 33 33" fill="none" xmlns="http://www.w3.org/2000/svg">
<g opacity="0.8">
<path d="M22.8984 7.39062H28.0984C28.3106 7.39062 28.5141 7.47491 28.6641 7.62494C28.8142 7.77497 28.8984 7.97845 28.8984 8.19062V27.924C28.8984 28.1361 28.8142 28.3396 28.6641 28.4896C28.5141 28.6397 28.3106 28.724 28.0984 28.724H5.69844C5.48626 28.724 5.28278 28.6397 5.13275 28.4896C4.98272 28.3396 4.89844 28.1361 4.89844 27.924V8.19062C4.89844 7.97845 4.98272 7.77497 5.13275 7.62494C5.28278 7.47491 5.48626 7.39062 5.69844 7.39062H10.8984" stroke="white" stroke-width="2" stroke-linecap="round" stroke-linejoin="round"/>
<path d="M16.8971 11.3906L15.5638 8.05729M10.2305 23.3906H23.5638M22.6025 9.16263L22.8758 7.52263C22.8904 7.43523 22.8904 7.34602 22.8758 7.25863L22.6011 5.61863C22.4974 4.99643 22.1764 4.43115 21.6953 4.02324C21.2141 3.61532 20.6039 3.39118 19.9731 3.39063H13.8225C13.1912 3.39055 12.5804 3.61441 12.0987 4.02238C11.617 4.43035 11.2956 4.99597 11.1918 5.61863L10.9185 7.25863C10.9038 7.34602 10.9038 7.43523 10.9185 7.52263L11.1918 9.16263C11.2956 9.78528 11.617 10.3509 12.0987 10.7589C12.5804 11.1668 13.1912 11.3907 13.8225 11.3906H19.9718C20.6031 11.3907 21.2139 11.1668 21.6956 10.7589C22.1773 10.3509 22.4986 9.78528 22.6025 9.16263Z" stroke="white" stroke-width="2" stroke-linecap="round" stroke-linejoin="round"/>
</g>
</svg>
