<svg width="39" height="40" viewBox="0 0 39 40" fill="none" xmlns="http://www.w3.org/2000/svg">
<path d="M15.734 15.2914C15.7918 15.2914 15.8478 15.2807 15.9011 15.2586C15.9544 15.2363 16.0024 15.2043 16.0432 15.1635C16.0841 15.1226 16.1161 15.0746 16.1383 15.0213C16.1606 14.9671 16.1712 14.9111 16.1712 14.8534V13.8253C16.5195 13.6813 17.6702 13.4707 19.5051 13.4707C21.3391 13.4707 22.4889 13.6813 22.8381 13.8253V14.8534C22.8381 14.9111 22.8496 14.9671 22.8718 15.0213C22.8941 15.0746 22.9251 15.1226 22.9669 15.1635C23.0078 15.2043 23.0549 15.2363 23.1082 15.2586C23.1624 15.2807 23.2175 15.2914 23.2762 15.2914C23.3339 15.2914 23.3899 15.2807 23.4432 15.2586C23.4965 15.2363 23.5436 15.2043 23.5854 15.1635C23.6262 15.1226 23.6573 15.0746 23.6795 15.0213C23.7018 14.9671 23.7133 14.9111 23.7133 14.8534V13.6547C23.7133 12.9509 22.2979 12.5938 19.5051 12.5938C16.7123 12.5938 15.2969 12.9509 15.2969 13.6547V14.8534C15.2969 14.9111 15.3075 14.9671 15.3297 15.0213C15.3519 15.0746 15.3839 15.1226 15.4248 15.1635C15.4657 15.2043 15.5127 15.2363 15.567 15.2586C15.6203 15.2807 15.6763 15.2914 15.734 15.2914Z" fill="white"/>
<path d="M22.8967 18.4184C22.5226 18.2283 21.2431 18.0355 19.5051 18.0355C17.767 18.0355 16.4822 18.2283 16.1125 18.4184C16.0699 18.4416 16.0255 18.4584 15.9793 18.4691C15.9322 18.4797 15.8851 18.4842 15.8371 18.4833C15.7891 18.4816 15.742 18.4744 15.6958 18.4611C15.6496 18.4478 15.6061 18.4282 15.5652 18.4033C15.5243 18.3785 15.487 18.3491 15.4532 18.3145C15.4203 18.2798 15.3919 18.2416 15.3679 18.1998C15.3448 18.1581 15.3271 18.1136 15.3146 18.0674C15.3021 18.0204 15.2969 17.9733 15.2969 17.9253V16.6733C15.2969 16.6146 15.3075 16.5587 15.3297 16.5054C15.3519 16.4511 15.3839 16.404 15.4248 16.3632C15.4657 16.3214 15.5127 16.2903 15.567 16.2681C15.6203 16.2459 15.6763 16.2344 15.734 16.2344C15.7918 16.2344 15.8478 16.2459 15.9011 16.2681C15.9544 16.2903 16.0024 16.3214 16.0432 16.3632C16.0841 16.404 16.1161 16.4511 16.1383 16.5054C16.1606 16.5587 16.1712 16.6146 16.1712 16.6733V17.4704C17.0171 17.2429 18.4202 17.1567 19.5051 17.1567C20.5891 17.1567 21.9922 17.2429 22.8381 17.4704V16.7293C22.8381 16.6715 22.8496 16.6155 22.8718 16.5614C22.8941 16.508 22.9251 16.46 22.9669 16.4192C23.0078 16.3783 23.0549 16.3463 23.1082 16.3241C23.1624 16.3019 23.2175 16.2912 23.2762 16.2912C23.3339 16.2912 23.3899 16.3019 23.4432 16.3241C23.4965 16.3463 23.5436 16.3783 23.5854 16.4192C23.6262 16.46 23.6573 16.508 23.6795 16.5614C23.7018 16.6155 23.7133 16.6715 23.7133 16.7293V17.9253C23.7133 18.0221 23.6902 18.1136 23.6422 18.1981C23.5952 18.2834 23.5294 18.3509 23.4468 18.4016C23.3632 18.4522 23.2726 18.4789 23.174 18.4824C23.0762 18.4859 22.9838 18.4647 22.8967 18.4184Z" fill="white"/>
<path d="M19.5036 19.9343C20.3478 19.9397 21.1875 19.8881 22.0245 19.7788C22.0822 19.7709 22.1355 19.7522 22.1862 19.722C22.236 19.6926 22.2786 19.6544 22.3132 19.6073C22.3479 19.5611 22.3728 19.5096 22.387 19.4536C22.4012 19.3967 22.4039 19.3399 22.3959 19.2821C22.3879 19.2244 22.3683 19.1711 22.339 19.1213C22.3088 19.0706 22.2715 19.0289 22.2244 18.9934C22.1782 18.9587 22.1267 18.9347 22.0707 18.9196C22.0138 18.9054 21.9569 18.9027 21.9001 18.9107C20.3007 19.0999 18.7013 19.0999 17.1018 18.9107C17.0441 18.9027 16.9872 18.9054 16.9312 18.9196C16.8753 18.9347 16.8237 18.9587 16.7775 18.9934C16.7304 19.0289 16.6922 19.0706 16.6629 19.1213C16.6335 19.1711 16.614 19.2244 16.606 19.2821C16.598 19.3399 16.6007 19.3967 16.6149 19.4536C16.6291 19.5096 16.654 19.5611 16.6887 19.6073C16.7233 19.6544 16.7659 19.6926 16.8157 19.722C16.8655 19.7522 16.9197 19.7709 16.9765 19.7788C17.8154 19.8881 18.6577 19.9397 19.5036 19.9343Z" fill="white"/>
<path d="M25.8313 17.1046C25.8979 17.1055 25.9637 17.1011 26.0295 17.0931C26.0952 17.0851 26.161 17.0727 26.225 17.0567C26.289 17.0398 26.352 17.0193 26.4143 16.9953C26.4755 16.9705 26.536 16.942 26.5937 16.91C26.6515 16.8781 26.7075 16.8425 26.7616 16.8034C26.815 16.7643 26.8656 16.7216 26.9145 16.6754C26.9625 16.6301 27.0078 16.5813 27.0496 16.5297C27.0913 16.4782 27.1304 16.4248 27.1651 16.368C27.2006 16.312 27.2317 16.2534 27.2602 16.193C27.2877 16.1325 27.3117 16.0703 27.3312 16.0072C27.3517 15.9433 27.3668 15.8793 27.3783 15.8136C27.3907 15.7478 27.3979 15.6821 27.4014 15.6154C27.405 15.5487 27.4041 15.483 27.3988 15.4164C27.3934 15.3497 27.3845 15.284 27.3712 15.2191C27.357 15.1542 27.3401 15.0902 27.3179 15.0272C27.2966 14.9641 27.2708 14.9027 27.2415 14.8432C27.2121 14.7837 27.1793 14.7259 27.1428 14.6709C27.1064 14.6149 27.0665 14.5625 27.0229 14.5118C26.9793 14.4611 26.9331 14.4141 26.8834 14.3696C26.8345 14.3252 26.7821 14.2843 26.727 14.2461C26.6728 14.2088 26.6159 14.1742 26.5573 14.144C26.4977 14.1128 26.4373 14.0862 26.3751 14.064C26.3129 14.0409 26.249 14.0222 26.1841 14.0071C26.1192 13.9929 26.0544 13.9822 25.9877 13.976C25.922 13.9698 25.8562 13.9671 25.7895 13.9698C25.7229 13.9715 25.6572 13.9778 25.5914 13.9884C25.5265 13.9991 25.4617 14.0133 25.3977 14.032C25.3338 14.0515 25.2715 14.0737 25.2111 14.1004C25.1507 14.1271 25.0911 14.1581 25.0343 14.1919C24.9774 14.2266 24.9232 14.2639 24.8708 14.3048C24.8184 14.3465 24.7695 14.391 24.7233 14.438C24.6762 14.4851 24.6327 14.5358 24.5927 14.5891C24.558 14.6353 24.5323 14.6859 24.518 14.7428C24.5029 14.7988 24.4994 14.8557 24.5074 14.9134C24.5145 14.9712 24.5332 15.0254 24.5625 15.0751C24.5918 15.1258 24.6291 15.1685 24.6753 15.204C24.7215 15.2386 24.7722 15.2644 24.829 15.2786C24.885 15.2938 24.9419 15.2973 24.9996 15.2902C25.0565 15.2822 25.1107 15.2635 25.1604 15.2342C25.2111 15.2049 25.2538 15.1676 25.2893 15.1214C25.3186 15.0823 25.3515 15.0476 25.3879 15.0156C25.4244 14.9836 25.4644 14.9561 25.507 14.933C25.5487 14.9099 25.5932 14.8912 25.6403 14.877C25.6865 14.8636 25.7336 14.8548 25.7816 14.8503C25.8305 14.8468 25.8784 14.8477 25.9264 14.8539C25.9744 14.8601 26.0215 14.8717 26.0668 14.8877C26.1121 14.9036 26.1556 14.9241 26.1974 14.9499C26.2383 14.9747 26.2765 15.0041 26.3121 15.0378C26.3467 15.0707 26.3787 15.108 26.4062 15.148C26.4329 15.188 26.456 15.2297 26.4746 15.2751C26.4933 15.3195 26.5067 15.3657 26.5155 15.4137C26.5244 15.4617 26.5289 15.5096 26.5271 15.5577C26.5262 15.6065 26.52 15.6545 26.5084 15.7016C26.4969 15.7487 26.4809 15.794 26.4605 15.8376C26.4391 15.882 26.4143 15.9229 26.384 15.961C26.3547 15.9993 26.3218 16.0348 26.2845 16.0659C26.2481 16.0979 26.2081 16.1245 26.1654 16.1476C26.1228 16.1707 26.0784 16.1894 26.0322 16.2028C25.986 16.2169 25.9379 16.225 25.89 16.2294C25.842 16.233 25.794 16.2312 25.746 16.225C25.698 16.2187 25.6509 16.2072 25.6056 16.1903C25.5594 16.1743 25.5168 16.153 25.475 16.1281C25.4341 16.1023 25.396 16.073 25.3613 16.0392C25.3257 16.0055 25.2946 15.9691 25.268 15.9291C25.2342 15.8811 25.1933 15.8411 25.1445 15.81C25.0956 15.778 25.0423 15.7576 24.9854 15.7469C24.9286 15.7362 24.8708 15.7371 24.8139 15.7495C24.7571 15.762 24.7055 15.7851 24.6575 15.818C24.6096 15.8509 24.5696 15.8926 24.5385 15.9415C24.5074 15.9903 24.4861 16.0437 24.4754 16.1006C24.4656 16.1583 24.4665 16.2152 24.4789 16.2721C24.4905 16.3298 24.5136 16.3822 24.5465 16.4302C24.6922 16.6408 24.8788 16.8061 25.1063 16.926C25.3329 17.0451 25.5745 17.1046 25.8313 17.1046Z" fill="white"/>
<path d="M23.274 15.298H24.9383C24.9961 15.298 25.052 15.2873 25.1053 15.2652C25.1587 15.2429 25.2058 15.2109 25.2475 15.1701C25.2884 15.1292 25.3195 15.0812 25.3417 15.0279C25.364 14.9737 25.3755 14.9177 25.3755 14.86C25.3755 14.8022 25.364 14.7462 25.3417 14.692C25.3195 14.6387 25.2884 14.5907 25.2475 14.5498C25.2058 14.5089 25.1587 14.477 25.1053 14.4548C25.052 14.4325 24.9961 14.4219 24.9383 14.4219H23.274C23.2154 14.4219 23.1603 14.4325 23.1061 14.4548C23.0528 14.477 23.0057 14.5089 22.9648 14.5498C22.9231 14.5907 22.8919 14.6387 22.8697 14.692C22.8475 14.7462 22.8359 14.8022 22.8359 14.86C22.8359 14.9177 22.8475 14.9737 22.8697 15.0279C22.8919 15.0812 22.9231 15.1292 22.9648 15.1701C23.0057 15.2109 23.0528 15.2429 23.1061 15.2652C23.1603 15.2873 23.2154 15.298 23.274 15.298Z" fill="white"/>
<path d="M13.1738 17.102C13.435 17.1037 13.6812 17.0433 13.9113 16.9207C14.1423 16.7981 14.3307 16.6284 14.4765 16.4107C14.5093 16.3627 14.5307 16.3103 14.5422 16.2534C14.5538 16.1957 14.5546 16.1388 14.5431 16.0819C14.5324 16.0251 14.5102 15.9717 14.4782 15.9237C14.4462 15.8748 14.4062 15.8349 14.3583 15.802C14.3103 15.7691 14.2579 15.7469 14.201 15.7354C14.1441 15.7238 14.0873 15.7238 14.0304 15.7345C13.9736 15.746 13.9202 15.7674 13.8722 15.7993C13.8233 15.8313 13.7834 15.8713 13.7505 15.9202C13.7238 15.9601 13.6928 15.9966 13.6581 16.0304C13.6234 16.0642 13.5852 16.0944 13.5444 16.1201C13.5035 16.1459 13.46 16.1663 13.4146 16.1832C13.3693 16.2001 13.3222 16.2116 13.2742 16.2178C13.2271 16.225 13.1783 16.2259 13.1303 16.2232C13.0823 16.2196 13.0352 16.2107 12.9881 16.1974C12.9419 16.1841 12.8975 16.1654 12.8548 16.1432C12.8122 16.1201 12.7722 16.0926 12.7358 16.0615C12.6985 16.0304 12.6656 15.9957 12.6354 15.9575C12.606 15.9193 12.5803 15.8775 12.5598 15.834C12.5385 15.7905 12.5225 15.7452 12.511 15.6981C12.4994 15.6509 12.4932 15.603 12.4914 15.555C12.4896 15.5061 12.4941 15.4582 12.5021 15.411C12.511 15.3631 12.5243 15.3169 12.5429 15.2715C12.5616 15.2271 12.5838 15.1845 12.6113 15.1445C12.6389 15.1045 12.67 15.068 12.7047 15.0343C12.7402 15.0014 12.7784 14.9721 12.8193 14.9463C12.861 14.9206 12.9037 14.9001 12.9499 14.8841C12.9953 14.8681 13.0423 14.8565 13.0903 14.8503C13.1374 14.8441 13.1863 14.8424 13.2342 14.8468C13.2822 14.8503 13.3293 14.8592 13.3755 14.8726C13.4226 14.8868 13.467 14.9054 13.5088 14.9285C13.5515 14.9516 13.5915 14.9792 13.6279 15.0103C13.6643 15.0423 13.698 15.0769 13.7274 15.116C13.7638 15.1552 13.8074 15.1862 13.8554 15.2102C13.9043 15.2333 13.9558 15.2476 14.01 15.252C14.0633 15.2564 14.1166 15.2511 14.1681 15.2351C14.2206 15.22 14.2676 15.196 14.3103 15.1631C14.3538 15.1302 14.3894 15.0902 14.4178 15.044C14.4462 14.9978 14.4649 14.9481 14.4747 14.8948C14.4845 14.8415 14.4845 14.7891 14.4747 14.7357C14.4649 14.6824 14.4462 14.6326 14.4178 14.5864C14.3778 14.5331 14.3343 14.4834 14.2881 14.4363C14.2419 14.3883 14.1921 14.3448 14.1406 14.3039C14.0882 14.2621 14.0339 14.2248 13.9771 14.191C13.9202 14.1573 13.8616 14.1262 13.8002 14.0995C13.7399 14.0738 13.6776 14.0506 13.6146 14.032C13.5506 14.0133 13.4866 13.9991 13.4208 13.9885C13.356 13.9778 13.2902 13.9716 13.2236 13.9698C13.1578 13.9671 13.0912 13.9698 13.0254 13.976C12.9597 13.9823 12.8948 13.992 12.83 14.0071C12.7651 14.0213 12.702 14.04 12.6398 14.0631C12.5776 14.0853 12.5172 14.1119 12.4577 14.1421C12.399 14.1724 12.3421 14.207 12.2879 14.2443C12.2328 14.2817 12.1813 14.3225 12.1316 14.367C12.0827 14.4114 12.0365 14.4585 11.9929 14.5083C11.9494 14.5589 11.9094 14.6114 11.8721 14.6664C11.8357 14.7215 11.8028 14.7793 11.7735 14.8388C11.7433 14.8975 11.7183 14.9587 11.6961 15.0218C11.6748 15.084 11.6571 15.148 11.6428 15.2129C11.6295 15.2778 11.6197 15.3435 11.6144 15.4093C11.6091 15.4759 11.6082 15.5416 11.6108 15.6083C11.6144 15.675 11.6215 15.7407 11.633 15.8055C11.6437 15.8713 11.6597 15.9353 11.6792 15.9993C11.6988 16.0623 11.7219 16.1245 11.7495 16.185C11.777 16.2454 11.8081 16.3041 11.8428 16.36C11.8774 16.4169 11.9156 16.4711 11.9574 16.5226C11.9991 16.5742 12.0436 16.623 12.0916 16.6683C12.1395 16.7145 12.1893 16.7572 12.2426 16.7972C12.2959 16.8363 12.3519 16.8718 12.4097 16.9047C12.4674 16.9367 12.527 16.966 12.5882 16.9909C12.6496 17.0158 12.7118 17.0362 12.7757 17.0531C12.8406 17.07 12.9046 17.0824 12.9703 17.0913C13.0361 17.1002 13.1018 17.1047 13.1685 17.1047L13.1738 17.102Z" fill="white"/>
<path d="M14.0661 15.298H15.7303C15.7881 15.298 15.8441 15.2873 15.8974 15.2652C15.9507 15.2429 15.9987 15.2109 16.0395 15.1701C16.0805 15.1292 16.1124 15.0812 16.1346 15.0279C16.1569 14.9737 16.1675 14.9177 16.1675 14.86C16.1675 14.8022 16.1569 14.7462 16.1346 14.692C16.1124 14.6387 16.0805 14.5907 16.0395 14.5498C15.9987 14.5089 15.9507 14.477 15.8974 14.4548C15.8441 14.4325 15.7881 14.4219 15.7303 14.4219H14.0661C14.0083 14.4219 13.9523 14.4325 13.8981 14.4548C13.8448 14.477 13.7977 14.5089 13.7568 14.5498C13.716 14.5907 13.684 14.6387 13.6618 14.692C13.6396 14.7462 13.6289 14.8022 13.6289 14.86C13.6289 14.9177 13.6396 14.9737 13.6618 15.0279C13.684 15.0812 13.716 15.1292 13.7568 15.1701C13.7977 15.2109 13.8448 15.2429 13.8981 15.2652C13.9523 15.2873 14.0083 15.298 14.0661 15.298Z" fill="white"/>
<path d="M17.0417 13.2003C17.0995 13.2003 17.1555 13.1887 17.2088 13.1665C17.2621 13.1443 17.3101 13.1132 17.351 13.0723C17.3919 13.0305 17.4238 12.9834 17.4461 12.9302C17.4683 12.8759 17.4798 12.82 17.4798 12.7622V11.7741C17.4754 11.7181 17.4621 11.6657 17.4381 11.616C17.4132 11.5662 17.3812 11.5218 17.3412 11.4844C17.3004 11.4471 17.2542 11.4178 17.2026 11.3974C17.1511 11.3769 17.0977 11.3672 17.0427 11.3672C16.9876 11.3672 16.9343 11.3769 16.8827 11.3974C16.8312 11.4178 16.785 11.4471 16.7441 11.4844C16.7041 11.5218 16.6713 11.5662 16.6472 11.616C16.6232 11.6657 16.609 11.7181 16.6055 11.7741V12.7622C16.6055 12.82 16.6161 12.8759 16.6384 12.9293C16.6606 12.9826 16.6917 13.0305 16.7325 13.0715C16.7734 13.1123 16.8205 13.1443 16.8747 13.1665C16.9281 13.1887 16.9831 13.2003 17.0417 13.2003Z" fill="white"/>
<path d="M21.9588 13.2003C22.0175 13.2003 22.0734 13.1887 22.1267 13.1665C22.1801 13.1443 22.2281 13.1132 22.2689 13.0723C22.3098 13.0305 22.3418 12.9834 22.364 12.9302C22.3862 12.8759 22.3978 12.82 22.3978 12.7622V11.7741C22.3933 11.7181 22.3791 11.6657 22.3551 11.616C22.3311 11.5662 22.2992 11.5218 22.2582 11.4844C22.2183 11.4471 22.1721 11.4178 22.1205 11.3974C22.069 11.3769 22.0157 11.3672 21.9606 11.3672C21.9055 11.3672 21.8522 11.3769 21.8006 11.3974C21.7491 11.4178 21.7029 11.4471 21.662 11.4844C21.6221 11.5218 21.5892 11.5662 21.5652 11.616C21.5412 11.6657 21.527 11.7181 21.5234 11.7741V12.7622C21.5234 12.82 21.5341 12.8759 21.5563 12.9293C21.5785 12.9826 21.6096 13.0305 21.6505 13.0715C21.6914 13.1123 21.7384 13.1443 21.7927 13.1665C21.846 13.1887 21.9011 13.2003 21.9588 13.2003Z" fill="white"/>
<mask id="mask0_7499_204" style="mask-type:luminance" maskUnits="userSpaceOnUse" x="15" y="6" width="9" height="4">
<path d="M15.125 6.32031H23.769V9.1353H15.125V6.32031Z" fill="white"/>
</mask>
<g mask="url(#mask0_7499_204)">
<path d="M15.7263 9.01798C15.7841 9.01798 15.8401 9.00643 15.8934 8.98421C15.9467 8.96199 15.9947 8.93092 16.0355 8.88918C16.0764 8.84825 16.1084 8.80117 16.1306 8.747C16.1528 8.69364 16.1635 8.63771 16.1635 8.57902V7.55276C16.5118 7.40882 17.6625 7.19646 19.4974 7.19646C21.3314 7.19646 22.4812 7.40882 22.8304 7.55276V8.57462C22.8304 8.63237 22.8419 8.6883 22.8641 8.74254C22.8864 8.79583 22.9174 8.84291 22.9592 8.88472C23.0001 8.92558 23.0472 8.9576 23.1005 8.97976C23.1547 9.00198 23.2098 9.01265 23.2685 9.01265C23.3262 9.01265 23.3822 9.00198 23.4355 8.97976C23.4888 8.9576 23.5359 8.92558 23.5777 8.88472C23.6185 8.84291 23.6496 8.79583 23.6718 8.74254C23.6941 8.6883 23.7056 8.63237 23.7056 8.57462V7.38126C23.7056 6.67663 22.2902 6.32031 19.4974 6.32031C16.7046 6.32031 15.2891 6.67663 15.2891 7.38126V8.57462C15.2882 8.63325 15.2989 8.68925 15.3202 8.7443C15.3425 8.79853 15.3735 8.84649 15.4144 8.88823C15.4562 8.93004 15.5033 8.96199 15.5575 8.98421C15.6117 9.00643 15.6677 9.01798 15.7263 9.01798Z" fill="white"/>
</g>
<path d="M15.8493 12.2126C15.9408 12.2126 16.027 12.1912 16.1078 12.1495C16.4828 11.9575 17.7623 11.7647 19.5012 11.7647C21.2411 11.7647 22.5241 11.9575 22.8938 12.1495C22.9809 12.1948 23.0741 12.2152 23.1719 12.2117C23.2705 12.2081 23.3611 12.1806 23.4447 12.129C23.5273 12.0784 23.5922 12.0118 23.6402 11.9265C23.6872 11.842 23.7103 11.7514 23.7095 11.6545V10.4594C23.7095 10.4017 23.6988 10.3457 23.6766 10.2915C23.6544 10.2381 23.6224 10.1911 23.5815 10.1493C23.5407 10.1085 23.4935 10.0764 23.4394 10.0542C23.3861 10.032 23.3301 10.0214 23.2723 10.0214C23.2146 10.0214 23.1586 10.032 23.1053 10.0542C23.0519 10.0764 23.004 10.1085 22.9631 10.1493C22.9222 10.1911 22.8902 10.2381 22.868 10.2915C22.8458 10.3457 22.8351 10.4017 22.8351 10.4594V11.2023C21.9892 10.9739 20.5862 10.8895 19.5012 10.8895C18.4172 10.8895 17.0141 10.9739 16.1683 11.2023V10.399C16.1683 10.3412 16.1567 10.2853 16.1345 10.2319C16.1123 10.1778 16.0811 10.1307 16.0394 10.0897C15.9985 10.048 15.9514 10.0169 15.8981 9.99471C15.8439 9.97249 15.7888 9.96094 15.7302 9.96094C15.6724 9.96094 15.6164 9.97249 15.5631 9.99471C15.5098 10.0169 15.4627 10.048 15.421 10.0897C15.3801 10.1307 15.349 10.1778 15.3267 10.2319C15.3045 10.2853 15.293 10.3412 15.293 10.399V11.6519C15.293 11.7488 15.3161 11.8393 15.3632 11.9238C15.4103 12.0091 15.4751 12.0766 15.5578 12.1264C15.6466 12.1833 15.7444 12.2117 15.8493 12.2126Z" fill="white"/>
<path d="M25.8305 10.8292C25.9362 10.8354 26.042 10.8301 26.1477 10.8149C26.2525 10.799 26.3556 10.7732 26.4552 10.7368C26.5555 10.6994 26.6506 10.6532 26.7413 10.5972C26.8319 10.5413 26.9154 10.4764 26.9936 10.4035C27.0709 10.3298 27.1393 10.2499 27.2006 10.1619C27.262 10.0748 27.3135 9.98239 27.3553 9.88377C27.3979 9.78603 27.429 9.68472 27.4512 9.58077C27.4726 9.47588 27.4833 9.37017 27.4833 9.26352C27.4833 9.15687 27.4726 9.05116 27.4512 8.94721C27.429 8.84232 27.3979 8.74107 27.3553 8.64333C27.3135 8.54465 27.262 8.45225 27.2006 8.36519C27.1393 8.27724 27.0709 8.19727 26.9936 8.12351C26.9154 8.05063 26.8319 7.98579 26.7413 7.9298C26.6506 7.87381 26.5555 7.82761 26.4552 7.79032C26.3556 7.75385 26.2525 7.72811 26.1477 7.7121C26.042 7.69698 25.9362 7.69164 25.8305 7.69786C25.5853 7.6961 25.3525 7.74939 25.1321 7.8578C24.9126 7.96709 24.7287 8.11906 24.5812 8.31541C24.5456 8.36161 24.5208 8.41314 24.5057 8.46914C24.4914 8.52513 24.4879 8.582 24.4959 8.63975C24.503 8.6975 24.5217 8.75174 24.551 8.80145C24.5803 8.85211 24.6176 8.89479 24.6638 8.92945C24.71 8.96497 24.7616 8.98983 24.8175 9.00496C24.8735 9.02009 24.9304 9.0236 24.9872 9.01563C25.045 9.0076 25.0992 8.98895 25.1489 8.95964C25.1987 8.93032 25.2414 8.89297 25.2769 8.84677C25.3125 8.7997 25.3525 8.75707 25.3987 8.7206C25.4449 8.68419 25.4946 8.654 25.5479 8.62996C25.6012 8.60598 25.6572 8.58909 25.715 8.5793C25.7737 8.56957 25.8314 8.56687 25.89 8.57221C25.9487 8.57754 26.0055 8.58997 26.0606 8.61044C26.1166 8.62996 26.1682 8.65664 26.217 8.68953C26.265 8.72242 26.3085 8.76147 26.3476 8.80591C26.3867 8.85035 26.4187 8.89831 26.4454 8.95073C26.4721 9.00408 26.4907 9.05913 26.5031 9.116C26.5156 9.17375 26.52 9.23245 26.5183 9.29108C26.5156 9.3497 26.5058 9.40746 26.4881 9.46345C26.4712 9.52032 26.4471 9.57361 26.4161 9.62339C26.3849 9.67405 26.3485 9.71937 26.3068 9.76024C26.2641 9.80022 26.217 9.83575 26.1655 9.86419C26.1148 9.89262 26.0606 9.91484 26.0038 9.92997C25.9469 9.94504 25.8892 9.95219 25.8305 9.95219C25.7168 9.95219 25.6093 9.92551 25.5088 9.87222C25.4076 9.81886 25.3249 9.74605 25.2609 9.65183C25.2272 9.60387 25.1863 9.56388 25.1374 9.53275C25.0886 9.5008 25.0352 9.47946 24.9784 9.46966C24.9206 9.45899 24.8637 9.45987 24.8069 9.47236C24.75 9.48479 24.6975 9.50701 24.6496 9.54078C24.6025 9.57361 24.5625 9.61542 24.5314 9.66426C24.4994 9.71316 24.479 9.76645 24.4683 9.8242C24.4576 9.88107 24.4586 9.93882 24.471 9.99569C24.4834 10.0526 24.5065 10.105 24.5394 10.153C24.686 10.3654 24.8735 10.5315 25.1019 10.6506C25.3302 10.7706 25.5728 10.8301 25.8305 10.8292Z" fill="white"/>
<path d="M23.274 9.01761H24.9383C24.9961 9.01761 25.052 9.00606 25.1053 8.98391C25.1587 8.96168 25.2058 8.93055 25.2475 8.88881C25.2884 8.84794 25.3195 8.80086 25.3417 8.74663C25.364 8.69333 25.3755 8.63734 25.3755 8.57871C25.3755 8.52096 25.364 8.46497 25.3417 8.41161C25.3195 8.35744 25.2884 8.31036 25.2475 8.2695C25.2058 8.22769 25.1587 8.19662 25.1053 8.1744C25.052 8.15217 24.9961 8.14062 24.9383 8.14062H23.274C23.2154 8.14062 23.1603 8.15217 23.1061 8.1744C23.0528 8.19662 23.0057 8.22769 22.9648 8.2695C22.9231 8.31036 22.8919 8.35744 22.8697 8.41161C22.8475 8.46497 22.8359 8.52096 22.8359 8.57871C22.8359 8.63734 22.8475 8.69333 22.8697 8.74663C22.8919 8.80086 22.9231 8.84794 22.9648 8.88881C23.0057 8.93055 23.0528 8.96168 23.1061 8.98391C23.1603 9.00606 23.2154 9.01761 23.274 9.01761Z" fill="white"/>
<path d="M13.1703 10.8347C13.4306 10.8356 13.6767 10.7761 13.9069 10.6544C14.1379 10.5326 14.3263 10.3629 14.4729 10.147C14.5058 10.099 14.528 10.0465 14.5395 9.98967C14.5511 9.93286 14.5511 9.87504 14.5404 9.81823C14.5297 9.76136 14.5076 9.70801 14.4756 9.66005C14.4435 9.61115 14.4036 9.57028 14.3556 9.53833C14.3076 9.50544 14.2552 9.48322 14.1984 9.47167C14.1415 9.46012 14.0846 9.46012 14.0277 9.47079C13.9709 9.48234 13.9185 9.50368 13.8696 9.53563C13.8216 9.56765 13.7807 9.60763 13.7487 9.65647C13.7212 9.69646 13.6901 9.73381 13.6554 9.76758C13.6208 9.80135 13.5834 9.83066 13.5417 9.8564C13.5008 9.8822 13.4573 9.90348 13.4119 9.92036C13.3666 9.93725 13.3195 9.9488 13.2715 9.95596C13.2236 9.96217 13.1756 9.96393 13.1276 9.96035C13.0788 9.95684 13.0316 9.9488 12.9854 9.93549C12.9383 9.92219 12.8939 9.90348 12.8513 9.88132C12.8086 9.85822 12.7687 9.83066 12.7313 9.79953C12.694 9.76846 12.6611 9.73381 12.6309 9.69558C12.6016 9.65735 12.5758 9.61561 12.5545 9.57204C12.534 9.52854 12.5172 9.48322 12.5056 9.43614C12.494 9.389 12.4878 9.34104 12.4861 9.2922C12.4852 9.24418 12.4888 9.19535 12.4967 9.1482C12.5056 9.10025 12.519 9.05405 12.5376 9.00872C12.5554 8.96428 12.5785 8.92166 12.606 8.88167C12.6336 8.84081 12.6646 8.80434 12.6993 8.77057C12.7349 8.7368 12.7731 8.70748 12.8139 8.68262C12.8548 8.65682 12.8983 8.63554 12.9445 8.61954C12.9899 8.60353 13.0369 8.59198 13.085 8.58577C13.1329 8.57955 13.1809 8.57779 13.2289 8.58131C13.2778 8.58577 13.3249 8.59468 13.3711 8.60799C13.4182 8.62217 13.4626 8.63994 13.5052 8.6631C13.5479 8.68708 13.587 8.7137 13.6243 8.74571C13.6608 8.77678 13.6936 8.81237 13.7239 8.85054C13.7585 8.89674 13.8011 8.93497 13.8509 8.96428C13.9016 8.99272 13.9549 9.01136 14.0126 9.0194C14.0704 9.02737 14.1264 9.02385 14.1832 9.00872C14.2392 8.9936 14.2899 8.96874 14.3361 8.93409C14.3823 8.89856 14.4196 8.85587 14.4489 8.80616C14.4782 8.7555 14.4969 8.70127 14.5049 8.6444C14.512 8.58664 14.5085 8.52977 14.4942 8.47378C14.4791 8.41691 14.4542 8.36631 14.4196 8.32011C14.321 8.18861 14.2036 8.07486 14.0695 7.98064C13.9353 7.88561 13.7896 7.81361 13.6323 7.76565C13.4759 7.71675 13.3151 7.69365 13.1507 7.69541C12.9864 7.69723 12.8264 7.72472 12.6709 7.7772C12.5154 7.82961 12.3714 7.90513 12.2391 8.00286C12.1075 8.1006 11.9938 8.21704 11.8978 8.35031C11.8018 8.48445 11.729 8.63021 11.6792 8.78657C11.6295 8.94388 11.6046 9.1047 11.6055 9.26904C11.6055 9.37218 11.6162 9.47343 11.6366 9.57474C11.657 9.67511 11.6863 9.77291 11.7263 9.86795C11.7654 9.96305 11.8134 10.0528 11.8712 10.1381C11.9281 10.2243 11.9929 10.3033 12.0658 10.3753C12.1377 10.4482 12.2168 10.5131 12.3021 10.5699C12.3874 10.6277 12.4772 10.6756 12.5722 10.7147C12.6673 10.7539 12.7642 10.784 12.8655 10.8045C12.9659 10.824 13.0672 10.8347 13.1703 10.8347Z" fill="white"/>
<path d="M14.0661 9.01761H15.7303C15.7881 9.01761 15.8441 9.00606 15.8974 8.98391C15.9507 8.96168 15.9987 8.93055 16.0395 8.88881C16.0805 8.84794 16.1124 8.80086 16.1346 8.74663C16.1569 8.69333 16.1675 8.63734 16.1675 8.57871C16.1675 8.52096 16.1569 8.46497 16.1346 8.41161C16.1124 8.35744 16.0805 8.31036 16.0395 8.2695C15.9987 8.22769 15.9507 8.19662 15.8974 8.1744C15.8441 8.15217 15.7881 8.14062 15.7303 8.14062H14.0661C14.0083 8.14062 13.9523 8.15217 13.8981 8.1744C13.8448 8.19662 13.7977 8.22769 13.7568 8.2695C13.716 8.31036 13.684 8.35744 13.6618 8.41161C13.6396 8.46497 13.6289 8.52096 13.6289 8.57871C13.6289 8.63734 13.6396 8.69333 13.6618 8.74663C13.684 8.80086 13.716 8.84794 13.7568 8.88881C13.7977 8.93055 13.8448 8.96168 13.8981 8.98391C13.9523 9.00606 14.0083 9.01761 14.0661 9.01761Z" fill="white"/>
<path d="M11.3656 23.7194C11.4269 23.7194 11.4855 23.707 11.5415 23.682C11.5948 23.6581 11.641 23.6252 11.681 23.5834C11.721 23.5417 11.7512 23.4937 11.7725 23.4404C11.793 23.3862 11.8027 23.3302 11.8018 23.2724C11.8009 23.2138 11.7885 23.1587 11.7654 23.1054L10.397 20.0016C10.3704 19.9546 10.3357 19.9136 10.294 19.8799C10.2513 19.8452 10.2042 19.8195 10.1527 19.8026C10.1011 19.7857 10.0487 19.7786 9.99449 19.7821C9.94031 19.7848 9.8879 19.7973 9.83812 19.8195C9.78922 19.8417 9.74484 19.8719 9.70661 19.9101C9.66838 19.9483 9.63819 19.9927 9.61597 20.0425C9.59375 20.0923 9.58132 20.1447 9.57868 20.1989C9.57598 20.2531 9.58308 20.3064 9.59996 20.3579L10.9746 23.4572C11.0093 23.5355 11.0617 23.5985 11.1319 23.6456C11.203 23.6927 11.2802 23.7176 11.3656 23.7194Z" fill="white"/>
<path d="M17.0288 31.1788C17.1275 31.1788 17.2163 31.1495 17.2945 31.0891C17.3736 31.0287 17.4251 30.9514 17.4509 30.8554C17.5699 30.4209 17.6446 29.9784 17.6748 29.5279C17.7059 29.0783 17.6917 28.6295 17.6339 28.1826C17.5753 27.7357 17.474 27.2985 17.3291 26.872C17.1843 26.4446 16.9986 26.0367 16.7729 25.6466L14.045 20.939C13.942 20.7613 13.8229 20.5951 13.6869 20.4414C13.5519 20.2877 13.4026 20.1482 13.24 20.0238C13.0765 19.8994 12.9032 19.7919 12.7193 19.7021C12.5354 19.6115 12.3452 19.5404 12.147 19.4871C11.9489 19.4347 11.7481 19.4018 11.5437 19.3894C11.3394 19.376 11.135 19.3831 10.9324 19.4098C10.7298 19.4374 10.5307 19.4845 10.337 19.5502C10.1434 19.6168 9.95762 19.7013 9.78079 19.8043C9.73013 19.8328 9.68751 19.871 9.65286 19.9172C9.61733 19.9634 9.59241 20.0141 9.57734 20.0709C9.56222 20.1269 9.55864 20.1837 9.56667 20.2415C9.57377 20.2992 9.59241 20.3526 9.62172 20.4032C9.65016 20.4538 9.68839 20.4965 9.73371 20.5321C9.77991 20.5667 9.83144 20.5925 9.88744 20.6076C9.94343 20.6218 10.0003 20.6263 10.0581 20.6182C10.1149 20.6103 10.1691 20.5925 10.2189 20.5632C10.3468 20.4886 10.4801 20.4281 10.6196 20.3801C10.7591 20.333 10.9021 20.2992 11.0479 20.2797C11.1945 20.2602 11.3411 20.2549 11.4878 20.2646C11.6352 20.2735 11.7801 20.2975 11.9223 20.3348C12.0653 20.373 12.2022 20.4245 12.3345 20.4894C12.4669 20.5543 12.5922 20.6316 12.7095 20.7213C12.8268 20.8111 12.9343 20.9115 13.0312 21.0217C13.1289 21.1327 13.2151 21.2518 13.2889 21.3797L16.0159 26.0874C16.2122 26.4268 16.3739 26.7831 16.5001 27.1545C16.6263 27.5259 16.7143 27.9072 16.7649 28.2963C16.8165 28.6855 16.828 29.0765 16.8014 29.4684C16.7747 29.8593 16.7098 30.245 16.6068 30.6235C16.5916 30.6804 16.5872 30.7372 16.5952 30.795C16.6023 30.8519 16.6201 30.906 16.6494 30.9567C16.6778 31.0073 16.7152 31.05 16.7614 31.0856C16.8067 31.1211 16.8582 31.1468 16.9142 31.1628C16.9515 31.1726 16.9897 31.178 17.0288 31.1788Z" fill="white"/>
<path d="M10.3276 30.834L9.90114 30.7337L10.3312 30.8172C10.4334 30.3898 10.4938 29.9571 10.5125 29.519C10.532 29.0809 10.5098 28.6446 10.4458 28.2101C10.381 27.7765 10.2761 27.3527 10.1313 26.9386C9.98557 26.5245 9.80253 26.1282 9.58126 25.7497L8.57276 24.0073C8.50522 23.8899 8.44031 23.7727 8.37817 23.6536C7.52691 22.0159 7.26208 20.0443 7.62816 18.1018L8.74425 12.3315C8.74953 12.3075 8.75135 12.2826 8.75135 12.2578C8.7531 12.1858 8.76202 12.1147 8.77796 12.0445C8.79485 11.9743 8.81889 11.9059 8.84996 11.841C8.88103 11.7762 8.91926 11.7148 8.9637 11.658C9.00815 11.6011 9.05786 11.5496 9.11298 11.5034C9.16897 11.4572 9.22848 11.418 9.29244 11.3843C9.35647 11.3514 9.42307 11.3256 9.49331 11.307C9.56261 11.2883 9.63367 11.2777 9.70567 11.2741C9.77761 11.2705 9.84873 11.275 9.91979 11.2874C10.038 11.3115 10.1482 11.355 10.2503 11.4172C10.3534 11.4794 10.4432 11.5576 10.5187 11.65C10.5951 11.7433 10.6537 11.8463 10.6937 11.9601C10.7346 12.073 10.755 12.1902 10.7559 12.3102L9.56349 20.1162C9.55816 20.1722 9.56349 20.2273 9.57856 20.2815C9.59456 20.3348 9.61948 20.3846 9.65319 20.429C9.68791 20.4734 9.72965 20.5098 9.77761 20.5383C9.82651 20.5676 9.87804 20.5854 9.93404 20.5943C9.98909 20.6031 10.0442 20.6005 10.0993 20.5881C10.1544 20.5756 10.2041 20.5525 10.2503 20.5205C10.2965 20.4885 10.3357 20.4485 10.3658 20.4014C10.397 20.3552 10.4183 20.3037 10.4298 20.2486L11.6258 12.407C11.6276 12.3857 11.6276 12.3635 11.6258 12.3422C11.6267 12.2293 11.6187 12.1173 11.601 12.0063C11.5823 11.8952 11.5556 11.7868 11.5183 11.6802C11.4819 11.5745 11.4357 11.4723 11.3815 11.3736C11.3264 11.2759 11.2633 11.1826 11.1931 11.0955C11.122 11.0085 11.0438 10.9275 10.9594 10.8538C10.8741 10.7801 10.7843 10.7143 10.6875 10.6566C10.5916 10.5988 10.4911 10.5499 10.3863 10.509C10.2814 10.4691 10.174 10.438 10.0637 10.4166C9.93222 10.3944 9.79983 10.3865 9.66656 10.3927C9.53418 10.3989 9.40267 10.4184 9.2738 10.4522C9.14499 10.4868 9.02145 10.534 8.90238 10.5944C8.7833 10.6548 8.67225 10.7267 8.56918 10.8112C8.46611 10.8956 8.37283 10.9898 8.28928 11.0937C8.20573 11.1977 8.13379 11.3096 8.07422 11.4287C8.01471 11.5487 7.96851 11.6731 7.93562 11.8028C7.90273 11.9317 7.88321 12.0632 7.87787 12.1964L6.78137 17.9366C6.37265 20.0655 6.66587 22.2461 7.60864 24.0588C7.67618 24.1903 7.74724 24.3191 7.82188 24.448L8.83132 26.1904C9.02321 26.5192 9.18228 26.864 9.30845 27.2238C9.43462 27.5837 9.52614 27.9515 9.58214 28.3292C9.63813 28.7059 9.65765 29.0854 9.64164 29.4657C9.62482 29.8469 9.57322 30.2227 9.48528 30.5941L9.90114 30.7345L10.3276 30.834Z" fill="white"/>
<path d="M27.6364 23.7203C27.7235 23.7203 27.8026 23.6963 27.8755 23.6492C27.9483 23.6013 28.0016 23.5382 28.0363 23.4582L29.4047 20.3589C29.4287 20.3056 29.4411 20.2496 29.442 20.1918C29.4438 20.1341 29.434 20.0772 29.4127 20.023C29.3922 19.9688 29.362 19.9208 29.322 19.8791C29.2821 19.8364 29.235 19.8036 29.1825 19.7804C29.1292 19.7564 29.0742 19.744 29.0155 19.7422C28.9577 19.7414 28.9017 19.7511 28.8475 19.7716C28.7933 19.7929 28.7454 19.8231 28.7036 19.8631C28.6609 19.9031 28.629 19.9501 28.6049 20.0026L27.2366 23.1063C27.2135 23.1596 27.201 23.2156 27.1993 23.2734C27.1984 23.3321 27.2072 23.388 27.2286 23.4422C27.249 23.4964 27.2801 23.5444 27.3201 23.587C27.3601 23.6288 27.4063 23.6617 27.4596 23.6848C27.5165 23.7088 27.5751 23.7212 27.6364 23.7203Z" fill="white"/>
<path d="M21.9742 31.1806C22.0133 31.1806 22.0514 31.1752 22.0897 31.1646C22.1457 31.1495 22.1963 31.1237 22.2425 31.0882C22.2887 31.0526 22.326 31.01 22.3544 30.9593C22.3829 30.9087 22.4015 30.8545 22.4087 30.7967C22.4158 30.739 22.4122 30.6821 22.3971 30.6261C22.2932 30.2467 22.2283 29.862 22.2016 29.4701C22.175 29.0783 22.1874 28.6873 22.2381 28.2981C22.2887 27.908 22.3767 27.5277 22.5028 27.1554C22.629 26.7839 22.7908 26.4276 22.988 26.0882L25.7168 21.3806C25.7905 21.2527 25.8767 21.1336 25.9744 21.0225C26.0722 20.9124 26.1788 20.8119 26.2961 20.7222C26.4134 20.6333 26.5387 20.556 26.6702 20.4912C26.8026 20.4263 26.9403 20.3748 27.0825 20.3366C27.2256 20.2983 27.3695 20.2752 27.517 20.2654C27.6636 20.2566 27.8102 20.261 27.9568 20.2806C28.1025 20.3001 28.2456 20.3339 28.3851 20.3819C28.5246 20.429 28.6579 20.4903 28.785 20.564C28.8357 20.5934 28.8898 20.6111 28.9467 20.6191C29.0045 20.6271 29.0613 20.6227 29.1173 20.6084C29.1733 20.5934 29.2248 20.5684 29.2702 20.5329C29.3164 20.4974 29.3545 20.4548 29.383 20.4041C29.4123 20.3543 29.431 20.3001 29.439 20.2423C29.4461 20.1846 29.4425 20.1277 29.4283 20.0718C29.4132 20.0158 29.3883 19.9643 29.3528 19.9181C29.3181 19.8719 29.2754 19.8336 29.2248 19.8052C29.048 19.7021 28.8623 19.6168 28.6686 19.5511C28.4749 19.4844 28.2759 19.4382 28.0732 19.4107C27.8698 19.3831 27.6663 19.376 27.4619 19.3893C27.2576 19.4027 27.0558 19.4355 26.8586 19.488C26.6604 19.5404 26.4694 19.6124 26.2855 19.7021C26.1015 19.7928 25.9282 19.9003 25.7648 20.0246C25.6021 20.1491 25.4529 20.2886 25.3169 20.4423C25.1819 20.596 25.0628 20.7621 24.9597 20.9399L22.231 25.6475C22.0044 26.0376 21.8195 26.4454 21.6747 26.8728C21.5299 27.2993 21.4277 27.7365 21.3699 28.1834C21.3113 28.6304 21.2979 29.0791 21.3282 29.5287C21.3592 29.9792 21.4339 30.4217 21.5521 30.8562C21.5778 30.9522 21.6303 31.0295 21.7084 31.0899C21.7875 31.1504 21.8755 31.1806 21.9742 31.1806Z" fill="white"/>
<path d="M29.1053 31.1522C29.1364 31.1522 29.1667 31.1486 29.1977 31.1415C29.2537 31.1299 29.3053 31.1086 29.3523 31.0767C29.3994 31.0446 29.4385 31.0047 29.4697 30.9567C29.5007 30.9087 29.5212 30.8571 29.5309 30.8003C29.5407 30.7443 29.5398 30.6883 29.5274 30.6324C29.4368 30.2592 29.3817 29.8797 29.3639 29.4959C29.3452 29.112 29.3639 28.729 29.419 28.3488C29.4741 27.9684 29.5647 27.5961 29.6917 27.2336C29.8179 26.8702 29.9779 26.5227 30.1707 26.1904L31.1801 24.448C31.2539 24.3227 31.3267 24.1903 31.3943 24.0588C32.3362 22.2461 32.6294 20.0718 32.2215 17.9366L31.1241 12.1964C31.1188 12.0632 31.1002 11.9317 31.0664 11.8028C31.0335 11.6731 30.9873 11.5487 30.9278 11.4287C30.8682 11.3096 30.7963 11.1977 30.7136 11.0937C30.6301 10.9898 30.5368 10.8956 30.4328 10.8112C30.3298 10.7267 30.2187 10.6548 30.0996 10.5944C29.9814 10.534 29.857 10.4868 29.7282 10.4522C29.5993 10.4184 29.4687 10.3989 29.3355 10.3927C29.2022 10.3865 29.0698 10.3944 28.9392 10.4166C28.829 10.438 28.7215 10.4682 28.6166 10.5082C28.5118 10.5482 28.4114 10.5971 28.3154 10.6539C28.2185 10.7117 28.1279 10.7765 28.0435 10.8503C27.9582 10.9232 27.88 11.0031 27.8098 11.0902C27.7387 11.1764 27.6756 11.2688 27.6205 11.3665C27.5655 11.4643 27.5193 11.5664 27.4819 11.6722C27.4446 11.7779 27.4171 11.8863 27.3984 11.9974C27.3797 12.1085 27.3709 12.2195 27.3718 12.3315C27.3709 12.3537 27.3709 12.3751 27.3718 12.3972L28.5686 20.2389C28.5775 20.2957 28.5971 20.3499 28.6273 20.3997C28.6575 20.4494 28.6957 20.4912 28.7419 20.5259C28.789 20.5605 28.8406 20.5845 28.8974 20.5987C28.9534 20.612 29.0102 20.6147 29.068 20.6058C29.1249 20.5969 29.1782 20.5774 29.2279 20.5472C29.2777 20.5178 29.3194 20.4788 29.3541 20.4316C29.3887 20.3854 29.4128 20.333 29.4261 20.277C29.4403 20.2201 29.4421 20.1633 29.4332 20.1055L28.2425 12.2995C28.2434 12.1787 28.2639 12.0623 28.3047 11.9485C28.3447 11.8357 28.4033 11.7326 28.4797 11.6393C28.5553 11.546 28.645 11.4687 28.7481 11.4065C28.8512 11.3443 28.9614 11.3017 29.0787 11.2777C29.1498 11.2652 29.2208 11.2608 29.2937 11.2643C29.3656 11.267 29.4359 11.2786 29.5061 11.2972C29.5754 11.3159 29.642 11.3417 29.706 11.3745C29.77 11.4074 29.8304 11.4474 29.8855 11.4936C29.9406 11.5398 29.9912 11.5913 30.0357 11.6482C30.0792 11.705 30.1174 11.7655 30.1485 11.8312C30.1796 11.8961 30.2036 11.9637 30.2205 12.0338C30.2365 12.104 30.2453 12.176 30.2472 12.248C30.2472 12.2729 30.2498 12.2977 30.2542 12.3217L31.3578 18.0965C31.7328 20.0398 31.4654 22.0106 30.6141 23.6474C30.5519 23.7727 30.4897 23.8855 30.4195 24.0019L29.4101 25.7444C29.1898 26.122 29.0076 26.5165 28.8627 26.9288C28.7179 27.3412 28.6131 27.7632 28.5491 28.1959C28.4851 28.6278 28.462 29.0623 28.4807 29.4986C28.4993 29.9357 28.5597 30.3667 28.6602 30.7914C28.6841 30.8963 28.7375 30.9816 28.8201 31.0491C28.9036 31.1166 28.9987 31.1504 29.1053 31.1522Z" fill="white"/>
<mask id="mask1_7499_204" style="mask-type:luminance" maskUnits="userSpaceOnUse" x="20" y="30" width="11" height="4">
<path d="M20.3594 30.2969H30.3681V33.7801H20.3594V30.2969Z" fill="white"/>
</mask>
<g mask="url(#mask1_7499_204)">
<path d="M21.3272 33.7879H29.4265C29.5305 33.7879 29.6309 33.7675 29.7277 33.7275C29.8237 33.6875 29.909 33.6306 29.9828 33.5569C30.0565 33.4822 30.1133 33.3969 30.1533 33.3009C30.1933 33.2041 30.2138 33.1037 30.2138 32.9989V31.0937C30.2138 30.9889 30.1933 30.8885 30.1533 30.7926C30.1133 30.6957 30.0565 30.6104 29.9828 30.5366C29.909 30.462 29.8237 30.4051 29.7277 30.3651C29.6309 30.3252 29.5305 30.3047 29.4265 30.3047H25.3142C25.2592 30.3091 25.2067 30.3234 25.157 30.3474C25.1072 30.3714 25.0636 30.4034 25.0255 30.4442C24.9881 30.4851 24.9597 30.5313 24.9393 30.5828C24.9188 30.6344 24.909 30.6877 24.909 30.7428C24.909 30.7988 24.9188 30.8521 24.9393 30.9036C24.9597 30.9551 24.9881 31.0013 25.0255 31.0422C25.0636 31.0831 25.1072 31.1151 25.157 31.1391C25.2067 31.1631 25.2592 31.1773 25.3142 31.1817H29.3403V32.91H21.4143V31.1817H23.6811C23.7361 31.1773 23.7885 31.1631 23.8383 31.1391C23.8881 31.1151 23.9325 31.0831 23.9698 31.0422C24.0072 31.0013 24.0365 30.9551 24.056 30.9036C24.0765 30.8521 24.0871 30.7988 24.0871 30.7428C24.0871 30.6877 24.0765 30.6344 24.056 30.5828C24.0365 30.5313 24.0072 30.4851 23.9698 30.4442C23.9325 30.4034 23.8881 30.3714 23.8383 30.3474C23.7885 30.3234 23.7361 30.3091 23.6811 30.3047H21.3272C21.2224 30.3047 21.122 30.3252 21.026 30.3651C20.9291 30.4051 20.8439 30.462 20.7701 30.5358C20.6964 30.6095 20.6395 30.6948 20.5995 30.7917C20.5586 30.8885 20.5391 30.9889 20.5391 31.0937V32.9989C20.5391 33.1037 20.5586 33.2041 20.5995 33.3009C20.6395 33.3978 20.6964 33.4831 20.7701 33.5569C20.8439 33.6306 20.9291 33.6875 21.026 33.7275C21.122 33.7683 21.2224 33.7879 21.3272 33.7879Z" fill="white"/>
</g>
<mask id="mask2_7499_204" style="mask-type:luminance" maskUnits="userSpaceOnUse" x="8" y="30" width="11" height="4">
<path d="M8.75781 30.2969H18.5392V33.78H8.75781V30.2969Z" fill="white"/>
</mask>
<g mask="url(#mask2_7499_204)">
<path d="M9.57811 33.7879H17.6765C17.7814 33.7879 17.8817 33.7675 17.9777 33.7275C18.0746 33.6875 18.159 33.6306 18.2327 33.5569C18.3065 33.4822 18.3642 33.3969 18.4042 33.3009C18.4442 33.2041 18.4638 33.1037 18.4638 32.9989V31.0937C18.4638 30.9889 18.4442 30.8885 18.4042 30.7926C18.3642 30.6957 18.3065 30.6104 18.2327 30.5366C18.159 30.462 18.0746 30.4051 17.9777 30.3651C17.8817 30.3252 17.7814 30.3047 17.6765 30.3047H15.6639C15.6088 30.3091 15.5563 30.3234 15.5066 30.3474C15.4568 30.3714 15.4133 30.4034 15.3751 30.4442C15.3378 30.4851 15.3093 30.5313 15.2889 30.5828C15.2685 30.6344 15.2587 30.6877 15.2587 30.7428C15.2587 30.7988 15.2685 30.8521 15.2889 30.9036C15.3093 30.9551 15.3378 31.0013 15.3751 31.0422C15.4133 31.0831 15.4568 31.1151 15.5066 31.1391C15.5563 31.1631 15.6088 31.1773 15.6639 31.1817H17.5894V32.91H9.66517V31.1817H13.8521C13.9072 31.1773 13.9596 31.1631 14.0094 31.1391C14.0592 31.1151 14.1035 31.0831 14.1409 31.0422C14.1782 31.0013 14.2076 30.9551 14.2271 30.9036C14.2475 30.8521 14.2573 30.7988 14.2573 30.7428C14.2573 30.6877 14.2475 30.6344 14.2271 30.5828C14.2076 30.5313 14.1782 30.4851 14.1409 30.4442C14.1035 30.4034 14.0592 30.3714 14.0094 30.3474C13.9596 30.3234 13.9072 30.3091 13.8521 30.3047H9.57811C9.47328 30.3047 9.37284 30.3252 9.27599 30.3651C9.18001 30.4051 9.09476 30.462 9.02101 30.5358C8.94637 30.6095 8.8895 30.6948 8.84951 30.7917C8.80953 30.8885 8.78906 30.9889 8.78906 31.0937V32.9989C8.78906 33.1037 8.80953 33.2041 8.84951 33.3009C8.8895 33.3978 8.94637 33.4831 9.02101 33.5569C9.09476 33.6306 9.18001 33.6875 9.27599 33.7275C9.37284 33.7683 9.47328 33.7879 9.57811 33.7879Z" fill="white"/>
</g>
</svg>
