<svg width="33" height="33" viewBox="0 0 33 33" fill="none" xmlns="http://www.w3.org/2000/svg">
<g opacity="0.8">
<path d="M9.5292 18.7188C8.94718 18.7196 8.37236 18.8475 7.84486 19.0934C7.31735 19.3394 6.84988 19.6975 6.47506 20.1427C6.10024 20.588 5.8271 21.1097 5.6747 21.6714C5.52231 22.2331 5.49434 22.8213 5.59273 23.395C5.69113 23.9686 5.91352 24.5139 6.24439 24.9927C6.57527 25.4715 7.00665 25.8724 7.50842 26.1673C8.0102 26.4622 8.57029 26.644 9.1496 26.7001C9.72892 26.7562 10.3135 26.6852 10.8625 26.4921" stroke="white" stroke-width="2" stroke-linecap="round" stroke-linejoin="round"/>
<path d="M5.88313 20.8582C5.08522 20.4741 4.39551 19.8973 3.87627 19.1799C3.35702 18.4625 3.02458 17.6272 2.90895 16.7492C2.79331 15.8712 2.89812 14.9782 3.21392 14.1509C3.52971 13.3235 4.04656 12.5878 4.7178 12.0102M4.7578 11.9022C4.32053 11.2479 4.12887 10.4599 4.21676 9.67785C4.30466 8.89577 4.66643 8.17002 5.23804 7.62907C5.80964 7.08812 6.55422 6.76686 7.33994 6.72216C8.12567 6.67747 8.90187 6.91223 9.53114 7.38487M9.84847 7.47154C9.63577 7.0196 9.52735 6.52563 9.53124 6.02616C9.53512 5.52668 9.65121 5.03446 9.87091 4.58588C10.0906 4.13731 10.4083 3.74384 10.8006 3.43457C11.1928 3.1253 11.6495 2.90813 12.137 2.79911C12.6244 2.69009 13.1301 2.69202 13.6167 2.80474C14.1033 2.91747 14.5584 3.13811 14.9483 3.45036C15.3381 3.76261 15.6528 4.15848 15.8691 4.60872C16.0854 5.05896 16.1977 5.55205 16.1978 6.05154V26.7182C16.1978 27.4255 15.9168 28.1037 15.4168 28.6038C14.9167 29.1039 14.2384 29.3849 13.5311 29.3849C12.8239 29.3849 12.1456 29.1039 11.6455 28.6038C11.1454 28.1037 10.8645 27.4255 10.8645 26.7182M16.1978 9.38487C16.1978 10.4457 16.6192 11.4632 17.3694 12.2133C18.1195 12.9634 19.1369 13.3849 20.1978 13.3849M22.8645 18.7182C23.4465 18.7191 24.0213 18.8469 24.5488 19.0929C25.0763 19.3388 25.5438 19.6969 25.9186 20.1422C26.2934 20.5875 26.5666 21.1092 26.719 21.6709C26.8714 22.2326 26.8993 22.8208 26.8009 23.3944C26.7025 23.9681 26.4801 24.5133 26.1493 24.9922C25.8184 25.471 25.387 25.8718 24.8852 26.1667C24.3835 26.4616 23.8234 26.6435 23.2441 26.6996C22.6648 26.7557 22.0802 26.6847 21.5311 26.4915" stroke="white" stroke-width="2" stroke-linecap="round" stroke-linejoin="round"/>
<path d="M26.5139 20.8582C27.3118 20.4741 28.0015 19.8973 28.5207 19.1799C29.04 18.4625 29.3724 17.6272 29.4881 16.7492C29.6037 15.8712 29.4989 14.9782 29.1831 14.1509C28.8673 13.3235 28.3505 12.5878 27.6792 12.0102M27.6392 11.9022C28.0765 11.2479 28.2682 10.4599 28.1803 9.67785C28.0924 8.89577 27.7306 8.17002 27.159 7.62907C26.5874 7.08812 25.8428 6.76686 25.0571 6.72216C24.2713 6.67747 23.4951 6.91223 22.8659 7.38487M16.1992 6.05154C16.1993 5.55205 16.3116 5.05896 16.5279 4.60872C16.7442 4.15848 17.0589 3.76261 17.4488 3.45036C17.8386 3.13811 18.2937 2.91747 18.7803 2.80474C19.2669 2.69202 19.7726 2.69009 20.2601 2.79911C20.7475 2.90813 21.2042 3.1253 21.5965 3.43457C21.9887 3.74384 22.3064 4.13731 22.5261 4.58588C22.7458 5.03446 22.8619 5.52668 22.8658 6.02616C22.8697 6.52563 22.7613 7.0196 22.5486 7.47154M21.5326 26.7182C21.5326 27.4255 21.2516 28.1037 20.7515 28.6038C20.2514 29.1039 19.5731 29.3849 18.8659 29.3849C18.1586 29.3849 17.4804 29.1039 16.9803 28.6038C16.4802 28.1037 16.1992 27.4255 16.1992 26.7182" stroke="white" stroke-width="2" stroke-linecap="round" stroke-linejoin="round"/>
</g>
</svg>
