<svg width="46" height="42" viewBox="0 0 46 42" fill="none" xmlns="http://www.w3.org/2000/svg">
<g clip-path="url(#clip0_7499_50)">
<path opacity="0.8" d="M11.0078 18.0439C13.5849 18.0439 15.6786 20.1421 15.6787 22.7285C15.6787 24.724 14.4299 26.4305 12.6738 27.1055H14.0703C14.3938 27.1055 14.6571 27.3683 14.6572 27.6934C14.6572 28.0199 14.3938 28.2832 14.0703 28.2832H7.51367V29.541H14.668L16.5752 23.8037C16.6546 23.5627 16.8799 23.3994 17.1318 23.3994H45.168V24.5781H17.5566L15.6523 30.3066C15.6492 30.3143 15.6477 30.3205 15.6445 30.3281L14.0693 35.0693C13.8969 35.5888 14.1315 36.1562 14.6182 36.4004L15.7578 36.9727C16.0315 37.1095 16.351 37.1255 16.6387 37.0166C16.9248 36.9078 17.1531 36.6816 17.2666 36.3955C18.427 33.4855 20.6699 27.8643 20.6699 27.8643C20.7897 27.5627 21.132 27.415 21.4336 27.5361C21.7351 27.6574 21.8817 27.9996 21.7607 28.3027L21.2676 29.541H45.168V30.7207H20.7959L18.3574 36.834C18.1225 37.4266 17.6493 37.8917 17.0566 38.1172C16.4625 38.3442 15.8 38.3116 15.2324 38.0254C14.8547 37.8358 14.4551 37.637 14.0928 37.4551C13.0818 36.9481 12.5963 35.7716 12.9541 34.6953L14.2764 30.7207H1.82227C1.49727 30.7207 1.23447 30.4559 1.23438 30.1309C1.23438 29.8059 1.49721 29.541 1.82227 29.541H6.33789V27.6934C6.33798 27.3683 6.60078 27.1055 6.92578 27.1055H9.34277C7.58679 26.4305 6.33789 24.724 6.33789 22.7285C6.33805 20.1423 8.43085 18.0442 11.0078 18.0439ZM11.0078 19.2227C9.07943 19.2229 7.51383 20.794 7.51367 22.7285C7.51367 24.6632 9.07933 26.2332 11.0078 26.2334C12.9364 26.2334 14.5029 24.6634 14.5029 22.7285C14.5028 20.7938 12.9363 19.2227 11.0078 19.2227ZM31.6699 12.4932C32.3511 12.0687 33.1725 11.9328 33.9531 12.1162C34.7338 12.2998 35.41 12.7891 35.833 13.4717C37.1006 15.5233 38.8525 18.3555 38.8525 18.3555C38.8882 18.4129 38.9128 18.4754 38.9268 18.542L39.627 21.8193C39.6951 22.1365 39.491 22.4502 39.1738 22.5186C38.8566 22.5853 38.5444 22.3833 38.4775 22.0645L37.7988 18.8887L34.835 14.0918C34.5768 13.675 34.1629 13.3767 33.6855 13.2646C33.2081 13.1528 32.705 13.2335 32.2881 13.4932L29.2432 15.3877L25.3271 20.376C25.1841 20.5564 25.1568 20.8034 25.2578 21.0117C25.3589 21.2201 25.5697 21.3525 25.7998 21.3525H26.252C26.4293 21.3525 26.5977 21.2744 26.7129 21.1406C27.7069 19.9677 30.4395 16.748 30.4395 16.748C30.5654 16.5991 30.7579 16.5234 30.9521 16.5449C31.1463 16.5667 31.316 16.6845 31.4062 16.8584L33.9043 21.6699C34.0534 21.9577 33.942 22.314 33.6543 22.4648C33.3666 22.6142 33.0122 22.5015 32.8613 22.2139L30.7676 18.1797L27.6074 21.9033C27.2698 22.3016 26.7745 22.5312 26.252 22.5312H25.7998C25.1202 22.5312 24.4977 22.1407 24.2021 21.5264C23.9036 20.912 23.9834 20.1811 24.4033 19.6445C26.0263 17.5777 28.3717 14.5913 28.3828 14.5771C28.4248 14.5227 28.4762 14.4777 28.5352 14.4404C28.5352 14.4404 30.2172 13.3953 31.6699 12.4932ZM26.1104 4.5C28.6876 4.5 30.7812 6.59855 30.7812 9.18359C30.7811 11.7684 28.6874 13.8662 26.1104 13.8662C23.5334 13.866 21.4406 11.7683 21.4404 9.18359C21.4404 6.59866 23.5333 4.50018 26.1104 4.5ZM26.1104 5.67773C24.1818 5.67792 22.6162 7.24887 22.6162 9.18359C22.6164 11.1182 24.1819 12.6883 26.1104 12.6885C28.0404 12.6885 29.6053 11.1183 29.6055 9.18359C29.6055 7.24876 28.0405 5.67773 26.1104 5.67773Z" fill="white"/>
</g>
<defs>
<clipPath id="clip0_7499_50">
<rect width="45.3385" height="40.8047" fill="white" transform="translate(0.53125 0.984375)"/>
</clipPath>
</defs>
</svg>
