<svg width="30" height="30" viewBox="0 0 30 30" fill="none" xmlns="http://www.w3.org/2000/svg">
<path d="M1.49008 25.9667C2.99542 28.12 9.54475 29.8094 12.6394 25.78C15.9861 27.38 21.5047 26.884 25.9994 24.3774C26.6234 24.0307 27.2141 23.5907 27.5767 22.972C28.3941 21.5787 28.4127 19.6454 26.9221 16.7934C24.4354 10.588 19.9648 5.14004 18.1594 2.94938C17.7888 2.61204 15.4248 2.13204 13.9821 1.66938C13.3448 1.47338 12.1594 1.34271 10.7421 3.21204C10.0688 4.09738 7.01408 6.27471 10.8888 7.73738C11.4901 7.89071 11.9314 8.17204 14.6714 7.67204C15.0274 7.61071 15.9181 7.67204 16.5461 8.77338L17.8581 10.6494C17.9808 10.8232 18.0582 11.0248 18.0834 11.236C18.3128 13.2347 18.3048 15.736 19.4194 17.004C17.6994 15.7587 13.2008 14.2814 9.81142 18.4867M1.46875 16.1467C2.99453 14.7868 4.93973 13.9899 6.9811 13.8885C9.02246 13.7871 11.0371 14.3873 12.6901 15.5894" stroke="white" stroke-width="2" stroke-linecap="round" stroke-linejoin="round"/>
</svg>
