<svg width="33" height="33" viewBox="0 0 33 33" fill="none" xmlns="http://www.w3.org/2000/svg">
<g opacity="0.8" clip-path="url(#clip0_7502_104)">
<path d="M10.7638 9.89062H7.03047C6.8183 9.89062 6.61481 9.97491 6.46478 10.1249C6.31475 10.275 6.23047 10.4785 6.23047 10.6906V22.424C6.23047 22.529 6.25116 22.633 6.29137 22.7301C6.33157 22.8272 6.3905 22.9154 6.46478 22.9896C6.53907 23.0639 6.62726 23.1229 6.72432 23.1631C6.82138 23.2033 6.92541 23.224 7.03047 23.224H10.7638C10.8689 23.224 10.9729 23.2033 11.0699 23.1631C11.167 23.1229 11.2552 23.0639 11.3295 22.9896C11.4038 22.9154 11.4627 22.8272 11.5029 22.7301C11.5431 22.633 11.5638 22.529 11.5638 22.424V10.6906C11.5638 10.4785 11.4795 10.275 11.3295 10.1249C11.1795 9.97491 10.976 9.89063 10.7638 9.89062ZM26.7638 9.89062H23.0305C22.8183 9.89062 22.6148 9.97491 22.4648 10.1249C22.3148 10.275 22.2305 10.4785 22.2305 10.6906V22.424C22.2305 22.529 22.2512 22.633 22.2914 22.7301C22.3316 22.8272 22.3905 22.9154 22.4648 22.9896C22.5391 23.0639 22.6273 23.1229 22.7243 23.1631C22.8214 23.2033 22.9254 23.224 23.0305 23.224H26.7638C26.8689 23.224 26.9729 23.2033 27.0699 23.1631C27.167 23.1229 27.2552 23.0639 27.3295 22.9896C27.4038 22.9154 27.4627 22.8272 27.5029 22.7301C27.5431 22.633 27.5638 22.529 27.5638 22.424V10.6906C27.5638 10.4785 27.4795 10.275 27.3295 10.1249C27.1795 9.97491 26.976 9.89063 26.7638 9.89062Z" stroke="white" stroke-width="2" stroke-linecap="round" stroke-linejoin="round"/>
<path d="M11.5638 16.5547H22.2305M2.23047 19.7547V13.3547C2.23047 13.1425 2.31475 12.939 2.46478 12.789C2.61481 12.639 2.8183 12.5547 3.03047 12.5547H5.43047C5.64264 12.5547 5.84613 12.639 5.99615 12.789C6.14618 12.939 6.23047 13.1425 6.23047 13.3547V19.7547C6.23047 19.9669 6.14618 20.1703 5.99615 20.3204C5.84613 20.4704 5.64264 20.5547 5.43047 20.5547H3.03047C2.8183 20.5547 2.61481 20.4704 2.46478 20.3204C2.31475 20.1703 2.23047 19.9669 2.23047 19.7547ZM31.5638 19.7547V13.3547C31.5638 13.1425 31.4795 12.939 31.3295 12.789C31.1795 12.639 30.976 12.5547 30.7638 12.5547H28.3638C28.1516 12.5547 27.9481 12.639 27.7981 12.789C27.6481 12.939 27.5638 13.1425 27.5638 13.3547V19.7547C27.5638 19.9669 27.6481 20.1703 27.7981 20.3204C27.9481 20.4704 28.1516 20.5547 28.3638 20.5547H30.7638C30.976 20.5547 31.1795 20.4704 31.3295 20.3204C31.4795 20.1703 31.5638 19.9669 31.5638 19.7547Z" stroke="white" stroke-width="2" stroke-linecap="round" stroke-linejoin="round"/>
</g>
<defs>
<clipPath id="clip0_7502_104">
<rect width="32" height="32" fill="white" transform="translate(0.898438 0.554688)"/>
</clipPath>
</defs>
</svg>
