<svg width="39" height="37" viewBox="0 0 39 37" fill="none" xmlns="http://www.w3.org/2000/svg">
<mask id="mask0_7499_244" style="mask-type:luminance" maskUnits="userSpaceOnUse" x="4" y="2" width="31" height="32">
<path d="M34.9515 2.71094H4.25V33.981H34.9515V2.71094Z" fill="white"/>
</mask>
<g mask="url(#mask0_7499_244)">
<mask id="mask1_7499_244" style="mask-type:luminance" maskUnits="userSpaceOnUse" x="4" y="3" width="31" height="32">
<path d="M4.47656 3.78125H34.7426V34.0473H4.47656V3.78125Z" fill="white"/>
</mask>
<g mask="url(#mask1_7499_244)">
<path d="M22.2307 33.9697C22.1415 33.8714 22.1487 33.7198 22.247 33.6308C24.2851 31.7842 25.9083 29.7749 27.0717 27.6601C28.1583 25.6845 28.8742 23.5615 29.2009 21.3484C29.2193 21.2173 29.3422 21.1261 29.4723 21.1456C29.6034 21.165 29.6935 21.2869 29.6751 21.418C29.546 22.2936 29.3566 23.1549 29.1108 23.9988C30.1482 24.2108 31.1273 24.5795 32.0234 25.0967C32.9717 25.6436 33.8545 26.3717 34.6462 27.2607C34.7353 27.36 34.7261 27.5116 34.6277 27.5996C34.5817 27.6406 34.5243 27.6611 34.468 27.6611C34.4024 27.6611 34.3369 27.6334 34.2888 27.5802C33.5309 26.7301 32.688 26.0338 31.7837 25.5124C30.9193 25.0137 29.9731 24.6604 28.9694 24.4597C28.5915 25.6425 28.0979 26.7896 27.4926 27.8915C26.3026 30.0534 24.6466 32.1048 22.5686 33.9872C22.5225 34.0281 22.4652 34.0486 22.4079 34.0486C22.3423 34.0486 22.2778 34.022 22.2307 33.9697ZM22.2973 15.0643C23.8068 14.8246 25.0613 15.0633 26.0261 15.7761C26.0691 15.8079 26.1193 15.8232 26.1684 15.8232C26.2421 15.8232 26.3149 15.7894 26.362 15.7248C26.4399 15.6183 26.4173 15.4688 26.3108 15.39C25.2385 14.5983 23.8621 14.329 22.2225 14.5901C22.0914 14.6116 22.0023 14.7345 22.0238 14.8656C22.0443 14.9957 22.1672 15.0858 22.2973 15.0643ZM4.5245 6.1032C4.47637 5.97926 4.53577 5.83998 4.65867 5.79083C4.78156 5.74169 4.92187 5.80208 4.97 5.92601L6.63114 10.1085C6.69362 10.2642 6.81136 10.3861 6.96498 10.4527C7.11861 10.5192 7.28866 10.5213 7.4443 10.4598C7.76481 10.3318 7.92153 9.96723 7.79457 9.64565L5.60906 4.14095C5.5599 4.01805 5.62032 3.87878 5.74322 3.82961C5.86611 3.78046 6.00539 3.84088 6.05352 3.96377L7.5887 7.8278L8.24925 7.64961L6.85646 4.14095C6.80725 4.01805 6.86771 3.87878 6.99063 3.82961C7.11349 3.78046 7.25278 3.84088 7.30192 3.96377L9.15968 8.64507C9.43522 9.33739 10.2217 9.67635 10.913 9.40087C11.6054 9.12641 11.9443 8.33883 11.6688 7.64651L10.2771 4.14095C10.2289 4.01805 10.2883 3.87878 10.4112 3.82961C10.5341 3.78046 10.6744 3.84088 10.7225 3.96377L11.806 6.69104C12.8661 6.4258 13.9834 6.93682 14.4739 7.91997L17.8423 14.669C20.3432 11.7277 22.4017 9.93754 23.9625 9.34661C26.489 8.39006 29.2408 8.70552 31.1047 9.13872C33.1161 9.60572 34.5151 10.2867 34.5735 10.3154C34.6923 10.3738 34.7414 10.5172 34.6831 10.636C34.6247 10.7547 34.4813 10.804 34.3625 10.7466C34.3072 10.7189 28.7584 8.0439 24.1325 9.79516C22.6199 10.3677 20.5828 12.165 18.0758 15.136L19.1009 17.1894C19.4348 17.8602 19.5311 18.6026 19.4102 19.3073L21.1953 22.1226C21.5384 22.6644 21.65 23.3065 21.5107 23.9322C21.3714 24.558 20.9966 25.0916 20.4558 25.4356C20.0585 25.6876 19.614 25.8084 19.1747 25.8084C18.381 25.8084 17.6036 25.4142 17.1469 24.6952L15.5164 22.1226C14.7637 22.0089 14.0775 21.6515 13.5481 21.0944C10.7614 25.0833 7.88572 29.7432 5.63363 33.9226C5.59062 34.0035 5.50869 34.0496 5.42266 34.0496C5.38477 34.0496 5.34585 34.0393 5.30898 34.0199C5.19326 33.9574 5.14922 33.812 5.21272 33.6953C7.48934 29.4687 10.4009 24.7546 13.2173 20.7308L5.61213 12.2951C5.56604 12.2429 5.54454 12.1742 5.55273 12.1046L5.87226 9.49613L4.5245 6.1032ZM18.0092 20.9193C18.7077 20.2884 19.0466 19.3728 18.9708 18.4706L18.7712 18.5914C18.4752 18.7706 18.1433 18.8628 17.8054 18.8628C17.6518 18.8628 17.4961 18.8444 17.3425 18.8044C16.853 18.6805 16.4423 18.3722 16.1873 17.936L15.4028 16.5954C14.9092 15.7525 15.1355 14.6895 15.9302 14.1221L16.7434 13.5404L16.3696 12.7908L15.3004 13.7565C14.9553 14.0688 14.5159 14.2378 14.0541 14.2378C14.0213 14.2378 13.9885 14.2368 13.9557 14.2358C13.459 14.2102 13.0012 13.992 12.6673 13.6223C12.0826 12.973 12.0386 12.0226 12.5056 11.3283L6.26552 12.3032L13.84 20.7052C14.9307 21.9157 16.8007 22.011 18.0092 20.9193ZM14.4596 10.0482C14.224 10.5049 13.8594 10.8602 13.416 11.0784L13.1241 11.3426C12.8496 11.5905 12.6879 11.9305 12.6684 12.3002C12.65 12.6699 12.7759 13.0252 13.0237 13.3008C13.2716 13.5753 13.6116 13.737 13.9803 13.7555C14.35 13.7739 14.7044 13.649 14.9788 13.4001L16.1463 12.3452L14.6818 9.41009C14.6388 9.62821 14.5661 9.8433 14.4596 10.0482ZM18.3625 23.4232L18.4721 23.5953C18.6759 23.9169 19.103 24.0132 19.4246 23.8083C19.7461 23.6045 19.8414 23.1764 19.6376 22.8548L19.528 22.6818C19.4286 22.5261 19.2761 22.4186 19.0958 22.3786C18.9156 22.3377 18.7312 22.3704 18.5755 22.4698C18.4199 22.5681 18.3123 22.7217 18.2724 22.902C18.2315 23.0822 18.2642 23.2676 18.3625 23.4232ZM19.0231 21.886L18.5192 21.0913C18.4588 21.1548 18.3963 21.2163 18.3297 21.2757C18.0461 21.5327 17.7276 21.7355 17.3865 21.8829L17.8576 22.6265C17.9478 22.3951 18.1065 22.1994 18.3185 22.0642C18.5315 21.9291 18.7763 21.8686 19.0231 21.886ZM19.2402 19.935C19.1398 20.2034 19.0046 20.4604 18.8377 20.6991L19.9325 22.4247L20.0421 22.5978C20.3872 23.1426 20.2254 23.8677 19.6816 24.2139C19.4881 24.3368 19.2709 24.3961 19.0569 24.3961C18.6698 24.3961 18.2898 24.2036 18.0676 23.8523L16.9205 22.0448C16.6574 22.1144 16.3849 22.1533 16.1074 22.1595L17.5525 24.4382C18.1188 25.3322 19.3058 25.5975 20.1988 25.0301C20.631 24.7556 20.9311 24.3286 21.0427 23.8278C21.1543 23.327 21.0652 22.8128 20.7908 22.3796L19.2402 19.935ZM18.6718 17.4044L17.5781 15.2118L17.577 15.2107L16.9605 13.9757L16.2078 14.5123C15.6179 14.9353 15.4489 15.7259 15.8155 16.3527L16.601 17.6932C16.7905 18.0179 17.0957 18.2473 17.4602 18.3395C17.8238 18.4317 18.2017 18.3753 18.5233 18.1807L18.8828 17.9626C18.8326 17.7721 18.7619 17.5847 18.6718 17.4044ZM6.24401 10.4076L6.06684 11.8486L12.6622 10.8183C13.2573 10.7251 13.758 10.3646 14.0335 9.82795C14.3101 9.29128 14.3142 8.67476 14.0448 8.13404C13.6638 7.37205 12.8097 6.9655 11.9842 7.14168L12.1143 7.46832C12.4871 8.40749 12.0283 9.47459 11.0902 9.8474C10.87 9.93546 10.6416 9.97747 10.4174 9.97747C9.68916 9.97747 8.99993 9.53915 8.71524 8.82225L8.42744 8.09816L7.7669 8.27636L8.24002 9.46846C8.46534 10.0358 8.18779 10.68 7.62149 10.9053C7.48732 10.9586 7.35005 10.9842 7.21487 10.9842C6.81755 10.9842 6.43962 10.7681 6.24401 10.4076ZM24.3608 26.1966C24.4561 26.2212 24.5564 26.1843 24.6138 26.1044C24.6712 26.0245 24.6743 25.918 24.622 25.834C24.6148 25.8238 23.9492 24.7669 24.158 23.964C24.3281 23.3126 25.3737 22.7934 25.7619 22.648C25.853 22.6142 25.9144 22.5292 25.9185 22.4329C25.9216 22.3356 25.8674 22.2465 25.7803 22.2055C25.766 22.1994 24.3455 21.5317 23.8416 20.8046C23.3336 20.0713 23.091 18.1951 23.0889 18.1766C23.0735 18.0568 22.9721 17.9667 22.8513 17.9667C22.7305 17.9667 22.628 18.0568 22.6126 18.1766C22.4621 19.3513 22.0934 20.2116 21.4851 20.8056C21.3898 20.8988 21.3878 21.0503 21.481 21.1456C21.5732 21.2398 21.7248 21.2419 21.82 21.1497C22.2737 20.7052 22.6096 20.1399 22.8329 19.4363C22.968 20.018 23.1698 20.6765 23.4484 21.078C23.8344 21.6351 24.6261 22.1318 25.1279 22.4093C24.624 22.6684 23.8713 23.1601 23.6941 23.8421C23.5282 24.4771 23.7669 25.1857 23.9737 25.6354C23.3213 25.5432 22.1999 25.492 21.5763 26.087C20.9659 26.6708 20.8225 27.8086 20.7928 28.4774C20.3022 28.1025 19.4256 27.5454 18.5028 27.5085C17.5955 27.4727 16.6195 27.9489 16.05 28.2848C16.1258 27.8342 16.1955 27.2125 16.0992 26.7916C15.9313 26.0491 15.241 25.5063 15.2113 25.4828C15.1068 25.4018 14.9563 25.4213 14.8754 25.5258C14.7944 25.6303 14.8129 25.7808 14.9174 25.8627C14.9235 25.8668 15.5021 26.3246 15.6322 26.8981C15.7459 27.3989 15.5543 28.3964 15.4704 28.7385C15.4468 28.8358 15.4868 28.9382 15.5708 28.9945C15.6547 29.0509 15.7643 29.0478 15.8452 28.9884C15.8596 28.9781 17.2862 27.9366 18.4844 27.9878C19.6704 28.0349 20.8532 29.1512 20.8645 29.1625C20.9095 29.2055 20.97 29.229 21.0304 29.229C21.0642 29.229 21.098 29.2218 21.1297 29.2075C21.2188 29.1666 21.2741 29.0754 21.27 28.9771C21.269 28.9587 21.1871 27.1224 21.9071 26.4342C22.4918 25.8771 23.8764 26.0737 24.3608 26.1966Z" fill="white" stroke="white" stroke-width="0.284273"/>
</g>
</g>
</svg>
