<svg width="33" height="33" viewBox="0 0 33 33" fill="none" xmlns="http://www.w3.org/2000/svg">
<g opacity="0.8">
<path d="M26.7527 6.05265C23.1767 3.85931 20.0554 4.74198 18.1807 6.14998C17.4127 6.72731 17.0287 7.01665 16.8021 7.01665C16.5754 7.01665 16.1914 6.72731 15.4234 6.14998C13.5487 4.74198 10.4274 3.86065 6.85139 6.05265C2.15939 8.92998 1.09806 18.426 11.9221 26.438C13.9834 27.9633 15.0141 28.726 16.8021 28.726C18.5901 28.726 19.6207 27.9633 21.6821 26.438C32.5061 18.426 31.4447 8.93265 26.7527 6.05265Z" stroke="white" stroke-width="2" stroke-linecap="round"/>
<path d="M22.1341 18.0599H20.8008C20.1941 18.0599 19.5554 18.1066 19.0101 17.6879C18.8021 17.5279 18.6634 17.3079 18.3888 16.8679L16.1341 12.7266L12.1341 19.3932L10.0581 16.5026C9.71678 16.0932 9.38345 15.6772 8.93145 15.5132C8.60345 15.3932 8.22478 15.3932 7.46745 15.3932H4.80078" stroke="white" stroke-width="2" stroke-linecap="round" stroke-linejoin="round"/>
</g>
</svg>
