<svg width="48" height="40" viewBox="0 0 48 40" fill="none" xmlns="http://www.w3.org/2000/svg">
<path d="M19.8167 35.3612C18.8652 35.1811 18.1705 34.9737 17.6918 34.7325C17.5885 34.6795 17.5064 34.6023 17.4456 34.501C17.3832 34.3981 17.3529 34.2855 17.3529 34.165V32.6166C17.3529 32.5523 17.3347 32.496 17.2936 32.4478C17.2541 32.3979 17.2039 32.369 17.1447 32.361L16.6507 32.2806C16.5944 32.2709 16.5413 32.2822 16.4926 32.3128C16.3619 32.4028 16.2251 32.4783 16.0792 32.5394C15.9348 32.6005 15.7859 32.6456 15.6323 32.6745C15.4788 32.7035 15.3238 32.7163 15.1687 32.7131C15.0122 32.7099 14.8587 32.6906 14.7067 32.6536C14.5548 32.6182 14.4073 32.5667 14.2644 32.4992C14.123 32.4317 13.9878 32.3513 13.8601 32.2549C13.734 32.16 13.617 32.0523 13.5105 31.9317C13.4026 31.8111 13.3084 31.6808 13.2263 31.541C13.0363 31.2146 12.9238 30.8608 12.8874 30.4798C12.8509 30.0988 12.895 29.7273 13.0196 29.3672C13.0531 29.2675 13.0941 29.171 13.1396 29.0761C13.1853 28.9813 13.237 28.8896 13.2947 28.8029C13.351 28.7144 13.4133 28.6308 13.4801 28.552C13.547 28.4732 13.62 28.3992 13.696 28.3285C13.772 28.2594 13.851 28.1951 13.9361 28.1372C14.0197 28.0793 14.1064 28.0263 14.1975 27.9796C14.2872 27.933 14.3799 27.8928 14.4757 27.8574C14.5699 27.8237 14.6672 27.7964 14.766 27.7754C14.8647 27.7545 14.9636 27.74 15.0639 27.7336C15.1642 27.7256 15.2645 27.7256 15.3648 27.732C15.4651 27.7369 15.564 27.7513 15.6627 27.7706C15.7615 27.7899 15.8588 27.8172 15.9545 27.8493C16.0503 27.8831 16.143 27.9217 16.2342 27.9683C16.3254 28.0134 16.412 28.0649 16.4972 28.1227C16.5808 28.1806 16.6613 28.2433 16.7388 28.3124C16.8163 28.38 16.8878 28.454 16.9562 28.5327C16.9896 28.5617 17.0276 28.5793 17.0717 28.5842C17.1462 28.597 17.2115 28.5777 17.2677 28.5247C17.3255 28.4732 17.3544 28.4073 17.3544 28.3269V26.8236C17.3544 26.7705 17.3605 26.7175 17.3742 26.666C17.3863 26.6145 17.4046 26.5663 17.4289 26.5197C17.4532 26.473 17.4821 26.4312 17.5155 26.3926C17.5505 26.3541 17.5885 26.3204 17.631 26.2914C17.6736 26.264 17.7176 26.2415 17.7663 26.2254C17.8134 26.2094 17.8621 26.1998 17.9122 26.1965C17.9624 26.1933 18.0126 26.1965 18.0611 26.2062C18.1098 26.2158 18.1569 26.2319 18.2025 26.256C18.4609 26.3862 18.9868 26.584 20.0264 26.7817C22.4005 27.2384 24.7746 27.2384 27.1487 26.7817C28.1884 26.584 28.7142 26.3862 28.9726 26.256C29.0182 26.2335 29.0653 26.2174 29.1139 26.2062C29.1626 26.1965 29.2127 26.1933 29.2629 26.1965C29.3116 26.1998 29.3617 26.2094 29.4088 26.2271C29.4559 26.2431 29.5016 26.2656 29.5426 26.293C29.5851 26.3219 29.6231 26.3557 29.6581 26.3926C29.6931 26.4312 29.7219 26.4747 29.7462 26.5213C29.7706 26.5663 29.7888 26.6162 29.801 26.6676C29.8131 26.7175 29.8207 26.7705 29.8207 26.8236V28.3269C29.8192 28.4073 29.8481 28.4732 29.9058 28.5247C29.962 28.5777 30.029 28.597 30.1034 28.5842C30.146 28.5793 30.184 28.5617 30.2174 28.5327C30.2858 28.454 30.3572 28.38 30.4348 28.3108C30.5108 28.2417 30.5913 28.1773 30.6764 28.1195C30.7615 28.0616 30.8482 28.0085 30.9393 27.9635C31.0306 27.9169 31.1233 27.8767 31.219 27.8429C31.3148 27.8108 31.4121 27.7835 31.5123 27.7626C31.6112 27.7433 31.71 27.7304 31.8118 27.724C31.9121 27.7175 32.0124 27.7175 32.1127 27.724C32.2131 27.732 32.3134 27.7449 32.4121 27.7658C32.511 27.7867 32.6082 27.814 32.704 27.8477C32.7997 27.8831 32.8924 27.9233 32.9821 27.9699C33.0734 28.0166 33.1614 28.0696 33.2451 28.1275C33.3287 28.187 33.4092 28.2513 33.4868 28.3205C33.5628 28.3896 33.6342 28.4652 33.701 28.544C33.7694 28.6228 33.8317 28.7063 33.888 28.7948C33.9457 28.8832 33.9974 28.9748 34.043 29.0697C34.0902 29.1646 34.1297 29.2627 34.1647 29.3624C34.2239 29.5392 34.2649 29.7209 34.2877 29.909C34.309 30.0955 34.3106 30.282 34.2923 30.4702C34.2741 30.6567 34.2361 30.84 34.1783 31.0185C34.1221 31.1969 34.0461 31.3657 33.9533 31.5265C33.8591 31.6857 33.7497 31.8336 33.625 31.9671C33.5004 32.1005 33.3621 32.2195 33.2132 32.3191C33.0627 32.4205 32.9046 32.5025 32.7359 32.5652C32.5687 32.6278 32.397 32.6713 32.2206 32.6922C31.6628 32.7597 31.1491 32.6311 30.6779 32.3079C30.6309 32.2758 30.5776 32.2645 30.5214 32.2758L30.029 32.3546C29.9681 32.3642 29.9195 32.3931 29.8785 32.4414C29.839 32.4912 29.8192 32.5474 29.8207 32.6118V34.1586C29.8207 34.2808 29.7903 34.3933 29.728 34.4946C29.6672 34.5975 29.5851 34.6746 29.4817 34.7277C29.0045 34.9673 28.3099 35.1731 27.3585 35.3564C24.843 35.8372 22.3276 35.8372 19.8121 35.3564L19.8167 35.3612ZM28.6367 32.6166C28.6352 32.435 28.6656 32.2597 28.7248 32.0876C28.7841 31.9172 28.8693 31.7629 28.9802 31.6246C29.0927 31.4879 29.2234 31.3738 29.3738 31.287C29.5243 31.1985 29.6839 31.1406 29.8541 31.1149L30.3481 31.0361C30.7023 30.9766 31.029 31.0522 31.33 31.258C31.561 31.4204 31.8133 31.4831 32.0884 31.4493C32.2282 31.4316 32.362 31.3883 32.4881 31.3191C32.6128 31.2499 32.7237 31.1583 32.818 31.0474C32.9137 30.9348 32.9867 30.8094 33.0384 30.6696C33.09 30.5297 33.1159 30.3849 33.1174 30.2354C33.1189 30.0842 33.0961 29.9396 33.0474 29.7981C33.0004 29.6566 32.9289 29.5296 32.8377 29.4154C32.745 29.3013 32.6371 29.208 32.514 29.1356C32.3894 29.0633 32.2571 29.015 32.1173 28.9942C31.9273 28.9652 31.7419 28.9845 31.561 29.0552C31.3817 29.1244 31.2266 29.2337 31.0989 29.3864C30.8801 29.634 30.611 29.7836 30.2934 29.8334C30.1915 29.8512 30.0882 29.8559 29.9849 29.8495C29.8815 29.8431 29.7796 29.8254 29.6809 29.7948C29.5806 29.7643 29.4848 29.7241 29.3937 29.6727C29.3024 29.6212 29.2173 29.5585 29.1382 29.4878C29.0592 29.417 28.9893 29.3366 28.9255 29.2498C28.8632 29.1614 28.81 29.0681 28.7674 28.9684C28.7233 28.8687 28.6914 28.7658 28.6686 28.6581C28.6458 28.5504 28.6352 28.4427 28.6352 28.3334V27.724C28.2749 27.8317 27.8509 27.933 27.3615 28.0278C24.8461 28.5086 22.3306 28.5086 19.8152 28.0278C19.3242 27.9314 18.9017 27.8317 18.54 27.724V28.3334C18.54 28.4427 18.5293 28.5504 18.5065 28.6581C18.4852 28.7658 18.4518 28.8687 18.4092 28.9684C18.3651 29.0681 18.312 29.1614 18.2496 29.2498C18.1873 29.3366 18.1174 29.417 18.0384 29.4878C17.9593 29.5585 17.8742 29.6212 17.783 29.6727C17.6918 29.7241 17.5961 29.7643 17.4957 29.7948C17.397 29.8254 17.2951 29.8431 17.1917 29.8495C17.0884 29.8559 16.9851 29.8512 16.8833 29.8334C16.564 29.7852 16.2935 29.6357 16.0731 29.3864C16.0047 29.3093 15.9302 29.2418 15.8466 29.1855C15.763 29.1276 15.6749 29.0826 15.5791 29.0504C15.4849 29.0183 15.3891 28.999 15.2903 28.9926C15.1916 28.9861 15.0927 28.9926 14.9955 29.0135C14.8982 29.0328 14.8055 29.0665 14.7158 29.1116C14.6262 29.1581 14.5441 29.2144 14.4681 29.282C14.3921 29.3511 14.3268 29.4266 14.2689 29.5135C14.2128 29.6003 14.1671 29.692 14.1322 29.7901C14.1018 29.8785 14.0805 29.9685 14.0684 30.0618C14.0577 30.155 14.0562 30.2483 14.0638 30.3415C14.0729 30.4348 14.0911 30.5264 14.1185 30.6165C14.1474 30.7049 14.1839 30.7901 14.2309 30.8689C14.2766 30.9493 14.3313 31.0232 14.3921 31.0907C14.4544 31.1583 14.5228 31.2162 14.5973 31.2677C14.6718 31.3175 14.7508 31.3593 14.8344 31.3898C14.918 31.422 15.0046 31.4429 15.0927 31.4542C15.3663 31.4879 15.6186 31.4252 15.8481 31.2644C16.1491 31.0587 16.4759 30.983 16.83 31.0409L17.324 31.1197C17.4942 31.1471 17.6538 31.2033 17.8043 31.2917C17.9547 31.3786 18.0855 31.4927 18.198 31.6294C18.3105 31.7677 18.3955 31.922 18.4548 32.0941C18.5141 32.2645 18.543 32.4414 18.5415 32.6231V33.7437C19.0278 33.911 19.5233 34.038 20.0279 34.1264C22.402 34.583 24.7761 34.583 27.1502 34.1264C27.6548 34.038 28.1504 33.911 28.6367 33.7453V32.6166Z" fill="white"/>
<path d="M19.8152 25.1314C18.8637 24.9513 18.1691 24.7439 17.6903 24.5012C17.5869 24.4481 17.5048 24.371 17.4441 24.268C17.3818 24.1667 17.3513 24.0542 17.3513 23.9336V22.3869C17.3513 22.3226 17.3316 22.2663 17.2921 22.218C17.2526 22.1698 17.2024 22.1408 17.1431 22.1296L16.6507 22.0492C16.5945 22.0412 16.5412 22.0524 16.4911 22.083C16.3604 22.173 16.2236 22.2486 16.0776 22.3097C15.9333 22.3708 15.7843 22.4158 15.6308 22.4448C15.4773 22.4737 15.3223 22.4866 15.1673 22.4834C15.0107 22.4801 14.8572 22.4592 14.7052 22.4239C14.5532 22.3884 14.4058 22.337 14.2629 22.2695C14.1215 22.202 13.9863 22.1216 13.8586 22.0251C13.7325 21.9302 13.6154 21.8225 13.5091 21.7019C13.4011 21.5813 13.3069 21.4511 13.2248 21.3112C13.0363 20.9848 12.9238 20.6295 12.8874 20.2484C12.8509 19.8674 12.895 19.4959 13.0181 19.1358C13.0515 19.0361 13.0926 18.9396 13.1382 18.8448C13.1837 18.7499 13.2354 18.6583 13.2932 18.5715C13.3494 18.483 13.4117 18.3994 13.4801 18.3206C13.5471 18.2419 13.6185 18.1678 13.6945 18.0987C13.7705 18.028 13.851 17.9653 13.9346 17.9058C14.0182 17.8479 14.1064 17.7949 14.196 17.7482C14.2857 17.7016 14.3784 17.6614 14.4742 17.6277C14.5699 17.5939 14.6657 17.5666 14.7644 17.5457C14.8633 17.5248 14.9621 17.5102 15.0623 17.5022C15.1627 17.4958 15.263 17.4942 15.3633 17.5006C15.4637 17.5071 15.5639 17.5199 15.6627 17.5408C15.76 17.5601 15.8573 17.5859 15.9531 17.6196C16.0488 17.6518 16.1415 17.692 16.2327 17.737C16.3239 17.7836 16.4105 17.8351 16.4956 17.893C16.5792 17.9508 16.6613 18.0135 16.7373 18.0827C16.8149 18.1502 16.8863 18.2242 16.9547 18.303C16.9881 18.3319 17.0261 18.3496 17.0702 18.3544C17.1431 18.3705 17.2085 18.3528 17.2663 18.303C17.324 18.2515 17.3528 18.1856 17.3528 18.1052V16.597C17.3528 16.544 17.3589 16.4925 17.3727 16.4411C17.3848 16.3897 17.403 16.3398 17.4273 16.2931C17.4517 16.2465 17.4806 16.2047 17.514 16.1661C17.5489 16.1275 17.5869 16.0937 17.6295 16.0664C17.6721 16.0375 17.7162 16.015 17.7647 15.9989C17.8119 15.9828 17.8605 15.9732 17.9107 15.97C17.9608 15.9667 18.011 15.97 18.0597 15.9796C18.1083 15.9893 18.1554 16.0069 18.201 16.0295C18.4594 16.1597 18.9853 16.3558 20.0249 16.5552C22.399 17.0102 24.7731 17.0102 27.1472 16.5552C28.1883 16.3558 28.7142 16.1597 28.9711 16.0295C29.0167 16.0069 29.0638 15.9909 29.1124 15.9813C29.1611 15.97 29.2113 15.9667 29.2614 15.97C29.31 15.9732 29.3602 15.9844 29.4073 16.0006C29.4544 16.0166 29.5 16.0391 29.5411 16.0664C29.5836 16.0954 29.6216 16.1292 29.6566 16.1677C29.6915 16.2063 29.7204 16.2481 29.7447 16.2947C29.7691 16.3414 29.7872 16.3897 29.7994 16.4411C29.8116 16.4925 29.8192 16.544 29.8192 16.597V18.102C29.8177 18.1807 29.8466 18.2467 29.9043 18.2981C29.9606 18.3528 30.0274 18.3721 30.1019 18.3576C30.1445 18.3528 30.1825 18.3351 30.2159 18.3062C30.2843 18.2274 30.3557 18.1534 30.4332 18.0843C30.5092 18.0152 30.5898 17.9508 30.6749 17.893C30.76 17.8351 30.8466 17.7836 30.9379 17.737C31.029 17.6903 31.1218 17.6501 31.2175 17.618C31.3133 17.5843 31.4105 17.5569 31.5108 17.5377C31.6097 17.5167 31.7084 17.5039 31.8103 17.4975C31.9106 17.491 32.0109 17.491 32.1112 17.4975C32.2116 17.5055 32.3118 17.5199 32.4107 17.5408C32.5094 17.5601 32.6067 17.589 32.7025 17.6228C32.7982 17.6566 32.891 17.6968 32.9806 17.7434C33.0718 17.79 33.16 17.8431 33.2435 17.901C33.3271 17.9605 33.4077 18.0248 33.4852 18.0939C33.5612 18.1631 33.6327 18.2386 33.6995 18.3174C33.7679 18.3978 33.8303 18.4814 33.8865 18.5682C33.9443 18.6566 33.9959 18.7483 34.0415 18.8432C34.0886 18.938 34.1282 19.0361 34.1631 19.1358C34.2847 19.4976 34.3258 19.8674 34.2878 20.2484C34.2498 20.6295 34.1358 20.9832 33.9458 21.3096C33.8622 21.4495 33.7679 21.5782 33.6615 21.6987C33.5551 21.8177 33.4381 21.9254 33.3105 22.0203C33.1828 22.1152 33.049 22.1956 32.9061 22.2631C32.7648 22.329 32.6174 22.3804 32.4654 22.4174C32.3134 22.4528 32.1598 22.4721 32.0048 22.4753C31.8483 22.4785 31.6948 22.4657 31.5413 22.4367C31.3893 22.4077 31.2403 22.3628 31.0944 22.3016C30.95 22.2405 30.8132 22.1666 30.6825 22.0766C30.6339 22.0444 30.5806 22.0331 30.5245 22.0428L30.0305 22.1232C29.9712 22.1328 29.921 22.1618 29.8831 22.2116C29.8435 22.2598 29.8237 22.3162 29.8237 22.3804V23.9255C29.8237 24.0478 29.7933 24.1587 29.7326 24.2616C29.6702 24.3645 29.5882 24.4417 29.4848 24.4931C29.0076 24.7359 28.313 24.9417 27.3615 25.125C26.1136 25.363 24.8552 25.4836 23.5875 25.4836C22.3199 25.4852 21.063 25.3678 19.8152 25.1314ZM28.6352 22.3869C28.6337 22.2052 28.6625 22.0283 28.7218 21.8579C28.7811 21.6875 28.8677 21.5331 28.9787 21.3948C29.0912 21.2566 29.2218 21.144 29.3723 21.0556C29.5228 20.9688 29.6824 20.9108 29.8527 20.8851L30.3481 20.8064C30.7038 20.7453 31.0321 20.8193 31.3345 21.025C31.5656 21.1874 31.8178 21.2501 32.093 21.218C32.2343 21.2002 32.3666 21.1569 32.4927 21.0861C32.6189 21.017 32.7283 20.927 32.8241 20.816C32.9183 20.7034 32.9912 20.5781 33.043 20.4382C33.0946 20.2983 33.122 20.1535 33.1235 20.004C33.125 19.8529 33.1022 19.7082 33.0535 19.5667C33.005 19.4252 32.935 19.2982 32.8423 19.1841C32.7511 19.0699 32.6432 18.9766 32.5186 18.9043C32.3939 18.8303 32.2617 18.7837 32.1218 18.7628C31.9318 18.7339 31.7464 18.7532 31.5671 18.8223C31.3862 18.8914 31.2327 19.0024 31.105 19.1535C30.8846 19.4027 30.6171 19.5507 30.2995 19.6005C30.1961 19.6165 30.0943 19.623 29.991 19.6165C29.8876 19.6101 29.7857 19.5925 29.6854 19.5619C29.5852 19.533 29.4909 19.4912 29.3982 19.4397C29.307 19.3882 29.2218 19.3271 29.1428 19.2564C29.0654 19.1841 28.9939 19.1052 28.9316 19.0184C28.8693 18.93 28.816 18.8367 28.7719 18.737C28.7294 18.6373 28.6959 18.5345 28.6732 18.4267C28.6519 18.319 28.6398 18.2113 28.6398 18.102V17.4926C28.281 17.6003 27.8585 17.7 27.3661 17.7933C24.8506 18.2772 22.3367 18.2772 19.8213 17.7933C19.3288 17.7 18.9062 17.6003 18.5461 17.4926V18.102C18.5461 18.2113 18.5354 18.319 18.5126 18.4267C18.4913 18.5345 18.4579 18.6373 18.4153 18.737C18.3712 18.8367 18.3181 18.93 18.2557 19.0184C18.1934 19.1052 18.1235 19.1856 18.0444 19.2564C17.9654 19.3271 17.8803 19.3899 17.7891 19.4413C17.6979 19.4928 17.6022 19.533 17.5018 19.5635C17.4015 19.5925 17.3012 19.6101 17.1963 19.6165C17.0929 19.623 16.9911 19.6182 16.8878 19.6005C16.5655 19.5538 16.2935 19.4059 16.0716 19.1535C16.0032 19.0763 15.9287 19.0104 15.8451 18.9542C15.7616 18.8962 15.6718 18.8512 15.5777 18.8191C15.4834 18.7869 15.3861 18.7676 15.2873 18.7612C15.1885 18.7548 15.0898 18.7612 14.9924 18.7821C14.8952 18.803 14.8024 18.8352 14.7128 18.8818C14.6231 18.9268 14.541 18.9847 14.465 19.0522C14.389 19.1197 14.3237 19.1969 14.266 19.2838C14.2097 19.3689 14.1641 19.4622 14.1291 19.5603C14.0987 19.6487 14.0775 19.7388 14.0653 19.832C14.0547 19.9252 14.0531 20.0185 14.0623 20.1118C14.0699 20.205 14.0881 20.2967 14.117 20.3867C14.1444 20.4751 14.1824 20.5604 14.228 20.6392C14.275 20.7196 14.3298 20.7935 14.3906 20.861C14.4529 20.927 14.5213 20.9864 14.5958 21.0379C14.6703 21.0878 14.7493 21.1296 14.8329 21.1601C14.9164 21.1922 15.0031 21.2131 15.0913 21.2244C15.3648 21.2582 15.6187 21.1938 15.8481 21.033C16.1491 20.8273 16.4759 20.7533 16.8285 20.8112L17.3225 20.89C17.4927 20.9173 17.6523 20.9736 17.8027 21.062C17.9532 21.1489 18.084 21.263 18.1964 21.3996C18.3089 21.538 18.3941 21.6923 18.4533 21.8643C18.5126 22.0348 18.5415 22.21 18.54 22.3933V23.514C19.0263 23.6812 19.5218 23.8082 20.0264 23.8966C22.4005 24.3532 24.7746 24.3532 27.1488 23.8966C27.6533 23.8098 28.1488 23.6812 28.6352 23.514V22.3869Z" fill="white"/>
<mask id="mask0_7499_40" style="mask-type:luminance" maskUnits="userSpaceOnUse" x="12" y="5" width="23" height="11">
<path d="M12.8203 5.67969H34.6097V15.2367H12.8203V5.67969Z" fill="white"/>
</mask>
<g mask="url(#mask0_7499_40)">
<path d="M19.816 14.8752C18.8629 14.6952 18.1684 14.4894 17.6912 14.2466C17.5877 14.1935 17.5057 14.1163 17.4449 14.0134C17.3826 13.9121 17.3522 13.7996 17.3522 13.679V12.1258C17.3522 12.0615 17.3324 12.0053 17.2929 11.957C17.2534 11.9071 17.2033 11.8798 17.1439 11.8702L16.6499 11.7898C16.5938 11.7801 16.5405 11.7914 16.4919 11.8236C16.3673 11.9104 16.235 11.9827 16.0967 12.0422C15.9584 12.1001 15.8171 12.1452 15.6696 12.1772C15.5237 12.2078 15.3763 12.2223 15.2273 12.2239C15.0784 12.2255 14.9294 12.211 14.7835 12.1821C14.6376 12.1532 14.4948 12.1097 14.3549 12.0519C14.2166 11.994 14.0844 11.9232 13.9582 11.8396C13.832 11.7544 13.7135 11.6595 13.6056 11.5518C13.4961 11.4425 13.3974 11.3251 13.3107 11.1981C13.2226 11.0694 13.1466 10.9344 13.0827 10.7913C13.0204 10.6482 12.9687 10.5003 12.9322 10.3476C12.8958 10.1948 12.873 10.0389 12.8639 9.88126C12.8547 9.72373 12.8593 9.56611 12.8791 9.40859C12.8973 9.25265 12.9307 9.09829 12.9779 8.9487C13.0235 8.7992 13.0842 8.65446 13.1557 8.51622C13.2286 8.37794 13.3122 8.24931 13.4096 8.12712C13.5053 8.00653 13.6101 7.89559 13.7257 7.79591C13.8412 7.69622 13.9643 7.6094 14.0965 7.53382C14.2273 7.45826 14.364 7.39716 14.5069 7.35053C14.6483 7.30229 14.7942 7.27014 14.9416 7.25245C15.0906 7.23316 15.238 7.22995 15.3869 7.2412C15.5359 7.25407 15.6818 7.27979 15.8262 7.32159C15.9705 7.36179 16.1089 7.41806 16.2442 7.4872C16.3779 7.55634 16.504 7.63834 16.6241 7.7332C16.7427 7.82645 16.8537 7.93257 16.9539 8.04994C16.9874 8.07889 17.0254 8.09657 17.0695 8.10139C17.1439 8.11587 17.2093 8.09818 17.2671 8.04673C17.3248 7.99528 17.3537 7.92936 17.3537 7.84896V6.3392C17.3537 6.28614 17.3598 6.23308 17.3735 6.18164C17.3856 6.13018 17.4038 6.08195 17.4282 6.03532C17.4525 5.98869 17.4814 5.94689 17.5148 5.9083C17.5497 5.86971 17.5877 5.83594 17.6303 5.807C17.6729 5.77968 17.717 5.75716 17.7656 5.74108C17.8127 5.72501 17.8613 5.71536 17.9115 5.71214C17.9616 5.70893 18.0118 5.71214 18.0605 5.72179C18.1091 5.73144 18.1562 5.74752 18.2018 5.77164C18.4602 5.90187 18.9861 6.09803 20.0257 6.2974C22.3998 6.75242 24.7739 6.75242 27.148 6.2974C28.1876 6.09803 28.7135 5.90187 28.9719 5.77164C29.0175 5.74912 29.0646 5.73304 29.1133 5.72179C29.1619 5.71214 29.2121 5.70893 29.2622 5.71214C29.3108 5.71536 29.361 5.72501 29.4081 5.7427C29.4552 5.75877 29.5008 5.78128 29.5419 5.80862C29.5844 5.83756 29.6224 5.87132 29.6574 5.9083C29.6923 5.94689 29.7212 5.9903 29.7456 6.03693C29.7699 6.08195 29.7881 6.13179 29.8002 6.18324C29.8124 6.23308 29.82 6.28614 29.82 6.3392V7.84253C29.82 7.88112 29.8276 7.9181 29.8413 7.95186C29.8565 7.98724 29.8778 8.01618 29.9051 8.0403C29.9325 8.06602 29.9629 8.0821 29.9978 8.09335C30.0328 8.10301 30.0677 8.10461 30.1027 8.09818C30.1468 8.09496 30.1833 8.07728 30.2167 8.04834C30.2851 7.96955 30.3565 7.89559 30.434 7.82645C30.51 7.75731 30.5906 7.69301 30.6757 7.63512C30.7609 7.57724 30.8474 7.52418 30.9387 7.47916C31.0299 7.43253 31.1226 7.39234 31.2183 7.35857C31.3141 7.32641 31.4113 7.29909 31.5117 7.27818C31.6105 7.25889 31.7092 7.24603 31.8111 7.23959C31.9114 7.23316 32.0117 7.23316 32.1121 7.23959C32.2124 7.24763 32.3126 7.26049 32.4115 7.28139C32.5102 7.30229 32.6075 7.32963 32.7033 7.36501C32.799 7.39877 32.8918 7.43896 32.9815 7.4856C33.0726 7.53222 33.1608 7.58528 33.2444 7.64316C33.3279 7.70265 33.4085 7.76697 33.486 7.8361C33.562 7.90524 33.6335 7.9808 33.7003 8.05959C33.7688 8.13837 33.8311 8.22198 33.8873 8.31042C33.9451 8.39884 33.9967 8.49049 34.0423 8.58535C34.0894 8.6802 34.129 8.77831 34.1639 8.878C34.246 9.12236 34.2932 9.37482 34.3007 9.63531C34.3098 9.89571 34.281 10.1514 34.2141 10.4006C34.1472 10.6514 34.0453 10.8846 33.9101 11.1016C33.7733 11.3186 33.6107 11.5084 33.4177 11.6708C33.2261 11.8332 33.0149 11.9602 32.7854 12.0519C32.5559 12.1452 32.3187 12.1981 32.0725 12.211C31.8278 12.2239 31.5862 12.1981 31.349 12.1306C31.1119 12.0648 30.89 11.9602 30.6834 11.8203C30.6347 11.7881 30.5815 11.7753 30.5253 11.7866L30.0313 11.8669C29.972 11.8766 29.9218 11.904 29.8823 11.9538C29.8443 12.002 29.8246 12.0583 29.8246 12.1226V13.6694C29.8246 13.7916 29.7941 13.9024 29.7334 14.0054C29.6711 14.1083 29.589 14.1855 29.4857 14.2369C29.0083 14.4797 28.3138 14.6855 27.3623 14.8656C26.1144 15.1052 24.856 15.2258 23.5884 15.2258C22.3207 15.2274 21.0638 15.1116 19.816 14.8752ZM28.636 12.1306C28.6345 11.9489 28.6634 11.7737 28.7226 11.6017C28.7819 11.4312 28.8685 11.2769 28.9795 11.1386C29.092 11.0019 29.2227 10.8894 29.3732 10.8009C29.5237 10.7141 29.6832 10.6563 29.8535 10.6305L30.3475 10.5517C30.7031 10.4891 31.0329 10.5614 31.3353 10.7672C31.5664 10.9295 31.8187 10.9923 32.0938 10.9569C32.2351 10.9408 32.3689 10.8975 32.4951 10.8283C32.6212 10.7607 32.7321 10.6691 32.828 10.5582C32.9237 10.4456 32.9966 10.3202 33.0483 10.1803C33.1 10.0405 33.1274 9.89412 33.1289 9.74462C33.1304 9.59344 33.1076 9.4472 33.059 9.3073C33.0103 9.16582 32.9389 9.03712 32.8477 8.92296C32.755 8.80881 32.6455 8.71563 32.5209 8.64326C32.3963 8.57089 32.2641 8.52587 32.1227 8.50496C31.9327 8.47441 31.7472 8.49371 31.5679 8.56285C31.387 8.63356 31.2335 8.74454 31.1059 8.89564C30.8854 9.14484 30.618 9.29284 30.3003 9.34265C30.197 9.3587 30.0951 9.36513 29.9918 9.3587C29.8884 9.35226 29.7866 9.33463 29.6862 9.30404C29.586 9.27513 29.4917 9.23334 29.399 9.18186C29.3078 9.13038 29.2227 9.06929 29.1437 8.99692C29.0662 8.92622 28.9947 8.84742 28.9324 8.759C28.8701 8.67217 28.8169 8.57893 28.7728 8.47924C28.7303 8.37955 28.6968 8.27504 28.674 8.16893C28.6527 8.0612 28.6406 7.95348 28.6406 7.84253V7.23316C28.2819 7.34089 27.8563 7.44218 27.3669 7.53544C24.8514 8.0194 22.3375 8.0194 19.822 7.53544C19.3296 7.44218 18.907 7.34089 18.5468 7.23316V7.84253C18.5468 7.95348 18.5362 8.0612 18.5134 8.16893C18.4921 8.27665 18.4587 8.37955 18.4161 8.47924C18.372 8.57893 18.3189 8.67217 18.2565 8.76059C18.1942 8.84742 18.1243 8.92781 18.0452 8.99859C17.9662 9.06929 17.8811 9.13038 17.7899 9.18345C17.6987 9.23493 17.603 9.27513 17.5027 9.30404C17.4023 9.33463 17.302 9.35226 17.1972 9.3587C17.0938 9.36513 16.9919 9.3587 16.8886 9.34265C16.5664 9.29602 16.2943 9.14651 16.0724 8.89405C16.0085 8.82009 15.9371 8.75583 15.8581 8.70109C15.7791 8.64643 15.6955 8.60147 15.6073 8.56767C15.5191 8.53391 15.428 8.51139 15.3337 8.50175C15.2395 8.4921 15.1468 8.49371 15.0526 8.50657C14.9598 8.52104 14.8687 8.54677 14.782 8.58375C14.6938 8.62069 14.6118 8.66733 14.5358 8.72524C14.4583 8.78474 14.3899 8.85068 14.3291 8.92622C14.2668 9.00336 14.2151 9.08542 14.1725 9.17384C14.1299 9.26384 14.0995 9.35711 14.0783 9.45355C14.057 9.55166 14.0464 9.64977 14.0494 9.74947C14.0509 9.85075 14.0631 9.94878 14.0874 10.0453C14.1117 10.1417 14.1452 10.2334 14.1908 10.3218C14.2364 10.4087 14.2911 10.4891 14.3534 10.563C14.4173 10.637 14.4887 10.7012 14.5677 10.7576C14.6452 10.8122 14.7288 10.8573 14.8185 10.891C14.9067 10.9248 14.9978 10.9473 15.0921 10.9569C15.3657 10.9923 15.618 10.9295 15.8475 10.7672C16.1484 10.5614 16.4767 10.4891 16.8294 10.5453L17.3233 10.6257C17.4935 10.6514 17.6532 10.7077 17.8036 10.7962C17.9541 10.8829 18.0848 10.9955 18.1972 11.1338C18.3097 11.272 18.3949 11.4264 18.4541 11.5969C18.5134 11.7673 18.5423 11.9442 18.5408 12.1258V13.2577C19.0271 13.4249 19.5226 13.552 20.0272 13.6404C22.4013 14.0954 24.7754 14.0954 27.1495 13.6404C27.6541 13.5535 28.1496 13.4249 28.636 13.2577V12.1306Z" fill="white"/>
</g>
</svg>
