<svg width="36" height="36" viewBox="0 0 36 36" fill="none" xmlns="http://www.w3.org/2000/svg">
<mask id="mask0_7499_133" style="mask-type:luminance" maskUnits="userSpaceOnUse" x="3" y="4" width="30" height="29">
<path d="M32.8516 4.21875H3.53906V32.2285H32.8516V4.21875Z" fill="white"/>
</mask>
<g mask="url(#mask0_7499_133)">
<path d="M21.6572 7.47205L21.8223 7.6362L22.031 7.53315C23.0473 7.03151 24.1825 6.82066 25.3112 6.92377C26.4398 7.02682 27.5179 7.43993 28.4265 8.11744C29.3351 8.79489 30.0387 9.71029 30.4597 10.7626C30.8806 11.8149 31.0024 12.9631 30.8117 14.0802L30.7525 14.4269L31.1027 14.4593C31.3533 14.4826 31.5965 14.5573 31.817 14.6788C32.0376 14.8002 32.2307 14.9658 32.3844 15.1651C32.5381 15.3646 32.649 15.5936 32.7103 15.8377C32.7716 16.0819 32.7818 16.3361 32.7404 16.5845C31.775 22.3924 29.4051 25.976 25.7065 27.4787L25.5034 27.5613V27.7805V29.2305C25.5034 30.0025 25.1966 30.7429 24.6508 31.2888C24.1048 31.8347 23.3645 32.1414 22.5924 32.1414H13.9615C13.1895 32.1414 12.4492 31.8347 11.9032 31.2888C11.3574 30.7429 11.0507 30.0025 11.0507 29.2305V27.7805V27.5613L10.8476 27.4787C7.14887 25.976 4.77905 22.3926 3.81355 16.5846C3.77364 16.3429 3.78259 16.0957 3.83988 15.8576C3.89718 15.6194 4.0017 15.395 4.14723 15.1979C4.29277 15.0008 4.47637 14.8348 4.68718 14.71C4.89799 14.585 5.13171 14.5037 5.37448 14.4707L5.65634 14.4324V14.148V14.1458V14.1264C5.65634 12.2727 6.20533 10.4604 7.23413 8.91833C8.26287 7.37623 9.72537 6.17344 11.437 5.4616C13.1486 4.74977 15.0328 4.56084 16.8517 4.91867C18.6706 5.27641 20.3427 6.16491 21.6572 7.47205ZM7.16268 14.1264V14.4521H7.48837H9.64609H9.97179V14.1264C9.97179 12.7821 10.5058 11.4929 11.4564 10.5424C12.4069 9.5918 13.6961 9.05779 15.0404 9.05779C16.3847 9.05779 17.6739 9.5918 18.6244 10.5424C19.575 11.4929 20.109 12.7821 20.109 14.1264V14.4521H20.4347H22.5924H22.9181V14.1264C22.9181 12.0371 22.0881 10.0334 20.6108 8.55602C19.1334 7.07861 17.1297 6.24867 15.0404 6.24867C12.9511 6.24867 10.9474 7.07861 9.47002 8.55602C7.99267 10.0334 7.16268 12.0371 7.16268 14.1264ZM11.4781 14.1264V14.4521H11.8038H18.277H18.6027V14.1264C18.6027 13.1816 18.2274 12.2755 17.5593 11.6075C16.8913 10.9394 15.9852 10.5641 15.0404 10.5641C14.0956 10.5641 13.1896 10.9394 12.5215 11.6075C11.8535 12.2755 11.4781 13.1816 11.4781 14.1264ZM26.336 13.9647L26.0573 14.4521H26.6187H28.9297H29.1826L29.2453 14.207C29.4204 13.5213 29.4367 12.8046 29.293 12.1117C29.1493 11.4187 28.8492 10.7677 28.4157 10.2083C27.9823 9.64886 27.4269 9.19575 26.7918 8.88348C26.1567 8.5712 25.4586 8.40803 24.751 8.4064H24.7502C24.1938 8.4064 23.6642 8.50385 23.1717 8.68272L22.7939 8.81997L23.0065 9.1611C23.3754 9.75308 23.6801 10.3915 23.9141 11.0619L24.0118 11.3421L24.2999 11.2706C24.649 11.1841 25.0158 11.2019 25.3548 11.322C25.6938 11.4419 25.9902 11.6588 26.207 11.9458C26.4239 12.2327 26.5517 12.577 26.5746 12.9358C26.5976 13.2947 26.5146 13.6525 26.336 13.9647ZM23.997 28.1516V27.8259H23.6713H12.8827H12.557V28.1516V29.2305C12.557 29.603 12.705 29.9603 12.9684 30.2236C13.2318 30.487 13.589 30.635 13.9615 30.635H22.5924C22.965 30.635 23.3222 30.487 23.5856 30.2236C23.849 29.9603 23.997 29.603 23.997 29.2305V28.1516ZM12.0235 26.304L12.0721 26.3196H12.1232H24.4309H24.4819L24.5305 26.304C28.1201 25.1496 30.3313 21.8911 31.2555 16.3376L31.3186 15.9584H30.9342H5.6198H5.23541L5.29853 16.3376C6.22266 21.8911 8.43386 25.1496 12.0235 26.304Z" fill="white"/>
</g>
</svg>
