<svg width="33" height="33" viewBox="0 0 33 33" fill="none" xmlns="http://www.w3.org/2000/svg">
<g opacity="0.8">
<path d="M4.89974 4.39062V28.3906M28.8997 4.39062V28.3906M30.2331 8.39063H3.56641" stroke="white" stroke-width="2" stroke-linecap="round" stroke-linejoin="round"/>
<path d="M21.5664 13.7266C23.0398 13.7266 24.2331 15.0199 24.2331 16.6132C24.2331 16.9906 24.1664 17.3519 24.0438 17.6826C23.6518 18.7466 19.3918 18.5052 19.0891 17.6826C18.9629 17.3402 18.8987 16.9781 18.8998 16.6132C18.8998 15.0186 20.0931 13.7266 21.5664 13.7266ZM12.2331 13.7266C13.7064 13.7266 14.8998 15.0199 14.8998 16.6132C14.8998 16.9906 14.8331 17.3519 14.7104 17.6826C14.3184 18.7466 10.0584 18.5052 9.75575 17.6826C9.62953 17.3402 9.56541 16.9781 9.56642 16.6132C9.56642 15.0186 10.7598 13.7266 12.2331 13.7266Z" stroke="white" stroke-width="2" stroke-linejoin="round"/>
<path d="M12.2344 13.724V8.39062M21.5677 13.724V8.39062" stroke="white" stroke-width="2" stroke-linecap="round" stroke-linejoin="round"/>
</g>
</svg>
