<svg width="33" height="33" viewBox="0 0 33 33" fill="none" xmlns="http://www.w3.org/2000/svg">
<g opacity="0.8">
<path d="M16.5 3.65625L17.1067 3.96692C19.4543 5.16861 21.4701 6.92976 22.976 9.09492C24.2315 8.49992 25.5591 8.07098 26.9253 7.81892L28.5 7.52825V18.2216C28.5 21.4042 27.2357 24.4564 24.9853 26.7069C22.7348 28.9573 19.6826 30.2216 16.5 30.2216C13.3174 30.2216 10.2652 28.9573 8.01472 26.7069C5.76428 24.4564 4.5 21.4042 4.5 18.2216V7.52825L6.07333 7.81892C7.46133 8.07225 8.78667 8.50692 10.024 9.09492C11.5299 6.92976 13.5457 5.16861 15.8933 3.96692L16.5 3.65625ZM12.3373 10.4429C13.9775 11.593 15.3891 13.0386 16.5 14.7056C17.6106 13.0376 19.0223 11.5912 20.6627 10.4402C19.5554 8.90524 18.137 7.62088 16.5 6.67092C14.8628 7.62126 13.4444 8.90609 12.3373 10.4416M15.032 17.4656C13.8556 15.1805 12.0468 13.2819 9.82133 11.9962C8.98143 11.5125 8.09128 11.1217 7.16667 10.8309V18.2216C7.16667 22.6082 10.1933 26.2882 14.272 27.2882C13.9796 26.0654 13.8324 24.8123 13.8333 23.5549C13.8333 21.3989 14.26 19.3429 15.0333 17.4669M17.1053 27.5362C19.4711 27.3825 21.6897 26.3342 23.3107 24.6043C24.9317 22.8743 25.8336 20.5923 25.8333 18.2216V10.8309C23.1259 11.6824 20.7609 13.3755 19.0822 15.6639C17.4036 17.9524 16.499 20.7168 16.5 23.5549C16.5 24.9442 16.712 26.2816 17.104 27.5376" fill="white"/>
</g>
</svg>
