<svg width="16" height="16" viewBox="0 0 16 16" fill="none" xmlns="http://www.w3.org/2000/svg">
<path d="M8 2.5C7.66848 2.5 7.35054 2.6317 7.11612 2.86612C6.8817 3.10054 6.75 3.41848 6.75 3.75C6.75 4.08152 6.8817 4.39946 7.11612 4.63388C7.35054 4.8683 7.66848 5 8 5C8.33152 5 8.64946 4.8683 8.88388 4.63388C9.1183 4.39946 9.25 4.08152 9.25 3.75C9.25 3.41848 9.1183 3.10054 8.88388 2.86612C8.64946 2.6317 8.33152 2.5 8 2.5ZM5.75 3.75C5.75 3.15326 5.98705 2.58097 6.40901 2.15901C6.83097 1.73705 7.40326 1.5 8 1.5C8.59674 1.5 9.16903 1.73705 9.59099 2.15901C10.0129 2.58097 10.25 3.15326 10.25 3.75C10.25 4.34674 10.0129 4.91903 9.59099 5.34099C9.16903 5.76295 8.59674 6 8 6C7.40326 6 6.83097 5.76295 6.40901 5.34099C5.98705 4.91903 5.75 4.34674 5.75 3.75ZM3 4C2.73478 4 2.48043 4.10536 2.29289 4.29289C2.10536 4.48043 2 4.73478 2 5C2 5.26522 2.10536 5.51957 2.29289 5.70711C2.48043 5.89464 2.73478 6 3 6C3.26522 6 3.51957 5.89464 3.70711 5.70711C3.89464 5.51957 4 5.26522 4 5C4 4.73478 3.89464 4.48043 3.70711 4.29289C3.51957 4.10536 3.26522 4 3 4ZM1 5C1 4.46957 1.21071 3.96086 1.58579 3.58579C1.96086 3.21071 2.46957 3 3 3C3.53043 3 4.03914 3.21071 4.41421 3.58579C4.78929 3.96086 5 4.46957 5 5C5 5.53043 4.78929 6.03914 4.41421 6.41421C4.03914 6.78929 3.53043 7 3 7C2.46957 7 1.96086 6.78929 1.58579 6.41421C1.21071 6.03914 1 5.53043 1 5ZM12 5C12 4.73478 12.1054 4.48043 12.2929 4.29289C12.4804 4.10536 12.7348 4 13 4C13.2652 4 13.5196 4.10536 13.7071 4.29289C13.8946 4.48043 14 4.73478 14 5C14 5.26522 13.8946 5.51957 13.7071 5.70711C13.5196 5.89464 13.2652 6 13 6C12.7348 6 12.4804 5.89464 12.2929 5.70711C12.1054 5.51957 12 5.26522 12 5ZM13 3C12.4696 3 11.9609 3.21071 11.5858 3.58579C11.2107 3.96086 11 4.46957 11 5C11 5.53043 11.2107 6.03914 11.5858 6.41421C11.9609 6.78929 12.4696 7 13 7C13.5304 7 14.0391 6.78929 14.4142 6.41421C14.7893 6.03914 15 5.53043 15 5C15 4.46957 14.7893 3.96086 14.4142 3.58579C14.0391 3.21071 13.5304 3 13 3ZM4.25 8.25C4.25 8.13867 4.25883 8.03017 4.2765 7.9245L1.9265 8.554C1.60633 8.63989 1.33339 8.84943 1.1677 9.13654C1.00202 9.42365 0.957162 9.76482 1.043 10.085L1.496 11.775C1.60534 12.1833 1.79975 12.5639 2.06647 12.8919C2.33319 13.2198 2.6662 13.4877 3.04368 13.678C3.42117 13.8682 3.83459 13.9765 4.25687 13.9959C4.67914 14.0152 5.10073 13.945 5.494 13.79C5.22371 13.5474 4.99011 13.2668 4.8005 12.957C4.30049 13.0608 3.77969 12.9695 3.34488 12.7016C2.91008 12.4338 2.59419 12.0098 2.462 11.5165L2.009 9.8265C2.00045 9.79479 1.99824 9.7617 2.00248 9.72913C2.00673 9.69656 2.01735 9.66514 2.03374 9.63668C2.05013 9.60821 2.07197 9.58326 2.09801 9.56324C2.12405 9.54322 2.15378 9.52853 2.1855 9.52L4.25 8.967V8.25ZM10.8285 13.8965C10.7189 13.8673 10.6111 13.8319 10.5055 13.7905C10.776 13.5479 11.0097 13.2673 11.1995 12.9575C11.6994 13.061 12.22 12.9695 12.6546 12.7015C13.0892 12.4336 13.4049 12.0097 13.537 11.5165L13.9895 9.826C14.0066 9.76202 13.9976 9.69386 13.9645 9.63649C13.9315 9.57912 13.877 9.53722 13.813 9.52L11.75 8.967V8.25C11.75 8.13933 11.7412 8.031 11.7235 7.925L14.072 8.554C14.3922 8.63989 14.6651 8.84943 14.8308 9.13654C14.9965 9.42365 15.0413 9.76482 14.9555 10.085L14.5025 11.775C14.2966 12.5435 13.7939 13.1988 13.1049 13.5966C12.4159 13.9945 11.597 14.1024 10.8285 13.8965ZM6.25 7C5.91848 7 5.60054 7.1317 5.36612 7.36612C5.1317 7.60054 5 7.91848 5 8.25V11C5 11.7956 5.31607 12.5587 5.87868 13.1213C6.44129 13.6839 7.20435 14 8 14C8.79565 14 9.55871 13.6839 10.1213 13.1213C10.6839 12.5587 11 11.7956 11 11V8.25C11 7.91848 10.8683 7.60054 10.6339 7.36612C10.3995 7.1317 10.0815 7 9.75 7H6.25ZM6 8.25C6 8.1837 6.02634 8.12011 6.07322 8.07322C6.12011 8.02634 6.1837 8 6.25 8H9.75C9.8163 8 9.87989 8.02634 9.92678 8.07322C9.97366 8.12011 10 8.1837 10 8.25V11C10 11.5304 9.78929 12.0391 9.41421 12.4142C9.03914 12.7893 8.53043 13 8 13C7.46957 13 6.96086 12.7893 6.58579 12.4142C6.21071 12.0391 6 11.5304 6 11V8.25Z" fill="black"/>
</svg>
