<svg width="30" height="30" viewBox="0 0 30 30" fill="none" xmlns="http://www.w3.org/2000/svg">
<g clip-path="url(#clip0_13042_848)">
<circle cx="15" cy="15" r="14.4" stroke="#4AB04A" stroke-width="1.2"/>
<path fill-rule="evenodd" clip-rule="evenodd" d="M10 21.7487H8.33333C7.87333 21.7487 7.5 21.3754 7.5 20.9154V15.9154C7.5 15.4554 7.87333 15.082 8.33333 15.082H10C10.46 15.082 10.8333 15.4554 10.8333 15.9154V20.9154C10.8333 21.3754 10.46 21.7487 10 21.7487Z" stroke="#4AB04A" stroke-width="1.1" stroke-linecap="round" stroke-linejoin="round"/>
<path d="M15.833 18.4159H17.7772C18.138 18.4159 18.4888 18.2992 18.7772 18.0826L20.7905 16.5726C21.293 16.1959 21.9963 16.2459 22.4405 16.6901V16.6901C22.9338 17.1834 22.9338 17.9826 22.4405 18.4751L20.713 20.2026C20.248 20.6676 19.6547 20.9851 19.0097 21.1142L16.568 21.6026C16.0838 21.6992 15.5847 21.6876 15.1055 21.5676L12.8972 21.0159C12.633 20.9492 12.3622 20.9159 12.0897 20.9159H10.833" stroke="#4AB04A" stroke-width="1.1" stroke-linecap="round" stroke-linejoin="round"/>
<path d="M15.833 18.4154H17.0705C17.768 18.4154 18.333 17.8504 18.333 17.1529V16.9004C18.333 16.3212 17.9388 15.8162 17.3772 15.6762L15.4672 15.1987C15.1563 15.1212 14.838 15.082 14.518 15.082V15.082C13.7455 15.082 12.9897 15.3104 12.3472 15.7395L10.833 16.7487" stroke="#4AB04A" stroke-width="1.1" stroke-linecap="round" stroke-linejoin="round"/>
<path fill-rule="evenodd" clip-rule="evenodd" d="M13.8892 12.5846H21.1117C21.8783 12.5846 22.5 11.963 22.5 11.1955V7.30714C22.5 6.53964 21.8783 5.91797 21.1108 5.91797H13.8883C13.1217 5.91797 12.5 6.53964 12.5 7.30714V11.1963C12.5 11.963 13.1217 12.5846 13.8892 12.5846Z" stroke="#4AB04A" stroke-width="1.1" stroke-linecap="round" stroke-linejoin="round"/>
<path d="M18.3836 8.36562C18.8719 8.85396 18.8719 9.64646 18.3836 10.134C17.8953 10.6215 17.1028 10.6223 16.6153 10.134C16.1269 9.64562 16.1269 8.85312 16.6153 8.36562C17.1036 7.87813 17.8953 7.87813 18.3836 8.36562" stroke="#4AB04A" stroke-width="1.1" stroke-linecap="round" stroke-linejoin="round"/>
<line x1="24.4512" y1="3.89546" x2="4.95123" y2="26.1455" stroke="#4AB04A" stroke-width="1.2"/>
</g>
<defs>
<clipPath id="clip0_13042_848">
<rect width="30" height="30" fill="white"/>
</clipPath>
</defs>
</svg>
