<svg width="204" height="64" viewBox="0 0 204 64" fill="none" xmlns="http://www.w3.org/2000/svg">
<g clip-path="url(#clip0_12970_488)">
<path d="M20.7496 21.029C21.1927 18.7354 23.2432 16.8101 25.5362 16.3789C25.8505 16.319 25.626 16.2891 25.5302 16.2891H20.3964C17.7412 16.2891 15.1578 18.421 14.6549 21.029L9.49121 47.705H10.7634C13.4186 47.705 16.002 45.5881 16.5049 42.98L20.7496 21.029Z" fill="white"/>
<path d="M56.8339 16.2891H40.744C38.0918 16.2891 35.5084 18.421 35.0055 21.029L29.8418 47.705H33.1466C35.8048 47.705 38.3851 45.5851 38.888 42.98L42.7436 23.0531C42.8694 22.3974 43.5159 21.8644 44.1775 21.8644H51.76C52.4245 21.8644 52.8615 22.3974 52.7388 23.0501L51.4786 29.5657C51.3528 30.2154 50.7092 30.7484 50.0447 30.7484H42.4862L42.3335 31.5449C41.8276 34.1499 43.5878 36.2848 46.24 36.2848H52.9693C55.6215 36.2848 58.2049 34.1499 58.7078 31.5449L60.7463 21.029C61.2462 18.421 59.4861 16.2891 56.8339 16.2891Z" fill="white"/>
<path d="M133.697 46.8576C134.2 44.2496 132.443 42.1207 129.788 42.1207H122.684C122.02 42.1207 121.577 41.5877 121.706 40.938L125.16 23.0561C125.286 22.4004 125.932 21.8674 126.594 21.8674H133.703C136.356 21.8674 138.939 19.7325 139.442 17.1275L139.606 16.2891H123.166C120.514 16.2891 117.931 18.421 117.425 21.026L113.201 42.9651C112.698 45.5731 114.455 47.702 117.111 47.702H133.533L133.697 46.8546V46.8576Z" fill="white"/>
<path d="M163.12 16.2891H146.524C143.869 16.2891 141.288 18.421 140.779 21.026L136.559 42.9651C136.056 45.5731 137.813 47.702 140.468 47.702H157.046C159.698 47.702 162.284 45.5731 162.787 42.9651L167.029 21.026C167.529 18.421 165.772 16.2891 163.12 16.2891ZM145.063 40.935L148.52 23.0501C148.643 22.3974 149.293 21.8644 149.957 21.8644H157.543C158.204 21.8644 158.644 22.3974 158.519 23.0501L155.061 40.935C154.935 41.5847 154.289 42.1177 153.627 42.1177H146.039C145.377 42.1177 144.937 41.5847 145.063 40.935Z" fill="white"/>
<path d="M87.5271 31.5449L89.5626 21.029C90.0685 18.421 88.3083 16.2891 85.6531 16.2891H69.5663C66.9111 16.2891 64.3307 18.421 63.8278 21.029L58.6641 47.705H66.7943L71.5659 23.0501C71.6886 22.3974 72.3352 21.8644 72.9998 21.8644H80.5762C81.2408 21.8644 81.6808 22.3974 81.5551 23.0501L80.2978 29.5657C80.1721 30.2154 79.5255 30.7484 78.864 30.7484H71.3025L71.1498 31.5449C71.045 32.0929 70.9552 33.1977 71.4072 34.0601L79.1483 47.705H87.8294L81.3515 36.2848H81.7886C84.4438 36.2848 87.0271 34.1499 87.5301 31.5449" fill="white"/>
<path d="M193.815 31.5449L195.854 21.029C196.354 18.421 194.596 16.2891 191.941 16.2891H175.857C173.202 16.2891 170.619 18.421 170.116 21.029L164.955 47.705H173.085L177.854 23.0501C177.98 22.3974 178.626 21.8644 179.288 21.8644H186.873C187.535 21.8644 187.975 22.3974 187.846 23.0501L186.589 29.5657C186.46 30.2154 185.82 30.7484 185.155 30.7484H177.593L177.441 31.5449C177.336 32.0929 177.246 33.1977 177.695 34.0601L185.439 47.705H194.117L187.64 36.2848H188.08C190.735 36.2848 193.315 34.1499 193.821 31.5449" fill="white"/>
<path d="M31.9433 21.026C32.3833 18.7444 34.4159 16.828 36.6969 16.3849C37.0232 16.322 36.8346 16.2891 36.7178 16.2891H29.5575C26.9023 16.2891 24.3219 18.421 23.816 21.029L18.6553 47.705H21.9571C24.6153 47.705 27.1956 45.5881 27.7015 42.98L31.9463 21.026H31.9433Z" fill="white"/>
<path d="M7.51601 21.029L2.36426 47.6481C4.7291 47.2858 6.8784 45.3335 7.33341 42.983L11.5752 21.029C12.0182 18.7384 14.0657 16.8161 16.3557 16.3819C16.673 16.322 16.4246 16.2891 16.3557 16.2891H13.2575C10.6023 16.2891 8.01891 18.421 7.51601 21.029Z" fill="white"/>
<path d="M98.9386 16.2891C96.2834 16.2891 93.7 18.421 93.1971 21.026L88.9733 42.9651C88.4674 45.5731 90.2306 47.702 92.8828 47.702H110.134L110.296 46.8576C110.799 44.2526 109.042 42.1177 106.386 42.1177H98.4477C97.7861 42.1177 97.3461 41.5877 97.4718 40.935L98.6752 34.7128H109.754L110.82 29.2064H99.7378L100.929 23.0561V23.0501C101.055 22.3974 101.702 21.8644 102.363 21.8644H110.302C112.957 21.8644 115.54 19.7295 116.043 17.1275L116.208 16.2891H98.9386Z" fill="white"/>
<path d="M200.71 18.9302C200.962 18.9302 201.114 18.8703 201.114 18.5888C201.114 18.3073 200.962 18.2385 200.71 18.2385H200.123V18.9302H200.71ZM200.123 20.4003C200.123 20.6189 200.049 20.7746 199.779 20.7746C199.51 20.7746 199.432 20.6489 199.432 20.4003V18.0079C199.432 17.8313 199.495 17.6845 199.785 17.6845H200.665C201.291 17.6845 201.815 17.8702 201.815 18.5918C201.815 19.1427 201.539 19.4182 201.048 19.4452L201.593 20.3435C201.626 20.4033 201.641 20.4602 201.641 20.5081C201.641 20.6788 201.533 20.7776 201.276 20.7776C201.033 20.7776 200.95 20.589 200.854 20.4033L200.366 19.4931H200.129V20.4033L200.123 20.4003ZM200.569 21.3316C201.767 21.3316 202.731 20.3674 202.731 19.1787C202.731 17.9899 201.767 17.0228 200.569 17.0228C199.372 17.0228 198.42 17.984 198.42 19.1787C198.42 20.3734 199.378 21.3316 200.569 21.3316ZM200.569 16.3281C202.147 16.3281 203.422 17.6037 203.422 19.1787C203.422 20.7537 202.147 22.0292 200.569 22.0292C198.992 22.0292 197.723 20.7507 197.723 19.1787C197.723 17.6067 199.007 16.3281 200.569 16.3281Z" fill="white"/>
</g>
<defs>
<clipPath id="clip0_12970_488">
<rect width="203.636" height="64" fill="white"/>
</clipPath>
</defs>
</svg>
