<svg width="219" height="64" viewBox="0 0 219 64" fill="none" xmlns="http://www.w3.org/2000/svg">
<path d="M52.785 52.9426C52.8301 52.9429 52.8745 52.9317 52.9138 52.9099C52.9531 52.8882 52.986 52.8568 53.0092 52.8188C53.0325 52.7807 53.0452 52.7374 53.0462 52.693C53.0472 52.6487 53.0365 52.6048 53.015 52.5658L48.426 41.6184C48.3359 41.3919 48.2642 41.1588 48.2115 40.9211L42.204 11.4136C42.1802 11.3141 42.1238 11.225 42.0435 11.1602C41.9631 11.0954 41.8633 11.0584 41.7594 11.0551H16.1365C16.0908 11.0526 16.0451 11.0609 16.0032 11.0791C15.9613 11.0973 15.9244 11.1251 15.8955 11.1601C15.8666 11.195 15.8465 11.2362 15.8369 11.2803C15.8273 11.3244 15.8284 11.3701 15.8401 11.4136L17.1058 17.4358C17.143 17.6696 17.1197 17.9089 17.0379 18.1316L2.51467 52.6418C2.43595 52.8286 2.53937 52.9456 2.74466 52.9456L52.785 52.9426ZM19.4937 14.3412C19.4823 14.2976 19.4814 14.252 19.4912 14.2081C19.501 14.1642 19.5211 14.1231 19.5499 14.0882C19.5787 14.0533 19.6155 14.0256 19.6572 14.0073C19.6989 13.9889 19.7444 13.9805 19.7901 13.9826H39.3222C39.426 13.9859 39.5258 14.0229 39.6062 14.0877C39.6866 14.1525 39.743 14.2416 39.7667 14.3412L45.3235 41.6367C45.3636 41.8326 45.4037 42.0256 45.4115 42.0651C45.456 42.2032 45.5075 42.3391 45.5658 42.4722L48.5742 49.6428C48.5952 49.6814 48.6057 49.7248 48.6044 49.7686C48.6031 49.8124 48.5902 49.8551 48.5669 49.8924C48.5436 49.9298 48.5108 49.9605 48.4718 49.9815C48.4327 50.0024 48.3887 50.013 48.3442 50.012H28.914C28.8666 50.013 28.8196 50.004 28.7761 49.9855C28.7326 49.9671 28.6937 49.9396 28.6619 49.905C28.6301 49.8704 28.6063 49.8295 28.592 49.7851C28.5777 49.7406 28.5733 49.6937 28.5791 49.6474L28.9263 46.3173C28.9623 46.0876 29.0753 45.8764 29.2474 45.7172L33.4042 42.2352C33.4848 42.1595 33.546 42.0661 33.5828 41.9625C33.6196 41.859 33.6308 41.7483 33.6157 41.6397L30.3341 25.3599C30.3104 25.2602 30.2541 25.1709 30.1737 25.1058C30.0934 25.0408 29.9935 25.0035 29.8895 24.9999H29.2258C29.1173 25.005 29.0123 25.0389 28.9218 25.098C28.8313 25.1571 28.7587 25.2392 28.7118 25.3356L21.9418 41.4483C21.9049 41.5492 21.8963 41.6581 21.917 41.7634C21.9376 41.8687 21.9867 41.9666 22.0591 42.0468L25.708 45.6929C25.8617 45.8655 25.9418 46.0896 25.9319 46.3188L25.5954 49.6474C25.5831 49.7461 25.5349 49.8372 25.4597 49.9036C25.3845 49.9701 25.2874 50.0075 25.1863 50.009H7.1978C6.99251 50.009 6.88909 49.8874 6.96781 49.7051L20.1358 18.4217C20.2171 18.199 20.2399 17.9597 20.2022 17.7259L19.4937 14.3412Z" fill="white"/>
<path d="M198.055 21.8609C198.06 21.8487 198.061 21.8355 198.059 21.8225C198.057 21.8096 198.052 21.7974 198.044 21.7871C198.036 21.7768 198.025 21.7688 198.013 21.7637C198.001 21.7587 197.988 21.7568 197.975 21.7583H190.414C190.401 21.7576 190.387 21.7599 190.374 21.7651C190.362 21.7704 190.351 21.7784 190.341 21.7886C190.332 21.7988 190.326 21.811 190.322 21.8241C190.318 21.8373 190.317 21.8512 190.32 21.8647L190.608 23.7102C190.616 23.7834 190.616 23.8573 190.608 23.9305L188.311 40.2786C188.298 40.3504 188.282 40.4214 188.261 40.4913L187.749 42.1508C187.743 42.1628 187.741 42.1761 187.743 42.1892C187.744 42.2023 187.749 42.2148 187.756 42.2256C187.764 42.2363 187.774 42.2448 187.786 42.2504C187.798 42.2559 187.811 42.2582 187.825 42.2571H195.15C195.164 42.2573 195.177 42.2544 195.19 42.2487C195.203 42.243 195.214 42.2346 195.223 42.2241C195.232 42.2136 195.239 42.2013 195.243 42.188C195.246 42.1746 195.247 42.1606 195.245 42.147L195.051 40.4951C195.044 40.4231 195.044 40.3506 195.051 40.2786L197.242 24.6748C197.253 24.6031 197.269 24.5321 197.288 24.4621L198.055 21.8609Z" fill="white"/>
<path d="M111.835 36.9327C111.821 36.9334 111.807 36.9311 111.795 36.9259C111.782 36.9206 111.771 36.9126 111.762 36.9024C111.753 36.8921 111.746 36.88 111.742 36.8668C111.738 36.8537 111.738 36.8398 111.74 36.8263L113.411 24.6744C113.422 24.6027 113.445 24.5334 113.479 24.4693L114.934 21.8529C114.96 21.7997 114.934 21.758 114.877 21.758H106.834C106.82 21.7572 106.806 21.7595 106.794 21.7648C106.781 21.77 106.77 21.778 106.76 21.7882C106.751 21.7985 106.745 21.8106 106.741 21.8238C106.737 21.8369 106.736 21.8508 106.739 21.8643L107.016 23.7099C107.023 23.7831 107.023 23.8569 107.016 23.9301L104.718 40.2782C104.708 40.3504 104.691 40.4215 104.669 40.4909L104.115 42.1542C104.109 42.166 104.107 42.1792 104.108 42.1922C104.109 42.2053 104.114 42.2178 104.122 42.2283C104.129 42.2389 104.14 42.2471 104.152 42.2521C104.164 42.2571 104.177 42.2587 104.19 42.2567H118.887C118.918 42.2548 118.948 42.2436 118.973 42.2247C118.998 42.2058 119.017 42.18 119.027 42.1504L120.611 36.6592C120.611 36.6023 120.592 36.5643 120.531 36.5719L118.207 36.9061C118.134 36.9117 118.06 36.9117 117.987 36.9061L111.835 36.9327Z" fill="white"/>
<path d="M160.732 23.7137C160.738 23.7857 160.738 23.8581 160.732 23.9302L159.471 33.1428C159.471 33.2036 159.437 33.2074 159.41 33.1428L153.809 21.853C153.792 21.825 153.769 21.8017 153.741 21.7851C153.713 21.7685 153.682 21.7592 153.65 21.758H147.524C147.511 21.7571 147.497 21.7593 147.484 21.7646C147.472 21.7699 147.461 21.778 147.452 21.7883C147.443 21.7986 147.437 21.8109 147.433 21.8241C147.43 21.8373 147.43 21.8511 147.433 21.8643L147.748 23.7099C147.758 23.7818 147.758 23.8545 147.748 23.9264L145.443 40.2783C145.431 40.3501 145.414 40.4211 145.394 40.4909L144.87 42.1504C144.864 42.1625 144.862 42.1757 144.864 42.1889C144.865 42.202 144.87 42.2145 144.877 42.2252C144.885 42.236 144.895 42.2445 144.907 42.25C144.919 42.2556 144.933 42.2579 144.946 42.2568H151.022C151.036 42.2569 151.049 42.254 151.062 42.2483C151.075 42.2427 151.086 42.2344 151.096 42.2239C151.105 42.2135 151.112 42.2013 151.116 42.1879C151.121 42.1746 151.122 42.1605 151.12 42.1467L150.927 40.4947C150.921 40.4227 150.921 40.3503 150.927 40.2783L152.248 30.8757C152.248 30.815 152.282 30.8112 152.309 30.8757L157.842 42.1694C157.858 42.1978 157.881 42.2217 157.909 42.2389C157.937 42.2562 157.969 42.2662 158.001 42.2682H164.556C164.57 42.2683 164.583 42.2655 164.596 42.2598C164.609 42.2541 164.62 42.2457 164.629 42.2352C164.638 42.2247 164.645 42.2124 164.648 42.199C164.652 42.1857 164.653 42.1717 164.651 42.158L164.408 40.5061C164.4 40.4342 164.4 40.3616 164.408 40.2897L166.686 23.9378C166.698 23.8661 166.713 23.7952 166.732 23.7251L167.313 21.8719C167.318 21.8601 167.321 21.8469 167.32 21.8339C167.318 21.8208 167.314 21.8083 167.306 21.7978C167.298 21.7872 167.287 21.779 167.275 21.774C167.263 21.769 167.25 21.7674 167.237 21.7694H160.694C160.68 21.7694 160.667 21.7721 160.654 21.7776C160.642 21.783 160.63 21.791 160.621 21.801C160.612 21.8109 160.605 21.8227 160.6 21.8356C160.596 21.8485 160.594 21.8621 160.595 21.8757L160.732 23.7137Z" fill="white"/>
<path d="M81.2567 21.8643C81.2498 21.8342 81.2329 21.8073 81.2088 21.788C81.1847 21.7687 81.1547 21.7581 81.1238 21.758H71.163C71.1494 21.7571 71.1358 21.7593 71.1233 21.7646C71.1107 21.7699 71.0996 21.778 71.0908 21.7883C71.0819 21.7986 71.0756 21.8109 71.0723 21.8241C71.069 21.8373 71.0689 21.8511 71.0719 21.8643L71.3757 23.7099C71.3867 23.7806 71.3774 23.8531 71.3491 23.9188L63.9934 40.2859C63.9706 40.3429 63.9288 40.4302 63.906 40.4872L63.1655 42.158C63.16 42.169 63.1575 42.1813 63.1584 42.1935C63.1592 42.2058 63.1634 42.2176 63.1704 42.2277C63.1774 42.2378 63.1869 42.2459 63.1981 42.251C63.2093 42.2561 63.2217 42.2581 63.2339 42.2568H69.8681C69.8814 42.257 69.8947 42.2542 69.9068 42.2487C69.919 42.2432 69.9298 42.2351 69.9385 42.225C69.9472 42.2148 69.9536 42.2029 69.9572 42.19C69.9607 42.1771 69.9614 42.1636 69.9592 42.1504L69.7048 40.6998C69.6952 40.628 69.6952 40.5552 69.7048 40.4834L69.7276 40.3694C69.7495 40.2994 69.7762 40.2309 69.8073 40.1644L70.7984 38.053C70.8139 38.0246 70.8363 38.0007 70.8635 37.9834C70.8907 37.9662 70.9219 37.9561 70.9541 37.9542H78.2491C78.2799 37.9554 78.3094 37.9668 78.3328 37.9868C78.3562 38.0068 78.3722 38.0341 78.3782 38.0644L78.7162 40.153C78.7162 40.2137 78.739 40.3125 78.7428 40.3694V40.5137C78.7428 40.5745 78.7162 40.6694 78.701 40.7302L78.3934 42.1504C78.3905 42.1634 78.3906 42.1768 78.3937 42.1897C78.3968 42.2026 78.4027 42.2146 78.4111 42.2249C78.4196 42.2351 78.4302 42.2433 78.4423 42.2489C78.4543 42.2544 78.4675 42.2571 78.4807 42.2568H85.8478C85.8605 42.258 85.8733 42.2558 85.8848 42.2505C85.8964 42.2452 85.9064 42.2369 85.9137 42.2265C85.921 42.2161 85.9255 42.2039 85.9266 42.1912C85.9277 42.1785 85.9254 42.1658 85.92 42.1542L85.3542 40.4909C85.3312 40.4212 85.3121 40.3502 85.2972 40.2783L81.2567 21.8643ZM72.6326 34.1036C72.5719 34.1036 72.5453 34.0618 72.5681 34.0049L75.4465 27.5112C75.4614 27.4831 75.4831 27.4594 75.5097 27.4421C75.5363 27.4248 75.5668 27.4146 75.5984 27.4124H75.9326C75.9632 27.4138 75.9925 27.4248 76.0164 27.4439C76.0403 27.463 76.0575 27.4893 76.0655 27.5188L77.5845 33.9745C77.5891 33.9872 77.5904 34.0009 77.5882 34.0142C77.5861 34.0276 77.5806 34.0402 77.5722 34.0508C77.5639 34.0614 77.5529 34.0698 77.5405 34.075C77.528 34.0803 77.5144 34.0823 77.501 34.0808L72.6326 34.1036Z" fill="white"/>
<path d="M138.977 21.8643C138.97 21.8342 138.953 21.8073 138.929 21.788C138.905 21.7687 138.875 21.7581 138.844 21.758H128.883C128.869 21.7571 128.856 21.7593 128.843 21.7646C128.831 21.7699 128.82 21.778 128.811 21.7883C128.802 21.7986 128.796 21.8109 128.792 21.8241C128.789 21.8373 128.789 21.8511 128.792 21.8643L129.096 23.7099C129.102 23.7806 129.093 23.852 129.069 23.9188L121.713 40.2859L121.622 40.4872L120.893 42.158C120.886 42.1685 120.883 42.1808 120.883 42.1932C120.883 42.2057 120.887 42.2179 120.893 42.2284C120.9 42.2388 120.91 42.2471 120.921 42.2521C120.933 42.2572 120.945 42.2588 120.958 42.2568H127.584C127.598 42.2577 127.611 42.2554 127.624 42.2502C127.637 42.2449 127.648 42.2368 127.657 42.2265C127.665 42.2161 127.672 42.2039 127.675 42.1907C127.678 42.1775 127.678 42.1637 127.675 42.1504L127.421 40.6998C127.415 40.6278 127.415 40.5554 127.421 40.4834L127.444 40.3694C127.444 40.3087 127.501 40.2175 127.524 40.1644L128.518 38.053C128.534 38.0244 128.556 38.0003 128.583 37.983C128.611 37.9657 128.642 37.9558 128.674 37.9542H135.977C136.007 37.9548 136.037 37.9662 136.06 37.9863C136.082 38.0065 136.098 38.0342 136.102 38.0644L136.44 40.153C136.44 40.2137 136.463 40.3125 136.467 40.3694V40.5137C136.467 40.5745 136.44 40.6694 136.429 40.7302L136.121 42.1504C136.118 42.1634 136.118 42.1768 136.121 42.1897C136.124 42.2026 136.13 42.2147 136.139 42.2249C136.147 42.2351 136.158 42.2433 136.17 42.2489C136.182 42.2544 136.195 42.2571 136.208 42.2568H143.56C143.573 42.2588 143.586 42.2572 143.599 42.2522C143.611 42.2472 143.621 42.2389 143.629 42.2284C143.637 42.2179 143.642 42.2054 143.643 42.1923C143.644 42.1792 143.642 42.1661 143.636 42.1542L143.07 40.4909C143.07 40.434 143.025 40.339 143.01 40.2783L138.977 21.8643ZM130.334 34.1036C130.273 34.1036 130.243 34.0618 130.269 34.0049L133.148 27.5112C133.162 27.4827 133.183 27.4585 133.21 27.4411C133.237 27.4237 133.268 27.4138 133.299 27.4124H133.63C133.661 27.413 133.691 27.4236 133.716 27.4428C133.741 27.462 133.758 27.4886 133.767 27.5188L135.286 33.9745C135.29 33.9872 135.291 34.0009 135.289 34.0142C135.287 34.0276 135.282 34.0402 135.273 34.0508C135.265 34.0614 135.254 34.0698 135.242 34.075C135.229 34.0803 135.215 34.0823 135.202 34.0808L130.334 34.1036Z" fill="white"/>
<path d="M86.1345 21.7618C86.1043 21.7615 86.075 21.772 86.052 21.7916C86.0289 21.8111 86.0137 21.8383 86.0092 21.8681L85.2231 27.1846C85.2198 27.1971 85.2199 27.2102 85.2234 27.2226C85.2269 27.235 85.2336 27.2462 85.2429 27.2551C85.2522 27.264 85.2638 27.2703 85.2763 27.2733C85.2888 27.2762 85.3019 27.2758 85.3142 27.2719L86.6965 26.9757C86.7677 26.9605 86.8402 26.9528 86.913 26.953H91.318C91.3317 26.9522 91.3454 26.9545 91.358 26.9598C91.3707 26.965 91.382 26.973 91.3911 26.9833C91.4002 26.9935 91.4069 27.0056 91.4107 27.0188C91.4145 27.0319 91.4153 27.0458 91.413 27.0593L89.5142 40.2783C89.5031 40.35 89.4879 40.421 89.4687 40.491L88.9522 42.1505C88.9469 42.1625 88.9448 42.1758 88.9462 42.1889C88.9475 42.202 88.9522 42.2145 88.9599 42.2252C88.9676 42.236 88.9779 42.2445 88.9899 42.2501C89.0018 42.2556 89.015 42.2579 89.0282 42.2568H96.3801C96.3942 42.2568 96.4082 42.2539 96.4211 42.2483C96.4341 42.2427 96.4458 42.2345 96.4554 42.2241C96.465 42.2138 96.4724 42.2016 96.4771 42.1882C96.4818 42.1749 96.4837 42.1607 96.4826 42.1467L96.3155 40.4947C96.308 40.4228 96.308 40.3502 96.3155 40.2783L98.1497 27.0593C98.1543 27.0294 98.1695 27.0023 98.1925 26.9827C98.2155 26.9632 98.2448 26.9526 98.275 26.953H101.442C101.514 26.9541 101.585 26.963 101.655 26.9795L103.554 27.5112C103.567 27.5152 103.581 27.5162 103.594 27.5142C103.608 27.5122 103.621 27.5072 103.633 27.4996C103.644 27.492 103.654 27.482 103.661 27.4702C103.669 27.4584 103.673 27.4452 103.675 27.4314L104.495 21.8643C104.498 21.8511 104.498 21.8373 104.495 21.8241C104.492 21.8109 104.485 21.7986 104.476 21.7883C104.468 21.778 104.456 21.7699 104.444 21.7646C104.431 21.7593 104.418 21.7571 104.404 21.758L86.1345 21.7618Z" fill="white"/>
<path d="M169.804 21.7618C169.774 21.7615 169.745 21.772 169.722 21.7916C169.699 21.8111 169.684 21.8383 169.679 21.8681L168.893 27.1846C168.89 27.1971 168.89 27.2102 168.893 27.2226C168.897 27.235 168.904 27.2462 168.913 27.2551C168.922 27.264 168.934 27.2703 168.946 27.2733C168.959 27.2762 168.972 27.2758 168.984 27.2719L170.366 26.9757C170.438 26.9605 170.51 26.9528 170.583 26.953H174.988C175.002 26.9522 175.015 26.9545 175.028 26.9598C175.041 26.965 175.052 26.973 175.061 26.9833C175.07 26.9935 175.077 27.0056 175.081 27.0188C175.084 27.0319 175.085 27.0458 175.083 27.0593L173.184 40.2783C173.173 40.35 173.158 40.421 173.139 40.491L172.622 42.1505C172.617 42.1625 172.615 42.1758 172.616 42.1889C172.617 42.202 172.622 42.2145 172.63 42.2252C172.637 42.236 172.648 42.2445 172.66 42.2501C172.672 42.2556 172.685 42.2579 172.698 42.2568H180.05C180.064 42.2568 180.078 42.2539 180.091 42.2483C180.104 42.2427 180.116 42.2345 180.125 42.2241C180.135 42.2138 180.142 42.2016 180.147 42.1882C180.152 42.1749 180.154 42.1607 180.153 42.1467L179.985 40.4947C179.978 40.4228 179.978 40.3502 179.985 40.2783L181.82 27.0593C181.824 27.0294 181.839 27.0023 181.862 26.9827C181.885 26.9632 181.915 26.9526 181.945 26.953H185.363C185.436 26.9556 185.508 26.9658 185.579 26.9833L187.22 27.5074C187.233 27.5121 187.246 27.5137 187.26 27.5123C187.274 27.5108 187.287 27.5062 187.299 27.4989C187.311 27.4916 187.32 27.4817 187.328 27.4701C187.335 27.4584 187.34 27.4452 187.341 27.4314L188.161 21.8643C188.164 21.8511 188.164 21.8373 188.161 21.8241C188.158 21.8109 188.151 21.7986 188.143 21.7883C188.134 21.778 188.123 21.7699 188.11 21.7646C188.097 21.7593 188.084 21.7571 188.07 21.758L169.804 21.7618Z" fill="white"/>
<path d="M213.684 31.3111C211.515 29.5377 208.158 29.2035 207.357 27.4111C207.304 27.2014 207.295 26.9828 207.331 26.7694C207.471 25.8959 208.868 25.6757 210.308 25.7744C211.55 25.7905 212.767 26.1294 213.839 26.758L215.172 28.1554C215.195 28.179 215.224 28.1958 215.256 28.2041C215.287 28.2124 215.321 28.2118 215.352 28.2024C215.383 28.193 215.411 28.1751 215.433 28.1508C215.455 28.1264 215.47 28.0965 215.476 28.0643L216.274 22.3225C216.28 22.2651 216.264 22.2075 216.231 22.1606C216.197 22.1137 216.148 22.0808 216.091 22.0681C214.049 21.5851 211.959 21.3304 209.86 21.3086C205.929 21.3086 201.706 22.5048 200.533 26.944C199.929 29.2225 201.053 31.7213 203.37 32.9403C204.287 33.3983 205.175 33.9133 206.028 34.482C206.936 35.363 207.22 35.739 207.167 36.4491C207.125 37.0643 206.119 38.3023 203.301 37.9681C202.297 37.9125 201.337 37.5388 200.56 36.901L199.242 35.7048C199.201 35.6713 199.152 35.6487 199.1 35.6389C199.048 35.6291 198.994 35.6324 198.943 35.6486C198.893 35.6648 198.847 35.6934 198.81 35.7317C198.774 35.77 198.747 35.8169 198.733 35.8681L197.882 41.6137C197.879 41.6721 197.895 41.7301 197.929 41.7778C197.963 41.8255 198.012 41.8601 198.068 41.8757C200.055 42.3817 202.094 42.6544 204.144 42.6884C207.315 42.6884 215.055 41.9289 215.514 35.6479C215.588 34.8304 215.459 34.0073 215.14 33.2511C214.821 32.4949 214.321 31.8287 213.684 31.3111Z" fill="white"/>
</svg>
