<svg width="192" height="32" viewBox="0 0 192 32" fill="none" xmlns="http://www.w3.org/2000/svg">
<g clip-path="url(#clip0_12970_476)">
<mask id="mask0_12970_476" style="mask-type:luminance" maskUnits="userSpaceOnUse" x="0" y="0" width="192" height="32">
<path d="M191.998 0H0V32H191.998V0Z" fill="white"/>
</mask>
<g mask="url(#mask0_12970_476)">
<path d="M52.2263 29.7169C53.4792 32.4057 53.0051 32.1448 51.2856 31.6649C31.8914 26.278 16.1646 26.3751 9.10388 27.6718C7.65101 28.7593 6.09927 29.7079 4.46907 30.5053C2.1669 31.5926 2.11549 31.5488 0.725423 29.5303C-0.293322 28.0527 -0.226675 27.8584 0.820633 27.1177C2.92641 25.843 5.26084 24.9918 7.69287 24.6118C15.1474 17.5965 23.1158 11.148 31.5315 5.32038C34.2374 3.42761 36.3834 2.06802 37.703 1.32157C38.6598 0.637776 39.7719 0.203109 40.9388 0.0568286C42.1057 -0.0894514 43.2907 0.0572648 44.3867 0.483725C47.8638 1.2454 47.6676 1.85094 45.7044 3.26956C44.4039 4.20833 43.2556 4.98334 41.8446 5.86879C39.969 7.0551 39.9404 6.94656 37.2212 6.89325C29.14 11.9528 21.4393 17.596 14.1805 23.7777C19.7243 23.3314 25.2957 23.3498 30.8365 23.833C30.6126 23.3964 30.437 22.9366 30.3128 22.4619C29.5378 20.095 29.5511 20.4016 30.3852 19.4686C33.4991 16.1173 36.8148 12.9594 40.3136 10.0123C41.6466 8.96882 42.1969 8.26807 43.4917 10.6388C44.6457 12.7525 44.6933 12.9353 43.2804 14.0492C41.8675 15.1632 34.2754 21.6279 32.6512 23.4388C32.4911 23.6215 32.3152 23.7897 32.1256 23.9415C37.4029 24.4045 42.6398 25.249 47.7952 26.4684C51.1637 27.2834 51.0209 27.1425 52.2225 29.7188M71.8795 20.2797C68.9746 22.2637 65.8347 23.8794 62.5318 25.0897C61.5854 25.5181 60.5157 25.5884 59.5215 25.2876C58.5272 24.9867 57.6759 24.3352 57.1258 23.454C56.208 21.9916 56.0594 21.1366 56.9144 19.9046C57.3771 19.2362 57.8779 18.5717 58.4073 17.9109C57.1201 17.7472 54.8065 17.4901 52.7937 17.0674C49.6918 20.0855 47.4791 22.3134 45.3674 24.4937C44.7466 25.1335 44.2249 25.4077 43.248 23.9358C42.1893 22.3344 42.2559 22.1478 43.0366 21.2318C44.9865 18.9468 46.249 17.6881 48.0828 15.7954C47.2648 15.5607 46.5381 15.0817 46 14.4225C45.462 13.7632 45.1382 12.9553 45.0722 12.1069C44.9313 11.2024 45.2836 11.1339 45.9196 11.41C46.3633 11.6004 48.4731 12.2669 50.9524 12.9124C53.205 10.7188 56.7221 7.54448 58.6244 5.89354C62.7889 2.28509 65.6832 0.257126 69.5031 0.0495686C70.08 -0.0655119 70.6753 -0.0512982 71.2462 0.0911875C71.817 0.233673 72.3491 0.50089 72.8044 0.873618C73.2596 1.24635 73.6265 1.71532 73.8788 2.24682C74.1311 2.77831 74.2625 3.35912 74.2635 3.94746C74.296 4.57148 74.2043 5.19574 73.9938 5.78409C73.7833 6.37244 73.4582 6.91318 73.0372 7.37501C72.287 7.94627 71.5615 7.65112 71.2016 6.74853C70.3809 4.69771 69.6782 3.89223 66.1764 6.17727C62.6218 8.58417 59.2254 11.2167 56.008 14.0587C57.2914 14.312 59.626 14.5805 61.2503 14.7709C63.3746 12.6569 65.8625 10.943 68.5947 9.71146C72.6907 8.03957 75.0271 9.82571 75.8307 10.7588C76.1577 11.2234 76.3833 11.7517 76.493 12.3091C76.6026 12.8666 76.5939 13.441 76.4673 13.9949C76.3408 14.5488 76.0992 15.0699 75.7582 15.5244C75.4173 15.9789 74.9846 16.3567 74.4882 16.6332C71.04 18.0598 67.298 18.6321 63.581 18.3013C62.6771 19.2382 61.8736 20.2669 61.1836 21.3708C61.1729 21.3896 61.1677 21.4111 61.1686 21.4327C61.1696 21.4543 61.1766 21.4752 61.189 21.493C61.2014 21.5107 61.2185 21.5246 61.2385 21.533C61.2584 21.5414 61.2803 21.5439 61.3017 21.5403C64.5582 20.9606 67.7785 20.1932 70.9464 19.242C72.7116 18.7564 72.864 19.5847 71.8719 20.2797M66.6906 14.7328C68.3649 14.6596 70.031 14.4565 71.6738 14.1254C74.5415 13.4456 73.0068 10.7702 70.4133 12.3602C69.0776 12.9907 67.8268 13.7891 66.6906 14.7328ZM44.2211 8.16906C44.2439 8.65272 44.0306 9.59149 46.0224 9.21446C50.3545 8.39756 50.3221 8.39756 51.8074 8.05481C53.2926 7.71205 53.3479 7.49497 53.0908 5.52032C52.9004 4.05219 52.5043 3.89033 51.1371 4.25594C49.0743 4.8669 47.0767 5.67947 45.1731 6.68188C44.2344 7.12937 44.1849 7.38834 44.2211 8.16525M191.568 12.6287C191.187 12.722 190.387 12.8762 189.521 13.0286C187.556 13.3732 187.771 13.3637 186.872 12.2993C184.614 11.9184 182.827 12.5106 183.389 13.6912C184.084 15.1517 188.742 17.3682 188.742 20.9862C188.742 23.5854 184.743 25.1392 180.605 25.4268C179.75 25.6203 178.858 25.5673 178.032 25.2741C177.206 24.9809 176.48 24.4594 175.938 23.7701C174.875 22.5267 173.71 20.9329 175.666 21.2052C177.76 21.4946 183.507 21.6241 183.283 20.0398C183.024 18.2423 179.284 17.2425 178.394 14.7423C176.49 15.4393 174.278 16.1476 172.773 16.8598C173.229 17.1893 173.604 17.6172 173.872 18.1116C174.14 18.6061 174.293 19.1545 174.319 19.7161C174.319 22.6847 171.273 26.3694 161.717 25.223C160.575 25.084 160.337 24.8917 159.676 23.4997C159.015 22.1078 159.141 21.5498 160.569 20.7386C162.325 19.7389 164.896 18.465 167.739 17.1988C167.16 16.7698 166.624 16.2858 166.139 15.7535C158.966 20.7158 153.497 25.3316 149.573 25.383C147.973 25.383 147.181 23.0542 146.949 21.2661L138.612 25.1031C137.727 25.5905 137.452 25.5734 136.424 24.7832C135.396 23.9929 134.901 23.5169 134.857 23.0027C134.86 22.8147 134.9 22.6291 134.975 22.4566C135.05 22.2841 135.158 22.128 135.293 21.9973C136.138 20.9767 137.768 19.0668 140.495 15.266C135.453 17.7082 130.8 20.8826 126.686 24.686C125.557 25.8 125.422 25.7067 124.197 24.3052C123.508 23.5207 123.188 23.0979 123.184 22.6924C123.241 22.2821 123.431 21.902 123.725 21.6108C126.318 18.5801 129.134 15.7483 132.151 13.139C126.707 16.9722 118.719 22.0887 115.476 24.0748C114.792 24.4932 114.086 24.8745 113.36 25.2173L113.107 25.3373L113.029 25.362C112.062 25.6477 111.599 25.2287 110.67 24.3814C109.445 23.2674 109.211 22.9437 110.099 21.9688C111.506 20.4359 114.196 17.6424 117.694 13.9845C112.014 17.8805 102.27 23.5721 100.149 24.7375C98.0546 25.88 97.7004 25.5753 96.4779 24.368C95.2554 23.1608 94.9279 22.3725 95.819 21.3975C99.3989 17.4996 105.991 10.6331 107.307 9.61434C108.623 8.5956 108.731 9.10402 109.758 10.8216C110.698 12.4002 110.982 12.6782 110.038 13.5141C109.093 14.3501 106.648 16.5742 103.729 19.5466C109.529 16.2619 116.588 12.522 120.598 10.1989L118.563 10.4655C117.464 10.6559 116.175 10.8635 115.411 10.9758C115.352 10.9839 115.291 10.9767 115.235 10.9547C115.179 10.9328 115.13 10.897 115.092 10.8506C115.054 10.8043 115.028 10.7489 115.017 10.6899C115.007 10.6308 115.011 10.57 115.03 10.5131C115.241 10.0369 115.551 9.61107 115.939 9.26428C116.328 8.91749 116.786 8.6577 117.283 8.50229C118.976 8.0529 120.596 7.65873 122.106 7.31598C122.853 7.12556 123.677 6.93514 124.582 6.74472C126.736 4.54157 129.211 2.12324 129.769 1.63767C130.367 1.04927 130.782 0.655103 130.955 0.521809C132.273 -0.49884 132.376 0.0114847 133.402 1.72907C134.177 3.02773 134.491 3.44284 134.057 4.0141C134.057 4.0141 133.355 4.72627 132.724 5.33181C141.96 4.15096 151.278 3.7522 160.581 4.13978C162.365 4.26165 162.651 4.69581 163.686 5.99447C164.722 7.29313 165.503 8.10051 163.403 7.94246C154.718 7.29298 145.996 7.31909 137.315 8.02053L135.967 8.13859C133.564 8.35757 131.073 8.6432 128.79 8.95739C124.921 12.6706 119.319 18.2061 117.365 20.1921L135.853 9.4582C136.86 8.79744 137.186 8.80125 138.353 10.1037C138.561 10.2882 138.728 10.5133 138.845 10.7652C138.962 11.0172 139.026 11.2904 139.033 11.568C138.977 11.8988 138.847 12.2126 138.652 12.4859C138.091 13.1127 137.491 13.7041 136.856 14.2568C139.802 12.3442 142.874 10.6347 146.052 9.1402C146.693 8.93645 146.916 8.93073 147.88 9.90187C148.843 10.873 148.817 11.0672 147.969 12.5811C147.152 14.0416 143.94 18.4574 142.896 19.8513C143.334 19.6818 145.385 18.9716 147.019 18.3679L147.566 16.8922C149.196 13.219 152.833 9.02975 158.229 9.02975C160.866 9.02975 163.028 9.98185 163.028 12.8629C163.028 15.1479 155.933 18.0614 151.336 19.5866C151.224 19.9935 151.224 20.4232 151.336 20.8301C151.623 21.2813 152.322 21.0205 153.331 20.6015C154.954 19.9294 161.95 16.4523 165.305 14.5215L165.126 14.232C163.928 11.4424 166.288 9.04308 172.335 9.04308C173.512 9.04648 174.68 9.25194 175.788 9.65052C176.717 10.0542 176.704 10.0713 176.883 11.2177C177.094 12.562 176.671 13.0057 175.47 12.7963C174.245 12.6566 173.011 12.6082 171.779 12.6515C168.912 12.6515 168.62 13.5579 171.208 15.6659C173.365 14.7842 176.115 13.9521 178.225 13.3104C178.211 13.1189 178.225 12.9265 178.267 12.7391C178.823 10.3246 181.932 8.7803 185.465 9.06022C191.301 9.52294 191.347 9.66004 191.631 10.6369C191.751 11.0493 191.848 11.4683 191.92 11.8918C192.032 12.5182 192.084 12.5182 191.571 12.6382M152.235 16.5456C158.73 13.914 161.904 12.0365 159.547 11.57C157.483 11.1644 154.07 13.8245 152.235 16.5456ZM169.31 18.7164C167.276 19.8304 163.94 21.4622 162.205 22.5648C168.489 23.077 170.869 20.3921 169.31 18.7164ZM99.9968 14.7671C101.52 14.828 101.478 14.2929 100.72 12.3259C100.063 10.6121 99.894 10.4827 98.9533 10.4903C97.1177 10.5036 94.6689 10.6121 91.9725 10.8197C93.7417 9.09468 95.5969 7.46007 97.5309 5.92211L100.031 4.18929C106.938 3.6511 113.876 3.62373 120.787 4.10741C122.881 4.26546 122.105 3.45998 121.071 2.15942C120.037 0.858851 119.749 0.426599 117.965 0.304731C113.328 0.0190061 108.679 -0.019132 104.038 0.190479C97.8108 0.72175 91.8012 1.57292 85.7573 2.64499C83.8835 2.98013 84.1692 3.31907 84.8909 4.77388C85.0605 5.14255 85.2831 5.48447 85.5516 5.78881C85.7245 5.97914 85.9474 6.11702 86.1948 6.18672C86.4423 6.25642 86.7044 6.25512 86.9512 6.18298C88.2346 5.99256 89.6171 5.74121 91.0985 5.47843L91.367 5.42702C90.3007 6.33532 89.3352 7.27028 89.3352 7.27028C87.8595 8.5499 86.2695 10.0237 84.6471 11.608C82.9333 11.8442 81.2443 12.1241 79.6505 12.4459C78.0567 12.7677 78.209 12.8915 78.7612 14.47C79.2278 15.803 79.5096 16.1838 80.3836 15.9077L80.3969 15.9267C77.2404 19.2172 74.2721 22.6833 71.5063 26.3084C70.6856 27.4129 70.5542 27.9822 71.2892 29.993C72.1575 32.3771 72.4964 32.4875 73.5247 31.1527C76.5048 27.291 82.1926 20.7596 87.7548 15.0318C91.8269 14.7057 95.9146 14.6198 99.9968 14.7747M115.394 4.63297C113.715 5.14042 112.089 5.80805 110.538 6.62666C109.655 7.04558 109.621 7.37882 109.655 8.11003C109.676 8.56513 109.72 9.7305 111.578 9.29253C114.888 8.51181 114.672 8.57656 116.03 8.20143C117.388 7.8263 117.477 7.67397 117.237 5.81928C117.058 4.43874 116.685 4.2864 115.402 4.63106" fill="white"/>
</g>
</g>
<defs>
<clipPath id="clip0_12970_476">
<rect width="191.998" height="32" fill="white"/>
</clipPath>
</defs>
</svg>
