<svg width="90" height="64" viewBox="0 0 90 64" fill="none" xmlns="http://www.w3.org/2000/svg">
<g clip-path="url(#clip0_12970_484)">
<path d="M0 0V64H89.6V0H0ZM57.0084 30.66C56.3251 31.4958 55.0704 32.0456 54.1042 32.5003C51.2595 33.8391 48.154 33.5544 45.0689 33.5544C42.4168 33.5544 39.6737 33.7998 37.1092 33.0899C34.5454 32.3801 32.3365 30.5105 30.4403 28.7303L13.6605 10.8275C16.8998 10.8275 20.6503 10.3264 23.6639 11.703C26.2429 12.881 28.3433 14.848 30.3328 16.8308C31.9206 18.4133 33.5546 19.9869 35.0656 21.6549C37.4881 24.3294 40.0047 27.0292 43.1328 28.8911C44.6263 29.78 46.4674 30.3861 48.1882 30.5528C49.6623 30.6956 51.2239 30.5528 52.7059 30.5528H55.5025C55.9956 30.5528 56.5605 30.472 57.0084 30.66ZM76.1546 10.8275L58.9445 29.1055L50.2319 29.1591C49.142 29.1591 47.9094 29.2621 46.8975 28.8375C47.4256 28.0959 48.6426 27.5645 49.3714 26.9794C50.9139 25.741 52.3027 24.2603 53.674 22.8342C56.0965 20.3148 58.3828 17.6742 60.9882 15.33C62.9309 13.582 65.0603 11.8319 67.6571 11.1848C70.3635 10.5105 73.3702 10.8275 76.1546 10.8275ZM75.079 38.6109C75.8359 38.4956 76.6788 38.593 77.4454 38.593C79.6665 38.593 82.5683 38.4451 84.0785 40.4154C85.0031 41.6218 85.1564 43.0423 85.2975 44.4891C85.4271 45.8175 85.4271 47.1273 85.2975 48.4556C85.1375 50.0953 84.976 51.8523 83.684 53.0653C82.81 53.886 81.4088 54.2387 80.242 54.3518C78.6419 54.5068 77.0003 54.5067 75.4017 54.3518C73.6598 54.183 72.0302 54.0423 70.7765 52.6365C70.0723 51.847 69.8743 50.7434 69.665 49.742C69.4517 48.7219 69.4857 47.6784 69.4857 46.6332C69.4857 44.4578 69.4007 41.8023 71.0096 40.0938C72.0434 38.9958 73.6839 38.8232 75.079 38.6109ZM9.35798 44.8107L17.2639 44.8286L17.3176 47.9196H9.25042C9.25042 48.6186 9.03088 49.7812 9.50139 50.3674C10.0028 50.9921 11.0254 50.8141 11.7244 50.8141H17.5328V54.2446H8.82016C7.86546 54.2446 6.34814 54.3491 5.55909 53.6937C4.65246 52.9407 4.84034 51.742 4.84034 50.7069V42.3451C4.84034 41.2706 4.57245 39.774 5.59328 39.0575C6.35956 38.5196 7.50385 38.7002 8.38992 38.7002L17.4594 38.6459L17.4072 42.1843L11.4017 42.2379C10.8719 42.2379 10.1221 42.1058 9.68068 42.4702C9.07067 42.9736 9.16147 44.1341 9.35798 44.8107ZM31.9462 50.7069V54.2446H22.9109C21.8341 54.2446 20.3154 54.5306 19.6123 53.4941C19.0041 52.5975 19.2538 51.0857 19.2538 50.0637L19.2993 38.6725L23.7845 38.7261L23.7714 47.7052L23.8039 50.0326C23.8154 50.8548 25.4201 50.7069 26.1378 50.7069H31.9462ZM46.037 38.7002V42.2379L38.7227 42.2736C37.9459 42.4563 37.7546 43.1287 37.7546 43.8459C37.7546 44.1488 37.7061 44.4702 37.9697 44.6856L45.7681 44.8464L45.8218 47.9196H37.7546C37.7546 48.6223 37.549 49.8328 38.0773 50.3853C38.6389 50.9725 39.6045 50.8141 40.3361 50.8141H46.1445V54.2446H37.6471C36.6747 54.2446 35.0206 54.3612 34.1773 53.8009C33.1065 53.0894 33.3445 51.9174 33.3445 50.8141V42.3451C33.3445 41.2503 33.0743 39.6984 34.2051 39.0397C35.2248 38.4455 36.7202 38.7002 37.8622 38.7002H46.037ZM52.2756 38.7002V54.2446L47.8411 54.2479L47.8655 38.7002H52.2756ZM58.5143 38.7002L58.5566 44.7508L59.8216 44.7669L63.8924 38.7538L69.0555 38.8074L64.986 44.0603C64.5159 44.6851 63.6349 45.4457 63.6953 46.3116C63.7554 47.1752 64.7607 48.0363 65.2728 48.67L69.8084 54.2446L64.458 54.2024C62.8829 52.1075 61.209 49.7324 59.8115 47.9179L58.5143 47.9196L58.4605 54.2089L54.1075 54.2203C54.1005 49.0469 54.1042 43.8735 54.1042 38.7002L58.5143 38.7002ZM76.5849 42.1664C75.8977 42.3281 75.1108 42.5996 74.6846 43.2027C74.3062 43.7383 74.1727 44.3923 74.111 45.0251C73.9561 46.6133 73.6747 49.0795 75.079 50.2424C75.9021 50.9238 77.5116 50.9879 78.521 50.7784C80.4572 50.3764 80.7799 48.5431 80.7799 46.8476C80.7799 45.6068 80.9277 43.6822 79.8118 42.8096C79.463 42.5368 79.0433 42.4241 78.6286 42.3094C78.2872 42.2148 78.0195 42.1306 77.6605 42.1306C77.3109 42.1306 76.9271 42.0858 76.5849 42.1664Z" fill="white"/>
</g>
<defs>
<clipPath id="clip0_12970_484">
<rect width="89.6" height="64" fill="white"/>
</clipPath>
</defs>
</svg>
