<svg width="124" height="64" viewBox="0 0 124 64" fill="none" xmlns="http://www.w3.org/2000/svg">
<path d="M0.135996 49.6765C0.0453319 49.2231 0 48.8152 0 48.4072V48.0898H1.17863V48.4072C1.17863 48.6338 1.22396 48.8152 1.22396 49.0418L1.72261 52.215L2.49325 49.1325H3.03724L3.80788 52.1697L4.30653 48.9965C4.35186 48.7698 4.35186 48.5885 4.39719 48.3618V48.0898H5.53049V48.4072C5.53049 48.8152 5.48516 49.2685 5.3945 49.6765L4.57852 54.7083H3.49056L2.76525 51.9431L2.03994 54.7083H0.95197L0.135996 49.6765Z" fill="white"/>
<path d="M6.25586 53.1248V51.4929C6.25586 50.6316 6.98117 49.9062 7.84248 49.9062H8.83978C9.70108 49.9062 10.4264 50.5862 10.4717 51.4929V53.1248C10.4717 53.9861 9.74642 54.7114 8.88511 54.7114C8.88511 54.7114 8.88511 54.7114 8.83978 54.7114H7.84248C6.98117 54.7568 6.30119 54.0315 6.25586 53.1248C6.25586 53.1701 6.25586 53.1701 6.25586 53.1248ZM8.93044 53.6688C9.1571 53.6688 9.38376 53.4875 9.38376 53.2608C9.38376 53.2608 9.38376 53.2608 9.38376 53.2155V51.4022C9.38376 51.1755 9.20243 50.9489 8.97577 50.9489C8.97577 50.9489 8.97577 50.9489 8.93044 50.9489H7.79714C7.57048 50.9489 7.34383 51.1302 7.34383 51.3569C7.34383 51.3569 7.34383 51.3569 7.34383 51.4022V53.2155C7.34383 53.4421 7.52515 53.6688 7.75181 53.6688C7.75181 53.6688 7.75181 53.6688 7.79714 53.6688H8.93044Z" fill="white"/>
<path d="M11.7412 49.9522H12.8292V50.4055C13.0105 50.0882 13.3732 49.9069 13.7358 49.9522H14.3705V50.9948H13.5545C13.2372 50.9948 12.9652 51.2215 12.9652 51.7202V54.7121H11.7412V49.9522Z" fill="white"/>
<path d="M15.0498 53.6657H16.0471V49.1778H15.1858V48.0898H17.2257V53.6203H17.9964V54.663H15.0498V53.6657Z" fill="white"/>
<path d="M18.9033 53.3483V51.2631C18.9033 50.4924 19.4926 49.9031 20.2633 49.9031H21.1246C21.4419 49.9031 21.7139 50.0391 21.8952 50.2658V48.0898H23.1192V54.7083H21.9859V54.255C21.8046 54.5723 21.4419 54.7536 21.0793 54.7536H20.2633C19.4926 54.7536 18.9033 54.119 18.9033 53.3483ZM21.3059 53.6657C21.6232 53.6657 21.8952 53.439 21.8952 52.9404V51.5804C21.8952 51.1271 21.7592 50.9458 21.2152 50.9458H20.5806C20.2633 50.9458 19.9913 51.1724 19.9913 51.6257V52.9857C19.9913 53.439 20.1273 53.6657 20.6713 53.6657H21.3059Z" fill="white"/>
<path d="M24.4792 51.5397C24.3432 51.1771 24.2979 50.7238 24.2979 50.3158V49.9531H25.4311V50.4971C25.4311 50.6331 25.4312 50.8144 25.4765 50.9504L25.8845 52.809L26.7458 50.4064H27.3351L28.1964 52.809L28.6044 50.9504C28.6497 50.8144 28.6497 50.6331 28.6497 50.4971V49.9985H29.783V50.3611C29.783 50.7691 29.7377 51.1771 29.6017 51.5851L28.831 54.7583H27.8337L27.0178 52.7184L26.2018 54.7583H25.2045L24.4792 51.5397Z" fill="white"/>
<path d="M30.6895 53.6689H31.6868V50.9943H30.8255V49.9516H32.8654V53.6689H33.6814V54.7115H30.7348V53.6689H30.6895ZM31.6414 48.9543V48.1384C31.6414 48.0477 31.7321 47.957 31.8228 47.957H32.6841C32.7747 47.957 32.8654 48.0477 32.8654 48.1384V48.9543C32.8654 49.045 32.7747 49.1357 32.6841 49.1357H31.8228C31.7321 49.1357 31.6414 49.045 31.6414 48.9543Z" fill="white"/>
<path d="M34.498 53.3483V51.2631C34.498 50.4924 35.0874 49.9031 35.858 49.9031H36.7193C37.0366 49.9031 37.3086 50.0391 37.49 50.2658V48.0898H38.7139V54.7083H37.6259V54.255C37.4446 54.5723 37.082 54.7536 36.7193 54.7536H35.9033C35.0874 54.7536 34.498 54.119 34.498 53.3483ZM36.946 53.6657C37.2633 53.6657 37.5353 53.439 37.5353 52.9404V51.5804C37.5353 51.1271 37.3993 50.9458 36.8553 50.9458H36.266C35.9487 50.9458 35.6767 51.1724 35.6767 51.6257V52.9857C35.6767 53.439 35.8127 53.6657 36.3567 53.6657H36.946Z" fill="white"/>
<path d="M40.0283 53.1248V51.5382C40.0283 50.6769 40.7083 49.9516 41.6149 49.9062C41.6149 49.9062 41.6149 49.9062 41.6603 49.9062H42.7029C43.5642 49.9062 44.2442 50.6316 44.2442 51.4475C44.2442 51.4929 44.2442 51.4929 44.2442 51.5382V52.5355C44.2442 52.6715 44.1082 52.8075 43.9722 52.8075H41.1616V53.2155C41.1616 53.4875 41.3429 53.6688 41.6149 53.6688H42.7029C42.9749 53.6688 43.0656 53.5328 43.1562 53.2608L43.2016 53.1701L44.2442 53.3968C44.1082 54.1674 43.4282 54.7114 42.6576 54.7568H41.7056C40.7536 54.7568 40.0283 54.0315 40.0283 53.1248ZM43.1109 51.7649V51.4475C43.1109 51.1755 43.0202 50.9942 42.7482 50.9942H41.5696C41.3429 50.9942 41.1163 51.1755 41.1616 51.4475V51.7649H43.1109Z" fill="white"/>
<path d="M48.1426 48.0898H52.9024V49.2685H49.3665V50.6738H52.0865V51.8977H49.3665V54.663H48.1426V48.0898Z" fill="white"/>
<path d="M53.3555 53.6689H54.3528V50.9943H53.4915V49.9516H55.5314V53.6689H56.3474V54.7115H53.4008V53.6689H53.3555ZM54.3074 48.9543V48.1384C54.3074 48.0477 54.3981 47.957 54.4888 47.957H55.3501C55.4407 47.957 55.5314 48.0477 55.5314 48.1384V48.9543C55.5314 49.045 55.4407 49.1357 55.3501 49.1357H54.4888C54.3981 49.1357 54.3074 49.045 54.3074 48.9543Z" fill="white"/>
<path d="M57.4812 53.5764V51.1285H56.7559V50.0859H57.4812V48.6806L58.7051 48.3633V50.0859H59.6118V51.1285H58.7051V53.3951C58.7051 53.6218 58.7958 53.6218 58.9318 53.6218H59.6571V54.6644H58.7505C57.9345 54.7097 57.4812 54.3924 57.4812 53.5764Z" fill="white"/>
<path d="M60.835 49.9522H61.9683V50.4055C62.1496 50.0882 62.5122 49.9069 62.8749 49.9522H63.6002C64.3709 49.9522 64.9602 50.5415 64.9602 51.3122V54.7574H63.7815V51.7202C63.7815 51.2668 63.6455 50.9948 63.1016 50.9948H62.6482C62.3309 50.9948 62.0589 51.3122 62.0589 51.7655V54.7574H60.835V49.9522Z" fill="white"/>
<path d="M66.1396 53.1248V51.5382C66.1396 50.6769 66.8196 49.9516 67.7263 49.9062C67.7263 49.9062 67.7263 49.9062 67.7716 49.9062H68.8142C69.6755 49.9062 70.3555 50.5862 70.3555 51.4475C70.3555 51.4929 70.3555 51.4929 70.3555 51.5382V52.5355C70.3555 52.6715 70.2195 52.8075 70.0835 52.8075H67.2729V53.2155C67.2729 53.4875 67.4543 53.6688 67.7263 53.6688H68.8142C69.0862 53.6688 69.1769 53.5328 69.2676 53.2608L69.3129 53.1701L70.3555 53.3968C70.2195 54.1674 69.5395 54.7114 68.7689 54.7568H67.7716C66.865 54.7568 66.1396 54.0315 66.1396 53.1248ZM69.2222 51.7649V51.4475C69.2222 51.1755 69.1316 50.9942 68.8596 50.9942H67.6809C67.4543 50.9942 67.2276 51.1755 67.2729 51.4475V51.7649H69.2222Z" fill="white"/>
<path d="M71.4434 53.3515L72.486 53.0795C72.5313 53.3515 72.622 53.6688 72.894 53.6688H74.0273C74.2086 53.6688 74.3899 53.5328 74.3899 53.3515V53.2608C74.3899 53.0795 74.2539 52.9435 74.1179 52.8982L72.758 52.6715C72.078 52.6262 71.534 52.0822 71.5793 51.3569V51.2662C71.5793 50.4956 72.214 49.9062 72.9393 49.9062C72.9846 49.9062 73.03 49.9062 73.0753 49.9062H74.0726C74.7979 49.9062 75.4326 50.4502 75.4779 51.1755L74.4353 51.4475C74.4353 51.4475 74.3899 50.9942 74.1179 50.9942H72.9846C72.6673 50.9942 72.622 51.1302 72.622 51.3115V51.4022C72.622 51.5382 72.6673 51.6289 72.894 51.6742L74.3899 51.9462C75.0699 52.0368 75.5686 52.6262 75.5232 53.3061V53.4421C75.5232 54.1674 74.9339 54.8021 74.2086 54.8021C74.1633 54.8021 74.1179 54.8021 74.0726 54.8021H72.9846C72.1687 54.7568 71.534 54.1674 71.4434 53.3515Z" fill="white"/>
<path d="M76.5205 53.3515L77.5631 53.0795C77.6085 53.3515 77.6991 53.6688 77.9711 53.6688H79.1044C79.2858 53.6688 79.4671 53.5328 79.4671 53.3515V53.2608C79.4671 53.0795 79.3311 52.9435 79.1951 52.8982L77.8351 52.6715C77.1552 52.6262 76.6112 52.0822 76.6565 51.3569V51.2662C76.6565 50.4956 77.2912 49.9062 78.0165 49.9062C78.0618 49.9062 78.1071 49.9062 78.1525 49.9062H79.1498C79.8751 49.9062 80.5097 50.4502 80.555 51.1755L79.5124 51.4475C79.5124 51.4475 79.4671 50.9942 79.1951 50.9942H78.1071C77.7898 50.9942 77.7445 51.1302 77.7445 51.3115V51.4022C77.7445 51.5382 77.7898 51.6289 78.0165 51.6742L79.5124 51.9462C80.1924 52.0368 80.691 52.6262 80.6457 53.3061V53.4421C80.6457 54.1674 80.0564 54.8021 79.3311 54.8021C79.2858 54.8021 79.2404 54.8021 79.1498 54.8021H78.1071C77.2458 54.7568 76.5658 54.1674 76.5205 53.3515Z" fill="white"/>
<path d="M84.3623 52.9404V49.8578C84.3623 48.9058 85.1329 48.0898 86.1302 48.0898H87.3542C88.2608 48.0898 88.9862 48.7698 89.1222 49.6311L87.9889 49.9485L87.9435 49.7671C87.8529 49.4498 87.7169 49.3138 87.4449 49.3138H86.0849C85.8129 49.3138 85.5863 49.5405 85.5863 49.8125V52.9857C85.5863 53.2577 85.8129 53.4843 86.0849 53.4843H87.3995C87.6715 53.4843 87.8529 53.3483 87.8982 53.031L87.9435 52.8497L89.0768 53.167C88.9862 54.0737 88.2155 54.7083 87.3542 54.7083H86.1302C85.1783 54.7083 84.4076 53.9377 84.3623 52.9404Z" fill="white"/>
<path d="M90.1201 53.1248V51.4929C90.1201 50.6316 90.8454 49.9062 91.7067 49.9062H92.704C93.5653 49.9062 94.2907 50.5862 94.336 51.4929V53.1248C94.336 53.9861 93.6107 54.7114 92.7494 54.7114C92.7494 54.7114 92.7494 54.7114 92.704 54.7114H91.7067C90.8454 54.7568 90.1201 54.0315 90.1201 53.1248C90.1201 53.1701 90.1201 53.1701 90.1201 53.1248ZM92.7947 53.6688C93.0214 53.6688 93.248 53.4875 93.248 53.2608C93.248 53.2608 93.248 53.2608 93.248 53.2155V51.4022C93.248 51.1755 93.0667 50.9489 92.84 50.9489C92.84 50.9489 92.84 50.9489 92.7947 50.9489H91.6614C91.4347 50.9489 91.2081 51.1302 91.2081 51.3569C91.2081 51.3569 91.2081 51.3569 91.2081 51.4022V53.2155C91.2081 53.4421 91.3894 53.6688 91.6161 53.6688C91.6161 53.6688 91.6161 53.6688 91.6614 53.6688H92.7947Z" fill="white"/>
<path d="M95.6045 49.9516H96.6925V50.4502C96.9645 50.0876 97.3271 49.9062 97.7804 49.9062H97.9618C98.3697 49.9062 98.7324 50.0876 98.9591 50.4502C99.231 50.1329 99.639 49.9062 100.092 49.9062H100.364C101.135 49.9062 101.724 50.5409 101.724 51.2662V54.6661H100.546V51.7195C100.546 51.2662 100.41 50.9942 99.8657 50.9942C99.5484 50.9942 99.2764 51.3115 99.2764 51.7649V54.7568H98.0977V51.7195C98.0977 51.2662 97.9618 50.9942 97.4178 50.9942C97.1004 50.9942 96.8285 51.3115 96.8285 51.7649V54.7568H95.6498L95.6045 49.9516Z" fill="white"/>
<path d="M103.13 49.9522H104.263V50.4055C104.445 50.0882 104.807 49.9069 105.17 49.9522H105.986C106.756 49.9522 107.346 50.5415 107.346 51.3122V53.3974C107.346 54.1681 106.756 54.7574 105.986 54.7574H105.124C104.807 54.7574 104.535 54.6214 104.354 54.3947V56.5707H103.13V49.9522ZM105.578 53.6694C105.895 53.6694 106.167 53.4428 106.167 52.9894V51.6295C106.167 51.1762 106.031 50.9495 105.487 50.9495H104.898C104.581 50.9495 104.309 51.1762 104.309 51.6748V53.0348C104.309 53.4881 104.445 53.6694 104.988 53.6694H105.578Z" fill="white"/>
<path d="M108.389 53.3061C108.343 52.6262 108.842 52.0368 109.522 51.9009L111.109 51.6289C111.29 51.6289 111.426 51.4475 111.381 51.2662C111.381 51.1302 111.29 50.9942 111.018 50.9942H109.93C109.613 50.9942 109.613 51.4475 109.613 51.4475L108.57 51.1755C108.615 50.4502 109.25 49.9062 109.975 49.9062H111.199C111.924 49.9062 112.514 50.4502 112.514 51.1755C112.514 51.2209 112.514 51.2662 112.514 51.3115V54.7114H111.381V54.2581C111.199 54.5754 110.837 54.7568 110.474 54.7568H109.93C109.159 54.8021 108.525 54.2581 108.434 53.4875C108.389 53.3968 108.389 53.3515 108.389 53.3061ZM110.791 53.6688C111.109 53.6688 111.335 53.5328 111.335 53.0342V52.5355C111.245 52.5808 111.154 52.6262 111.063 52.6262L109.839 52.8528C109.658 52.8982 109.567 53.0342 109.567 53.2155C109.567 53.4421 109.703 53.6235 109.93 53.6235H110.791V53.6688Z" fill="white"/>
<path d="M113.874 49.9522H115.007V50.4055C115.189 50.0882 115.551 49.9069 115.914 49.9522H116.639C117.41 49.9522 117.999 50.5415 117.999 51.3122V54.7574H116.821V51.7202C116.821 51.2668 116.685 50.9948 116.141 50.9948H115.687C115.37 50.9948 115.098 51.3122 115.098 51.7655V54.7574H113.874V49.9522Z" fill="white"/>
<path d="M119.269 55.6181H119.767C120.084 55.6181 120.175 55.3914 120.266 55.1647L120.538 54.4848L119.087 51.3115C118.997 51.1302 118.951 50.9489 118.951 50.7222V49.9062H120.13V50.4502C120.13 50.5409 120.13 50.6316 120.175 50.7222L121.127 53.0795L122.079 50.7222C122.124 50.6316 122.124 50.5409 122.124 50.4502V49.9062H123.303V50.7222C123.303 50.9036 123.258 51.1302 123.167 51.3115L121.308 55.5727C121.036 56.1621 120.764 56.6607 120.175 56.6607H119.314L119.269 55.6181Z" fill="white"/>
<path d="M61.6514 7.33984C15.7302 7.33984 0 23.0247 0 23.0247C0 23.0247 15.7302 38.7095 61.6514 38.7095C107.573 38.7095 123.303 23.0247 123.303 23.0247C123.303 23.0247 107.573 7.33984 61.6514 7.33984ZM102.495 24.702H99.0502L100.773 20.3501L102.495 24.702ZM113.239 23.0247C113.239 23.0247 111.607 24.6566 107.754 26.7872L103.674 17.2675C110.428 20.2594 113.239 23.0247 113.239 23.0247ZM23.8899 18.9448C25.4312 18.9448 26.3378 19.6701 26.3378 20.9394V20.9847C26.3378 22.2087 25.4312 22.9793 23.8899 22.9793H21.7593V18.9448H23.8899ZM17.4981 18.2195V27.7845C12.2849 25.2006 10.0637 22.9793 10.0637 22.9793C10.0637 22.9793 12.2849 20.8487 17.4981 18.2195ZM21.7593 29.7338V26.3339H24.0259C27.8338 26.3339 30.6444 24.43 30.6444 20.8034V20.7581C30.6444 17.4035 28.1964 15.4089 24.3886 15.3636C32.5483 12.5077 44.6066 9.87843 61.6514 9.87843C78.6962 9.87843 90.6184 12.417 98.7782 15.2729L92.2504 30.7311H96.7383L97.8262 28.0112H103.765L104.037 28.6458C96.1036 32.2271 82.64 36.1709 61.6514 36.1709C42.7026 36.1709 29.8737 32.9524 21.7593 29.7338Z" fill="white"/>
<path d="M65.2782 15.3203L59.4304 29.1012V15.3203H55.2146V23.5254L48.9134 15.3203H44.9242V29.1012L39.1217 15.3203H34.9965L28.4688 30.7785H32.9566L34.0446 28.0586H39.9831L41.1163 30.7785H49.1854V22.3468L55.7586 30.7785H63.2383L64.3263 28.0586H70.2648L71.3981 30.7785H75.9766L69.3581 15.3203H65.2782ZM35.3139 24.704L37.0365 20.3522L38.7591 24.704H35.3139ZM65.5502 24.704L67.2729 20.3522L68.9955 24.704H65.5502Z" fill="white"/>
<path d="M95.2422 15.3203H72.8936V19.0375H77.5174V30.7785H81.7786V19.0375H86.4025V30.7785H90.6637V19.0375H95.2875L95.2422 15.3203Z" fill="white"/>
</svg>
