<svg width="63" height="63" viewBox="0 0 63 63" fill="none" xmlns="http://www.w3.org/2000/svg">
<path d="M42.1826 6.95638C42.8997 5.72345 44.4806 5.30534 45.7139 6.02248C53.9908 10.8357 59.9135 20.4682 59.9135 31.5018C59.9135 42.5354 53.9909 52.1675 45.7139 56.9811C44.4806 57.6982 42.8997 57.2801 42.1826 56.0467C41.4655 54.8138 41.8836 53.2325 43.117 52.5154C49.7923 48.6331 54.7474 40.7087 54.7474 31.5014C54.7474 22.2942 49.7923 14.3696 43.117 10.4875C41.8837 9.77038 41.4655 8.18899 42.1826 6.95569V6.95638Z" fill="white"/>
<path d="M42.8347 19.1262C43.9628 18.2533 45.585 18.46 46.4583 19.5881C48.4553 22.1693 49.5811 26.7417 49.5811 31.501C49.5811 36.2603 48.4554 40.8324 46.4583 43.4134C45.5849 44.542 43.9628 44.7487 42.8347 43.8758C41.7061 43.0025 41.4994 41.3808 42.3723 40.2522C43.3658 38.9683 44.4151 35.7379 44.4151 31.501C44.4151 27.2641 43.3658 24.0331 42.3723 22.7498C41.4994 21.6212 41.7061 19.9991 42.8347 19.1262Z" fill="white"/>
<path fill-rule="evenodd" clip-rule="evenodd" d="M36.6656 10.8369C36.6656 9.8275 36.0772 8.91045 35.1597 8.48938C34.2421 8.06833 33.1635 8.22022 32.3979 8.87871L19.7795 19.7338H8.25292C6.82632 19.7338 5.66992 20.8902 5.66992 22.3168V40.6852C5.66992 42.1118 6.82637 43.2682 8.25292 43.2682H19.7795L32.3979 54.1233C33.1636 54.7818 34.2421 54.9342 35.1597 54.5131C36.0773 54.0921 36.6656 53.175 36.6656 52.1651V10.8369ZM22.4216 24.2748L31.4997 16.4661V46.5363L22.4216 38.7272C21.953 38.3239 21.3551 38.1023 20.737 38.1023H10.8356V24.9006H20.737C21.3551 24.9006 21.9531 24.679 22.4216 24.2758V24.2748Z" fill="white"/>
</svg>
