<svg width="31" height="87" viewBox="0 0 31 87" fill="none" xmlns="http://www.w3.org/2000/svg">
<g clip-path="url(#clip0_9690_1651)">
<path d="M27.3907 0.975881C27.412 1.53689 26.9797 2.01046 26.4213 2.03191L25.8744 2.05336L25.3537 2.09626L24.8363 2.15896L24.3238 2.23981L23.8178 2.34046L23.3151 2.46092L22.8157 2.59952L22.3228 2.75462L21.8332 2.92953L21.3486 3.11928L20.8688 3.32554L20.4054 3.54334L19.454 4.04L18.5371 4.58947L17.6381 5.19668L16.7588 5.85175L15.9024 6.55301L15.0673 7.29883L14.2535 8.0793L13.4643 8.89442L12.6996 9.73924L11.9578 10.6072L11.2423 11.4949L10.5529 12.3975L9.88812 13.3116L9.25116 14.2306L8.64203 15.1514L8.05747 16.0688L7.50238 16.978L6.97676 17.8739L6.56903 18.6L6.18096 19.3276L5.81254 20.0586L5.46049 20.7912L5.12809 21.5255L4.8137 22.263L4.51732 23.0023L4.23896 23.7431L3.97861 24.4873L3.73463 25.2331L3.50866 25.9789L3.30234 26.7231L3.11731 27.4805L2.93392 28.223L2.63263 29.7361L2.40011 31.2492L2.22655 32.7655L2.11684 34.2819L2.07099 35.8016L2.08081 37.3213L2.15122 38.8393L2.28058 40.3574L2.4607 41.8738L2.69813 43.3852L2.98959 44.8933L3.33018 46.3965L3.72316 47.8915L4.16855 49.3847L4.41253 50.1207L4.6565 50.8599L4.92504 51.5942L5.19358 52.3284L5.48505 53.0577L5.77651 53.7887L6.08926 54.5131L6.40038 55.2374L6.73441 55.9536L7.06845 56.6713L7.42378 57.3808L7.7791 58.092L8.15407 58.7949L8.52741 59.4978L8.92203 60.1909L9.31502 60.8855L9.72765 61.5703L10.1419 62.2567L10.5726 62.9332L11.0016 63.6097L11.4486 64.2764L11.8956 64.943L12.3607 65.598L12.8257 66.2548L13.3055 66.9016L13.7836 67.5467L14.2781 68.1803L14.7726 68.814L15.2818 69.4344L15.7927 70.0564L16.3151 70.667L16.8374 71.2758L17.3729 71.8715L17.9083 72.4671L18.4568 73.048L19.0054 73.6304L19.5654 74.1997L20.1238 74.7673L20.6936 75.3201L21.2634 75.8728L21.8447 76.4091L22.426 76.947L23.0171 77.4701L23.6066 77.9915L24.2059 78.4964L24.8003 78.998L26.0185 79.9765L27.2466 80.9187L28.4878 81.8229L28.5287 81.8509L28.3732 81.5011L28.0539 80.7751L27.8852 80.4187L27.7084 80.0441L27.5332 79.6679L27.3612 79.2917L27.1975 78.9155L27.0468 78.5409L26.9109 78.168L26.7947 77.7935L26.7046 77.4189L26.644 77.0378L26.626 76.6385L26.6571 76.3167C26.7161 75.7573 27.2122 75.3531 27.7673 75.4125C28.3224 75.4719 28.7236 75.9735 28.6646 76.5312L28.645 76.6929L28.6515 76.8233L28.6826 77.0147L28.7383 77.2473L28.8218 77.5113L28.9299 77.8067L29.0576 78.1235L29.2034 78.4584L29.3638 78.8083L29.5341 79.1696L29.711 79.5392L29.8976 79.9303L30.2268 80.6728L30.587 81.4929L30.9783 82.8657L31.0029 83.3129L30.9996 83.3294L30.9947 83.3607L30.9865 83.4086L30.9767 83.4729L30.9636 83.5521L30.9489 83.6478L30.9309 83.76L30.9096 83.8887L30.8916 84.0042L30.8752 84.1049L30.8604 84.1923L30.8473 84.2682L30.8342 84.3359L30.8179 84.4085L30.7655 84.5702L30.4576 84.9827L30.4544 84.9827L30.4527 84.9877L30.4494 84.9877L30.4478 84.9877L30.1907 85.1395L30.0777 85.184L29.9271 85.2302L29.7797 85.2665L29.6176 85.3012L29.4391 85.3358L29.2427 85.3721L29.0265 85.4084L28.7907 85.4464L28.5386 85.486L28.2667 85.5272L27.9769 85.5701L27.3596 85.6576L26.685 85.7483L25.9661 85.8424L25.2162 85.9381L24.44 86.0354L23.6475 86.1328L22.8517 86.2285L22.0559 86.3242L20.5184 86.5024L19.1216 86.6624L18.4929 86.735L17.9296 86.801L17.4416 86.8588L17.2271 86.8852L17.0355 86.9083L16.8685 86.9298L16.7244 86.9479L16.6098 86.9627L16.5198 86.976C15.9368 87.0584 15.3981 86.6492 15.3162 86.0618C15.2344 85.4744 15.6404 84.9315 16.2234 84.849L16.3233 84.8342L16.4526 84.8177L16.6049 84.7979L16.7785 84.7764L16.975 84.7534L17.1944 84.7269L17.6856 84.6708L18.2522 84.6065L18.8809 84.5355L20.2777 84.3788L21.8136 84.2055L22.6078 84.1164L23.4019 84.0273L24.1912 83.9366L24.964 83.8458L25.7091 83.7567L26.4213 83.6693L27.0861 83.5851L27.2417 83.5653L25.976 82.6413L24.7086 81.6678L23.4592 80.6629L22.8386 80.1382L22.2213 79.6168L21.6138 79.0772L21.0063 78.5393L20.4087 77.9865L19.8094 77.4321L19.2215 76.8612L18.6337 76.2903L18.0573 75.7045L17.4826 75.1188L16.9176 74.5198L16.3527 73.9192L15.8009 73.3054L15.2491 72.6899L14.7104 72.0612L14.1733 71.4326L13.6493 70.7924L13.1237 70.1505L12.6128 69.4971L12.1019 68.8437L11.6074 68.177L11.1146 67.5121L10.6364 66.8356L10.1567 66.1574L9.6949 65.4693L9.23315 64.7796L8.7894 64.08L8.34729 63.3804L7.92156 62.6725L7.49582 61.963L7.08974 61.2436L6.68365 60.5242L6.29722 59.7948L5.91078 59.0672L5.544 58.3313L5.17721 57.5937L4.83171 56.8495L4.48621 56.1037L4.162 55.3513L3.83942 54.6005L3.53813 53.8432L3.23684 53.0841L2.95848 52.3185L2.68011 51.5529L2.42631 50.7807L2.17251 50.0052L1.71403 48.4574L1.3063 46.8932L0.952617 45.3207L0.649691 43.7416L0.404075 42.1543L0.217407 40.5636L0.0847742 38.968L0.0143644 37.3675L0.00781474 35.767L0.0602129 34.1648L0.178109 32.5609L0.364777 30.9621L0.613668 29.3648L0.932968 27.7775L1.1311 26.9756L1.32595 26.1885L1.54865 25.3915L1.78935 24.6012L2.04806 23.8141L2.32479 23.0287L2.62117 22.2449L2.93556 21.4644L3.26796 20.6856L3.62001 19.9084L3.99171 19.1362L4.38142 18.3673L4.79241 17.6L5.22306 16.8377L5.76669 15.912L6.34143 14.9715L6.94728 14.0227L7.58097 13.069L8.24414 12.1136L8.93841 11.1632L9.65888 10.2211L10.4105 9.29043L11.1915 8.37961L11.9988 7.48859L12.8372 6.62397L13.705 5.79235L14.599 4.99373L15.5242 4.23471L16.4788 3.52519L17.4613 2.86188L18.4765 2.25301L19.5064 1.7151L20.0501 1.45934L20.5904 1.22669L21.1373 1.01218L21.6908 0.815827L22.2524 0.637623L22.8206 0.480869L23.3954 0.343916L23.9783 0.228413L24.5661 0.134361L25.1605 0.0617588L25.7631 0.0122577L26.3509 -0.0108429C26.9077 -0.0339434 27.3776 0.403317 27.3989 0.965981L27.3907 0.975881Z" fill="white"/>
</g>
<defs>
<clipPath id="clip0_9690_1651">
<rect width="87" height="31" fill="white" transform="matrix(-4.37114e-08 1 1 4.37114e-08 3.8029e-06 0)"/>
</clipPath>
</defs>
</svg>
