<svg width="41" height="41" viewBox="0 0 41 41" fill="none" xmlns="http://www.w3.org/2000/svg">
<g clip-path="url(#clip0_3306_6581)">
<path d="M20.5162 10.047C20.1557 10.047 19.7991 10.0654 19.4477 10.1014C19.0964 10.1374 18.7499 10.1907 18.4093 10.2607C18.0687 10.3307 17.7342 10.4174 17.4063 10.5197L16.4441 10.8731L15.5279 11.3154L14.6634 11.8415L13.8556 12.4457L13.1102 13.1228L12.4324 13.8675L11.8276 14.6744L11.3009 15.5381L10.8582 16.4532C10.7252 16.7662 10.6068 17.0871 10.5044 17.4147C10.4019 17.7423 10.3152 18.0767 10.2451 18.4169C10.1749 18.7571 10.1216 19.1032 10.0855 19.4543C10.0494 19.8054 10.0312 20.1616 10.0312 20.5217C10.0312 20.8819 10.0496 21.2381 10.0855 21.5892C10.1212 21.9375 10.1744 22.2838 10.2451 22.6267C10.3152 22.9682 10.4019 23.3013 10.5044 23.6289C10.6068 23.9565 10.725 24.2772 10.8582 24.5904L11.3009 25.5055L11.8276 26.3691L12.4324 27.1761L13.1102 27.9208L13.8556 28.5979L14.6634 29.2021L15.5279 29.7282L16.4441 30.1706L17.4063 30.5239L18.4093 30.7829C18.7525 30.8535 19.0991 30.9067 19.4477 30.9424C19.8027 30.9786 20.1594 30.9967 20.5162 30.9966C20.8768 30.9966 21.2334 30.9782 21.5846 30.9424C21.9332 30.9067 22.2798 30.8535 22.6231 30.7829L23.6262 30.5239L24.5884 30.1706L25.5044 29.7282L26.3691 29.2021L27.1769 28.5979L27.9224 27.9208L28.6002 27.1761L29.205 26.3691L29.7317 25.5055L30.1744 24.5904L30.5282 23.6289C30.6307 23.3013 30.7174 22.9669 30.7875 22.6267L30.9471 21.5891C30.9831 21.238 31.0015 20.8818 31.0015 20.5216C31.0015 20.1615 30.9831 19.8052 30.9471 19.4541C30.9114 19.1059 30.8582 18.7596 30.7875 18.4168C30.7174 18.0753 30.6307 17.7423 30.5282 17.4146L30.1744 16.4531L29.7317 15.538L29.205 14.6743L28.6002 13.8674L27.9224 13.1227L27.1769 12.4456L26.3691 11.8414L25.5044 11.3153L24.5884 10.8729L23.6262 10.5196L22.6231 10.2606L21.5846 10.1013C21.2296 10.065 20.8731 10.0468 20.5162 10.0469V10.047ZM20.5162 13.6625C20.7546 13.6625 20.9899 13.6743 21.2216 13.6977L21.9046 13.8011L22.5643 13.9692L23.1961 14.1987L23.7968 14.4863L24.3616 14.8285L24.8896 15.2221L25.3764 15.6637L25.8184 16.15L26.2124 16.6775L26.555 17.243L26.8426 17.8433C26.929 18.0487 27.0057 18.2593 27.0725 18.4746C27.1392 18.6898 27.1953 18.9098 27.2406 19.1339C27.2859 19.358 27.3194 19.586 27.344 19.8176L27.3792 20.5224C27.3792 20.7605 27.3673 20.9956 27.344 21.2273C27.3206 21.459 27.2862 21.6871 27.2406 21.911C27.195 22.135 27.1388 22.355 27.0725 22.5704L26.8426 23.2016L26.555 23.8019L26.2124 24.3674L25.8184 24.895L25.3764 25.3812L24.8896 25.8228L24.3616 26.2165L23.7968 26.5586L23.1961 26.8463L22.5643 27.0757L21.9046 27.2439L21.2216 27.3471C20.9872 27.3706 20.7517 27.3824 20.5161 27.3823C20.2805 27.3824 20.045 27.3706 19.8105 27.3471L19.1275 27.2439C18.9033 27.1984 18.6831 27.1422 18.4676 27.0757L17.8358 26.8463L17.2352 26.5586L16.6704 26.2165L16.1423 25.8228L15.6556 25.3812L15.2136 24.895L14.8195 24.3674L14.477 23.8019L14.1893 23.2016L13.9595 22.5704L13.7913 21.911L13.688 21.2273C13.6645 20.9931 13.6527 20.7578 13.6528 20.5224C13.6527 20.287 13.6645 20.0518 13.688 19.8176C13.7112 19.586 13.7458 19.3579 13.7913 19.1339C13.8365 18.9115 13.8926 18.6915 13.9596 18.4747L14.1895 17.8434L14.4771 17.2432L14.8197 16.6776L15.2137 16.1501L15.6557 15.6638L16.1425 15.2222L16.6705 14.8286L17.2353 14.4864L17.8359 14.1988C18.0427 14.112 18.2536 14.0354 18.4679 13.9693L19.1278 13.8012C19.352 13.7557 19.5802 13.7211 19.8108 13.6978C20.0452 13.6743 20.2807 13.6626 20.5164 13.6626L20.5162 13.6625Z" fill="url(#paint0_radial_3306_6581)"/>
<path d="M31.4266 7.07031C31.3434 7.07033 31.2602 7.07454 31.1773 7.08292C31.0945 7.09129 31.0121 7.10383 30.9305 7.12049C30.8489 7.13713 30.7682 7.15786 30.6887 7.18261C30.6092 7.20738 30.5309 7.23614 30.4542 7.26878C30.3776 7.30146 30.3026 7.33797 30.2295 7.37819C30.1565 7.41833 30.0854 7.46213 30.0167 7.50941C29.948 7.55674 29.8817 7.60751 29.818 7.66151C29.7543 7.71546 29.6934 7.77258 29.6354 7.83266C29.5774 7.89277 29.5225 7.95576 29.4707 8.0214C29.419 8.08705 29.3705 8.15526 29.3256 8.22578C29.2806 8.29625 29.2392 8.36893 29.2014 8.44356C29.1636 8.51824 29.1296 8.59478 29.0994 8.67289C29.0692 8.75099 29.043 8.83055 29.0207 8.91129C28.9984 8.99202 28.9802 9.07382 28.9661 9.15638C28.9519 9.23892 28.9419 9.32213 28.936 9.40568C28.9318 9.46487 28.9297 9.52419 28.9297 9.58353C28.9297 9.66735 28.9339 9.75112 28.9422 9.83453C28.9505 9.9179 28.9629 10.0008 28.9795 10.0829C28.996 10.165 29.0166 10.2463 29.0412 10.3263C29.0658 10.4064 29.0944 10.4851 29.1268 10.5623C29.1593 10.6395 29.1955 10.7151 29.2355 10.7886C29.2754 10.8622 29.3189 10.9337 29.3659 11.0029C29.4129 11.072 29.4633 11.1387 29.5169 11.2028C29.5706 11.2669 29.6273 11.3283 29.687 11.3867C29.7468 11.445 29.8094 11.5004 29.8746 11.5524C29.9398 11.6045 30.0076 11.6533 30.0777 11.6986C30.1477 11.7439 30.22 11.7856 30.2943 11.8237C30.3684 11.8617 30.4444 11.896 30.522 11.9264C30.5996 11.9567 30.6786 11.9832 30.7588 12.0056C30.8391 12.028 30.9203 12.0463 31.0024 12.0605C31.0844 12.0747 31.1671 12.0849 31.2501 12.0908C31.3089 12.095 31.3678 12.0971 31.4267 12.0971C31.51 12.0972 31.5932 12.093 31.676 12.0847C31.7589 12.0763 31.8413 12.0637 31.9228 12.0471C32.0044 12.0304 32.0851 12.0097 32.1647 11.985C32.2442 11.9602 32.3224 11.9314 32.3991 11.8988C32.4758 11.8662 32.5508 11.8297 32.6238 11.7895C32.6969 11.7493 32.7679 11.7055 32.8366 11.6582C32.9054 11.6109 32.9717 11.5602 33.0354 11.5062C33.099 11.4522 33.16 11.395 33.2179 11.3349C33.2759 11.2748 33.3309 11.2118 33.3826 11.1462C33.4344 11.0805 33.4828 11.0123 33.5278 10.9418C33.5727 10.8713 33.6142 10.7986 33.6519 10.7239C33.6897 10.6492 33.7238 10.5727 33.754 10.4946C33.7841 10.4165 33.8104 10.3369 33.8326 10.2562C33.8549 10.1754 33.8731 10.0936 33.8873 10.0111C33.9014 9.92852 33.9115 9.84532 33.9174 9.76176C33.9215 9.70258 33.9237 9.64326 33.9237 9.58392C33.9237 9.50014 33.9195 9.41641 33.9112 9.33304C33.9029 9.24968 33.8904 9.16678 33.8739 9.08467C33.8574 9.00255 33.8367 8.92132 33.8122 8.84128C33.7875 8.76121 33.759 8.68244 33.7265 8.60525C33.6941 8.52803 33.6578 8.4525 33.6179 8.37893C33.578 8.30538 33.5345 8.23388 33.4875 8.1647C33.4404 8.09553 33.39 8.02876 33.3363 7.96466C33.2827 7.90055 33.226 7.83918 33.1663 7.78077C33.1066 7.72241 33.044 7.66708 32.9788 7.61501C32.9135 7.56295 32.8458 7.5142 32.7757 7.46895C32.7056 7.42366 32.6333 7.38193 32.5591 7.34391C32.4849 7.30587 32.4089 7.27159 32.3313 7.2412C32.2538 7.21084 32.1747 7.1844 32.0945 7.16199C32.0143 7.13957 31.933 7.12121 31.851 7.10696C31.769 7.09274 31.6863 7.08266 31.6033 7.07675C31.5445 7.07255 31.4856 7.07045 31.4266 7.07044V7.07031Z" fill="url(#paint1_radial_3306_6581)"/>
<path d="M18.5294 0.031632C17.389 0.0297931 16.3713 0.034521 15.4572 0.0473931L13.0062 0.113067C12.2801 0.144591 11.6386 0.1857 11.0628 0.238895C10.7749 0.265428 10.5032 0.295113 10.2458 0.327818C10.0008 0.358695 9.7565 0.394651 9.51301 0.435657C9.28118 0.475061 9.06117 0.517616 8.85023 0.56385C8.63928 0.610085 8.43779 0.659999 8.2434 0.713589C8.05336 0.765992 7.8648 0.823633 7.67795 0.886444C7.49485 0.948178 7.31621 1.01359 7.13981 1.08347C6.78701 1.22322 6.44288 1.38005 6.0885 1.55579C5.81583 1.69108 5.5639 1.82808 5.32458 1.97308C5.08527 2.11809 4.85856 2.27124 4.63658 2.43806C4.40798 2.61068 4.18764 2.79399 3.9763 2.98735C3.75537 3.18858 3.52971 3.4099 3.29526 3.65723C3.00064 3.96629 2.74465 4.25447 2.51742 4.53726C2.4038 4.67859 2.29741 4.81834 2.19719 4.95889C2.09808 5.09739 2.00333 5.23897 1.91308 5.3834C1.82377 5.52657 1.73918 5.67237 1.65827 5.82237C1.5761 5.97495 1.49844 6.12992 1.42539 6.28708C1.27591 6.60809 1.13642 6.9538 0.997194 7.3397C0.893904 7.62499 0.801413 7.91407 0.719918 8.20633C0.636775 8.50502 0.562826 8.8175 0.496889 9.15545C0.430953 9.49341 0.373422 9.85685 0.322853 10.2588C0.26836 10.6994 0.224826 11.1412 0.192293 11.5839C0.155516 12.0707 0.125043 12.6064 0.100087 13.2025L0.0409806 15.1849L0.00919432 17.6013L0 20.522L0.0269263 24.7694L0.110989 27.9875L0.175744 29.2445L0.256654 30.2861C0.282591 30.5668 0.315043 30.8469 0.353983 31.1262C0.389447 31.3741 0.427538 31.5911 0.468518 31.779C0.551671 32.1608 0.649997 32.5392 0.763263 32.9133C0.871714 33.2714 0.995737 33.6246 1.13498 33.972C1.27184 34.3121 1.42158 34.6402 1.58445 34.956C1.74732 35.2718 1.92333 35.5752 2.11247 35.8666C2.30161 36.1581 2.50389 36.4376 2.71982 36.7052C2.93551 36.9727 3.16494 37.229 3.40717 37.4728C3.64977 37.7171 3.90563 37.9496 4.17529 38.1705C4.44814 38.3939 4.73175 38.6039 5.02511 38.7996C5.2974 38.9817 5.56679 39.1484 5.83816 39.3014C6.10952 39.4544 6.38325 39.5932 6.6646 39.7195C6.94594 39.8457 7.23438 39.9593 7.5357 40.0615C7.83701 40.1637 8.15093 40.2546 8.48272 40.3352C8.8145 40.4159 9.16572 40.4867 9.53744 40.5484C9.90915 40.6101 10.3065 40.6631 10.731 40.7087C11.1555 40.7542 11.6084 40.7919 12.095 40.8235C12.5817 40.855 13.1018 40.8802 13.6607 40.9004C14.5241 40.9317 15.831 40.9499 17.3381 40.9569L22.217 40.9471L26.837 40.8823L28.5937 40.8329L29.7381 40.7741C29.9837 40.7541 30.2241 40.7305 30.456 40.7027C30.688 40.675 30.9168 40.6434 31.1396 40.6074C31.3624 40.5714 31.5801 40.5312 31.7941 40.4865C32.0056 40.4425 32.216 40.3933 32.4251 40.339C32.6321 40.2865 32.8362 40.2267 33.0382 40.1633C33.2402 40.0999 33.4401 40.0313 33.6389 39.9577C33.8387 39.8837 34.0368 39.8048 34.2328 39.7212C34.4302 39.6371 34.6274 39.5473 34.8252 39.4519C35.129 39.3056 35.3736 39.1836 35.5883 39.0644C35.7903 38.9536 35.9849 38.8297 36.1707 38.6935C36.3541 38.5585 36.5364 38.4048 36.7466 38.2112C36.9567 38.0176 37.1949 37.7843 37.4897 37.4893C37.7489 37.2303 37.9674 37.0052 38.1559 36.8004C38.3444 36.5956 38.5032 36.4113 38.6424 36.2338C38.7752 36.0653 38.8988 35.8898 39.0128 35.7081C39.1241 35.5308 39.2266 35.3466 39.331 35.1424C39.4881 34.835 39.6278 34.5504 39.753 34.2758C39.8745 34.0111 39.9856 33.7417 40.0858 33.4682C40.1846 33.1969 40.2701 32.921 40.3421 32.6414C40.4162 32.3537 40.48 32.0501 40.5352 31.717C40.5903 31.3839 40.637 31.0213 40.6774 30.6165C40.7179 30.2117 40.7523 29.7643 40.7825 29.2617L40.8626 27.5743L40.9314 25.4757L40.9806 23.1377L40.9995 20.6931L40.9556 15.8916L40.8969 13.7411L40.8168 11.8946L40.717 10.455C40.6807 10.0544 40.6416 9.7389 40.6001 9.52559C40.5541 9.2899 40.5028 9.0553 40.4461 8.82196C40.3909 8.59491 40.3303 8.36924 40.2642 8.14513C40.1998 7.92678 40.1298 7.71012 40.0543 7.49535C39.9797 7.28322 39.9006 7.07556 39.8179 6.87237C39.7351 6.66917 39.6455 6.4707 39.5523 6.27644C39.459 6.08218 39.3613 5.89264 39.2587 5.70744C39.1561 5.52224 39.0492 5.34163 38.9375 5.1655C38.8257 4.98936 38.7093 4.81769 38.5881 4.65061C38.4675 4.48407 38.3418 4.32134 38.2111 4.16266C38.081 4.00484 37.946 3.85118 37.8063 3.70189C37.6667 3.55279 37.5225 3.40814 37.3738 3.26818C37.2249 3.12816 37.0717 2.99261 36.9135 2.86152C36.7548 2.73 36.592 2.60346 36.4254 2.48206C36.2571 2.35942 36.085 2.24194 35.9095 2.12978C35.7316 2.01603 35.5503 1.90758 35.366 1.80457C35.1784 1.69983 34.9879 1.60049 34.7946 1.50667C34.4739 1.35076 34.1773 1.21245 33.8861 1.08977C33.5998 0.968019 33.308 0.859885 33.0116 0.765734C32.7134 0.671821 32.403 0.591305 32.0615 0.521822C31.72 0.452339 31.3476 0.394414 30.9261 0.345159C30.5047 0.295903 30.034 0.256106 29.4958 0.223006C28.9575 0.189906 28.3521 0.163897 27.6608 0.142882L25.3115 0.0903433L22.3382 0.0552737L18.5307 0.0318925L18.5294 0.031632ZM20.5068 3.64396L25.9976 3.67522L28.0689 3.71515C28.6394 3.73118 29.0747 3.74996 29.3299 3.77163C29.6622 3.79961 29.9787 3.83468 30.2815 3.87671C30.5721 3.91683 30.8612 3.96673 31.1484 4.02632C31.4242 4.08411 31.6873 4.14978 31.9391 4.22386C32.1909 4.29795 32.4314 4.38096 32.6622 4.47277C32.893 4.56458 33.1136 4.66559 33.326 4.77618C33.5367 4.88594 33.7414 5.00673 33.9394 5.13805C34.1364 5.26874 34.3263 5.40954 34.5108 5.56125C34.6952 5.71296 34.8739 5.87556 35.0485 6.04947C35.2328 6.23296 35.4027 6.41987 35.5594 6.61269C35.7156 6.80431 35.86 7.00516 35.992 7.21413C36.1255 7.42608 36.2457 7.64607 36.3521 7.87284C36.4609 8.10401 36.5586 8.34832 36.6463 8.608C36.7341 8.86767 36.8122 9.14363 36.8815 9.43851C36.954 9.75113 37.0147 10.0664 37.0635 10.3836C37.1161 10.7198 37.161 11.0784 37.1991 11.4623C37.2372 11.8462 37.2687 12.2557 37.2947 12.6937C37.3154 13.0451 37.3336 13.5087 37.3489 14.0563L37.3874 15.9234L37.4168 20.497L37.3833 25.0662L37.3432 26.9279L37.2879 28.282C37.2495 28.916 37.209 29.449 37.1607 29.9129C37.1364 30.1449 37.1101 30.3595 37.081 30.5608C37.0537 30.7511 37.0213 30.9405 36.9839 31.1291C36.9498 31.301 36.9101 31.4719 36.865 31.6413C36.8219 31.803 36.7733 31.9632 36.7194 32.1217C36.6651 32.2808 36.606 32.4383 36.5422 32.594C36.4748 32.7583 36.4036 32.9211 36.3288 33.0822C36.2622 33.226 36.1921 33.3659 36.1181 33.5021C36.0448 33.6369 35.967 33.7692 35.8848 33.8988C35.8034 34.0271 35.718 34.1518 35.6287 34.2725C35.5398 34.3928 35.4467 34.5098 35.3494 34.6234C35.2524 34.7365 35.1514 34.8461 35.0464 34.9518C34.9413 35.0575 34.8323 35.1596 34.7193 35.2581C34.6064 35.3566 34.4892 35.4512 34.368 35.5423C34.2468 35.6335 34.1213 35.721 33.9917 35.8048C33.862 35.8886 33.7283 35.969 33.5903 36.0457C33.4522 36.1224 33.3098 36.1957 33.1634 36.2654C33.0144 36.3362 32.8633 36.4025 32.7104 36.4643C32.5523 36.5281 32.3924 36.5874 32.231 36.6423C31.9026 36.7542 31.5562 36.8524 31.1916 36.9371C30.8116 37.0249 30.4281 37.0967 30.042 37.1523C29.8936 37.174 29.5525 37.1943 29.0639 37.2132L27.2019 37.265L21.923 37.3335L16.3977 37.3422L14.2279 37.3191L12.8189 37.2752L11.7799 37.2022C11.4574 37.175 11.1574 37.1448 10.8763 37.1105C10.5952 37.0762 10.3334 37.038 10.0871 36.9949C9.85375 36.9546 9.62179 36.9064 9.39164 36.8504C9.1818 36.7994 8.9741 36.7399 8.76905 36.6721C8.57138 36.6064 8.38237 36.5342 8.19848 36.4547C8.01459 36.3752 7.83596 36.2881 7.65903 36.193C7.48211 36.0979 7.30702 35.9947 7.12996 35.8821C6.99638 35.7973 6.86727 35.7114 6.74301 35.6204C6.61876 35.5293 6.4987 35.4386 6.38312 35.3435C6.26753 35.2484 6.15654 35.1504 6.04949 35.0495C5.94316 34.9491 5.84047 34.845 5.74162 34.7372C5.6431 34.6297 5.54893 34.5191 5.45856 34.4046C5.36784 34.2896 5.2814 34.1713 5.19941 34.05C5.1162 33.9268 5.03748 33.8006 4.96338 33.6717C4.88851 33.5417 4.81732 33.4072 4.74967 33.2684C4.6809 33.1271 4.61672 32.9835 4.55725 32.838C4.49683 32.6899 4.43956 32.537 4.38571 32.3791C4.278 32.0632 4.18343 31.7269 4.10121 31.3684C4.01899 31.0098 3.94885 30.6289 3.88948 30.223C3.83011 29.8172 3.7823 29.3869 3.74421 28.9295C3.7161 28.5926 3.69377 28.0679 3.67669 27.4059L3.64097 25.0515L3.6541 19.0495L3.75747 13.3143L3.83628 11.2937L3.88094 10.6258C3.89644 10.4474 3.91246 10.3153 3.92888 10.2359C3.983 9.97493 4.03751 9.73207 4.09385 9.50471C4.14649 9.29022 4.20505 9.07722 4.26947 8.86596C4.33068 8.66658 4.39517 8.4798 4.46412 8.30288C4.53062 8.13148 4.60473 7.96315 4.68623 7.79837C4.76583 7.63812 4.85134 7.48471 4.9442 7.33537C5.03706 7.18602 5.13728 7.04115 5.24656 6.89706C5.35585 6.75297 5.47353 6.61072 5.6016 6.4665C5.72966 6.32228 5.86797 6.17661 6.01797 6.02648C6.19279 5.85067 6.37482 5.68218 6.56359 5.52145C6.74184 5.36981 6.92772 5.22737 7.12051 5.0947C7.31004 4.96335 7.50444 4.84645 7.70684 4.73901C7.90925 4.63157 8.11967 4.5345 8.34099 4.44716C8.56231 4.35981 8.7948 4.28166 9.04108 4.21073C9.29981 4.13815 9.56141 4.07624 9.82522 4.02514C10.1026 3.97076 10.3972 3.92334 10.7118 3.88196C11.0264 3.84059 11.3611 3.80486 11.7189 3.77387C11.9684 3.75232 12.3985 3.73315 12.9647 3.71699L15.0256 3.67627L20.5078 3.64278L20.5068 3.64396Z" fill="url(#paint2_radial_3306_6581)"/>
</g>
<defs>
<radialGradient id="paint0_radial_3306_6581" cx="0" cy="0" r="1" gradientUnits="userSpaceOnUse" gradientTransform="translate(6.53042 43.9382) rotate(-9.53101) scale(86.6518 52.5972)">
<stop stop-color="#FED576"/>
<stop offset="0.263" stop-color="#F47133"/>
<stop offset="0.609" stop-color="#BC3081"/>
<stop offset="1" stop-color="#4C63D2"/>
</radialGradient>
<radialGradient id="paint1_radial_3306_6581" cx="0" cy="0" r="1" gradientUnits="userSpaceOnUse" gradientTransform="translate(6.53052 43.9413) rotate(-9.53101) scale(86.6518 52.5971)">
<stop stop-color="#FED576"/>
<stop offset="0.263" stop-color="#F47133"/>
<stop offset="0.609" stop-color="#BC3081"/>
<stop offset="1" stop-color="#4C63D2"/>
</radialGradient>
<radialGradient id="paint2_radial_3306_6581" cx="0" cy="0" r="1" gradientUnits="userSpaceOnUse" gradientTransform="translate(6.53193 43.9402) rotate(-9.53101) scale(86.6518 52.5972)">
<stop stop-color="#FED576"/>
<stop offset="0.263" stop-color="#F47133"/>
<stop offset="0.609" stop-color="#BC3081"/>
<stop offset="1" stop-color="#4C63D2"/>
</radialGradient>
<clipPath id="clip0_3306_6581">
<rect width="41" height="41" fill="white"/>
</clipPath>
</defs>
</svg>
