<svg width="188" height="55" viewBox="0 0 188 55" fill="none" xmlns="http://www.w3.org/2000/svg">
<path d="M45.3605 45.4974C45.3992 45.4977 45.4374 45.488 45.4712 45.4694C45.5049 45.4507 45.5332 45.4237 45.5532 45.391C45.5731 45.3583 45.5841 45.3211 45.5849 45.283C45.5858 45.2448 45.5766 45.2071 45.5581 45.1736L41.6145 35.7657C41.537 35.5711 41.4754 35.3707 41.4301 35.1665L36.2674 9.80848C36.247 9.72292 36.1985 9.64636 36.1295 9.59065C36.0604 9.53495 35.9746 9.50322 35.8854 9.50037H13.8657C13.8264 9.49825 13.7871 9.50531 13.7511 9.52098C13.7151 9.53666 13.6834 9.5605 13.6585 9.59055C13.6337 9.6206 13.6164 9.65602 13.6082 9.69389C13.5999 9.73177 13.6009 9.77104 13.611 9.80848L14.6987 14.9837C14.7307 15.1847 14.7106 15.3904 14.6403 15.5817L2.1594 45.2389C2.09175 45.3995 2.18062 45.5 2.35705 45.5L45.3605 45.4974ZM16.7508 12.3243C16.741 12.2869 16.7402 12.2477 16.7486 12.21C16.757 12.1722 16.7743 12.1369 16.799 12.1069C16.8238 12.077 16.8554 12.0531 16.8913 12.0374C16.9271 12.0216 16.9662 12.0144 17.0055 12.0162H33.7908C33.8801 12.019 33.9659 12.0508 34.0349 12.1065C34.104 12.1622 34.1525 12.2387 34.1729 12.3243L38.9482 35.7814C38.9827 35.9498 39.0172 36.1156 39.0238 36.1495C39.0621 36.2683 39.1063 36.3851 39.1565 36.4994L41.7418 42.6617C41.7599 42.6949 41.7688 42.7321 41.7677 42.7698C41.7666 42.8074 41.7555 42.8441 41.7355 42.8762C41.7156 42.9083 41.6874 42.9347 41.6538 42.9527C41.6202 42.9707 41.5824 42.9798 41.5442 42.979H24.8463C24.8056 42.9798 24.7652 42.9721 24.7278 42.9562C24.6905 42.9403 24.657 42.9167 24.6297 42.887C24.6024 42.8573 24.5819 42.8221 24.5696 42.7839C24.5573 42.7457 24.5535 42.7054 24.5585 42.6656L24.8569 39.8038C24.8878 39.6064 24.9849 39.4249 25.1328 39.2881L28.7051 36.2958C28.7744 36.2307 28.827 36.1504 28.8586 36.0614C28.8902 35.9724 28.8998 35.8774 28.8868 35.784L26.0667 21.7936C26.0464 21.7079 25.9979 21.6311 25.9289 21.5752C25.8598 21.5193 25.774 21.4873 25.6847 21.4841H25.1143C25.021 21.4885 24.9308 21.5177 24.853 21.5685C24.7752 21.6193 24.7129 21.6898 24.6726 21.7727L18.8546 35.6195C18.8229 35.7062 18.8155 35.7998 18.8333 35.8903C18.851 35.9808 18.8932 36.065 18.9554 36.1339L22.0912 39.2672C22.2232 39.4155 22.2921 39.6082 22.2835 39.8051L21.9944 42.6656C21.9838 42.7505 21.9424 42.8287 21.8778 42.8858C21.8131 42.9429 21.7297 42.9751 21.6429 42.9763H6.18396C6.00754 42.9763 5.91867 42.8719 5.98632 42.7152L17.3026 15.8311C17.3724 15.6396 17.392 15.434 17.3596 15.2331L16.7508 12.3243Z" fill="black"/>
<path d="M170.198 18.7917C170.202 18.7812 170.204 18.7699 170.202 18.7588C170.2 18.7477 170.196 18.7372 170.189 18.7283C170.182 18.7195 170.173 18.7125 170.163 18.7082C170.152 18.7039 170.141 18.7023 170.13 18.7036H163.632C163.621 18.7029 163.609 18.7049 163.598 18.7094C163.587 18.7139 163.577 18.7208 163.57 18.7296C163.562 18.7384 163.556 18.7488 163.553 18.7601C163.55 18.7714 163.549 18.7833 163.551 18.7949L163.799 20.381C163.805 20.4439 163.805 20.5073 163.799 20.5703L161.824 34.6194C161.814 34.6811 161.8 34.7421 161.782 34.8022L161.341 36.2283C161.337 36.2387 161.335 36.2501 161.336 36.2613C161.337 36.2726 161.342 36.2834 161.348 36.2926C161.355 36.3018 161.364 36.3092 161.374 36.3139C161.384 36.3187 161.395 36.3206 161.407 36.3197H167.702C167.714 36.3198 167.726 36.3174 167.737 36.3125C167.747 36.3076 167.757 36.3004 167.765 36.2914C167.773 36.2824 167.778 36.2717 167.782 36.2603C167.785 36.2488 167.785 36.2368 167.784 36.2251L167.617 34.8054C167.611 34.7436 167.611 34.6813 167.617 34.6194L169.5 21.2099C169.51 21.1483 169.523 21.0873 169.539 21.0271L170.198 18.7917Z" fill="black"/>
<path d="M96.1016 31.744C96.0899 31.7447 96.0781 31.7427 96.0673 31.7382C96.0564 31.7337 96.0467 31.7268 96.0388 31.718C96.031 31.7092 96.0252 31.6988 96.022 31.6874C96.0187 31.6761 96.0181 31.6642 96.0201 31.6526L97.456 21.2096C97.4656 21.148 97.4855 21.0884 97.5147 21.0333L98.7646 18.7848C98.7875 18.7391 98.7646 18.7032 98.7157 18.7032H91.8037C91.7919 18.7026 91.7802 18.7046 91.7693 18.7091C91.7584 18.7136 91.7487 18.7205 91.7409 18.7293C91.733 18.7381 91.7273 18.7485 91.724 18.7598C91.7208 18.7711 91.7201 18.783 91.7221 18.7946L91.9603 20.3807C91.9668 20.4436 91.9668 20.507 91.9603 20.5699L89.9859 34.6191C89.9768 34.6811 89.9626 34.7422 89.9435 34.8019L89.467 36.2313C89.4622 36.2414 89.4601 36.2527 89.4612 36.264C89.4623 36.2752 89.4664 36.2859 89.4731 36.295C89.4798 36.3041 89.4889 36.3111 89.4993 36.3154C89.5098 36.3197 89.5212 36.3211 89.5323 36.3194H102.162C102.189 36.3177 102.215 36.3081 102.236 36.2919C102.257 36.2756 102.274 36.2534 102.283 36.228L103.643 31.509C103.643 31.4601 103.627 31.4274 103.575 31.434L101.578 31.7212C101.515 31.726 101.451 31.726 101.388 31.7212L96.1016 31.744Z" fill="black"/>
<path d="M138.125 20.384C138.13 20.4459 138.13 20.5081 138.125 20.57L137.042 28.4871C137.042 28.5393 137.012 28.5426 136.99 28.4871L132.176 18.7849C132.162 18.7609 132.142 18.7409 132.118 18.7266C132.094 18.7123 132.067 18.7043 132.039 18.7033H126.775C126.763 18.7025 126.752 18.7044 126.741 18.709C126.73 18.7135 126.721 18.7205 126.713 18.7293C126.705 18.7382 126.7 18.7487 126.697 18.7601C126.694 18.7714 126.694 18.7833 126.697 18.7947L126.968 20.3807C126.976 20.4424 126.976 20.505 126.968 20.5667L124.987 34.6192C124.976 34.6808 124.962 34.7418 124.944 34.8019L124.494 36.228C124.489 36.2384 124.487 36.2498 124.489 36.2611C124.49 36.2723 124.494 36.2831 124.5 36.2923C124.507 36.3015 124.516 36.3089 124.526 36.3136C124.536 36.3184 124.548 36.3204 124.559 36.3194H129.781C129.793 36.3195 129.805 36.317 129.816 36.3122C129.827 36.3073 129.836 36.3002 129.844 36.2912C129.852 36.2823 129.858 36.2717 129.862 36.2603C129.866 36.2488 129.867 36.2367 129.865 36.2248L129.699 34.8052C129.694 34.7433 129.694 34.6811 129.699 34.6192L130.835 26.5388C130.835 26.4866 130.864 26.4834 130.887 26.5388L135.642 36.2444C135.656 36.2688 135.676 36.2893 135.7 36.3041C135.724 36.3189 135.751 36.3275 135.779 36.3292H141.412C141.423 36.3294 141.435 36.3269 141.446 36.322C141.457 36.3171 141.467 36.3099 141.474 36.3009C141.482 36.2919 141.488 36.2813 141.491 36.2698C141.494 36.2583 141.495 36.2463 141.493 36.2346L141.284 34.815C141.278 34.7531 141.278 34.6908 141.284 34.6289L143.242 20.5765C143.252 20.515 143.265 20.454 143.282 20.3938L143.781 18.8012C143.786 18.791 143.788 18.7797 143.787 18.7685C143.786 18.7573 143.781 18.7465 143.775 18.7375C143.768 18.7284 143.759 18.7213 143.749 18.7171C143.738 18.7128 143.727 18.7114 143.716 18.7131H138.093C138.081 18.7131 138.069 18.7154 138.059 18.7201C138.048 18.7248 138.038 18.7316 138.03 18.7402C138.022 18.7488 138.016 18.7589 138.012 18.77C138.008 18.781 138.007 18.7928 138.008 18.8045L138.125 20.384Z" fill="black"/>
<path d="M69.8268 18.7947C69.8209 18.7688 69.8064 18.7456 69.7857 18.729C69.7649 18.7124 69.7392 18.7034 69.7126 18.7033H61.1526C61.1409 18.7025 61.1292 18.7044 61.1184 18.709C61.1077 18.7135 61.0981 18.7205 61.0905 18.7293C61.0829 18.7382 61.0774 18.7487 61.0746 18.7601C61.0718 18.7714 61.0717 18.7833 61.0742 18.7947L61.3353 20.3807C61.3448 20.4415 61.3368 20.5037 61.3125 20.5602L54.9912 34.6257C54.9716 34.6746 54.9357 34.7497 54.9161 34.7987L54.2797 36.2346C54.275 36.244 54.2728 36.2545 54.2736 36.2651C54.2743 36.2756 54.2779 36.2858 54.2839 36.2944C54.2899 36.3031 54.2981 36.31 54.3077 36.3144C54.3174 36.3188 54.328 36.3205 54.3385 36.3194H60.0397C60.0512 36.3196 60.0626 36.3172 60.073 36.3125C60.0835 36.3078 60.0928 36.3008 60.1003 36.2921C60.1078 36.2834 60.1132 36.2731 60.1163 36.262C60.1194 36.251 60.12 36.2394 60.118 36.228L59.8994 34.9814C59.8912 34.9197 59.8912 34.8571 59.8994 34.7954L59.919 34.6975C59.9379 34.6373 59.9608 34.5784 59.9875 34.5213L60.8393 32.7068C60.8525 32.6824 60.8718 32.6619 60.8952 32.647C60.9186 32.6322 60.9454 32.6235 60.9731 32.6219H67.2422C67.2686 32.6229 67.294 32.6328 67.3141 32.6499C67.3342 32.6671 67.348 32.6906 67.3531 32.7166L67.6436 34.5115C67.6436 34.5637 67.6631 34.6485 67.6664 34.6975V34.8215C67.6664 34.8737 67.6436 34.9553 67.6305 35.0075L67.3662 36.228C67.3637 36.2392 67.3638 36.2507 67.3664 36.2618C67.3691 36.2729 67.3742 36.2832 67.3814 36.292C67.3887 36.3008 67.3978 36.3079 67.4082 36.3126C67.4185 36.3174 67.4298 36.3197 67.4412 36.3194H73.7723C73.7832 36.3205 73.7942 36.3186 73.8041 36.314C73.8141 36.3095 73.8226 36.3023 73.8289 36.2934C73.8352 36.2844 73.8391 36.274 73.84 36.2631C73.841 36.2522 73.839 36.2412 73.8343 36.2313L73.3481 34.8019C73.3283 34.742 73.312 34.681 73.2991 34.6192L69.8268 18.7947ZM62.4155 29.3128C62.3633 29.3128 62.3405 29.2769 62.36 29.2279L64.8337 23.6474C64.8465 23.6233 64.8651 23.6029 64.888 23.588C64.9108 23.5732 64.9371 23.5644 64.9643 23.5626H65.2515C65.2777 23.5637 65.3029 23.5732 65.3235 23.5896C65.344 23.6061 65.3588 23.6286 65.3657 23.654L66.6711 29.2018C66.675 29.2128 66.6761 29.2245 66.6742 29.236C66.6724 29.2475 66.6677 29.2583 66.6605 29.2674C66.6533 29.2765 66.6439 29.2837 66.6332 29.2882C66.6225 29.2927 66.6108 29.2944 66.5993 29.2932L62.4155 29.3128Z" fill="black"/>
<path d="M119.428 18.7947C119.422 18.7688 119.408 18.7456 119.387 18.729C119.366 18.7124 119.341 18.7034 119.314 18.7033H110.754C110.742 18.7025 110.731 18.7044 110.72 18.709C110.709 18.7135 110.7 18.7205 110.692 18.7293C110.684 18.7382 110.679 18.7487 110.676 18.7601C110.673 18.7714 110.673 18.7833 110.676 18.7947L110.937 20.3807C110.943 20.4415 110.935 20.5028 110.914 20.5602L104.593 34.6257L104.514 34.7987L103.888 36.2346C103.882 36.2436 103.879 36.2541 103.879 36.2648C103.879 36.2755 103.882 36.286 103.888 36.295C103.894 36.304 103.902 36.3111 103.912 36.3154C103.922 36.3197 103.933 36.3211 103.943 36.3194H109.638C109.65 36.3202 109.661 36.3183 109.672 36.3138C109.683 36.3092 109.692 36.3023 109.7 36.2934C109.708 36.2845 109.713 36.274 109.716 36.2626C109.719 36.2513 109.719 36.2394 109.716 36.228L109.498 34.9814C109.493 34.9195 109.493 34.8573 109.498 34.7954L109.517 34.6975C109.517 34.6453 109.566 34.5669 109.586 34.5213L110.441 32.7068C110.454 32.6822 110.473 32.6615 110.496 32.6466C110.52 32.6317 110.547 32.6232 110.575 32.6219H116.85C116.876 32.6224 116.902 32.6322 116.921 32.6495C116.941 32.6668 116.954 32.6906 116.958 32.7166L117.248 34.5115C117.248 34.5637 117.268 34.6485 117.271 34.6975V34.8215C117.271 34.8737 117.248 34.9553 117.239 35.0075L116.974 36.228C116.972 36.2392 116.972 36.2507 116.974 36.2618C116.977 36.2729 116.982 36.2832 116.989 36.292C116.997 36.3008 117.006 36.3079 117.016 36.3126C117.027 36.3174 117.038 36.3197 117.049 36.3194H123.367C123.378 36.3211 123.39 36.3198 123.4 36.3155C123.411 36.3112 123.42 36.3041 123.427 36.295C123.433 36.286 123.437 36.2752 123.438 36.264C123.439 36.2528 123.437 36.2415 123.433 36.2313L122.946 34.8019C122.946 34.753 122.907 34.6714 122.894 34.6192L119.428 18.7947ZM112.001 29.3128C111.949 29.3128 111.922 29.2769 111.945 29.2279L114.419 23.6474C114.431 23.6229 114.45 23.6021 114.473 23.5872C114.496 23.5723 114.522 23.5638 114.549 23.5626H114.833C114.86 23.563 114.886 23.5722 114.907 23.5887C114.929 23.6052 114.944 23.6281 114.951 23.654L116.256 29.2018C116.26 29.2128 116.261 29.2245 116.259 29.236C116.258 29.2475 116.253 29.2583 116.246 29.2674C116.238 29.2765 116.229 29.2837 116.218 29.2882C116.208 29.2927 116.196 29.2944 116.184 29.2932L112.001 29.3128Z" fill="black"/>
<path d="M74.0158 18.7066C73.9898 18.7063 73.9646 18.7153 73.9448 18.7321C73.925 18.7489 73.912 18.7723 73.9081 18.7979L73.2325 23.3668C73.2297 23.3775 73.2298 23.3887 73.2328 23.3994C73.2358 23.4101 73.2416 23.4197 73.2496 23.4274C73.2576 23.435 73.2675 23.4404 73.2782 23.443C73.289 23.4455 73.3003 23.4451 73.3108 23.4418L74.4987 23.1873C74.5599 23.1741 74.6222 23.1676 74.6848 23.1677H78.4704C78.4821 23.167 78.4939 23.169 78.5047 23.1736C78.5156 23.1781 78.5253 23.185 78.5332 23.1937C78.541 23.2025 78.5468 23.213 78.55 23.2243C78.5533 23.2356 78.5539 23.2475 78.552 23.2591L76.9202 34.6192C76.9106 34.6808 76.8976 34.7418 76.8811 34.8019L76.4372 36.2281C76.4327 36.2384 76.4309 36.2498 76.432 36.2611C76.4332 36.2723 76.4373 36.2831 76.4438 36.2923C76.4504 36.3015 76.4593 36.3089 76.4696 36.3137C76.4799 36.3184 76.4912 36.3204 76.5025 36.3194H82.8206C82.8327 36.3195 82.8447 36.317 82.8559 36.3121C82.867 36.3073 82.877 36.3002 82.8853 36.2914C82.8936 36.2825 82.8999 36.272 82.9039 36.2605C82.908 36.2491 82.9096 36.2369 82.9087 36.2248L82.7651 34.8052C82.7586 34.7433 82.7586 34.681 82.7651 34.6192L84.3413 23.2591C84.3453 23.2334 84.3583 23.2101 84.3781 23.1933C84.3979 23.1765 84.4231 23.1674 84.449 23.1677H87.1707C87.2323 23.1687 87.2936 23.1763 87.3535 23.1905L88.9852 23.6474C88.9966 23.6508 89.0086 23.6517 89.0204 23.65C89.0322 23.6483 89.0434 23.644 89.0534 23.6375C89.0633 23.631 89.0717 23.6223 89.078 23.6122C89.0843 23.6021 89.0882 23.5907 89.0896 23.5789L89.7946 18.7947C89.7971 18.7833 89.797 18.7714 89.7942 18.7601C89.7914 18.7487 89.7859 18.7382 89.7783 18.7293C89.7707 18.7205 89.7611 18.7135 89.7504 18.709C89.7396 18.7044 89.7279 18.7025 89.7162 18.7033L74.0158 18.7066Z" fill="black"/>
<path d="M145.922 18.7066C145.896 18.7063 145.871 18.7153 145.851 18.7321C145.831 18.7489 145.818 18.7723 145.814 18.7979L145.139 23.3668C145.136 23.3775 145.136 23.3887 145.139 23.3994C145.142 23.4101 145.148 23.4197 145.156 23.4274C145.164 23.435 145.174 23.4404 145.184 23.443C145.195 23.4455 145.207 23.4451 145.217 23.4418L146.405 23.1873C146.466 23.1741 146.528 23.1676 146.591 23.1677H150.377C150.388 23.167 150.4 23.169 150.411 23.1736C150.422 23.1781 150.432 23.185 150.439 23.1937C150.447 23.2025 150.453 23.213 150.456 23.2243C150.46 23.2356 150.46 23.2475 150.458 23.2591L148.826 34.6192C148.817 34.6808 148.804 34.7418 148.787 34.8019L148.343 36.2281C148.339 36.2384 148.337 36.2498 148.338 36.2611C148.339 36.2723 148.343 36.2831 148.35 36.2923C148.357 36.3015 148.366 36.3089 148.376 36.3137C148.386 36.3184 148.397 36.3204 148.409 36.3194H154.727C154.739 36.3195 154.751 36.317 154.762 36.3121C154.773 36.3073 154.783 36.3002 154.792 36.2914C154.8 36.2825 154.806 36.272 154.81 36.2605C154.814 36.2491 154.816 36.2369 154.815 36.2248L154.671 34.8052C154.665 34.7433 154.665 34.681 154.671 34.6192L156.248 23.2591C156.251 23.2334 156.265 23.2101 156.284 23.1933C156.304 23.1765 156.329 23.1674 156.355 23.1677H159.292C159.355 23.17 159.417 23.1787 159.478 23.1938L160.888 23.6442C160.899 23.6482 160.911 23.6496 160.923 23.6484C160.935 23.6471 160.946 23.6432 160.956 23.6369C160.966 23.6306 160.975 23.6221 160.981 23.6121C160.987 23.602 160.991 23.5907 160.993 23.5789L161.698 18.7947C161.7 18.7833 161.7 18.7714 161.697 18.7601C161.694 18.7487 161.689 18.7382 161.681 18.7293C161.674 18.7205 161.664 18.7135 161.653 18.709C161.643 18.7044 161.631 18.7025 161.619 18.7033L145.922 18.7066Z" fill="black"/>
<path d="M183.63 26.9084C181.767 25.3844 178.882 25.0972 178.194 23.5569C178.148 23.3766 178.14 23.1888 178.171 23.0053C178.291 22.2548 179.492 22.0655 180.729 22.1503C181.797 22.1641 182.843 22.4554 183.764 22.9956L184.91 24.1965C184.929 24.2167 184.954 24.2312 184.981 24.2383C185.009 24.2455 185.037 24.2449 185.064 24.2369C185.091 24.2288 185.115 24.2134 185.134 24.1925C185.153 24.1716 185.166 24.1459 185.171 24.1182L185.856 19.1838C185.861 19.1345 185.848 19.085 185.819 19.0447C185.791 19.0044 185.748 18.9761 185.7 18.9652C183.944 18.5502 182.148 18.3313 180.344 18.3125C176.967 18.3125 173.338 19.3405 172.329 23.1555C171.81 25.1135 172.776 27.2609 174.767 28.3085C175.555 28.7021 176.318 29.1446 177.051 29.6334C177.831 30.3905 178.076 30.7136 178.03 31.3239C177.994 31.8526 177.13 32.9165 174.708 32.6293C173.845 32.5815 173.02 32.2603 172.352 31.7122L171.22 30.6843C171.184 30.6555 171.142 30.636 171.097 30.6276C171.053 30.6191 171.006 30.622 170.963 30.636C170.919 30.6499 170.88 30.6744 170.849 30.7074C170.817 30.7403 170.794 30.7806 170.782 30.8246L170.051 35.7622C170.048 35.8124 170.062 35.8622 170.091 35.9032C170.12 35.9442 170.163 35.974 170.211 35.9874C171.919 36.4222 173.671 36.6566 175.433 36.6857C178.158 36.6857 184.809 36.0331 185.203 30.6353C185.267 29.9328 185.156 29.2254 184.882 28.5756C184.608 27.9257 184.178 27.3532 183.63 26.9084Z" fill="black"/>
</svg>
