<svg width="188" height="55" viewBox="0 0 188 55" fill="none" xmlns="http://www.w3.org/2000/svg">
<g clip-path="url(#clip0_8164_712)">
<path d="M29.5245 8.96523C44.6064 7.90345 55.015 23.9396 47.6805 37.1982C40.4683 50.2357 21.5478 50.313 14.2444 37.3111C7.41443 25.152 15.6368 9.94294 29.5239 8.96523H29.5245ZM37.3443 23.9136C37.4547 23.8431 38.0368 21.5446 38.0283 21.3867C38.0187 21.2011 37.7311 20.906 37.6433 20.6589C37.0765 19.0634 38.4275 17.557 40.107 17.8668C40.5056 17.9401 40.7678 18.2933 41.15 18.2961C41.3397 18.2972 42.5685 17.9023 42.5651 17.7838C37.6716 12.1223 29.2697 10.8941 22.8779 14.8614C13.685 20.568 13.0831 33.7686 21.8089 40.1342L26.52 39.35L27.7335 37.9655C27.6417 37.3094 27.8586 36.4005 27.7703 35.7934C27.738 35.5728 26.9741 33.284 26.8852 33.1779C26.5534 32.7836 25.7211 32.9297 25.306 31.8194C24.8632 30.6357 25.5767 30.3565 25.5574 29.7556C25.5529 29.6073 24.6129 27.1401 24.5031 26.9805C24.3287 26.7271 23.96 26.6239 23.7296 26.3977C23.4759 26.1489 23.1877 25.4239 23.135 25.3844C22.5552 24.95 20.771 24.5635 20.0484 24.0874C19.3791 23.6462 19.22 22.9359 19.5026 22.2104C19.801 21.4431 20.9573 20.1015 21.1237 19.4177C21.2415 18.9336 20.9142 18.5071 21.2279 17.7269C22.2432 15.2016 26.4441 16.9376 24.9691 19.649C24.4674 20.5714 23.6531 20.44 23.3157 20.8208C23.2585 20.8857 22.7137 22.0654 22.7562 22.1223C23.2335 22.1274 23.9617 22.84 24.3077 22.893C24.6911 22.9517 25.2103 22.6989 25.8162 22.8535C26.8711 23.1226 27.4351 24.2922 27.2573 25.3111C27.2114 25.5728 26.9543 25.9164 26.9707 26.1077C26.9838 26.26 27.9368 28.7706 28.0551 28.9675C28.2335 29.2648 28.2878 29.3697 28.6689 29.3207C28.8501 29.2975 30.0234 28.8806 30.1479 28.783C30.2063 28.7373 30.9769 27.6411 30.9979 27.57C31.0211 27.4916 31.1304 26.326 31.1156 26.2617C31.08 26.1099 30.597 25.6332 30.5081 25.284C30.3359 24.6104 30.4452 24.093 30.7725 23.5108C30.8931 23.2958 31.1779 23.1063 31.2272 22.9444C31.2765 22.7824 31.1898 22.0106 31.1343 21.8668C31.0851 21.7387 30.0919 21.3607 29.8535 20.4106C29.0494 17.2039 34.4089 16.8123 33.9537 20.2527C33.8738 20.8558 33.3064 21.2857 33.294 21.4939C33.2855 21.6304 33.5239 22.6329 33.5975 22.77C33.6224 22.8157 34.2628 23.5023 34.307 23.5288C34.4814 23.6343 37.2163 23.9937 37.3449 23.9113L37.3443 23.9136ZM40.7565 39.6027C40.9201 39.7889 42.2514 38.4129 42.3992 38.2515C47.0469 33.1689 47.8911 25.2637 43.872 19.5672C43.7621 19.5559 41.8675 20.203 41.7791 20.269C41.5889 20.4118 41.5141 20.8964 41.3222 21.1672C41.0407 21.5644 40.4332 21.7511 40.2933 21.9463C40.0181 22.3294 39.8465 24.7311 39.594 25.4222C39.2667 26.3187 38.6857 26.2149 37.8698 26.1833L34.3596 25.842C34.1779 25.8775 33.6881 26.4152 33.649 26.5996C33.6224 26.726 33.5154 27.6287 33.5284 27.6834C33.6031 28.0084 34.2373 28.3915 34.3036 29.1728C34.3585 29.82 33.9667 30.3689 33.9882 30.6194C34.0012 30.7734 35.3036 33.2688 35.4349 33.3511C35.8896 33.2947 36.9253 33.2383 37.2809 33.0403C37.5533 32.8891 37.7667 32.2775 38.1591 31.9982C40.2927 30.4795 42.6715 33.3697 40.8709 35.2631L40.7559 39.6016L40.7565 39.6027ZM29.7901 34.1743C29.9022 34.2453 32.102 33.9125 32.4316 33.8493C32.5641 33.8239 32.6366 33.8047 32.7136 33.6845C32.4084 33.2462 32.0471 31.7054 31.6921 31.4341C31.6105 31.3714 30.8438 31.0284 30.7402 31.0256C30.5636 31.0211 29.4849 31.3714 29.3778 31.4843C29.3065 31.5593 28.9747 32.3192 28.9798 32.4321C28.9996 32.8462 29.7074 33.6913 29.7901 34.1737V34.1743ZM24.6797 41.7472C24.904 42.0665 25.4634 42.2008 25.8377 42.3401C29.7646 43.8042 34.2249 43.4318 37.9723 41.6236L38.158 41.2445L38.316 35.5379L37.675 35.1119L30.3388 37.1762C29.7703 38.2391 30.798 39.2118 30.7408 40.1714C30.6496 41.7139 29.093 42.5714 27.7091 41.9412C27.3677 41.7855 27.1265 41.4166 26.776 41.3957L24.6797 41.746V41.7472Z" fill="#FE6B00"/>
<path d="M93.3961 19.8699V31.0333H94.7545V19.8699H99.0563V31.0333H100.415V19.8699H104.604V33.796C104.604 33.8378 104.261 34.4465 104.202 34.5227C103.758 35.0948 103.098 35.2708 102.401 35.3227C98.7567 35.5946 94.7658 35.1173 91.0847 35.308C90.4765 35.3554 89.207 34.3343 89.207 33.7955V19.8694H93.3961V19.8699Z" fill="black"/>
<path d="M64.8678 27.9889V19.8699H69.0568V35.3181H66.0569L57.8486 27.1991V35.3181H53.7167L53.5469 35.1489V20.0391L53.7167 19.8699H56.6601L64.8678 27.9889Z" fill="black"/>
<path d="M164.603 25.5077H171.508V19.8699H175.81V35.3181H171.678L171.508 35.1489V29.6803H164.603V35.1489L164.433 35.3181H160.301V19.8699H164.433L164.603 20.0391V25.5077Z" fill="black"/>
<path d="M158.04 19.8699V23.9855L157.87 24.1548H146.719V31.0332H157.87L158.04 31.2025V35.1494L157.87 35.3187H144.285C143.73 35.3187 142.511 34.223 142.541 33.5607C142.736 29.783 142.247 25.6922 142.526 21.9511C142.591 21.0761 143.324 19.8699 144.285 19.8699H158.04Z" fill="black"/>
<path d="M122.377 19.8699V24.1548H116.83V35.3181H112.698L112.528 35.1489V24.1548H107.15L106.98 23.9855V19.8699H122.377Z" fill="black"/>
<path d="M124.754 29.7925V25.5076H140.094L140.263 25.6768V29.6238L140.094 29.7925H124.754Z" fill="black"/>
<path d="M124.754 35.3182V31.0333H140.094L140.263 31.2026V35.149L140.094 35.3182H124.754Z" fill="black"/>
<path d="M124.754 19.8699H140.094L140.263 20.0391V23.9855L140.094 24.1548H124.924L124.754 23.9855V19.8699Z" fill="black"/>
<path d="M86.8303 25.5076H71.4336V29.7925H86.8303V25.5076Z" fill="black"/>
<path d="M86.8303 31.0333H71.4336V35.3182H86.8303V31.0333Z" fill="black"/>
<path d="M86.8303 19.8699V23.9855L86.6604 24.1548H71.4336V19.8699H86.8303Z" fill="black"/>
<path d="M148.984 38.1372L150.33 38.1508C150.617 38.8943 150.872 39.8777 151.243 40.5665C151.312 40.694 151.333 40.8706 151.53 40.8447L152.506 38.1508L153.852 38.1372V42.9857H152.947V39.4901C152.749 39.5189 152.753 39.7186 152.689 39.8529C152.33 40.5964 152.11 41.4179 151.8 42.1812L151.097 42.2015L149.89 39.3778V42.9863H148.985V38.1378L148.984 38.1372Z" fill="black"/>
<path d="M81.8477 38.1372L82.962 38.1558L84.7916 41.2949V38.1378H85.697V42.9863C85.3561 42.9541 84.8963 43.0867 84.6126 42.8825C84.389 42.7211 83.4518 40.7866 83.184 40.3589C83.0707 40.1784 82.9547 39.9166 82.7536 39.8292V42.9863H81.8482V38.1378L81.8477 38.1372Z" fill="black"/>
<path d="M123.704 38.0514C125.981 37.6644 126.43 39.5132 126.225 41.3513C126.191 41.6571 125.883 42.2472 125.902 42.3499C125.938 42.5378 126.368 42.6963 126.329 42.9146L125.828 43.4354L125.24 42.8915C122.51 43.4483 121.886 42.1169 122.149 39.6599C122.239 38.8125 122.867 38.1947 123.704 38.0526L123.704 38.0514ZM125.319 41.3507C125.387 40.8881 125.319 40.1626 125.319 39.6593C125.319 39.6266 125.039 39.1544 124.976 39.0991C124.327 38.5338 123.194 38.8661 123.065 39.7823C122.898 40.9665 122.94 42.421 124.527 42.1953L124.082 41.6734C124.568 40.7002 124.695 41.4873 125.038 41.6306C125.198 41.6966 125.307 41.4292 125.319 41.3507Z" fill="black"/>
<path d="M164.493 38.1374C164.834 38.1696 165.293 38.037 165.577 38.2412C165.855 38.4415 166.87 40.6672 167.182 41.149C167.254 41.2601 167.169 41.3493 167.436 41.2946V38.1374H168.229V42.986L167.228 42.9673C166.663 42.1109 166.204 40.8037 165.607 40.0156C165.509 39.8864 165.488 39.7865 165.285 39.8283V42.9854H164.492V38.1369L164.493 38.1374Z" fill="black"/>
<path d="M70.3589 38.1374C71.4767 38.3834 71.6737 40.4217 70.5407 40.8979L71.4342 42.9859C70.0871 43.3148 70.2513 41.9326 69.7185 41.088L68.7179 41.0694V42.9865H67.8125V38.138C68.5407 38.2463 69.6919 37.9907 70.3595 38.138L70.3589 38.1374ZM68.7168 40.2807C70.9319 40.7185 71.0656 38.4251 68.8232 38.8635L68.7168 40.2807Z" fill="black"/>
<path d="M93.1693 42.5914C92.3635 43.1646 90.4411 43.1967 89.7712 42.4486C89.1144 41.7158 89.1376 39.485 89.7231 38.7076C90.41 37.7947 92.402 37.7998 93.1676 38.6449L92.6625 39.2526C90.7514 38.1394 89.9326 39.287 90.2333 41.2311C90.3862 42.2201 91.4088 42.3832 92.2146 42.0915L92.2644 40.9558L91.2446 40.9569L91.415 40.1671H93.1698V42.5914H93.1693Z" fill="black"/>
<path d="M104.375 38.1372V40.0543H106.299V38.1372H107.205V42.9857H106.299V40.8436H104.375V42.9857H103.469V38.1372H104.375Z" fill="black"/>
<path d="M130.645 38.1372V41.4636C130.645 42.1564 131.861 42.4419 132.34 42.0249C132.422 41.9539 132.682 41.4156 132.682 41.3507V38.1372H133.588V41.3507C133.588 41.8173 133.165 42.6337 132.724 42.8588C132.253 43.0991 130.916 43.0579 130.451 42.7838C130.132 42.5964 129.738 41.9098 129.738 41.5764V38.1372H130.644H130.645Z" fill="black"/>
<path d="M160.756 38.1372V38.8137H158.661C158.339 39.111 158.542 39.6509 158.491 40.0543H160.643V40.8436H158.661C158.329 41.1708 158.55 41.7615 158.491 42.1964H160.869V42.9857H157.586V38.1372H160.756Z" fill="black"/>
<path d="M118.642 38.1372V38.8137H116.379V40.0543H118.416V40.8436H116.379V42.1964H118.642V42.9857H115.473V38.1372H118.642Z" fill="black"/>
<path d="M78.2245 38.1372V38.8137H75.9607V40.0543H77.998V40.8436H75.9607V42.1964H78.2245V42.9857H75.0547V38.1372H78.2245Z" fill="black"/>
<path d="M55.1624 39.7995C55.6182 40.2869 57.4104 39.9935 57.6148 41.2443C57.954 43.3143 55.4127 43.3549 54.1602 42.5368L54.454 41.7453C55.0135 42.2683 57.1239 42.5792 56.6981 41.369C56.497 40.7975 54.4908 41.0333 54.2496 39.9744C53.8063 38.0302 55.988 37.6054 57.347 38.3563C57.5123 38.5859 57.159 38.9701 57.0021 39.1354C56.347 38.7337 55.4852 38.5893 55.035 39.3453C55.0005 39.4824 55.0667 39.6973 55.1624 39.7995Z" fill="black"/>
<path d="M142.87 42.9857H141.965V38.1372H144.512C144.549 38.1372 145.07 38.4543 145.141 38.5248C145.826 39.1939 145.528 40.8131 144.488 41.0455C143.96 41.1634 143.281 40.8836 142.87 41.2385V42.9863V42.9857ZM143.055 38.83C142.761 38.9265 142.81 40.2286 142.976 40.3431C145.101 40.817 145.231 38.4695 143.055 38.83Z" fill="black"/>
<path d="M47.6362 41.0951C51.7924 40.8001 51.1684 47.6277 46.9777 46.312C44.2189 45.446 44.7891 41.2965 47.6362 41.0951ZM47.288 41.6599C45.3565 41.9871 44.9556 45.0156 47.0116 45.8274C50.4946 47.2023 51.374 40.9671 47.288 41.6599Z" fill="#FE6B00"/>
<path d="M100.076 38.1372V38.8142C99.983 38.9084 98.8925 38.6376 98.7175 38.9829V42.9857H97.8121V38.9829C97.6258 38.6309 96.4389 38.9146 96.3398 38.8142V38.1372H100.076H100.076Z" fill="black"/>
<path d="M64.529 38.1372V38.8142C64.4305 38.9146 63.2437 38.6309 63.0574 38.9829V42.9857H62.152V38.8137H60.793L60.7935 38.1372H64.5296H64.529Z" fill="black"/>
<path d="M175.361 38.1372V38.8142C175.263 38.9146 174.076 38.6309 173.889 38.9829V42.9857H172.984V38.8137H171.625L171.626 38.1372H175.362H175.361Z" fill="black"/>
<path d="M138.113 38.1372H137.32V42.9857H138.113V38.1372Z" fill="black"/>
<path d="M48.3954 42.4222C49.1938 42.5932 48.9583 43.8242 48.2278 44.0572L49.0177 45.2409C48.0053 45.4648 48.319 43.7983 47.0931 44.1131V45.242H46.6406V42.4228C47.1542 42.4967 47.922 42.3218 48.3954 42.4228V42.4222ZM47.2799 42.7748C46.6191 43.6352 47.6078 43.9602 48.285 43.44C48.6349 42.8617 47.678 42.6868 47.2799 42.7748Z" fill="#FE6B00"/>
</g>
<defs>
<clipPath id="clip0_8164_712">
<rect width="168.457" height="40" fill="white" transform="translate(9.57812 7)"/>
</clipPath>
</defs>
</svg>
