<svg width="176" height="55" viewBox="0 0 176 55" fill="none" xmlns="http://www.w3.org/2000/svg">
<g clip-path="url(#clip0_3306_783)">
<path d="M18.1947 18.0734C18.5755 16.1023 20.3376 14.4477 22.3082 14.0772C22.5783 14.0257 22.3854 14 22.303 14H17.8912C15.6094 14 13.3893 15.8321 12.9571 18.0734L8.51953 40.9981H9.61285C11.8947 40.9981 14.1147 39.1788 14.5469 36.9376L18.1947 18.0734Z" fill="black"/>
<path d="M49.2041 14H35.3769C33.0976 14 30.8776 15.8321 30.4454 18.0734L26.0078 40.9981H28.8479C31.1322 40.9981 33.3498 39.1763 33.7819 36.9376L37.0953 19.8129C37.2034 19.2493 37.759 18.7913 38.3276 18.7913H44.8437C45.4148 18.7913 45.7904 19.2493 45.6849 19.8103L44.6019 25.4096C44.4939 25.968 43.9408 26.426 43.3697 26.426H36.8741L36.7429 27.1105C36.3081 29.3492 37.8208 31.1839 40.1 31.1839H45.883C48.1623 31.1839 50.3823 29.3492 50.8145 27.1105L52.5664 18.0734C52.996 15.8321 51.4834 14 49.2041 14Z" fill="black"/>
<path d="M115.258 40.2699C115.69 38.0286 114.18 36.1991 111.898 36.1991H105.794C105.223 36.1991 104.842 35.741 104.953 35.1826L107.921 19.8154C108.029 19.2519 108.585 18.7939 109.154 18.7939H115.263C117.542 18.7939 119.763 16.9592 120.195 14.7205L120.336 14H106.208C103.929 14 101.709 15.8321 101.274 18.0708L97.6441 36.9247C97.212 39.166 98.722 40.9955 101.004 40.9955H115.117L115.258 40.2673V40.2699Z" fill="black"/>
<path d="M140.544 14H126.282C124 14 121.783 15.8321 121.346 18.0708L117.718 36.9247C117.286 39.166 118.796 40.9955 121.078 40.9955H135.325C137.604 40.9955 139.826 39.166 140.259 36.9247L143.904 18.0708C144.334 15.8321 142.823 14 140.544 14ZM125.027 35.1801L127.998 19.8103C128.104 19.2493 128.662 18.7913 129.233 18.7913H135.752C136.32 18.7913 136.698 19.2493 136.59 19.8103L133.619 35.1801C133.511 35.7384 132.955 36.1965 132.387 36.1965H125.865C125.297 36.1965 124.919 35.7384 125.027 35.1801Z" fill="black"/>
<path d="M75.5815 27.1105L77.3308 18.0734C77.7655 15.8321 76.2529 14 73.9711 14H60.1464C57.8646 14 55.6471 15.8321 55.2149 18.0734L50.7773 40.9981H57.7643L61.8649 19.8103C61.9703 19.2493 62.526 18.7913 63.0971 18.7913H69.6081C70.1792 18.7913 70.5574 19.2493 70.4493 19.8103L69.3689 25.4096C69.2608 25.968 68.7052 26.426 68.1366 26.426H61.6385L61.5073 27.1105C61.4172 27.5814 61.3401 28.5309 61.7285 29.272L68.381 40.9981H75.8413L70.2744 31.1839H70.65C72.9318 31.1839 75.1519 29.3492 75.5841 27.1105" fill="black"/>
<path d="M166.923 27.1105L168.675 18.0734C169.104 15.8321 167.594 14 165.312 14H151.49C149.208 14 146.988 15.8321 146.556 18.0734L142.121 40.9981H149.108L153.206 19.8103C153.314 19.2493 153.87 18.7913 154.438 18.7913H160.957C161.526 18.7913 161.904 19.2493 161.793 19.8103L160.713 25.4096C160.602 25.968 160.051 26.426 159.48 26.426H152.982L152.851 27.1105C152.761 27.5814 152.684 28.5309 153.07 29.272L159.725 40.9981H167.182L161.616 31.1839H161.994C164.276 31.1839 166.493 29.3492 166.928 27.1105" fill="black"/>
<path d="M27.8139 18.0708C28.1921 16.11 29.9388 14.4632 31.899 14.0823C32.1795 14.0283 32.0174 14 31.9171 14H25.7636C23.4818 14 21.2643 15.8321 20.8295 18.0734L16.3945 40.9981H19.232C21.5164 40.9981 23.7339 39.1788 24.1687 36.9376L27.8165 18.0708H27.8139Z" fill="black"/>
<path d="M6.82182 18.0734L2.39453 40.9492C4.42681 40.6378 6.27388 38.9601 6.6649 36.9401L10.3101 18.0734C10.6909 16.1049 12.4505 14.4529 14.4184 14.0798C14.6911 14.0283 14.4776 14 14.4184 14H11.7559C9.47408 14 7.254 15.8321 6.82182 18.0734Z" fill="black"/>
<path d="M85.3883 14C83.1065 14 80.8864 15.8321 80.4542 18.0708L76.8244 36.9247C76.3897 39.166 77.9049 40.9955 80.1841 40.9955H95.0095L95.1484 40.2699C95.5806 38.0312 94.0705 36.1965 91.7887 36.1965H84.9664C84.3979 36.1965 84.0197 35.741 84.1278 35.1801L85.1619 29.8329H94.6828L95.5986 25.1008H86.0752L87.099 19.8154V19.8103C87.2071 19.2493 87.7627 18.7913 88.3313 18.7913H95.1536C97.4354 18.7913 99.6555 16.9566 100.088 14.7205L100.229 14H85.3883Z" fill="black"/>
<path d="M172.849 16.2674C173.065 16.2674 173.196 16.2159 173.196 15.974C173.196 15.7321 173.065 15.673 172.849 15.673H172.344V16.2674H172.849ZM172.344 17.5308C172.344 17.7187 172.28 17.8525 172.049 17.8525C171.817 17.8525 171.75 17.7444 171.75 17.5308V15.4748C171.75 15.323 171.804 15.1969 172.054 15.1969H172.81C173.348 15.1969 173.798 15.3565 173.798 15.9766C173.798 16.4501 173.561 16.6868 173.139 16.71L173.608 17.4819C173.636 17.5334 173.649 17.5823 173.649 17.6234C173.649 17.7701 173.556 17.855 173.335 17.855C173.126 17.855 173.054 17.6929 172.972 17.5334L172.553 16.7511H172.35V17.5334L172.344 17.5308ZM172.728 18.3311C173.757 18.3311 174.585 17.5025 174.585 16.4809C174.585 15.4594 173.757 14.6282 172.728 14.6282C171.699 14.6282 170.881 15.4542 170.881 16.4809C170.881 17.5077 171.704 18.3311 172.728 18.3311ZM172.728 14.0312C174.083 14.0312 175.179 15.1274 175.179 16.4809C175.179 17.8344 174.083 18.9306 172.728 18.9306C171.372 18.9306 170.281 17.8319 170.281 16.4809C170.281 15.13 171.385 14.0312 172.728 14.0312Z" fill="black"/>
</g>
<defs>
<clipPath id="clip0_3306_783">
<rect width="175" height="55" fill="white" transform="translate(0.363281)"/>
</clipPath>
</defs>
</svg>
